  0
SECTION
  2
BLOCKS
  0
ENDSEC
  0
SECTION
  2
ENTITIES
  0
LINE
  8
0
 10
42.8086
 20
-47.2103
 11
43.6095
 21
-47.0915
  0
LINE
  8
0
 10
43.6095
 20
-47.0915
 11
44.3948
 21
-46.8947
  0
LINE
  8
0
 10
44.3948
 20
-46.8947
 11
45.1571
 21
-46.622
  0
LINE
  8
0
 10
45.1571
 20
-46.622
 11
45.889
 21
-46.2758
  0
LINE
  8
0
 10
45.889
 20
-46.2758
 11
46.5835
 21
-45.8596
  0
LINE
  8
0
 10
46.5835
 20
-45.8596
 11
47.2337
 21
-45.3773
  0
LINE
  8
0
 10
47.2337
 20
-45.3773
 11
47.8336
 21
-44.8336
  0
LINE
  8
0
 10
47.8336
 20
-44.8336
 11
48.3773
 21
-44.2337
  0
LINE
  8
0
 10
48.3773
 20
-44.2337
 11
48.8596
 21
-43.5835
  0
LINE
  8
0
 10
48.8596
 20
-43.5835
 11
49.2758
 21
-42.889
  0
LINE
  8
0
 10
49.2758
 20
-42.889
 11
49.622
 21
-42.1571
  0
LINE
  8
0
 10
49.622
 20
-42.1571
 11
49.8947
 21
-41.3948
  0
LINE
  8
0
 10
49.8947
 20
-41.3948
 11
50.0915
 21
-40.6095
  0
LINE
  8
0
 10
50.0915
 20
-40.6095
 11
50.2103
 21
-39.8086
  0
LINE
  8
0
 10
50.2103
 20
-39.8086
 11
50.25
 21
-39
  0
LINE
  8
0
 10
50.25
 20
-39
 11
50.2103
 21
-38.1913
  0
LINE
  8
0
 10
50.2103
 20
-38.1913
 11
50.0915
 21
-37.3905
  0
LINE
  8
0
 10
50.0915
 20
-37.3905
 11
49.8947
 21
-36.6051
  0
LINE
  8
0
 10
49.8947
 20
-36.6051
 11
49.622
 21
-35.8428
  0
LINE
  8
0
 10
49.622
 20
-35.8428
 11
49.2758
 21
-35.111
  0
LINE
  8
0
 10
49.2758
 20
-35.111
 11
48.8596
 21
-34.4165
  0
LINE
  8
0
 10
48.8596
 20
-34.4165
 11
48.3773
 21
-33.7663
  0
LINE
  8
0
 10
48.3773
 20
-33.7663
 11
47.8336
 21
-33.1664
  0
LINE
  8
0
 10
47.8336
 20
-33.1664
 11
47.2337
 21
-32.6227
  0
LINE
  8
0
 10
47.2337
 20
-32.6227
 11
15.2
 21
-8.78535
  0
LINE
  8
0
 10
15.2
 20
-8.78535
 11
15.2
 21
-13
  0
LINE
  8
0
 10
15.2
 20
-13
 11
15.1952
 21
-13.098
  0
LINE
  8
0
 10
15.1952
 20
-13.098
 11
15.1808
 21
-13.1951
  0
LINE
  8
0
 10
15.1808
 20
-13.1951
 11
15.1569
 21
-13.2903
  0
LINE
  8
0
 10
15.1569
 20
-13.2903
 11
15.1239
 21
-13.3827
  0
LINE
  8
0
 10
15.1239
 20
-13.3827
 11
15.0819
 21
-13.4714
  0
LINE
  8
0
 10
15.0819
 20
-13.4714
 11
15.0315
 21
-13.5556
  0
LINE
  8
0
 10
15.0315
 20
-13.5556
 11
14.973
 21
-13.6344
  0
LINE
  8
0
 10
14.973
 20
-13.6344
 11
14.9071
 21
-13.7071
  0
LINE
  8
0
 10
14.9071
 20
-13.7071
 11
14.8344
 21
-13.773
  0
LINE
  8
0
 10
14.8344
 20
-13.773
 11
14.7556
 21
-13.8315
  0
LINE
  8
0
 10
14.7556
 20
-13.8315
 11
14.6714
 21
-13.8819
  0
LINE
  8
0
 10
14.6714
 20
-13.8819
 11
14.5827
 21
-13.9239
  0
LINE
  8
0
 10
14.5827
 20
-13.9239
 11
14.4903
 21
-13.9569
  0
LINE
  8
0
 10
14.4903
 20
-13.9569
 11
14.3951
 21
-13.9808
  0
LINE
  8
0
 10
14.3951
 20
-13.9808
 11
14.298
 21
-13.9952
  0
LINE
  8
0
 10
14.298
 20
-13.9952
 11
14.2
 21
-14
  0
LINE
  8
0
 10
14.2
 20
-14
 11
13.8
 21
-14
  0
LINE
  8
0
 10
13.8
 20
-14
 11
13.702
 21
-13.9952
  0
LINE
  8
0
 10
13.702
 20
-13.9952
 11
13.6049
 21
-13.9808
  0
LINE
  8
0
 10
13.6049
 20
-13.9808
 11
13.5097
 21
-13.9569
  0
LINE
  8
0
 10
13.5097
 20
-13.9569
 11
13.4173
 21
-13.9239
  0
LINE
  8
0
 10
13.4173
 20
-13.9239
 11
13.3286
 21
-13.8819
  0
LINE
  8
0
 10
13.3286
 20
-13.8819
 11
13.2444
 21
-13.8315
  0
LINE
  8
0
 10
13.2444
 20
-13.8315
 11
13.2076
 21
-13.8042
  0
LINE
  8
0
 10
13.2076
 20
-13.8042
 11
13.1901
 21
-13.8125
  0
LINE
  8
0
 10
13.1901
 20
-13.8125
 11
13.0838
 21
-13.8505
  0
LINE
  8
0
 10
13.0838
 20
-13.8505
 11
12.9743
 21
-13.8779
  0
LINE
  8
0
 10
12.9743
 20
-13.8779
 11
12.8627
 21
-13.8945
  0
LINE
  8
0
 10
12.8627
 20
-13.8945
 11
12.75
 21
-13.9
  0
LINE
  8
0
 10
12.75
 20
-13.9
 11
12.6373
 21
-13.8945
  0
LINE
  8
0
 10
12.6373
 20
-13.8945
 11
12.5256
 21
-13.8779
  0
LINE
  8
0
 10
12.5256
 20
-13.8779
 11
12.4162
 21
-13.8505
  0
LINE
  8
0
 10
12.4162
 20
-13.8505
 11
12.3099
 21
-13.8125
  0
LINE
  8
0
 10
12.3099
 20
-13.8125
 11
12.2079
 21
-13.7642
  0
LINE
  8
0
 10
12.2079
 20
-13.7642
 11
12.1111
 21
-13.7062
  0
LINE
  8
0
 10
12.1111
 20
-13.7062
 11
12.0204
 21
-13.639
  0
LINE
  8
0
 10
12.0204
 20
-13.639
 11
11.9368
 21
-13.5632
  0
LINE
  8
0
 10
11.9368
 20
-13.5632
 11
11.861
 21
-13.4795
  0
LINE
  8
0
 10
11.861
 20
-13.4795
 11
11.7938
 21
-13.3889
  0
LINE
  8
0
 10
11.7938
 20
-13.3889
 11
11.7358
 21
-13.2921
  0
LINE
  8
0
 10
11.7358
 20
-13.2921
 11
11.6875
 21
-13.1901
  0
LINE
  8
0
 10
11.6875
 20
-13.1901
 11
11.6495
 21
-13.0838
  0
LINE
  8
0
 10
11.6495
 20
-13.0838
 11
11.6221
 21
-12.9743
  0
LINE
  8
0
 10
11.6221
 20
-12.9743
 11
11.6055
 21
-12.8627
  0
LINE
  8
0
 10
11.6055
 20
-12.8627
 11
11.6
 21
-12.75
  0
LINE
  8
0
 10
11.6
 20
-12.75
 11
11.6055
 21
-12.6373
  0
LINE
  8
0
 10
11.6055
 20
-12.6373
 11
11.6221
 21
-12.5256
  0
LINE
  8
0
 10
11.6221
 20
-12.5256
 11
11.6495
 21
-12.4162
  0
LINE
  8
0
 10
11.6495
 20
-12.4162
 11
11.6875
 21
-12.3099
  0
LINE
  8
0
 10
11.6875
 20
-12.3099
 11
11.7358
 21
-12.2079
  0
LINE
  8
0
 10
11.7358
 20
-12.2079
 11
11.7938
 21
-12.1111
  0
LINE
  8
0
 10
11.7938
 20
-12.1111
 11
11.861
 21
-12.0204
  0
LINE
  8
0
 10
11.861
 20
-12.0204
 11
11.9368
 21
-11.9368
  0
LINE
  8
0
 10
11.9368
 20
-11.9368
 11
12.0204
 21
-11.861
  0
LINE
  8
0
 10
12.0204
 20
-11.861
 11
12.1111
 21
-11.7938
  0
LINE
  8
0
 10
12.1111
 20
-11.7938
 11
12.2079
 21
-11.7358
  0
LINE
  8
0
 10
12.2079
 20
-11.7358
 11
12.3099
 21
-11.6875
  0
LINE
  8
0
 10
12.3099
 20
-11.6875
 11
12.4162
 21
-11.6495
  0
LINE
  8
0
 10
12.4162
 20
-11.6495
 11
12.5256
 21
-11.6221
  0
LINE
  8
0
 10
12.5256
 20
-11.6221
 11
12.6373
 21
-11.6055
  0
LINE
  8
0
 10
12.6373
 20
-11.6055
 11
12.75
 21
-11.6
  0
LINE
  8
0
 10
12.75
 20
-11.6
 11
12.8
 21
-11.6024
  0
LINE
  8
0
 10
12.8
 20
-11.6024
 11
12.8
 21
-7
  0
LINE
  8
0
 10
12.8
 20
-7
 11
12.8048
 21
-6.90198
  0
LINE
  8
0
 10
12.8048
 20
-6.90198
 11
12.8192
 21
-6.80492
  0
LINE
  8
0
 10
12.8192
 20
-6.80492
 11
12.8431
 21
-6.70972
  0
LINE
  8
0
 10
12.8431
 20
-6.70972
 11
12.8761
 21
-6.61731
  0
LINE
  8
0
 10
12.8761
 20
-6.61731
 11
12.9181
 21
-6.52861
  0
LINE
  8
0
 10
12.9181
 20
-6.52861
 11
12.9685
 21
-6.44443
  0
LINE
  8
0
 10
12.9685
 20
-6.44443
 11
13.027
 21
-6.3656
  0
LINE
  8
0
 10
13.027
 20
-6.3656
 11
13.0929
 21
-6.29289
  0
LINE
  8
0
 10
13.0929
 20
-6.29289
 11
13.1656
 21
-6.22699
  0
LINE
  8
0
 10
13.1656
 20
-6.22699
 11
13.2444
 21
-6.16853
  0
LINE
  8
0
 10
13.2444
 20
-6.16853
 11
13.3286
 21
-6.11807
  0
LINE
  8
0
 10
13.3286
 20
-6.11807
 11
13.4173
 21
-6.07613
  0
LINE
  8
0
 10
13.4173
 20
-6.07613
 11
13.5097
 21
-6.04306
  0
LINE
  8
0
 10
13.5097
 20
-6.04306
 11
13.6049
 21
-6.01921
  0
LINE
  8
0
 10
13.6049
 20
-6.01921
 11
13.702
 21
-6.00482
  0
LINE
  8
0
 10
13.702
 20
-6.00482
 11
13.8
 21
-6
  0
LINE
  8
0
 10
13.8
 20
-6
 11
14.2
 21
-6
  0
LINE
  8
0
 10
14.2
 20
-6
 11
14.298
 21
-6.00482
  0
LINE
  8
0
 10
14.298
 20
-6.00482
 11
14.3951
 21
-6.01921
  0
LINE
  8
0
 10
14.3951
 20
-6.01921
 11
14.4903
 21
-6.04306
  0
LINE
  8
0
 10
14.4903
 20
-6.04306
 11
14.5827
 21
-6.07613
  0
LINE
  8
0
 10
14.5827
 20
-6.07613
 11
14.6714
 21
-6.11807
  0
LINE
  8
0
 10
14.6714
 20
-6.11807
 11
14.7556
 21
-6.16853
  0
LINE
  8
0
 10
14.7556
 20
-6.16853
 11
14.8344
 21
-6.22699
  0
LINE
  8
0
 10
14.8344
 20
-6.22699
 11
14.9071
 21
-6.29289
  0
LINE
  8
0
 10
14.9071
 20
-6.29289
 11
14.973
 21
-6.3656
  0
LINE
  8
0
 10
14.973
 20
-6.3656
 11
15
 21
-6.40199
  0
LINE
  8
0
 10
15
 20
-6.40199
 11
15
 21
6.40199
  0
LINE
  8
0
 10
15
 20
6.40199
 11
14.973
 21
6.3656
  0
LINE
  8
0
 10
14.973
 20
6.3656
 11
14.9071
 21
6.29289
  0
LINE
  8
0
 10
14.9071
 20
6.29289
 11
14.8344
 21
6.22699
  0
LINE
  8
0
 10
14.8344
 20
6.22699
 11
14.7556
 21
6.16853
  0
LINE
  8
0
 10
14.7556
 20
6.16853
 11
14.6714
 21
6.11807
  0
LINE
  8
0
 10
14.6714
 20
6.11807
 11
14.5827
 21
6.07613
  0
LINE
  8
0
 10
14.5827
 20
6.07613
 11
14.4903
 21
6.04306
  0
LINE
  8
0
 10
14.4903
 20
6.04306
 11
14.3951
 21
6.01921
  0
LINE
  8
0
 10
14.3951
 20
6.01921
 11
14.298
 21
6.00482
  0
LINE
  8
0
 10
14.298
 20
6.00482
 11
14.2
 21
6
  0
LINE
  8
0
 10
14.2
 20
6
 11
13.8
 21
6
  0
LINE
  8
0
 10
13.8
 20
6
 11
13.702
 21
6.00482
  0
LINE
  8
0
 10
13.702
 20
6.00482
 11
13.6049
 21
6.01921
  0
LINE
  8
0
 10
13.6049
 20
6.01921
 11
13.5097
 21
6.04306
  0
LINE
  8
0
 10
13.5097
 20
6.04306
 11
13.4173
 21
6.07613
  0
LINE
  8
0
 10
13.4173
 20
6.07613
 11
13.3286
 21
6.11807
  0
LINE
  8
0
 10
13.3286
 20
6.11807
 11
13.2444
 21
6.16853
  0
LINE
  8
0
 10
13.2444
 20
6.16853
 11
13.1656
 21
6.22699
  0
LINE
  8
0
 10
13.1656
 20
6.22699
 11
13.0929
 21
6.29289
  0
LINE
  8
0
 10
13.0929
 20
6.29289
 11
13.027
 21
6.3656
  0
LINE
  8
0
 10
13.027
 20
6.3656
 11
12.9685
 21
6.44443
  0
LINE
  8
0
 10
12.9685
 20
6.44443
 11
12.9181
 21
6.52861
  0
LINE
  8
0
 10
12.9181
 20
6.52861
 11
12.8761
 21
6.61731
  0
LINE
  8
0
 10
12.8761
 20
6.61731
 11
12.8431
 21
6.70972
  0
LINE
  8
0
 10
12.8431
 20
6.70972
 11
12.8192
 21
6.80492
  0
LINE
  8
0
 10
12.8192
 20
6.80492
 11
12.8048
 21
6.90198
  0
LINE
  8
0
 10
12.8048
 20
6.90198
 11
12.8
 21
7
  0
LINE
  8
0
 10
12.8
 20
7
 11
12.8
 21
11.6024
  0
LINE
  8
0
 10
12.8
 20
11.6024
 11
12.75
 21
11.6
  0
LINE
  8
0
 10
12.75
 20
11.6
 11
12.6373
 21
11.6055
  0
LINE
  8
0
 10
12.6373
 20
11.6055
 11
12.5256
 21
11.6221
  0
LINE
  8
0
 10
12.5256
 20
11.6221
 11
12.4162
 21
11.6495
  0
LINE
  8
0
 10
12.4162
 20
11.6495
 11
12.3099
 21
11.6875
  0
LINE
  8
0
 10
12.3099
 20
11.6875
 11
12.2079
 21
11.7358
  0
LINE
  8
0
 10
12.2079
 20
11.7358
 11
12.1111
 21
11.7938
  0
LINE
  8
0
 10
12.1111
 20
11.7938
 11
12.0204
 21
11.861
  0
LINE
  8
0
 10
12.0204
 20
11.861
 11
11.9368
 21
11.9368
  0
LINE
  8
0
 10
11.9368
 20
11.9368
 11
11.861
 21
12.0204
  0
LINE
  8
0
 10
11.861
 20
12.0204
 11
11.7938
 21
12.1111
  0
LINE
  8
0
 10
11.7938
 20
12.1111
 11
11.7358
 21
12.2079
  0
LINE
  8
0
 10
11.7358
 20
12.2079
 11
11.6875
 21
12.3099
  0
LINE
  8
0
 10
11.6875
 20
12.3099
 11
11.6495
 21
12.4162
  0
LINE
  8
0
 10
11.6495
 20
12.4162
 11
11.6221
 21
12.5256
  0
LINE
  8
0
 10
11.6221
 20
12.5256
 11
11.6055
 21
12.6373
  0
LINE
  8
0
 10
11.6055
 20
12.6373
 11
11.6
 21
12.75
  0
LINE
  8
0
 10
11.6
 20
12.75
 11
11.6055
 21
12.8627
  0
LINE
  8
0
 10
11.6055
 20
12.8627
 11
11.6221
 21
12.9743
  0
LINE
  8
0
 10
11.6221
 20
12.9743
 11
11.6495
 21
13.0838
  0
LINE
  8
0
 10
11.6495
 20
13.0838
 11
11.6875
 21
13.1901
  0
LINE
  8
0
 10
11.6875
 20
13.1901
 11
11.7358
 21
13.2921
  0
LINE
  8
0
 10
11.7358
 20
13.2921
 11
11.7938
 21
13.3889
  0
LINE
  8
0
 10
11.7938
 20
13.3889
 11
11.861
 21
13.4795
  0
LINE
  8
0
 10
11.861
 20
13.4795
 11
11.9368
 21
13.5632
  0
LINE
  8
0
 10
11.9368
 20
13.5632
 11
12.0204
 21
13.639
  0
LINE
  8
0
 10
12.0204
 20
13.639
 11
12.1111
 21
13.7062
  0
LINE
  8
0
 10
12.1111
 20
13.7062
 11
12.2079
 21
13.7642
  0
LINE
  8
0
 10
12.2079
 20
13.7642
 11
12.3099
 21
13.8125
  0
LINE
  8
0
 10
12.3099
 20
13.8125
 11
12.4162
 21
13.8505
  0
LINE
  8
0
 10
12.4162
 20
13.8505
 11
12.5256
 21
13.8779
  0
LINE
  8
0
 10
12.5256
 20
13.8779
 11
12.6373
 21
13.8945
  0
LINE
  8
0
 10
12.6373
 20
13.8945
 11
12.75
 21
13.9
  0
LINE
  8
0
 10
12.75
 20
13.9
 11
12.8627
 21
13.8945
  0
LINE
  8
0
 10
12.8627
 20
13.8945
 11
12.9743
 21
13.8779
  0
LINE
  8
0
 10
12.9743
 20
13.8779
 11
13.0838
 21
13.8505
  0
LINE
  8
0
 10
13.0838
 20
13.8505
 11
13.1901
 21
13.8125
  0
LINE
  8
0
 10
13.1901
 20
13.8125
 11
13.2076
 21
13.8042
  0
LINE
  8
0
 10
13.2076
 20
13.8042
 11
13.2444
 21
13.8315
  0
LINE
  8
0
 10
13.2444
 20
13.8315
 11
13.3286
 21
13.8819
  0
LINE
  8
0
 10
13.3286
 20
13.8819
 11
13.4173
 21
13.9239
  0
LINE
  8
0
 10
13.4173
 20
13.9239
 11
13.5097
 21
13.9569
  0
LINE
  8
0
 10
13.5097
 20
13.9569
 11
13.6049
 21
13.9808
  0
LINE
  8
0
 10
13.6049
 20
13.9808
 11
13.702
 21
13.9952
  0
LINE
  8
0
 10
13.702
 20
13.9952
 11
13.8
 21
14
  0
LINE
  8
0
 10
13.8
 20
14
 11
14.2
 21
14
  0
LINE
  8
0
 10
14.2
 20
14
 11
14.298
 21
13.9952
  0
LINE
  8
0
 10
14.298
 20
13.9952
 11
14.3951
 21
13.9808
  0
LINE
  8
0
 10
14.3951
 20
13.9808
 11
14.4903
 21
13.9569
  0
LINE
  8
0
 10
14.4903
 20
13.9569
 11
14.5827
 21
13.9239
  0
LINE
  8
0
 10
14.5827
 20
13.9239
 11
14.6714
 21
13.8819
  0
LINE
  8
0
 10
14.6714
 20
13.8819
 11
14.7556
 21
13.8315
  0
LINE
  8
0
 10
14.7556
 20
13.8315
 11
14.8344
 21
13.773
  0
LINE
  8
0
 10
14.8344
 20
13.773
 11
14.9071
 21
13.7071
  0
LINE
  8
0
 10
14.9071
 20
13.7071
 11
14.973
 21
13.6344
  0
LINE
  8
0
 10
14.973
 20
13.6344
 11
15.0315
 21
13.5556
  0
LINE
  8
0
 10
15.0315
 20
13.5556
 11
15.0819
 21
13.4714
  0
LINE
  8
0
 10
15.0819
 20
13.4714
 11
15.1239
 21
13.3827
  0
LINE
  8
0
 10
15.1239
 20
13.3827
 11
15.1569
 21
13.2903
  0
LINE
  8
0
 10
15.1569
 20
13.2903
 11
15.1808
 21
13.1951
  0
LINE
  8
0
 10
15.1808
 20
13.1951
 11
15.1952
 21
13.098
  0
LINE
  8
0
 10
15.1952
 20
13.098
 11
15.2
 21
13
  0
LINE
  8
0
 10
15.2
 20
13
 11
15.2
 21
8.78535
  0
LINE
  8
0
 10
15.2
 20
8.78535
 11
47.2337
 21
32.6227
  0
LINE
  8
0
 10
47.2337
 20
32.6227
 11
47.8336
 21
33.1664
  0
LINE
  8
0
 10
47.8336
 20
33.1664
 11
48.3773
 21
33.7663
  0
LINE
  8
0
 10
48.3773
 20
33.7663
 11
48.8596
 21
34.4165
  0
LINE
  8
0
 10
48.8596
 20
34.4165
 11
49.2758
 21
35.111
  0
LINE
  8
0
 10
49.2758
 20
35.111
 11
49.622
 21
35.8428
  0
LINE
  8
0
 10
49.622
 20
35.8428
 11
49.8947
 21
36.6051
  0
LINE
  8
0
 10
49.8947
 20
36.6051
 11
50.0915
 21
37.3905
  0
LINE
  8
0
 10
50.0915
 20
37.3905
 11
50.2103
 21
38.1913
  0
LINE
  8
0
 10
50.2103
 20
38.1913
 11
50.25
 21
39
  0
LINE
  8
0
 10
50.25
 20
39
 11
50.2103
 21
39.8086
  0
LINE
  8
0
 10
50.2103
 20
39.8086
 11
50.0915
 21
40.6095
  0
LINE
  8
0
 10
50.0915
 20
40.6095
 11
49.8947
 21
41.3948
  0
LINE
  8
0
 10
49.8947
 20
41.3948
 11
49.622
 21
42.1571
  0
LINE
  8
0
 10
49.622
 20
42.1571
 11
49.2758
 21
42.889
  0
LINE
  8
0
 10
49.2758
 20
42.889
 11
48.8596
 21
43.5835
  0
LINE
  8
0
 10
48.8596
 20
43.5835
 11
48.3773
 21
44.2337
  0
LINE
  8
0
 10
48.3773
 20
44.2337
 11
47.8336
 21
44.8336
  0
LINE
  8
0
 10
47.8336
 20
44.8336
 11
47.2337
 21
45.3773
  0
LINE
  8
0
 10
47.2337
 20
45.3773
 11
46.5835
 21
45.8596
  0
LINE
  8
0
 10
46.5835
 20
45.8596
 11
45.889
 21
46.2758
  0
LINE
  8
0
 10
45.889
 20
46.2758
 11
45.1571
 21
46.622
  0
LINE
  8
0
 10
45.1571
 20
46.622
 11
44.3948
 21
46.8947
  0
LINE
  8
0
 10
44.3948
 20
46.8947
 11
43.6095
 21
47.0915
  0
LINE
  8
0
 10
43.6095
 20
47.0915
 11
42.8086
 21
47.2103
  0
LINE
  8
0
 10
42.8086
 20
47.2103
 11
42
 21
47.25
  0
LINE
  8
0
 10
42
 20
47.25
 11
41.1913
 21
47.2103
  0
LINE
  8
0
 10
41.1913
 20
47.2103
 11
40.3905
 21
47.0915
  0
LINE
  8
0
 10
40.3905
 20
47.0915
 11
39.6051
 21
46.8947
  0
LINE
  8
0
 10
39.6051
 20
46.8947
 11
38.8428
 21
46.622
  0
LINE
  8
0
 10
38.8428
 20
46.622
 11
38.111
 21
46.2758
  0
LINE
  8
0
 10
38.111
 20
46.2758
 11
37.4165
 21
45.8596
  0
LINE
  8
0
 10
37.4165
 20
45.8596
 11
36.7663
 21
45.3773
  0
LINE
  8
0
 10
36.7663
 20
45.3773
 11
15
 21
25.6983
  0
LINE
  8
0
 10
15
 20
25.6983
 11
15
 21
26
  0
LINE
  8
0
 10
15
 20
26
 11
14.9759
 21
26.4901
  0
LINE
  8
0
 10
14.9759
 20
26.4901
 11
14.9039
 21
26.9754
  0
LINE
  8
0
 10
14.9039
 20
26.9754
 11
14.7847
 21
27.4514
  0
LINE
  8
0
 10
14.7847
 20
27.4514
 11
14.6194
 21
27.9134
  0
LINE
  8
0
 10
14.6194
 20
27.9134
 11
14.4096
 21
28.357
  0
LINE
  8
0
 10
14.4096
 20
28.357
 11
14.1573
 21
28.7778
  0
LINE
  8
0
 10
14.1573
 20
28.7778
 11
13.8651
 21
29.172
  0
LINE
  8
0
 10
13.8651
 20
29.172
 11
13.5355
 21
29.5355
  0
LINE
  8
0
 10
13.5355
 20
29.5355
 11
13.172
 21
29.8651
  0
LINE
  8
0
 10
13.172
 20
29.8651
 11
12.7778
 21
30.1573
  0
LINE
  8
0
 10
12.7778
 20
30.1573
 11
12.357
 21
30.4096
  0
LINE
  8
0
 10
12.357
 20
30.4096
 11
11.9134
 21
30.6194
  0
LINE
  8
0
 10
11.9134
 20
30.6194
 11
11.4514
 21
30.7847
  0
LINE
  8
0
 10
11.4514
 20
30.7847
 11
10.9754
 21
30.9039
  0
LINE
  8
0
 10
10.9754
 20
30.9039
 11
10.4901
 21
30.9759
  0
LINE
  8
0
 10
10.4901
 20
30.9759
 11
10
 21
31
  0
LINE
  8
0
 10
10
 20
31
 11
-10
 21
31
  0
LINE
  8
0
 10
-10
 20
31
 11
-10.4901
 21
30.9759
  0
LINE
  8
0
 10
-10.4901
 20
30.9759
 11
-10.9754
 21
30.9039
  0
LINE
  8
0
 10
-10.9754
 20
30.9039
 11
-11.4514
 21
30.7847
  0
LINE
  8
0
 10
-11.4514
 20
30.7847
 11
-11.9134
 21
30.6194
  0
LINE
  8
0
 10
-11.9134
 20
30.6194
 11
-12.357
 21
30.4096
  0
LINE
  8
0
 10
-12.357
 20
30.4096
 11
-12.7778
 21
30.1573
  0
LINE
  8
0
 10
-12.7778
 20
30.1573
 11
-13.172
 21
29.8651
  0
LINE
  8
0
 10
-13.172
 20
29.8651
 11
-13.5355
 21
29.5355
  0
LINE
  8
0
 10
-13.5355
 20
29.5355
 11
-13.8651
 21
29.172
  0
LINE
  8
0
 10
-13.8651
 20
29.172
 11
-14.1573
 21
28.7778
  0
LINE
  8
0
 10
-14.1573
 20
28.7778
 11
-14.4096
 21
28.357
  0
LINE
  8
0
 10
-14.4096
 20
28.357
 11
-14.6194
 21
27.9134
  0
LINE
  8
0
 10
-14.6194
 20
27.9134
 11
-14.7847
 21
27.4514
  0
LINE
  8
0
 10
-14.7847
 20
27.4514
 11
-14.9039
 21
26.9754
  0
LINE
  8
0
 10
-14.9039
 20
26.9754
 11
-14.9759
 21
26.4901
  0
LINE
  8
0
 10
-14.9759
 20
26.4901
 11
-15
 21
26
  0
LINE
  8
0
 10
-15
 20
26
 11
-15
 21
25.6983
  0
LINE
  8
0
 10
-15
 20
25.6983
 11
-36.7663
 21
45.3773
  0
LINE
  8
0
 10
-36.7663
 20
45.3773
 11
-37.4165
 21
45.8596
  0
LINE
  8
0
 10
-37.4165
 20
45.8596
 11
-38.111
 21
46.2758
  0
LINE
  8
0
 10
-38.111
 20
46.2758
 11
-38.8428
 21
46.622
  0
LINE
  8
0
 10
-38.8428
 20
46.622
 11
-39.6051
 21
46.8947
  0
LINE
  8
0
 10
-39.6051
 20
46.8947
 11
-40.3905
 21
47.0915
  0
LINE
  8
0
 10
-40.3905
 20
47.0915
 11
-41.1913
 21
47.2103
  0
LINE
  8
0
 10
-41.1913
 20
47.2103
 11
-42
 21
47.25
  0
LINE
  8
0
 10
-42
 20
47.25
 11
-42.8086
 21
47.2103
  0
LINE
  8
0
 10
-42.8086
 20
47.2103
 11
-43.6095
 21
47.0915
  0
LINE
  8
0
 10
-43.6095
 20
47.0915
 11
-44.3948
 21
46.8947
  0
LINE
  8
0
 10
-44.3948
 20
46.8947
 11
-45.1571
 21
46.622
  0
LINE
  8
0
 10
-45.1571
 20
46.622
 11
-45.889
 21
46.2758
  0
LINE
  8
0
 10
-45.889
 20
46.2758
 11
-46.5835
 21
45.8596
  0
LINE
  8
0
 10
-46.5835
 20
45.8596
 11
-47.2337
 21
45.3773
  0
LINE
  8
0
 10
-47.2337
 20
45.3773
 11
-47.8336
 21
44.8336
  0
LINE
  8
0
 10
-47.8336
 20
44.8336
 11
-48.3773
 21
44.2337
  0
LINE
  8
0
 10
-48.3773
 20
44.2337
 11
-48.8596
 21
43.5835
  0
LINE
  8
0
 10
-48.8596
 20
43.5835
 11
-49.2758
 21
42.889
  0
LINE
  8
0
 10
-49.2758
 20
42.889
 11
-49.622
 21
42.1571
  0
LINE
  8
0
 10
-49.622
 20
42.1571
 11
-49.8947
 21
41.3948
  0
LINE
  8
0
 10
-49.8947
 20
41.3948
 11
-50.0915
 21
40.6095
  0
LINE
  8
0
 10
-50.0915
 20
40.6095
 11
-50.2103
 21
39.8086
  0
LINE
  8
0
 10
-50.2103
 20
39.8086
 11
-50.25
 21
39
  0
LINE
  8
0
 10
-50.25
 20
39
 11
-50.2103
 21
38.1913
  0
LINE
  8
0
 10
-50.2103
 20
38.1913
 11
-50.0915
 21
37.3905
  0
LINE
  8
0
 10
-50.0915
 20
37.3905
 11
-49.8947
 21
36.6051
  0
LINE
  8
0
 10
-49.8947
 20
36.6051
 11
-49.622
 21
35.8428
  0
LINE
  8
0
 10
-49.622
 20
35.8428
 11
-49.2758
 21
35.111
  0
LINE
  8
0
 10
-49.2758
 20
35.111
 11
-48.8596
 21
34.4165
  0
LINE
  8
0
 10
-48.8596
 20
34.4165
 11
-48.3773
 21
33.7663
  0
LINE
  8
0
 10
-48.3773
 20
33.7663
 11
-47.8336
 21
33.1664
  0
LINE
  8
0
 10
-47.8336
 20
33.1664
 11
-47.2337
 21
32.6227
  0
LINE
  8
0
 10
-47.2337
 20
32.6227
 11
-15.2
 21
8.78535
  0
LINE
  8
0
 10
-15.2
 20
8.78535
 11
-15.2
 21
13
  0
LINE
  8
0
 10
-15.2
 20
13
 11
-15.1952
 21
13.098
  0
LINE
  8
0
 10
-15.1952
 20
13.098
 11
-15.1808
 21
13.1951
  0
LINE
  8
0
 10
-15.1808
 20
13.1951
 11
-15.1569
 21
13.2903
  0
LINE
  8
0
 10
-15.1569
 20
13.2903
 11
-15.1239
 21
13.3827
  0
LINE
  8
0
 10
-15.1239
 20
13.3827
 11
-15.0819
 21
13.4714
  0
LINE
  8
0
 10
-15.0819
 20
13.4714
 11
-15.0315
 21
13.5556
  0
LINE
  8
0
 10
-15.0315
 20
13.5556
 11
-14.973
 21
13.6344
  0
LINE
  8
0
 10
-14.973
 20
13.6344
 11
-14.9071
 21
13.7071
  0
LINE
  8
0
 10
-14.9071
 20
13.7071
 11
-14.8344
 21
13.773
  0
LINE
  8
0
 10
-14.8344
 20
13.773
 11
-14.7556
 21
13.8315
  0
LINE
  8
0
 10
-14.7556
 20
13.8315
 11
-14.6714
 21
13.8819
  0
LINE
  8
0
 10
-14.6714
 20
13.8819
 11
-14.5827
 21
13.9239
  0
LINE
  8
0
 10
-14.5827
 20
13.9239
 11
-14.4903
 21
13.9569
  0
LINE
  8
0
 10
-14.4903
 20
13.9569
 11
-14.3951
 21
13.9808
  0
LINE
  8
0
 10
-14.3951
 20
13.9808
 11
-14.298
 21
13.9952
  0
LINE
  8
0
 10
-14.298
 20
13.9952
 11
-14.2
 21
14
  0
LINE
  8
0
 10
-14.2
 20
14
 11
-13.8
 21
14
  0
LINE
  8
0
 10
-13.8
 20
14
 11
-13.702
 21
13.9952
  0
LINE
  8
0
 10
-13.702
 20
13.9952
 11
-13.6049
 21
13.9808
  0
LINE
  8
0
 10
-13.6049
 20
13.9808
 11
-13.5097
 21
13.9569
  0
LINE
  8
0
 10
-13.5097
 20
13.9569
 11
-13.4173
 21
13.9239
  0
LINE
  8
0
 10
-13.4173
 20
13.9239
 11
-13.3286
 21
13.8819
  0
LINE
  8
0
 10
-13.3286
 20
13.8819
 11
-13.2444
 21
13.8315
  0
LINE
  8
0
 10
-13.2444
 20
13.8315
 11
-13.2076
 21
13.8042
  0
LINE
  8
0
 10
-13.2076
 20
13.8042
 11
-13.1901
 21
13.8125
  0
LINE
  8
0
 10
-13.1901
 20
13.8125
 11
-13.0838
 21
13.8505
  0
LINE
  8
0
 10
-13.0838
 20
13.8505
 11
-12.9743
 21
13.8779
  0
LINE
  8
0
 10
-12.9743
 20
13.8779
 11
-12.8627
 21
13.8945
  0
LINE
  8
0
 10
-12.8627
 20
13.8945
 11
-12.75
 21
13.9
  0
LINE
  8
0
 10
-12.75
 20
13.9
 11
-12.6373
 21
13.8945
  0
LINE
  8
0
 10
-12.6373
 20
13.8945
 11
-12.5256
 21
13.8779
  0
LINE
  8
0
 10
-12.5256
 20
13.8779
 11
-12.4162
 21
13.8505
  0
LINE
  8
0
 10
-12.4162
 20
13.8505
 11
-12.3099
 21
13.8125
  0
LINE
  8
0
 10
-12.3099
 20
13.8125
 11
-12.2079
 21
13.7642
  0
LINE
  8
0
 10
-12.2079
 20
13.7642
 11
-12.1111
 21
13.7062
  0
LINE
  8
0
 10
-12.1111
 20
13.7062
 11
-12.0204
 21
13.639
  0
LINE
  8
0
 10
-12.0204
 20
13.639
 11
-11.9368
 21
13.5632
  0
LINE
  8
0
 10
-11.9368
 20
13.5632
 11
-11.861
 21
13.4795
  0
LINE
  8
0
 10
-11.861
 20
13.4795
 11
-11.7938
 21
13.3889
  0
LINE
  8
0
 10
-11.7938
 20
13.3889
 11
-11.7358
 21
13.2921
  0
LINE
  8
0
 10
-11.7358
 20
13.2921
 11
-11.6875
 21
13.1901
  0
LINE
  8
0
 10
-11.6875
 20
13.1901
 11
-11.6495
 21
13.0838
  0
LINE
  8
0
 10
-11.6495
 20
13.0838
 11
-11.6221
 21
12.9743
  0
LINE
  8
0
 10
-11.6221
 20
12.9743
 11
-11.6055
 21
12.8627
  0
LINE
  8
0
 10
-11.6055
 20
12.8627
 11
-11.6
 21
12.75
  0
LINE
  8
0
 10
-11.6
 20
12.75
 11
-11.6055
 21
12.6373
  0
LINE
  8
0
 10
-11.6055
 20
12.6373
 11
-11.6221
 21
12.5256
  0
LINE
  8
0
 10
-11.6221
 20
12.5256
 11
-11.6495
 21
12.4162
  0
LINE
  8
0
 10
-11.6495
 20
12.4162
 11
-11.6875
 21
12.3099
  0
LINE
  8
0
 10
-11.6875
 20
12.3099
 11
-11.7358
 21
12.2079
  0
LINE
  8
0
 10
-11.7358
 20
12.2079
 11
-11.7938
 21
12.1111
  0
LINE
  8
0
 10
-11.7938
 20
12.1111
 11
-11.861
 21
12.0204
  0
LINE
  8
0
 10
-11.861
 20
12.0204
 11
-11.9368
 21
11.9368
  0
LINE
  8
0
 10
-11.9368
 20
11.9368
 11
-12.0204
 21
11.861
  0
LINE
  8
0
 10
-12.0204
 20
11.861
 11
-12.1111
 21
11.7938
  0
LINE
  8
0
 10
-12.1111
 20
11.7938
 11
-12.2079
 21
11.7358
  0
LINE
  8
0
 10
-12.2079
 20
11.7358
 11
-12.3099
 21
11.6875
  0
LINE
  8
0
 10
-12.3099
 20
11.6875
 11
-12.4162
 21
11.6495
  0
LINE
  8
0
 10
-12.4162
 20
11.6495
 11
-12.5256
 21
11.6221
  0
LINE
  8
0
 10
-12.5256
 20
11.6221
 11
-12.6373
 21
11.6055
  0
LINE
  8
0
 10
-12.6373
 20
11.6055
 11
-12.75
 21
11.6
  0
LINE
  8
0
 10
-12.75
 20
11.6
 11
-12.8
 21
11.6024
  0
LINE
  8
0
 10
-12.8
 20
11.6024
 11
-12.8
 21
7
  0
LINE
  8
0
 10
-12.8
 20
7
 11
-12.8048
 21
6.90198
  0
LINE
  8
0
 10
-12.8048
 20
6.90198
 11
-12.8192
 21
6.80492
  0
LINE
  8
0
 10
-12.8192
 20
6.80492
 11
-12.8431
 21
6.70972
  0
LINE
  8
0
 10
-12.8431
 20
6.70972
 11
-12.8761
 21
6.61731
  0
LINE
  8
0
 10
-12.8761
 20
6.61731
 11
-12.9181
 21
6.52861
  0
LINE
  8
0
 10
-12.9181
 20
6.52861
 11
-12.9685
 21
6.44443
  0
LINE
  8
0
 10
-12.9685
 20
6.44443
 11
-13.027
 21
6.3656
  0
LINE
  8
0
 10
-13.027
 20
6.3656
 11
-13.0929
 21
6.29289
  0
LINE
  8
0
 10
-13.0929
 20
6.29289
 11
-13.1656
 21
6.22699
  0
LINE
  8
0
 10
-13.1656
 20
6.22699
 11
-13.2444
 21
6.16853
  0
LINE
  8
0
 10
-13.2444
 20
6.16853
 11
-13.3286
 21
6.11807
  0
LINE
  8
0
 10
-13.3286
 20
6.11807
 11
-13.4173
 21
6.07613
  0
LINE
  8
0
 10
-13.4173
 20
6.07613
 11
-13.5097
 21
6.04306
  0
LINE
  8
0
 10
-13.5097
 20
6.04306
 11
-13.6049
 21
6.01921
  0
LINE
  8
0
 10
-13.6049
 20
6.01921
 11
-13.702
 21
6.00482
  0
LINE
  8
0
 10
-13.702
 20
6.00482
 11
-13.8
 21
6
  0
LINE
  8
0
 10
-13.8
 20
6
 11
-14.2
 21
6
  0
LINE
  8
0
 10
-14.2
 20
6
 11
-14.298
 21
6.00482
  0
LINE
  8
0
 10
-14.298
 20
6.00482
 11
-14.3951
 21
6.01921
  0
LINE
  8
0
 10
-14.3951
 20
6.01921
 11
-14.4903
 21
6.04306
  0
LINE
  8
0
 10
-14.4903
 20
6.04306
 11
-14.5827
 21
6.07613
  0
LINE
  8
0
 10
-14.5827
 20
6.07613
 11
-14.6714
 21
6.11807
  0
LINE
  8
0
 10
-14.6714
 20
6.11807
 11
-14.7556
 21
6.16853
  0
LINE
  8
0
 10
-14.7556
 20
6.16853
 11
-14.8344
 21
6.22699
  0
LINE
  8
0
 10
-14.8344
 20
6.22699
 11
-14.9071
 21
6.29289
  0
LINE
  8
0
 10
-14.9071
 20
6.29289
 11
-14.973
 21
6.3656
  0
LINE
  8
0
 10
-14.973
 20
6.3656
 11
-15
 21
6.40199
  0
LINE
  8
0
 10
-15
 20
6.40199
 11
-15
 21
-6.40199
  0
LINE
  8
0
 10
-15
 20
-6.40199
 11
-14.973
 21
-6.3656
  0
LINE
  8
0
 10
-14.973
 20
-6.3656
 11
-14.9071
 21
-6.29289
  0
LINE
  8
0
 10
-14.9071
 20
-6.29289
 11
-14.8344
 21
-6.22699
  0
LINE
  8
0
 10
-14.8344
 20
-6.22699
 11
-14.7556
 21
-6.16853
  0
LINE
  8
0
 10
-14.7556
 20
-6.16853
 11
-14.6714
 21
-6.11807
  0
LINE
  8
0
 10
-14.6714
 20
-6.11807
 11
-14.5827
 21
-6.07613
  0
LINE
  8
0
 10
-14.5827
 20
-6.07613
 11
-14.4903
 21
-6.04306
  0
LINE
  8
0
 10
-14.4903
 20
-6.04306
 11
-14.3951
 21
-6.01921
  0
LINE
  8
0
 10
-14.3951
 20
-6.01921
 11
-14.298
 21
-6.00482
  0
LINE
  8
0
 10
-14.298
 20
-6.00482
 11
-14.2
 21
-6
  0
LINE
  8
0
 10
-14.2
 20
-6
 11
-13.8
 21
-6
  0
LINE
  8
0
 10
-13.8
 20
-6
 11
-13.702
 21
-6.00482
  0
LINE
  8
0
 10
-13.702
 20
-6.00482
 11
-13.6049
 21
-6.01921
  0
LINE
  8
0
 10
-13.6049
 20
-6.01921
 11
-13.5097
 21
-6.04306
  0
LINE
  8
0
 10
-13.5097
 20
-6.04306
 11
-13.4173
 21
-6.07613
  0
LINE
  8
0
 10
-13.4173
 20
-6.07613
 11
-13.3286
 21
-6.11807
  0
LINE
  8
0
 10
-13.3286
 20
-6.11807
 11
-13.2444
 21
-6.16853
  0
LINE
  8
0
 10
-13.2444
 20
-6.16853
 11
-13.1656
 21
-6.22699
  0
LINE
  8
0
 10
-13.1656
 20
-6.22699
 11
-13.0929
 21
-6.29289
  0
LINE
  8
0
 10
-13.0929
 20
-6.29289
 11
-13.027
 21
-6.3656
  0
LINE
  8
0
 10
-13.027
 20
-6.3656
 11
-12.9685
 21
-6.44443
  0
LINE
  8
0
 10
-12.9685
 20
-6.44443
 11
-12.9181
 21
-6.52861
  0
LINE
  8
0
 10
-12.9181
 20
-6.52861
 11
-12.8761
 21
-6.61731
  0
LINE
  8
0
 10
-12.8761
 20
-6.61731
 11
-12.8431
 21
-6.70972
  0
LINE
  8
0
 10
-12.8431
 20
-6.70972
 11
-12.8192
 21
-6.80492
  0
LINE
  8
0
 10
-12.8192
 20
-6.80492
 11
-12.8048
 21
-6.90198
  0
LINE
  8
0
 10
-12.8048
 20
-6.90198
 11
-12.8
 21
-7
  0
LINE
  8
0
 10
-12.8
 20
-7
 11
-12.8
 21
-11.6024
  0
LINE
  8
0
 10
-12.8
 20
-11.6024
 11
-12.75
 21
-11.6
  0
LINE
  8
0
 10
-12.75
 20
-11.6
 11
-12.6373
 21
-11.6055
  0
LINE
  8
0
 10
-12.6373
 20
-11.6055
 11
-12.5256
 21
-11.6221
  0
LINE
  8
0
 10
-12.5256
 20
-11.6221
 11
-12.4162
 21
-11.6495
  0
LINE
  8
0
 10
-12.4162
 20
-11.6495
 11
-12.3099
 21
-11.6875
  0
LINE
  8
0
 10
-12.3099
 20
-11.6875
 11
-12.2079
 21
-11.7358
  0
LINE
  8
0
 10
-12.2079
 20
-11.7358
 11
-12.1111
 21
-11.7938
  0
LINE
  8
0
 10
-12.1111
 20
-11.7938
 11
-12.0204
 21
-11.861
  0
LINE
  8
0
 10
-12.0204
 20
-11.861
 11
-11.9368
 21
-11.9368
  0
LINE
  8
0
 10
-11.9368
 20
-11.9368
 11
-11.861
 21
-12.0204
  0
LINE
  8
0
 10
-11.861
 20
-12.0204
 11
-11.7938
 21
-12.1111
  0
LINE
  8
0
 10
-11.7938
 20
-12.1111
 11
-11.7358
 21
-12.2079
  0
LINE
  8
0
 10
-11.7358
 20
-12.2079
 11
-11.6875
 21
-12.3099
  0
LINE
  8
0
 10
-11.6875
 20
-12.3099
 11
-11.6495
 21
-12.4162
  0
LINE
  8
0
 10
-11.6495
 20
-12.4162
 11
-11.6221
 21
-12.5256
  0
LINE
  8
0
 10
-11.6221
 20
-12.5256
 11
-11.6055
 21
-12.6373
  0
LINE
  8
0
 10
-11.6055
 20
-12.6373
 11
-11.6
 21
-12.75
  0
LINE
  8
0
 10
-11.6
 20
-12.75
 11
-11.6055
 21
-12.8627
  0
LINE
  8
0
 10
-11.6055
 20
-12.8627
 11
-11.6221
 21
-12.9743
  0
LINE
  8
0
 10
-11.6221
 20
-12.9743
 11
-11.6495
 21
-13.0838
  0
LINE
  8
0
 10
-11.6495
 20
-13.0838
 11
-11.6875
 21
-13.1901
  0
LINE
  8
0
 10
-11.6875
 20
-13.1901
 11
-11.7358
 21
-13.2921
  0
LINE
  8
0
 10
-11.7358
 20
-13.2921
 11
-11.7938
 21
-13.3889
  0
LINE
  8
0
 10
-11.7938
 20
-13.3889
 11
-11.861
 21
-13.4795
  0
LINE
  8
0
 10
-11.861
 20
-13.4795
 11
-11.9368
 21
-13.5632
  0
LINE
  8
0
 10
-11.9368
 20
-13.5632
 11
-12.0204
 21
-13.639
  0
LINE
  8
0
 10
-12.0204
 20
-13.639
 11
-12.1111
 21
-13.7062
  0
LINE
  8
0
 10
-12.1111
 20
-13.7062
 11
-12.2079
 21
-13.7642
  0
LINE
  8
0
 10
-12.2079
 20
-13.7642
 11
-12.3099
 21
-13.8125
  0
LINE
  8
0
 10
-12.3099
 20
-13.8125
 11
-12.4162
 21
-13.8505
  0
LINE
  8
0
 10
-12.4162
 20
-13.8505
 11
-12.5256
 21
-13.8779
  0
LINE
  8
0
 10
-12.5256
 20
-13.8779
 11
-12.6373
 21
-13.8945
  0
LINE
  8
0
 10
-12.6373
 20
-13.8945
 11
-12.75
 21
-13.9
  0
LINE
  8
0
 10
-12.75
 20
-13.9
 11
-12.8627
 21
-13.8945
  0
LINE
  8
0
 10
-12.8627
 20
-13.8945
 11
-12.9743
 21
-13.8779
  0
LINE
  8
0
 10
-12.9743
 20
-13.8779
 11
-13.0838
 21
-13.8505
  0
LINE
  8
0
 10
-13.0838
 20
-13.8505
 11
-13.1901
 21
-13.8125
  0
LINE
  8
0
 10
-13.1901
 20
-13.8125
 11
-13.2076
 21
-13.8042
  0
LINE
  8
0
 10
-13.2076
 20
-13.8042
 11
-13.2444
 21
-13.8315
  0
LINE
  8
0
 10
-13.2444
 20
-13.8315
 11
-13.3286
 21
-13.8819
  0
LINE
  8
0
 10
-13.3286
 20
-13.8819
 11
-13.4173
 21
-13.9239
  0
LINE
  8
0
 10
-13.4173
 20
-13.9239
 11
-13.5097
 21
-13.9569
  0
LINE
  8
0
 10
-13.5097
 20
-13.9569
 11
-13.6049
 21
-13.9808
  0
LINE
  8
0
 10
-13.6049
 20
-13.9808
 11
-13.702
 21
-13.9952
  0
LINE
  8
0
 10
-13.702
 20
-13.9952
 11
-13.8
 21
-14
  0
LINE
  8
0
 10
-13.8
 20
-14
 11
-14.2
 21
-14
  0
LINE
  8
0
 10
-14.2
 20
-14
 11
-14.298
 21
-13.9952
  0
LINE
  8
0
 10
-14.298
 20
-13.9952
 11
-14.3951
 21
-13.9808
  0
LINE
  8
0
 10
-14.3951
 20
-13.9808
 11
-14.4903
 21
-13.9569
  0
LINE
  8
0
 10
-14.4903
 20
-13.9569
 11
-14.5827
 21
-13.9239
  0
LINE
  8
0
 10
-14.5827
 20
-13.9239
 11
-14.6714
 21
-13.8819
  0
LINE
  8
0
 10
-14.6714
 20
-13.8819
 11
-14.7556
 21
-13.8315
  0
LINE
  8
0
 10
-14.7556
 20
-13.8315
 11
-14.8344
 21
-13.773
  0
LINE
  8
0
 10
-14.8344
 20
-13.773
 11
-14.9071
 21
-13.7071
  0
LINE
  8
0
 10
-14.9071
 20
-13.7071
 11
-14.973
 21
-13.6344
  0
LINE
  8
0
 10
-14.973
 20
-13.6344
 11
-15.0315
 21
-13.5556
  0
LINE
  8
0
 10
-15.0315
 20
-13.5556
 11
-15.0819
 21
-13.4714
  0
LINE
  8
0
 10
-15.0819
 20
-13.4714
 11
-15.1239
 21
-13.3827
  0
LINE
  8
0
 10
-15.1239
 20
-13.3827
 11
-15.1569
 21
-13.2903
  0
LINE
  8
0
 10
-15.1569
 20
-13.2903
 11
-15.1808
 21
-13.1951
  0
LINE
  8
0
 10
-15.1808
 20
-13.1951
 11
-15.1952
 21
-13.098
  0
LINE
  8
0
 10
-15.1952
 20
-13.098
 11
-15.2
 21
-13
  0
LINE
  8
0
 10
-15.2
 20
-13
 11
-15.2
 21
-8.78535
  0
LINE
  8
0
 10
-15.2
 20
-8.78535
 11
-47.2337
 21
-32.6227
  0
LINE
  8
0
 10
-47.2337
 20
-32.6227
 11
-47.8336
 21
-33.1664
  0
LINE
  8
0
 10
-47.8336
 20
-33.1664
 11
-48.3773
 21
-33.7663
  0
LINE
  8
0
 10
-48.3773
 20
-33.7663
 11
-48.8596
 21
-34.4165
  0
LINE
  8
0
 10
-48.8596
 20
-34.4165
 11
-49.2758
 21
-35.111
  0
LINE
  8
0
 10
-49.2758
 20
-35.111
 11
-49.622
 21
-35.8428
  0
LINE
  8
0
 10
-49.622
 20
-35.8428
 11
-49.8947
 21
-36.6051
  0
LINE
  8
0
 10
-49.8947
 20
-36.6051
 11
-50.0915
 21
-37.3905
  0
LINE
  8
0
 10
-50.0915
 20
-37.3905
 11
-50.2103
 21
-38.1913
  0
LINE
  8
0
 10
-50.2103
 20
-38.1913
 11
-50.25
 21
-39
  0
LINE
  8
0
 10
-50.25
 20
-39
 11
-50.2103
 21
-39.8086
  0
LINE
  8
0
 10
-50.2103
 20
-39.8086
 11
-50.0915
 21
-40.6095
  0
LINE
  8
0
 10
-50.0915
 20
-40.6095
 11
-49.8947
 21
-41.3948
  0
LINE
  8
0
 10
-49.8947
 20
-41.3948
 11
-49.622
 21
-42.1571
  0
LINE
  8
0
 10
-49.622
 20
-42.1571
 11
-49.2758
 21
-42.889
  0
LINE
  8
0
 10
-49.2758
 20
-42.889
 11
-48.8596
 21
-43.5835
  0
LINE
  8
0
 10
-48.8596
 20
-43.5835
 11
-48.3773
 21
-44.2337
  0
LINE
  8
0
 10
-48.3773
 20
-44.2337
 11
-47.8336
 21
-44.8336
  0
LINE
  8
0
 10
-47.8336
 20
-44.8336
 11
-47.2337
 21
-45.3773
  0
LINE
  8
0
 10
-47.2337
 20
-45.3773
 11
-46.5835
 21
-45.8596
  0
LINE
  8
0
 10
-46.5835
 20
-45.8596
 11
-45.889
 21
-46.2758
  0
LINE
  8
0
 10
-45.889
 20
-46.2758
 11
-45.1571
 21
-46.622
  0
LINE
  8
0
 10
-45.1571
 20
-46.622
 11
-44.3948
 21
-46.8947
  0
LINE
  8
0
 10
-44.3948
 20
-46.8947
 11
-43.6095
 21
-47.0915
  0
LINE
  8
0
 10
-43.6095
 20
-47.0915
 11
-42.8086
 21
-47.2103
  0
LINE
  8
0
 10
-42.8086
 20
-47.2103
 11
-42
 21
-47.25
  0
LINE
  8
0
 10
-42
 20
-47.25
 11
-41.1913
 21
-47.2103
  0
LINE
  8
0
 10
-41.1913
 20
-47.2103
 11
-40.3905
 21
-47.0915
  0
LINE
  8
0
 10
-40.3905
 20
-47.0915
 11
-39.6051
 21
-46.8947
  0
LINE
  8
0
 10
-39.6051
 20
-46.8947
 11
-38.8428
 21
-46.622
  0
LINE
  8
0
 10
-38.8428
 20
-46.622
 11
-38.111
 21
-46.2758
  0
LINE
  8
0
 10
-38.111
 20
-46.2758
 11
-37.4165
 21
-45.8596
  0
LINE
  8
0
 10
-37.4165
 20
-45.8596
 11
-36.7663
 21
-45.3773
  0
LINE
  8
0
 10
-36.7663
 20
-45.3773
 11
-15
 21
-25.6983
  0
LINE
  8
0
 10
-15
 20
-25.6983
 11
-15
 21
-26
  0
LINE
  8
0
 10
-15
 20
-26
 11
-14.9759
 21
-26.4901
  0
LINE
  8
0
 10
-14.9759
 20
-26.4901
 11
-14.9039
 21
-26.9754
  0
LINE
  8
0
 10
-14.9039
 20
-26.9754
 11
-14.7847
 21
-27.4514
  0
LINE
  8
0
 10
-14.7847
 20
-27.4514
 11
-14.6194
 21
-27.9134
  0
LINE
  8
0
 10
-14.6194
 20
-27.9134
 11
-14.4096
 21
-28.357
  0
LINE
  8
0
 10
-14.4096
 20
-28.357
 11
-14.1573
 21
-28.7778
  0
LINE
  8
0
 10
-14.1573
 20
-28.7778
 11
-13.8651
 21
-29.172
  0
LINE
  8
0
 10
-13.8651
 20
-29.172
 11
-13.5355
 21
-29.5355
  0
LINE
  8
0
 10
-13.5355
 20
-29.5355
 11
-13.172
 21
-29.8651
  0
LINE
  8
0
 10
-13.172
 20
-29.8651
 11
-12.7778
 21
-30.1573
  0
LINE
  8
0
 10
-12.7778
 20
-30.1573
 11
-12.357
 21
-30.4096
  0
LINE
  8
0
 10
-12.357
 20
-30.4096
 11
-11.9134
 21
-30.6194
  0
LINE
  8
0
 10
-11.9134
 20
-30.6194
 11
-11.4514
 21
-30.7847
  0
LINE
  8
0
 10
-11.4514
 20
-30.7847
 11
-10.9754
 21
-30.9039
  0
LINE
  8
0
 10
-10.9754
 20
-30.9039
 11
-10.4901
 21
-30.9759
  0
LINE
  8
0
 10
-10.4901
 20
-30.9759
 11
-10
 21
-31
  0
LINE
  8
0
 10
-10
 20
-31
 11
10
 21
-31
  0
LINE
  8
0
 10
10
 20
-31
 11
10.4901
 21
-30.9759
  0
LINE
  8
0
 10
10.4901
 20
-30.9759
 11
10.9754
 21
-30.9039
  0
LINE
  8
0
 10
10.9754
 20
-30.9039
 11
11.4514
 21
-30.7847
  0
LINE
  8
0
 10
11.4514
 20
-30.7847
 11
11.9134
 21
-30.6194
  0
LINE
  8
0
 10
11.9134
 20
-30.6194
 11
12.357
 21
-30.4096
  0
LINE
  8
0
 10
12.357
 20
-30.4096
 11
12.7778
 21
-30.1573
  0
LINE
  8
0
 10
12.7778
 20
-30.1573
 11
13.172
 21
-29.8651
  0
LINE
  8
0
 10
13.172
 20
-29.8651
 11
13.5355
 21
-29.5355
  0
LINE
  8
0
 10
13.5355
 20
-29.5355
 11
13.8651
 21
-29.172
  0
LINE
  8
0
 10
13.8651
 20
-29.172
 11
14.1573
 21
-28.7778
  0
LINE
  8
0
 10
14.1573
 20
-28.7778
 11
14.4096
 21
-28.357
  0
LINE
  8
0
 10
14.4096
 20
-28.357
 11
14.6194
 21
-27.9134
  0
LINE
  8
0
 10
14.6194
 20
-27.9134
 11
14.7847
 21
-27.4514
  0
LINE
  8
0
 10
14.7847
 20
-27.4514
 11
14.9039
 21
-26.9754
  0
LINE
  8
0
 10
14.9039
 20
-26.9754
 11
14.9759
 21
-26.4901
  0
LINE
  8
0
 10
14.9759
 20
-26.4901
 11
15
 21
-26
  0
LINE
  8
0
 10
15
 20
-26
 11
15
 21
-25.6983
  0
LINE
  8
0
 10
15
 20
-25.6983
 11
36.7663
 21
-45.3773
  0
LINE
  8
0
 10
36.7663
 20
-45.3773
 11
37.4165
 21
-45.8596
  0
LINE
  8
0
 10
37.4165
 20
-45.8596
 11
38.111
 21
-46.2758
  0
LINE
  8
0
 10
38.111
 20
-46.2758
 11
38.8428
 21
-46.622
  0
LINE
  8
0
 10
38.8428
 20
-46.622
 11
39.6051
 21
-46.8947
  0
LINE
  8
0
 10
39.6051
 20
-46.8947
 11
40.3905
 21
-47.0915
  0
LINE
  8
0
 10
40.3905
 20
-47.0915
 11
41.1913
 21
-47.2103
  0
LINE
  8
0
 10
41.1913
 20
-47.2103
 11
42
 21
-47.25
  0
LINE
  8
0
 10
42
 20
-47.25
 11
42.8086
 21
-47.2103
  0
LINE
  8
0
 10
-38.1781
 20
40.1024
 11
-38.2902
 21
40.1154
  0
LINE
  8
0
 10
-38.2902
 20
40.1154
 11
-38.4005
 21
40.1392
  0
LINE
  8
0
 10
-38.4005
 20
40.1392
 11
-38.508
 21
40.1737
  0
LINE
  8
0
 10
-38.508
 20
40.1737
 11
-38.6115
 21
40.2186
  0
LINE
  8
0
 10
-38.6115
 20
40.2186
 11
-38.7102
 21
40.2734
  0
LINE
  8
0
 10
-38.7102
 20
40.2734
 11
-38.803
 21
40.3376
  0
LINE
  8
0
 10
-38.803
 20
40.3376
 11
-38.889
 21
40.4106
  0
LINE
  8
0
 10
-38.889
 20
40.4106
 11
-38.9675
 21
40.4917
  0
LINE
  8
0
 10
-38.9675
 20
40.4917
 11
-39.0377
 21
40.5801
  0
LINE
  8
0
 10
-39.0377
 20
40.5801
 11
-39.0988
 21
40.675
  0
LINE
  8
0
 10
-39.0988
 20
40.675
 11
-39.1504
 21
40.7754
  0
LINE
  8
0
 10
-39.1504
 20
40.7754
 11
-39.1919
 21
40.8803
  0
LINE
  8
0
 10
-39.1919
 20
40.8803
 11
-39.2229
 21
40.9889
  0
LINE
  8
0
 10
-39.2229
 20
40.9889
 11
-39.2431
 21
41.0999
  0
LINE
  8
0
 10
-39.2431
 20
41.0999
 11
-39.2523
 21
41.2124
  0
LINE
  8
0
 10
-39.2523
 20
41.2124
 11
-39.2504
 21
41.3252
  0
LINE
  8
0
 10
-39.2504
 20
41.3252
 11
-39.2375
 21
41.4373
  0
LINE
  8
0
 10
-39.2375
 20
41.4373
 11
-39.2137
 21
41.5476
  0
LINE
  8
0
 10
-39.2137
 20
41.5476
 11
-39.1792
 21
41.6551
  0
LINE
  8
0
 10
-39.1792
 20
41.6551
 11
-39.1343
 21
41.7586
  0
LINE
  8
0
 10
-39.1343
 20
41.7586
 11
-39.0795
 21
41.8573
  0
LINE
  8
0
 10
-39.0795
 20
41.8573
 11
-39.0152
 21
41.9501
  0
LINE
  8
0
 10
-39.0152
 20
41.9501
 11
-38.9422
 21
42.0361
  0
LINE
  8
0
 10
-38.9422
 20
42.0361
 11
-38.8611
 21
42.1146
  0
LINE
  8
0
 10
-38.8611
 20
42.1146
 11
-38.7727
 21
42.1848
  0
LINE
  8
0
 10
-38.7727
 20
42.1848
 11
-38.6779
 21
42.2459
  0
LINE
  8
0
 10
-38.6779
 20
42.2459
 11
-38.5775
 21
42.2975
  0
LINE
  8
0
 10
-38.5775
 20
42.2975
 11
-38.4725
 21
42.339
  0
LINE
  8
0
 10
-38.4725
 20
42.339
 11
-38.364
 21
42.3699
  0
LINE
  8
0
 10
-38.364
 20
42.3699
 11
-38.253
 21
42.3902
  0
LINE
  8
0
 10
-38.253
 20
42.3902
 11
-38.1405
 21
42.3994
  0
LINE
  8
0
 10
-38.1405
 20
42.3994
 11
-38.0277
 21
42.3975
  0
LINE
  8
0
 10
-38.0277
 20
42.3975
 11
-37.9156
 21
42.3846
  0
LINE
  8
0
 10
-37.9156
 20
42.3846
 11
-37.8053
 21
42.3608
  0
LINE
  8
0
 10
-37.8053
 20
42.3608
 11
-37.6978
 21
42.3263
  0
LINE
  8
0
 10
-37.6978
 20
42.3263
 11
-37.5943
 21
42.2814
  0
LINE
  8
0
 10
-37.5943
 20
42.2814
 11
-37.4956
 21
42.2266
  0
LINE
  8
0
 10
-37.4956
 20
42.2266
 11
-37.4028
 21
42.1624
  0
LINE
  8
0
 10
-37.4028
 20
42.1624
 11
-37.3168
 21
42.0893
  0
LINE
  8
0
 10
-37.3168
 20
42.0893
 11
-37.2383
 21
42.0082
  0
LINE
  8
0
 10
-37.2383
 20
42.0082
 11
-37.1681
 21
41.9198
  0
LINE
  8
0
 10
-37.1681
 20
41.9198
 11
-37.107
 21
41.825
  0
LINE
  8
0
 10
-37.107
 20
41.825
 11
-37.0554
 21
41.7246
  0
LINE
  8
0
 10
-37.0554
 20
41.7246
 11
-37.0139
 21
41.6196
  0
LINE
  8
0
 10
-37.0139
 20
41.6196
 11
-36.9829
 21
41.5111
  0
LINE
  8
0
 10
-36.9829
 20
41.5111
 11
-36.9627
 21
41.4001
  0
LINE
  8
0
 10
-36.9627
 20
41.4001
 11
-36.9535
 21
41.2876
  0
LINE
  8
0
 10
-36.9535
 20
41.2876
 11
-36.9554
 21
41.1748
  0
LINE
  8
0
 10
-36.9554
 20
41.1748
 11
-36.9682
 21
41.0627
  0
LINE
  8
0
 10
-36.9682
 20
41.0627
 11
-36.9921
 21
40.9523
  0
LINE
  8
0
 10
-36.9921
 20
40.9523
 11
-37.0266
 21
40.8449
  0
LINE
  8
0
 10
-37.0266
 20
40.8449
 11
-37.0715
 21
40.7414
  0
LINE
  8
0
 10
-37.0715
 20
40.7414
 11
-37.1263
 21
40.6427
  0
LINE
  8
0
 10
-37.1263
 20
40.6427
 11
-37.1905
 21
40.5499
  0
LINE
  8
0
 10
-37.1905
 20
40.5499
 11
-37.2635
 21
40.4639
  0
LINE
  8
0
 10
-37.2635
 20
40.4639
 11
-37.3447
 21
40.3854
  0
LINE
  8
0
 10
-37.3447
 20
40.3854
 11
-37.433
 21
40.3152
  0
LINE
  8
0
 10
-37.433
 20
40.3152
 11
-37.5279
 21
40.2541
  0
LINE
  8
0
 10
-37.5279
 20
40.2541
 11
-37.6283
 21
40.2025
  0
LINE
  8
0
 10
-37.6283
 20
40.2025
 11
-37.7332
 21
40.161
  0
LINE
  8
0
 10
-37.7332
 20
40.161
 11
-37.8418
 21
40.13
  0
LINE
  8
0
 10
-37.8418
 20
40.13
 11
-37.9528
 21
40.1098
  0
LINE
  8
0
 10
-37.9528
 20
40.1098
 11
-38.0653
 21
40.1006
  0
LINE
  8
0
 10
-38.0653
 20
40.1006
 11
-38.1781
 21
40.1024
  0
LINE
  8
0
 10
-46.0472
 20
40.1098
 11
-46.1582
 21
40.13
  0
LINE
  8
0
 10
-46.1582
 20
40.13
 11
-46.2668
 21
40.161
  0
LINE
  8
0
 10
-46.2668
 20
40.161
 11
-46.3717
 21
40.2025
  0
LINE
  8
0
 10
-46.3717
 20
40.2025
 11
-46.4721
 21
40.2541
  0
LINE
  8
0
 10
-46.4721
 20
40.2541
 11
-46.567
 21
40.3152
  0
LINE
  8
0
 10
-46.567
 20
40.3152
 11
-46.6553
 21
40.3854
  0
LINE
  8
0
 10
-46.6553
 20
40.3854
 11
-46.7365
 21
40.4639
  0
LINE
  8
0
 10
-46.7365
 20
40.4639
 11
-46.8095
 21
40.5499
  0
LINE
  8
0
 10
-46.8095
 20
40.5499
 11
-46.8737
 21
40.6427
  0
LINE
  8
0
 10
-46.8737
 20
40.6427
 11
-46.9285
 21
40.7414
  0
LINE
  8
0
 10
-46.9285
 20
40.7414
 11
-46.9734
 21
40.8449
  0
LINE
  8
0
 10
-46.9734
 20
40.8449
 11
-47.0079
 21
40.9523
  0
LINE
  8
0
 10
-47.0079
 20
40.9523
 11
-47.0318
 21
41.0627
  0
LINE
  8
0
 10
-47.0318
 20
41.0627
 11
-47.0446
 21
41.1748
  0
LINE
  8
0
 10
-47.0446
 20
41.1748
 11
-47.0465
 21
41.2876
  0
LINE
  8
0
 10
-47.0465
 20
41.2876
 11
-47.0373
 21
41.4001
  0
LINE
  8
0
 10
-47.0373
 20
41.4001
 11
-47.0171
 21
41.5111
  0
LINE
  8
0
 10
-47.0171
 20
41.5111
 11
-46.9861
 21
41.6196
  0
LINE
  8
0
 10
-46.9861
 20
41.6196
 11
-46.9446
 21
41.7246
  0
LINE
  8
0
 10
-46.9446
 20
41.7246
 11
-46.893
 21
41.825
  0
LINE
  8
0
 10
-46.893
 20
41.825
 11
-46.8319
 21
41.9198
  0
LINE
  8
0
 10
-46.8319
 20
41.9198
 11
-46.7617
 21
42.0082
  0
LINE
  8
0
 10
-46.7617
 20
42.0082
 11
-46.6832
 21
42.0893
  0
LINE
  8
0
 10
-46.6832
 20
42.0893
 11
-46.5972
 21
42.1624
  0
LINE
  8
0
 10
-46.5972
 20
42.1624
 11
-46.5044
 21
42.2266
  0
LINE
  8
0
 10
-46.5044
 20
42.2266
 11
-46.4057
 21
42.2814
  0
LINE
  8
0
 10
-46.4057
 20
42.2814
 11
-46.3022
 21
42.3263
  0
LINE
  8
0
 10
-46.3022
 20
42.3263
 11
-46.1947
 21
42.3608
  0
LINE
  8
0
 10
-46.1947
 20
42.3608
 11
-46.0844
 21
42.3846
  0
LINE
  8
0
 10
-46.0844
 20
42.3846
 11
-45.9723
 21
42.3975
  0
LINE
  8
0
 10
-45.9723
 20
42.3975
 11
-45.8595
 21
42.3994
  0
LINE
  8
0
 10
-45.8595
 20
42.3994
 11
-45.747
 21
42.3902
  0
LINE
  8
0
 10
-45.747
 20
42.3902
 11
-45.636
 21
42.3699
  0
LINE
  8
0
 10
-45.636
 20
42.3699
 11
-45.5275
 21
42.339
  0
LINE
  8
0
 10
-45.5275
 20
42.339
 11
-45.4225
 21
42.2975
  0
LINE
  8
0
 10
-45.4225
 20
42.2975
 11
-45.3221
 21
42.2459
  0
LINE
  8
0
 10
-45.3221
 20
42.2459
 11
-45.2273
 21
42.1848
  0
LINE
  8
0
 10
-45.2273
 20
42.1848
 11
-45.1389
 21
42.1146
  0
LINE
  8
0
 10
-45.1389
 20
42.1146
 11
-45.0578
 21
42.0361
  0
LINE
  8
0
 10
-45.0578
 20
42.0361
 11
-44.9848
 21
41.9501
  0
LINE
  8
0
 10
-44.9848
 20
41.9501
 11
-44.9205
 21
41.8573
  0
LINE
  8
0
 10
-44.9205
 20
41.8573
 11
-44.8657
 21
41.7586
  0
LINE
  8
0
 10
-44.8657
 20
41.7586
 11
-44.8208
 21
41.6551
  0
LINE
  8
0
 10
-44.8208
 20
41.6551
 11
-44.7863
 21
41.5476
  0
LINE
  8
0
 10
-44.7863
 20
41.5476
 11
-44.7625
 21
41.4373
  0
LINE
  8
0
 10
-44.7625
 20
41.4373
 11
-44.7496
 21
41.3252
  0
LINE
  8
0
 10
-44.7496
 20
41.3252
 11
-44.7477
 21
41.2124
  0
LINE
  8
0
 10
-44.7477
 20
41.2124
 11
-44.7569
 21
41.0999
  0
LINE
  8
0
 10
-44.7569
 20
41.0999
 11
-44.7771
 21
40.9889
  0
LINE
  8
0
 10
-44.7771
 20
40.9889
 11
-44.8081
 21
40.8803
  0
LINE
  8
0
 10
-44.8081
 20
40.8803
 11
-44.8496
 21
40.7754
  0
LINE
  8
0
 10
-44.8496
 20
40.7754
 11
-44.9012
 21
40.675
  0
LINE
  8
0
 10
-44.9012
 20
40.675
 11
-44.9623
 21
40.5801
  0
LINE
  8
0
 10
-44.9623
 20
40.5801
 11
-45.0325
 21
40.4917
  0
LINE
  8
0
 10
-45.0325
 20
40.4917
 11
-45.111
 21
40.4106
  0
LINE
  8
0
 10
-45.111
 20
40.4106
 11
-45.197
 21
40.3376
  0
LINE
  8
0
 10
-45.197
 20
40.3376
 11
-45.2898
 21
40.2734
  0
LINE
  8
0
 10
-45.2898
 20
40.2734
 11
-45.3885
 21
40.2186
  0
LINE
  8
0
 10
-45.3885
 20
40.2186
 11
-45.492
 21
40.1737
  0
LINE
  8
0
 10
-45.492
 20
40.1737
 11
-45.5995
 21
40.1392
  0
LINE
  8
0
 10
-45.5995
 20
40.1392
 11
-45.7098
 21
40.1154
  0
LINE
  8
0
 10
-45.7098
 20
40.1154
 11
-45.8219
 21
40.1024
  0
LINE
  8
0
 10
-45.8219
 20
40.1024
 11
-45.9347
 21
40.1006
  0
LINE
  8
0
 10
-45.9347
 20
40.1006
 11
-46.0472
 21
40.1098
  0
LINE
  8
0
 10
45.8219
 20
40.1024
 11
45.7098
 21
40.1154
  0
LINE
  8
0
 10
45.7098
 20
40.1154
 11
45.5995
 21
40.1392
  0
LINE
  8
0
 10
45.5995
 20
40.1392
 11
45.492
 21
40.1737
  0
LINE
  8
0
 10
45.492
 20
40.1737
 11
45.3885
 21
40.2186
  0
LINE
  8
0
 10
45.3885
 20
40.2186
 11
45.2898
 21
40.2734
  0
LINE
  8
0
 10
45.2898
 20
40.2734
 11
45.197
 21
40.3376
  0
LINE
  8
0
 10
45.197
 20
40.3376
 11
45.111
 21
40.4106
  0
LINE
  8
0
 10
45.111
 20
40.4106
 11
45.0325
 21
40.4917
  0
LINE
  8
0
 10
45.0325
 20
40.4917
 11
44.9623
 21
40.5801
  0
LINE
  8
0
 10
44.9623
 20
40.5801
 11
44.9012
 21
40.675
  0
LINE
  8
0
 10
44.9012
 20
40.675
 11
44.8496
 21
40.7754
  0
LINE
  8
0
 10
44.8496
 20
40.7754
 11
44.8081
 21
40.8803
  0
LINE
  8
0
 10
44.8081
 20
40.8803
 11
44.7771
 21
40.9889
  0
LINE
  8
0
 10
44.7771
 20
40.9889
 11
44.7569
 21
41.0999
  0
LINE
  8
0
 10
44.7569
 20
41.0999
 11
44.7477
 21
41.2124
  0
LINE
  8
0
 10
44.7477
 20
41.2124
 11
44.7496
 21
41.3252
  0
LINE
  8
0
 10
44.7496
 20
41.3252
 11
44.7625
 21
41.4373
  0
LINE
  8
0
 10
44.7625
 20
41.4373
 11
44.7863
 21
41.5476
  0
LINE
  8
0
 10
44.7863
 20
41.5476
 11
44.8208
 21
41.6551
  0
LINE
  8
0
 10
44.8208
 20
41.6551
 11
44.8657
 21
41.7586
  0
LINE
  8
0
 10
44.8657
 20
41.7586
 11
44.9205
 21
41.8573
  0
LINE
  8
0
 10
44.9205
 20
41.8573
 11
44.9848
 21
41.9501
  0
LINE
  8
0
 10
44.9848
 20
41.9501
 11
45.0578
 21
42.0361
  0
LINE
  8
0
 10
45.0578
 20
42.0361
 11
45.1389
 21
42.1146
  0
LINE
  8
0
 10
45.1389
 20
42.1146
 11
45.2273
 21
42.1848
  0
LINE
  8
0
 10
45.2273
 20
42.1848
 11
45.3221
 21
42.2459
  0
LINE
  8
0
 10
45.3221
 20
42.2459
 11
45.4225
 21
42.2975
  0
LINE
  8
0
 10
45.4225
 20
42.2975
 11
45.5275
 21
42.339
  0
LINE
  8
0
 10
45.5275
 20
42.339
 11
45.636
 21
42.3699
  0
LINE
  8
0
 10
45.636
 20
42.3699
 11
45.747
 21
42.3902
  0
LINE
  8
0
 10
45.747
 20
42.3902
 11
45.8595
 21
42.3994
  0
LINE
  8
0
 10
45.8595
 20
42.3994
 11
45.9723
 21
42.3975
  0
LINE
  8
0
 10
45.9723
 20
42.3975
 11
46.0844
 21
42.3846
  0
LINE
  8
0
 10
46.0844
 20
42.3846
 11
46.1947
 21
42.3608
  0
LINE
  8
0
 10
46.1947
 20
42.3608
 11
46.3022
 21
42.3263
  0
LINE
  8
0
 10
46.3022
 20
42.3263
 11
46.4057
 21
42.2814
  0
LINE
  8
0
 10
46.4057
 20
42.2814
 11
46.5044
 21
42.2266
  0
LINE
  8
0
 10
46.5044
 20
42.2266
 11
46.5972
 21
42.1624
  0
LINE
  8
0
 10
46.5972
 20
42.1624
 11
46.6832
 21
42.0893
  0
LINE
  8
0
 10
46.6832
 20
42.0893
 11
46.7617
 21
42.0082
  0
LINE
  8
0
 10
46.7617
 20
42.0082
 11
46.8319
 21
41.9198
  0
LINE
  8
0
 10
46.8319
 20
41.9198
 11
46.893
 21
41.825
  0
LINE
  8
0
 10
46.893
 20
41.825
 11
46.9446
 21
41.7246
  0
LINE
  8
0
 10
46.9446
 20
41.7246
 11
46.9861
 21
41.6196
  0
LINE
  8
0
 10
46.9861
 20
41.6196
 11
47.0171
 21
41.5111
  0
LINE
  8
0
 10
47.0171
 20
41.5111
 11
47.0373
 21
41.4001
  0
LINE
  8
0
 10
47.0373
 20
41.4001
 11
47.0465
 21
41.2876
  0
LINE
  8
0
 10
47.0465
 20
41.2876
 11
47.0446
 21
41.1748
  0
LINE
  8
0
 10
47.0446
 20
41.1748
 11
47.0318
 21
41.0627
  0
LINE
  8
0
 10
47.0318
 20
41.0627
 11
47.0079
 21
40.9523
  0
LINE
  8
0
 10
47.0079
 20
40.9523
 11
46.9734
 21
40.8449
  0
LINE
  8
0
 10
46.9734
 20
40.8449
 11
46.9285
 21
40.7414
  0
LINE
  8
0
 10
46.9285
 20
40.7414
 11
46.8737
 21
40.6427
  0
LINE
  8
0
 10
46.8737
 20
40.6427
 11
46.8095
 21
40.5499
  0
LINE
  8
0
 10
46.8095
 20
40.5499
 11
46.7365
 21
40.4639
  0
LINE
  8
0
 10
46.7365
 20
40.4639
 11
46.6553
 21
40.3854
  0
LINE
  8
0
 10
46.6553
 20
40.3854
 11
46.567
 21
40.3152
  0
LINE
  8
0
 10
46.567
 20
40.3152
 11
46.4721
 21
40.2541
  0
LINE
  8
0
 10
46.4721
 20
40.2541
 11
46.3717
 21
40.2025
  0
LINE
  8
0
 10
46.3717
 20
40.2025
 11
46.2668
 21
40.161
  0
LINE
  8
0
 10
46.2668
 20
40.161
 11
46.1582
 21
40.13
  0
LINE
  8
0
 10
46.1582
 20
40.13
 11
46.0472
 21
40.1098
  0
LINE
  8
0
 10
46.0472
 20
40.1098
 11
45.9347
 21
40.1006
  0
LINE
  8
0
 10
45.9347
 20
40.1006
 11
45.8219
 21
40.1024
  0
LINE
  8
0
 10
37.9528
 20
40.1098
 11
37.8418
 21
40.13
  0
LINE
  8
0
 10
37.8418
 20
40.13
 11
37.7332
 21
40.161
  0
LINE
  8
0
 10
37.7332
 20
40.161
 11
37.6283
 21
40.2025
  0
LINE
  8
0
 10
37.6283
 20
40.2025
 11
37.5279
 21
40.2541
  0
LINE
  8
0
 10
37.5279
 20
40.2541
 11
37.433
 21
40.3152
  0
LINE
  8
0
 10
37.433
 20
40.3152
 11
37.3447
 21
40.3854
  0
LINE
  8
0
 10
37.3447
 20
40.3854
 11
37.2635
 21
40.4639
  0
LINE
  8
0
 10
37.2635
 20
40.4639
 11
37.1905
 21
40.5499
  0
LINE
  8
0
 10
37.1905
 20
40.5499
 11
37.1263
 21
40.6427
  0
LINE
  8
0
 10
37.1263
 20
40.6427
 11
37.0715
 21
40.7414
  0
LINE
  8
0
 10
37.0715
 20
40.7414
 11
37.0266
 21
40.8449
  0
LINE
  8
0
 10
37.0266
 20
40.8449
 11
36.9921
 21
40.9523
  0
LINE
  8
0
 10
36.9921
 20
40.9523
 11
36.9682
 21
41.0627
  0
LINE
  8
0
 10
36.9682
 20
41.0627
 11
36.9554
 21
41.1748
  0
LINE
  8
0
 10
36.9554
 20
41.1748
 11
36.9535
 21
41.2876
  0
LINE
  8
0
 10
36.9535
 20
41.2876
 11
36.9627
 21
41.4001
  0
LINE
  8
0
 10
36.9627
 20
41.4001
 11
36.9829
 21
41.5111
  0
LINE
  8
0
 10
36.9829
 20
41.5111
 11
37.0139
 21
41.6196
  0
LINE
  8
0
 10
37.0139
 20
41.6196
 11
37.0554
 21
41.7246
  0
LINE
  8
0
 10
37.0554
 20
41.7246
 11
37.107
 21
41.825
  0
LINE
  8
0
 10
37.107
 20
41.825
 11
37.1681
 21
41.9198
  0
LINE
  8
0
 10
37.1681
 20
41.9198
 11
37.2383
 21
42.0082
  0
LINE
  8
0
 10
37.2383
 20
42.0082
 11
37.3168
 21
42.0893
  0
LINE
  8
0
 10
37.3168
 20
42.0893
 11
37.4028
 21
42.1624
  0
LINE
  8
0
 10
37.4028
 20
42.1624
 11
37.4956
 21
42.2266
  0
LINE
  8
0
 10
37.4956
 20
42.2266
 11
37.5943
 21
42.2814
  0
LINE
  8
0
 10
37.5943
 20
42.2814
 11
37.6978
 21
42.3263
  0
LINE
  8
0
 10
37.6978
 20
42.3263
 11
37.8053
 21
42.3608
  0
LINE
  8
0
 10
37.8053
 20
42.3608
 11
37.9156
 21
42.3846
  0
LINE
  8
0
 10
37.9156
 20
42.3846
 11
38.0277
 21
42.3975
  0
LINE
  8
0
 10
38.0277
 20
42.3975
 11
38.1405
 21
42.3994
  0
LINE
  8
0
 10
38.1405
 20
42.3994
 11
38.253
 21
42.3902
  0
LINE
  8
0
 10
38.253
 20
42.3902
 11
38.364
 21
42.3699
  0
LINE
  8
0
 10
38.364
 20
42.3699
 11
38.4725
 21
42.339
  0
LINE
  8
0
 10
38.4725
 20
42.339
 11
38.5775
 21
42.2975
  0
LINE
  8
0
 10
38.5775
 20
42.2975
 11
38.6779
 21
42.2459
  0
LINE
  8
0
 10
38.6779
 20
42.2459
 11
38.7727
 21
42.1848
  0
LINE
  8
0
 10
38.7727
 20
42.1848
 11
38.8611
 21
42.1146
  0
LINE
  8
0
 10
38.8611
 20
42.1146
 11
38.9422
 21
42.0361
  0
LINE
  8
0
 10
38.9422
 20
42.0361
 11
39.0152
 21
41.9501
  0
LINE
  8
0
 10
39.0152
 20
41.9501
 11
39.0795
 21
41.8573
  0
LINE
  8
0
 10
39.0795
 20
41.8573
 11
39.1343
 21
41.7586
  0
LINE
  8
0
 10
39.1343
 20
41.7586
 11
39.1792
 21
41.6551
  0
LINE
  8
0
 10
39.1792
 20
41.6551
 11
39.2137
 21
41.5476
  0
LINE
  8
0
 10
39.2137
 20
41.5476
 11
39.2375
 21
41.4373
  0
LINE
  8
0
 10
39.2375
 20
41.4373
 11
39.2504
 21
41.3252
  0
LINE
  8
0
 10
39.2504
 20
41.3252
 11
39.2523
 21
41.2124
  0
LINE
  8
0
 10
39.2523
 20
41.2124
 11
39.2431
 21
41.0999
  0
LINE
  8
0
 10
39.2431
 20
41.0999
 11
39.2229
 21
40.9889
  0
LINE
  8
0
 10
39.2229
 20
40.9889
 11
39.1919
 21
40.8803
  0
LINE
  8
0
 10
39.1919
 20
40.8803
 11
39.1504
 21
40.7754
  0
LINE
  8
0
 10
39.1504
 20
40.7754
 11
39.0988
 21
40.675
  0
LINE
  8
0
 10
39.0988
 20
40.675
 11
39.0377
 21
40.5801
  0
LINE
  8
0
 10
39.0377
 20
40.5801
 11
38.9675
 21
40.4917
  0
LINE
  8
0
 10
38.9675
 20
40.4917
 11
38.889
 21
40.4106
  0
LINE
  8
0
 10
38.889
 20
40.4106
 11
38.803
 21
40.3376
  0
LINE
  8
0
 10
38.803
 20
40.3376
 11
38.7102
 21
40.2734
  0
LINE
  8
0
 10
38.7102
 20
40.2734
 11
38.6115
 21
40.2186
  0
LINE
  8
0
 10
38.6115
 20
40.2186
 11
38.508
 21
40.1737
  0
LINE
  8
0
 10
38.508
 20
40.1737
 11
38.4005
 21
40.1392
  0
LINE
  8
0
 10
38.4005
 20
40.1392
 11
38.2902
 21
40.1154
  0
LINE
  8
0
 10
38.2902
 20
40.1154
 11
38.1781
 21
40.1024
  0
LINE
  8
0
 10
38.1781
 20
40.1024
 11
38.0653
 21
40.1006
  0
LINE
  8
0
 10
38.0653
 20
40.1006
 11
37.9528
 21
40.1098
  0
LINE
  8
0
 10
-42.245
 20
36.512
 11
-42.4877
 21
36.548
  0
LINE
  8
0
 10
-42.4877
 20
36.548
 11
-42.7257
 21
36.6077
  0
LINE
  8
0
 10
-42.7257
 20
36.6077
 11
-42.9567
 21
36.6903
  0
LINE
  8
0
 10
-42.9567
 20
36.6903
 11
-43.1785
 21
36.7952
  0
LINE
  8
0
 10
-43.1785
 20
36.7952
 11
-43.3889
 21
36.9213
  0
LINE
  8
0
 10
-43.3889
 20
36.9213
 11
-43.586
 21
37.0675
  0
LINE
  8
0
 10
-43.586
 20
37.0675
 11
-43.7678
 21
37.2322
  0
LINE
  8
0
 10
-43.7678
 20
37.2322
 11
-43.9325
 21
37.414
  0
LINE
  8
0
 10
-43.9325
 20
37.414
 11
-44.0787
 21
37.6111
  0
LINE
  8
0
 10
-44.0787
 20
37.6111
 11
-44.2048
 21
37.8215
  0
LINE
  8
0
 10
-44.2048
 20
37.8215
 11
-44.3097
 21
38.0433
  0
LINE
  8
0
 10
-44.3097
 20
38.0433
 11
-44.3923
 21
38.2743
  0
LINE
  8
0
 10
-44.3923
 20
38.2743
 11
-44.452
 21
38.5123
  0
LINE
  8
0
 10
-44.452
 20
38.5123
 11
-44.488
 21
38.755
  0
LINE
  8
0
 10
-44.488
 20
38.755
 11
-44.5
 21
39
  0
LINE
  8
0
 10
-44.5
 20
39
 11
-44.488
 21
39.245
  0
LINE
  8
0
 10
-44.488
 20
39.245
 11
-44.452
 21
39.4877
  0
LINE
  8
0
 10
-44.452
 20
39.4877
 11
-44.3923
 21
39.7257
  0
LINE
  8
0
 10
-44.3923
 20
39.7257
 11
-44.3097
 21
39.9567
  0
LINE
  8
0
 10
-44.3097
 20
39.9567
 11
-44.2048
 21
40.1785
  0
LINE
  8
0
 10
-44.2048
 20
40.1785
 11
-44.0787
 21
40.3889
  0
LINE
  8
0
 10
-44.0787
 20
40.3889
 11
-43.9325
 21
40.586
  0
LINE
  8
0
 10
-43.9325
 20
40.586
 11
-43.7678
 21
40.7678
  0
LINE
  8
0
 10
-43.7678
 20
40.7678
 11
-43.586
 21
40.9325
  0
LINE
  8
0
 10
-43.586
 20
40.9325
 11
-43.3889
 21
41.0787
  0
LINE
  8
0
 10
-43.3889
 20
41.0787
 11
-43.1785
 21
41.2048
  0
LINE
  8
0
 10
-43.1785
 20
41.2048
 11
-42.9567
 21
41.3097
  0
LINE
  8
0
 10
-42.9567
 20
41.3097
 11
-42.7257
 21
41.3923
  0
LINE
  8
0
 10
-42.7257
 20
41.3923
 11
-42.4877
 21
41.452
  0
LINE
  8
0
 10
-42.4877
 20
41.452
 11
-42.245
 21
41.488
  0
LINE
  8
0
 10
-42.245
 20
41.488
 11
-42
 21
41.5
  0
LINE
  8
0
 10
-42
 20
41.5
 11
-41.755
 21
41.488
  0
LINE
  8
0
 10
-41.755
 20
41.488
 11
-41.5123
 21
41.452
  0
LINE
  8
0
 10
-41.5123
 20
41.452
 11
-41.2743
 21
41.3923
  0
LINE
  8
0
 10
-41.2743
 20
41.3923
 11
-41.0433
 21
41.3097
  0
LINE
  8
0
 10
-41.0433
 20
41.3097
 11
-40.8215
 21
41.2048
  0
LINE
  8
0
 10
-40.8215
 20
41.2048
 11
-40.6111
 21
41.0787
  0
LINE
  8
0
 10
-40.6111
 20
41.0787
 11
-40.414
 21
40.9325
  0
LINE
  8
0
 10
-40.414
 20
40.9325
 11
-40.2322
 21
40.7678
  0
LINE
  8
0
 10
-40.2322
 20
40.7678
 11
-40.0675
 21
40.586
  0
LINE
  8
0
 10
-40.0675
 20
40.586
 11
-39.9213
 21
40.3889
  0
LINE
  8
0
 10
-39.9213
 20
40.3889
 11
-39.7952
 21
40.1785
  0
LINE
  8
0
 10
-39.7952
 20
40.1785
 11
-39.6903
 21
39.9567
  0
LINE
  8
0
 10
-39.6903
 20
39.9567
 11
-39.6077
 21
39.7257
  0
LINE
  8
0
 10
-39.6077
 20
39.7257
 11
-39.548
 21
39.4877
  0
LINE
  8
0
 10
-39.548
 20
39.4877
 11
-39.512
 21
39.245
  0
LINE
  8
0
 10
-39.512
 20
39.245
 11
-39.5
 21
39
  0
LINE
  8
0
 10
-39.5
 20
39
 11
-39.512
 21
38.755
  0
LINE
  8
0
 10
-39.512
 20
38.755
 11
-39.548
 21
38.5123
  0
LINE
  8
0
 10
-39.548
 20
38.5123
 11
-39.6077
 21
38.2743
  0
LINE
  8
0
 10
-39.6077
 20
38.2743
 11
-39.6903
 21
38.0433
  0
LINE
  8
0
 10
-39.6903
 20
38.0433
 11
-39.7952
 21
37.8215
  0
LINE
  8
0
 10
-39.7952
 20
37.8215
 11
-39.9213
 21
37.6111
  0
LINE
  8
0
 10
-39.9213
 20
37.6111
 11
-40.0675
 21
37.414
  0
LINE
  8
0
 10
-40.0675
 20
37.414
 11
-40.2322
 21
37.2322
  0
LINE
  8
0
 10
-40.2322
 20
37.2322
 11
-40.414
 21
37.0675
  0
LINE
  8
0
 10
-40.414
 20
37.0675
 11
-40.6111
 21
36.9213
  0
LINE
  8
0
 10
-40.6111
 20
36.9213
 11
-40.8215
 21
36.7952
  0
LINE
  8
0
 10
-40.8215
 20
36.7952
 11
-41.0433
 21
36.6903
  0
LINE
  8
0
 10
-41.0433
 20
36.6903
 11
-41.2743
 21
36.6077
  0
LINE
  8
0
 10
-41.2743
 20
36.6077
 11
-41.5123
 21
36.548
  0
LINE
  8
0
 10
-41.5123
 20
36.548
 11
-41.755
 21
36.512
  0
LINE
  8
0
 10
-41.755
 20
36.512
 11
-42
 21
36.5
  0
LINE
  8
0
 10
-42
 20
36.5
 11
-42.245
 21
36.512
  0
LINE
  8
0
 10
41.755
 20
36.512
 11
41.5123
 21
36.548
  0
LINE
  8
0
 10
41.5123
 20
36.548
 11
41.2743
 21
36.6077
  0
LINE
  8
0
 10
41.2743
 20
36.6077
 11
41.0433
 21
36.6903
  0
LINE
  8
0
 10
41.0433
 20
36.6903
 11
40.8215
 21
36.7952
  0
LINE
  8
0
 10
40.8215
 20
36.7952
 11
40.6111
 21
36.9213
  0
LINE
  8
0
 10
40.6111
 20
36.9213
 11
40.414
 21
37.0675
  0
LINE
  8
0
 10
40.414
 20
37.0675
 11
40.2322
 21
37.2322
  0
LINE
  8
0
 10
40.2322
 20
37.2322
 11
40.0675
 21
37.414
  0
LINE
  8
0
 10
40.0675
 20
37.414
 11
39.9213
 21
37.6111
  0
LINE
  8
0
 10
39.9213
 20
37.6111
 11
39.7952
 21
37.8215
  0
LINE
  8
0
 10
39.7952
 20
37.8215
 11
39.6903
 21
38.0433
  0
LINE
  8
0
 10
39.6903
 20
38.0433
 11
39.6077
 21
38.2743
  0
LINE
  8
0
 10
39.6077
 20
38.2743
 11
39.548
 21
38.5123
  0
LINE
  8
0
 10
39.548
 20
38.5123
 11
39.512
 21
38.755
  0
LINE
  8
0
 10
39.512
 20
38.755
 11
39.5
 21
39
  0
LINE
  8
0
 10
39.5
 20
39
 11
39.512
 21
39.245
  0
LINE
  8
0
 10
39.512
 20
39.245
 11
39.548
 21
39.4877
  0
LINE
  8
0
 10
39.548
 20
39.4877
 11
39.6077
 21
39.7257
  0
LINE
  8
0
 10
39.6077
 20
39.7257
 11
39.6903
 21
39.9567
  0
LINE
  8
0
 10
39.6903
 20
39.9567
 11
39.7952
 21
40.1785
  0
LINE
  8
0
 10
39.7952
 20
40.1785
 11
39.9213
 21
40.3889
  0
LINE
  8
0
 10
39.9213
 20
40.3889
 11
40.0675
 21
40.586
  0
LINE
  8
0
 10
40.0675
 20
40.586
 11
40.2322
 21
40.7678
  0
LINE
  8
0
 10
40.2322
 20
40.7678
 11
40.414
 21
40.9325
  0
LINE
  8
0
 10
40.414
 20
40.9325
 11
40.6111
 21
41.0787
  0
LINE
  8
0
 10
40.6111
 20
41.0787
 11
40.8215
 21
41.2048
  0
LINE
  8
0
 10
40.8215
 20
41.2048
 11
41.0433
 21
41.3097
  0
LINE
  8
0
 10
41.0433
 20
41.3097
 11
41.2743
 21
41.3923
  0
LINE
  8
0
 10
41.2743
 20
41.3923
 11
41.5123
 21
41.452
  0
LINE
  8
0
 10
41.5123
 20
41.452
 11
41.755
 21
41.488
  0
LINE
  8
0
 10
41.755
 20
41.488
 11
42
 21
41.5
  0
LINE
  8
0
 10
42
 20
41.5
 11
42.245
 21
41.488
  0
LINE
  8
0
 10
42.245
 20
41.488
 11
42.4877
 21
41.452
  0
LINE
  8
0
 10
42.4877
 20
41.452
 11
42.7257
 21
41.3923
  0
LINE
  8
0
 10
42.7257
 20
41.3923
 11
42.9567
 21
41.3097
  0
LINE
  8
0
 10
42.9567
 20
41.3097
 11
43.1785
 21
41.2048
  0
LINE
  8
0
 10
43.1785
 20
41.2048
 11
43.3889
 21
41.0787
  0
LINE
  8
0
 10
43.3889
 20
41.0787
 11
43.586
 21
40.9325
  0
LINE
  8
0
 10
43.586
 20
40.9325
 11
43.7678
 21
40.7678
  0
LINE
  8
0
 10
43.7678
 20
40.7678
 11
43.9325
 21
40.586
  0
LINE
  8
0
 10
43.9325
 20
40.586
 11
44.0787
 21
40.3889
  0
LINE
  8
0
 10
44.0787
 20
40.3889
 11
44.2048
 21
40.1785
  0
LINE
  8
0
 10
44.2048
 20
40.1785
 11
44.3097
 21
39.9567
  0
LINE
  8
0
 10
44.3097
 20
39.9567
 11
44.3923
 21
39.7257
  0
LINE
  8
0
 10
44.3923
 20
39.7257
 11
44.452
 21
39.4877
  0
LINE
  8
0
 10
44.452
 20
39.4877
 11
44.488
 21
39.245
  0
LINE
  8
0
 10
44.488
 20
39.245
 11
44.5
 21
39
  0
LINE
  8
0
 10
44.5
 20
39
 11
44.488
 21
38.755
  0
LINE
  8
0
 10
44.488
 20
38.755
 11
44.452
 21
38.5123
  0
LINE
  8
0
 10
44.452
 20
38.5123
 11
44.3923
 21
38.2743
  0
LINE
  8
0
 10
44.3923
 20
38.2743
 11
44.3097
 21
38.0433
  0
LINE
  8
0
 10
44.3097
 20
38.0433
 11
44.2048
 21
37.8215
  0
LINE
  8
0
 10
44.2048
 20
37.8215
 11
44.0787
 21
37.6111
  0
LINE
  8
0
 10
44.0787
 20
37.6111
 11
43.9325
 21
37.414
  0
LINE
  8
0
 10
43.9325
 20
37.414
 11
43.7678
 21
37.2322
  0
LINE
  8
0
 10
43.7678
 20
37.2322
 11
43.586
 21
37.0675
  0
LINE
  8
0
 10
43.586
 20
37.0675
 11
43.3889
 21
36.9213
  0
LINE
  8
0
 10
43.3889
 20
36.9213
 11
43.1785
 21
36.7952
  0
LINE
  8
0
 10
43.1785
 20
36.7952
 11
42.9567
 21
36.6903
  0
LINE
  8
0
 10
42.9567
 20
36.6903
 11
42.7257
 21
36.6077
  0
LINE
  8
0
 10
42.7257
 20
36.6077
 11
42.4877
 21
36.548
  0
LINE
  8
0
 10
42.4877
 20
36.548
 11
42.245
 21
36.512
  0
LINE
  8
0
 10
42.245
 20
36.512
 11
42
 21
36.5
  0
LINE
  8
0
 10
42
 20
36.5
 11
41.755
 21
36.512
  0
LINE
  8
0
 10
-42.1127
 20
33.3555
 11
-42.2243
 21
33.3721
  0
LINE
  8
0
 10
-42.2243
 20
33.3721
 11
-42.3338
 21
33.3995
  0
LINE
  8
0
 10
-42.3338
 20
33.3995
 11
-42.4401
 21
33.4375
  0
LINE
  8
0
 10
-42.4401
 20
33.4375
 11
-42.5421
 21
33.4858
  0
LINE
  8
0
 10
-42.5421
 20
33.4858
 11
-42.6389
 21
33.5438
  0
LINE
  8
0
 10
-42.6389
 20
33.5438
 11
-42.7295
 21
33.611
  0
LINE
  8
0
 10
-42.7295
 20
33.611
 11
-42.8132
 21
33.6868
  0
LINE
  8
0
 10
-42.8132
 20
33.6868
 11
-42.889
 21
33.7705
  0
LINE
  8
0
 10
-42.889
 20
33.7705
 11
-42.9562
 21
33.8611
  0
LINE
  8
0
 10
-42.9562
 20
33.8611
 11
-43.0142
 21
33.9579
  0
LINE
  8
0
 10
-43.0142
 20
33.9579
 11
-43.0625
 21
34.0599
  0
LINE
  8
0
 10
-43.0625
 20
34.0599
 11
-43.1005
 21
34.1662
  0
LINE
  8
0
 10
-43.1005
 20
34.1662
 11
-43.1279
 21
34.2757
  0
LINE
  8
0
 10
-43.1279
 20
34.2757
 11
-43.1445
 21
34.3873
  0
LINE
  8
0
 10
-43.1445
 20
34.3873
 11
-43.15
 21
34.5
  0
LINE
  8
0
 10
-43.15
 20
34.5
 11
-43.1445
 21
34.6127
  0
LINE
  8
0
 10
-43.1445
 20
34.6127
 11
-43.1279
 21
34.7244
  0
LINE
  8
0
 10
-43.1279
 20
34.7244
 11
-43.1005
 21
34.8338
  0
LINE
  8
0
 10
-43.1005
 20
34.8338
 11
-43.0625
 21
34.9401
  0
LINE
  8
0
 10
-43.0625
 20
34.9401
 11
-43.0142
 21
35.0421
  0
LINE
  8
0
 10
-43.0142
 20
35.0421
 11
-42.9562
 21
35.1389
  0
LINE
  8
0
 10
-42.9562
 20
35.1389
 11
-42.889
 21
35.2296
  0
LINE
  8
0
 10
-42.889
 20
35.2296
 11
-42.8132
 21
35.3132
  0
LINE
  8
0
 10
-42.8132
 20
35.3132
 11
-42.7295
 21
35.389
  0
LINE
  8
0
 10
-42.7295
 20
35.389
 11
-42.6389
 21
35.4562
  0
LINE
  8
0
 10
-42.6389
 20
35.4562
 11
-42.5421
 21
35.5142
  0
LINE
  8
0
 10
-42.5421
 20
35.5142
 11
-42.4401
 21
35.5625
  0
LINE
  8
0
 10
-42.4401
 20
35.5625
 11
-42.3338
 21
35.6005
  0
LINE
  8
0
 10
-42.3338
 20
35.6005
 11
-42.2243
 21
35.6279
  0
LINE
  8
0
 10
-42.2243
 20
35.6279
 11
-42.1127
 21
35.6445
  0
LINE
  8
0
 10
-42.1127
 20
35.6445
 11
-42
 21
35.65
  0
LINE
  8
0
 10
-42
 20
35.65
 11
-41.8873
 21
35.6445
  0
LINE
  8
0
 10
-41.8873
 20
35.6445
 11
-41.7757
 21
35.6279
  0
LINE
  8
0
 10
-41.7757
 20
35.6279
 11
-41.6662
 21
35.6005
  0
LINE
  8
0
 10
-41.6662
 20
35.6005
 11
-41.5599
 21
35.5625
  0
LINE
  8
0
 10
-41.5599
 20
35.5625
 11
-41.4579
 21
35.5142
  0
LINE
  8
0
 10
-41.4579
 20
35.5142
 11
-41.3611
 21
35.4562
  0
LINE
  8
0
 10
-41.3611
 20
35.4562
 11
-41.2705
 21
35.389
  0
LINE
  8
0
 10
-41.2705
 20
35.389
 11
-41.1868
 21
35.3132
  0
LINE
  8
0
 10
-41.1868
 20
35.3132
 11
-41.111
 21
35.2296
  0
LINE
  8
0
 10
-41.111
 20
35.2296
 11
-41.0438
 21
35.1389
  0
LINE
  8
0
 10
-41.0438
 20
35.1389
 11
-40.9858
 21
35.0421
  0
LINE
  8
0
 10
-40.9858
 20
35.0421
 11
-40.9375
 21
34.9401
  0
LINE
  8
0
 10
-40.9375
 20
34.9401
 11
-40.8995
 21
34.8338
  0
LINE
  8
0
 10
-40.8995
 20
34.8338
 11
-40.8721
 21
34.7244
  0
LINE
  8
0
 10
-40.8721
 20
34.7244
 11
-40.8555
 21
34.6127
  0
LINE
  8
0
 10
-40.8555
 20
34.6127
 11
-40.85
 21
34.5
  0
LINE
  8
0
 10
-40.85
 20
34.5
 11
-40.8555
 21
34.3873
  0
LINE
  8
0
 10
-40.8555
 20
34.3873
 11
-40.8721
 21
34.2757
  0
LINE
  8
0
 10
-40.8721
 20
34.2757
 11
-40.8995
 21
34.1662
  0
LINE
  8
0
 10
-40.8995
 20
34.1662
 11
-40.9375
 21
34.0599
  0
LINE
  8
0
 10
-40.9375
 20
34.0599
 11
-40.9858
 21
33.9579
  0
LINE
  8
0
 10
-40.9858
 20
33.9579
 11
-41.0438
 21
33.8611
  0
LINE
  8
0
 10
-41.0438
 20
33.8611
 11
-41.111
 21
33.7705
  0
LINE
  8
0
 10
-41.111
 20
33.7705
 11
-41.1868
 21
33.6868
  0
LINE
  8
0
 10
-41.1868
 20
33.6868
 11
-41.2705
 21
33.611
  0
LINE
  8
0
 10
-41.2705
 20
33.611
 11
-41.3611
 21
33.5438
  0
LINE
  8
0
 10
-41.3611
 20
33.5438
 11
-41.4579
 21
33.4858
  0
LINE
  8
0
 10
-41.4579
 20
33.4858
 11
-41.5599
 21
33.4375
  0
LINE
  8
0
 10
-41.5599
 20
33.4375
 11
-41.6662
 21
33.3995
  0
LINE
  8
0
 10
-41.6662
 20
33.3995
 11
-41.7757
 21
33.3721
  0
LINE
  8
0
 10
-41.7757
 20
33.3721
 11
-41.8873
 21
33.3555
  0
LINE
  8
0
 10
-41.8873
 20
33.3555
 11
-42
 21
33.35
  0
LINE
  8
0
 10
-42
 20
33.35
 11
-42.1127
 21
33.3555
  0
LINE
  8
0
 10
41.8873
 20
33.3555
 11
41.7757
 21
33.3721
  0
LINE
  8
0
 10
41.7757
 20
33.3721
 11
41.6662
 21
33.3995
  0
LINE
  8
0
 10
41.6662
 20
33.3995
 11
41.5599
 21
33.4375
  0
LINE
  8
0
 10
41.5599
 20
33.4375
 11
41.4579
 21
33.4858
  0
LINE
  8
0
 10
41.4579
 20
33.4858
 11
41.3611
 21
33.5438
  0
LINE
  8
0
 10
41.3611
 20
33.5438
 11
41.2705
 21
33.611
  0
LINE
  8
0
 10
41.2705
 20
33.611
 11
41.1868
 21
33.6868
  0
LINE
  8
0
 10
41.1868
 20
33.6868
 11
41.111
 21
33.7705
  0
LINE
  8
0
 10
41.111
 20
33.7705
 11
41.0438
 21
33.8611
  0
LINE
  8
0
 10
41.0438
 20
33.8611
 11
40.9858
 21
33.9579
  0
LINE
  8
0
 10
40.9858
 20
33.9579
 11
40.9375
 21
34.0599
  0
LINE
  8
0
 10
40.9375
 20
34.0599
 11
40.8995
 21
34.1662
  0
LINE
  8
0
 10
40.8995
 20
34.1662
 11
40.8721
 21
34.2757
  0
LINE
  8
0
 10
40.8721
 20
34.2757
 11
40.8555
 21
34.3873
  0
LINE
  8
0
 10
40.8555
 20
34.3873
 11
40.85
 21
34.5
  0
LINE
  8
0
 10
40.85
 20
34.5
 11
40.8555
 21
34.6127
  0
LINE
  8
0
 10
40.8555
 20
34.6127
 11
40.8721
 21
34.7244
  0
LINE
  8
0
 10
40.8721
 20
34.7244
 11
40.8995
 21
34.8338
  0
LINE
  8
0
 10
40.8995
 20
34.8338
 11
40.9375
 21
34.9401
  0
LINE
  8
0
 10
40.9375
 20
34.9401
 11
40.9858
 21
35.0421
  0
LINE
  8
0
 10
40.9858
 20
35.0421
 11
41.0438
 21
35.1389
  0
LINE
  8
0
 10
41.0438
 20
35.1389
 11
41.111
 21
35.2296
  0
LINE
  8
0
 10
41.111
 20
35.2296
 11
41.1868
 21
35.3132
  0
LINE
  8
0
 10
41.1868
 20
35.3132
 11
41.2705
 21
35.389
  0
LINE
  8
0
 10
41.2705
 20
35.389
 11
41.3611
 21
35.4562
  0
LINE
  8
0
 10
41.3611
 20
35.4562
 11
41.4579
 21
35.5142
  0
LINE
  8
0
 10
41.4579
 20
35.5142
 11
41.5599
 21
35.5625
  0
LINE
  8
0
 10
41.5599
 20
35.5625
 11
41.6662
 21
35.6005
  0
LINE
  8
0
 10
41.6662
 20
35.6005
 11
41.7757
 21
35.6279
  0
LINE
  8
0
 10
41.7757
 20
35.6279
 11
41.8873
 21
35.6445
  0
LINE
  8
0
 10
41.8873
 20
35.6445
 11
42
 21
35.65
  0
LINE
  8
0
 10
42
 20
35.65
 11
42.1127
 21
35.6445
  0
LINE
  8
0
 10
42.1127
 20
35.6445
 11
42.2243
 21
35.6279
  0
LINE
  8
0
 10
42.2243
 20
35.6279
 11
42.3338
 21
35.6005
  0
LINE
  8
0
 10
42.3338
 20
35.6005
 11
42.4401
 21
35.5625
  0
LINE
  8
0
 10
42.4401
 20
35.5625
 11
42.5421
 21
35.5142
  0
LINE
  8
0
 10
42.5421
 20
35.5142
 11
42.6389
 21
35.4562
  0
LINE
  8
0
 10
42.6389
 20
35.4562
 11
42.7295
 21
35.389
  0
LINE
  8
0
 10
42.7295
 20
35.389
 11
42.8132
 21
35.3132
  0
LINE
  8
0
 10
42.8132
 20
35.3132
 11
42.889
 21
35.2296
  0
LINE
  8
0
 10
42.889
 20
35.2296
 11
42.9562
 21
35.1389
  0
LINE
  8
0
 10
42.9562
 20
35.1389
 11
43.0142
 21
35.0421
  0
LINE
  8
0
 10
43.0142
 20
35.0421
 11
43.0625
 21
34.9401
  0
LINE
  8
0
 10
43.0625
 20
34.9401
 11
43.1005
 21
34.8338
  0
LINE
  8
0
 10
43.1005
 20
34.8338
 11
43.1279
 21
34.7244
  0
LINE
  8
0
 10
43.1279
 20
34.7244
 11
43.1445
 21
34.6127
  0
LINE
  8
0
 10
43.1445
 20
34.6127
 11
43.15
 21
34.5
  0
LINE
  8
0
 10
43.15
 20
34.5
 11
43.1445
 21
34.3873
  0
LINE
  8
0
 10
43.1445
 20
34.3873
 11
43.1279
 21
34.2757
  0
LINE
  8
0
 10
43.1279
 20
34.2757
 11
43.1005
 21
34.1662
  0
LINE
  8
0
 10
43.1005
 20
34.1662
 11
43.0625
 21
34.0599
  0
LINE
  8
0
 10
43.0625
 20
34.0599
 11
43.0142
 21
33.9579
  0
LINE
  8
0
 10
43.0142
 20
33.9579
 11
42.9562
 21
33.8611
  0
LINE
  8
0
 10
42.9562
 20
33.8611
 11
42.889
 21
33.7705
  0
LINE
  8
0
 10
42.889
 20
33.7705
 11
42.8132
 21
33.6868
  0
LINE
  8
0
 10
42.8132
 20
33.6868
 11
42.7295
 21
33.611
  0
LINE
  8
0
 10
42.7295
 20
33.611
 11
42.6389
 21
33.5438
  0
LINE
  8
0
 10
42.6389
 20
33.5438
 11
42.5421
 21
33.4858
  0
LINE
  8
0
 10
42.5421
 20
33.4858
 11
42.4401
 21
33.4375
  0
LINE
  8
0
 10
42.4401
 20
33.4375
 11
42.3338
 21
33.3995
  0
LINE
  8
0
 10
42.3338
 20
33.3995
 11
42.2243
 21
33.3721
  0
LINE
  8
0
 10
42.2243
 20
33.3721
 11
42.1127
 21
33.3555
  0
LINE
  8
0
 10
42.1127
 20
33.3555
 11
42
 21
33.35
  0
LINE
  8
0
 10
42
 20
33.35
 11
41.8873
 21
33.3555
  0
LINE
  8
0
 10
-8.09801
 20
11.8835
 11
-8.19508
 21
11.8979
  0
LINE
  8
0
 10
-8.19508
 20
11.8979
 11
-8.29028
 21
11.9217
  0
LINE
  8
0
 10
-8.29028
 20
11.9217
 11
-8.38266
 21
11.9548
  0
LINE
  8
0
 10
-8.38266
 20
11.9548
 11
-8.47139
 21
11.9967
  0
LINE
  8
0
 10
-8.47139
 20
11.9967
 11
-8.55557
 21
12.0472
  0
LINE
  8
0
 10
-8.55557
 20
12.0472
 11
-8.63438
 21
12.1057
  0
LINE
  8
0
 10
-8.63438
 20
12.1057
 11
-8.70709
 21
12.1716
  0
LINE
  8
0
 10
-8.70709
 20
12.1716
 11
-10.8284
 21
14.2929
  0
LINE
  8
0
 10
-10.8284
 20
14.2929
 11
-10.8943
 21
14.3656
  0
LINE
  8
0
 10
-10.8943
 20
14.3656
 11
-10.9528
 21
14.4444
  0
LINE
  8
0
 10
-10.9528
 20
14.4444
 11
-11.0032
 21
14.5286
  0
LINE
  8
0
 10
-11.0032
 20
14.5286
 11
-11.0452
 21
14.6173
  0
LINE
  8
0
 10
-11.0452
 20
14.6173
 11
-11.0782
 21
14.7097
  0
LINE
  8
0
 10
-11.0782
 20
14.7097
 11
-11.1021
 21
14.8049
  0
LINE
  8
0
 10
-11.1021
 20
14.8049
 11
-11.1165
 21
14.902
  0
LINE
  8
0
 10
-11.1165
 20
14.902
 11
-11.1213
 21
15
  0
LINE
  8
0
 10
-11.1213
 20
15
 11
-11.1165
 21
15.098
  0
LINE
  8
0
 10
-11.1165
 20
15.098
 11
-11.1021
 21
15.1951
  0
LINE
  8
0
 10
-11.1021
 20
15.1951
 11
-11.0782
 21
15.2903
  0
LINE
  8
0
 10
-11.0782
 20
15.2903
 11
-11.0452
 21
15.3827
  0
LINE
  8
0
 10
-11.0452
 20
15.3827
 11
-11.0032
 21
15.4714
  0
LINE
  8
0
 10
-11.0032
 20
15.4714
 11
-10.9528
 21
15.5556
  0
LINE
  8
0
 10
-10.9528
 20
15.5556
 11
-10.8943
 21
15.6344
  0
LINE
  8
0
 10
-10.8943
 20
15.6344
 11
-10.8284
 21
15.7071
  0
LINE
  8
0
 10
-10.8284
 20
15.7071
 11
-8.70709
 21
17.8284
  0
LINE
  8
0
 10
-8.70709
 20
17.8284
 11
-8.63438
 21
17.8943
  0
LINE
  8
0
 10
-8.63438
 20
17.8943
 11
-8.55557
 21
17.9528
  0
LINE
  8
0
 10
-8.55557
 20
17.9528
 11
-8.47139
 21
18.0032
  0
LINE
  8
0
 10
-8.47139
 20
18.0032
 11
-8.38266
 21
18.0452
  0
LINE
  8
0
 10
-8.38266
 20
18.0452
 11
-8.29028
 21
18.0782
  0
LINE
  8
0
 10
-8.29028
 20
18.0782
 11
-8.19508
 21
18.1021
  0
LINE
  8
0
 10
-8.19508
 20
18.1021
 11
-8.09801
 21
18.1165
  0
LINE
  8
0
 10
-8.09801
 20
18.1165
 11
-8
 21
18.1213
  0
LINE
  8
0
 10
-8
 20
18.1213
 11
-7.90198
 21
18.1165
  0
LINE
  8
0
 10
-7.90198
 20
18.1165
 11
-7.8049
 21
18.1021
  0
LINE
  8
0
 10
-7.8049
 20
18.1021
 11
-7.7097
 21
18.0782
  0
LINE
  8
0
 10
-7.7097
 20
18.0782
 11
-7.61732
 21
18.0452
  0
LINE
  8
0
 10
-7.61732
 20
18.0452
 11
-7.52859
 21
18.0032
  0
LINE
  8
0
 10
-7.52859
 20
18.0032
 11
-7.44441
 21
17.9528
  0
LINE
  8
0
 10
-7.44441
 20
17.9528
 11
-7.3656
 21
17.8943
  0
LINE
  8
0
 10
-7.3656
 20
17.8943
 11
-7.29289
 21
17.8284
  0
LINE
  8
0
 10
-7.29289
 20
17.8284
 11
-5.17157
 21
15.7071
  0
LINE
  8
0
 10
-5.17157
 20
15.7071
 11
-5.10567
 21
15.6344
  0
LINE
  8
0
 10
-5.10567
 20
15.6344
 11
-5.04721
 21
15.5556
  0
LINE
  8
0
 10
-5.04721
 20
15.5556
 11
-4.99675
 21
15.4714
  0
LINE
  8
0
 10
-4.99675
 20
15.4714
 11
-4.95479
 21
15.3827
  0
LINE
  8
0
 10
-4.95479
 20
15.3827
 11
-4.92174
 21
15.2903
  0
LINE
  8
0
 10
-4.92174
 20
15.2903
 11
-4.89789
 21
15.1951
  0
LINE
  8
0
 10
-4.89789
 20
15.1951
 11
-4.88348
 21
15.098
  0
LINE
  8
0
 10
-4.88348
 20
15.098
 11
-4.87868
 21
15
  0
LINE
  8
0
 10
-4.87868
 20
15
 11
-4.88348
 21
14.902
  0
LINE
  8
0
 10
-4.88348
 20
14.902
 11
-4.89789
 21
14.8049
  0
LINE
  8
0
 10
-4.89789
 20
14.8049
 11
-4.92174
 21
14.7097
  0
LINE
  8
0
 10
-4.92174
 20
14.7097
 11
-4.95479
 21
14.6173
  0
LINE
  8
0
 10
-4.95479
 20
14.6173
 11
-4.99675
 21
14.5286
  0
LINE
  8
0
 10
-4.99675
 20
14.5286
 11
-5.04721
 21
14.4444
  0
LINE
  8
0
 10
-5.04721
 20
14.4444
 11
-5.10567
 21
14.3656
  0
LINE
  8
0
 10
-5.10567
 20
14.3656
 11
-5.17157
 21
14.2929
  0
LINE
  8
0
 10
-5.17157
 20
14.2929
 11
-7.29289
 21
12.1716
  0
LINE
  8
0
 10
-7.29289
 20
12.1716
 11
-7.3656
 21
12.1057
  0
LINE
  8
0
 10
-7.3656
 20
12.1057
 11
-7.44441
 21
12.0472
  0
LINE
  8
0
 10
-7.44441
 20
12.0472
 11
-7.52859
 21
11.9967
  0
LINE
  8
0
 10
-7.52859
 20
11.9967
 11
-7.61732
 21
11.9548
  0
LINE
  8
0
 10
-7.61732
 20
11.9548
 11
-7.7097
 21
11.9217
  0
LINE
  8
0
 10
-7.7097
 20
11.9217
 11
-7.8049
 21
11.8979
  0
LINE
  8
0
 10
-7.8049
 20
11.8979
 11
-7.90198
 21
11.8835
  0
LINE
  8
0
 10
-7.90198
 20
11.8835
 11
-8
 21
11.8787
  0
LINE
  8
0
 10
-8
 20
11.8787
 11
-8.09801
 21
11.8835
  0
LINE
  8
0
 10
7.90198
 20
11.8835
 11
7.8049
 21
11.8979
  0
LINE
  8
0
 10
7.8049
 20
11.8979
 11
7.7097
 21
11.9217
  0
LINE
  8
0
 10
7.7097
 20
11.9217
 11
7.61732
 21
11.9548
  0
LINE
  8
0
 10
7.61732
 20
11.9548
 11
7.52859
 21
11.9967
  0
LINE
  8
0
 10
7.52859
 20
11.9967
 11
7.44441
 21
12.0472
  0
LINE
  8
0
 10
7.44441
 20
12.0472
 11
7.3656
 21
12.1057
  0
LINE
  8
0
 10
7.3656
 20
12.1057
 11
7.29289
 21
12.1716
  0
LINE
  8
0
 10
7.29289
 20
12.1716
 11
5.17157
 21
14.2929
  0
LINE
  8
0
 10
5.17157
 20
14.2929
 11
5.10567
 21
14.3656
  0
LINE
  8
0
 10
5.10567
 20
14.3656
 11
5.04721
 21
14.4444
  0
LINE
  8
0
 10
5.04721
 20
14.4444
 11
4.99675
 21
14.5286
  0
LINE
  8
0
 10
4.99675
 20
14.5286
 11
4.95479
 21
14.6173
  0
LINE
  8
0
 10
4.95479
 20
14.6173
 11
4.92174
 21
14.7097
  0
LINE
  8
0
 10
4.92174
 20
14.7097
 11
4.89789
 21
14.8049
  0
LINE
  8
0
 10
4.89789
 20
14.8049
 11
4.88348
 21
14.902
  0
LINE
  8
0
 10
4.88348
 20
14.902
 11
4.87868
 21
15
  0
LINE
  8
0
 10
4.87868
 20
15
 11
4.88348
 21
15.098
  0
LINE
  8
0
 10
4.88348
 20
15.098
 11
4.89789
 21
15.1951
  0
LINE
  8
0
 10
4.89789
 20
15.1951
 11
4.92174
 21
15.2903
  0
LINE
  8
0
 10
4.92174
 20
15.2903
 11
4.95479
 21
15.3827
  0
LINE
  8
0
 10
4.95479
 20
15.3827
 11
4.99675
 21
15.4714
  0
LINE
  8
0
 10
4.99675
 20
15.4714
 11
5.04721
 21
15.5556
  0
LINE
  8
0
 10
5.04721
 20
15.5556
 11
5.10567
 21
15.6344
  0
LINE
  8
0
 10
5.10567
 20
15.6344
 11
5.17157
 21
15.7071
  0
LINE
  8
0
 10
5.17157
 20
15.7071
 11
7.29289
 21
17.8284
  0
LINE
  8
0
 10
7.29289
 20
17.8284
 11
7.3656
 21
17.8943
  0
LINE
  8
0
 10
7.3656
 20
17.8943
 11
7.44441
 21
17.9528
  0
LINE
  8
0
 10
7.44441
 20
17.9528
 11
7.52859
 21
18.0032
  0
LINE
  8
0
 10
7.52859
 20
18.0032
 11
7.61732
 21
18.0452
  0
LINE
  8
0
 10
7.61732
 20
18.0452
 11
7.7097
 21
18.0782
  0
LINE
  8
0
 10
7.7097
 20
18.0782
 11
7.8049
 21
18.1021
  0
LINE
  8
0
 10
7.8049
 20
18.1021
 11
7.90198
 21
18.1165
  0
LINE
  8
0
 10
7.90198
 20
18.1165
 11
8
 21
18.1213
  0
LINE
  8
0
 10
8
 20
18.1213
 11
8.09801
 21
18.1165
  0
LINE
  8
0
 10
8.09801
 20
18.1165
 11
8.19508
 21
18.1021
  0
LINE
  8
0
 10
8.19508
 20
18.1021
 11
8.29028
 21
18.0782
  0
LINE
  8
0
 10
8.29028
 20
18.0782
 11
8.38266
 21
18.0452
  0
LINE
  8
0
 10
8.38266
 20
18.0452
 11
8.47139
 21
18.0032
  0
LINE
  8
0
 10
8.47139
 20
18.0032
 11
8.55557
 21
17.9528
  0
LINE
  8
0
 10
8.55557
 20
17.9528
 11
8.63438
 21
17.8943
  0
LINE
  8
0
 10
8.63438
 20
17.8943
 11
8.70709
 21
17.8284
  0
LINE
  8
0
 10
8.70709
 20
17.8284
 11
10.8284
 21
15.7071
  0
LINE
  8
0
 10
10.8284
 20
15.7071
 11
10.8943
 21
15.6344
  0
LINE
  8
0
 10
10.8943
 20
15.6344
 11
10.9528
 21
15.5556
  0
LINE
  8
0
 10
10.9528
 20
15.5556
 11
11.0032
 21
15.4714
  0
LINE
  8
0
 10
11.0032
 20
15.4714
 11
11.0452
 21
15.3827
  0
LINE
  8
0
 10
11.0452
 20
15.3827
 11
11.0782
 21
15.2903
  0
LINE
  8
0
 10
11.0782
 20
15.2903
 11
11.1021
 21
15.1951
  0
LINE
  8
0
 10
11.1021
 20
15.1951
 11
11.1165
 21
15.098
  0
LINE
  8
0
 10
11.1165
 20
15.098
 11
11.1213
 21
15
  0
LINE
  8
0
 10
11.1213
 20
15
 11
11.1165
 21
14.902
  0
LINE
  8
0
 10
11.1165
 20
14.902
 11
11.1021
 21
14.8049
  0
LINE
  8
0
 10
11.1021
 20
14.8049
 11
11.0782
 21
14.7097
  0
LINE
  8
0
 10
11.0782
 20
14.7097
 11
11.0452
 21
14.6173
  0
LINE
  8
0
 10
11.0452
 20
14.6173
 11
11.0032
 21
14.5286
  0
LINE
  8
0
 10
11.0032
 20
14.5286
 11
10.9528
 21
14.4444
  0
LINE
  8
0
 10
10.9528
 20
14.4444
 11
10.8943
 21
14.3656
  0
LINE
  8
0
 10
10.8943
 20
14.3656
 11
10.8284
 21
14.2929
  0
LINE
  8
0
 10
10.8284
 20
14.2929
 11
8.70709
 21
12.1716
  0
LINE
  8
0
 10
8.70709
 20
12.1716
 11
8.63438
 21
12.1057
  0
LINE
  8
0
 10
8.63438
 20
12.1057
 11
8.55557
 21
12.0472
  0
LINE
  8
0
 10
8.55557
 20
12.0472
 11
8.47139
 21
11.9967
  0
LINE
  8
0
 10
8.47139
 20
11.9967
 11
8.38266
 21
11.9548
  0
LINE
  8
0
 10
8.38266
 20
11.9548
 11
8.29028
 21
11.9217
  0
LINE
  8
0
 10
8.29028
 20
11.9217
 11
8.19508
 21
11.8979
  0
LINE
  8
0
 10
8.19508
 20
11.8979
 11
8.09801
 21
11.8835
  0
LINE
  8
0
 10
8.09801
 20
11.8835
 11
8
 21
11.8787
  0
LINE
  8
0
 10
8
 20
11.8787
 11
7.90198
 21
11.8835
  0
LINE
  8
0
 10
7.90198
 20
-18.1165
 11
7.8049
 21
-18.1021
  0
LINE
  8
0
 10
7.8049
 20
-18.1021
 11
7.7097
 21
-18.0782
  0
LINE
  8
0
 10
7.7097
 20
-18.0782
 11
7.61732
 21
-18.0452
  0
LINE
  8
0
 10
7.61732
 20
-18.0452
 11
7.52859
 21
-18.0032
  0
LINE
  8
0
 10
7.52859
 20
-18.0032
 11
7.44441
 21
-17.9528
  0
LINE
  8
0
 10
7.44441
 20
-17.9528
 11
7.3656
 21
-17.8943
  0
LINE
  8
0
 10
7.3656
 20
-17.8943
 11
7.29289
 21
-17.8284
  0
LINE
  8
0
 10
7.29289
 20
-17.8284
 11
5.17157
 21
-15.7071
  0
LINE
  8
0
 10
5.17157
 20
-15.7071
 11
5.10567
 21
-15.6344
  0
LINE
  8
0
 10
5.10567
 20
-15.6344
 11
5.04721
 21
-15.5556
  0
LINE
  8
0
 10
5.04721
 20
-15.5556
 11
4.99675
 21
-15.4714
  0
LINE
  8
0
 10
4.99675
 20
-15.4714
 11
4.95479
 21
-15.3827
  0
LINE
  8
0
 10
4.95479
 20
-15.3827
 11
4.92174
 21
-15.2903
  0
LINE
  8
0
 10
4.92174
 20
-15.2903
 11
4.89789
 21
-15.1951
  0
LINE
  8
0
 10
4.89789
 20
-15.1951
 11
4.88348
 21
-15.098
  0
LINE
  8
0
 10
4.88348
 20
-15.098
 11
4.87868
 21
-15
  0
LINE
  8
0
 10
4.87868
 20
-15
 11
4.88348
 21
-14.902
  0
LINE
  8
0
 10
4.88348
 20
-14.902
 11
4.89789
 21
-14.8049
  0
LINE
  8
0
 10
4.89789
 20
-14.8049
 11
4.92174
 21
-14.7097
  0
LINE
  8
0
 10
4.92174
 20
-14.7097
 11
4.95479
 21
-14.6173
  0
LINE
  8
0
 10
4.95479
 20
-14.6173
 11
4.99675
 21
-14.5286
  0
LINE
  8
0
 10
4.99675
 20
-14.5286
 11
5.04721
 21
-14.4444
  0
LINE
  8
0
 10
5.04721
 20
-14.4444
 11
5.10567
 21
-14.3656
  0
LINE
  8
0
 10
5.10567
 20
-14.3656
 11
5.17157
 21
-14.2929
  0
LINE
  8
0
 10
5.17157
 20
-14.2929
 11
7.29289
 21
-12.1716
  0
LINE
  8
0
 10
7.29289
 20
-12.1716
 11
7.3656
 21
-12.1057
  0
LINE
  8
0
 10
7.3656
 20
-12.1057
 11
7.44441
 21
-12.0472
  0
LINE
  8
0
 10
7.44441
 20
-12.0472
 11
7.52859
 21
-11.9967
  0
LINE
  8
0
 10
7.52859
 20
-11.9967
 11
7.61732
 21
-11.9548
  0
LINE
  8
0
 10
7.61732
 20
-11.9548
 11
7.7097
 21
-11.9217
  0
LINE
  8
0
 10
7.7097
 20
-11.9217
 11
7.8049
 21
-11.8979
  0
LINE
  8
0
 10
7.8049
 20
-11.8979
 11
7.90198
 21
-11.8835
  0
LINE
  8
0
 10
7.90198
 20
-11.8835
 11
8
 21
-11.8787
  0
LINE
  8
0
 10
8
 20
-11.8787
 11
8.09801
 21
-11.8835
  0
LINE
  8
0
 10
8.09801
 20
-11.8835
 11
8.19508
 21
-11.8979
  0
LINE
  8
0
 10
8.19508
 20
-11.8979
 11
8.29028
 21
-11.9217
  0
LINE
  8
0
 10
8.29028
 20
-11.9217
 11
8.38266
 21
-11.9548
  0
LINE
  8
0
 10
8.38266
 20
-11.9548
 11
8.47139
 21
-11.9967
  0
LINE
  8
0
 10
8.47139
 20
-11.9967
 11
8.55557
 21
-12.0472
  0
LINE
  8
0
 10
8.55557
 20
-12.0472
 11
8.63438
 21
-12.1057
  0
LINE
  8
0
 10
8.63438
 20
-12.1057
 11
8.70709
 21
-12.1716
  0
LINE
  8
0
 10
8.70709
 20
-12.1716
 11
10.8284
 21
-14.2929
  0
LINE
  8
0
 10
10.8284
 20
-14.2929
 11
10.8943
 21
-14.3656
  0
LINE
  8
0
 10
10.8943
 20
-14.3656
 11
10.9528
 21
-14.4444
  0
LINE
  8
0
 10
10.9528
 20
-14.4444
 11
11.0032
 21
-14.5286
  0
LINE
  8
0
 10
11.0032
 20
-14.5286
 11
11.0452
 21
-14.6173
  0
LINE
  8
0
 10
11.0452
 20
-14.6173
 11
11.0782
 21
-14.7097
  0
LINE
  8
0
 10
11.0782
 20
-14.7097
 11
11.1021
 21
-14.8049
  0
LINE
  8
0
 10
11.1021
 20
-14.8049
 11
11.1165
 21
-14.902
  0
LINE
  8
0
 10
11.1165
 20
-14.902
 11
11.1213
 21
-15
  0
LINE
  8
0
 10
11.1213
 20
-15
 11
11.1165
 21
-15.098
  0
LINE
  8
0
 10
11.1165
 20
-15.098
 11
11.1021
 21
-15.1951
  0
LINE
  8
0
 10
11.1021
 20
-15.1951
 11
11.0782
 21
-15.2903
  0
LINE
  8
0
 10
11.0782
 20
-15.2903
 11
11.0452
 21
-15.3827
  0
LINE
  8
0
 10
11.0452
 20
-15.3827
 11
11.0032
 21
-15.4714
  0
LINE
  8
0
 10
11.0032
 20
-15.4714
 11
10.9528
 21
-15.5556
  0
LINE
  8
0
 10
10.9528
 20
-15.5556
 11
10.8943
 21
-15.6344
  0
LINE
  8
0
 10
10.8943
 20
-15.6344
 11
10.8284
 21
-15.7071
  0
LINE
  8
0
 10
10.8284
 20
-15.7071
 11
8.70709
 21
-17.8284
  0
LINE
  8
0
 10
8.70709
 20
-17.8284
 11
8.63438
 21
-17.8943
  0
LINE
  8
0
 10
8.63438
 20
-17.8943
 11
8.55557
 21
-17.9528
  0
LINE
  8
0
 10
8.55557
 20
-17.9528
 11
8.47139
 21
-18.0032
  0
LINE
  8
0
 10
8.47139
 20
-18.0032
 11
8.38266
 21
-18.0452
  0
LINE
  8
0
 10
8.38266
 20
-18.0452
 11
8.29028
 21
-18.0782
  0
LINE
  8
0
 10
8.29028
 20
-18.0782
 11
8.19508
 21
-18.1021
  0
LINE
  8
0
 10
8.19508
 20
-18.1021
 11
8.09801
 21
-18.1165
  0
LINE
  8
0
 10
8.09801
 20
-18.1165
 11
8
 21
-18.1213
  0
LINE
  8
0
 10
8
 20
-18.1213
 11
7.90198
 21
-18.1165
  0
LINE
  8
0
 10
-8.09801
 20
-18.1165
 11
-8.19508
 21
-18.1021
  0
LINE
  8
0
 10
-8.19508
 20
-18.1021
 11
-8.29028
 21
-18.0782
  0
LINE
  8
0
 10
-8.29028
 20
-18.0782
 11
-8.38266
 21
-18.0452
  0
LINE
  8
0
 10
-8.38266
 20
-18.0452
 11
-8.47139
 21
-18.0032
  0
LINE
  8
0
 10
-8.47139
 20
-18.0032
 11
-8.55557
 21
-17.9528
  0
LINE
  8
0
 10
-8.55557
 20
-17.9528
 11
-8.63438
 21
-17.8943
  0
LINE
  8
0
 10
-8.63438
 20
-17.8943
 11
-8.70709
 21
-17.8284
  0
LINE
  8
0
 10
-8.70709
 20
-17.8284
 11
-10.8284
 21
-15.7071
  0
LINE
  8
0
 10
-10.8284
 20
-15.7071
 11
-10.8943
 21
-15.6344
  0
LINE
  8
0
 10
-10.8943
 20
-15.6344
 11
-10.9528
 21
-15.5556
  0
LINE
  8
0
 10
-10.9528
 20
-15.5556
 11
-11.0032
 21
-15.4714
  0
LINE
  8
0
 10
-11.0032
 20
-15.4714
 11
-11.0452
 21
-15.3827
  0
LINE
  8
0
 10
-11.0452
 20
-15.3827
 11
-11.0782
 21
-15.2903
  0
LINE
  8
0
 10
-11.0782
 20
-15.2903
 11
-11.1021
 21
-15.1951
  0
LINE
  8
0
 10
-11.1021
 20
-15.1951
 11
-11.1165
 21
-15.098
  0
LINE
  8
0
 10
-11.1165
 20
-15.098
 11
-11.1213
 21
-15
  0
LINE
  8
0
 10
-11.1213
 20
-15
 11
-11.1165
 21
-14.902
  0
LINE
  8
0
 10
-11.1165
 20
-14.902
 11
-11.1021
 21
-14.8049
  0
LINE
  8
0
 10
-11.1021
 20
-14.8049
 11
-11.0782
 21
-14.7097
  0
LINE
  8
0
 10
-11.0782
 20
-14.7097
 11
-11.0452
 21
-14.6173
  0
LINE
  8
0
 10
-11.0452
 20
-14.6173
 11
-11.0032
 21
-14.5286
  0
LINE
  8
0
 10
-11.0032
 20
-14.5286
 11
-10.9528
 21
-14.4444
  0
LINE
  8
0
 10
-10.9528
 20
-14.4444
 11
-10.8943
 21
-14.3656
  0
LINE
  8
0
 10
-10.8943
 20
-14.3656
 11
-10.8284
 21
-14.2929
  0
LINE
  8
0
 10
-10.8284
 20
-14.2929
 11
-8.70709
 21
-12.1716
  0
LINE
  8
0
 10
-8.70709
 20
-12.1716
 11
-8.63438
 21
-12.1057
  0
LINE
  8
0
 10
-8.63438
 20
-12.1057
 11
-8.55557
 21
-12.0472
  0
LINE
  8
0
 10
-8.55557
 20
-12.0472
 11
-8.47139
 21
-11.9967
  0
LINE
  8
0
 10
-8.47139
 20
-11.9967
 11
-8.38266
 21
-11.9548
  0
LINE
  8
0
 10
-8.38266
 20
-11.9548
 11
-8.29028
 21
-11.9217
  0
LINE
  8
0
 10
-8.29028
 20
-11.9217
 11
-8.19508
 21
-11.8979
  0
LINE
  8
0
 10
-8.19508
 20
-11.8979
 11
-8.09801
 21
-11.8835
  0
LINE
  8
0
 10
-8.09801
 20
-11.8835
 11
-8
 21
-11.8787
  0
LINE
  8
0
 10
-8
 20
-11.8787
 11
-7.90198
 21
-11.8835
  0
LINE
  8
0
 10
-7.90198
 20
-11.8835
 11
-7.8049
 21
-11.8979
  0
LINE
  8
0
 10
-7.8049
 20
-11.8979
 11
-7.7097
 21
-11.9217
  0
LINE
  8
0
 10
-7.7097
 20
-11.9217
 11
-7.61732
 21
-11.9548
  0
LINE
  8
0
 10
-7.61732
 20
-11.9548
 11
-7.52859
 21
-11.9967
  0
LINE
  8
0
 10
-7.52859
 20
-11.9967
 11
-7.44441
 21
-12.0472
  0
LINE
  8
0
 10
-7.44441
 20
-12.0472
 11
-7.3656
 21
-12.1057
  0
LINE
  8
0
 10
-7.3656
 20
-12.1057
 11
-7.29289
 21
-12.1716
  0
LINE
  8
0
 10
-7.29289
 20
-12.1716
 11
-5.17157
 21
-14.2929
  0
LINE
  8
0
 10
-5.17157
 20
-14.2929
 11
-5.10567
 21
-14.3656
  0
LINE
  8
0
 10
-5.10567
 20
-14.3656
 11
-5.04721
 21
-14.4444
  0
LINE
  8
0
 10
-5.04721
 20
-14.4444
 11
-4.99675
 21
-14.5286
  0
LINE
  8
0
 10
-4.99675
 20
-14.5286
 11
-4.95479
 21
-14.6173
  0
LINE
  8
0
 10
-4.95479
 20
-14.6173
 11
-4.92174
 21
-14.7097
  0
LINE
  8
0
 10
-4.92174
 20
-14.7097
 11
-4.89789
 21
-14.8049
  0
LINE
  8
0
 10
-4.89789
 20
-14.8049
 11
-4.88348
 21
-14.902
  0
LINE
  8
0
 10
-4.88348
 20
-14.902
 11
-4.87868
 21
-15
  0
LINE
  8
0
 10
-4.87868
 20
-15
 11
-4.88348
 21
-15.098
  0
LINE
  8
0
 10
-4.88348
 20
-15.098
 11
-4.89789
 21
-15.1951
  0
LINE
  8
0
 10
-4.89789
 20
-15.1951
 11
-4.92174
 21
-15.2903
  0
LINE
  8
0
 10
-4.92174
 20
-15.2903
 11
-4.95479
 21
-15.3827
  0
LINE
  8
0
 10
-4.95479
 20
-15.3827
 11
-4.99675
 21
-15.4714
  0
LINE
  8
0
 10
-4.99675
 20
-15.4714
 11
-5.04721
 21
-15.5556
  0
LINE
  8
0
 10
-5.04721
 20
-15.5556
 11
-5.10567
 21
-15.6344
  0
LINE
  8
0
 10
-5.10567
 20
-15.6344
 11
-5.17157
 21
-15.7071
  0
LINE
  8
0
 10
-5.17157
 20
-15.7071
 11
-7.29289
 21
-17.8284
  0
LINE
  8
0
 10
-7.29289
 20
-17.8284
 11
-7.3656
 21
-17.8943
  0
LINE
  8
0
 10
-7.3656
 20
-17.8943
 11
-7.44441
 21
-17.9528
  0
LINE
  8
0
 10
-7.44441
 20
-17.9528
 11
-7.52859
 21
-18.0032
  0
LINE
  8
0
 10
-7.52859
 20
-18.0032
 11
-7.61732
 21
-18.0452
  0
LINE
  8
0
 10
-7.61732
 20
-18.0452
 11
-7.7097
 21
-18.0782
  0
LINE
  8
0
 10
-7.7097
 20
-18.0782
 11
-7.8049
 21
-18.1021
  0
LINE
  8
0
 10
-7.8049
 20
-18.1021
 11
-7.90198
 21
-18.1165
  0
LINE
  8
0
 10
-7.90198
 20
-18.1165
 11
-8
 21
-18.1213
  0
LINE
  8
0
 10
-8
 20
-18.1213
 11
-8.09801
 21
-18.1165
  0
LINE
  8
0
 10
-6.61272
 20
-26.1445
 11
-6.72435
 21
-26.1279
  0
LINE
  8
0
 10
-6.72435
 20
-26.1279
 11
-6.83382
 21
-26.1005
  0
LINE
  8
0
 10
-6.83382
 20
-26.1005
 11
-6.94008
 21
-26.0625
  0
LINE
  8
0
 10
-6.94008
 20
-26.0625
 11
-7.0421
 21
-26.0142
  0
LINE
  8
0
 10
-7.0421
 20
-26.0142
 11
-7.1389
 21
-25.9562
  0
LINE
  8
0
 10
-7.1389
 20
-25.9562
 11
-7.22954
 21
-25.889
  0
LINE
  8
0
 10
-7.22954
 20
-25.889
 11
-7.31317
 21
-25.8132
  0
LINE
  8
0
 10
-7.31317
 20
-25.8132
 11
-7.38896
 21
-25.7295
  0
LINE
  8
0
 10
-7.38896
 20
-25.7295
 11
-7.45618
 21
-25.6389
  0
LINE
  8
0
 10
-7.45618
 20
-25.6389
 11
-7.51421
 21
-25.5421
  0
LINE
  8
0
 10
-7.51421
 20
-25.5421
 11
-7.56245
 21
-25.4401
  0
LINE
  8
0
 10
-7.56245
 20
-25.4401
 11
-7.60048
 21
-25.3338
  0
LINE
  8
0
 10
-7.60048
 20
-25.3338
 11
-7.6279
 21
-25.2243
  0
LINE
  8
0
 10
-7.6279
 20
-25.2243
 11
-7.64445
 21
-25.1127
  0
LINE
  8
0
 10
-7.64445
 20
-25.1127
 11
-7.64999
 21
-25
  0
LINE
  8
0
 10
-7.64999
 20
-25
 11
-7.64445
 21
-24.8873
  0
LINE
  8
0
 10
-7.64445
 20
-24.8873
 11
-7.6279
 21
-24.7756
  0
LINE
  8
0
 10
-7.6279
 20
-24.7756
 11
-7.60048
 21
-24.6662
  0
LINE
  8
0
 10
-7.60048
 20
-24.6662
 11
-7.56245
 21
-24.5599
  0
LINE
  8
0
 10
-7.56245
 20
-24.5599
 11
-7.51421
 21
-24.4579
  0
LINE
  8
0
 10
-7.51421
 20
-24.4579
 11
-7.45618
 21
-24.3611
  0
LINE
  8
0
 10
-7.45618
 20
-24.3611
 11
-7.38896
 21
-24.2704
  0
LINE
  8
0
 10
-7.38896
 20
-24.2704
 11
-7.31317
 21
-24.1868
  0
LINE
  8
0
 10
-7.31317
 20
-24.1868
 11
-7.22954
 21
-24.111
  0
LINE
  8
0
 10
-7.22954
 20
-24.111
 11
-7.1389
 21
-24.0438
  0
LINE
  8
0
 10
-7.1389
 20
-24.0438
 11
-7.0421
 21
-23.9858
  0
LINE
  8
0
 10
-7.0421
 20
-23.9858
 11
-6.94008
 21
-23.9375
  0
LINE
  8
0
 10
-6.94008
 20
-23.9375
 11
-6.83382
 21
-23.8995
  0
LINE
  8
0
 10
-6.83382
 20
-23.8995
 11
-6.72435
 21
-23.8721
  0
LINE
  8
0
 10
-6.72435
 20
-23.8721
 11
-6.61272
 21
-23.8555
  0
LINE
  8
0
 10
-6.61272
 20
-23.8555
 11
-6.5
 21
-23.85
  0
LINE
  8
0
 10
-6.5
 20
-23.85
 11
-6.38727
 21
-23.8555
  0
LINE
  8
0
 10
-6.38727
 20
-23.8555
 11
-6.27563
 21
-23.8721
  0
LINE
  8
0
 10
-6.27563
 20
-23.8721
 11
-6.16617
 21
-23.8995
  0
LINE
  8
0
 10
-6.16617
 20
-23.8995
 11
-6.05991
 21
-23.9375
  0
LINE
  8
0
 10
-6.05991
 20
-23.9375
 11
-5.95789
 21
-23.9858
  0
LINE
  8
0
 10
-5.95789
 20
-23.9858
 11
-5.86108
 21
-24.0438
  0
LINE
  8
0
 10
-5.86108
 20
-24.0438
 11
-5.77045
 21
-24.111
  0
LINE
  8
0
 10
-5.77045
 20
-24.111
 11
-5.68681
 21
-24.1868
  0
LINE
  8
0
 10
-5.68681
 20
-24.1868
 11
-5.61102
 21
-24.2704
  0
LINE
  8
0
 10
-5.61102
 20
-24.2704
 11
-5.54381
 21
-24.3611
  0
LINE
  8
0
 10
-5.54381
 20
-24.3611
 11
-5.48578
 21
-24.4579
  0
LINE
  8
0
 10
-5.48578
 20
-24.4579
 11
-5.43753
 21
-24.5599
  0
LINE
  8
0
 10
-5.43753
 20
-24.5599
 11
-5.39951
 21
-24.6662
  0
LINE
  8
0
 10
-5.39951
 20
-24.6662
 11
-5.37209
 21
-24.7756
  0
LINE
  8
0
 10
-5.37209
 20
-24.7756
 11
-5.35553
 21
-24.8873
  0
LINE
  8
0
 10
-5.35553
 20
-24.8873
 11
-5.34999
 21
-25
  0
LINE
  8
0
 10
-5.34999
 20
-25
 11
-5.35553
 21
-25.1127
  0
LINE
  8
0
 10
-5.35553
 20
-25.1127
 11
-5.37209
 21
-25.2243
  0
LINE
  8
0
 10
-5.37209
 20
-25.2243
 11
-5.39951
 21
-25.3338
  0
LINE
  8
0
 10
-5.39951
 20
-25.3338
 11
-5.43753
 21
-25.4401
  0
LINE
  8
0
 10
-5.43753
 20
-25.4401
 11
-5.48578
 21
-25.5421
  0
LINE
  8
0
 10
-5.48578
 20
-25.5421
 11
-5.54381
 21
-25.6389
  0
LINE
  8
0
 10
-5.54381
 20
-25.6389
 11
-5.61102
 21
-25.7295
  0
LINE
  8
0
 10
-5.61102
 20
-25.7295
 11
-5.68681
 21
-25.8132
  0
LINE
  8
0
 10
-5.68681
 20
-25.8132
 11
-5.77045
 21
-25.889
  0
LINE
  8
0
 10
-5.77045
 20
-25.889
 11
-5.86108
 21
-25.9562
  0
LINE
  8
0
 10
-5.86108
 20
-25.9562
 11
-5.95789
 21
-26.0142
  0
LINE
  8
0
 10
-5.95789
 20
-26.0142
 11
-6.05991
 21
-26.0625
  0
LINE
  8
0
 10
-6.05991
 20
-26.0625
 11
-6.16617
 21
-26.1005
  0
LINE
  8
0
 10
-6.16617
 20
-26.1005
 11
-6.27563
 21
-26.1279
  0
LINE
  8
0
 10
-6.27563
 20
-26.1279
 11
-6.38727
 21
-26.1445
  0
LINE
  8
0
 10
-6.38727
 20
-26.1445
 11
-6.5
 21
-26.15
  0
LINE
  8
0
 10
-6.5
 20
-26.15
 11
-6.61272
 21
-26.1445
  0
LINE
  8
0
 10
6.38727
 20
-26.1445
 11
6.27563
 21
-26.1279
  0
LINE
  8
0
 10
6.27563
 20
-26.1279
 11
6.16617
 21
-26.1005
  0
LINE
  8
0
 10
6.16617
 20
-26.1005
 11
6.05991
 21
-26.0625
  0
LINE
  8
0
 10
6.05991
 20
-26.0625
 11
5.95789
 21
-26.0142
  0
LINE
  8
0
 10
5.95789
 20
-26.0142
 11
5.86108
 21
-25.9562
  0
LINE
  8
0
 10
5.86108
 20
-25.9562
 11
5.77045
 21
-25.889
  0
LINE
  8
0
 10
5.77045
 20
-25.889
 11
5.68681
 21
-25.8132
  0
LINE
  8
0
 10
5.68681
 20
-25.8132
 11
5.61102
 21
-25.7295
  0
LINE
  8
0
 10
5.61102
 20
-25.7295
 11
5.54381
 21
-25.6389
  0
LINE
  8
0
 10
5.54381
 20
-25.6389
 11
5.48578
 21
-25.5421
  0
LINE
  8
0
 10
5.48578
 20
-25.5421
 11
5.43753
 21
-25.4401
  0
LINE
  8
0
 10
5.43753
 20
-25.4401
 11
5.39951
 21
-25.3338
  0
LINE
  8
0
 10
5.39951
 20
-25.3338
 11
5.37209
 21
-25.2243
  0
LINE
  8
0
 10
5.37209
 20
-25.2243
 11
5.35553
 21
-25.1127
  0
LINE
  8
0
 10
5.35553
 20
-25.1127
 11
5.34999
 21
-25
  0
LINE
  8
0
 10
5.34999
 20
-25
 11
5.35553
 21
-24.8873
  0
LINE
  8
0
 10
5.35553
 20
-24.8873
 11
5.37209
 21
-24.7756
  0
LINE
  8
0
 10
5.37209
 20
-24.7756
 11
5.39951
 21
-24.6662
  0
LINE
  8
0
 10
5.39951
 20
-24.6662
 11
5.43753
 21
-24.5599
  0
LINE
  8
0
 10
5.43753
 20
-24.5599
 11
5.48578
 21
-24.4579
  0
LINE
  8
0
 10
5.48578
 20
-24.4579
 11
5.54381
 21
-24.3611
  0
LINE
  8
0
 10
5.54381
 20
-24.3611
 11
5.61102
 21
-24.2704
  0
LINE
  8
0
 10
5.61102
 20
-24.2704
 11
5.68681
 21
-24.1868
  0
LINE
  8
0
 10
5.68681
 20
-24.1868
 11
5.77045
 21
-24.111
  0
LINE
  8
0
 10
5.77045
 20
-24.111
 11
5.86108
 21
-24.0438
  0
LINE
  8
0
 10
5.86108
 20
-24.0438
 11
5.95789
 21
-23.9858
  0
LINE
  8
0
 10
5.95789
 20
-23.9858
 11
6.05991
 21
-23.9375
  0
LINE
  8
0
 10
6.05991
 20
-23.9375
 11
6.16617
 21
-23.8995
  0
LINE
  8
0
 10
6.16617
 20
-23.8995
 11
6.27563
 21
-23.8721
  0
LINE
  8
0
 10
6.27563
 20
-23.8721
 11
6.38727
 21
-23.8555
  0
LINE
  8
0
 10
6.38727
 20
-23.8555
 11
6.5
 21
-23.85
  0
LINE
  8
0
 10
6.5
 20
-23.85
 11
6.61272
 21
-23.8555
  0
LINE
  8
0
 10
6.61272
 20
-23.8555
 11
6.72435
 21
-23.8721
  0
LINE
  8
0
 10
6.72435
 20
-23.8721
 11
6.83382
 21
-23.8995
  0
LINE
  8
0
 10
6.83382
 20
-23.8995
 11
6.94008
 21
-23.9375
  0
LINE
  8
0
 10
6.94008
 20
-23.9375
 11
7.0421
 21
-23.9858
  0
LINE
  8
0
 10
7.0421
 20
-23.9858
 11
7.1389
 21
-24.0438
  0
LINE
  8
0
 10
7.1389
 20
-24.0438
 11
7.22954
 21
-24.111
  0
LINE
  8
0
 10
7.22954
 20
-24.111
 11
7.31317
 21
-24.1868
  0
LINE
  8
0
 10
7.31317
 20
-24.1868
 11
7.38896
 21
-24.2704
  0
LINE
  8
0
 10
7.38896
 20
-24.2704
 11
7.45618
 21
-24.3611
  0
LINE
  8
0
 10
7.45618
 20
-24.3611
 11
7.51421
 21
-24.4579
  0
LINE
  8
0
 10
7.51421
 20
-24.4579
 11
7.56245
 21
-24.5599
  0
LINE
  8
0
 10
7.56245
 20
-24.5599
 11
7.60048
 21
-24.6662
  0
LINE
  8
0
 10
7.60048
 20
-24.6662
 11
7.6279
 21
-24.7756
  0
LINE
  8
0
 10
7.6279
 20
-24.7756
 11
7.64445
 21
-24.8873
  0
LINE
  8
0
 10
7.64445
 20
-24.8873
 11
7.64999
 21
-25
  0
LINE
  8
0
 10
7.64999
 20
-25
 11
7.64445
 21
-25.1127
  0
LINE
  8
0
 10
7.64445
 20
-25.1127
 11
7.6279
 21
-25.2243
  0
LINE
  8
0
 10
7.6279
 20
-25.2243
 11
7.60048
 21
-25.3338
  0
LINE
  8
0
 10
7.60048
 20
-25.3338
 11
7.56245
 21
-25.4401
  0
LINE
  8
0
 10
7.56245
 20
-25.4401
 11
7.51421
 21
-25.5421
  0
LINE
  8
0
 10
7.51421
 20
-25.5421
 11
7.45618
 21
-25.6389
  0
LINE
  8
0
 10
7.45618
 20
-25.6389
 11
7.38896
 21
-25.7295
  0
LINE
  8
0
 10
7.38896
 20
-25.7295
 11
7.31317
 21
-25.8132
  0
LINE
  8
0
 10
7.31317
 20
-25.8132
 11
7.22954
 21
-25.889
  0
LINE
  8
0
 10
7.22954
 20
-25.889
 11
7.1389
 21
-25.9562
  0
LINE
  8
0
 10
7.1389
 20
-25.9562
 11
7.0421
 21
-26.0142
  0
LINE
  8
0
 10
7.0421
 20
-26.0142
 11
6.94008
 21
-26.0625
  0
LINE
  8
0
 10
6.94008
 20
-26.0625
 11
6.83382
 21
-26.1005
  0
LINE
  8
0
 10
6.83382
 20
-26.1005
 11
6.72435
 21
-26.1279
  0
LINE
  8
0
 10
6.72435
 20
-26.1279
 11
6.61272
 21
-26.1445
  0
LINE
  8
0
 10
6.61272
 20
-26.1445
 11
6.5
 21
-26.15
  0
LINE
  8
0
 10
6.5
 20
-26.15
 11
6.38727
 21
-26.1445
  0
LINE
  8
0
 10
-4
 20
-30.5
 11
-4.09802
 21
-30.4952
  0
LINE
  8
0
 10
-4.09802
 20
-30.4952
 11
-4.19508
 21
-30.4808
  0
LINE
  8
0
 10
-4.19508
 20
-30.4808
 11
-4.29028
 21
-30.4569
  0
LINE
  8
0
 10
-4.29028
 20
-30.4569
 11
-4.38269
 21
-30.4239
  0
LINE
  8
0
 10
-4.38269
 20
-30.4239
 11
-4.47139
 21
-30.3819
  0
LINE
  8
0
 10
-4.47139
 20
-30.3819
 11
-4.55557
 21
-30.3315
  0
LINE
  8
0
 10
-4.55557
 20
-30.3315
 11
-4.6344
 21
-30.273
  0
LINE
  8
0
 10
-4.6344
 20
-30.273
 11
-4.70711
 21
-30.2071
  0
LINE
  8
0
 10
-4.70711
 20
-30.2071
 11
-4.77301
 21
-30.1344
  0
LINE
  8
0
 10
-4.77301
 20
-30.1344
 11
-4.83147
 21
-30.0556
  0
LINE
  8
0
 10
-4.83147
 20
-30.0556
 11
-4.88193
 21
-29.9714
  0
LINE
  8
0
 10
-4.88193
 20
-29.9714
 11
-4.92387
 21
-29.8827
  0
LINE
  8
0
 10
-4.92387
 20
-29.8827
 11
-4.95694
 21
-29.7903
  0
LINE
  8
0
 10
-4.95694
 20
-29.7903
 11
-4.98079
 21
-29.6951
  0
LINE
  8
0
 10
-4.98079
 20
-29.6951
 11
-4.99518
 21
-29.598
  0
LINE
  8
0
 10
-4.99518
 20
-29.598
 11
-5
 21
-29.5
  0
LINE
  8
0
 10
-5
 20
-29.5
 11
-5
 21
-28.5
  0
LINE
  8
0
 10
-5
 20
-28.5
 11
-4.99518
 21
-28.402
  0
LINE
  8
0
 10
-4.99518
 20
-28.402
 11
-4.98079
 21
-28.3049
  0
LINE
  8
0
 10
-4.98079
 20
-28.3049
 11
-4.95694
 21
-28.2097
  0
LINE
  8
0
 10
-4.95694
 20
-28.2097
 11
-4.92387
 21
-28.1173
  0
LINE
  8
0
 10
-4.92387
 20
-28.1173
 11
-4.88193
 21
-28.0286
  0
LINE
  8
0
 10
-4.88193
 20
-28.0286
 11
-4.83147
 21
-27.9444
  0
LINE
  8
0
 10
-4.83147
 20
-27.9444
 11
-4.77301
 21
-27.8656
  0
LINE
  8
0
 10
-4.77301
 20
-27.8656
 11
-4.70711
 21
-27.7929
  0
LINE
  8
0
 10
-4.70711
 20
-27.7929
 11
-4.6344
 21
-27.727
  0
LINE
  8
0
 10
-4.6344
 20
-27.727
 11
-4.55557
 21
-27.6685
  0
LINE
  8
0
 10
-4.55557
 20
-27.6685
 11
-4.47139
 21
-27.6181
  0
LINE
  8
0
 10
-4.47139
 20
-27.6181
 11
-4.38269
 21
-27.5761
  0
LINE
  8
0
 10
-4.38269
 20
-27.5761
 11
-4.29028
 21
-27.5431
  0
LINE
  8
0
 10
-4.29028
 20
-27.5431
 11
-4.19508
 21
-27.5192
  0
LINE
  8
0
 10
-4.19508
 20
-27.5192
 11
-4.09802
 21
-27.5048
  0
LINE
  8
0
 10
-4.09802
 20
-27.5048
 11
-4
 21
-27.5
  0
LINE
  8
0
 10
-4
 20
-27.5
 11
4
 21
-27.5
  0
LINE
  8
0
 10
4
 20
-27.5
 11
4.09802
 21
-27.5048
  0
LINE
  8
0
 10
4.09802
 20
-27.5048
 11
4.19508
 21
-27.5192
  0
LINE
  8
0
 10
4.19508
 20
-27.5192
 11
4.29028
 21
-27.5431
  0
LINE
  8
0
 10
4.29028
 20
-27.5431
 11
4.38269
 21
-27.5761
  0
LINE
  8
0
 10
4.38269
 20
-27.5761
 11
4.47139
 21
-27.6181
  0
LINE
  8
0
 10
4.47139
 20
-27.6181
 11
4.55557
 21
-27.6685
  0
LINE
  8
0
 10
4.55557
 20
-27.6685
 11
4.6344
 21
-27.727
  0
LINE
  8
0
 10
4.6344
 20
-27.727
 11
4.70711
 21
-27.7929
  0
LINE
  8
0
 10
4.70711
 20
-27.7929
 11
4.77301
 21
-27.8656
  0
LINE
  8
0
 10
4.77301
 20
-27.8656
 11
4.83147
 21
-27.9444
  0
LINE
  8
0
 10
4.83147
 20
-27.9444
 11
4.88193
 21
-28.0286
  0
LINE
  8
0
 10
4.88193
 20
-28.0286
 11
4.92387
 21
-28.1173
  0
LINE
  8
0
 10
4.92387
 20
-28.1173
 11
4.95694
 21
-28.2097
  0
LINE
  8
0
 10
4.95694
 20
-28.2097
 11
4.98079
 21
-28.3049
  0
LINE
  8
0
 10
4.98079
 20
-28.3049
 11
4.99518
 21
-28.402
  0
LINE
  8
0
 10
4.99518
 20
-28.402
 11
5
 21
-28.5
  0
LINE
  8
0
 10
5
 20
-28.5
 11
5
 21
-29.5
  0
LINE
  8
0
 10
5
 20
-29.5
 11
4.99518
 21
-29.598
  0
LINE
  8
0
 10
4.99518
 20
-29.598
 11
4.98079
 21
-29.6951
  0
LINE
  8
0
 10
4.98079
 20
-29.6951
 11
4.95694
 21
-29.7903
  0
LINE
  8
0
 10
4.95694
 20
-29.7903
 11
4.92387
 21
-29.8827
  0
LINE
  8
0
 10
4.92387
 20
-29.8827
 11
4.88193
 21
-29.9714
  0
LINE
  8
0
 10
4.88193
 20
-29.9714
 11
4.83147
 21
-30.0556
  0
LINE
  8
0
 10
4.83147
 20
-30.0556
 11
4.77301
 21
-30.1344
  0
LINE
  8
0
 10
4.77301
 20
-30.1344
 11
4.70711
 21
-30.2071
  0
LINE
  8
0
 10
4.70711
 20
-30.2071
 11
4.6344
 21
-30.273
  0
LINE
  8
0
 10
4.6344
 20
-30.273
 11
4.55557
 21
-30.3315
  0
LINE
  8
0
 10
4.55557
 20
-30.3315
 11
4.47139
 21
-30.3819
  0
LINE
  8
0
 10
4.47139
 20
-30.3819
 11
4.38269
 21
-30.4239
  0
LINE
  8
0
 10
4.38269
 20
-30.4239
 11
4.29028
 21
-30.4569
  0
LINE
  8
0
 10
4.29028
 20
-30.4569
 11
4.19508
 21
-30.4808
  0
LINE
  8
0
 10
4.19508
 20
-30.4808
 11
4.09802
 21
-30.4952
  0
LINE
  8
0
 10
4.09802
 20
-30.4952
 11
4
 21
-30.5
  0
LINE
  8
0
 10
4
 20
-30.5
 11
-4
 21
-30.5
  0
LINE
  8
0
 10
37.9528
 20
-37.8902
 11
37.8418
 21
-37.87
  0
LINE
  8
0
 10
37.8418
 20
-37.87
 11
37.7332
 21
-37.839
  0
LINE
  8
0
 10
37.7332
 20
-37.839
 11
37.6283
 21
-37.7975
  0
LINE
  8
0
 10
37.6283
 20
-37.7975
 11
37.5279
 21
-37.7459
  0
LINE
  8
0
 10
37.5279
 20
-37.7459
 11
37.433
 21
-37.6848
  0
LINE
  8
0
 10
37.433
 20
-37.6848
 11
37.3447
 21
-37.6146
  0
LINE
  8
0
 10
37.3447
 20
-37.6146
 11
37.2635
 21
-37.5361
  0
LINE
  8
0
 10
37.2635
 20
-37.5361
 11
37.1905
 21
-37.4501
  0
LINE
  8
0
 10
37.1905
 20
-37.4501
 11
37.1263
 21
-37.3573
  0
LINE
  8
0
 10
37.1263
 20
-37.3573
 11
37.0715
 21
-37.2586
  0
LINE
  8
0
 10
37.0715
 20
-37.2586
 11
37.0266
 21
-37.1551
  0
LINE
  8
0
 10
37.0266
 20
-37.1551
 11
36.9921
 21
-37.0477
  0
LINE
  8
0
 10
36.9921
 20
-37.0477
 11
36.9682
 21
-36.9373
  0
LINE
  8
0
 10
36.9682
 20
-36.9373
 11
36.9554
 21
-36.8252
  0
LINE
  8
0
 10
36.9554
 20
-36.8252
 11
36.9535
 21
-36.7124
  0
LINE
  8
0
 10
36.9535
 20
-36.7124
 11
36.9627
 21
-36.5999
  0
LINE
  8
0
 10
36.9627
 20
-36.5999
 11
36.9829
 21
-36.4889
  0
LINE
  8
0
 10
36.9829
 20
-36.4889
 11
37.0139
 21
-36.3804
  0
LINE
  8
0
 10
37.0139
 20
-36.3804
 11
37.0554
 21
-36.2754
  0
LINE
  8
0
 10
37.0554
 20
-36.2754
 11
37.107
 21
-36.175
  0
LINE
  8
0
 10
37.107
 20
-36.175
 11
37.1681
 21
-36.0802
  0
LINE
  8
0
 10
37.1681
 20
-36.0802
 11
37.2383
 21
-35.9918
  0
LINE
  8
0
 10
37.2383
 20
-35.9918
 11
37.3168
 21
-35.9107
  0
LINE
  8
0
 10
37.3168
 20
-35.9107
 11
37.4028
 21
-35.8376
  0
LINE
  8
0
 10
37.4028
 20
-35.8376
 11
37.4956
 21
-35.7734
  0
LINE
  8
0
 10
37.4956
 20
-35.7734
 11
37.5943
 21
-35.7186
  0
LINE
  8
0
 10
37.5943
 20
-35.7186
 11
37.6978
 21
-35.6737
  0
LINE
  8
0
 10
37.6978
 20
-35.6737
 11
37.8053
 21
-35.6392
  0
LINE
  8
0
 10
37.8053
 20
-35.6392
 11
37.9156
 21
-35.6154
  0
LINE
  8
0
 10
37.9156
 20
-35.6154
 11
38.0277
 21
-35.6025
  0
LINE
  8
0
 10
38.0277
 20
-35.6025
 11
38.1405
 21
-35.6006
  0
LINE
  8
0
 10
38.1405
 20
-35.6006
 11
38.253
 21
-35.6098
  0
LINE
  8
0
 10
38.253
 20
-35.6098
 11
38.364
 21
-35.6301
  0
LINE
  8
0
 10
38.364
 20
-35.6301
 11
38.4725
 21
-35.661
  0
LINE
  8
0
 10
38.4725
 20
-35.661
 11
38.5775
 21
-35.7025
  0
LINE
  8
0
 10
38.5775
 20
-35.7025
 11
38.6779
 21
-35.7541
  0
LINE
  8
0
 10
38.6779
 20
-35.7541
 11
38.7727
 21
-35.8152
  0
LINE
  8
0
 10
38.7727
 20
-35.8152
 11
38.8611
 21
-35.8854
  0
LINE
  8
0
 10
38.8611
 20
-35.8854
 11
38.9422
 21
-35.9639
  0
LINE
  8
0
 10
38.9422
 20
-35.9639
 11
39.0152
 21
-36.0499
  0
LINE
  8
0
 10
39.0152
 20
-36.0499
 11
39.0795
 21
-36.1427
  0
LINE
  8
0
 10
39.0795
 20
-36.1427
 11
39.1343
 21
-36.2414
  0
LINE
  8
0
 10
39.1343
 20
-36.2414
 11
39.1792
 21
-36.3449
  0
LINE
  8
0
 10
39.1792
 20
-36.3449
 11
39.2137
 21
-36.4524
  0
LINE
  8
0
 10
39.2137
 20
-36.4524
 11
39.2375
 21
-36.5627
  0
LINE
  8
0
 10
39.2375
 20
-36.5627
 11
39.2504
 21
-36.6748
  0
LINE
  8
0
 10
39.2504
 20
-36.6748
 11
39.2523
 21
-36.7876
  0
LINE
  8
0
 10
39.2523
 20
-36.7876
 11
39.2431
 21
-36.9001
  0
LINE
  8
0
 10
39.2431
 20
-36.9001
 11
39.2229
 21
-37.0111
  0
LINE
  8
0
 10
39.2229
 20
-37.0111
 11
39.1919
 21
-37.1197
  0
LINE
  8
0
 10
39.1919
 20
-37.1197
 11
39.1504
 21
-37.2246
  0
LINE
  8
0
 10
39.1504
 20
-37.2246
 11
39.0988
 21
-37.325
  0
LINE
  8
0
 10
39.0988
 20
-37.325
 11
39.0377
 21
-37.4199
  0
LINE
  8
0
 10
39.0377
 20
-37.4199
 11
38.9675
 21
-37.5083
  0
LINE
  8
0
 10
38.9675
 20
-37.5083
 11
38.889
 21
-37.5894
  0
LINE
  8
0
 10
38.889
 20
-37.5894
 11
38.803
 21
-37.6624
  0
LINE
  8
0
 10
38.803
 20
-37.6624
 11
38.7102
 21
-37.7266
  0
LINE
  8
0
 10
38.7102
 20
-37.7266
 11
38.6115
 21
-37.7814
  0
LINE
  8
0
 10
38.6115
 20
-37.7814
 11
38.508
 21
-37.8263
  0
LINE
  8
0
 10
38.508
 20
-37.8263
 11
38.4005
 21
-37.8608
  0
LINE
  8
0
 10
38.4005
 20
-37.8608
 11
38.2902
 21
-37.8846
  0
LINE
  8
0
 10
38.2902
 20
-37.8846
 11
38.1781
 21
-37.8976
  0
LINE
  8
0
 10
38.1781
 20
-37.8976
 11
38.0653
 21
-37.8994
  0
LINE
  8
0
 10
38.0653
 20
-37.8994
 11
37.9528
 21
-37.8902
  0
LINE
  8
0
 10
45.8219
 20
-37.8976
 11
45.7098
 21
-37.8846
  0
LINE
  8
0
 10
45.7098
 20
-37.8846
 11
45.5995
 21
-37.8608
  0
LINE
  8
0
 10
45.5995
 20
-37.8608
 11
45.492
 21
-37.8263
  0
LINE
  8
0
 10
45.492
 20
-37.8263
 11
45.3885
 21
-37.7814
  0
LINE
  8
0
 10
45.3885
 20
-37.7814
 11
45.2898
 21
-37.7266
  0
LINE
  8
0
 10
45.2898
 20
-37.7266
 11
45.197
 21
-37.6624
  0
LINE
  8
0
 10
45.197
 20
-37.6624
 11
45.111
 21
-37.5894
  0
LINE
  8
0
 10
45.111
 20
-37.5894
 11
45.0325
 21
-37.5083
  0
LINE
  8
0
 10
45.0325
 20
-37.5083
 11
44.9623
 21
-37.4199
  0
LINE
  8
0
 10
44.9623
 20
-37.4199
 11
44.9012
 21
-37.325
  0
LINE
  8
0
 10
44.9012
 20
-37.325
 11
44.8496
 21
-37.2246
  0
LINE
  8
0
 10
44.8496
 20
-37.2246
 11
44.8081
 21
-37.1197
  0
LINE
  8
0
 10
44.8081
 20
-37.1197
 11
44.7771
 21
-37.0111
  0
LINE
  8
0
 10
44.7771
 20
-37.0111
 11
44.7569
 21
-36.9001
  0
LINE
  8
0
 10
44.7569
 20
-36.9001
 11
44.7477
 21
-36.7876
  0
LINE
  8
0
 10
44.7477
 20
-36.7876
 11
44.7496
 21
-36.6748
  0
LINE
  8
0
 10
44.7496
 20
-36.6748
 11
44.7625
 21
-36.5627
  0
LINE
  8
0
 10
44.7625
 20
-36.5627
 11
44.7863
 21
-36.4524
  0
LINE
  8
0
 10
44.7863
 20
-36.4524
 11
44.8208
 21
-36.3449
  0
LINE
  8
0
 10
44.8208
 20
-36.3449
 11
44.8657
 21
-36.2414
  0
LINE
  8
0
 10
44.8657
 20
-36.2414
 11
44.9205
 21
-36.1427
  0
LINE
  8
0
 10
44.9205
 20
-36.1427
 11
44.9848
 21
-36.0499
  0
LINE
  8
0
 10
44.9848
 20
-36.0499
 11
45.0578
 21
-35.9639
  0
LINE
  8
0
 10
45.0578
 20
-35.9639
 11
45.1389
 21
-35.8854
  0
LINE
  8
0
 10
45.1389
 20
-35.8854
 11
45.2273
 21
-35.8152
  0
LINE
  8
0
 10
45.2273
 20
-35.8152
 11
45.3221
 21
-35.7541
  0
LINE
  8
0
 10
45.3221
 20
-35.7541
 11
45.4225
 21
-35.7025
  0
LINE
  8
0
 10
45.4225
 20
-35.7025
 11
45.5275
 21
-35.661
  0
LINE
  8
0
 10
45.5275
 20
-35.661
 11
45.636
 21
-35.6301
  0
LINE
  8
0
 10
45.636
 20
-35.6301
 11
45.747
 21
-35.6098
  0
LINE
  8
0
 10
45.747
 20
-35.6098
 11
45.8595
 21
-35.6006
  0
LINE
  8
0
 10
45.8595
 20
-35.6006
 11
45.9723
 21
-35.6025
  0
LINE
  8
0
 10
45.9723
 20
-35.6025
 11
46.0844
 21
-35.6154
  0
LINE
  8
0
 10
46.0844
 20
-35.6154
 11
46.1947
 21
-35.6392
  0
LINE
  8
0
 10
46.1947
 20
-35.6392
 11
46.3022
 21
-35.6737
  0
LINE
  8
0
 10
46.3022
 20
-35.6737
 11
46.4057
 21
-35.7186
  0
LINE
  8
0
 10
46.4057
 20
-35.7186
 11
46.5044
 21
-35.7734
  0
LINE
  8
0
 10
46.5044
 20
-35.7734
 11
46.5972
 21
-35.8376
  0
LINE
  8
0
 10
46.5972
 20
-35.8376
 11
46.6832
 21
-35.9107
  0
LINE
  8
0
 10
46.6832
 20
-35.9107
 11
46.7617
 21
-35.9918
  0
LINE
  8
0
 10
46.7617
 20
-35.9918
 11
46.8319
 21
-36.0802
  0
LINE
  8
0
 10
46.8319
 20
-36.0802
 11
46.893
 21
-36.175
  0
LINE
  8
0
 10
46.893
 20
-36.175
 11
46.9446
 21
-36.2754
  0
LINE
  8
0
 10
46.9446
 20
-36.2754
 11
46.9861
 21
-36.3804
  0
LINE
  8
0
 10
46.9861
 20
-36.3804
 11
47.0171
 21
-36.4889
  0
LINE
  8
0
 10
47.0171
 20
-36.4889
 11
47.0373
 21
-36.5999
  0
LINE
  8
0
 10
47.0373
 20
-36.5999
 11
47.0465
 21
-36.7124
  0
LINE
  8
0
 10
47.0465
 20
-36.7124
 11
47.0446
 21
-36.8252
  0
LINE
  8
0
 10
47.0446
 20
-36.8252
 11
47.0318
 21
-36.9373
  0
LINE
  8
0
 10
47.0318
 20
-36.9373
 11
47.0079
 21
-37.0477
  0
LINE
  8
0
 10
47.0079
 20
-37.0477
 11
46.9734
 21
-37.1551
  0
LINE
  8
0
 10
46.9734
 20
-37.1551
 11
46.9285
 21
-37.2586
  0
LINE
  8
0
 10
46.9285
 20
-37.2586
 11
46.8737
 21
-37.3573
  0
LINE
  8
0
 10
46.8737
 20
-37.3573
 11
46.8095
 21
-37.4501
  0
LINE
  8
0
 10
46.8095
 20
-37.4501
 11
46.7365
 21
-37.5361
  0
LINE
  8
0
 10
46.7365
 20
-37.5361
 11
46.6553
 21
-37.6146
  0
LINE
  8
0
 10
46.6553
 20
-37.6146
 11
46.567
 21
-37.6848
  0
LINE
  8
0
 10
46.567
 20
-37.6848
 11
46.4721
 21
-37.7459
  0
LINE
  8
0
 10
46.4721
 20
-37.7459
 11
46.3717
 21
-37.7975
  0
LINE
  8
0
 10
46.3717
 20
-37.7975
 11
46.2668
 21
-37.839
  0
LINE
  8
0
 10
46.2668
 20
-37.839
 11
46.1582
 21
-37.87
  0
LINE
  8
0
 10
46.1582
 20
-37.87
 11
46.0472
 21
-37.8902
  0
LINE
  8
0
 10
46.0472
 20
-37.8902
 11
45.9347
 21
-37.8994
  0
LINE
  8
0
 10
45.9347
 20
-37.8994
 11
45.8219
 21
-37.8976
  0
LINE
  8
0
 10
-46.0472
 20
-37.8902
 11
-46.1582
 21
-37.87
  0
LINE
  8
0
 10
-46.1582
 20
-37.87
 11
-46.2668
 21
-37.839
  0
LINE
  8
0
 10
-46.2668
 20
-37.839
 11
-46.3717
 21
-37.7975
  0
LINE
  8
0
 10
-46.3717
 20
-37.7975
 11
-46.4721
 21
-37.7459
  0
LINE
  8
0
 10
-46.4721
 20
-37.7459
 11
-46.567
 21
-37.6848
  0
LINE
  8
0
 10
-46.567
 20
-37.6848
 11
-46.6553
 21
-37.6146
  0
LINE
  8
0
 10
-46.6553
 20
-37.6146
 11
-46.7365
 21
-37.5361
  0
LINE
  8
0
 10
-46.7365
 20
-37.5361
 11
-46.8095
 21
-37.4501
  0
LINE
  8
0
 10
-46.8095
 20
-37.4501
 11
-46.8737
 21
-37.3573
  0
LINE
  8
0
 10
-46.8737
 20
-37.3573
 11
-46.9285
 21
-37.2586
  0
LINE
  8
0
 10
-46.9285
 20
-37.2586
 11
-46.9734
 21
-37.1551
  0
LINE
  8
0
 10
-46.9734
 20
-37.1551
 11
-47.0079
 21
-37.0477
  0
LINE
  8
0
 10
-47.0079
 20
-37.0477
 11
-47.0318
 21
-36.9373
  0
LINE
  8
0
 10
-47.0318
 20
-36.9373
 11
-47.0446
 21
-36.8252
  0
LINE
  8
0
 10
-47.0446
 20
-36.8252
 11
-47.0465
 21
-36.7124
  0
LINE
  8
0
 10
-47.0465
 20
-36.7124
 11
-47.0373
 21
-36.5999
  0
LINE
  8
0
 10
-47.0373
 20
-36.5999
 11
-47.0171
 21
-36.4889
  0
LINE
  8
0
 10
-47.0171
 20
-36.4889
 11
-46.9861
 21
-36.3804
  0
LINE
  8
0
 10
-46.9861
 20
-36.3804
 11
-46.9446
 21
-36.2754
  0
LINE
  8
0
 10
-46.9446
 20
-36.2754
 11
-46.893
 21
-36.175
  0
LINE
  8
0
 10
-46.893
 20
-36.175
 11
-46.8319
 21
-36.0802
  0
LINE
  8
0
 10
-46.8319
 20
-36.0802
 11
-46.7617
 21
-35.9918
  0
LINE
  8
0
 10
-46.7617
 20
-35.9918
 11
-46.6832
 21
-35.9107
  0
LINE
  8
0
 10
-46.6832
 20
-35.9107
 11
-46.5972
 21
-35.8376
  0
LINE
  8
0
 10
-46.5972
 20
-35.8376
 11
-46.5044
 21
-35.7734
  0
LINE
  8
0
 10
-46.5044
 20
-35.7734
 11
-46.4057
 21
-35.7186
  0
LINE
  8
0
 10
-46.4057
 20
-35.7186
 11
-46.3022
 21
-35.6737
  0
LINE
  8
0
 10
-46.3022
 20
-35.6737
 11
-46.1947
 21
-35.6392
  0
LINE
  8
0
 10
-46.1947
 20
-35.6392
 11
-46.0844
 21
-35.6154
  0
LINE
  8
0
 10
-46.0844
 20
-35.6154
 11
-45.9723
 21
-35.6025
  0
LINE
  8
0
 10
-45.9723
 20
-35.6025
 11
-45.8595
 21
-35.6006
  0
LINE
  8
0
 10
-45.8595
 20
-35.6006
 11
-45.747
 21
-35.6098
  0
LINE
  8
0
 10
-45.747
 20
-35.6098
 11
-45.636
 21
-35.6301
  0
LINE
  8
0
 10
-45.636
 20
-35.6301
 11
-45.5275
 21
-35.661
  0
LINE
  8
0
 10
-45.5275
 20
-35.661
 11
-45.4225
 21
-35.7025
  0
LINE
  8
0
 10
-45.4225
 20
-35.7025
 11
-45.3221
 21
-35.7541
  0
LINE
  8
0
 10
-45.3221
 20
-35.7541
 11
-45.2273
 21
-35.8152
  0
LINE
  8
0
 10
-45.2273
 20
-35.8152
 11
-45.1389
 21
-35.8854
  0
LINE
  8
0
 10
-45.1389
 20
-35.8854
 11
-45.0578
 21
-35.9639
  0
LINE
  8
0
 10
-45.0578
 20
-35.9639
 11
-44.9848
 21
-36.0499
  0
LINE
  8
0
 10
-44.9848
 20
-36.0499
 11
-44.9205
 21
-36.1427
  0
LINE
  8
0
 10
-44.9205
 20
-36.1427
 11
-44.8657
 21
-36.2414
  0
LINE
  8
0
 10
-44.8657
 20
-36.2414
 11
-44.8208
 21
-36.3449
  0
LINE
  8
0
 10
-44.8208
 20
-36.3449
 11
-44.7863
 21
-36.4524
  0
LINE
  8
0
 10
-44.7863
 20
-36.4524
 11
-44.7625
 21
-36.5627
  0
LINE
  8
0
 10
-44.7625
 20
-36.5627
 11
-44.7496
 21
-36.6748
  0
LINE
  8
0
 10
-44.7496
 20
-36.6748
 11
-44.7477
 21
-36.7876
  0
LINE
  8
0
 10
-44.7477
 20
-36.7876
 11
-44.7569
 21
-36.9001
  0
LINE
  8
0
 10
-44.7569
 20
-36.9001
 11
-44.7771
 21
-37.0111
  0
LINE
  8
0
 10
-44.7771
 20
-37.0111
 11
-44.8081
 21
-37.1197
  0
LINE
  8
0
 10
-44.8081
 20
-37.1197
 11
-44.8496
 21
-37.2246
  0
LINE
  8
0
 10
-44.8496
 20
-37.2246
 11
-44.9012
 21
-37.325
  0
LINE
  8
0
 10
-44.9012
 20
-37.325
 11
-44.9623
 21
-37.4199
  0
LINE
  8
0
 10
-44.9623
 20
-37.4199
 11
-45.0325
 21
-37.5083
  0
LINE
  8
0
 10
-45.0325
 20
-37.5083
 11
-45.111
 21
-37.5894
  0
LINE
  8
0
 10
-45.111
 20
-37.5894
 11
-45.197
 21
-37.6624
  0
LINE
  8
0
 10
-45.197
 20
-37.6624
 11
-45.2898
 21
-37.7266
  0
LINE
  8
0
 10
-45.2898
 20
-37.7266
 11
-45.3885
 21
-37.7814
  0
LINE
  8
0
 10
-45.3885
 20
-37.7814
 11
-45.492
 21
-37.8263
  0
LINE
  8
0
 10
-45.492
 20
-37.8263
 11
-45.5995
 21
-37.8608
  0
LINE
  8
0
 10
-45.5995
 20
-37.8608
 11
-45.7098
 21
-37.8846
  0
LINE
  8
0
 10
-45.7098
 20
-37.8846
 11
-45.8219
 21
-37.8976
  0
LINE
  8
0
 10
-45.8219
 20
-37.8976
 11
-45.9347
 21
-37.8994
  0
LINE
  8
0
 10
-45.9347
 20
-37.8994
 11
-46.0472
 21
-37.8902
  0
LINE
  8
0
 10
-38.1781
 20
-37.8976
 11
-38.2902
 21
-37.8846
  0
LINE
  8
0
 10
-38.2902
 20
-37.8846
 11
-38.4005
 21
-37.8608
  0
LINE
  8
0
 10
-38.4005
 20
-37.8608
 11
-38.508
 21
-37.8263
  0
LINE
  8
0
 10
-38.508
 20
-37.8263
 11
-38.6115
 21
-37.7814
  0
LINE
  8
0
 10
-38.6115
 20
-37.7814
 11
-38.7102
 21
-37.7266
  0
LINE
  8
0
 10
-38.7102
 20
-37.7266
 11
-38.803
 21
-37.6624
  0
LINE
  8
0
 10
-38.803
 20
-37.6624
 11
-38.889
 21
-37.5894
  0
LINE
  8
0
 10
-38.889
 20
-37.5894
 11
-38.9675
 21
-37.5083
  0
LINE
  8
0
 10
-38.9675
 20
-37.5083
 11
-39.0377
 21
-37.4199
  0
LINE
  8
0
 10
-39.0377
 20
-37.4199
 11
-39.0988
 21
-37.325
  0
LINE
  8
0
 10
-39.0988
 20
-37.325
 11
-39.1504
 21
-37.2246
  0
LINE
  8
0
 10
-39.1504
 20
-37.2246
 11
-39.1919
 21
-37.1197
  0
LINE
  8
0
 10
-39.1919
 20
-37.1197
 11
-39.2229
 21
-37.0111
  0
LINE
  8
0
 10
-39.2229
 20
-37.0111
 11
-39.2431
 21
-36.9001
  0
LINE
  8
0
 10
-39.2431
 20
-36.9001
 11
-39.2523
 21
-36.7876
  0
LINE
  8
0
 10
-39.2523
 20
-36.7876
 11
-39.2504
 21
-36.6748
  0
LINE
  8
0
 10
-39.2504
 20
-36.6748
 11
-39.2375
 21
-36.5627
  0
LINE
  8
0
 10
-39.2375
 20
-36.5627
 11
-39.2137
 21
-36.4524
  0
LINE
  8
0
 10
-39.2137
 20
-36.4524
 11
-39.1792
 21
-36.3449
  0
LINE
  8
0
 10
-39.1792
 20
-36.3449
 11
-39.1343
 21
-36.2414
  0
LINE
  8
0
 10
-39.1343
 20
-36.2414
 11
-39.0795
 21
-36.1427
  0
LINE
  8
0
 10
-39.0795
 20
-36.1427
 11
-39.0152
 21
-36.0499
  0
LINE
  8
0
 10
-39.0152
 20
-36.0499
 11
-38.9422
 21
-35.9639
  0
LINE
  8
0
 10
-38.9422
 20
-35.9639
 11
-38.8611
 21
-35.8854
  0
LINE
  8
0
 10
-38.8611
 20
-35.8854
 11
-38.7727
 21
-35.8152
  0
LINE
  8
0
 10
-38.7727
 20
-35.8152
 11
-38.6779
 21
-35.7541
  0
LINE
  8
0
 10
-38.6779
 20
-35.7541
 11
-38.5775
 21
-35.7025
  0
LINE
  8
0
 10
-38.5775
 20
-35.7025
 11
-38.4725
 21
-35.661
  0
LINE
  8
0
 10
-38.4725
 20
-35.661
 11
-38.364
 21
-35.6301
  0
LINE
  8
0
 10
-38.364
 20
-35.6301
 11
-38.253
 21
-35.6098
  0
LINE
  8
0
 10
-38.253
 20
-35.6098
 11
-38.1405
 21
-35.6006
  0
LINE
  8
0
 10
-38.1405
 20
-35.6006
 11
-38.0277
 21
-35.6025
  0
LINE
  8
0
 10
-38.0277
 20
-35.6025
 11
-37.9156
 21
-35.6154
  0
LINE
  8
0
 10
-37.9156
 20
-35.6154
 11
-37.8053
 21
-35.6392
  0
LINE
  8
0
 10
-37.8053
 20
-35.6392
 11
-37.6978
 21
-35.6737
  0
LINE
  8
0
 10
-37.6978
 20
-35.6737
 11
-37.5943
 21
-35.7186
  0
LINE
  8
0
 10
-37.5943
 20
-35.7186
 11
-37.4956
 21
-35.7734
  0
LINE
  8
0
 10
-37.4956
 20
-35.7734
 11
-37.4028
 21
-35.8376
  0
LINE
  8
0
 10
-37.4028
 20
-35.8376
 11
-37.3168
 21
-35.9107
  0
LINE
  8
0
 10
-37.3168
 20
-35.9107
 11
-37.2383
 21
-35.9918
  0
LINE
  8
0
 10
-37.2383
 20
-35.9918
 11
-37.1681
 21
-36.0802
  0
LINE
  8
0
 10
-37.1681
 20
-36.0802
 11
-37.107
 21
-36.175
  0
LINE
  8
0
 10
-37.107
 20
-36.175
 11
-37.0554
 21
-36.2754
  0
LINE
  8
0
 10
-37.0554
 20
-36.2754
 11
-37.0139
 21
-36.3804
  0
LINE
  8
0
 10
-37.0139
 20
-36.3804
 11
-36.9829
 21
-36.4889
  0
LINE
  8
0
 10
-36.9829
 20
-36.4889
 11
-36.9627
 21
-36.5999
  0
LINE
  8
0
 10
-36.9627
 20
-36.5999
 11
-36.9535
 21
-36.7124
  0
LINE
  8
0
 10
-36.9535
 20
-36.7124
 11
-36.9554
 21
-36.8252
  0
LINE
  8
0
 10
-36.9554
 20
-36.8252
 11
-36.9682
 21
-36.9373
  0
LINE
  8
0
 10
-36.9682
 20
-36.9373
 11
-36.9921
 21
-37.0477
  0
LINE
  8
0
 10
-36.9921
 20
-37.0477
 11
-37.0266
 21
-37.1551
  0
LINE
  8
0
 10
-37.0266
 20
-37.1551
 11
-37.0715
 21
-37.2586
  0
LINE
  8
0
 10
-37.0715
 20
-37.2586
 11
-37.1263
 21
-37.3573
  0
LINE
  8
0
 10
-37.1263
 20
-37.3573
 11
-37.1905
 21
-37.4501
  0
LINE
  8
0
 10
-37.1905
 20
-37.4501
 11
-37.2635
 21
-37.5361
  0
LINE
  8
0
 10
-37.2635
 20
-37.5361
 11
-37.3447
 21
-37.6146
  0
LINE
  8
0
 10
-37.3447
 20
-37.6146
 11
-37.433
 21
-37.6848
  0
LINE
  8
0
 10
-37.433
 20
-37.6848
 11
-37.5279
 21
-37.7459
  0
LINE
  8
0
 10
-37.5279
 20
-37.7459
 11
-37.6283
 21
-37.7975
  0
LINE
  8
0
 10
-37.6283
 20
-37.7975
 11
-37.7332
 21
-37.839
  0
LINE
  8
0
 10
-37.7332
 20
-37.839
 11
-37.8418
 21
-37.87
  0
LINE
  8
0
 10
-37.8418
 20
-37.87
 11
-37.9528
 21
-37.8902
  0
LINE
  8
0
 10
-37.9528
 20
-37.8902
 11
-38.0653
 21
-37.8994
  0
LINE
  8
0
 10
-38.0653
 20
-37.8994
 11
-38.1781
 21
-37.8976
  0
LINE
  8
0
 10
41.755
 20
-41.488
 11
41.5123
 21
-41.452
  0
LINE
  8
0
 10
41.5123
 20
-41.452
 11
41.2743
 21
-41.3923
  0
LINE
  8
0
 10
41.2743
 20
-41.3923
 11
41.0433
 21
-41.3097
  0
LINE
  8
0
 10
41.0433
 20
-41.3097
 11
40.8215
 21
-41.2048
  0
LINE
  8
0
 10
40.8215
 20
-41.2048
 11
40.6111
 21
-41.0787
  0
LINE
  8
0
 10
40.6111
 20
-41.0787
 11
40.414
 21
-40.9325
  0
LINE
  8
0
 10
40.414
 20
-40.9325
 11
40.2322
 21
-40.7678
  0
LINE
  8
0
 10
40.2322
 20
-40.7678
 11
40.0675
 21
-40.586
  0
LINE
  8
0
 10
40.0675
 20
-40.586
 11
39.9213
 21
-40.3889
  0
LINE
  8
0
 10
39.9213
 20
-40.3889
 11
39.7952
 21
-40.1785
  0
LINE
  8
0
 10
39.7952
 20
-40.1785
 11
39.6903
 21
-39.9567
  0
LINE
  8
0
 10
39.6903
 20
-39.9567
 11
39.6077
 21
-39.7257
  0
LINE
  8
0
 10
39.6077
 20
-39.7257
 11
39.548
 21
-39.4877
  0
LINE
  8
0
 10
39.548
 20
-39.4877
 11
39.512
 21
-39.245
  0
LINE
  8
0
 10
39.512
 20
-39.245
 11
39.5
 21
-39
  0
LINE
  8
0
 10
39.5
 20
-39
 11
39.512
 21
-38.755
  0
LINE
  8
0
 10
39.512
 20
-38.755
 11
39.548
 21
-38.5123
  0
LINE
  8
0
 10
39.548
 20
-38.5123
 11
39.6077
 21
-38.2743
  0
LINE
  8
0
 10
39.6077
 20
-38.2743
 11
39.6903
 21
-38.0433
  0
LINE
  8
0
 10
39.6903
 20
-38.0433
 11
39.7952
 21
-37.8215
  0
LINE
  8
0
 10
39.7952
 20
-37.8215
 11
39.9213
 21
-37.6111
  0
LINE
  8
0
 10
39.9213
 20
-37.6111
 11
40.0675
 21
-37.414
  0
LINE
  8
0
 10
40.0675
 20
-37.414
 11
40.2322
 21
-37.2322
  0
LINE
  8
0
 10
40.2322
 20
-37.2322
 11
40.414
 21
-37.0675
  0
LINE
  8
0
 10
40.414
 20
-37.0675
 11
40.6111
 21
-36.9213
  0
LINE
  8
0
 10
40.6111
 20
-36.9213
 11
40.8215
 21
-36.7952
  0
LINE
  8
0
 10
40.8215
 20
-36.7952
 11
41.0433
 21
-36.6903
  0
LINE
  8
0
 10
41.0433
 20
-36.6903
 11
41.2743
 21
-36.6077
  0
LINE
  8
0
 10
41.2743
 20
-36.6077
 11
41.5123
 21
-36.548
  0
LINE
  8
0
 10
41.5123
 20
-36.548
 11
41.755
 21
-36.512
  0
LINE
  8
0
 10
41.755
 20
-36.512
 11
42
 21
-36.5
  0
LINE
  8
0
 10
42
 20
-36.5
 11
42.245
 21
-36.512
  0
LINE
  8
0
 10
42.245
 20
-36.512
 11
42.4877
 21
-36.548
  0
LINE
  8
0
 10
42.4877
 20
-36.548
 11
42.7257
 21
-36.6077
  0
LINE
  8
0
 10
42.7257
 20
-36.6077
 11
42.9567
 21
-36.6903
  0
LINE
  8
0
 10
42.9567
 20
-36.6903
 11
43.1785
 21
-36.7952
  0
LINE
  8
0
 10
43.1785
 20
-36.7952
 11
43.3889
 21
-36.9213
  0
LINE
  8
0
 10
43.3889
 20
-36.9213
 11
43.586
 21
-37.0675
  0
LINE
  8
0
 10
43.586
 20
-37.0675
 11
43.7678
 21
-37.2322
  0
LINE
  8
0
 10
43.7678
 20
-37.2322
 11
43.9325
 21
-37.414
  0
LINE
  8
0
 10
43.9325
 20
-37.414
 11
44.0787
 21
-37.6111
  0
LINE
  8
0
 10
44.0787
 20
-37.6111
 11
44.2048
 21
-37.8215
  0
LINE
  8
0
 10
44.2048
 20
-37.8215
 11
44.3097
 21
-38.0433
  0
LINE
  8
0
 10
44.3097
 20
-38.0433
 11
44.3923
 21
-38.2743
  0
LINE
  8
0
 10
44.3923
 20
-38.2743
 11
44.452
 21
-38.5123
  0
LINE
  8
0
 10
44.452
 20
-38.5123
 11
44.488
 21
-38.755
  0
LINE
  8
0
 10
44.488
 20
-38.755
 11
44.5
 21
-39
  0
LINE
  8
0
 10
44.5
 20
-39
 11
44.488
 21
-39.245
  0
LINE
  8
0
 10
44.488
 20
-39.245
 11
44.452
 21
-39.4877
  0
LINE
  8
0
 10
44.452
 20
-39.4877
 11
44.3923
 21
-39.7257
  0
LINE
  8
0
 10
44.3923
 20
-39.7257
 11
44.3097
 21
-39.9567
  0
LINE
  8
0
 10
44.3097
 20
-39.9567
 11
44.2048
 21
-40.1785
  0
LINE
  8
0
 10
44.2048
 20
-40.1785
 11
44.0787
 21
-40.3889
  0
LINE
  8
0
 10
44.0787
 20
-40.3889
 11
43.9325
 21
-40.586
  0
LINE
  8
0
 10
43.9325
 20
-40.586
 11
43.7678
 21
-40.7678
  0
LINE
  8
0
 10
43.7678
 20
-40.7678
 11
43.586
 21
-40.9325
  0
LINE
  8
0
 10
43.586
 20
-40.9325
 11
43.3889
 21
-41.0787
  0
LINE
  8
0
 10
43.3889
 20
-41.0787
 11
43.1785
 21
-41.2048
  0
LINE
  8
0
 10
43.1785
 20
-41.2048
 11
42.9567
 21
-41.3097
  0
LINE
  8
0
 10
42.9567
 20
-41.3097
 11
42.7257
 21
-41.3923
  0
LINE
  8
0
 10
42.7257
 20
-41.3923
 11
42.4877
 21
-41.452
  0
LINE
  8
0
 10
42.4877
 20
-41.452
 11
42.245
 21
-41.488
  0
LINE
  8
0
 10
42.245
 20
-41.488
 11
42
 21
-41.5
  0
LINE
  8
0
 10
42
 20
-41.5
 11
41.755
 21
-41.488
  0
LINE
  8
0
 10
-42.245
 20
-41.488
 11
-42.4877
 21
-41.452
  0
LINE
  8
0
 10
-42.4877
 20
-41.452
 11
-42.7257
 21
-41.3923
  0
LINE
  8
0
 10
-42.7257
 20
-41.3923
 11
-42.9567
 21
-41.3097
  0
LINE
  8
0
 10
-42.9567
 20
-41.3097
 11
-43.1785
 21
-41.2048
  0
LINE
  8
0
 10
-43.1785
 20
-41.2048
 11
-43.3889
 21
-41.0787
  0
LINE
  8
0
 10
-43.3889
 20
-41.0787
 11
-43.586
 21
-40.9325
  0
LINE
  8
0
 10
-43.586
 20
-40.9325
 11
-43.7678
 21
-40.7678
  0
LINE
  8
0
 10
-43.7678
 20
-40.7678
 11
-43.9325
 21
-40.586
  0
LINE
  8
0
 10
-43.9325
 20
-40.586
 11
-44.0787
 21
-40.3889
  0
LINE
  8
0
 10
-44.0787
 20
-40.3889
 11
-44.2048
 21
-40.1785
  0
LINE
  8
0
 10
-44.2048
 20
-40.1785
 11
-44.3097
 21
-39.9567
  0
LINE
  8
0
 10
-44.3097
 20
-39.9567
 11
-44.3923
 21
-39.7257
  0
LINE
  8
0
 10
-44.3923
 20
-39.7257
 11
-44.452
 21
-39.4877
  0
LINE
  8
0
 10
-44.452
 20
-39.4877
 11
-44.488
 21
-39.245
  0
LINE
  8
0
 10
-44.488
 20
-39.245
 11
-44.5
 21
-39
  0
LINE
  8
0
 10
-44.5
 20
-39
 11
-44.488
 21
-38.755
  0
LINE
  8
0
 10
-44.488
 20
-38.755
 11
-44.452
 21
-38.5123
  0
LINE
  8
0
 10
-44.452
 20
-38.5123
 11
-44.3923
 21
-38.2743
  0
LINE
  8
0
 10
-44.3923
 20
-38.2743
 11
-44.3097
 21
-38.0433
  0
LINE
  8
0
 10
-44.3097
 20
-38.0433
 11
-44.2048
 21
-37.8215
  0
LINE
  8
0
 10
-44.2048
 20
-37.8215
 11
-44.0787
 21
-37.6111
  0
LINE
  8
0
 10
-44.0787
 20
-37.6111
 11
-43.9325
 21
-37.414
  0
LINE
  8
0
 10
-43.9325
 20
-37.414
 11
-43.7678
 21
-37.2322
  0
LINE
  8
0
 10
-43.7678
 20
-37.2322
 11
-43.586
 21
-37.0675
  0
LINE
  8
0
 10
-43.586
 20
-37.0675
 11
-43.3889
 21
-36.9213
  0
LINE
  8
0
 10
-43.3889
 20
-36.9213
 11
-43.1785
 21
-36.7952
  0
LINE
  8
0
 10
-43.1785
 20
-36.7952
 11
-42.9567
 21
-36.6903
  0
LINE
  8
0
 10
-42.9567
 20
-36.6903
 11
-42.7257
 21
-36.6077
  0
LINE
  8
0
 10
-42.7257
 20
-36.6077
 11
-42.4877
 21
-36.548
  0
LINE
  8
0
 10
-42.4877
 20
-36.548
 11
-42.245
 21
-36.512
  0
LINE
  8
0
 10
-42.245
 20
-36.512
 11
-42
 21
-36.5
  0
LINE
  8
0
 10
-42
 20
-36.5
 11
-41.755
 21
-36.512
  0
LINE
  8
0
 10
-41.755
 20
-36.512
 11
-41.5123
 21
-36.548
  0
LINE
  8
0
 10
-41.5123
 20
-36.548
 11
-41.2743
 21
-36.6077
  0
LINE
  8
0
 10
-41.2743
 20
-36.6077
 11
-41.0433
 21
-36.6903
  0
LINE
  8
0
 10
-41.0433
 20
-36.6903
 11
-40.8215
 21
-36.7952
  0
LINE
  8
0
 10
-40.8215
 20
-36.7952
 11
-40.6111
 21
-36.9213
  0
LINE
  8
0
 10
-40.6111
 20
-36.9213
 11
-40.414
 21
-37.0675
  0
LINE
  8
0
 10
-40.414
 20
-37.0675
 11
-40.2322
 21
-37.2322
  0
LINE
  8
0
 10
-40.2322
 20
-37.2322
 11
-40.0675
 21
-37.414
  0
LINE
  8
0
 10
-40.0675
 20
-37.414
 11
-39.9213
 21
-37.6111
  0
LINE
  8
0
 10
-39.9213
 20
-37.6111
 11
-39.7952
 21
-37.8215
  0
LINE
  8
0
 10
-39.7952
 20
-37.8215
 11
-39.6903
 21
-38.0433
  0
LINE
  8
0
 10
-39.6903
 20
-38.0433
 11
-39.6077
 21
-38.2743
  0
LINE
  8
0
 10
-39.6077
 20
-38.2743
 11
-39.548
 21
-38.5123
  0
LINE
  8
0
 10
-39.548
 20
-38.5123
 11
-39.512
 21
-38.755
  0
LINE
  8
0
 10
-39.512
 20
-38.755
 11
-39.5
 21
-39
  0
LINE
  8
0
 10
-39.5
 20
-39
 11
-39.512
 21
-39.245
  0
LINE
  8
0
 10
-39.512
 20
-39.245
 11
-39.548
 21
-39.4877
  0
LINE
  8
0
 10
-39.548
 20
-39.4877
 11
-39.6077
 21
-39.7257
  0
LINE
  8
0
 10
-39.6077
 20
-39.7257
 11
-39.6903
 21
-39.9567
  0
LINE
  8
0
 10
-39.6903
 20
-39.9567
 11
-39.7952
 21
-40.1785
  0
LINE
  8
0
 10
-39.7952
 20
-40.1785
 11
-39.9213
 21
-40.3889
  0
LINE
  8
0
 10
-39.9213
 20
-40.3889
 11
-40.0675
 21
-40.586
  0
LINE
  8
0
 10
-40.0675
 20
-40.586
 11
-40.2322
 21
-40.7678
  0
LINE
  8
0
 10
-40.2322
 20
-40.7678
 11
-40.414
 21
-40.9325
  0
LINE
  8
0
 10
-40.414
 20
-40.9325
 11
-40.6111
 21
-41.0787
  0
LINE
  8
0
 10
-40.6111
 20
-41.0787
 11
-40.8215
 21
-41.2048
  0
LINE
  8
0
 10
-40.8215
 20
-41.2048
 11
-41.0433
 21
-41.3097
  0
LINE
  8
0
 10
-41.0433
 20
-41.3097
 11
-41.2743
 21
-41.3923
  0
LINE
  8
0
 10
-41.2743
 20
-41.3923
 11
-41.5123
 21
-41.452
  0
LINE
  8
0
 10
-41.5123
 20
-41.452
 11
-41.755
 21
-41.488
  0
LINE
  8
0
 10
-41.755
 20
-41.488
 11
-42
 21
-41.5
  0
LINE
  8
0
 10
-42
 20
-41.5
 11
-42.245
 21
-41.488
  0
LINE
  8
0
 10
41.8873
 20
-44.6445
 11
41.7757
 21
-44.6279
  0
LINE
  8
0
 10
41.7757
 20
-44.6279
 11
41.6662
 21
-44.6005
  0
LINE
  8
0
 10
41.6662
 20
-44.6005
 11
41.5599
 21
-44.5625
  0
LINE
  8
0
 10
41.5599
 20
-44.5625
 11
41.4579
 21
-44.5142
  0
LINE
  8
0
 10
41.4579
 20
-44.5142
 11
41.3611
 21
-44.4562
  0
LINE
  8
0
 10
41.3611
 20
-44.4562
 11
41.2705
 21
-44.389
  0
LINE
  8
0
 10
41.2705
 20
-44.389
 11
41.1868
 21
-44.3132
  0
LINE
  8
0
 10
41.1868
 20
-44.3132
 11
41.111
 21
-44.2295
  0
LINE
  8
0
 10
41.111
 20
-44.2295
 11
41.0438
 21
-44.1389
  0
LINE
  8
0
 10
41.0438
 20
-44.1389
 11
40.9858
 21
-44.0421
  0
LINE
  8
0
 10
40.9858
 20
-44.0421
 11
40.9375
 21
-43.9401
  0
LINE
  8
0
 10
40.9375
 20
-43.9401
 11
40.8995
 21
-43.8338
  0
LINE
  8
0
 10
40.8995
 20
-43.8338
 11
40.8721
 21
-43.7243
  0
LINE
  8
0
 10
40.8721
 20
-43.7243
 11
40.8555
 21
-43.6127
  0
LINE
  8
0
 10
40.8555
 20
-43.6127
 11
40.85
 21
-43.5
  0
LINE
  8
0
 10
40.85
 20
-43.5
 11
40.8555
 21
-43.3873
  0
LINE
  8
0
 10
40.8555
 20
-43.3873
 11
40.8721
 21
-43.2756
  0
LINE
  8
0
 10
40.8721
 20
-43.2756
 11
40.8995
 21
-43.1662
  0
LINE
  8
0
 10
40.8995
 20
-43.1662
 11
40.9375
 21
-43.0599
  0
LINE
  8
0
 10
40.9375
 20
-43.0599
 11
40.9858
 21
-42.9579
  0
LINE
  8
0
 10
40.9858
 20
-42.9579
 11
41.0438
 21
-42.8611
  0
LINE
  8
0
 10
41.0438
 20
-42.8611
 11
41.111
 21
-42.7704
  0
LINE
  8
0
 10
41.111
 20
-42.7704
 11
41.1868
 21
-42.6868
  0
LINE
  8
0
 10
41.1868
 20
-42.6868
 11
41.2705
 21
-42.611
  0
LINE
  8
0
 10
41.2705
 20
-42.611
 11
41.3611
 21
-42.5438
  0
LINE
  8
0
 10
41.3611
 20
-42.5438
 11
41.4579
 21
-42.4858
  0
LINE
  8
0
 10
41.4579
 20
-42.4858
 11
41.5599
 21
-42.4375
  0
LINE
  8
0
 10
41.5599
 20
-42.4375
 11
41.6662
 21
-42.3995
  0
LINE
  8
0
 10
41.6662
 20
-42.3995
 11
41.7757
 21
-42.3721
  0
LINE
  8
0
 10
41.7757
 20
-42.3721
 11
41.8873
 21
-42.3555
  0
LINE
  8
0
 10
41.8873
 20
-42.3555
 11
42
 21
-42.35
  0
LINE
  8
0
 10
42
 20
-42.35
 11
42.1127
 21
-42.3555
  0
LINE
  8
0
 10
42.1127
 20
-42.3555
 11
42.2243
 21
-42.3721
  0
LINE
  8
0
 10
42.2243
 20
-42.3721
 11
42.3338
 21
-42.3995
  0
LINE
  8
0
 10
42.3338
 20
-42.3995
 11
42.4401
 21
-42.4375
  0
LINE
  8
0
 10
42.4401
 20
-42.4375
 11
42.5421
 21
-42.4858
  0
LINE
  8
0
 10
42.5421
 20
-42.4858
 11
42.6389
 21
-42.5438
  0
LINE
  8
0
 10
42.6389
 20
-42.5438
 11
42.7295
 21
-42.611
  0
LINE
  8
0
 10
42.7295
 20
-42.611
 11
42.8132
 21
-42.6868
  0
LINE
  8
0
 10
42.8132
 20
-42.6868
 11
42.889
 21
-42.7704
  0
LINE
  8
0
 10
42.889
 20
-42.7704
 11
42.9562
 21
-42.8611
  0
LINE
  8
0
 10
42.9562
 20
-42.8611
 11
43.0142
 21
-42.9579
  0
LINE
  8
0
 10
43.0142
 20
-42.9579
 11
43.0625
 21
-43.0599
  0
LINE
  8
0
 10
43.0625
 20
-43.0599
 11
43.1005
 21
-43.1662
  0
LINE
  8
0
 10
43.1005
 20
-43.1662
 11
43.1279
 21
-43.2756
  0
LINE
  8
0
 10
43.1279
 20
-43.2756
 11
43.1445
 21
-43.3873
  0
LINE
  8
0
 10
43.1445
 20
-43.3873
 11
43.15
 21
-43.5
  0
LINE
  8
0
 10
43.15
 20
-43.5
 11
43.1445
 21
-43.6127
  0
LINE
  8
0
 10
43.1445
 20
-43.6127
 11
43.1279
 21
-43.7243
  0
LINE
  8
0
 10
43.1279
 20
-43.7243
 11
43.1005
 21
-43.8338
  0
LINE
  8
0
 10
43.1005
 20
-43.8338
 11
43.0625
 21
-43.9401
  0
LINE
  8
0
 10
43.0625
 20
-43.9401
 11
43.0142
 21
-44.0421
  0
LINE
  8
0
 10
43.0142
 20
-44.0421
 11
42.9562
 21
-44.1389
  0
LINE
  8
0
 10
42.9562
 20
-44.1389
 11
42.889
 21
-44.2295
  0
LINE
  8
0
 10
42.889
 20
-44.2295
 11
42.8132
 21
-44.3132
  0
LINE
  8
0
 10
42.8132
 20
-44.3132
 11
42.7295
 21
-44.389
  0
LINE
  8
0
 10
42.7295
 20
-44.389
 11
42.6389
 21
-44.4562
  0
LINE
  8
0
 10
42.6389
 20
-44.4562
 11
42.5421
 21
-44.5142
  0
LINE
  8
0
 10
42.5421
 20
-44.5142
 11
42.4401
 21
-44.5625
  0
LINE
  8
0
 10
42.4401
 20
-44.5625
 11
42.3338
 21
-44.6005
  0
LINE
  8
0
 10
42.3338
 20
-44.6005
 11
42.2243
 21
-44.6279
  0
LINE
  8
0
 10
42.2243
 20
-44.6279
 11
42.1127
 21
-44.6445
  0
LINE
  8
0
 10
42.1127
 20
-44.6445
 11
42
 21
-44.65
  0
LINE
  8
0
 10
42
 20
-44.65
 11
41.8873
 21
-44.6445
  0
LINE
  8
0
 10
-42.1127
 20
-44.6445
 11
-42.2243
 21
-44.6279
  0
LINE
  8
0
 10
-42.2243
 20
-44.6279
 11
-42.3338
 21
-44.6005
  0
LINE
  8
0
 10
-42.3338
 20
-44.6005
 11
-42.4401
 21
-44.5625
  0
LINE
  8
0
 10
-42.4401
 20
-44.5625
 11
-42.5421
 21
-44.5142
  0
LINE
  8
0
 10
-42.5421
 20
-44.5142
 11
-42.6389
 21
-44.4562
  0
LINE
  8
0
 10
-42.6389
 20
-44.4562
 11
-42.7295
 21
-44.389
  0
LINE
  8
0
 10
-42.7295
 20
-44.389
 11
-42.8132
 21
-44.3132
  0
LINE
  8
0
 10
-42.8132
 20
-44.3132
 11
-42.889
 21
-44.2295
  0
LINE
  8
0
 10
-42.889
 20
-44.2295
 11
-42.9562
 21
-44.1389
  0
LINE
  8
0
 10
-42.9562
 20
-44.1389
 11
-43.0142
 21
-44.0421
  0
LINE
  8
0
 10
-43.0142
 20
-44.0421
 11
-43.0625
 21
-43.9401
  0
LINE
  8
0
 10
-43.0625
 20
-43.9401
 11
-43.1005
 21
-43.8338
  0
LINE
  8
0
 10
-43.1005
 20
-43.8338
 11
-43.1279
 21
-43.7243
  0
LINE
  8
0
 10
-43.1279
 20
-43.7243
 11
-43.1445
 21
-43.6127
  0
LINE
  8
0
 10
-43.1445
 20
-43.6127
 11
-43.15
 21
-43.5
  0
LINE
  8
0
 10
-43.15
 20
-43.5
 11
-43.1445
 21
-43.3873
  0
LINE
  8
0
 10
-43.1445
 20
-43.3873
 11
-43.1279
 21
-43.2756
  0
LINE
  8
0
 10
-43.1279
 20
-43.2756
 11
-43.1005
 21
-43.1662
  0
LINE
  8
0
 10
-43.1005
 20
-43.1662
 11
-43.0625
 21
-43.0599
  0
LINE
  8
0
 10
-43.0625
 20
-43.0599
 11
-43.0142
 21
-42.9579
  0
LINE
  8
0
 10
-43.0142
 20
-42.9579
 11
-42.9562
 21
-42.8611
  0
LINE
  8
0
 10
-42.9562
 20
-42.8611
 11
-42.889
 21
-42.7704
  0
LINE
  8
0
 10
-42.889
 20
-42.7704
 11
-42.8132
 21
-42.6868
  0
LINE
  8
0
 10
-42.8132
 20
-42.6868
 11
-42.7295
 21
-42.611
  0
LINE
  8
0
 10
-42.7295
 20
-42.611
 11
-42.6389
 21
-42.5438
  0
LINE
  8
0
 10
-42.6389
 20
-42.5438
 11
-42.5421
 21
-42.4858
  0
LINE
  8
0
 10
-42.5421
 20
-42.4858
 11
-42.4401
 21
-42.4375
  0
LINE
  8
0
 10
-42.4401
 20
-42.4375
 11
-42.3338
 21
-42.3995
  0
LINE
  8
0
 10
-42.3338
 20
-42.3995
 11
-42.2243
 21
-42.3721
  0
LINE
  8
0
 10
-42.2243
 20
-42.3721
 11
-42.1127
 21
-42.3555
  0
LINE
  8
0
 10
-42.1127
 20
-42.3555
 11
-42
 21
-42.35
  0
LINE
  8
0
 10
-42
 20
-42.35
 11
-41.8873
 21
-42.3555
  0
LINE
  8
0
 10
-41.8873
 20
-42.3555
 11
-41.7757
 21
-42.3721
  0
LINE
  8
0
 10
-41.7757
 20
-42.3721
 11
-41.6662
 21
-42.3995
  0
LINE
  8
0
 10
-41.6662
 20
-42.3995
 11
-41.5599
 21
-42.4375
  0
LINE
  8
0
 10
-41.5599
 20
-42.4375
 11
-41.4579
 21
-42.4858
  0
LINE
  8
0
 10
-41.4579
 20
-42.4858
 11
-41.3611
 21
-42.5438
  0
LINE
  8
0
 10
-41.3611
 20
-42.5438
 11
-41.2705
 21
-42.611
  0
LINE
  8
0
 10
-41.2705
 20
-42.611
 11
-41.1868
 21
-42.6868
  0
LINE
  8
0
 10
-41.1868
 20
-42.6868
 11
-41.111
 21
-42.7704
  0
LINE
  8
0
 10
-41.111
 20
-42.7704
 11
-41.0438
 21
-42.8611
  0
LINE
  8
0
 10
-41.0438
 20
-42.8611
 11
-40.9858
 21
-42.9579
  0
LINE
  8
0
 10
-40.9858
 20
-42.9579
 11
-40.9375
 21
-43.0599
  0
LINE
  8
0
 10
-40.9375
 20
-43.0599
 11
-40.8995
 21
-43.1662
  0
LINE
  8
0
 10
-40.8995
 20
-43.1662
 11
-40.8721
 21
-43.2756
  0
LINE
  8
0
 10
-40.8721
 20
-43.2756
 11
-40.8555
 21
-43.3873
  0
LINE
  8
0
 10
-40.8555
 20
-43.3873
 11
-40.85
 21
-43.5
  0
LINE
  8
0
 10
-40.85
 20
-43.5
 11
-40.8555
 21
-43.6127
  0
LINE
  8
0
 10
-40.8555
 20
-43.6127
 11
-40.8721
 21
-43.7243
  0
LINE
  8
0
 10
-40.8721
 20
-43.7243
 11
-40.8995
 21
-43.8338
  0
LINE
  8
0
 10
-40.8995
 20
-43.8338
 11
-40.9375
 21
-43.9401
  0
LINE
  8
0
 10
-40.9375
 20
-43.9401
 11
-40.9858
 21
-44.0421
  0
LINE
  8
0
 10
-40.9858
 20
-44.0421
 11
-41.0438
 21
-44.1389
  0
LINE
  8
0
 10
-41.0438
 20
-44.1389
 11
-41.111
 21
-44.2295
  0
LINE
  8
0
 10
-41.111
 20
-44.2295
 11
-41.1868
 21
-44.3132
  0
LINE
  8
0
 10
-41.1868
 20
-44.3132
 11
-41.2705
 21
-44.389
  0
LINE
  8
0
 10
-41.2705
 20
-44.389
 11
-41.3611
 21
-44.4562
  0
LINE
  8
0
 10
-41.3611
 20
-44.4562
 11
-41.4579
 21
-44.5142
  0
LINE
  8
0
 10
-41.4579
 20
-44.5142
 11
-41.5599
 21
-44.5625
  0
LINE
  8
0
 10
-41.5599
 20
-44.5625
 11
-41.6662
 21
-44.6005
  0
LINE
  8
0
 10
-41.6662
 20
-44.6005
 11
-41.7757
 21
-44.6279
  0
LINE
  8
0
 10
-41.7757
 20
-44.6279
 11
-41.8873
 21
-44.6445
  0
LINE
  8
0
 10
-41.8873
 20
-44.6445
 11
-42
 21
-44.65
  0
LINE
  8
0
 10
-42
 20
-44.65
 11
-42.1127
 21
-44.6445
  0
ENDSEC
  0
SECTION
  2
OBJECTS
  0
DICTIONARY
  0
ENDSEC
  0
EOF
