  0
SECTION
  2
BLOCKS
  0
ENDSEC
  0
SECTION
  2
ENTITIES
  0
LINE
  8
0
 10
0.686111
 20
-6.96628
 11
1.36563
 21
-6.86549
  0
LINE
  8
0
 10
1.36563
 20
-6.86549
 11
2.03198
 21
-6.69858
  0
LINE
  8
0
 10
2.03198
 20
-6.69858
 11
2.67877
 21
-6.46715
  0
LINE
  8
0
 10
2.67877
 20
-6.46715
 11
3.29977
 21
-6.17345
  0
LINE
  8
0
 10
3.29977
 20
-6.17345
 11
3.88898
 21
-5.82028
  0
LINE
  8
0
 10
3.88898
 20
-5.82028
 11
4.44075
 21
-5.41107
  0
LINE
  8
0
 10
4.44075
 20
-5.41107
 11
4.94974
 21
-4.94974
  0
LINE
  8
0
 10
4.94974
 20
-4.94974
 11
5.41107
 21
-4.44075
  0
LINE
  8
0
 10
5.41107
 20
-4.44075
 11
5.82028
 21
-3.88898
  0
LINE
  8
0
 10
5.82028
 20
-3.88898
 11
6.17345
 21
-3.29977
  0
LINE
  8
0
 10
6.17345
 20
-3.29977
 11
6.46715
 21
-2.67877
  0
LINE
  8
0
 10
6.46715
 20
-2.67877
 11
6.69858
 21
-2.03198
  0
LINE
  8
0
 10
6.69858
 20
-2.03198
 11
6.86549
 21
-1.36563
  0
LINE
  8
0
 10
6.86549
 20
-1.36563
 11
6.96628
 21
-0.686111
  0
LINE
  8
0
 10
6.96628
 20
-0.686111
 11
7
 21
0
  0
LINE
  8
0
 10
7
 20
0
 11
6.96628
 21
0.686111
  0
LINE
  8
0
 10
6.96628
 20
0.686111
 11
4.97592
 21
15.4901
  0
LINE
  8
0
 10
4.97592
 20
15.4901
 11
4.90392
 21
15.9754
  0
LINE
  8
0
 10
4.90392
 20
15.9754
 11
4.7847
 21
16.4514
  0
LINE
  8
0
 10
4.7847
 20
16.4514
 11
4.61938
 21
16.9134
  0
LINE
  8
0
 10
4.61938
 20
16.9134
 11
4.40959
 21
17.357
  0
LINE
  8
0
 10
4.40959
 20
17.357
 11
4.15733
 21
17.7778
  0
LINE
  8
0
 10
4.15733
 20
17.7778
 11
3.86505
 21
18.172
  0
LINE
  8
0
 10
3.86505
 20
18.172
 11
3.53552
 21
18.5355
  0
LINE
  8
0
 10
3.53552
 20
18.5355
 11
3.17195
 21
18.8651
  0
LINE
  8
0
 10
3.17195
 20
18.8651
 11
2.77785
 21
19.1573
  0
LINE
  8
0
 10
2.77785
 20
19.1573
 11
2.35698
 21
19.4096
  0
LINE
  8
0
 10
2.35698
 20
19.4096
 11
1.91341
 21
19.6194
  0
LINE
  8
0
 10
1.91341
 20
19.6194
 11
1.45142
 21
19.7847
  0
LINE
  8
0
 10
1.45142
 20
19.7847
 11
0.975449
 21
19.9039
  0
LINE
  8
0
 10
0.975449
 20
19.9039
 11
0.490082
 21
19.9759
  0
LINE
  8
0
 10
0.490082
 20
19.9759
 11
0
 21
20
  0
LINE
  8
0
 10
0
 20
20
 11
-0.490082
 21
19.9759
  0
LINE
  8
0
 10
-0.490082
 20
19.9759
 11
-0.975449
 21
19.9039
  0
LINE
  8
0
 10
-0.975449
 20
19.9039
 11
-1.45142
 21
19.7847
  0
LINE
  8
0
 10
-1.45142
 20
19.7847
 11
-1.91341
 21
19.6194
  0
LINE
  8
0
 10
-1.91341
 20
19.6194
 11
-2.35698
 21
19.4096
  0
LINE
  8
0
 10
-2.35698
 20
19.4096
 11
-2.77785
 21
19.1573
  0
LINE
  8
0
 10
-2.77785
 20
19.1573
 11
-3.17195
 21
18.8651
  0
LINE
  8
0
 10
-3.17195
 20
18.8651
 11
-3.53552
 21
18.5355
  0
LINE
  8
0
 10
-3.53552
 20
18.5355
 11
-3.86505
 21
18.172
  0
LINE
  8
0
 10
-3.86505
 20
18.172
 11
-4.15733
 21
17.7778
  0
LINE
  8
0
 10
-4.15733
 20
17.7778
 11
-4.40959
 21
17.357
  0
LINE
  8
0
 10
-4.40959
 20
17.357
 11
-4.61938
 21
16.9134
  0
LINE
  8
0
 10
-4.61938
 20
16.9134
 11
-4.7847
 21
16.4514
  0
LINE
  8
0
 10
-4.7847
 20
16.4514
 11
-4.90392
 21
15.9754
  0
LINE
  8
0
 10
-4.90392
 20
15.9754
 11
-4.97592
 21
15.4901
  0
LINE
  8
0
 10
-4.97592
 20
15.4901
 11
-5.51694
 21
11.4661
  0
LINE
  8
0
 10
-5.51694
 20
11.4661
 11
-5.41185
 21
11.4949
  0
LINE
  8
0
 10
-5.41185
 20
11.4949
 11
-5.33934
 21
11.5804
  0
LINE
  8
0
 10
-5.33934
 20
11.5804
 11
-5.25824
 21
11.6588
  0
LINE
  8
0
 10
-5.25824
 20
11.6588
 11
-5.16985
 21
11.729
  0
LINE
  8
0
 10
-5.16985
 20
11.729
 11
-5.075
 21
11.7901
  0
LINE
  8
0
 10
-5.075
 20
11.7901
 11
-4.97461
 21
11.8417
  0
LINE
  8
0
 10
-4.97461
 20
11.8417
 11
-4.86964
 21
11.8832
  0
LINE
  8
0
 10
-4.86964
 20
11.8832
 11
-4.76112
 21
11.9142
  0
LINE
  8
0
 10
-4.76112
 20
11.9142
 11
-4.65086
 21
11.9342
  0
LINE
  8
0
 10
-4.65086
 20
11.9342
 11
-4.5712
 21
12.0131
  0
LINE
  8
0
 10
-4.5712
 20
12.0131
 11
-4.48357
 21
12.0842
  0
LINE
  8
0
 10
-4.48357
 20
12.0842
 11
-4.38939
 21
12.1464
  0
LINE
  8
0
 10
-4.38939
 20
12.1464
 11
-4.28957
 21
12.199
  0
LINE
  8
0
 10
-4.28957
 20
12.199
 11
-4.18507
 21
12.2416
  0
LINE
  8
0
 10
-4.18507
 20
12.2416
 11
-4.07689
 21
12.2738
  0
LINE
  8
0
 10
-4.07689
 20
12.2738
 11
-3.96609
 21
12.2952
  0
LINE
  8
0
 10
-3.96609
 20
12.2952
 11
-3.85451
 21
12.3056
  0
LINE
  8
0
 10
-3.85451
 20
12.3056
 11
-3.76825
 21
12.3772
  0
LINE
  8
0
 10
-3.76825
 20
12.3772
 11
-3.67476
 21
12.4404
  0
LINE
  8
0
 10
-3.67476
 20
12.4404
 11
-3.57553
 21
12.4941
  0
LINE
  8
0
 10
-3.57553
 20
12.4941
 11
-3.4715
 21
12.5379
  0
LINE
  8
0
 10
-3.4715
 20
12.5379
 11
-3.36368
 21
12.5712
  0
LINE
  8
0
 10
-3.36368
 20
12.5712
 11
-3.25311
 21
12.5938
  0
LINE
  8
0
 10
-3.25311
 20
12.5938
 11
-3.14087
 21
12.6055
  0
LINE
  8
0
 10
-3.14087
 20
12.6055
 11
-3.02881
 21
12.6061
  0
LINE
  8
0
 10
-3.02881
 20
12.6061
 11
-2.93665
 21
12.6699
  0
LINE
  8
0
 10
-2.93665
 20
12.6699
 11
-2.838
 21
12.7247
  0
LINE
  8
0
 10
-2.838
 20
12.7247
 11
-2.73445
 21
12.7696
  0
LINE
  8
0
 10
-2.73445
 20
12.7696
 11
-2.627
 21
12.8041
  0
LINE
  8
0
 10
-2.627
 20
12.8041
 11
-2.51669
 21
12.828
  0
LINE
  8
0
 10
-2.51669
 20
12.828
 11
-2.40457
 21
12.8409
  0
LINE
  8
0
 10
-2.40457
 20
12.8409
 11
-2.29173
 21
12.8427
  0
LINE
  8
0
 10
-2.29173
 20
12.8427
 11
-2.17926
 21
12.8335
  0
LINE
  8
0
 10
-2.17926
 20
12.8335
 11
-2.06822
 21
12.8133
  0
LINE
  8
0
 10
-2.06822
 20
12.8133
 11
-1.9597
 21
12.7823
  0
LINE
  8
0
 10
-1.9597
 20
12.7823
 11
-1.85475
 21
12.7408
  0
LINE
  8
0
 10
-1.85475
 20
12.7408
 11
-1.75436
 21
12.6893
  0
LINE
  8
0
 10
-1.75436
 20
12.6893
 11
-1.65952
 21
12.6281
  0
LINE
  8
0
 10
-1.65952
 20
12.6281
 11
-1.57112
 21
12.5579
  0
LINE
  8
0
 10
-1.57112
 20
12.5579
 11
-1.49002
 21
12.4795
  0
LINE
  8
0
 10
-1.49002
 20
12.4795
 11
-1.41701
 21
12.3934
  0
LINE
  8
0
 10
-1.41701
 20
12.3934
 11
-1.35278
 21
12.3006
  0
LINE
  8
0
 10
-1.35278
 20
12.3006
 11
-1.29796
 21
12.202
  0
LINE
  8
0
 10
-1.29796
 20
12.202
 11
-1.25307
 21
12.0984
  0
LINE
  8
0
 10
-1.25307
 20
12.0984
 11
-1.21855
 21
11.991
  0
LINE
  8
0
 10
-1.21855
 20
11.991
 11
-1.19472
 21
11.8807
  0
LINE
  8
0
 10
-1.19472
 20
11.8807
 11
-1.18182
 21
11.7685
  0
LINE
  8
0
 10
-1.18182
 20
11.7685
 11
-1.17998
 21
11.6557
  0
LINE
  8
0
 10
-1.17998
 20
11.6557
 11
-1.18921
 21
11.5432
  0
LINE
  8
0
 10
-1.18921
 20
11.5432
 11
-1.20941
 21
11.4322
  0
LINE
  8
0
 10
-1.20941
 20
11.4322
 11
-1.24039
 21
11.3237
  0
LINE
  8
0
 10
-1.24039
 20
11.3237
 11
-1.28188
 21
11.2187
  0
LINE
  8
0
 10
-1.28188
 20
11.2187
 11
-1.33344
 21
11.1183
  0
LINE
  8
0
 10
-1.33344
 20
11.1183
 11
-1.39459
 21
11.0235
  0
LINE
  8
0
 10
-1.39459
 20
11.0235
 11
-1.46475
 21
10.9351
  0
LINE
  8
0
 10
-1.46475
 20
10.9351
 11
-1.54323
 21
10.854
  0
LINE
  8
0
 10
-1.54323
 20
10.854
 11
-1.62929
 21
10.781
  0
LINE
  8
0
 10
-1.62929
 20
10.781
 11
-1.72209
 21
10.7167
  0
LINE
  8
0
 10
-1.72209
 20
10.7167
 11
-1.82072
 21
10.6619
  0
LINE
  8
0
 10
-1.82072
 20
10.6619
 11
-1.92427
 21
10.617
  0
LINE
  8
0
 10
-1.92427
 20
10.617
 11
-2.03172
 21
10.5825
  0
LINE
  8
0
 10
-2.03172
 20
10.5825
 11
-2.14203
 21
10.5587
  0
LINE
  8
0
 10
-2.14203
 20
10.5587
 11
-2.25415
 21
10.5458
  0
LINE
  8
0
 10
-2.25415
 20
10.5458
 11
-2.36699
 21
10.5439
  0
LINE
  8
0
 10
-2.36699
 20
10.5439
 11
-2.37889
 21
10.5449
  0
LINE
  8
0
 10
-2.37889
 20
10.5449
 11
-2.38809
 21
10.5373
  0
LINE
  8
0
 10
-2.38809
 20
10.5373
 11
-2.48158
 21
10.4741
  0
LINE
  8
0
 10
-2.48158
 20
10.4741
 11
-2.58083
 21
10.4203
  0
LINE
  8
0
 10
-2.58083
 20
10.4203
 11
-2.68484
 21
10.3766
  0
LINE
  8
0
 10
-2.68484
 20
10.3766
 11
-2.79266
 21
10.3432
  0
LINE
  8
0
 10
-2.79266
 20
10.3432
 11
-2.90323
 21
10.3206
  0
LINE
  8
0
 10
-2.90323
 20
10.3206
 11
-3.01549
 21
10.3089
  0
LINE
  8
0
 10
-3.01549
 20
10.3089
 11
-3.02744
 21
10.3089
  0
LINE
  8
0
 10
-3.02744
 20
10.3089
 11
-3.03592
 21
10.3005
  0
LINE
  8
0
 10
-3.03592
 20
10.3005
 11
-3.12355
 21
10.2294
  0
LINE
  8
0
 10
-3.12355
 20
10.2294
 11
-3.21773
 21
10.1672
  0
LINE
  8
0
 10
-3.21773
 20
10.1672
 11
-3.31755
 21
10.1145
  0
LINE
  8
0
 10
-3.31755
 20
10.1145
 11
-3.42204
 21
10.0719
  0
LINE
  8
0
 10
-3.42204
 20
10.0719
 11
-3.53021
 21
10.0397
  0
LINE
  8
0
 10
-3.53021
 20
10.0397
 11
-3.64102
 21
10.0183
  0
LINE
  8
0
 10
-3.64102
 20
10.0183
 11
-3.65291
 21
10.0172
  0
LINE
  8
0
 10
-3.65291
 20
10.0172
 11
-3.66064
 21
10.0081
  0
LINE
  8
0
 10
-3.66064
 20
10.0081
 11
-3.74174
 21
9.92961
  0
LINE
  8
0
 10
-3.74174
 20
9.92961
 11
-3.83014
 21
9.85945
  0
LINE
  8
0
 10
-3.83014
 20
9.85945
 11
-3.92499
 21
9.79829
  0
LINE
  8
0
 10
-3.92499
 20
9.79829
 11
-4.02538
 21
9.74673
  0
LINE
  8
0
 10
-4.02538
 20
9.74673
 11
-4.13034
 21
9.70525
  0
LINE
  8
0
 10
-4.13034
 20
9.70525
 11
-4.23886
 21
9.67426
  0
LINE
  8
0
 10
-4.23886
 20
9.67426
 11
-4.2506
 21
9.67212
  0
LINE
  8
0
 10
-4.2506
 20
9.67212
 11
-4.25751
 21
9.66237
  0
LINE
  8
0
 10
-4.25751
 20
9.66237
 11
-4.33147
 21
9.57712
  0
LINE
  8
0
 10
-4.33147
 20
9.57712
 11
-4.41341
 21
9.49953
  0
LINE
  8
0
 10
-4.41341
 20
9.49953
 11
-4.50256
 21
9.43033
  0
LINE
  8
0
 10
-4.50256
 20
9.43033
 11
-4.59808
 21
9.37022
  0
LINE
  8
0
 10
-4.59808
 20
9.37022
 11
-4.69902
 21
9.31975
  0
LINE
  8
0
 10
-4.69902
 20
9.31975
 11
-4.80443
 21
9.27942
  0
LINE
  8
0
 10
-4.80443
 20
9.27942
 11
-4.91327
 21
9.24962
  0
LINE
  8
0
 10
-4.91327
 20
9.24962
 11
-5.02452
 21
9.23064
  0
LINE
  8
0
 10
-5.02452
 20
9.23064
 11
-5.1371
 21
9.22264
  0
LINE
  8
0
 10
-5.1371
 20
9.22264
 11
-5.24991
 21
9.22571
  0
LINE
  8
0
 10
-5.24991
 20
9.22571
 11
-5.36188
 21
9.23984
  0
LINE
  8
0
 10
-5.36188
 20
9.23984
 11
-5.47192
 21
9.26486
  0
LINE
  8
0
 10
-5.47192
 20
9.26486
 11
-5.57898
 21
9.30055
  0
LINE
  8
0
 10
-5.57898
 20
9.30055
 11
-5.68204
 21
9.34657
  0
LINE
  8
0
 10
-5.68204
 20
9.34657
 11
-5.78008
 21
9.40247
  0
LINE
  8
0
 10
-5.78008
 20
9.40247
 11
-5.79314
 21
9.41173
  0
LINE
  8
0
 10
-5.79314
 20
9.41173
 11
-6.96628
 21
0.686111
  0
LINE
  8
0
 10
-6.96628
 20
0.686111
 11
-7
 21
0
  0
LINE
  8
0
 10
-7
 20
0
 11
-6.96628
 21
-0.686111
  0
LINE
  8
0
 10
-6.96628
 20
-0.686111
 11
-6.86549
 21
-1.36563
  0
LINE
  8
0
 10
-6.86549
 20
-1.36563
 11
-6.69858
 21
-2.03198
  0
LINE
  8
0
 10
-6.69858
 20
-2.03198
 11
-6.46715
 21
-2.67877
  0
LINE
  8
0
 10
-6.46715
 20
-2.67877
 11
-6.17345
 21
-3.29977
  0
LINE
  8
0
 10
-6.17345
 20
-3.29977
 11
-5.82028
 21
-3.88898
  0
LINE
  8
0
 10
-5.82028
 20
-3.88898
 11
-5.41107
 21
-4.44075
  0
LINE
  8
0
 10
-5.41107
 20
-4.44075
 11
-4.94974
 21
-4.94974
  0
LINE
  8
0
 10
-4.94974
 20
-4.94974
 11
-4.44075
 21
-5.41107
  0
LINE
  8
0
 10
-4.44075
 20
-5.41107
 11
-3.88898
 21
-5.82028
  0
LINE
  8
0
 10
-3.88898
 20
-5.82028
 11
-3.29977
 21
-6.17345
  0
LINE
  8
0
 10
-3.29977
 20
-6.17345
 11
-2.67877
 21
-6.46715
  0
LINE
  8
0
 10
-2.67877
 20
-6.46715
 11
-2.03198
 21
-6.69858
  0
LINE
  8
0
 10
-2.03198
 20
-6.69858
 11
-1.36563
 21
-6.86549
  0
LINE
  8
0
 10
-1.36563
 20
-6.86549
 11
-0.686111
 21
-6.96628
  0
LINE
  8
0
 10
-0.686111
 20
-6.96628
 11
0
 21
-7
  0
LINE
  8
0
 10
0
 20
-7
 11
0.686111
 21
-6.96628
  0
LINE
  8
0
 10
-0.112717
 20
1.85553
 11
-0.22435
 21
1.87209
  0
LINE
  8
0
 10
-0.22435
 20
1.87209
 11
-0.333817
 21
1.89951
  0
LINE
  8
0
 10
-0.333817
 20
1.89951
 11
-0.440079
 21
1.93753
  0
LINE
  8
0
 10
-0.440079
 20
1.93753
 11
-0.542099
 21
1.98578
  0
LINE
  8
0
 10
-0.542099
 20
1.98578
 11
-0.638901
 21
2.04381
  0
LINE
  8
0
 10
-0.638901
 20
2.04381
 11
-0.729538
 21
2.11102
  0
LINE
  8
0
 10
-0.729538
 20
2.11102
 11
-0.813171
 21
2.18681
  0
LINE
  8
0
 10
-0.813171
 20
2.18681
 11
-0.888962
 21
2.27045
  0
LINE
  8
0
 10
-0.888962
 20
2.27045
 11
-0.956177
 21
2.36108
  0
LINE
  8
0
 10
-0.956177
 20
2.36108
 11
-1.01421
 21
2.45789
  0
LINE
  8
0
 10
-1.01421
 20
2.45789
 11
-1.06245
 21
2.55991
  0
LINE
  8
0
 10
-1.06245
 20
2.55991
 11
-1.10048
 21
2.66617
  0
LINE
  8
0
 10
-1.10048
 20
2.66617
 11
-1.1279
 21
2.77563
  0
LINE
  8
0
 10
-1.1279
 20
2.77563
 11
-1.14445
 21
2.88727
  0
LINE
  8
0
 10
-1.14445
 20
2.88727
 11
-1.14999
 21
3
  0
LINE
  8
0
 10
-1.14999
 20
3
 11
-1.14445
 21
3.11272
  0
LINE
  8
0
 10
-1.14445
 20
3.11272
 11
-1.1279
 21
3.22435
  0
LINE
  8
0
 10
-1.1279
 20
3.22435
 11
-1.10048
 21
3.33382
  0
LINE
  8
0
 10
-1.10048
 20
3.33382
 11
-1.06245
 21
3.44008
  0
LINE
  8
0
 10
-1.06245
 20
3.44008
 11
-1.01421
 21
3.5421
  0
LINE
  8
0
 10
-1.01421
 20
3.5421
 11
-0.956177
 21
3.6389
  0
LINE
  8
0
 10
-0.956177
 20
3.6389
 11
-0.888962
 21
3.72954
  0
LINE
  8
0
 10
-0.888962
 20
3.72954
 11
-0.813171
 21
3.81317
  0
LINE
  8
0
 10
-0.813171
 20
3.81317
 11
-0.729538
 21
3.88896
  0
LINE
  8
0
 10
-0.729538
 20
3.88896
 11
-0.638901
 21
3.95618
  0
LINE
  8
0
 10
-0.638901
 20
3.95618
 11
-0.542099
 21
4.01421
  0
LINE
  8
0
 10
-0.542099
 20
4.01421
 11
-0.440079
 21
4.06245
  0
LINE
  8
0
 10
-0.440079
 20
4.06245
 11
-0.333817
 21
4.10048
  0
LINE
  8
0
 10
-0.333817
 20
4.10048
 11
-0.22435
 21
4.1279
  0
LINE
  8
0
 10
-0.22435
 20
4.1279
 11
-0.112717
 21
4.14445
  0
LINE
  8
0
 10
-0.112717
 20
4.14445
 11
0
 21
4.14999
  0
LINE
  8
0
 10
0
 20
4.14999
 11
0.112717
 21
4.14445
  0
LINE
  8
0
 10
0.112717
 20
4.14445
 11
0.22435
 21
4.1279
  0
LINE
  8
0
 10
0.22435
 20
4.1279
 11
0.333817
 21
4.10048
  0
LINE
  8
0
 10
0.333817
 20
4.10048
 11
0.440079
 21
4.06245
  0
LINE
  8
0
 10
0.440079
 20
4.06245
 11
0.542099
 21
4.01421
  0
LINE
  8
0
 10
0.542099
 20
4.01421
 11
0.638901
 21
3.95618
  0
LINE
  8
0
 10
0.638901
 20
3.95618
 11
0.729538
 21
3.88896
  0
LINE
  8
0
 10
0.729538
 20
3.88896
 11
0.813171
 21
3.81317
  0
LINE
  8
0
 10
0.813171
 20
3.81317
 11
0.888962
 21
3.72954
  0
LINE
  8
0
 10
0.888962
 20
3.72954
 11
0.956177
 21
3.6389
  0
LINE
  8
0
 10
0.956177
 20
3.6389
 11
1.01421
 21
3.5421
  0
LINE
  8
0
 10
1.01421
 20
3.5421
 11
1.06245
 21
3.44008
  0
LINE
  8
0
 10
1.06245
 20
3.44008
 11
1.10048
 21
3.33382
  0
LINE
  8
0
 10
1.10048
 20
3.33382
 11
1.1279
 21
3.22435
  0
LINE
  8
0
 10
1.1279
 20
3.22435
 11
1.14445
 21
3.11272
  0
LINE
  8
0
 10
1.14445
 20
3.11272
 11
1.14999
 21
3
  0
LINE
  8
0
 10
1.14999
 20
3
 11
1.14445
 21
2.88727
  0
LINE
  8
0
 10
1.14445
 20
2.88727
 11
1.1279
 21
2.77563
  0
LINE
  8
0
 10
1.1279
 20
2.77563
 11
1.10048
 21
2.66617
  0
LINE
  8
0
 10
1.10048
 20
2.66617
 11
1.06245
 21
2.55991
  0
LINE
  8
0
 10
1.06245
 20
2.55991
 11
1.01421
 21
2.45789
  0
LINE
  8
0
 10
1.01421
 20
2.45789
 11
0.956177
 21
2.36108
  0
LINE
  8
0
 10
0.956177
 20
2.36108
 11
0.888962
 21
2.27045
  0
LINE
  8
0
 10
0.888962
 20
2.27045
 11
0.813171
 21
2.18681
  0
LINE
  8
0
 10
0.813171
 20
2.18681
 11
0.729538
 21
2.11102
  0
LINE
  8
0
 10
0.729538
 20
2.11102
 11
0.638901
 21
2.04381
  0
LINE
  8
0
 10
0.638901
 20
2.04381
 11
0.542099
 21
1.98578
  0
LINE
  8
0
 10
0.542099
 20
1.98578
 11
0.440079
 21
1.93753
  0
LINE
  8
0
 10
0.440079
 20
1.93753
 11
0.333817
 21
1.89951
  0
LINE
  8
0
 10
0.333817
 20
1.89951
 11
0.22435
 21
1.87209
  0
LINE
  8
0
 10
0.22435
 20
1.87209
 11
0.112717
 21
1.85553
  0
LINE
  8
0
 10
0.112717
 20
1.85553
 11
0
 21
1.84999
  0
LINE
  8
0
 10
0
 20
1.84999
 11
-0.112717
 21
1.85553
  0
ENDSEC
  0
SECTION
  2
OBJECTS
  0
DICTIONARY
  0
ENDSEC
  0
EOF
