  0
SECTION
  2
BLOCKS
  0
ENDSEC
  0
SECTION
  2
ENTITIES
  0
LINE
  8
0
 10
10.4901
 20
-19.1959
 11
10.9754
 21
-19.1239
  0
LINE
  8
0
 10
10.9754
 20
-19.1239
 11
11.4514
 21
-19.0047
  0
LINE
  8
0
 10
11.4514
 20
-19.0047
 11
11.9134
 21
-18.8394
  0
LINE
  8
0
 10
11.9134
 20
-18.8394
 11
12.357
 21
-18.6296
  0
LINE
  8
0
 10
12.357
 20
-18.6296
 11
12.7778
 21
-18.3773
  0
LINE
  8
0
 10
12.7778
 20
-18.3773
 11
13.172
 21
-18.085
  0
LINE
  8
0
 10
13.172
 20
-18.085
 11
13.5355
 21
-17.7555
  0
LINE
  8
0
 10
13.5355
 20
-17.7555
 11
13.8651
 21
-17.392
  0
LINE
  8
0
 10
13.8651
 20
-17.392
 11
14.1573
 21
-16.9978
  0
LINE
  8
0
 10
14.1573
 20
-16.9978
 11
14.4096
 21
-16.577
  0
LINE
  8
0
 10
14.4096
 20
-16.577
 11
14.6194
 21
-16.1334
  0
LINE
  8
0
 10
14.6194
 20
-16.1334
 11
14.7847
 21
-15.6714
  0
LINE
  8
0
 10
14.7847
 20
-15.6714
 11
14.9039
 21
-15.1954
  0
LINE
  8
0
 10
14.9039
 20
-15.1954
 11
14.9759
 21
-14.7101
  0
LINE
  8
0
 10
14.9759
 20
-14.7101
 11
15
 21
-14.22
  0
LINE
  8
0
 10
15
 20
-14.22
 11
15
 21
-13.598
  0
LINE
  8
0
 10
15
 20
-13.598
 11
14.973
 21
-13.6344
  0
LINE
  8
0
 10
14.973
 20
-13.6344
 11
14.9071
 21
-13.7071
  0
LINE
  8
0
 10
14.9071
 20
-13.7071
 11
14.8344
 21
-13.773
  0
LINE
  8
0
 10
14.8344
 20
-13.773
 11
14.7556
 21
-13.8315
  0
LINE
  8
0
 10
14.7556
 20
-13.8315
 11
14.6714
 21
-13.8819
  0
LINE
  8
0
 10
14.6714
 20
-13.8819
 11
14.5827
 21
-13.9239
  0
LINE
  8
0
 10
14.5827
 20
-13.9239
 11
14.4903
 21
-13.9569
  0
LINE
  8
0
 10
14.4903
 20
-13.9569
 11
14.3951
 21
-13.9808
  0
LINE
  8
0
 10
14.3951
 20
-13.9808
 11
14.298
 21
-13.9952
  0
LINE
  8
0
 10
14.298
 20
-13.9952
 11
14.2
 21
-14
  0
LINE
  8
0
 10
14.2
 20
-14
 11
13.8
 21
-14
  0
LINE
  8
0
 10
13.8
 20
-14
 11
13.702
 21
-13.9952
  0
LINE
  8
0
 10
13.702
 20
-13.9952
 11
13.6049
 21
-13.9808
  0
LINE
  8
0
 10
13.6049
 20
-13.9808
 11
13.5097
 21
-13.9569
  0
LINE
  8
0
 10
13.5097
 20
-13.9569
 11
13.4173
 21
-13.9239
  0
LINE
  8
0
 10
13.4173
 20
-13.9239
 11
13.3286
 21
-13.8819
  0
LINE
  8
0
 10
13.3286
 20
-13.8819
 11
13.2444
 21
-13.8315
  0
LINE
  8
0
 10
13.2444
 20
-13.8315
 11
13.2076
 21
-13.8042
  0
LINE
  8
0
 10
13.2076
 20
-13.8042
 11
13.1901
 21
-13.8125
  0
LINE
  8
0
 10
13.1901
 20
-13.8125
 11
13.0838
 21
-13.8505
  0
LINE
  8
0
 10
13.0838
 20
-13.8505
 11
12.9743
 21
-13.8779
  0
LINE
  8
0
 10
12.9743
 20
-13.8779
 11
12.8627
 21
-13.8945
  0
LINE
  8
0
 10
12.8627
 20
-13.8945
 11
12.75
 21
-13.9
  0
LINE
  8
0
 10
12.75
 20
-13.9
 11
12.6373
 21
-13.8945
  0
LINE
  8
0
 10
12.6373
 20
-13.8945
 11
12.5256
 21
-13.8779
  0
LINE
  8
0
 10
12.5256
 20
-13.8779
 11
12.4162
 21
-13.8505
  0
LINE
  8
0
 10
12.4162
 20
-13.8505
 11
12.3099
 21
-13.8125
  0
LINE
  8
0
 10
12.3099
 20
-13.8125
 11
12.2079
 21
-13.7642
  0
LINE
  8
0
 10
12.2079
 20
-13.7642
 11
12.1111
 21
-13.7062
  0
LINE
  8
0
 10
12.1111
 20
-13.7062
 11
12.0204
 21
-13.639
  0
LINE
  8
0
 10
12.0204
 20
-13.639
 11
11.9368
 21
-13.5632
  0
LINE
  8
0
 10
11.9368
 20
-13.5632
 11
11.861
 21
-13.4795
  0
LINE
  8
0
 10
11.861
 20
-13.4795
 11
11.7938
 21
-13.3889
  0
LINE
  8
0
 10
11.7938
 20
-13.3889
 11
11.7358
 21
-13.2921
  0
LINE
  8
0
 10
11.7358
 20
-13.2921
 11
11.6875
 21
-13.1901
  0
LINE
  8
0
 10
11.6875
 20
-13.1901
 11
11.6495
 21
-13.0838
  0
LINE
  8
0
 10
11.6495
 20
-13.0838
 11
11.6221
 21
-12.9743
  0
LINE
  8
0
 10
11.6221
 20
-12.9743
 11
11.6055
 21
-12.8627
  0
LINE
  8
0
 10
11.6055
 20
-12.8627
 11
11.6
 21
-12.75
  0
LINE
  8
0
 10
11.6
 20
-12.75
 11
11.6055
 21
-12.6373
  0
LINE
  8
0
 10
11.6055
 20
-12.6373
 11
11.6221
 21
-12.5256
  0
LINE
  8
0
 10
11.6221
 20
-12.5256
 11
11.6495
 21
-12.4162
  0
LINE
  8
0
 10
11.6495
 20
-12.4162
 11
11.6875
 21
-12.3099
  0
LINE
  8
0
 10
11.6875
 20
-12.3099
 11
11.7358
 21
-12.2079
  0
LINE
  8
0
 10
11.7358
 20
-12.2079
 11
11.7938
 21
-12.1111
  0
LINE
  8
0
 10
11.7938
 20
-12.1111
 11
11.861
 21
-12.0204
  0
LINE
  8
0
 10
11.861
 20
-12.0204
 11
11.9368
 21
-11.9368
  0
LINE
  8
0
 10
11.9368
 20
-11.9368
 11
12.0204
 21
-11.861
  0
LINE
  8
0
 10
12.0204
 20
-11.861
 11
12.1111
 21
-11.7938
  0
LINE
  8
0
 10
12.1111
 20
-11.7938
 11
12.2079
 21
-11.7358
  0
LINE
  8
0
 10
12.2079
 20
-11.7358
 11
12.3099
 21
-11.6875
  0
LINE
  8
0
 10
12.3099
 20
-11.6875
 11
12.4162
 21
-11.6495
  0
LINE
  8
0
 10
12.4162
 20
-11.6495
 11
12.5256
 21
-11.6221
  0
LINE
  8
0
 10
12.5256
 20
-11.6221
 11
12.6373
 21
-11.6055
  0
LINE
  8
0
 10
12.6373
 20
-11.6055
 11
12.75
 21
-11.6
  0
LINE
  8
0
 10
12.75
 20
-11.6
 11
12.8
 21
-11.6024
  0
LINE
  8
0
 10
12.8
 20
-11.6024
 11
12.8
 21
-7
  0
LINE
  8
0
 10
12.8
 20
-7
 11
12.8048
 21
-6.90198
  0
LINE
  8
0
 10
12.8048
 20
-6.90198
 11
12.8192
 21
-6.80492
  0
LINE
  8
0
 10
12.8192
 20
-6.80492
 11
12.8431
 21
-6.70972
  0
LINE
  8
0
 10
12.8431
 20
-6.70972
 11
12.8761
 21
-6.61731
  0
LINE
  8
0
 10
12.8761
 20
-6.61731
 11
12.9181
 21
-6.52861
  0
LINE
  8
0
 10
12.9181
 20
-6.52861
 11
12.9685
 21
-6.44443
  0
LINE
  8
0
 10
12.9685
 20
-6.44443
 11
13.027
 21
-6.3656
  0
LINE
  8
0
 10
13.027
 20
-6.3656
 11
13.0929
 21
-6.29289
  0
LINE
  8
0
 10
13.0929
 20
-6.29289
 11
13.1656
 21
-6.22699
  0
LINE
  8
0
 10
13.1656
 20
-6.22699
 11
13.2444
 21
-6.16853
  0
LINE
  8
0
 10
13.2444
 20
-6.16853
 11
13.3286
 21
-6.11807
  0
LINE
  8
0
 10
13.3286
 20
-6.11807
 11
13.4173
 21
-6.07613
  0
LINE
  8
0
 10
13.4173
 20
-6.07613
 11
13.5097
 21
-6.04306
  0
LINE
  8
0
 10
13.5097
 20
-6.04306
 11
13.6049
 21
-6.01921
  0
LINE
  8
0
 10
13.6049
 20
-6.01921
 11
13.702
 21
-6.00482
  0
LINE
  8
0
 10
13.702
 20
-6.00482
 11
13.8
 21
-6
  0
LINE
  8
0
 10
13.8
 20
-6
 11
14.2
 21
-6
  0
LINE
  8
0
 10
14.2
 20
-6
 11
14.298
 21
-6.00482
  0
LINE
  8
0
 10
14.298
 20
-6.00482
 11
14.3951
 21
-6.01921
  0
LINE
  8
0
 10
14.3951
 20
-6.01921
 11
14.4903
 21
-6.04306
  0
LINE
  8
0
 10
14.4903
 20
-6.04306
 11
14.5827
 21
-6.07613
  0
LINE
  8
0
 10
14.5827
 20
-6.07613
 11
14.6714
 21
-6.11807
  0
LINE
  8
0
 10
14.6714
 20
-6.11807
 11
14.7556
 21
-6.16853
  0
LINE
  8
0
 10
14.7556
 20
-6.16853
 11
14.8344
 21
-6.22699
  0
LINE
  8
0
 10
14.8344
 20
-6.22699
 11
14.9071
 21
-6.29289
  0
LINE
  8
0
 10
14.9071
 20
-6.29289
 11
14.973
 21
-6.3656
  0
LINE
  8
0
 10
14.973
 20
-6.3656
 11
15
 21
-6.40199
  0
LINE
  8
0
 10
15
 20
-6.40199
 11
15
 21
6.40199
  0
LINE
  8
0
 10
15
 20
6.40199
 11
14.973
 21
6.3656
  0
LINE
  8
0
 10
14.973
 20
6.3656
 11
14.9071
 21
6.29289
  0
LINE
  8
0
 10
14.9071
 20
6.29289
 11
14.8344
 21
6.22699
  0
LINE
  8
0
 10
14.8344
 20
6.22699
 11
14.7556
 21
6.16853
  0
LINE
  8
0
 10
14.7556
 20
6.16853
 11
14.6714
 21
6.11807
  0
LINE
  8
0
 10
14.6714
 20
6.11807
 11
14.5827
 21
6.07613
  0
LINE
  8
0
 10
14.5827
 20
6.07613
 11
14.4903
 21
6.04306
  0
LINE
  8
0
 10
14.4903
 20
6.04306
 11
14.3951
 21
6.01921
  0
LINE
  8
0
 10
14.3951
 20
6.01921
 11
14.298
 21
6.00482
  0
LINE
  8
0
 10
14.298
 20
6.00482
 11
14.2
 21
6
  0
LINE
  8
0
 10
14.2
 20
6
 11
13.8
 21
6
  0
LINE
  8
0
 10
13.8
 20
6
 11
13.702
 21
6.00482
  0
LINE
  8
0
 10
13.702
 20
6.00482
 11
13.6049
 21
6.01921
  0
LINE
  8
0
 10
13.6049
 20
6.01921
 11
13.5097
 21
6.04306
  0
LINE
  8
0
 10
13.5097
 20
6.04306
 11
13.4173
 21
6.07613
  0
LINE
  8
0
 10
13.4173
 20
6.07613
 11
13.3286
 21
6.11807
  0
LINE
  8
0
 10
13.3286
 20
6.11807
 11
13.2444
 21
6.16853
  0
LINE
  8
0
 10
13.2444
 20
6.16853
 11
13.1656
 21
6.22699
  0
LINE
  8
0
 10
13.1656
 20
6.22699
 11
13.0929
 21
6.29289
  0
LINE
  8
0
 10
13.0929
 20
6.29289
 11
13.027
 21
6.3656
  0
LINE
  8
0
 10
13.027
 20
6.3656
 11
12.9685
 21
6.44443
  0
LINE
  8
0
 10
12.9685
 20
6.44443
 11
12.9181
 21
6.52861
  0
LINE
  8
0
 10
12.9181
 20
6.52861
 11
12.8761
 21
6.61731
  0
LINE
  8
0
 10
12.8761
 20
6.61731
 11
12.8431
 21
6.70972
  0
LINE
  8
0
 10
12.8431
 20
6.70972
 11
12.8192
 21
6.80492
  0
LINE
  8
0
 10
12.8192
 20
6.80492
 11
12.8048
 21
6.90198
  0
LINE
  8
0
 10
12.8048
 20
6.90198
 11
12.8
 21
7
  0
LINE
  8
0
 10
12.8
 20
7
 11
12.8
 21
11.6024
  0
LINE
  8
0
 10
12.8
 20
11.6024
 11
12.75
 21
11.6
  0
LINE
  8
0
 10
12.75
 20
11.6
 11
12.6373
 21
11.6055
  0
LINE
  8
0
 10
12.6373
 20
11.6055
 11
12.5256
 21
11.6221
  0
LINE
  8
0
 10
12.5256
 20
11.6221
 11
12.4162
 21
11.6495
  0
LINE
  8
0
 10
12.4162
 20
11.6495
 11
12.3099
 21
11.6875
  0
LINE
  8
0
 10
12.3099
 20
11.6875
 11
12.2079
 21
11.7358
  0
LINE
  8
0
 10
12.2079
 20
11.7358
 11
12.1111
 21
11.7938
  0
LINE
  8
0
 10
12.1111
 20
11.7938
 11
12.0204
 21
11.861
  0
LINE
  8
0
 10
12.0204
 20
11.861
 11
11.9368
 21
11.9368
  0
LINE
  8
0
 10
11.9368
 20
11.9368
 11
11.861
 21
12.0204
  0
LINE
  8
0
 10
11.861
 20
12.0204
 11
11.7938
 21
12.1111
  0
LINE
  8
0
 10
11.7938
 20
12.1111
 11
11.7358
 21
12.2079
  0
LINE
  8
0
 10
11.7358
 20
12.2079
 11
11.6875
 21
12.3099
  0
LINE
  8
0
 10
11.6875
 20
12.3099
 11
11.6495
 21
12.4162
  0
LINE
  8
0
 10
11.6495
 20
12.4162
 11
11.6221
 21
12.5256
  0
LINE
  8
0
 10
11.6221
 20
12.5256
 11
11.6055
 21
12.6373
  0
LINE
  8
0
 10
11.6055
 20
12.6373
 11
11.6
 21
12.75
  0
LINE
  8
0
 10
11.6
 20
12.75
 11
11.6055
 21
12.8627
  0
LINE
  8
0
 10
11.6055
 20
12.8627
 11
11.6221
 21
12.9743
  0
LINE
  8
0
 10
11.6221
 20
12.9743
 11
11.6495
 21
13.0838
  0
LINE
  8
0
 10
11.6495
 20
13.0838
 11
11.6875
 21
13.1901
  0
LINE
  8
0
 10
11.6875
 20
13.1901
 11
11.7358
 21
13.2921
  0
LINE
  8
0
 10
11.7358
 20
13.2921
 11
11.7938
 21
13.3889
  0
LINE
  8
0
 10
11.7938
 20
13.3889
 11
11.861
 21
13.4795
  0
LINE
  8
0
 10
11.861
 20
13.4795
 11
11.9368
 21
13.5632
  0
LINE
  8
0
 10
11.9368
 20
13.5632
 11
12.0204
 21
13.639
  0
LINE
  8
0
 10
12.0204
 20
13.639
 11
12.1111
 21
13.7062
  0
LINE
  8
0
 10
12.1111
 20
13.7062
 11
12.2079
 21
13.7642
  0
LINE
  8
0
 10
12.2079
 20
13.7642
 11
12.3099
 21
13.8125
  0
LINE
  8
0
 10
12.3099
 20
13.8125
 11
12.4162
 21
13.8505
  0
LINE
  8
0
 10
12.4162
 20
13.8505
 11
12.5256
 21
13.8779
  0
LINE
  8
0
 10
12.5256
 20
13.8779
 11
12.6373
 21
13.8945
  0
LINE
  8
0
 10
12.6373
 20
13.8945
 11
12.75
 21
13.9
  0
LINE
  8
0
 10
12.75
 20
13.9
 11
12.8627
 21
13.8945
  0
LINE
  8
0
 10
12.8627
 20
13.8945
 11
12.9743
 21
13.8779
  0
LINE
  8
0
 10
12.9743
 20
13.8779
 11
13.0838
 21
13.8505
  0
LINE
  8
0
 10
13.0838
 20
13.8505
 11
13.1901
 21
13.8125
  0
LINE
  8
0
 10
13.1901
 20
13.8125
 11
13.2076
 21
13.8042
  0
LINE
  8
0
 10
13.2076
 20
13.8042
 11
13.2444
 21
13.8315
  0
LINE
  8
0
 10
13.2444
 20
13.8315
 11
13.3286
 21
13.8819
  0
LINE
  8
0
 10
13.3286
 20
13.8819
 11
13.4173
 21
13.9239
  0
LINE
  8
0
 10
13.4173
 20
13.9239
 11
13.5097
 21
13.9569
  0
LINE
  8
0
 10
13.5097
 20
13.9569
 11
13.6049
 21
13.9808
  0
LINE
  8
0
 10
13.6049
 20
13.9808
 11
13.702
 21
13.9952
  0
LINE
  8
0
 10
13.702
 20
13.9952
 11
13.8
 21
14
  0
LINE
  8
0
 10
13.8
 20
14
 11
14.2
 21
14
  0
LINE
  8
0
 10
14.2
 20
14
 11
14.298
 21
13.9952
  0
LINE
  8
0
 10
14.298
 20
13.9952
 11
14.3951
 21
13.9808
  0
LINE
  8
0
 10
14.3951
 20
13.9808
 11
14.4903
 21
13.9569
  0
LINE
  8
0
 10
14.4903
 20
13.9569
 11
14.5827
 21
13.9239
  0
LINE
  8
0
 10
14.5827
 20
13.9239
 11
14.6714
 21
13.8819
  0
LINE
  8
0
 10
14.6714
 20
13.8819
 11
14.7556
 21
13.8315
  0
LINE
  8
0
 10
14.7556
 20
13.8315
 11
14.8344
 21
13.773
  0
LINE
  8
0
 10
14.8344
 20
13.773
 11
14.9071
 21
13.7071
  0
LINE
  8
0
 10
14.9071
 20
13.7071
 11
14.973
 21
13.6344
  0
LINE
  8
0
 10
14.973
 20
13.6344
 11
15
 21
13.598
  0
LINE
  8
0
 10
15
 20
13.598
 11
15
 21
14.22
  0
LINE
  8
0
 10
15
 20
14.22
 11
14.9759
 21
14.7101
  0
LINE
  8
0
 10
14.9759
 20
14.7101
 11
14.9039
 21
15.1954
  0
LINE
  8
0
 10
14.9039
 20
15.1954
 11
14.7847
 21
15.6714
  0
LINE
  8
0
 10
14.7847
 20
15.6714
 11
14.6194
 21
16.1334
  0
LINE
  8
0
 10
14.6194
 20
16.1334
 11
12.7716
 21
20.748
  0
LINE
  8
0
 10
12.7716
 20
20.748
 11
12.6458
 21
21.0142
  0
LINE
  8
0
 10
12.6458
 20
21.0142
 11
12.4944
 21
21.2667
  0
LINE
  8
0
 10
12.4944
 20
21.2667
 11
12.319
 21
21.5032
  0
LINE
  8
0
 10
12.319
 20
21.5032
 11
12.1213
 21
21.7213
  0
LINE
  8
0
 10
12.1213
 20
21.7213
 11
11.9032
 21
21.919
  0
LINE
  8
0
 10
11.9032
 20
21.919
 11
11.6667
 21
22.0944
  0
LINE
  8
0
 10
11.6667
 20
22.0944
 11
11.4142
 21
22.2458
  0
LINE
  8
0
 10
11.4142
 20
22.2458
 11
11.1481
 21
22.3716
  0
LINE
  8
0
 10
11.1481
 20
22.3716
 11
10.8708
 21
22.4708
  0
LINE
  8
0
 10
10.8708
 20
22.4708
 11
10.5853
 21
22.5423
  0
LINE
  8
0
 10
10.5853
 20
22.5423
 11
10.2941
 21
22.5855
  0
LINE
  8
0
 10
10.2941
 20
22.5855
 11
10
 21
22.6
  0
LINE
  8
0
 10
10
 20
22.6
 11
-10
 21
22.6
  0
LINE
  8
0
 10
-10
 20
22.6
 11
-10.2941
 21
22.5855
  0
LINE
  8
0
 10
-10.2941
 20
22.5855
 11
-10.5853
 21
22.5423
  0
LINE
  8
0
 10
-10.5853
 20
22.5423
 11
-10.8708
 21
22.4708
  0
LINE
  8
0
 10
-10.8708
 20
22.4708
 11
-11.1481
 21
22.3716
  0
LINE
  8
0
 10
-11.1481
 20
22.3716
 11
-11.4142
 21
22.2458
  0
LINE
  8
0
 10
-11.4142
 20
22.2458
 11
-11.6667
 21
22.0944
  0
LINE
  8
0
 10
-11.6667
 20
22.0944
 11
-11.9032
 21
21.919
  0
LINE
  8
0
 10
-11.9032
 20
21.919
 11
-12.1213
 21
21.7213
  0
LINE
  8
0
 10
-12.1213
 20
21.7213
 11
-12.319
 21
21.5032
  0
LINE
  8
0
 10
-12.319
 20
21.5032
 11
-12.4944
 21
21.2667
  0
LINE
  8
0
 10
-12.4944
 20
21.2667
 11
-12.6458
 21
21.0142
  0
LINE
  8
0
 10
-12.6458
 20
21.0142
 11
-12.7716
 21
20.748
  0
LINE
  8
0
 10
-12.7716
 20
20.748
 11
-14.6194
 21
16.1334
  0
LINE
  8
0
 10
-14.6194
 20
16.1334
 11
-14.7847
 21
15.6714
  0
LINE
  8
0
 10
-14.7847
 20
15.6714
 11
-14.9039
 21
15.1954
  0
LINE
  8
0
 10
-14.9039
 20
15.1954
 11
-14.9759
 21
14.7101
  0
LINE
  8
0
 10
-14.9759
 20
14.7101
 11
-15
 21
14.22
  0
LINE
  8
0
 10
-15
 20
14.22
 11
-15
 21
13.598
  0
LINE
  8
0
 10
-15
 20
13.598
 11
-14.973
 21
13.6344
  0
LINE
  8
0
 10
-14.973
 20
13.6344
 11
-14.9071
 21
13.7071
  0
LINE
  8
0
 10
-14.9071
 20
13.7071
 11
-14.8344
 21
13.773
  0
LINE
  8
0
 10
-14.8344
 20
13.773
 11
-14.7556
 21
13.8315
  0
LINE
  8
0
 10
-14.7556
 20
13.8315
 11
-14.6714
 21
13.8819
  0
LINE
  8
0
 10
-14.6714
 20
13.8819
 11
-14.5827
 21
13.9239
  0
LINE
  8
0
 10
-14.5827
 20
13.9239
 11
-14.4903
 21
13.9569
  0
LINE
  8
0
 10
-14.4903
 20
13.9569
 11
-14.3951
 21
13.9808
  0
LINE
  8
0
 10
-14.3951
 20
13.9808
 11
-14.298
 21
13.9952
  0
LINE
  8
0
 10
-14.298
 20
13.9952
 11
-14.2
 21
14
  0
LINE
  8
0
 10
-14.2
 20
14
 11
-13.8
 21
14
  0
LINE
  8
0
 10
-13.8
 20
14
 11
-13.702
 21
13.9952
  0
LINE
  8
0
 10
-13.702
 20
13.9952
 11
-13.6049
 21
13.9808
  0
LINE
  8
0
 10
-13.6049
 20
13.9808
 11
-13.5097
 21
13.9569
  0
LINE
  8
0
 10
-13.5097
 20
13.9569
 11
-13.4173
 21
13.9239
  0
LINE
  8
0
 10
-13.4173
 20
13.9239
 11
-13.3286
 21
13.8819
  0
LINE
  8
0
 10
-13.3286
 20
13.8819
 11
-13.2444
 21
13.8315
  0
LINE
  8
0
 10
-13.2444
 20
13.8315
 11
-13.2076
 21
13.8042
  0
LINE
  8
0
 10
-13.2076
 20
13.8042
 11
-13.1901
 21
13.8125
  0
LINE
  8
0
 10
-13.1901
 20
13.8125
 11
-13.0838
 21
13.8505
  0
LINE
  8
0
 10
-13.0838
 20
13.8505
 11
-12.9743
 21
13.8779
  0
LINE
  8
0
 10
-12.9743
 20
13.8779
 11
-12.8627
 21
13.8945
  0
LINE
  8
0
 10
-12.8627
 20
13.8945
 11
-12.75
 21
13.9
  0
LINE
  8
0
 10
-12.75
 20
13.9
 11
-12.6373
 21
13.8945
  0
LINE
  8
0
 10
-12.6373
 20
13.8945
 11
-12.5256
 21
13.8779
  0
LINE
  8
0
 10
-12.5256
 20
13.8779
 11
-12.4162
 21
13.8505
  0
LINE
  8
0
 10
-12.4162
 20
13.8505
 11
-12.3099
 21
13.8125
  0
LINE
  8
0
 10
-12.3099
 20
13.8125
 11
-12.2079
 21
13.7642
  0
LINE
  8
0
 10
-12.2079
 20
13.7642
 11
-12.1111
 21
13.7062
  0
LINE
  8
0
 10
-12.1111
 20
13.7062
 11
-12.0204
 21
13.639
  0
LINE
  8
0
 10
-12.0204
 20
13.639
 11
-11.9368
 21
13.5632
  0
LINE
  8
0
 10
-11.9368
 20
13.5632
 11
-11.861
 21
13.4795
  0
LINE
  8
0
 10
-11.861
 20
13.4795
 11
-11.7938
 21
13.3889
  0
LINE
  8
0
 10
-11.7938
 20
13.3889
 11
-11.7358
 21
13.2921
  0
LINE
  8
0
 10
-11.7358
 20
13.2921
 11
-11.6875
 21
13.1901
  0
LINE
  8
0
 10
-11.6875
 20
13.1901
 11
-11.6495
 21
13.0838
  0
LINE
  8
0
 10
-11.6495
 20
13.0838
 11
-11.6221
 21
12.9743
  0
LINE
  8
0
 10
-11.6221
 20
12.9743
 11
-11.6055
 21
12.8627
  0
LINE
  8
0
 10
-11.6055
 20
12.8627
 11
-11.6
 21
12.75
  0
LINE
  8
0
 10
-11.6
 20
12.75
 11
-11.6055
 21
12.6373
  0
LINE
  8
0
 10
-11.6055
 20
12.6373
 11
-11.6221
 21
12.5256
  0
LINE
  8
0
 10
-11.6221
 20
12.5256
 11
-11.6495
 21
12.4162
  0
LINE
  8
0
 10
-11.6495
 20
12.4162
 11
-11.6875
 21
12.3099
  0
LINE
  8
0
 10
-11.6875
 20
12.3099
 11
-11.7358
 21
12.2079
  0
LINE
  8
0
 10
-11.7358
 20
12.2079
 11
-11.7938
 21
12.1111
  0
LINE
  8
0
 10
-11.7938
 20
12.1111
 11
-11.861
 21
12.0204
  0
LINE
  8
0
 10
-11.861
 20
12.0204
 11
-11.9368
 21
11.9368
  0
LINE
  8
0
 10
-11.9368
 20
11.9368
 11
-12.0204
 21
11.861
  0
LINE
  8
0
 10
-12.0204
 20
11.861
 11
-12.1111
 21
11.7938
  0
LINE
  8
0
 10
-12.1111
 20
11.7938
 11
-12.2079
 21
11.7358
  0
LINE
  8
0
 10
-12.2079
 20
11.7358
 11
-12.3099
 21
11.6875
  0
LINE
  8
0
 10
-12.3099
 20
11.6875
 11
-12.4162
 21
11.6495
  0
LINE
  8
0
 10
-12.4162
 20
11.6495
 11
-12.5256
 21
11.6221
  0
LINE
  8
0
 10
-12.5256
 20
11.6221
 11
-12.6373
 21
11.6055
  0
LINE
  8
0
 10
-12.6373
 20
11.6055
 11
-12.75
 21
11.6
  0
LINE
  8
0
 10
-12.75
 20
11.6
 11
-12.8
 21
11.6024
  0
LINE
  8
0
 10
-12.8
 20
11.6024
 11
-12.8
 21
7
  0
LINE
  8
0
 10
-12.8
 20
7
 11
-12.8048
 21
6.90198
  0
LINE
  8
0
 10
-12.8048
 20
6.90198
 11
-12.8192
 21
6.80492
  0
LINE
  8
0
 10
-12.8192
 20
6.80492
 11
-12.8431
 21
6.70972
  0
LINE
  8
0
 10
-12.8431
 20
6.70972
 11
-12.8761
 21
6.61731
  0
LINE
  8
0
 10
-12.8761
 20
6.61731
 11
-12.9181
 21
6.52861
  0
LINE
  8
0
 10
-12.9181
 20
6.52861
 11
-12.9685
 21
6.44443
  0
LINE
  8
0
 10
-12.9685
 20
6.44443
 11
-13.027
 21
6.3656
  0
LINE
  8
0
 10
-13.027
 20
6.3656
 11
-13.0929
 21
6.29289
  0
LINE
  8
0
 10
-13.0929
 20
6.29289
 11
-13.1656
 21
6.22699
  0
LINE
  8
0
 10
-13.1656
 20
6.22699
 11
-13.2444
 21
6.16853
  0
LINE
  8
0
 10
-13.2444
 20
6.16853
 11
-13.3286
 21
6.11807
  0
LINE
  8
0
 10
-13.3286
 20
6.11807
 11
-13.4173
 21
6.07613
  0
LINE
  8
0
 10
-13.4173
 20
6.07613
 11
-13.5097
 21
6.04306
  0
LINE
  8
0
 10
-13.5097
 20
6.04306
 11
-13.6049
 21
6.01921
  0
LINE
  8
0
 10
-13.6049
 20
6.01921
 11
-13.702
 21
6.00482
  0
LINE
  8
0
 10
-13.702
 20
6.00482
 11
-13.8
 21
6
  0
LINE
  8
0
 10
-13.8
 20
6
 11
-14.2
 21
6
  0
LINE
  8
0
 10
-14.2
 20
6
 11
-14.298
 21
6.00482
  0
LINE
  8
0
 10
-14.298
 20
6.00482
 11
-14.3951
 21
6.01921
  0
LINE
  8
0
 10
-14.3951
 20
6.01921
 11
-14.4903
 21
6.04306
  0
LINE
  8
0
 10
-14.4903
 20
6.04306
 11
-14.5827
 21
6.07613
  0
LINE
  8
0
 10
-14.5827
 20
6.07613
 11
-14.6714
 21
6.11807
  0
LINE
  8
0
 10
-14.6714
 20
6.11807
 11
-14.7556
 21
6.16853
  0
LINE
  8
0
 10
-14.7556
 20
6.16853
 11
-14.8344
 21
6.22699
  0
LINE
  8
0
 10
-14.8344
 20
6.22699
 11
-14.9071
 21
6.29289
  0
LINE
  8
0
 10
-14.9071
 20
6.29289
 11
-14.973
 21
6.3656
  0
LINE
  8
0
 10
-14.973
 20
6.3656
 11
-15
 21
6.40199
  0
LINE
  8
0
 10
-15
 20
6.40199
 11
-15
 21
-6.40199
  0
LINE
  8
0
 10
-15
 20
-6.40199
 11
-14.973
 21
-6.3656
  0
LINE
  8
0
 10
-14.973
 20
-6.3656
 11
-14.9071
 21
-6.29289
  0
LINE
  8
0
 10
-14.9071
 20
-6.29289
 11
-14.8344
 21
-6.22699
  0
LINE
  8
0
 10
-14.8344
 20
-6.22699
 11
-14.7556
 21
-6.16853
  0
LINE
  8
0
 10
-14.7556
 20
-6.16853
 11
-14.6714
 21
-6.11807
  0
LINE
  8
0
 10
-14.6714
 20
-6.11807
 11
-14.5827
 21
-6.07613
  0
LINE
  8
0
 10
-14.5827
 20
-6.07613
 11
-14.4903
 21
-6.04306
  0
LINE
  8
0
 10
-14.4903
 20
-6.04306
 11
-14.3951
 21
-6.01921
  0
LINE
  8
0
 10
-14.3951
 20
-6.01921
 11
-14.298
 21
-6.00482
  0
LINE
  8
0
 10
-14.298
 20
-6.00482
 11
-14.2
 21
-6
  0
LINE
  8
0
 10
-14.2
 20
-6
 11
-13.8
 21
-6
  0
LINE
  8
0
 10
-13.8
 20
-6
 11
-13.702
 21
-6.00482
  0
LINE
  8
0
 10
-13.702
 20
-6.00482
 11
-13.6049
 21
-6.01921
  0
LINE
  8
0
 10
-13.6049
 20
-6.01921
 11
-13.5097
 21
-6.04306
  0
LINE
  8
0
 10
-13.5097
 20
-6.04306
 11
-13.4173
 21
-6.07613
  0
LINE
  8
0
 10
-13.4173
 20
-6.07613
 11
-13.3286
 21
-6.11807
  0
LINE
  8
0
 10
-13.3286
 20
-6.11807
 11
-13.2444
 21
-6.16853
  0
LINE
  8
0
 10
-13.2444
 20
-6.16853
 11
-13.1656
 21
-6.22699
  0
LINE
  8
0
 10
-13.1656
 20
-6.22699
 11
-13.0929
 21
-6.29289
  0
LINE
  8
0
 10
-13.0929
 20
-6.29289
 11
-13.027
 21
-6.3656
  0
LINE
  8
0
 10
-13.027
 20
-6.3656
 11
-12.9685
 21
-6.44443
  0
LINE
  8
0
 10
-12.9685
 20
-6.44443
 11
-12.9181
 21
-6.52861
  0
LINE
  8
0
 10
-12.9181
 20
-6.52861
 11
-12.8761
 21
-6.61731
  0
LINE
  8
0
 10
-12.8761
 20
-6.61731
 11
-12.8431
 21
-6.70972
  0
LINE
  8
0
 10
-12.8431
 20
-6.70972
 11
-12.8192
 21
-6.80492
  0
LINE
  8
0
 10
-12.8192
 20
-6.80492
 11
-12.8048
 21
-6.90198
  0
LINE
  8
0
 10
-12.8048
 20
-6.90198
 11
-12.8
 21
-7
  0
LINE
  8
0
 10
-12.8
 20
-7
 11
-12.8
 21
-11.6024
  0
LINE
  8
0
 10
-12.8
 20
-11.6024
 11
-12.75
 21
-11.6
  0
LINE
  8
0
 10
-12.75
 20
-11.6
 11
-12.6373
 21
-11.6055
  0
LINE
  8
0
 10
-12.6373
 20
-11.6055
 11
-12.5256
 21
-11.6221
  0
LINE
  8
0
 10
-12.5256
 20
-11.6221
 11
-12.4162
 21
-11.6495
  0
LINE
  8
0
 10
-12.4162
 20
-11.6495
 11
-12.3099
 21
-11.6875
  0
LINE
  8
0
 10
-12.3099
 20
-11.6875
 11
-12.2079
 21
-11.7358
  0
LINE
  8
0
 10
-12.2079
 20
-11.7358
 11
-12.1111
 21
-11.7938
  0
LINE
  8
0
 10
-12.1111
 20
-11.7938
 11
-12.0204
 21
-11.861
  0
LINE
  8
0
 10
-12.0204
 20
-11.861
 11
-11.9368
 21
-11.9368
  0
LINE
  8
0
 10
-11.9368
 20
-11.9368
 11
-11.861
 21
-12.0204
  0
LINE
  8
0
 10
-11.861
 20
-12.0204
 11
-11.7938
 21
-12.1111
  0
LINE
  8
0
 10
-11.7938
 20
-12.1111
 11
-11.7358
 21
-12.2079
  0
LINE
  8
0
 10
-11.7358
 20
-12.2079
 11
-11.6875
 21
-12.3099
  0
LINE
  8
0
 10
-11.6875
 20
-12.3099
 11
-11.6495
 21
-12.4162
  0
LINE
  8
0
 10
-11.6495
 20
-12.4162
 11
-11.6221
 21
-12.5256
  0
LINE
  8
0
 10
-11.6221
 20
-12.5256
 11
-11.6055
 21
-12.6373
  0
LINE
  8
0
 10
-11.6055
 20
-12.6373
 11
-11.6
 21
-12.75
  0
LINE
  8
0
 10
-11.6
 20
-12.75
 11
-11.6055
 21
-12.8627
  0
LINE
  8
0
 10
-11.6055
 20
-12.8627
 11
-11.6221
 21
-12.9743
  0
LINE
  8
0
 10
-11.6221
 20
-12.9743
 11
-11.6495
 21
-13.0838
  0
LINE
  8
0
 10
-11.6495
 20
-13.0838
 11
-11.6875
 21
-13.1901
  0
LINE
  8
0
 10
-11.6875
 20
-13.1901
 11
-11.7358
 21
-13.2921
  0
LINE
  8
0
 10
-11.7358
 20
-13.2921
 11
-11.7938
 21
-13.3889
  0
LINE
  8
0
 10
-11.7938
 20
-13.3889
 11
-11.861
 21
-13.4795
  0
LINE
  8
0
 10
-11.861
 20
-13.4795
 11
-11.9368
 21
-13.5632
  0
LINE
  8
0
 10
-11.9368
 20
-13.5632
 11
-12.0204
 21
-13.639
  0
LINE
  8
0
 10
-12.0204
 20
-13.639
 11
-12.1111
 21
-13.7062
  0
LINE
  8
0
 10
-12.1111
 20
-13.7062
 11
-12.2079
 21
-13.7642
  0
LINE
  8
0
 10
-12.2079
 20
-13.7642
 11
-12.3099
 21
-13.8125
  0
LINE
  8
0
 10
-12.3099
 20
-13.8125
 11
-12.4162
 21
-13.8505
  0
LINE
  8
0
 10
-12.4162
 20
-13.8505
 11
-12.5256
 21
-13.8779
  0
LINE
  8
0
 10
-12.5256
 20
-13.8779
 11
-12.6373
 21
-13.8945
  0
LINE
  8
0
 10
-12.6373
 20
-13.8945
 11
-12.75
 21
-13.9
  0
LINE
  8
0
 10
-12.75
 20
-13.9
 11
-12.8627
 21
-13.8945
  0
LINE
  8
0
 10
-12.8627
 20
-13.8945
 11
-12.9743
 21
-13.8779
  0
LINE
  8
0
 10
-12.9743
 20
-13.8779
 11
-13.0838
 21
-13.8505
  0
LINE
  8
0
 10
-13.0838
 20
-13.8505
 11
-13.1901
 21
-13.8125
  0
LINE
  8
0
 10
-13.1901
 20
-13.8125
 11
-13.2076
 21
-13.8042
  0
LINE
  8
0
 10
-13.2076
 20
-13.8042
 11
-13.2444
 21
-13.8315
  0
LINE
  8
0
 10
-13.2444
 20
-13.8315
 11
-13.3286
 21
-13.8819
  0
LINE
  8
0
 10
-13.3286
 20
-13.8819
 11
-13.4173
 21
-13.9239
  0
LINE
  8
0
 10
-13.4173
 20
-13.9239
 11
-13.5097
 21
-13.9569
  0
LINE
  8
0
 10
-13.5097
 20
-13.9569
 11
-13.6049
 21
-13.9808
  0
LINE
  8
0
 10
-13.6049
 20
-13.9808
 11
-13.702
 21
-13.9952
  0
LINE
  8
0
 10
-13.702
 20
-13.9952
 11
-13.8
 21
-14
  0
LINE
  8
0
 10
-13.8
 20
-14
 11
-14.2
 21
-14
  0
LINE
  8
0
 10
-14.2
 20
-14
 11
-14.298
 21
-13.9952
  0
LINE
  8
0
 10
-14.298
 20
-13.9952
 11
-14.3951
 21
-13.9808
  0
LINE
  8
0
 10
-14.3951
 20
-13.9808
 11
-14.4903
 21
-13.9569
  0
LINE
  8
0
 10
-14.4903
 20
-13.9569
 11
-14.5827
 21
-13.9239
  0
LINE
  8
0
 10
-14.5827
 20
-13.9239
 11
-14.6714
 21
-13.8819
  0
LINE
  8
0
 10
-14.6714
 20
-13.8819
 11
-14.7556
 21
-13.8315
  0
LINE
  8
0
 10
-14.7556
 20
-13.8315
 11
-14.8344
 21
-13.773
  0
LINE
  8
0
 10
-14.8344
 20
-13.773
 11
-14.9071
 21
-13.7071
  0
LINE
  8
0
 10
-14.9071
 20
-13.7071
 11
-14.973
 21
-13.6344
  0
LINE
  8
0
 10
-14.973
 20
-13.6344
 11
-15
 21
-13.598
  0
LINE
  8
0
 10
-15
 20
-13.598
 11
-15
 21
-14.22
  0
LINE
  8
0
 10
-15
 20
-14.22
 11
-14.9759
 21
-14.7101
  0
LINE
  8
0
 10
-14.9759
 20
-14.7101
 11
-14.9039
 21
-15.1954
  0
LINE
  8
0
 10
-14.9039
 20
-15.1954
 11
-14.7847
 21
-15.6714
  0
LINE
  8
0
 10
-14.7847
 20
-15.6714
 11
-14.6194
 21
-16.1334
  0
LINE
  8
0
 10
-14.6194
 20
-16.1334
 11
-14.4096
 21
-16.577
  0
LINE
  8
0
 10
-14.4096
 20
-16.577
 11
-14.1573
 21
-16.9978
  0
LINE
  8
0
 10
-14.1573
 20
-16.9978
 11
-13.8651
 21
-17.392
  0
LINE
  8
0
 10
-13.8651
 20
-17.392
 11
-13.5355
 21
-17.7555
  0
LINE
  8
0
 10
-13.5355
 20
-17.7555
 11
-13.172
 21
-18.085
  0
LINE
  8
0
 10
-13.172
 20
-18.085
 11
-12.7778
 21
-18.3773
  0
LINE
  8
0
 10
-12.7778
 20
-18.3773
 11
-12.357
 21
-18.6296
  0
LINE
  8
0
 10
-12.357
 20
-18.6296
 11
-11.9134
 21
-18.8394
  0
LINE
  8
0
 10
-11.9134
 20
-18.8394
 11
-11.4514
 21
-19.0047
  0
LINE
  8
0
 10
-11.4514
 20
-19.0047
 11
-10.9754
 21
-19.1239
  0
LINE
  8
0
 10
-10.9754
 20
-19.1239
 11
-10.4901
 21
-19.1959
  0
LINE
  8
0
 10
-10.4901
 20
-19.1959
 11
-10
 21
-19.22
  0
LINE
  8
0
 10
-10
 20
-19.22
 11
10
 21
-19.22
  0
LINE
  8
0
 10
10
 20
-19.22
 11
10.4901
 21
-19.1959
  0
LINE
  8
0
 10
-9.13721
 20
4.34398
 11
-9.27312
 21
4.36414
  0
LINE
  8
0
 10
-9.27312
 20
4.36414
 11
-9.40639
 21
4.39752
  0
LINE
  8
0
 10
-9.40639
 20
4.39752
 11
-9.53575
 21
4.44382
  0
LINE
  8
0
 10
-9.53575
 20
4.44382
 11
-9.65994
 21
4.50255
  0
LINE
  8
0
 10
-9.65994
 20
4.50255
 11
-9.77779
 21
4.57318
  0
LINE
  8
0
 10
-9.77779
 20
4.57318
 11
-9.88815
 21
4.65503
  0
LINE
  8
0
 10
-9.88815
 20
4.65503
 11
-9.98994
 21
4.7473
  0
LINE
  8
0
 10
-9.98994
 20
4.7473
 11
-12.2527
 21
7.01004
  0
LINE
  8
0
 10
-12.2527
 20
7.01004
 11
-12.345
 21
7.11183
  0
LINE
  8
0
 10
-12.345
 20
7.11183
 11
-12.4268
 21
7.2222
  0
LINE
  8
0
 10
-12.4268
 20
7.2222
 11
-12.4974
 21
7.34004
  0
LINE
  8
0
 10
-12.4974
 20
7.34004
 11
-12.5562
 21
7.46423
  0
LINE
  8
0
 10
-12.5562
 20
7.46423
 11
-12.6025
 21
7.5936
  0
LINE
  8
0
 10
-12.6025
 20
7.5936
 11
-12.6358
 21
7.72687
  0
LINE
  8
0
 10
-12.6358
 20
7.72687
 11
-12.656
 21
7.86278
  0
LINE
  8
0
 10
-12.656
 20
7.86278
 11
-12.6627
 21
8
  0
LINE
  8
0
 10
-12.6627
 20
8
 11
-12.656
 21
8.13721
  0
LINE
  8
0
 10
-12.656
 20
8.13721
 11
-12.6358
 21
8.27312
  0
LINE
  8
0
 10
-12.6358
 20
8.27312
 11
-12.6025
 21
8.40639
  0
LINE
  8
0
 10
-12.6025
 20
8.40639
 11
-12.5562
 21
8.53575
  0
LINE
  8
0
 10
-12.5562
 20
8.53575
 11
-12.4974
 21
8.65994
  0
LINE
  8
0
 10
-12.4974
 20
8.65994
 11
-12.4268
 21
8.77779
  0
LINE
  8
0
 10
-12.4268
 20
8.77779
 11
-12.345
 21
8.88815
  0
LINE
  8
0
 10
-12.345
 20
8.88815
 11
-12.2527
 21
8.98994
  0
LINE
  8
0
 10
-12.2527
 20
8.98994
 11
-9.98994
 21
11.2527
  0
LINE
  8
0
 10
-9.98994
 20
11.2527
 11
-9.88815
 21
11.345
  0
LINE
  8
0
 10
-9.88815
 20
11.345
 11
-9.77779
 21
11.4268
  0
LINE
  8
0
 10
-9.77779
 20
11.4268
 11
-9.65994
 21
11.4974
  0
LINE
  8
0
 10
-9.65994
 20
11.4974
 11
-9.53575
 21
11.5562
  0
LINE
  8
0
 10
-9.53575
 20
11.5562
 11
-9.40639
 21
11.6025
  0
LINE
  8
0
 10
-9.40639
 20
11.6025
 11
-9.27312
 21
11.6358
  0
LINE
  8
0
 10
-9.27312
 20
11.6358
 11
-9.13721
 21
11.656
  0
LINE
  8
0
 10
-9.13721
 20
11.656
 11
-9
 21
11.6627
  0
LINE
  8
0
 10
-9
 20
11.6627
 11
-8.86278
 21
11.656
  0
LINE
  8
0
 10
-8.86278
 20
11.656
 11
-8.72687
 21
11.6358
  0
LINE
  8
0
 10
-8.72687
 20
11.6358
 11
-8.5936
 21
11.6025
  0
LINE
  8
0
 10
-8.5936
 20
11.6025
 11
-8.46423
 21
11.5562
  0
LINE
  8
0
 10
-8.46423
 20
11.5562
 11
-8.34004
 21
11.4974
  0
LINE
  8
0
 10
-8.34004
 20
11.4974
 11
-8.2222
 21
11.4268
  0
LINE
  8
0
 10
-8.2222
 20
11.4268
 11
-8.11183
 21
11.345
  0
LINE
  8
0
 10
-8.11183
 20
11.345
 11
-8.01004
 21
11.2527
  0
LINE
  8
0
 10
-8.01004
 20
11.2527
 11
-5.7473
 21
8.98994
  0
LINE
  8
0
 10
-5.7473
 20
8.98994
 11
-5.65503
 21
8.88815
  0
LINE
  8
0
 10
-5.65503
 20
8.88815
 11
-5.57318
 21
8.77779
  0
LINE
  8
0
 10
-5.57318
 20
8.77779
 11
-5.50255
 21
8.65994
  0
LINE
  8
0
 10
-5.50255
 20
8.65994
 11
-5.44382
 21
8.53575
  0
LINE
  8
0
 10
-5.44382
 20
8.53575
 11
-5.39752
 21
8.40639
  0
LINE
  8
0
 10
-5.39752
 20
8.40639
 11
-5.36414
 21
8.27312
  0
LINE
  8
0
 10
-5.36414
 20
8.27312
 11
-5.34398
 21
8.13721
  0
LINE
  8
0
 10
-5.34398
 20
8.13721
 11
-5.33725
 21
8
  0
LINE
  8
0
 10
-5.33725
 20
8
 11
-5.34398
 21
7.86278
  0
LINE
  8
0
 10
-5.34398
 20
7.86278
 11
-5.36414
 21
7.72687
  0
LINE
  8
0
 10
-5.36414
 20
7.72687
 11
-5.39752
 21
7.5936
  0
LINE
  8
0
 10
-5.39752
 20
7.5936
 11
-5.44382
 21
7.46423
  0
LINE
  8
0
 10
-5.44382
 20
7.46423
 11
-5.50255
 21
7.34004
  0
LINE
  8
0
 10
-5.50255
 20
7.34004
 11
-5.57318
 21
7.2222
  0
LINE
  8
0
 10
-5.57318
 20
7.2222
 11
-5.65503
 21
7.11183
  0
LINE
  8
0
 10
-5.65503
 20
7.11183
 11
-5.7473
 21
7.01004
  0
LINE
  8
0
 10
-5.7473
 20
7.01004
 11
-8.01004
 21
4.7473
  0
LINE
  8
0
 10
-8.01004
 20
4.7473
 11
-8.11183
 21
4.65503
  0
LINE
  8
0
 10
-8.11183
 20
4.65503
 11
-8.2222
 21
4.57318
  0
LINE
  8
0
 10
-8.2222
 20
4.57318
 11
-8.34004
 21
4.50255
  0
LINE
  8
0
 10
-8.34004
 20
4.50255
 11
-8.46423
 21
4.44382
  0
LINE
  8
0
 10
-8.46423
 20
4.44382
 11
-8.5936
 21
4.39752
  0
LINE
  8
0
 10
-8.5936
 20
4.39752
 11
-8.72687
 21
4.36414
  0
LINE
  8
0
 10
-8.72687
 20
4.36414
 11
-8.86278
 21
4.34398
  0
LINE
  8
0
 10
-8.86278
 20
4.34398
 11
-9
 21
4.33725
  0
LINE
  8
0
 10
-9
 20
4.33725
 11
-9.13721
 21
4.34398
  0
LINE
  8
0
 10
8.86278
 20
4.34398
 11
8.72687
 21
4.36414
  0
LINE
  8
0
 10
8.72687
 20
4.36414
 11
8.5936
 21
4.39752
  0
LINE
  8
0
 10
8.5936
 20
4.39752
 11
8.46423
 21
4.44382
  0
LINE
  8
0
 10
8.46423
 20
4.44382
 11
8.34004
 21
4.50255
  0
LINE
  8
0
 10
8.34004
 20
4.50255
 11
8.2222
 21
4.57318
  0
LINE
  8
0
 10
8.2222
 20
4.57318
 11
8.11183
 21
4.65503
  0
LINE
  8
0
 10
8.11183
 20
4.65503
 11
8.01004
 21
4.7473
  0
LINE
  8
0
 10
8.01004
 20
4.7473
 11
5.7473
 21
7.01004
  0
LINE
  8
0
 10
5.7473
 20
7.01004
 11
5.65503
 21
7.11183
  0
LINE
  8
0
 10
5.65503
 20
7.11183
 11
5.57318
 21
7.2222
  0
LINE
  8
0
 10
5.57318
 20
7.2222
 11
5.50255
 21
7.34004
  0
LINE
  8
0
 10
5.50255
 20
7.34004
 11
5.44382
 21
7.46423
  0
LINE
  8
0
 10
5.44382
 20
7.46423
 11
5.39752
 21
7.5936
  0
LINE
  8
0
 10
5.39752
 20
7.5936
 11
5.36414
 21
7.72687
  0
LINE
  8
0
 10
5.36414
 20
7.72687
 11
5.34398
 21
7.86278
  0
LINE
  8
0
 10
5.34398
 20
7.86278
 11
5.33725
 21
8
  0
LINE
  8
0
 10
5.33725
 20
8
 11
5.34398
 21
8.13721
  0
LINE
  8
0
 10
5.34398
 20
8.13721
 11
5.36414
 21
8.27312
  0
LINE
  8
0
 10
5.36414
 20
8.27312
 11
5.39752
 21
8.40639
  0
LINE
  8
0
 10
5.39752
 20
8.40639
 11
5.44382
 21
8.53575
  0
LINE
  8
0
 10
5.44382
 20
8.53575
 11
5.50255
 21
8.65994
  0
LINE
  8
0
 10
5.50255
 20
8.65994
 11
5.57318
 21
8.77779
  0
LINE
  8
0
 10
5.57318
 20
8.77779
 11
5.65503
 21
8.88815
  0
LINE
  8
0
 10
5.65503
 20
8.88815
 11
5.7473
 21
8.98994
  0
LINE
  8
0
 10
5.7473
 20
8.98994
 11
8.01004
 21
11.2527
  0
LINE
  8
0
 10
8.01004
 20
11.2527
 11
8.11183
 21
11.345
  0
LINE
  8
0
 10
8.11183
 20
11.345
 11
8.2222
 21
11.4268
  0
LINE
  8
0
 10
8.2222
 20
11.4268
 11
8.34004
 21
11.4974
  0
LINE
  8
0
 10
8.34004
 20
11.4974
 11
8.46423
 21
11.5562
  0
LINE
  8
0
 10
8.46423
 20
11.5562
 11
8.5936
 21
11.6025
  0
LINE
  8
0
 10
8.5936
 20
11.6025
 11
8.72687
 21
11.6358
  0
LINE
  8
0
 10
8.72687
 20
11.6358
 11
8.86278
 21
11.656
  0
LINE
  8
0
 10
8.86278
 20
11.656
 11
9
 21
11.6627
  0
LINE
  8
0
 10
9
 20
11.6627
 11
9.13721
 21
11.656
  0
LINE
  8
0
 10
9.13721
 20
11.656
 11
9.27312
 21
11.6358
  0
LINE
  8
0
 10
9.27312
 20
11.6358
 11
9.40639
 21
11.6025
  0
LINE
  8
0
 10
9.40639
 20
11.6025
 11
9.53575
 21
11.5562
  0
LINE
  8
0
 10
9.53575
 20
11.5562
 11
9.65994
 21
11.4974
  0
LINE
  8
0
 10
9.65994
 20
11.4974
 11
9.77779
 21
11.4268
  0
LINE
  8
0
 10
9.77779
 20
11.4268
 11
9.88815
 21
11.345
  0
LINE
  8
0
 10
9.88815
 20
11.345
 11
9.98994
 21
11.2527
  0
LINE
  8
0
 10
9.98994
 20
11.2527
 11
12.2527
 21
8.98994
  0
LINE
  8
0
 10
12.2527
 20
8.98994
 11
12.345
 21
8.88815
  0
LINE
  8
0
 10
12.345
 20
8.88815
 11
12.4268
 21
8.77779
  0
LINE
  8
0
 10
12.4268
 20
8.77779
 11
12.4974
 21
8.65994
  0
LINE
  8
0
 10
12.4974
 20
8.65994
 11
12.5562
 21
8.53575
  0
LINE
  8
0
 10
12.5562
 20
8.53575
 11
12.6025
 21
8.40639
  0
LINE
  8
0
 10
12.6025
 20
8.40639
 11
12.6358
 21
8.27312
  0
LINE
  8
0
 10
12.6358
 20
8.27312
 11
12.656
 21
8.13721
  0
LINE
  8
0
 10
12.656
 20
8.13721
 11
12.6627
 21
8
  0
LINE
  8
0
 10
12.6627
 20
8
 11
12.656
 21
7.86278
  0
LINE
  8
0
 10
12.656
 20
7.86278
 11
12.6358
 21
7.72687
  0
LINE
  8
0
 10
12.6358
 20
7.72687
 11
12.6025
 21
7.5936
  0
LINE
  8
0
 10
12.6025
 20
7.5936
 11
12.5562
 21
7.46423
  0
LINE
  8
0
 10
12.5562
 20
7.46423
 11
12.4974
 21
7.34004
  0
LINE
  8
0
 10
12.4974
 20
7.34004
 11
12.4268
 21
7.2222
  0
LINE
  8
0
 10
12.4268
 20
7.2222
 11
12.345
 21
7.11183
  0
LINE
  8
0
 10
12.345
 20
7.11183
 11
12.2527
 21
7.01004
  0
LINE
  8
0
 10
12.2527
 20
7.01004
 11
9.98994
 21
4.7473
  0
LINE
  8
0
 10
9.98994
 20
4.7473
 11
9.88815
 21
4.65503
  0
LINE
  8
0
 10
9.88815
 20
4.65503
 11
9.77779
 21
4.57318
  0
LINE
  8
0
 10
9.77779
 20
4.57318
 11
9.65994
 21
4.50255
  0
LINE
  8
0
 10
9.65994
 20
4.50255
 11
9.53575
 21
4.44382
  0
LINE
  8
0
 10
9.53575
 20
4.44382
 11
9.40639
 21
4.39752
  0
LINE
  8
0
 10
9.40639
 20
4.39752
 11
9.27312
 21
4.36414
  0
LINE
  8
0
 10
9.27312
 20
4.36414
 11
9.13721
 21
4.34398
  0
LINE
  8
0
 10
9.13721
 20
4.34398
 11
9
 21
4.33725
  0
LINE
  8
0
 10
9
 20
4.33725
 11
8.86278
 21
4.34398
  0
LINE
  8
0
 10
-9.13721
 20
-11.656
 11
-9.27312
 21
-11.6358
  0
LINE
  8
0
 10
-9.27312
 20
-11.6358
 11
-9.40639
 21
-11.6025
  0
LINE
  8
0
 10
-9.40639
 20
-11.6025
 11
-9.53575
 21
-11.5562
  0
LINE
  8
0
 10
-9.53575
 20
-11.5562
 11
-9.65994
 21
-11.4974
  0
LINE
  8
0
 10
-9.65994
 20
-11.4974
 11
-9.77779
 21
-11.4268
  0
LINE
  8
0
 10
-9.77779
 20
-11.4268
 11
-9.88815
 21
-11.345
  0
LINE
  8
0
 10
-9.88815
 20
-11.345
 11
-9.98994
 21
-11.2527
  0
LINE
  8
0
 10
-9.98994
 20
-11.2527
 11
-12.2527
 21
-8.98994
  0
LINE
  8
0
 10
-12.2527
 20
-8.98994
 11
-12.345
 21
-8.88815
  0
LINE
  8
0
 10
-12.345
 20
-8.88815
 11
-12.4268
 21
-8.77779
  0
LINE
  8
0
 10
-12.4268
 20
-8.77779
 11
-12.4974
 21
-8.65994
  0
LINE
  8
0
 10
-12.4974
 20
-8.65994
 11
-12.5562
 21
-8.53575
  0
LINE
  8
0
 10
-12.5562
 20
-8.53575
 11
-12.6025
 21
-8.40639
  0
LINE
  8
0
 10
-12.6025
 20
-8.40639
 11
-12.6358
 21
-8.27312
  0
LINE
  8
0
 10
-12.6358
 20
-8.27312
 11
-12.656
 21
-8.13721
  0
LINE
  8
0
 10
-12.656
 20
-8.13721
 11
-12.6627
 21
-8
  0
LINE
  8
0
 10
-12.6627
 20
-8
 11
-12.656
 21
-7.86278
  0
LINE
  8
0
 10
-12.656
 20
-7.86278
 11
-12.6358
 21
-7.72687
  0
LINE
  8
0
 10
-12.6358
 20
-7.72687
 11
-12.6025
 21
-7.5936
  0
LINE
  8
0
 10
-12.6025
 20
-7.5936
 11
-12.5562
 21
-7.46423
  0
LINE
  8
0
 10
-12.5562
 20
-7.46423
 11
-12.4974
 21
-7.34004
  0
LINE
  8
0
 10
-12.4974
 20
-7.34004
 11
-12.4268
 21
-7.2222
  0
LINE
  8
0
 10
-12.4268
 20
-7.2222
 11
-12.345
 21
-7.11183
  0
LINE
  8
0
 10
-12.345
 20
-7.11183
 11
-12.2527
 21
-7.01004
  0
LINE
  8
0
 10
-12.2527
 20
-7.01004
 11
-9.98994
 21
-4.7473
  0
LINE
  8
0
 10
-9.98994
 20
-4.7473
 11
-9.88815
 21
-4.65503
  0
LINE
  8
0
 10
-9.88815
 20
-4.65503
 11
-9.77779
 21
-4.57318
  0
LINE
  8
0
 10
-9.77779
 20
-4.57318
 11
-9.65994
 21
-4.50255
  0
LINE
  8
0
 10
-9.65994
 20
-4.50255
 11
-9.53575
 21
-4.44382
  0
LINE
  8
0
 10
-9.53575
 20
-4.44382
 11
-9.40639
 21
-4.39752
  0
LINE
  8
0
 10
-9.40639
 20
-4.39752
 11
-9.27312
 21
-4.36414
  0
LINE
  8
0
 10
-9.27312
 20
-4.36414
 11
-9.13721
 21
-4.34398
  0
LINE
  8
0
 10
-9.13721
 20
-4.34398
 11
-9
 21
-4.33725
  0
LINE
  8
0
 10
-9
 20
-4.33725
 11
-8.86278
 21
-4.34398
  0
LINE
  8
0
 10
-8.86278
 20
-4.34398
 11
-8.72687
 21
-4.36414
  0
LINE
  8
0
 10
-8.72687
 20
-4.36414
 11
-8.5936
 21
-4.39752
  0
LINE
  8
0
 10
-8.5936
 20
-4.39752
 11
-8.46423
 21
-4.44382
  0
LINE
  8
0
 10
-8.46423
 20
-4.44382
 11
-8.34004
 21
-4.50255
  0
LINE
  8
0
 10
-8.34004
 20
-4.50255
 11
-8.2222
 21
-4.57318
  0
LINE
  8
0
 10
-8.2222
 20
-4.57318
 11
-8.11183
 21
-4.65503
  0
LINE
  8
0
 10
-8.11183
 20
-4.65503
 11
-8.01004
 21
-4.7473
  0
LINE
  8
0
 10
-8.01004
 20
-4.7473
 11
-5.7473
 21
-7.01004
  0
LINE
  8
0
 10
-5.7473
 20
-7.01004
 11
-5.65503
 21
-7.11183
  0
LINE
  8
0
 10
-5.65503
 20
-7.11183
 11
-5.57318
 21
-7.2222
  0
LINE
  8
0
 10
-5.57318
 20
-7.2222
 11
-5.50255
 21
-7.34004
  0
LINE
  8
0
 10
-5.50255
 20
-7.34004
 11
-5.44382
 21
-7.46423
  0
LINE
  8
0
 10
-5.44382
 20
-7.46423
 11
-5.39752
 21
-7.5936
  0
LINE
  8
0
 10
-5.39752
 20
-7.5936
 11
-5.36414
 21
-7.72687
  0
LINE
  8
0
 10
-5.36414
 20
-7.72687
 11
-5.34398
 21
-7.86278
  0
LINE
  8
0
 10
-5.34398
 20
-7.86278
 11
-5.33725
 21
-8
  0
LINE
  8
0
 10
-5.33725
 20
-8
 11
-5.34398
 21
-8.13721
  0
LINE
  8
0
 10
-5.34398
 20
-8.13721
 11
-5.36414
 21
-8.27312
  0
LINE
  8
0
 10
-5.36414
 20
-8.27312
 11
-5.39752
 21
-8.40639
  0
LINE
  8
0
 10
-5.39752
 20
-8.40639
 11
-5.44382
 21
-8.53575
  0
LINE
  8
0
 10
-5.44382
 20
-8.53575
 11
-5.50255
 21
-8.65994
  0
LINE
  8
0
 10
-5.50255
 20
-8.65994
 11
-5.57318
 21
-8.77779
  0
LINE
  8
0
 10
-5.57318
 20
-8.77779
 11
-5.65503
 21
-8.88815
  0
LINE
  8
0
 10
-5.65503
 20
-8.88815
 11
-5.7473
 21
-8.98994
  0
LINE
  8
0
 10
-5.7473
 20
-8.98994
 11
-8.01004
 21
-11.2527
  0
LINE
  8
0
 10
-8.01004
 20
-11.2527
 11
-8.11183
 21
-11.345
  0
LINE
  8
0
 10
-8.11183
 20
-11.345
 11
-8.2222
 21
-11.4268
  0
LINE
  8
0
 10
-8.2222
 20
-11.4268
 11
-8.34004
 21
-11.4974
  0
LINE
  8
0
 10
-8.34004
 20
-11.4974
 11
-8.46423
 21
-11.5562
  0
LINE
  8
0
 10
-8.46423
 20
-11.5562
 11
-8.5936
 21
-11.6025
  0
LINE
  8
0
 10
-8.5936
 20
-11.6025
 11
-8.72687
 21
-11.6358
  0
LINE
  8
0
 10
-8.72687
 20
-11.6358
 11
-8.86278
 21
-11.656
  0
LINE
  8
0
 10
-8.86278
 20
-11.656
 11
-9
 21
-11.6627
  0
LINE
  8
0
 10
-9
 20
-11.6627
 11
-9.13721
 21
-11.656
  0
LINE
  8
0
 10
8.86278
 20
-11.656
 11
8.72687
 21
-11.6358
  0
LINE
  8
0
 10
8.72687
 20
-11.6358
 11
8.5936
 21
-11.6025
  0
LINE
  8
0
 10
8.5936
 20
-11.6025
 11
8.46423
 21
-11.5562
  0
LINE
  8
0
 10
8.46423
 20
-11.5562
 11
8.34004
 21
-11.4974
  0
LINE
  8
0
 10
8.34004
 20
-11.4974
 11
8.2222
 21
-11.4268
  0
LINE
  8
0
 10
8.2222
 20
-11.4268
 11
8.11183
 21
-11.345
  0
LINE
  8
0
 10
8.11183
 20
-11.345
 11
8.01004
 21
-11.2527
  0
LINE
  8
0
 10
8.01004
 20
-11.2527
 11
5.7473
 21
-8.98994
  0
LINE
  8
0
 10
5.7473
 20
-8.98994
 11
5.65503
 21
-8.88815
  0
LINE
  8
0
 10
5.65503
 20
-8.88815
 11
5.57318
 21
-8.77779
  0
LINE
  8
0
 10
5.57318
 20
-8.77779
 11
5.50255
 21
-8.65994
  0
LINE
  8
0
 10
5.50255
 20
-8.65994
 11
5.44382
 21
-8.53575
  0
LINE
  8
0
 10
5.44382
 20
-8.53575
 11
5.39752
 21
-8.40639
  0
LINE
  8
0
 10
5.39752
 20
-8.40639
 11
5.36414
 21
-8.27312
  0
LINE
  8
0
 10
5.36414
 20
-8.27312
 11
5.34398
 21
-8.13721
  0
LINE
  8
0
 10
5.34398
 20
-8.13721
 11
5.33725
 21
-8
  0
LINE
  8
0
 10
5.33725
 20
-8
 11
5.34398
 21
-7.86278
  0
LINE
  8
0
 10
5.34398
 20
-7.86278
 11
5.36414
 21
-7.72687
  0
LINE
  8
0
 10
5.36414
 20
-7.72687
 11
5.39752
 21
-7.5936
  0
LINE
  8
0
 10
5.39752
 20
-7.5936
 11
5.44382
 21
-7.46423
  0
LINE
  8
0
 10
5.44382
 20
-7.46423
 11
5.50255
 21
-7.34004
  0
LINE
  8
0
 10
5.50255
 20
-7.34004
 11
5.57318
 21
-7.2222
  0
LINE
  8
0
 10
5.57318
 20
-7.2222
 11
5.65503
 21
-7.11183
  0
LINE
  8
0
 10
5.65503
 20
-7.11183
 11
5.7473
 21
-7.01004
  0
LINE
  8
0
 10
5.7473
 20
-7.01004
 11
8.01004
 21
-4.7473
  0
LINE
  8
0
 10
8.01004
 20
-4.7473
 11
8.11183
 21
-4.65503
  0
LINE
  8
0
 10
8.11183
 20
-4.65503
 11
8.2222
 21
-4.57318
  0
LINE
  8
0
 10
8.2222
 20
-4.57318
 11
8.34004
 21
-4.50255
  0
LINE
  8
0
 10
8.34004
 20
-4.50255
 11
8.46423
 21
-4.44382
  0
LINE
  8
0
 10
8.46423
 20
-4.44382
 11
8.5936
 21
-4.39752
  0
LINE
  8
0
 10
8.5936
 20
-4.39752
 11
8.72687
 21
-4.36414
  0
LINE
  8
0
 10
8.72687
 20
-4.36414
 11
8.86278
 21
-4.34398
  0
LINE
  8
0
 10
8.86278
 20
-4.34398
 11
9
 21
-4.33725
  0
LINE
  8
0
 10
9
 20
-4.33725
 11
9.13721
 21
-4.34398
  0
LINE
  8
0
 10
9.13721
 20
-4.34398
 11
9.27312
 21
-4.36414
  0
LINE
  8
0
 10
9.27312
 20
-4.36414
 11
9.40639
 21
-4.39752
  0
LINE
  8
0
 10
9.40639
 20
-4.39752
 11
9.53575
 21
-4.44382
  0
LINE
  8
0
 10
9.53575
 20
-4.44382
 11
9.65994
 21
-4.50255
  0
LINE
  8
0
 10
9.65994
 20
-4.50255
 11
9.77779
 21
-4.57318
  0
LINE
  8
0
 10
9.77779
 20
-4.57318
 11
9.88815
 21
-4.65503
  0
LINE
  8
0
 10
9.88815
 20
-4.65503
 11
9.98994
 21
-4.7473
  0
LINE
  8
0
 10
9.98994
 20
-4.7473
 11
12.2527
 21
-7.01004
  0
LINE
  8
0
 10
12.2527
 20
-7.01004
 11
12.345
 21
-7.11183
  0
LINE
  8
0
 10
12.345
 20
-7.11183
 11
12.4268
 21
-7.2222
  0
LINE
  8
0
 10
12.4268
 20
-7.2222
 11
12.4974
 21
-7.34004
  0
LINE
  8
0
 10
12.4974
 20
-7.34004
 11
12.5562
 21
-7.46423
  0
LINE
  8
0
 10
12.5562
 20
-7.46423
 11
12.6025
 21
-7.5936
  0
LINE
  8
0
 10
12.6025
 20
-7.5936
 11
12.6358
 21
-7.72687
  0
LINE
  8
0
 10
12.6358
 20
-7.72687
 11
12.656
 21
-7.86278
  0
LINE
  8
0
 10
12.656
 20
-7.86278
 11
12.6627
 21
-8
  0
LINE
  8
0
 10
12.6627
 20
-8
 11
12.656
 21
-8.13721
  0
LINE
  8
0
 10
12.656
 20
-8.13721
 11
12.6358
 21
-8.27312
  0
LINE
  8
0
 10
12.6358
 20
-8.27312
 11
12.6025
 21
-8.40639
  0
LINE
  8
0
 10
12.6025
 20
-8.40639
 11
12.5562
 21
-8.53575
  0
LINE
  8
0
 10
12.5562
 20
-8.53575
 11
12.4974
 21
-8.65994
  0
LINE
  8
0
 10
12.4974
 20
-8.65994
 11
12.4268
 21
-8.77779
  0
LINE
  8
0
 10
12.4268
 20
-8.77779
 11
12.345
 21
-8.88815
  0
LINE
  8
0
 10
12.345
 20
-8.88815
 11
12.2527
 21
-8.98994
  0
LINE
  8
0
 10
12.2527
 20
-8.98994
 11
9.98994
 21
-11.2527
  0
LINE
  8
0
 10
9.98994
 20
-11.2527
 11
9.88815
 21
-11.345
  0
LINE
  8
0
 10
9.88815
 20
-11.345
 11
9.77779
 21
-11.4268
  0
LINE
  8
0
 10
9.77779
 20
-11.4268
 11
9.65994
 21
-11.4974
  0
LINE
  8
0
 10
9.65994
 20
-11.4974
 11
9.53575
 21
-11.5562
  0
LINE
  8
0
 10
9.53575
 20
-11.5562
 11
9.40639
 21
-11.6025
  0
LINE
  8
0
 10
9.40639
 20
-11.6025
 11
9.27312
 21
-11.6358
  0
LINE
  8
0
 10
9.27312
 20
-11.6358
 11
9.13721
 21
-11.656
  0
LINE
  8
0
 10
9.13721
 20
-11.656
 11
9
 21
-11.6627
  0
LINE
  8
0
 10
9
 20
-11.6627
 11
8.86278
 21
-11.656
  0
ENDSEC
  0
SECTION
  2
OBJECTS
  0
DICTIONARY
  0
ENDSEC
  0
EOF
