%TF.GenerationSoftware,KiCad,Pcbnew,7.0.11+dfsg-1build4*%
%TF.CreationDate,2026-06-13T08:25:08+00:00*%
%TF.ProjectId,stratosdrone,73747261-746f-4736-9472-6f6e652e6b69,rev?*%
%TF.SameCoordinates,Original*%
%TF.FileFunction,Legend,Top*%
%TF.FilePolarity,Positive*%
%FSLAX46Y46*%
G04 Gerber Fmt 4.6, Leading zero omitted, Abs format (unit mm)*
G04 Created by KiCad (PCBNEW 7.0.11+dfsg-1build4) date 2026-06-13 08:25:08*
%MOMM*%
%LPD*%
G01*
G04 APERTURE LIST*
%ADD10C,0.150000*%
%ADD11C,0.120000*%
%ADD12C,0.300000*%
%ADD13C,0.100000*%
G04 APERTURE END LIST*
D10*
X7957142Y-19884818D02*
X7623809Y-19408627D01*
X7385714Y-19884818D02*
X7385714Y-18884818D01*
X7385714Y-18884818D02*
X7766666Y-18884818D01*
X7766666Y-18884818D02*
X7861904Y-18932437D01*
X7861904Y-18932437D02*
X7909523Y-18980056D01*
X7909523Y-18980056D02*
X7957142Y-19075294D01*
X7957142Y-19075294D02*
X7957142Y-19218151D01*
X7957142Y-19218151D02*
X7909523Y-19313389D01*
X7909523Y-19313389D02*
X7861904Y-19361008D01*
X7861904Y-19361008D02*
X7766666Y-19408627D01*
X7766666Y-19408627D02*
X7385714Y-19408627D01*
X8338095Y-18980056D02*
X8385714Y-18932437D01*
X8385714Y-18932437D02*
X8480952Y-18884818D01*
X8480952Y-18884818D02*
X8719047Y-18884818D01*
X8719047Y-18884818D02*
X8814285Y-18932437D01*
X8814285Y-18932437D02*
X8861904Y-18980056D01*
X8861904Y-18980056D02*
X8909523Y-19075294D01*
X8909523Y-19075294D02*
X8909523Y-19170532D01*
X8909523Y-19170532D02*
X8861904Y-19313389D01*
X8861904Y-19313389D02*
X8290476Y-19884818D01*
X8290476Y-19884818D02*
X8909523Y-19884818D01*
X9290476Y-18980056D02*
X9338095Y-18932437D01*
X9338095Y-18932437D02*
X9433333Y-18884818D01*
X9433333Y-18884818D02*
X9671428Y-18884818D01*
X9671428Y-18884818D02*
X9766666Y-18932437D01*
X9766666Y-18932437D02*
X9814285Y-18980056D01*
X9814285Y-18980056D02*
X9861904Y-19075294D01*
X9861904Y-19075294D02*
X9861904Y-19170532D01*
X9861904Y-19170532D02*
X9814285Y-19313389D01*
X9814285Y-19313389D02*
X9242857Y-19884818D01*
X9242857Y-19884818D02*
X9861904Y-19884818D01*
X8433333Y-13284819D02*
X8100000Y-12808628D01*
X7861905Y-13284819D02*
X7861905Y-12284819D01*
X7861905Y-12284819D02*
X8242857Y-12284819D01*
X8242857Y-12284819D02*
X8338095Y-12332438D01*
X8338095Y-12332438D02*
X8385714Y-12380057D01*
X8385714Y-12380057D02*
X8433333Y-12475295D01*
X8433333Y-12475295D02*
X8433333Y-12618152D01*
X8433333Y-12618152D02*
X8385714Y-12713390D01*
X8385714Y-12713390D02*
X8338095Y-12761009D01*
X8338095Y-12761009D02*
X8242857Y-12808628D01*
X8242857Y-12808628D02*
X7861905Y-12808628D01*
X8766667Y-12284819D02*
X9385714Y-12284819D01*
X9385714Y-12284819D02*
X9052381Y-12665771D01*
X9052381Y-12665771D02*
X9195238Y-12665771D01*
X9195238Y-12665771D02*
X9290476Y-12713390D01*
X9290476Y-12713390D02*
X9338095Y-12761009D01*
X9338095Y-12761009D02*
X9385714Y-12856247D01*
X9385714Y-12856247D02*
X9385714Y-13094342D01*
X9385714Y-13094342D02*
X9338095Y-13189580D01*
X9338095Y-13189580D02*
X9290476Y-13237200D01*
X9290476Y-13237200D02*
X9195238Y-13284819D01*
X9195238Y-13284819D02*
X8909524Y-13284819D01*
X8909524Y-13284819D02*
X8814286Y-13237200D01*
X8814286Y-13237200D02*
X8766667Y-13189580D01*
X23833332Y-13284819D02*
X23499999Y-12808628D01*
X23261904Y-13284819D02*
X23261904Y-12284819D01*
X23261904Y-12284819D02*
X23642856Y-12284819D01*
X23642856Y-12284819D02*
X23738094Y-12332438D01*
X23738094Y-12332438D02*
X23785713Y-12380057D01*
X23785713Y-12380057D02*
X23833332Y-12475295D01*
X23833332Y-12475295D02*
X23833332Y-12618152D01*
X23833332Y-12618152D02*
X23785713Y-12713390D01*
X23785713Y-12713390D02*
X23738094Y-12761009D01*
X23738094Y-12761009D02*
X23642856Y-12808628D01*
X23642856Y-12808628D02*
X23261904Y-12808628D01*
X24738094Y-12284819D02*
X24261904Y-12284819D01*
X24261904Y-12284819D02*
X24214285Y-12761009D01*
X24214285Y-12761009D02*
X24261904Y-12713390D01*
X24261904Y-12713390D02*
X24357142Y-12665771D01*
X24357142Y-12665771D02*
X24595237Y-12665771D01*
X24595237Y-12665771D02*
X24690475Y-12713390D01*
X24690475Y-12713390D02*
X24738094Y-12761009D01*
X24738094Y-12761009D02*
X24785713Y-12856247D01*
X24785713Y-12856247D02*
X24785713Y-13094342D01*
X24785713Y-13094342D02*
X24738094Y-13189580D01*
X24738094Y-13189580D02*
X24690475Y-13237200D01*
X24690475Y-13237200D02*
X24595237Y-13284819D01*
X24595237Y-13284819D02*
X24357142Y-13284819D01*
X24357142Y-13284819D02*
X24261904Y-13237200D01*
X24261904Y-13237200D02*
X24214285Y-13189580D01*
X20238095Y-13854819D02*
X20238095Y-14664342D01*
X20238095Y-14664342D02*
X20285714Y-14759580D01*
X20285714Y-14759580D02*
X20333333Y-14807200D01*
X20333333Y-14807200D02*
X20428571Y-14854819D01*
X20428571Y-14854819D02*
X20619047Y-14854819D01*
X20619047Y-14854819D02*
X20714285Y-14807200D01*
X20714285Y-14807200D02*
X20761904Y-14759580D01*
X20761904Y-14759580D02*
X20809523Y-14664342D01*
X20809523Y-14664342D02*
X20809523Y-13854819D01*
X21809523Y-14854819D02*
X21238095Y-14854819D01*
X21523809Y-14854819D02*
X21523809Y-13854819D01*
X21523809Y-13854819D02*
X21428571Y-13997676D01*
X21428571Y-13997676D02*
X21333333Y-14092914D01*
X21333333Y-14092914D02*
X21238095Y-14140533D01*
X19433332Y-12679580D02*
X19385713Y-12727200D01*
X19385713Y-12727200D02*
X19242856Y-12774819D01*
X19242856Y-12774819D02*
X19147618Y-12774819D01*
X19147618Y-12774819D02*
X19004761Y-12727200D01*
X19004761Y-12727200D02*
X18909523Y-12631961D01*
X18909523Y-12631961D02*
X18861904Y-12536723D01*
X18861904Y-12536723D02*
X18814285Y-12346247D01*
X18814285Y-12346247D02*
X18814285Y-12203390D01*
X18814285Y-12203390D02*
X18861904Y-12012914D01*
X18861904Y-12012914D02*
X18909523Y-11917676D01*
X18909523Y-11917676D02*
X19004761Y-11822438D01*
X19004761Y-11822438D02*
X19147618Y-11774819D01*
X19147618Y-11774819D02*
X19242856Y-11774819D01*
X19242856Y-11774819D02*
X19385713Y-11822438D01*
X19385713Y-11822438D02*
X19433332Y-11870057D01*
X20290475Y-12108152D02*
X20290475Y-12774819D01*
X20052380Y-11727200D02*
X19814285Y-12441485D01*
X19814285Y-12441485D02*
X20433332Y-12441485D01*
X34357142Y-17599580D02*
X34309523Y-17647200D01*
X34309523Y-17647200D02*
X34166666Y-17694819D01*
X34166666Y-17694819D02*
X34071428Y-17694819D01*
X34071428Y-17694819D02*
X33928571Y-17647200D01*
X33928571Y-17647200D02*
X33833333Y-17551961D01*
X33833333Y-17551961D02*
X33785714Y-17456723D01*
X33785714Y-17456723D02*
X33738095Y-17266247D01*
X33738095Y-17266247D02*
X33738095Y-17123390D01*
X33738095Y-17123390D02*
X33785714Y-16932914D01*
X33785714Y-16932914D02*
X33833333Y-16837676D01*
X33833333Y-16837676D02*
X33928571Y-16742438D01*
X33928571Y-16742438D02*
X34071428Y-16694819D01*
X34071428Y-16694819D02*
X34166666Y-16694819D01*
X34166666Y-16694819D02*
X34309523Y-16742438D01*
X34309523Y-16742438D02*
X34357142Y-16790057D01*
X34738095Y-16790057D02*
X34785714Y-16742438D01*
X34785714Y-16742438D02*
X34880952Y-16694819D01*
X34880952Y-16694819D02*
X35119047Y-16694819D01*
X35119047Y-16694819D02*
X35214285Y-16742438D01*
X35214285Y-16742438D02*
X35261904Y-16790057D01*
X35261904Y-16790057D02*
X35309523Y-16885295D01*
X35309523Y-16885295D02*
X35309523Y-16980533D01*
X35309523Y-16980533D02*
X35261904Y-17123390D01*
X35261904Y-17123390D02*
X34690476Y-17694819D01*
X34690476Y-17694819D02*
X35309523Y-17694819D01*
X35880952Y-17123390D02*
X35785714Y-17075771D01*
X35785714Y-17075771D02*
X35738095Y-17028152D01*
X35738095Y-17028152D02*
X35690476Y-16932914D01*
X35690476Y-16932914D02*
X35690476Y-16885295D01*
X35690476Y-16885295D02*
X35738095Y-16790057D01*
X35738095Y-16790057D02*
X35785714Y-16742438D01*
X35785714Y-16742438D02*
X35880952Y-16694819D01*
X35880952Y-16694819D02*
X36071428Y-16694819D01*
X36071428Y-16694819D02*
X36166666Y-16742438D01*
X36166666Y-16742438D02*
X36214285Y-16790057D01*
X36214285Y-16790057D02*
X36261904Y-16885295D01*
X36261904Y-16885295D02*
X36261904Y-16932914D01*
X36261904Y-16932914D02*
X36214285Y-17028152D01*
X36214285Y-17028152D02*
X36166666Y-17075771D01*
X36166666Y-17075771D02*
X36071428Y-17123390D01*
X36071428Y-17123390D02*
X35880952Y-17123390D01*
X35880952Y-17123390D02*
X35785714Y-17171009D01*
X35785714Y-17171009D02*
X35738095Y-17218628D01*
X35738095Y-17218628D02*
X35690476Y-17313866D01*
X35690476Y-17313866D02*
X35690476Y-17504342D01*
X35690476Y-17504342D02*
X35738095Y-17599580D01*
X35738095Y-17599580D02*
X35785714Y-17647200D01*
X35785714Y-17647200D02*
X35880952Y-17694819D01*
X35880952Y-17694819D02*
X36071428Y-17694819D01*
X36071428Y-17694819D02*
X36166666Y-17647200D01*
X36166666Y-17647200D02*
X36214285Y-17599580D01*
X36214285Y-17599580D02*
X36261904Y-17504342D01*
X36261904Y-17504342D02*
X36261904Y-17313866D01*
X36261904Y-17313866D02*
X36214285Y-17218628D01*
X36214285Y-17218628D02*
X36166666Y-17171009D01*
X36166666Y-17171009D02*
X36071428Y-17123390D01*
X26033332Y-13284819D02*
X25699999Y-12808628D01*
X25461904Y-13284819D02*
X25461904Y-12284819D01*
X25461904Y-12284819D02*
X25842856Y-12284819D01*
X25842856Y-12284819D02*
X25938094Y-12332438D01*
X25938094Y-12332438D02*
X25985713Y-12380057D01*
X25985713Y-12380057D02*
X26033332Y-12475295D01*
X26033332Y-12475295D02*
X26033332Y-12618152D01*
X26033332Y-12618152D02*
X25985713Y-12713390D01*
X25985713Y-12713390D02*
X25938094Y-12761009D01*
X25938094Y-12761009D02*
X25842856Y-12808628D01*
X25842856Y-12808628D02*
X25461904Y-12808628D01*
X26890475Y-12284819D02*
X26699999Y-12284819D01*
X26699999Y-12284819D02*
X26604761Y-12332438D01*
X26604761Y-12332438D02*
X26557142Y-12380057D01*
X26557142Y-12380057D02*
X26461904Y-12522914D01*
X26461904Y-12522914D02*
X26414285Y-12713390D01*
X26414285Y-12713390D02*
X26414285Y-13094342D01*
X26414285Y-13094342D02*
X26461904Y-13189580D01*
X26461904Y-13189580D02*
X26509523Y-13237200D01*
X26509523Y-13237200D02*
X26604761Y-13284819D01*
X26604761Y-13284819D02*
X26795237Y-13284819D01*
X26795237Y-13284819D02*
X26890475Y-13237200D01*
X26890475Y-13237200D02*
X26938094Y-13189580D01*
X26938094Y-13189580D02*
X26985713Y-13094342D01*
X26985713Y-13094342D02*
X26985713Y-12856247D01*
X26985713Y-12856247D02*
X26938094Y-12761009D01*
X26938094Y-12761009D02*
X26890475Y-12713390D01*
X26890475Y-12713390D02*
X26795237Y-12665771D01*
X26795237Y-12665771D02*
X26604761Y-12665771D01*
X26604761Y-12665771D02*
X26509523Y-12713390D01*
X26509523Y-12713390D02*
X26461904Y-12761009D01*
X26461904Y-12761009D02*
X26414285Y-12856247D01*
X29957141Y-17329580D02*
X29909522Y-17377200D01*
X29909522Y-17377200D02*
X29766665Y-17424819D01*
X29766665Y-17424819D02*
X29671427Y-17424819D01*
X29671427Y-17424819D02*
X29528570Y-17377200D01*
X29528570Y-17377200D02*
X29433332Y-17281961D01*
X29433332Y-17281961D02*
X29385713Y-17186723D01*
X29385713Y-17186723D02*
X29338094Y-16996247D01*
X29338094Y-16996247D02*
X29338094Y-16853390D01*
X29338094Y-16853390D02*
X29385713Y-16662914D01*
X29385713Y-16662914D02*
X29433332Y-16567676D01*
X29433332Y-16567676D02*
X29528570Y-16472438D01*
X29528570Y-16472438D02*
X29671427Y-16424819D01*
X29671427Y-16424819D02*
X29766665Y-16424819D01*
X29766665Y-16424819D02*
X29909522Y-16472438D01*
X29909522Y-16472438D02*
X29957141Y-16520057D01*
X30338094Y-16520057D02*
X30385713Y-16472438D01*
X30385713Y-16472438D02*
X30480951Y-16424819D01*
X30480951Y-16424819D02*
X30719046Y-16424819D01*
X30719046Y-16424819D02*
X30814284Y-16472438D01*
X30814284Y-16472438D02*
X30861903Y-16520057D01*
X30861903Y-16520057D02*
X30909522Y-16615295D01*
X30909522Y-16615295D02*
X30909522Y-16710533D01*
X30909522Y-16710533D02*
X30861903Y-16853390D01*
X30861903Y-16853390D02*
X30290475Y-17424819D01*
X30290475Y-17424819D02*
X30909522Y-17424819D01*
X31766665Y-16424819D02*
X31576189Y-16424819D01*
X31576189Y-16424819D02*
X31480951Y-16472438D01*
X31480951Y-16472438D02*
X31433332Y-16520057D01*
X31433332Y-16520057D02*
X31338094Y-16662914D01*
X31338094Y-16662914D02*
X31290475Y-16853390D01*
X31290475Y-16853390D02*
X31290475Y-17234342D01*
X31290475Y-17234342D02*
X31338094Y-17329580D01*
X31338094Y-17329580D02*
X31385713Y-17377200D01*
X31385713Y-17377200D02*
X31480951Y-17424819D01*
X31480951Y-17424819D02*
X31671427Y-17424819D01*
X31671427Y-17424819D02*
X31766665Y-17377200D01*
X31766665Y-17377200D02*
X31814284Y-17329580D01*
X31814284Y-17329580D02*
X31861903Y-17234342D01*
X31861903Y-17234342D02*
X31861903Y-16996247D01*
X31861903Y-16996247D02*
X31814284Y-16901009D01*
X31814284Y-16901009D02*
X31766665Y-16853390D01*
X31766665Y-16853390D02*
X31671427Y-16805771D01*
X31671427Y-16805771D02*
X31480951Y-16805771D01*
X31480951Y-16805771D02*
X31385713Y-16853390D01*
X31385713Y-16853390D02*
X31338094Y-16901009D01*
X31338094Y-16901009D02*
X31290475Y-16996247D01*
X20666666Y-33309819D02*
X20666666Y-34024104D01*
X20666666Y-34024104D02*
X20619047Y-34166961D01*
X20619047Y-34166961D02*
X20523809Y-34262200D01*
X20523809Y-34262200D02*
X20380952Y-34309819D01*
X20380952Y-34309819D02*
X20285714Y-34309819D01*
X21095238Y-33405057D02*
X21142857Y-33357438D01*
X21142857Y-33357438D02*
X21238095Y-33309819D01*
X21238095Y-33309819D02*
X21476190Y-33309819D01*
X21476190Y-33309819D02*
X21571428Y-33357438D01*
X21571428Y-33357438D02*
X21619047Y-33405057D01*
X21619047Y-33405057D02*
X21666666Y-33500295D01*
X21666666Y-33500295D02*
X21666666Y-33595533D01*
X21666666Y-33595533D02*
X21619047Y-33738390D01*
X21619047Y-33738390D02*
X21047619Y-34309819D01*
X21047619Y-34309819D02*
X21666666Y-34309819D01*
X12357142Y-17599580D02*
X12309523Y-17647200D01*
X12309523Y-17647200D02*
X12166666Y-17694819D01*
X12166666Y-17694819D02*
X12071428Y-17694819D01*
X12071428Y-17694819D02*
X11928571Y-17647200D01*
X11928571Y-17647200D02*
X11833333Y-17551961D01*
X11833333Y-17551961D02*
X11785714Y-17456723D01*
X11785714Y-17456723D02*
X11738095Y-17266247D01*
X11738095Y-17266247D02*
X11738095Y-17123390D01*
X11738095Y-17123390D02*
X11785714Y-16932914D01*
X11785714Y-16932914D02*
X11833333Y-16837676D01*
X11833333Y-16837676D02*
X11928571Y-16742438D01*
X11928571Y-16742438D02*
X12071428Y-16694819D01*
X12071428Y-16694819D02*
X12166666Y-16694819D01*
X12166666Y-16694819D02*
X12309523Y-16742438D01*
X12309523Y-16742438D02*
X12357142Y-16790057D01*
X13309523Y-17694819D02*
X12738095Y-17694819D01*
X13023809Y-17694819D02*
X13023809Y-16694819D01*
X13023809Y-16694819D02*
X12928571Y-16837676D01*
X12928571Y-16837676D02*
X12833333Y-16932914D01*
X12833333Y-16932914D02*
X12738095Y-16980533D01*
X13880952Y-17123390D02*
X13785714Y-17075771D01*
X13785714Y-17075771D02*
X13738095Y-17028152D01*
X13738095Y-17028152D02*
X13690476Y-16932914D01*
X13690476Y-16932914D02*
X13690476Y-16885295D01*
X13690476Y-16885295D02*
X13738095Y-16790057D01*
X13738095Y-16790057D02*
X13785714Y-16742438D01*
X13785714Y-16742438D02*
X13880952Y-16694819D01*
X13880952Y-16694819D02*
X14071428Y-16694819D01*
X14071428Y-16694819D02*
X14166666Y-16742438D01*
X14166666Y-16742438D02*
X14214285Y-16790057D01*
X14214285Y-16790057D02*
X14261904Y-16885295D01*
X14261904Y-16885295D02*
X14261904Y-16932914D01*
X14261904Y-16932914D02*
X14214285Y-17028152D01*
X14214285Y-17028152D02*
X14166666Y-17075771D01*
X14166666Y-17075771D02*
X14071428Y-17123390D01*
X14071428Y-17123390D02*
X13880952Y-17123390D01*
X13880952Y-17123390D02*
X13785714Y-17171009D01*
X13785714Y-17171009D02*
X13738095Y-17218628D01*
X13738095Y-17218628D02*
X13690476Y-17313866D01*
X13690476Y-17313866D02*
X13690476Y-17504342D01*
X13690476Y-17504342D02*
X13738095Y-17599580D01*
X13738095Y-17599580D02*
X13785714Y-17647200D01*
X13785714Y-17647200D02*
X13880952Y-17694819D01*
X13880952Y-17694819D02*
X14071428Y-17694819D01*
X14071428Y-17694819D02*
X14166666Y-17647200D01*
X14166666Y-17647200D02*
X14214285Y-17599580D01*
X14214285Y-17599580D02*
X14261904Y-17504342D01*
X14261904Y-17504342D02*
X14261904Y-17313866D01*
X14261904Y-17313866D02*
X14214285Y-17218628D01*
X14214285Y-17218628D02*
X14166666Y-17171009D01*
X14166666Y-17171009D02*
X14071428Y-17123390D01*
X21633332Y-13284819D02*
X21299999Y-12808628D01*
X21061904Y-13284819D02*
X21061904Y-12284819D01*
X21061904Y-12284819D02*
X21442856Y-12284819D01*
X21442856Y-12284819D02*
X21538094Y-12332438D01*
X21538094Y-12332438D02*
X21585713Y-12380057D01*
X21585713Y-12380057D02*
X21633332Y-12475295D01*
X21633332Y-12475295D02*
X21633332Y-12618152D01*
X21633332Y-12618152D02*
X21585713Y-12713390D01*
X21585713Y-12713390D02*
X21538094Y-12761009D01*
X21538094Y-12761009D02*
X21442856Y-12808628D01*
X21442856Y-12808628D02*
X21061904Y-12808628D01*
X22490475Y-12618152D02*
X22490475Y-13284819D01*
X22252380Y-12237200D02*
X22014285Y-12951485D01*
X22014285Y-12951485D02*
X22633332Y-12951485D01*
X1833333Y-15399580D02*
X1785714Y-15447200D01*
X1785714Y-15447200D02*
X1642857Y-15494819D01*
X1642857Y-15494819D02*
X1547619Y-15494819D01*
X1547619Y-15494819D02*
X1404762Y-15447200D01*
X1404762Y-15447200D02*
X1309524Y-15351961D01*
X1309524Y-15351961D02*
X1261905Y-15256723D01*
X1261905Y-15256723D02*
X1214286Y-15066247D01*
X1214286Y-15066247D02*
X1214286Y-14923390D01*
X1214286Y-14923390D02*
X1261905Y-14732914D01*
X1261905Y-14732914D02*
X1309524Y-14637676D01*
X1309524Y-14637676D02*
X1404762Y-14542438D01*
X1404762Y-14542438D02*
X1547619Y-14494819D01*
X1547619Y-14494819D02*
X1642857Y-14494819D01*
X1642857Y-14494819D02*
X1785714Y-14542438D01*
X1785714Y-14542438D02*
X1833333Y-14590057D01*
X2404762Y-14923390D02*
X2309524Y-14875771D01*
X2309524Y-14875771D02*
X2261905Y-14828152D01*
X2261905Y-14828152D02*
X2214286Y-14732914D01*
X2214286Y-14732914D02*
X2214286Y-14685295D01*
X2214286Y-14685295D02*
X2261905Y-14590057D01*
X2261905Y-14590057D02*
X2309524Y-14542438D01*
X2309524Y-14542438D02*
X2404762Y-14494819D01*
X2404762Y-14494819D02*
X2595238Y-14494819D01*
X2595238Y-14494819D02*
X2690476Y-14542438D01*
X2690476Y-14542438D02*
X2738095Y-14590057D01*
X2738095Y-14590057D02*
X2785714Y-14685295D01*
X2785714Y-14685295D02*
X2785714Y-14732914D01*
X2785714Y-14732914D02*
X2738095Y-14828152D01*
X2738095Y-14828152D02*
X2690476Y-14875771D01*
X2690476Y-14875771D02*
X2595238Y-14923390D01*
X2595238Y-14923390D02*
X2404762Y-14923390D01*
X2404762Y-14923390D02*
X2309524Y-14971009D01*
X2309524Y-14971009D02*
X2261905Y-15018628D01*
X2261905Y-15018628D02*
X2214286Y-15113866D01*
X2214286Y-15113866D02*
X2214286Y-15304342D01*
X2214286Y-15304342D02*
X2261905Y-15399580D01*
X2261905Y-15399580D02*
X2309524Y-15447200D01*
X2309524Y-15447200D02*
X2404762Y-15494819D01*
X2404762Y-15494819D02*
X2595238Y-15494819D01*
X2595238Y-15494819D02*
X2690476Y-15447200D01*
X2690476Y-15447200D02*
X2738095Y-15399580D01*
X2738095Y-15399580D02*
X2785714Y-15304342D01*
X2785714Y-15304342D02*
X2785714Y-15113866D01*
X2785714Y-15113866D02*
X2738095Y-15018628D01*
X2738095Y-15018628D02*
X2690476Y-14971009D01*
X2690476Y-14971009D02*
X2595238Y-14923390D01*
X20238095Y3545180D02*
X20238095Y2735657D01*
X20238095Y2735657D02*
X20285714Y2640419D01*
X20285714Y2640419D02*
X20333333Y2592800D01*
X20333333Y2592800D02*
X20428571Y2545180D01*
X20428571Y2545180D02*
X20619047Y2545180D01*
X20619047Y2545180D02*
X20714285Y2592800D01*
X20714285Y2592800D02*
X20761904Y2640419D01*
X20761904Y2640419D02*
X20809523Y2735657D01*
X20809523Y2735657D02*
X20809523Y3545180D01*
X21190476Y3545180D02*
X21809523Y3545180D01*
X21809523Y3545180D02*
X21476190Y3164228D01*
X21476190Y3164228D02*
X21619047Y3164228D01*
X21619047Y3164228D02*
X21714285Y3116609D01*
X21714285Y3116609D02*
X21761904Y3068990D01*
X21761904Y3068990D02*
X21809523Y2973752D01*
X21809523Y2973752D02*
X21809523Y2735657D01*
X21809523Y2735657D02*
X21761904Y2640419D01*
X21761904Y2640419D02*
X21714285Y2592800D01*
X21714285Y2592800D02*
X21619047Y2545180D01*
X21619047Y2545180D02*
X21333333Y2545180D01*
X21333333Y2545180D02*
X21238095Y2592800D01*
X21238095Y2592800D02*
X21190476Y2640419D01*
X16238094Y-819104D02*
X16714284Y-819104D01*
X16142856Y-1104819D02*
X16476189Y-104819D01*
X16476189Y-104819D02*
X16809522Y-1104819D01*
X17142856Y-438152D02*
X17142856Y-1104819D01*
X17142856Y-533390D02*
X17190475Y-485771D01*
X17190475Y-485771D02*
X17285713Y-438152D01*
X17285713Y-438152D02*
X17428570Y-438152D01*
X17428570Y-438152D02*
X17523808Y-485771D01*
X17523808Y-485771D02*
X17571427Y-581009D01*
X17571427Y-581009D02*
X17571427Y-1104819D01*
X17904761Y-438152D02*
X18285713Y-438152D01*
X18047618Y-104819D02*
X18047618Y-961961D01*
X18047618Y-961961D02*
X18095237Y-1057200D01*
X18095237Y-1057200D02*
X18190475Y-1104819D01*
X18190475Y-1104819D02*
X18285713Y-1104819D01*
X18999999Y-1057200D02*
X18904761Y-1104819D01*
X18904761Y-1104819D02*
X18714285Y-1104819D01*
X18714285Y-1104819D02*
X18619047Y-1057200D01*
X18619047Y-1057200D02*
X18571428Y-961961D01*
X18571428Y-961961D02*
X18571428Y-581009D01*
X18571428Y-581009D02*
X18619047Y-485771D01*
X18619047Y-485771D02*
X18714285Y-438152D01*
X18714285Y-438152D02*
X18904761Y-438152D01*
X18904761Y-438152D02*
X18999999Y-485771D01*
X18999999Y-485771D02*
X19047618Y-581009D01*
X19047618Y-581009D02*
X19047618Y-676247D01*
X19047618Y-676247D02*
X18571428Y-771485D01*
X19476190Y-438152D02*
X19476190Y-1104819D01*
X19476190Y-533390D02*
X19523809Y-485771D01*
X19523809Y-485771D02*
X19619047Y-438152D01*
X19619047Y-438152D02*
X19761904Y-438152D01*
X19761904Y-438152D02*
X19857142Y-485771D01*
X19857142Y-485771D02*
X19904761Y-581009D01*
X19904761Y-581009D02*
X19904761Y-1104819D01*
X20380952Y-438152D02*
X20380952Y-1104819D01*
X20380952Y-533390D02*
X20428571Y-485771D01*
X20428571Y-485771D02*
X20523809Y-438152D01*
X20523809Y-438152D02*
X20666666Y-438152D01*
X20666666Y-438152D02*
X20761904Y-485771D01*
X20761904Y-485771D02*
X20809523Y-581009D01*
X20809523Y-581009D02*
X20809523Y-1104819D01*
X21714285Y-1104819D02*
X21714285Y-581009D01*
X21714285Y-581009D02*
X21666666Y-485771D01*
X21666666Y-485771D02*
X21571428Y-438152D01*
X21571428Y-438152D02*
X21380952Y-438152D01*
X21380952Y-438152D02*
X21285714Y-485771D01*
X21714285Y-1057200D02*
X21619047Y-1104819D01*
X21619047Y-1104819D02*
X21380952Y-1104819D01*
X21380952Y-1104819D02*
X21285714Y-1057200D01*
X21285714Y-1057200D02*
X21238095Y-961961D01*
X21238095Y-961961D02*
X21238095Y-866723D01*
X21238095Y-866723D02*
X21285714Y-771485D01*
X21285714Y-771485D02*
X21380952Y-723866D01*
X21380952Y-723866D02*
X21619047Y-723866D01*
X21619047Y-723866D02*
X21714285Y-676247D01*
X22904762Y-819104D02*
X23380952Y-819104D01*
X22809524Y-1104819D02*
X23142857Y-104819D01*
X23142857Y-104819D02*
X23476190Y-1104819D01*
X23809524Y-1104819D02*
X23809524Y-438152D01*
X23809524Y-628628D02*
X23857143Y-533390D01*
X23857143Y-533390D02*
X23904762Y-485771D01*
X23904762Y-485771D02*
X24000000Y-438152D01*
X24000000Y-438152D02*
X24095238Y-438152D01*
X24809524Y-1057200D02*
X24714286Y-1104819D01*
X24714286Y-1104819D02*
X24523810Y-1104819D01*
X24523810Y-1104819D02*
X24428572Y-1057200D01*
X24428572Y-1057200D02*
X24380953Y-961961D01*
X24380953Y-961961D02*
X24380953Y-581009D01*
X24380953Y-581009D02*
X24428572Y-485771D01*
X24428572Y-485771D02*
X24523810Y-438152D01*
X24523810Y-438152D02*
X24714286Y-438152D01*
X24714286Y-438152D02*
X24809524Y-485771D01*
X24809524Y-485771D02*
X24857143Y-581009D01*
X24857143Y-581009D02*
X24857143Y-676247D01*
X24857143Y-676247D02*
X24380953Y-771485D01*
X25714286Y-1104819D02*
X25714286Y-581009D01*
X25714286Y-581009D02*
X25666667Y-485771D01*
X25666667Y-485771D02*
X25571429Y-438152D01*
X25571429Y-438152D02*
X25380953Y-438152D01*
X25380953Y-438152D02*
X25285715Y-485771D01*
X25714286Y-1057200D02*
X25619048Y-1104819D01*
X25619048Y-1104819D02*
X25380953Y-1104819D01*
X25380953Y-1104819D02*
X25285715Y-1057200D01*
X25285715Y-1057200D02*
X25238096Y-961961D01*
X25238096Y-961961D02*
X25238096Y-866723D01*
X25238096Y-866723D02*
X25285715Y-771485D01*
X25285715Y-771485D02*
X25380953Y-723866D01*
X25380953Y-723866D02*
X25619048Y-723866D01*
X25619048Y-723866D02*
X25714286Y-676247D01*
X31738095Y-9054819D02*
X31738095Y-9864342D01*
X31738095Y-9864342D02*
X31785714Y-9959580D01*
X31785714Y-9959580D02*
X31833333Y-10007200D01*
X31833333Y-10007200D02*
X31928571Y-10054819D01*
X31928571Y-10054819D02*
X32119047Y-10054819D01*
X32119047Y-10054819D02*
X32214285Y-10007200D01*
X32214285Y-10007200D02*
X32261904Y-9959580D01*
X32261904Y-9959580D02*
X32309523Y-9864342D01*
X32309523Y-9864342D02*
X32309523Y-9054819D01*
X32738095Y-9150057D02*
X32785714Y-9102438D01*
X32785714Y-9102438D02*
X32880952Y-9054819D01*
X32880952Y-9054819D02*
X33119047Y-9054819D01*
X33119047Y-9054819D02*
X33214285Y-9102438D01*
X33214285Y-9102438D02*
X33261904Y-9150057D01*
X33261904Y-9150057D02*
X33309523Y-9245295D01*
X33309523Y-9245295D02*
X33309523Y-9340533D01*
X33309523Y-9340533D02*
X33261904Y-9483390D01*
X33261904Y-9483390D02*
X32690476Y-10054819D01*
X32690476Y-10054819D02*
X33309523Y-10054819D01*
X7957142Y-15399580D02*
X7909523Y-15447200D01*
X7909523Y-15447200D02*
X7766666Y-15494819D01*
X7766666Y-15494819D02*
X7671428Y-15494819D01*
X7671428Y-15494819D02*
X7528571Y-15447200D01*
X7528571Y-15447200D02*
X7433333Y-15351961D01*
X7433333Y-15351961D02*
X7385714Y-15256723D01*
X7385714Y-15256723D02*
X7338095Y-15066247D01*
X7338095Y-15066247D02*
X7338095Y-14923390D01*
X7338095Y-14923390D02*
X7385714Y-14732914D01*
X7385714Y-14732914D02*
X7433333Y-14637676D01*
X7433333Y-14637676D02*
X7528571Y-14542438D01*
X7528571Y-14542438D02*
X7671428Y-14494819D01*
X7671428Y-14494819D02*
X7766666Y-14494819D01*
X7766666Y-14494819D02*
X7909523Y-14542438D01*
X7909523Y-14542438D02*
X7957142Y-14590057D01*
X8909523Y-15494819D02*
X8338095Y-15494819D01*
X8623809Y-15494819D02*
X8623809Y-14494819D01*
X8623809Y-14494819D02*
X8528571Y-14637676D01*
X8528571Y-14637676D02*
X8433333Y-14732914D01*
X8433333Y-14732914D02*
X8338095Y-14780533D01*
X9528571Y-14494819D02*
X9623809Y-14494819D01*
X9623809Y-14494819D02*
X9719047Y-14542438D01*
X9719047Y-14542438D02*
X9766666Y-14590057D01*
X9766666Y-14590057D02*
X9814285Y-14685295D01*
X9814285Y-14685295D02*
X9861904Y-14875771D01*
X9861904Y-14875771D02*
X9861904Y-15113866D01*
X9861904Y-15113866D02*
X9814285Y-15304342D01*
X9814285Y-15304342D02*
X9766666Y-15399580D01*
X9766666Y-15399580D02*
X9719047Y-15447200D01*
X9719047Y-15447200D02*
X9623809Y-15494819D01*
X9623809Y-15494819D02*
X9528571Y-15494819D01*
X9528571Y-15494819D02*
X9433333Y-15447200D01*
X9433333Y-15447200D02*
X9385714Y-15399580D01*
X9385714Y-15399580D02*
X9338095Y-15304342D01*
X9338095Y-15304342D02*
X9290476Y-15113866D01*
X9290476Y-15113866D02*
X9290476Y-14875771D01*
X9290476Y-14875771D02*
X9338095Y-14685295D01*
X9338095Y-14685295D02*
X9385714Y-14590057D01*
X9385714Y-14590057D02*
X9433333Y-14542438D01*
X9433333Y-14542438D02*
X9528571Y-14494819D01*
X32633332Y-13284819D02*
X32299999Y-12808628D01*
X32061904Y-13284819D02*
X32061904Y-12284819D01*
X32061904Y-12284819D02*
X32442856Y-12284819D01*
X32442856Y-12284819D02*
X32538094Y-12332438D01*
X32538094Y-12332438D02*
X32585713Y-12380057D01*
X32585713Y-12380057D02*
X32633332Y-12475295D01*
X32633332Y-12475295D02*
X32633332Y-12618152D01*
X32633332Y-12618152D02*
X32585713Y-12713390D01*
X32585713Y-12713390D02*
X32538094Y-12761009D01*
X32538094Y-12761009D02*
X32442856Y-12808628D01*
X32442856Y-12808628D02*
X32061904Y-12808628D01*
X32966666Y-12284819D02*
X33633332Y-12284819D01*
X33633332Y-12284819D02*
X33204761Y-13284819D01*
X18861904Y-18554818D02*
X18861904Y-17554818D01*
X18861904Y-17554818D02*
X19099999Y-17554818D01*
X19099999Y-17554818D02*
X19242856Y-17602437D01*
X19242856Y-17602437D02*
X19338094Y-17697675D01*
X19338094Y-17697675D02*
X19385713Y-17792913D01*
X19385713Y-17792913D02*
X19433332Y-17983389D01*
X19433332Y-17983389D02*
X19433332Y-18126246D01*
X19433332Y-18126246D02*
X19385713Y-18316722D01*
X19385713Y-18316722D02*
X19338094Y-18411960D01*
X19338094Y-18411960D02*
X19242856Y-18507199D01*
X19242856Y-18507199D02*
X19099999Y-18554818D01*
X19099999Y-18554818D02*
X18861904Y-18554818D01*
X20290475Y-17888151D02*
X20290475Y-18554818D01*
X20052380Y-17507199D02*
X19814285Y-18221484D01*
X19814285Y-18221484D02*
X20433332Y-18221484D01*
X34833333Y-13284819D02*
X34500000Y-12808628D01*
X34261905Y-13284819D02*
X34261905Y-12284819D01*
X34261905Y-12284819D02*
X34642857Y-12284819D01*
X34642857Y-12284819D02*
X34738095Y-12332438D01*
X34738095Y-12332438D02*
X34785714Y-12380057D01*
X34785714Y-12380057D02*
X34833333Y-12475295D01*
X34833333Y-12475295D02*
X34833333Y-12618152D01*
X34833333Y-12618152D02*
X34785714Y-12713390D01*
X34785714Y-12713390D02*
X34738095Y-12761009D01*
X34738095Y-12761009D02*
X34642857Y-12808628D01*
X34642857Y-12808628D02*
X34261905Y-12808628D01*
X35404762Y-12713390D02*
X35309524Y-12665771D01*
X35309524Y-12665771D02*
X35261905Y-12618152D01*
X35261905Y-12618152D02*
X35214286Y-12522914D01*
X35214286Y-12522914D02*
X35214286Y-12475295D01*
X35214286Y-12475295D02*
X35261905Y-12380057D01*
X35261905Y-12380057D02*
X35309524Y-12332438D01*
X35309524Y-12332438D02*
X35404762Y-12284819D01*
X35404762Y-12284819D02*
X35595238Y-12284819D01*
X35595238Y-12284819D02*
X35690476Y-12332438D01*
X35690476Y-12332438D02*
X35738095Y-12380057D01*
X35738095Y-12380057D02*
X35785714Y-12475295D01*
X35785714Y-12475295D02*
X35785714Y-12522914D01*
X35785714Y-12522914D02*
X35738095Y-12618152D01*
X35738095Y-12618152D02*
X35690476Y-12665771D01*
X35690476Y-12665771D02*
X35595238Y-12713390D01*
X35595238Y-12713390D02*
X35404762Y-12713390D01*
X35404762Y-12713390D02*
X35309524Y-12761009D01*
X35309524Y-12761009D02*
X35261905Y-12808628D01*
X35261905Y-12808628D02*
X35214286Y-12903866D01*
X35214286Y-12903866D02*
X35214286Y-13094342D01*
X35214286Y-13094342D02*
X35261905Y-13189580D01*
X35261905Y-13189580D02*
X35309524Y-13237200D01*
X35309524Y-13237200D02*
X35404762Y-13284819D01*
X35404762Y-13284819D02*
X35595238Y-13284819D01*
X35595238Y-13284819D02*
X35690476Y-13237200D01*
X35690476Y-13237200D02*
X35738095Y-13189580D01*
X35738095Y-13189580D02*
X35785714Y-13094342D01*
X35785714Y-13094342D02*
X35785714Y-12903866D01*
X35785714Y-12903866D02*
X35738095Y-12808628D01*
X35738095Y-12808628D02*
X35690476Y-12761009D01*
X35690476Y-12761009D02*
X35595238Y-12713390D01*
X21157141Y-19884818D02*
X20823808Y-19408627D01*
X20585713Y-19884818D02*
X20585713Y-18884818D01*
X20585713Y-18884818D02*
X20966665Y-18884818D01*
X20966665Y-18884818D02*
X21061903Y-18932437D01*
X21061903Y-18932437D02*
X21109522Y-18980056D01*
X21109522Y-18980056D02*
X21157141Y-19075294D01*
X21157141Y-19075294D02*
X21157141Y-19218151D01*
X21157141Y-19218151D02*
X21109522Y-19313389D01*
X21109522Y-19313389D02*
X21061903Y-19361008D01*
X21061903Y-19361008D02*
X20966665Y-19408627D01*
X20966665Y-19408627D02*
X20585713Y-19408627D01*
X21538094Y-18980056D02*
X21585713Y-18932437D01*
X21585713Y-18932437D02*
X21680951Y-18884818D01*
X21680951Y-18884818D02*
X21919046Y-18884818D01*
X21919046Y-18884818D02*
X22014284Y-18932437D01*
X22014284Y-18932437D02*
X22061903Y-18980056D01*
X22061903Y-18980056D02*
X22109522Y-19075294D01*
X22109522Y-19075294D02*
X22109522Y-19170532D01*
X22109522Y-19170532D02*
X22061903Y-19313389D01*
X22061903Y-19313389D02*
X21490475Y-19884818D01*
X21490475Y-19884818D02*
X22109522Y-19884818D01*
X22966665Y-19218151D02*
X22966665Y-19884818D01*
X22728570Y-18837199D02*
X22490475Y-19551484D01*
X22490475Y-19551484D02*
X23109522Y-19551484D01*
X38190476Y-22759819D02*
X38190476Y-23474104D01*
X38190476Y-23474104D02*
X38142857Y-23616961D01*
X38142857Y-23616961D02*
X38047619Y-23712200D01*
X38047619Y-23712200D02*
X37904762Y-23759819D01*
X37904762Y-23759819D02*
X37809524Y-23759819D01*
X39190476Y-23759819D02*
X38619048Y-23759819D01*
X38904762Y-23759819D02*
X38904762Y-22759819D01*
X38904762Y-22759819D02*
X38809524Y-22902676D01*
X38809524Y-22902676D02*
X38714286Y-22997914D01*
X38714286Y-22997914D02*
X38619048Y-23045533D01*
X39809524Y-22759819D02*
X39904762Y-22759819D01*
X39904762Y-22759819D02*
X40000000Y-22807438D01*
X40000000Y-22807438D02*
X40047619Y-22855057D01*
X40047619Y-22855057D02*
X40095238Y-22950295D01*
X40095238Y-22950295D02*
X40142857Y-23140771D01*
X40142857Y-23140771D02*
X40142857Y-23378866D01*
X40142857Y-23378866D02*
X40095238Y-23569342D01*
X40095238Y-23569342D02*
X40047619Y-23664580D01*
X40047619Y-23664580D02*
X40000000Y-23712200D01*
X40000000Y-23712200D02*
X39904762Y-23759819D01*
X39904762Y-23759819D02*
X39809524Y-23759819D01*
X39809524Y-23759819D02*
X39714286Y-23712200D01*
X39714286Y-23712200D02*
X39666667Y-23664580D01*
X39666667Y-23664580D02*
X39619048Y-23569342D01*
X39619048Y-23569342D02*
X39571429Y-23378866D01*
X39571429Y-23378866D02*
X39571429Y-23140771D01*
X39571429Y-23140771D02*
X39619048Y-22950295D01*
X39619048Y-22950295D02*
X39666667Y-22855057D01*
X39666667Y-22855057D02*
X39714286Y-22807438D01*
X39714286Y-22807438D02*
X39809524Y-22759819D01*
X25557141Y-17599580D02*
X25509522Y-17647200D01*
X25509522Y-17647200D02*
X25366665Y-17694819D01*
X25366665Y-17694819D02*
X25271427Y-17694819D01*
X25271427Y-17694819D02*
X25128570Y-17647200D01*
X25128570Y-17647200D02*
X25033332Y-17551961D01*
X25033332Y-17551961D02*
X24985713Y-17456723D01*
X24985713Y-17456723D02*
X24938094Y-17266247D01*
X24938094Y-17266247D02*
X24938094Y-17123390D01*
X24938094Y-17123390D02*
X24985713Y-16932914D01*
X24985713Y-16932914D02*
X25033332Y-16837676D01*
X25033332Y-16837676D02*
X25128570Y-16742438D01*
X25128570Y-16742438D02*
X25271427Y-16694819D01*
X25271427Y-16694819D02*
X25366665Y-16694819D01*
X25366665Y-16694819D02*
X25509522Y-16742438D01*
X25509522Y-16742438D02*
X25557141Y-16790057D01*
X25938094Y-16790057D02*
X25985713Y-16742438D01*
X25985713Y-16742438D02*
X26080951Y-16694819D01*
X26080951Y-16694819D02*
X26319046Y-16694819D01*
X26319046Y-16694819D02*
X26414284Y-16742438D01*
X26414284Y-16742438D02*
X26461903Y-16790057D01*
X26461903Y-16790057D02*
X26509522Y-16885295D01*
X26509522Y-16885295D02*
X26509522Y-16980533D01*
X26509522Y-16980533D02*
X26461903Y-17123390D01*
X26461903Y-17123390D02*
X25890475Y-17694819D01*
X25890475Y-17694819D02*
X26509522Y-17694819D01*
X27366665Y-17028152D02*
X27366665Y-17694819D01*
X27128570Y-16647200D02*
X26890475Y-17361485D01*
X26890475Y-17361485D02*
X27509522Y-17361485D01*
X17333333Y-32904819D02*
X16857143Y-32904819D01*
X16857143Y-32904819D02*
X16857143Y-31904819D01*
X18190476Y-32904819D02*
X17619048Y-32904819D01*
X17904762Y-32904819D02*
X17904762Y-31904819D01*
X17904762Y-31904819D02*
X17809524Y-32047676D01*
X17809524Y-32047676D02*
X17714286Y-32142914D01*
X17714286Y-32142914D02*
X17619048Y-32190533D01*
X38666666Y-16759819D02*
X38666666Y-17474104D01*
X38666666Y-17474104D02*
X38619047Y-17616961D01*
X38619047Y-17616961D02*
X38523809Y-17712200D01*
X38523809Y-17712200D02*
X38380952Y-17759819D01*
X38380952Y-17759819D02*
X38285714Y-17759819D01*
X39190476Y-17759819D02*
X39380952Y-17759819D01*
X39380952Y-17759819D02*
X39476190Y-17712200D01*
X39476190Y-17712200D02*
X39523809Y-17664580D01*
X39523809Y-17664580D02*
X39619047Y-17521723D01*
X39619047Y-17521723D02*
X39666666Y-17331247D01*
X39666666Y-17331247D02*
X39666666Y-16950295D01*
X39666666Y-16950295D02*
X39619047Y-16855057D01*
X39619047Y-16855057D02*
X39571428Y-16807438D01*
X39571428Y-16807438D02*
X39476190Y-16759819D01*
X39476190Y-16759819D02*
X39285714Y-16759819D01*
X39285714Y-16759819D02*
X39190476Y-16807438D01*
X39190476Y-16807438D02*
X39142857Y-16855057D01*
X39142857Y-16855057D02*
X39095238Y-16950295D01*
X39095238Y-16950295D02*
X39095238Y-17188390D01*
X39095238Y-17188390D02*
X39142857Y-17283628D01*
X39142857Y-17283628D02*
X39190476Y-17331247D01*
X39190476Y-17331247D02*
X39285714Y-17378866D01*
X39285714Y-17378866D02*
X39476190Y-17378866D01*
X39476190Y-17378866D02*
X39571428Y-17331247D01*
X39571428Y-17331247D02*
X39619047Y-17283628D01*
X39619047Y-17283628D02*
X39666666Y-17188390D01*
X12357142Y-15484819D02*
X12023809Y-15008628D01*
X11785714Y-15484819D02*
X11785714Y-14484819D01*
X11785714Y-14484819D02*
X12166666Y-14484819D01*
X12166666Y-14484819D02*
X12261904Y-14532438D01*
X12261904Y-14532438D02*
X12309523Y-14580057D01*
X12309523Y-14580057D02*
X12357142Y-14675295D01*
X12357142Y-14675295D02*
X12357142Y-14818152D01*
X12357142Y-14818152D02*
X12309523Y-14913390D01*
X12309523Y-14913390D02*
X12261904Y-14961009D01*
X12261904Y-14961009D02*
X12166666Y-15008628D01*
X12166666Y-15008628D02*
X11785714Y-15008628D01*
X13309523Y-15484819D02*
X12738095Y-15484819D01*
X13023809Y-15484819D02*
X13023809Y-14484819D01*
X13023809Y-14484819D02*
X12928571Y-14627676D01*
X12928571Y-14627676D02*
X12833333Y-14722914D01*
X12833333Y-14722914D02*
X12738095Y-14770533D01*
X14261904Y-15484819D02*
X13690476Y-15484819D01*
X13976190Y-15484819D02*
X13976190Y-14484819D01*
X13976190Y-14484819D02*
X13880952Y-14627676D01*
X13880952Y-14627676D02*
X13785714Y-14722914D01*
X13785714Y-14722914D02*
X13690476Y-14770533D01*
X34357142Y-19799579D02*
X34309523Y-19847199D01*
X34309523Y-19847199D02*
X34166666Y-19894818D01*
X34166666Y-19894818D02*
X34071428Y-19894818D01*
X34071428Y-19894818D02*
X33928571Y-19847199D01*
X33928571Y-19847199D02*
X33833333Y-19751960D01*
X33833333Y-19751960D02*
X33785714Y-19656722D01*
X33785714Y-19656722D02*
X33738095Y-19466246D01*
X33738095Y-19466246D02*
X33738095Y-19323389D01*
X33738095Y-19323389D02*
X33785714Y-19132913D01*
X33785714Y-19132913D02*
X33833333Y-19037675D01*
X33833333Y-19037675D02*
X33928571Y-18942437D01*
X33928571Y-18942437D02*
X34071428Y-18894818D01*
X34071428Y-18894818D02*
X34166666Y-18894818D01*
X34166666Y-18894818D02*
X34309523Y-18942437D01*
X34309523Y-18942437D02*
X34357142Y-18990056D01*
X34690476Y-18894818D02*
X35309523Y-18894818D01*
X35309523Y-18894818D02*
X34976190Y-19275770D01*
X34976190Y-19275770D02*
X35119047Y-19275770D01*
X35119047Y-19275770D02*
X35214285Y-19323389D01*
X35214285Y-19323389D02*
X35261904Y-19371008D01*
X35261904Y-19371008D02*
X35309523Y-19466246D01*
X35309523Y-19466246D02*
X35309523Y-19704341D01*
X35309523Y-19704341D02*
X35261904Y-19799579D01*
X35261904Y-19799579D02*
X35214285Y-19847199D01*
X35214285Y-19847199D02*
X35119047Y-19894818D01*
X35119047Y-19894818D02*
X34833333Y-19894818D01*
X34833333Y-19894818D02*
X34738095Y-19847199D01*
X34738095Y-19847199D02*
X34690476Y-19799579D01*
X36166666Y-19228151D02*
X36166666Y-19894818D01*
X35928571Y-18847199D02*
X35690476Y-19561484D01*
X35690476Y-19561484D02*
X36309523Y-19561484D01*
X21157141Y-15484819D02*
X20823808Y-15008628D01*
X20585713Y-15484819D02*
X20585713Y-14484819D01*
X20585713Y-14484819D02*
X20966665Y-14484819D01*
X20966665Y-14484819D02*
X21061903Y-14532438D01*
X21061903Y-14532438D02*
X21109522Y-14580057D01*
X21109522Y-14580057D02*
X21157141Y-14675295D01*
X21157141Y-14675295D02*
X21157141Y-14818152D01*
X21157141Y-14818152D02*
X21109522Y-14913390D01*
X21109522Y-14913390D02*
X21061903Y-14961009D01*
X21061903Y-14961009D02*
X20966665Y-15008628D01*
X20966665Y-15008628D02*
X20585713Y-15008628D01*
X22109522Y-15484819D02*
X21538094Y-15484819D01*
X21823808Y-15484819D02*
X21823808Y-14484819D01*
X21823808Y-14484819D02*
X21728570Y-14627676D01*
X21728570Y-14627676D02*
X21633332Y-14722914D01*
X21633332Y-14722914D02*
X21538094Y-14770533D01*
X23014284Y-14484819D02*
X22538094Y-14484819D01*
X22538094Y-14484819D02*
X22490475Y-14961009D01*
X22490475Y-14961009D02*
X22538094Y-14913390D01*
X22538094Y-14913390D02*
X22633332Y-14865771D01*
X22633332Y-14865771D02*
X22871427Y-14865771D01*
X22871427Y-14865771D02*
X22966665Y-14913390D01*
X22966665Y-14913390D02*
X23014284Y-14961009D01*
X23014284Y-14961009D02*
X23061903Y-15056247D01*
X23061903Y-15056247D02*
X23061903Y-15294342D01*
X23061903Y-15294342D02*
X23014284Y-15389580D01*
X23014284Y-15389580D02*
X22966665Y-15437200D01*
X22966665Y-15437200D02*
X22871427Y-15484819D01*
X22871427Y-15484819D02*
X22633332Y-15484819D01*
X22633332Y-15484819D02*
X22538094Y-15437200D01*
X22538094Y-15437200D02*
X22490475Y-15389580D01*
X34904761Y-31150057D02*
X34809523Y-31102438D01*
X34809523Y-31102438D02*
X34714285Y-31007200D01*
X34714285Y-31007200D02*
X34571428Y-30864342D01*
X34571428Y-30864342D02*
X34476190Y-30816723D01*
X34476190Y-30816723D02*
X34380952Y-30816723D01*
X34428571Y-31054819D02*
X34333333Y-31007200D01*
X34333333Y-31007200D02*
X34238095Y-30911961D01*
X34238095Y-30911961D02*
X34190476Y-30721485D01*
X34190476Y-30721485D02*
X34190476Y-30388152D01*
X34190476Y-30388152D02*
X34238095Y-30197676D01*
X34238095Y-30197676D02*
X34333333Y-30102438D01*
X34333333Y-30102438D02*
X34428571Y-30054819D01*
X34428571Y-30054819D02*
X34619047Y-30054819D01*
X34619047Y-30054819D02*
X34714285Y-30102438D01*
X34714285Y-30102438D02*
X34809523Y-30197676D01*
X34809523Y-30197676D02*
X34857142Y-30388152D01*
X34857142Y-30388152D02*
X34857142Y-30721485D01*
X34857142Y-30721485D02*
X34809523Y-30911961D01*
X34809523Y-30911961D02*
X34714285Y-31007200D01*
X34714285Y-31007200D02*
X34619047Y-31054819D01*
X34619047Y-31054819D02*
X34428571Y-31054819D01*
X35238095Y-30150057D02*
X35285714Y-30102438D01*
X35285714Y-30102438D02*
X35380952Y-30054819D01*
X35380952Y-30054819D02*
X35619047Y-30054819D01*
X35619047Y-30054819D02*
X35714285Y-30102438D01*
X35714285Y-30102438D02*
X35761904Y-30150057D01*
X35761904Y-30150057D02*
X35809523Y-30245295D01*
X35809523Y-30245295D02*
X35809523Y-30340533D01*
X35809523Y-30340533D02*
X35761904Y-30483390D01*
X35761904Y-30483390D02*
X35190476Y-31054819D01*
X35190476Y-31054819D02*
X35809523Y-31054819D01*
X29957141Y-19884818D02*
X29623808Y-19408627D01*
X29385713Y-19884818D02*
X29385713Y-18884818D01*
X29385713Y-18884818D02*
X29766665Y-18884818D01*
X29766665Y-18884818D02*
X29861903Y-18932437D01*
X29861903Y-18932437D02*
X29909522Y-18980056D01*
X29909522Y-18980056D02*
X29957141Y-19075294D01*
X29957141Y-19075294D02*
X29957141Y-19218151D01*
X29957141Y-19218151D02*
X29909522Y-19313389D01*
X29909522Y-19313389D02*
X29861903Y-19361008D01*
X29861903Y-19361008D02*
X29766665Y-19408627D01*
X29766665Y-19408627D02*
X29385713Y-19408627D01*
X30338094Y-18980056D02*
X30385713Y-18932437D01*
X30385713Y-18932437D02*
X30480951Y-18884818D01*
X30480951Y-18884818D02*
X30719046Y-18884818D01*
X30719046Y-18884818D02*
X30814284Y-18932437D01*
X30814284Y-18932437D02*
X30861903Y-18980056D01*
X30861903Y-18980056D02*
X30909522Y-19075294D01*
X30909522Y-19075294D02*
X30909522Y-19170532D01*
X30909522Y-19170532D02*
X30861903Y-19313389D01*
X30861903Y-19313389D02*
X30290475Y-19884818D01*
X30290475Y-19884818D02*
X30909522Y-19884818D01*
X31385713Y-19884818D02*
X31576189Y-19884818D01*
X31576189Y-19884818D02*
X31671427Y-19837199D01*
X31671427Y-19837199D02*
X31719046Y-19789579D01*
X31719046Y-19789579D02*
X31814284Y-19646722D01*
X31814284Y-19646722D02*
X31861903Y-19456246D01*
X31861903Y-19456246D02*
X31861903Y-19075294D01*
X31861903Y-19075294D02*
X31814284Y-18980056D01*
X31814284Y-18980056D02*
X31766665Y-18932437D01*
X31766665Y-18932437D02*
X31671427Y-18884818D01*
X31671427Y-18884818D02*
X31480951Y-18884818D01*
X31480951Y-18884818D02*
X31385713Y-18932437D01*
X31385713Y-18932437D02*
X31338094Y-18980056D01*
X31338094Y-18980056D02*
X31290475Y-19075294D01*
X31290475Y-19075294D02*
X31290475Y-19313389D01*
X31290475Y-19313389D02*
X31338094Y-19408627D01*
X31338094Y-19408627D02*
X31385713Y-19456246D01*
X31385713Y-19456246D02*
X31480951Y-19503865D01*
X31480951Y-19503865D02*
X31671427Y-19503865D01*
X31671427Y-19503865D02*
X31766665Y-19456246D01*
X31766665Y-19456246D02*
X31814284Y-19408627D01*
X31814284Y-19408627D02*
X31861903Y-19313389D01*
X5757142Y-17599580D02*
X5709523Y-17647200D01*
X5709523Y-17647200D02*
X5566666Y-17694819D01*
X5566666Y-17694819D02*
X5471428Y-17694819D01*
X5471428Y-17694819D02*
X5328571Y-17647200D01*
X5328571Y-17647200D02*
X5233333Y-17551961D01*
X5233333Y-17551961D02*
X5185714Y-17456723D01*
X5185714Y-17456723D02*
X5138095Y-17266247D01*
X5138095Y-17266247D02*
X5138095Y-17123390D01*
X5138095Y-17123390D02*
X5185714Y-16932914D01*
X5185714Y-16932914D02*
X5233333Y-16837676D01*
X5233333Y-16837676D02*
X5328571Y-16742438D01*
X5328571Y-16742438D02*
X5471428Y-16694819D01*
X5471428Y-16694819D02*
X5566666Y-16694819D01*
X5566666Y-16694819D02*
X5709523Y-16742438D01*
X5709523Y-16742438D02*
X5757142Y-16790057D01*
X6709523Y-17694819D02*
X6138095Y-17694819D01*
X6423809Y-17694819D02*
X6423809Y-16694819D01*
X6423809Y-16694819D02*
X6328571Y-16837676D01*
X6328571Y-16837676D02*
X6233333Y-16932914D01*
X6233333Y-16932914D02*
X6138095Y-16980533D01*
X7614285Y-16694819D02*
X7138095Y-16694819D01*
X7138095Y-16694819D02*
X7090476Y-17171009D01*
X7090476Y-17171009D02*
X7138095Y-17123390D01*
X7138095Y-17123390D02*
X7233333Y-17075771D01*
X7233333Y-17075771D02*
X7471428Y-17075771D01*
X7471428Y-17075771D02*
X7566666Y-17123390D01*
X7566666Y-17123390D02*
X7614285Y-17171009D01*
X7614285Y-17171009D02*
X7661904Y-17266247D01*
X7661904Y-17266247D02*
X7661904Y-17504342D01*
X7661904Y-17504342D02*
X7614285Y-17599580D01*
X7614285Y-17599580D02*
X7566666Y-17647200D01*
X7566666Y-17647200D02*
X7471428Y-17694819D01*
X7471428Y-17694819D02*
X7233333Y-17694819D01*
X7233333Y-17694819D02*
X7138095Y-17647200D01*
X7138095Y-17647200D02*
X7090476Y-17599580D01*
X21157141Y-17599580D02*
X21109522Y-17647200D01*
X21109522Y-17647200D02*
X20966665Y-17694819D01*
X20966665Y-17694819D02*
X20871427Y-17694819D01*
X20871427Y-17694819D02*
X20728570Y-17647200D01*
X20728570Y-17647200D02*
X20633332Y-17551961D01*
X20633332Y-17551961D02*
X20585713Y-17456723D01*
X20585713Y-17456723D02*
X20538094Y-17266247D01*
X20538094Y-17266247D02*
X20538094Y-17123390D01*
X20538094Y-17123390D02*
X20585713Y-16932914D01*
X20585713Y-16932914D02*
X20633332Y-16837676D01*
X20633332Y-16837676D02*
X20728570Y-16742438D01*
X20728570Y-16742438D02*
X20871427Y-16694819D01*
X20871427Y-16694819D02*
X20966665Y-16694819D01*
X20966665Y-16694819D02*
X21109522Y-16742438D01*
X21109522Y-16742438D02*
X21157141Y-16790057D01*
X21538094Y-16790057D02*
X21585713Y-16742438D01*
X21585713Y-16742438D02*
X21680951Y-16694819D01*
X21680951Y-16694819D02*
X21919046Y-16694819D01*
X21919046Y-16694819D02*
X22014284Y-16742438D01*
X22014284Y-16742438D02*
X22061903Y-16790057D01*
X22061903Y-16790057D02*
X22109522Y-16885295D01*
X22109522Y-16885295D02*
X22109522Y-16980533D01*
X22109522Y-16980533D02*
X22061903Y-17123390D01*
X22061903Y-17123390D02*
X21490475Y-17694819D01*
X21490475Y-17694819D02*
X22109522Y-17694819D01*
X22490475Y-16790057D02*
X22538094Y-16742438D01*
X22538094Y-16742438D02*
X22633332Y-16694819D01*
X22633332Y-16694819D02*
X22871427Y-16694819D01*
X22871427Y-16694819D02*
X22966665Y-16742438D01*
X22966665Y-16742438D02*
X23014284Y-16790057D01*
X23014284Y-16790057D02*
X23061903Y-16885295D01*
X23061903Y-16885295D02*
X23061903Y-16980533D01*
X23061903Y-16980533D02*
X23014284Y-17123390D01*
X23014284Y-17123390D02*
X22442856Y-17694819D01*
X22442856Y-17694819D02*
X23061903Y-17694819D01*
X34904761Y-7150057D02*
X34809523Y-7102438D01*
X34809523Y-7102438D02*
X34714285Y-7007200D01*
X34714285Y-7007200D02*
X34571428Y-6864342D01*
X34571428Y-6864342D02*
X34476190Y-6816723D01*
X34476190Y-6816723D02*
X34380952Y-6816723D01*
X34428571Y-7054819D02*
X34333333Y-7007200D01*
X34333333Y-7007200D02*
X34238095Y-6911961D01*
X34238095Y-6911961D02*
X34190476Y-6721485D01*
X34190476Y-6721485D02*
X34190476Y-6388152D01*
X34190476Y-6388152D02*
X34238095Y-6197676D01*
X34238095Y-6197676D02*
X34333333Y-6102438D01*
X34333333Y-6102438D02*
X34428571Y-6054819D01*
X34428571Y-6054819D02*
X34619047Y-6054819D01*
X34619047Y-6054819D02*
X34714285Y-6102438D01*
X34714285Y-6102438D02*
X34809523Y-6197676D01*
X34809523Y-6197676D02*
X34857142Y-6388152D01*
X34857142Y-6388152D02*
X34857142Y-6721485D01*
X34857142Y-6721485D02*
X34809523Y-6911961D01*
X34809523Y-6911961D02*
X34714285Y-7007200D01*
X34714285Y-7007200D02*
X34619047Y-7054819D01*
X34619047Y-7054819D02*
X34428571Y-7054819D01*
X35809523Y-7054819D02*
X35238095Y-7054819D01*
X35523809Y-7054819D02*
X35523809Y-6054819D01*
X35523809Y-6054819D02*
X35428571Y-6197676D01*
X35428571Y-6197676D02*
X35333333Y-6292914D01*
X35333333Y-6292914D02*
X35238095Y-6340533D01*
X16757142Y-15484819D02*
X16423809Y-15008628D01*
X16185714Y-15484819D02*
X16185714Y-14484819D01*
X16185714Y-14484819D02*
X16566666Y-14484819D01*
X16566666Y-14484819D02*
X16661904Y-14532438D01*
X16661904Y-14532438D02*
X16709523Y-14580057D01*
X16709523Y-14580057D02*
X16757142Y-14675295D01*
X16757142Y-14675295D02*
X16757142Y-14818152D01*
X16757142Y-14818152D02*
X16709523Y-14913390D01*
X16709523Y-14913390D02*
X16661904Y-14961009D01*
X16661904Y-14961009D02*
X16566666Y-15008628D01*
X16566666Y-15008628D02*
X16185714Y-15008628D01*
X17709523Y-15484819D02*
X17138095Y-15484819D01*
X17423809Y-15484819D02*
X17423809Y-14484819D01*
X17423809Y-14484819D02*
X17328571Y-14627676D01*
X17328571Y-14627676D02*
X17233333Y-14722914D01*
X17233333Y-14722914D02*
X17138095Y-14770533D01*
X18042857Y-14484819D02*
X18661904Y-14484819D01*
X18661904Y-14484819D02*
X18328571Y-14865771D01*
X18328571Y-14865771D02*
X18471428Y-14865771D01*
X18471428Y-14865771D02*
X18566666Y-14913390D01*
X18566666Y-14913390D02*
X18614285Y-14961009D01*
X18614285Y-14961009D02*
X18661904Y-15056247D01*
X18661904Y-15056247D02*
X18661904Y-15294342D01*
X18661904Y-15294342D02*
X18614285Y-15389580D01*
X18614285Y-15389580D02*
X18566666Y-15437200D01*
X18566666Y-15437200D02*
X18471428Y-15484819D01*
X18471428Y-15484819D02*
X18185714Y-15484819D01*
X18185714Y-15484819D02*
X18090476Y-15437200D01*
X18090476Y-15437200D02*
X18042857Y-15389580D01*
X1833333Y-13284819D02*
X1500000Y-12808628D01*
X1261905Y-13284819D02*
X1261905Y-12284819D01*
X1261905Y-12284819D02*
X1642857Y-12284819D01*
X1642857Y-12284819D02*
X1738095Y-12332438D01*
X1738095Y-12332438D02*
X1785714Y-12380057D01*
X1785714Y-12380057D02*
X1833333Y-12475295D01*
X1833333Y-12475295D02*
X1833333Y-12618152D01*
X1833333Y-12618152D02*
X1785714Y-12713390D01*
X1785714Y-12713390D02*
X1738095Y-12761009D01*
X1738095Y-12761009D02*
X1642857Y-12808628D01*
X1642857Y-12808628D02*
X1261905Y-12808628D01*
X2785714Y-13284819D02*
X2214286Y-13284819D01*
X2500000Y-13284819D02*
X2500000Y-12284819D01*
X2500000Y-12284819D02*
X2404762Y-12427676D01*
X2404762Y-12427676D02*
X2309524Y-12522914D01*
X2309524Y-12522914D02*
X2214286Y-12570533D01*
X30433332Y-12929580D02*
X30385713Y-12977200D01*
X30385713Y-12977200D02*
X30242856Y-13024819D01*
X30242856Y-13024819D02*
X30147618Y-13024819D01*
X30147618Y-13024819D02*
X30004761Y-12977200D01*
X30004761Y-12977200D02*
X29909523Y-12881961D01*
X29909523Y-12881961D02*
X29861904Y-12786723D01*
X29861904Y-12786723D02*
X29814285Y-12596247D01*
X29814285Y-12596247D02*
X29814285Y-12453390D01*
X29814285Y-12453390D02*
X29861904Y-12262914D01*
X29861904Y-12262914D02*
X29909523Y-12167676D01*
X29909523Y-12167676D02*
X30004761Y-12072438D01*
X30004761Y-12072438D02*
X30147618Y-12024819D01*
X30147618Y-12024819D02*
X30242856Y-12024819D01*
X30242856Y-12024819D02*
X30385713Y-12072438D01*
X30385713Y-12072438D02*
X30433332Y-12120057D01*
X31338094Y-12024819D02*
X30861904Y-12024819D01*
X30861904Y-12024819D02*
X30814285Y-12501009D01*
X30814285Y-12501009D02*
X30861904Y-12453390D01*
X30861904Y-12453390D02*
X30957142Y-12405771D01*
X30957142Y-12405771D02*
X31195237Y-12405771D01*
X31195237Y-12405771D02*
X31290475Y-12453390D01*
X31290475Y-12453390D02*
X31338094Y-12501009D01*
X31338094Y-12501009D02*
X31385713Y-12596247D01*
X31385713Y-12596247D02*
X31385713Y-12834342D01*
X31385713Y-12834342D02*
X31338094Y-12929580D01*
X31338094Y-12929580D02*
X31290475Y-12977200D01*
X31290475Y-12977200D02*
X31195237Y-13024819D01*
X31195237Y-13024819D02*
X30957142Y-13024819D01*
X30957142Y-13024819D02*
X30861904Y-12977200D01*
X30861904Y-12977200D02*
X30814285Y-12929580D01*
X23357141Y-15484819D02*
X23023808Y-15008628D01*
X22785713Y-15484819D02*
X22785713Y-14484819D01*
X22785713Y-14484819D02*
X23166665Y-14484819D01*
X23166665Y-14484819D02*
X23261903Y-14532438D01*
X23261903Y-14532438D02*
X23309522Y-14580057D01*
X23309522Y-14580057D02*
X23357141Y-14675295D01*
X23357141Y-14675295D02*
X23357141Y-14818152D01*
X23357141Y-14818152D02*
X23309522Y-14913390D01*
X23309522Y-14913390D02*
X23261903Y-14961009D01*
X23261903Y-14961009D02*
X23166665Y-15008628D01*
X23166665Y-15008628D02*
X22785713Y-15008628D01*
X24309522Y-15484819D02*
X23738094Y-15484819D01*
X24023808Y-15484819D02*
X24023808Y-14484819D01*
X24023808Y-14484819D02*
X23928570Y-14627676D01*
X23928570Y-14627676D02*
X23833332Y-14722914D01*
X23833332Y-14722914D02*
X23738094Y-14770533D01*
X25166665Y-14484819D02*
X24976189Y-14484819D01*
X24976189Y-14484819D02*
X24880951Y-14532438D01*
X24880951Y-14532438D02*
X24833332Y-14580057D01*
X24833332Y-14580057D02*
X24738094Y-14722914D01*
X24738094Y-14722914D02*
X24690475Y-14913390D01*
X24690475Y-14913390D02*
X24690475Y-15294342D01*
X24690475Y-15294342D02*
X24738094Y-15389580D01*
X24738094Y-15389580D02*
X24785713Y-15437200D01*
X24785713Y-15437200D02*
X24880951Y-15484819D01*
X24880951Y-15484819D02*
X25071427Y-15484819D01*
X25071427Y-15484819D02*
X25166665Y-15437200D01*
X25166665Y-15437200D02*
X25214284Y-15389580D01*
X25214284Y-15389580D02*
X25261903Y-15294342D01*
X25261903Y-15294342D02*
X25261903Y-15056247D01*
X25261903Y-15056247D02*
X25214284Y-14961009D01*
X25214284Y-14961009D02*
X25166665Y-14913390D01*
X25166665Y-14913390D02*
X25071427Y-14865771D01*
X25071427Y-14865771D02*
X24880951Y-14865771D01*
X24880951Y-14865771D02*
X24785713Y-14913390D01*
X24785713Y-14913390D02*
X24738094Y-14961009D01*
X24738094Y-14961009D02*
X24690475Y-15056247D01*
X36557142Y-19799579D02*
X36509523Y-19847199D01*
X36509523Y-19847199D02*
X36366666Y-19894818D01*
X36366666Y-19894818D02*
X36271428Y-19894818D01*
X36271428Y-19894818D02*
X36128571Y-19847199D01*
X36128571Y-19847199D02*
X36033333Y-19751960D01*
X36033333Y-19751960D02*
X35985714Y-19656722D01*
X35985714Y-19656722D02*
X35938095Y-19466246D01*
X35938095Y-19466246D02*
X35938095Y-19323389D01*
X35938095Y-19323389D02*
X35985714Y-19132913D01*
X35985714Y-19132913D02*
X36033333Y-19037675D01*
X36033333Y-19037675D02*
X36128571Y-18942437D01*
X36128571Y-18942437D02*
X36271428Y-18894818D01*
X36271428Y-18894818D02*
X36366666Y-18894818D01*
X36366666Y-18894818D02*
X36509523Y-18942437D01*
X36509523Y-18942437D02*
X36557142Y-18990056D01*
X36890476Y-18894818D02*
X37509523Y-18894818D01*
X37509523Y-18894818D02*
X37176190Y-19275770D01*
X37176190Y-19275770D02*
X37319047Y-19275770D01*
X37319047Y-19275770D02*
X37414285Y-19323389D01*
X37414285Y-19323389D02*
X37461904Y-19371008D01*
X37461904Y-19371008D02*
X37509523Y-19466246D01*
X37509523Y-19466246D02*
X37509523Y-19704341D01*
X37509523Y-19704341D02*
X37461904Y-19799579D01*
X37461904Y-19799579D02*
X37414285Y-19847199D01*
X37414285Y-19847199D02*
X37319047Y-19894818D01*
X37319047Y-19894818D02*
X37033333Y-19894818D01*
X37033333Y-19894818D02*
X36938095Y-19847199D01*
X36938095Y-19847199D02*
X36890476Y-19799579D01*
X38414285Y-18894818D02*
X37938095Y-18894818D01*
X37938095Y-18894818D02*
X37890476Y-19371008D01*
X37890476Y-19371008D02*
X37938095Y-19323389D01*
X37938095Y-19323389D02*
X38033333Y-19275770D01*
X38033333Y-19275770D02*
X38271428Y-19275770D01*
X38271428Y-19275770D02*
X38366666Y-19323389D01*
X38366666Y-19323389D02*
X38414285Y-19371008D01*
X38414285Y-19371008D02*
X38461904Y-19466246D01*
X38461904Y-19466246D02*
X38461904Y-19704341D01*
X38461904Y-19704341D02*
X38414285Y-19799579D01*
X38414285Y-19799579D02*
X38366666Y-19847199D01*
X38366666Y-19847199D02*
X38271428Y-19894818D01*
X38271428Y-19894818D02*
X38033333Y-19894818D01*
X38033333Y-19894818D02*
X37938095Y-19847199D01*
X37938095Y-19847199D02*
X37890476Y-19799579D01*
X38757142Y-15399580D02*
X38709523Y-15447200D01*
X38709523Y-15447200D02*
X38566666Y-15494819D01*
X38566666Y-15494819D02*
X38471428Y-15494819D01*
X38471428Y-15494819D02*
X38328571Y-15447200D01*
X38328571Y-15447200D02*
X38233333Y-15351961D01*
X38233333Y-15351961D02*
X38185714Y-15256723D01*
X38185714Y-15256723D02*
X38138095Y-15066247D01*
X38138095Y-15066247D02*
X38138095Y-14923390D01*
X38138095Y-14923390D02*
X38185714Y-14732914D01*
X38185714Y-14732914D02*
X38233333Y-14637676D01*
X38233333Y-14637676D02*
X38328571Y-14542438D01*
X38328571Y-14542438D02*
X38471428Y-14494819D01*
X38471428Y-14494819D02*
X38566666Y-14494819D01*
X38566666Y-14494819D02*
X38709523Y-14542438D01*
X38709523Y-14542438D02*
X38757142Y-14590057D01*
X39709523Y-15494819D02*
X39138095Y-15494819D01*
X39423809Y-15494819D02*
X39423809Y-14494819D01*
X39423809Y-14494819D02*
X39328571Y-14637676D01*
X39328571Y-14637676D02*
X39233333Y-14732914D01*
X39233333Y-14732914D02*
X39138095Y-14780533D01*
X40090476Y-14590057D02*
X40138095Y-14542438D01*
X40138095Y-14542438D02*
X40233333Y-14494819D01*
X40233333Y-14494819D02*
X40471428Y-14494819D01*
X40471428Y-14494819D02*
X40566666Y-14542438D01*
X40566666Y-14542438D02*
X40614285Y-14590057D01*
X40614285Y-14590057D02*
X40661904Y-14685295D01*
X40661904Y-14685295D02*
X40661904Y-14780533D01*
X40661904Y-14780533D02*
X40614285Y-14923390D01*
X40614285Y-14923390D02*
X40042857Y-15494819D01*
X40042857Y-15494819D02*
X40661904Y-15494819D01*
X38166666Y-33624819D02*
X38166666Y-34339104D01*
X38166666Y-34339104D02*
X38119047Y-34481961D01*
X38119047Y-34481961D02*
X38023809Y-34577200D01*
X38023809Y-34577200D02*
X37880952Y-34624819D01*
X37880952Y-34624819D02*
X37785714Y-34624819D01*
X39071428Y-33624819D02*
X38880952Y-33624819D01*
X38880952Y-33624819D02*
X38785714Y-33672438D01*
X38785714Y-33672438D02*
X38738095Y-33720057D01*
X38738095Y-33720057D02*
X38642857Y-33862914D01*
X38642857Y-33862914D02*
X38595238Y-34053390D01*
X38595238Y-34053390D02*
X38595238Y-34434342D01*
X38595238Y-34434342D02*
X38642857Y-34529580D01*
X38642857Y-34529580D02*
X38690476Y-34577200D01*
X38690476Y-34577200D02*
X38785714Y-34624819D01*
X38785714Y-34624819D02*
X38976190Y-34624819D01*
X38976190Y-34624819D02*
X39071428Y-34577200D01*
X39071428Y-34577200D02*
X39119047Y-34529580D01*
X39119047Y-34529580D02*
X39166666Y-34434342D01*
X39166666Y-34434342D02*
X39166666Y-34196247D01*
X39166666Y-34196247D02*
X39119047Y-34101009D01*
X39119047Y-34101009D02*
X39071428Y-34053390D01*
X39071428Y-34053390D02*
X38976190Y-34005771D01*
X38976190Y-34005771D02*
X38785714Y-34005771D01*
X38785714Y-34005771D02*
X38690476Y-34053390D01*
X38690476Y-34053390D02*
X38642857Y-34101009D01*
X38642857Y-34101009D02*
X38595238Y-34196247D01*
X38757142Y-17599580D02*
X38709523Y-17647200D01*
X38709523Y-17647200D02*
X38566666Y-17694819D01*
X38566666Y-17694819D02*
X38471428Y-17694819D01*
X38471428Y-17694819D02*
X38328571Y-17647200D01*
X38328571Y-17647200D02*
X38233333Y-17551961D01*
X38233333Y-17551961D02*
X38185714Y-17456723D01*
X38185714Y-17456723D02*
X38138095Y-17266247D01*
X38138095Y-17266247D02*
X38138095Y-17123390D01*
X38138095Y-17123390D02*
X38185714Y-16932914D01*
X38185714Y-16932914D02*
X38233333Y-16837676D01*
X38233333Y-16837676D02*
X38328571Y-16742438D01*
X38328571Y-16742438D02*
X38471428Y-16694819D01*
X38471428Y-16694819D02*
X38566666Y-16694819D01*
X38566666Y-16694819D02*
X38709523Y-16742438D01*
X38709523Y-16742438D02*
X38757142Y-16790057D01*
X39090476Y-16694819D02*
X39709523Y-16694819D01*
X39709523Y-16694819D02*
X39376190Y-17075771D01*
X39376190Y-17075771D02*
X39519047Y-17075771D01*
X39519047Y-17075771D02*
X39614285Y-17123390D01*
X39614285Y-17123390D02*
X39661904Y-17171009D01*
X39661904Y-17171009D02*
X39709523Y-17266247D01*
X39709523Y-17266247D02*
X39709523Y-17504342D01*
X39709523Y-17504342D02*
X39661904Y-17599580D01*
X39661904Y-17599580D02*
X39614285Y-17647200D01*
X39614285Y-17647200D02*
X39519047Y-17694819D01*
X39519047Y-17694819D02*
X39233333Y-17694819D01*
X39233333Y-17694819D02*
X39138095Y-17647200D01*
X39138095Y-17647200D02*
X39090476Y-17599580D01*
X40328571Y-16694819D02*
X40423809Y-16694819D01*
X40423809Y-16694819D02*
X40519047Y-16742438D01*
X40519047Y-16742438D02*
X40566666Y-16790057D01*
X40566666Y-16790057D02*
X40614285Y-16885295D01*
X40614285Y-16885295D02*
X40661904Y-17075771D01*
X40661904Y-17075771D02*
X40661904Y-17313866D01*
X40661904Y-17313866D02*
X40614285Y-17504342D01*
X40614285Y-17504342D02*
X40566666Y-17599580D01*
X40566666Y-17599580D02*
X40519047Y-17647200D01*
X40519047Y-17647200D02*
X40423809Y-17694819D01*
X40423809Y-17694819D02*
X40328571Y-17694819D01*
X40328571Y-17694819D02*
X40233333Y-17647200D01*
X40233333Y-17647200D02*
X40185714Y-17599580D01*
X40185714Y-17599580D02*
X40138095Y-17504342D01*
X40138095Y-17504342D02*
X40090476Y-17313866D01*
X40090476Y-17313866D02*
X40090476Y-17075771D01*
X40090476Y-17075771D02*
X40138095Y-16885295D01*
X40138095Y-16885295D02*
X40185714Y-16790057D01*
X40185714Y-16790057D02*
X40233333Y-16742438D01*
X40233333Y-16742438D02*
X40328571Y-16694819D01*
X23357141Y-17599580D02*
X23309522Y-17647200D01*
X23309522Y-17647200D02*
X23166665Y-17694819D01*
X23166665Y-17694819D02*
X23071427Y-17694819D01*
X23071427Y-17694819D02*
X22928570Y-17647200D01*
X22928570Y-17647200D02*
X22833332Y-17551961D01*
X22833332Y-17551961D02*
X22785713Y-17456723D01*
X22785713Y-17456723D02*
X22738094Y-17266247D01*
X22738094Y-17266247D02*
X22738094Y-17123390D01*
X22738094Y-17123390D02*
X22785713Y-16932914D01*
X22785713Y-16932914D02*
X22833332Y-16837676D01*
X22833332Y-16837676D02*
X22928570Y-16742438D01*
X22928570Y-16742438D02*
X23071427Y-16694819D01*
X23071427Y-16694819D02*
X23166665Y-16694819D01*
X23166665Y-16694819D02*
X23309522Y-16742438D01*
X23309522Y-16742438D02*
X23357141Y-16790057D01*
X23738094Y-16790057D02*
X23785713Y-16742438D01*
X23785713Y-16742438D02*
X23880951Y-16694819D01*
X23880951Y-16694819D02*
X24119046Y-16694819D01*
X24119046Y-16694819D02*
X24214284Y-16742438D01*
X24214284Y-16742438D02*
X24261903Y-16790057D01*
X24261903Y-16790057D02*
X24309522Y-16885295D01*
X24309522Y-16885295D02*
X24309522Y-16980533D01*
X24309522Y-16980533D02*
X24261903Y-17123390D01*
X24261903Y-17123390D02*
X23690475Y-17694819D01*
X23690475Y-17694819D02*
X24309522Y-17694819D01*
X24642856Y-16694819D02*
X25261903Y-16694819D01*
X25261903Y-16694819D02*
X24928570Y-17075771D01*
X24928570Y-17075771D02*
X25071427Y-17075771D01*
X25071427Y-17075771D02*
X25166665Y-17123390D01*
X25166665Y-17123390D02*
X25214284Y-17171009D01*
X25214284Y-17171009D02*
X25261903Y-17266247D01*
X25261903Y-17266247D02*
X25261903Y-17504342D01*
X25261903Y-17504342D02*
X25214284Y-17599580D01*
X25214284Y-17599580D02*
X25166665Y-17647200D01*
X25166665Y-17647200D02*
X25071427Y-17694819D01*
X25071427Y-17694819D02*
X24785713Y-17694819D01*
X24785713Y-17694819D02*
X24690475Y-17647200D01*
X24690475Y-17647200D02*
X24642856Y-17599580D01*
X32061904Y-18554818D02*
X32061904Y-17554818D01*
X32061904Y-17554818D02*
X32299999Y-17554818D01*
X32299999Y-17554818D02*
X32442856Y-17602437D01*
X32442856Y-17602437D02*
X32538094Y-17697675D01*
X32538094Y-17697675D02*
X32585713Y-17792913D01*
X32585713Y-17792913D02*
X32633332Y-17983389D01*
X32633332Y-17983389D02*
X32633332Y-18126246D01*
X32633332Y-18126246D02*
X32585713Y-18316722D01*
X32585713Y-18316722D02*
X32538094Y-18411960D01*
X32538094Y-18411960D02*
X32442856Y-18507199D01*
X32442856Y-18507199D02*
X32299999Y-18554818D01*
X32299999Y-18554818D02*
X32061904Y-18554818D01*
X33490475Y-17554818D02*
X33299999Y-17554818D01*
X33299999Y-17554818D02*
X33204761Y-17602437D01*
X33204761Y-17602437D02*
X33157142Y-17650056D01*
X33157142Y-17650056D02*
X33061904Y-17792913D01*
X33061904Y-17792913D02*
X33014285Y-17983389D01*
X33014285Y-17983389D02*
X33014285Y-18364341D01*
X33014285Y-18364341D02*
X33061904Y-18459579D01*
X33061904Y-18459579D02*
X33109523Y-18507199D01*
X33109523Y-18507199D02*
X33204761Y-18554818D01*
X33204761Y-18554818D02*
X33395237Y-18554818D01*
X33395237Y-18554818D02*
X33490475Y-18507199D01*
X33490475Y-18507199D02*
X33538094Y-18459579D01*
X33538094Y-18459579D02*
X33585713Y-18364341D01*
X33585713Y-18364341D02*
X33585713Y-18126246D01*
X33585713Y-18126246D02*
X33538094Y-18031008D01*
X33538094Y-18031008D02*
X33490475Y-17983389D01*
X33490475Y-17983389D02*
X33395237Y-17935770D01*
X33395237Y-17935770D02*
X33204761Y-17935770D01*
X33204761Y-17935770D02*
X33109523Y-17983389D01*
X33109523Y-17983389D02*
X33061904Y-18031008D01*
X33061904Y-18031008D02*
X33014285Y-18126246D01*
X31666666Y-32654819D02*
X31666666Y-33369104D01*
X31666666Y-33369104D02*
X31619047Y-33511961D01*
X31619047Y-33511961D02*
X31523809Y-33607200D01*
X31523809Y-33607200D02*
X31380952Y-33654819D01*
X31380952Y-33654819D02*
X31285714Y-33654819D01*
X32666666Y-33654819D02*
X32095238Y-33654819D01*
X32380952Y-33654819D02*
X32380952Y-32654819D01*
X32380952Y-32654819D02*
X32285714Y-32797676D01*
X32285714Y-32797676D02*
X32190476Y-32892914D01*
X32190476Y-32892914D02*
X32095238Y-32940533D01*
X31880952Y-7454819D02*
X31404762Y-7454819D01*
X31404762Y-7454819D02*
X31404762Y-6454819D01*
X32214286Y-6931009D02*
X32547619Y-6931009D01*
X32690476Y-7454819D02*
X32214286Y-7454819D01*
X32214286Y-7454819D02*
X32214286Y-6454819D01*
X32214286Y-6454819D02*
X32690476Y-6454819D01*
X33119048Y-7454819D02*
X33119048Y-6454819D01*
X33119048Y-6454819D02*
X33357143Y-6454819D01*
X33357143Y-6454819D02*
X33500000Y-6502438D01*
X33500000Y-6502438D02*
X33595238Y-6597676D01*
X33595238Y-6597676D02*
X33642857Y-6692914D01*
X33642857Y-6692914D02*
X33690476Y-6883390D01*
X33690476Y-6883390D02*
X33690476Y-7026247D01*
X33690476Y-7026247D02*
X33642857Y-7216723D01*
X33642857Y-7216723D02*
X33595238Y-7311961D01*
X33595238Y-7311961D02*
X33500000Y-7407200D01*
X33500000Y-7407200D02*
X33357143Y-7454819D01*
X33357143Y-7454819D02*
X33119048Y-7454819D01*
X34071429Y-6550057D02*
X34119048Y-6502438D01*
X34119048Y-6502438D02*
X34214286Y-6454819D01*
X34214286Y-6454819D02*
X34452381Y-6454819D01*
X34452381Y-6454819D02*
X34547619Y-6502438D01*
X34547619Y-6502438D02*
X34595238Y-6550057D01*
X34595238Y-6550057D02*
X34642857Y-6645295D01*
X34642857Y-6645295D02*
X34642857Y-6740533D01*
X34642857Y-6740533D02*
X34595238Y-6883390D01*
X34595238Y-6883390D02*
X34023810Y-7454819D01*
X34023810Y-7454819D02*
X34642857Y-7454819D01*
X20666666Y1645180D02*
X20666666Y930895D01*
X20666666Y930895D02*
X20619047Y788038D01*
X20619047Y788038D02*
X20523809Y692800D01*
X20523809Y692800D02*
X20380952Y645180D01*
X20380952Y645180D02*
X20285714Y645180D01*
X21571428Y1311847D02*
X21571428Y645180D01*
X21333333Y1692800D02*
X21095238Y978514D01*
X21095238Y978514D02*
X21714285Y978514D01*
X2166667Y-24807200D02*
X2309524Y-24854819D01*
X2309524Y-24854819D02*
X2547619Y-24854819D01*
X2547619Y-24854819D02*
X2642857Y-24807200D01*
X2642857Y-24807200D02*
X2690476Y-24759580D01*
X2690476Y-24759580D02*
X2738095Y-24664342D01*
X2738095Y-24664342D02*
X2738095Y-24569104D01*
X2738095Y-24569104D02*
X2690476Y-24473866D01*
X2690476Y-24473866D02*
X2642857Y-24426247D01*
X2642857Y-24426247D02*
X2547619Y-24378628D01*
X2547619Y-24378628D02*
X2357143Y-24331009D01*
X2357143Y-24331009D02*
X2261905Y-24283390D01*
X2261905Y-24283390D02*
X2214286Y-24235771D01*
X2214286Y-24235771D02*
X2166667Y-24140533D01*
X2166667Y-24140533D02*
X2166667Y-24045295D01*
X2166667Y-24045295D02*
X2214286Y-23950057D01*
X2214286Y-23950057D02*
X2261905Y-23902438D01*
X2261905Y-23902438D02*
X2357143Y-23854819D01*
X2357143Y-23854819D02*
X2595238Y-23854819D01*
X2595238Y-23854819D02*
X2738095Y-23902438D01*
X3071429Y-23854819D02*
X3309524Y-24854819D01*
X3309524Y-24854819D02*
X3500000Y-24140533D01*
X3500000Y-24140533D02*
X3690476Y-24854819D01*
X3690476Y-24854819D02*
X3928572Y-23854819D01*
X4261905Y-23950057D02*
X4309524Y-23902438D01*
X4309524Y-23902438D02*
X4404762Y-23854819D01*
X4404762Y-23854819D02*
X4642857Y-23854819D01*
X4642857Y-23854819D02*
X4738095Y-23902438D01*
X4738095Y-23902438D02*
X4785714Y-23950057D01*
X4785714Y-23950057D02*
X4833333Y-24045295D01*
X4833333Y-24045295D02*
X4833333Y-24140533D01*
X4833333Y-24140533D02*
X4785714Y-24283390D01*
X4785714Y-24283390D02*
X4214286Y-24854819D01*
X4214286Y-24854819D02*
X4833333Y-24854819D01*
X18957141Y-17599580D02*
X18909522Y-17647200D01*
X18909522Y-17647200D02*
X18766665Y-17694819D01*
X18766665Y-17694819D02*
X18671427Y-17694819D01*
X18671427Y-17694819D02*
X18528570Y-17647200D01*
X18528570Y-17647200D02*
X18433332Y-17551961D01*
X18433332Y-17551961D02*
X18385713Y-17456723D01*
X18385713Y-17456723D02*
X18338094Y-17266247D01*
X18338094Y-17266247D02*
X18338094Y-17123390D01*
X18338094Y-17123390D02*
X18385713Y-16932914D01*
X18385713Y-16932914D02*
X18433332Y-16837676D01*
X18433332Y-16837676D02*
X18528570Y-16742438D01*
X18528570Y-16742438D02*
X18671427Y-16694819D01*
X18671427Y-16694819D02*
X18766665Y-16694819D01*
X18766665Y-16694819D02*
X18909522Y-16742438D01*
X18909522Y-16742438D02*
X18957141Y-16790057D01*
X19338094Y-16790057D02*
X19385713Y-16742438D01*
X19385713Y-16742438D02*
X19480951Y-16694819D01*
X19480951Y-16694819D02*
X19719046Y-16694819D01*
X19719046Y-16694819D02*
X19814284Y-16742438D01*
X19814284Y-16742438D02*
X19861903Y-16790057D01*
X19861903Y-16790057D02*
X19909522Y-16885295D01*
X19909522Y-16885295D02*
X19909522Y-16980533D01*
X19909522Y-16980533D02*
X19861903Y-17123390D01*
X19861903Y-17123390D02*
X19290475Y-17694819D01*
X19290475Y-17694819D02*
X19909522Y-17694819D01*
X20861903Y-17694819D02*
X20290475Y-17694819D01*
X20576189Y-17694819D02*
X20576189Y-16694819D01*
X20576189Y-16694819D02*
X20480951Y-16837676D01*
X20480951Y-16837676D02*
X20385713Y-16932914D01*
X20385713Y-16932914D02*
X20290475Y-16980533D01*
X38166666Y-2624819D02*
X38166666Y-3339104D01*
X38166666Y-3339104D02*
X38119047Y-3481961D01*
X38119047Y-3481961D02*
X38023809Y-3577200D01*
X38023809Y-3577200D02*
X37880952Y-3624819D01*
X37880952Y-3624819D02*
X37785714Y-3624819D01*
X39119047Y-2624819D02*
X38642857Y-2624819D01*
X38642857Y-2624819D02*
X38595238Y-3101009D01*
X38595238Y-3101009D02*
X38642857Y-3053390D01*
X38642857Y-3053390D02*
X38738095Y-3005771D01*
X38738095Y-3005771D02*
X38976190Y-3005771D01*
X38976190Y-3005771D02*
X39071428Y-3053390D01*
X39071428Y-3053390D02*
X39119047Y-3101009D01*
X39119047Y-3101009D02*
X39166666Y-3196247D01*
X39166666Y-3196247D02*
X39166666Y-3434342D01*
X39166666Y-3434342D02*
X39119047Y-3529580D01*
X39119047Y-3529580D02*
X39071428Y-3577200D01*
X39071428Y-3577200D02*
X38976190Y-3624819D01*
X38976190Y-3624819D02*
X38738095Y-3624819D01*
X38738095Y-3624819D02*
X38642857Y-3577200D01*
X38642857Y-3577200D02*
X38595238Y-3529580D01*
X10157142Y-15484819D02*
X9823809Y-15008628D01*
X9585714Y-15484819D02*
X9585714Y-14484819D01*
X9585714Y-14484819D02*
X9966666Y-14484819D01*
X9966666Y-14484819D02*
X10061904Y-14532438D01*
X10061904Y-14532438D02*
X10109523Y-14580057D01*
X10109523Y-14580057D02*
X10157142Y-14675295D01*
X10157142Y-14675295D02*
X10157142Y-14818152D01*
X10157142Y-14818152D02*
X10109523Y-14913390D01*
X10109523Y-14913390D02*
X10061904Y-14961009D01*
X10061904Y-14961009D02*
X9966666Y-15008628D01*
X9966666Y-15008628D02*
X9585714Y-15008628D01*
X11109523Y-15484819D02*
X10538095Y-15484819D01*
X10823809Y-15484819D02*
X10823809Y-14484819D01*
X10823809Y-14484819D02*
X10728571Y-14627676D01*
X10728571Y-14627676D02*
X10633333Y-14722914D01*
X10633333Y-14722914D02*
X10538095Y-14770533D01*
X11728571Y-14484819D02*
X11823809Y-14484819D01*
X11823809Y-14484819D02*
X11919047Y-14532438D01*
X11919047Y-14532438D02*
X11966666Y-14580057D01*
X11966666Y-14580057D02*
X12014285Y-14675295D01*
X12014285Y-14675295D02*
X12061904Y-14865771D01*
X12061904Y-14865771D02*
X12061904Y-15103866D01*
X12061904Y-15103866D02*
X12014285Y-15294342D01*
X12014285Y-15294342D02*
X11966666Y-15389580D01*
X11966666Y-15389580D02*
X11919047Y-15437200D01*
X11919047Y-15437200D02*
X11823809Y-15484819D01*
X11823809Y-15484819D02*
X11728571Y-15484819D01*
X11728571Y-15484819D02*
X11633333Y-15437200D01*
X11633333Y-15437200D02*
X11585714Y-15389580D01*
X11585714Y-15389580D02*
X11538095Y-15294342D01*
X11538095Y-15294342D02*
X11490476Y-15103866D01*
X11490476Y-15103866D02*
X11490476Y-14865771D01*
X11490476Y-14865771D02*
X11538095Y-14675295D01*
X11538095Y-14675295D02*
X11585714Y-14580057D01*
X11585714Y-14580057D02*
X11633333Y-14532438D01*
X11633333Y-14532438D02*
X11728571Y-14484819D01*
X14557142Y-19884818D02*
X14223809Y-19408627D01*
X13985714Y-19884818D02*
X13985714Y-18884818D01*
X13985714Y-18884818D02*
X14366666Y-18884818D01*
X14366666Y-18884818D02*
X14461904Y-18932437D01*
X14461904Y-18932437D02*
X14509523Y-18980056D01*
X14509523Y-18980056D02*
X14557142Y-19075294D01*
X14557142Y-19075294D02*
X14557142Y-19218151D01*
X14557142Y-19218151D02*
X14509523Y-19313389D01*
X14509523Y-19313389D02*
X14461904Y-19361008D01*
X14461904Y-19361008D02*
X14366666Y-19408627D01*
X14366666Y-19408627D02*
X13985714Y-19408627D01*
X14938095Y-18980056D02*
X14985714Y-18932437D01*
X14985714Y-18932437D02*
X15080952Y-18884818D01*
X15080952Y-18884818D02*
X15319047Y-18884818D01*
X15319047Y-18884818D02*
X15414285Y-18932437D01*
X15414285Y-18932437D02*
X15461904Y-18980056D01*
X15461904Y-18980056D02*
X15509523Y-19075294D01*
X15509523Y-19075294D02*
X15509523Y-19170532D01*
X15509523Y-19170532D02*
X15461904Y-19313389D01*
X15461904Y-19313389D02*
X14890476Y-19884818D01*
X14890476Y-19884818D02*
X15509523Y-19884818D01*
X15842857Y-18884818D02*
X16461904Y-18884818D01*
X16461904Y-18884818D02*
X16128571Y-19265770D01*
X16128571Y-19265770D02*
X16271428Y-19265770D01*
X16271428Y-19265770D02*
X16366666Y-19313389D01*
X16366666Y-19313389D02*
X16414285Y-19361008D01*
X16414285Y-19361008D02*
X16461904Y-19456246D01*
X16461904Y-19456246D02*
X16461904Y-19694341D01*
X16461904Y-19694341D02*
X16414285Y-19789579D01*
X16414285Y-19789579D02*
X16366666Y-19837199D01*
X16366666Y-19837199D02*
X16271428Y-19884818D01*
X16271428Y-19884818D02*
X15985714Y-19884818D01*
X15985714Y-19884818D02*
X15890476Y-19837199D01*
X15890476Y-19837199D02*
X15842857Y-19789579D01*
X12261905Y-18554818D02*
X12261905Y-17554818D01*
X12261905Y-17554818D02*
X12500000Y-17554818D01*
X12500000Y-17554818D02*
X12642857Y-17602437D01*
X12642857Y-17602437D02*
X12738095Y-17697675D01*
X12738095Y-17697675D02*
X12785714Y-17792913D01*
X12785714Y-17792913D02*
X12833333Y-17983389D01*
X12833333Y-17983389D02*
X12833333Y-18126246D01*
X12833333Y-18126246D02*
X12785714Y-18316722D01*
X12785714Y-18316722D02*
X12738095Y-18411960D01*
X12738095Y-18411960D02*
X12642857Y-18507199D01*
X12642857Y-18507199D02*
X12500000Y-18554818D01*
X12500000Y-18554818D02*
X12261905Y-18554818D01*
X13166667Y-17554818D02*
X13785714Y-17554818D01*
X13785714Y-17554818D02*
X13452381Y-17935770D01*
X13452381Y-17935770D02*
X13595238Y-17935770D01*
X13595238Y-17935770D02*
X13690476Y-17983389D01*
X13690476Y-17983389D02*
X13738095Y-18031008D01*
X13738095Y-18031008D02*
X13785714Y-18126246D01*
X13785714Y-18126246D02*
X13785714Y-18364341D01*
X13785714Y-18364341D02*
X13738095Y-18459579D01*
X13738095Y-18459579D02*
X13690476Y-18507199D01*
X13690476Y-18507199D02*
X13595238Y-18554818D01*
X13595238Y-18554818D02*
X13309524Y-18554818D01*
X13309524Y-18554818D02*
X13214286Y-18507199D01*
X13214286Y-18507199D02*
X13166667Y-18459579D01*
X12833333Y-12679580D02*
X12785714Y-12727200D01*
X12785714Y-12727200D02*
X12642857Y-12774819D01*
X12642857Y-12774819D02*
X12547619Y-12774819D01*
X12547619Y-12774819D02*
X12404762Y-12727200D01*
X12404762Y-12727200D02*
X12309524Y-12631961D01*
X12309524Y-12631961D02*
X12261905Y-12536723D01*
X12261905Y-12536723D02*
X12214286Y-12346247D01*
X12214286Y-12346247D02*
X12214286Y-12203390D01*
X12214286Y-12203390D02*
X12261905Y-12012914D01*
X12261905Y-12012914D02*
X12309524Y-11917676D01*
X12309524Y-11917676D02*
X12404762Y-11822438D01*
X12404762Y-11822438D02*
X12547619Y-11774819D01*
X12547619Y-11774819D02*
X12642857Y-11774819D01*
X12642857Y-11774819D02*
X12785714Y-11822438D01*
X12785714Y-11822438D02*
X12833333Y-11870057D01*
X13214286Y-11870057D02*
X13261905Y-11822438D01*
X13261905Y-11822438D02*
X13357143Y-11774819D01*
X13357143Y-11774819D02*
X13595238Y-11774819D01*
X13595238Y-11774819D02*
X13690476Y-11822438D01*
X13690476Y-11822438D02*
X13738095Y-11870057D01*
X13738095Y-11870057D02*
X13785714Y-11965295D01*
X13785714Y-11965295D02*
X13785714Y-12060533D01*
X13785714Y-12060533D02*
X13738095Y-12203390D01*
X13738095Y-12203390D02*
X13166667Y-12774819D01*
X13166667Y-12774819D02*
X13785714Y-12774819D01*
X7957142Y-17599580D02*
X7909523Y-17647200D01*
X7909523Y-17647200D02*
X7766666Y-17694819D01*
X7766666Y-17694819D02*
X7671428Y-17694819D01*
X7671428Y-17694819D02*
X7528571Y-17647200D01*
X7528571Y-17647200D02*
X7433333Y-17551961D01*
X7433333Y-17551961D02*
X7385714Y-17456723D01*
X7385714Y-17456723D02*
X7338095Y-17266247D01*
X7338095Y-17266247D02*
X7338095Y-17123390D01*
X7338095Y-17123390D02*
X7385714Y-16932914D01*
X7385714Y-16932914D02*
X7433333Y-16837676D01*
X7433333Y-16837676D02*
X7528571Y-16742438D01*
X7528571Y-16742438D02*
X7671428Y-16694819D01*
X7671428Y-16694819D02*
X7766666Y-16694819D01*
X7766666Y-16694819D02*
X7909523Y-16742438D01*
X7909523Y-16742438D02*
X7957142Y-16790057D01*
X8909523Y-17694819D02*
X8338095Y-17694819D01*
X8623809Y-17694819D02*
X8623809Y-16694819D01*
X8623809Y-16694819D02*
X8528571Y-16837676D01*
X8528571Y-16837676D02*
X8433333Y-16932914D01*
X8433333Y-16932914D02*
X8338095Y-16980533D01*
X9766666Y-16694819D02*
X9576190Y-16694819D01*
X9576190Y-16694819D02*
X9480952Y-16742438D01*
X9480952Y-16742438D02*
X9433333Y-16790057D01*
X9433333Y-16790057D02*
X9338095Y-16932914D01*
X9338095Y-16932914D02*
X9290476Y-17123390D01*
X9290476Y-17123390D02*
X9290476Y-17504342D01*
X9290476Y-17504342D02*
X9338095Y-17599580D01*
X9338095Y-17599580D02*
X9385714Y-17647200D01*
X9385714Y-17647200D02*
X9480952Y-17694819D01*
X9480952Y-17694819D02*
X9671428Y-17694819D01*
X9671428Y-17694819D02*
X9766666Y-17647200D01*
X9766666Y-17647200D02*
X9814285Y-17599580D01*
X9814285Y-17599580D02*
X9861904Y-17504342D01*
X9861904Y-17504342D02*
X9861904Y-17266247D01*
X9861904Y-17266247D02*
X9814285Y-17171009D01*
X9814285Y-17171009D02*
X9766666Y-17123390D01*
X9766666Y-17123390D02*
X9671428Y-17075771D01*
X9671428Y-17075771D02*
X9480952Y-17075771D01*
X9480952Y-17075771D02*
X9385714Y-17123390D01*
X9385714Y-17123390D02*
X9338095Y-17171009D01*
X9338095Y-17171009D02*
X9290476Y-17266247D01*
X17233333Y-12679580D02*
X17185714Y-12727200D01*
X17185714Y-12727200D02*
X17042857Y-12774819D01*
X17042857Y-12774819D02*
X16947619Y-12774819D01*
X16947619Y-12774819D02*
X16804762Y-12727200D01*
X16804762Y-12727200D02*
X16709524Y-12631961D01*
X16709524Y-12631961D02*
X16661905Y-12536723D01*
X16661905Y-12536723D02*
X16614286Y-12346247D01*
X16614286Y-12346247D02*
X16614286Y-12203390D01*
X16614286Y-12203390D02*
X16661905Y-12012914D01*
X16661905Y-12012914D02*
X16709524Y-11917676D01*
X16709524Y-11917676D02*
X16804762Y-11822438D01*
X16804762Y-11822438D02*
X16947619Y-11774819D01*
X16947619Y-11774819D02*
X17042857Y-11774819D01*
X17042857Y-11774819D02*
X17185714Y-11822438D01*
X17185714Y-11822438D02*
X17233333Y-11870057D01*
X17566667Y-11774819D02*
X18185714Y-11774819D01*
X18185714Y-11774819D02*
X17852381Y-12155771D01*
X17852381Y-12155771D02*
X17995238Y-12155771D01*
X17995238Y-12155771D02*
X18090476Y-12203390D01*
X18090476Y-12203390D02*
X18138095Y-12251009D01*
X18138095Y-12251009D02*
X18185714Y-12346247D01*
X18185714Y-12346247D02*
X18185714Y-12584342D01*
X18185714Y-12584342D02*
X18138095Y-12679580D01*
X18138095Y-12679580D02*
X18090476Y-12727200D01*
X18090476Y-12727200D02*
X17995238Y-12774819D01*
X17995238Y-12774819D02*
X17709524Y-12774819D01*
X17709524Y-12774819D02*
X17614286Y-12727200D01*
X17614286Y-12727200D02*
X17566667Y-12679580D01*
X27238095Y-23354819D02*
X27238095Y-24164342D01*
X27238095Y-24164342D02*
X27285714Y-24259580D01*
X27285714Y-24259580D02*
X27333333Y-24307200D01*
X27333333Y-24307200D02*
X27428571Y-24354819D01*
X27428571Y-24354819D02*
X27619047Y-24354819D01*
X27619047Y-24354819D02*
X27714285Y-24307200D01*
X27714285Y-24307200D02*
X27761904Y-24259580D01*
X27761904Y-24259580D02*
X27809523Y-24164342D01*
X27809523Y-24164342D02*
X27809523Y-23354819D01*
X28190476Y-23354819D02*
X28857142Y-23354819D01*
X28857142Y-23354819D02*
X28428571Y-24354819D01*
X29957141Y-15484819D02*
X29623808Y-15008628D01*
X29385713Y-15484819D02*
X29385713Y-14484819D01*
X29385713Y-14484819D02*
X29766665Y-14484819D01*
X29766665Y-14484819D02*
X29861903Y-14532438D01*
X29861903Y-14532438D02*
X29909522Y-14580057D01*
X29909522Y-14580057D02*
X29957141Y-14675295D01*
X29957141Y-14675295D02*
X29957141Y-14818152D01*
X29957141Y-14818152D02*
X29909522Y-14913390D01*
X29909522Y-14913390D02*
X29861903Y-14961009D01*
X29861903Y-14961009D02*
X29766665Y-15008628D01*
X29766665Y-15008628D02*
X29385713Y-15008628D01*
X30909522Y-15484819D02*
X30338094Y-15484819D01*
X30623808Y-15484819D02*
X30623808Y-14484819D01*
X30623808Y-14484819D02*
X30528570Y-14627676D01*
X30528570Y-14627676D02*
X30433332Y-14722914D01*
X30433332Y-14722914D02*
X30338094Y-14770533D01*
X31385713Y-15484819D02*
X31576189Y-15484819D01*
X31576189Y-15484819D02*
X31671427Y-15437200D01*
X31671427Y-15437200D02*
X31719046Y-15389580D01*
X31719046Y-15389580D02*
X31814284Y-15246723D01*
X31814284Y-15246723D02*
X31861903Y-15056247D01*
X31861903Y-15056247D02*
X31861903Y-14675295D01*
X31861903Y-14675295D02*
X31814284Y-14580057D01*
X31814284Y-14580057D02*
X31766665Y-14532438D01*
X31766665Y-14532438D02*
X31671427Y-14484819D01*
X31671427Y-14484819D02*
X31480951Y-14484819D01*
X31480951Y-14484819D02*
X31385713Y-14532438D01*
X31385713Y-14532438D02*
X31338094Y-14580057D01*
X31338094Y-14580057D02*
X31290475Y-14675295D01*
X31290475Y-14675295D02*
X31290475Y-14913390D01*
X31290475Y-14913390D02*
X31338094Y-15008628D01*
X31338094Y-15008628D02*
X31385713Y-15056247D01*
X31385713Y-15056247D02*
X31480951Y-15103866D01*
X31480951Y-15103866D02*
X31671427Y-15103866D01*
X31671427Y-15103866D02*
X31766665Y-15056247D01*
X31766665Y-15056247D02*
X31814284Y-15008628D01*
X31814284Y-15008628D02*
X31861903Y-14913390D01*
X27757141Y-19884818D02*
X27423808Y-19408627D01*
X27185713Y-19884818D02*
X27185713Y-18884818D01*
X27185713Y-18884818D02*
X27566665Y-18884818D01*
X27566665Y-18884818D02*
X27661903Y-18932437D01*
X27661903Y-18932437D02*
X27709522Y-18980056D01*
X27709522Y-18980056D02*
X27757141Y-19075294D01*
X27757141Y-19075294D02*
X27757141Y-19218151D01*
X27757141Y-19218151D02*
X27709522Y-19313389D01*
X27709522Y-19313389D02*
X27661903Y-19361008D01*
X27661903Y-19361008D02*
X27566665Y-19408627D01*
X27566665Y-19408627D02*
X27185713Y-19408627D01*
X28138094Y-18980056D02*
X28185713Y-18932437D01*
X28185713Y-18932437D02*
X28280951Y-18884818D01*
X28280951Y-18884818D02*
X28519046Y-18884818D01*
X28519046Y-18884818D02*
X28614284Y-18932437D01*
X28614284Y-18932437D02*
X28661903Y-18980056D01*
X28661903Y-18980056D02*
X28709522Y-19075294D01*
X28709522Y-19075294D02*
X28709522Y-19170532D01*
X28709522Y-19170532D02*
X28661903Y-19313389D01*
X28661903Y-19313389D02*
X28090475Y-19884818D01*
X28090475Y-19884818D02*
X28709522Y-19884818D01*
X29614284Y-18884818D02*
X29138094Y-18884818D01*
X29138094Y-18884818D02*
X29090475Y-19361008D01*
X29090475Y-19361008D02*
X29138094Y-19313389D01*
X29138094Y-19313389D02*
X29233332Y-19265770D01*
X29233332Y-19265770D02*
X29471427Y-19265770D01*
X29471427Y-19265770D02*
X29566665Y-19313389D01*
X29566665Y-19313389D02*
X29614284Y-19361008D01*
X29614284Y-19361008D02*
X29661903Y-19456246D01*
X29661903Y-19456246D02*
X29661903Y-19694341D01*
X29661903Y-19694341D02*
X29614284Y-19789579D01*
X29614284Y-19789579D02*
X29566665Y-19837199D01*
X29566665Y-19837199D02*
X29471427Y-19884818D01*
X29471427Y-19884818D02*
X29233332Y-19884818D01*
X29233332Y-19884818D02*
X29138094Y-19837199D01*
X29138094Y-19837199D02*
X29090475Y-19789579D01*
X34357142Y-15484819D02*
X34023809Y-15008628D01*
X33785714Y-15484819D02*
X33785714Y-14484819D01*
X33785714Y-14484819D02*
X34166666Y-14484819D01*
X34166666Y-14484819D02*
X34261904Y-14532438D01*
X34261904Y-14532438D02*
X34309523Y-14580057D01*
X34309523Y-14580057D02*
X34357142Y-14675295D01*
X34357142Y-14675295D02*
X34357142Y-14818152D01*
X34357142Y-14818152D02*
X34309523Y-14913390D01*
X34309523Y-14913390D02*
X34261904Y-14961009D01*
X34261904Y-14961009D02*
X34166666Y-15008628D01*
X34166666Y-15008628D02*
X33785714Y-15008628D01*
X34738095Y-14580057D02*
X34785714Y-14532438D01*
X34785714Y-14532438D02*
X34880952Y-14484819D01*
X34880952Y-14484819D02*
X35119047Y-14484819D01*
X35119047Y-14484819D02*
X35214285Y-14532438D01*
X35214285Y-14532438D02*
X35261904Y-14580057D01*
X35261904Y-14580057D02*
X35309523Y-14675295D01*
X35309523Y-14675295D02*
X35309523Y-14770533D01*
X35309523Y-14770533D02*
X35261904Y-14913390D01*
X35261904Y-14913390D02*
X34690476Y-15484819D01*
X34690476Y-15484819D02*
X35309523Y-15484819D01*
X36261904Y-15484819D02*
X35690476Y-15484819D01*
X35976190Y-15484819D02*
X35976190Y-14484819D01*
X35976190Y-14484819D02*
X35880952Y-14627676D01*
X35880952Y-14627676D02*
X35785714Y-14722914D01*
X35785714Y-14722914D02*
X35690476Y-14770533D01*
X14461905Y-11954819D02*
X14461905Y-10954819D01*
X14461905Y-10954819D02*
X14700000Y-10954819D01*
X14700000Y-10954819D02*
X14842857Y-11002438D01*
X14842857Y-11002438D02*
X14938095Y-11097676D01*
X14938095Y-11097676D02*
X14985714Y-11192914D01*
X14985714Y-11192914D02*
X15033333Y-11383390D01*
X15033333Y-11383390D02*
X15033333Y-11526247D01*
X15033333Y-11526247D02*
X14985714Y-11716723D01*
X14985714Y-11716723D02*
X14938095Y-11811961D01*
X14938095Y-11811961D02*
X14842857Y-11907200D01*
X14842857Y-11907200D02*
X14700000Y-11954819D01*
X14700000Y-11954819D02*
X14461905Y-11954819D01*
X15414286Y-11050057D02*
X15461905Y-11002438D01*
X15461905Y-11002438D02*
X15557143Y-10954819D01*
X15557143Y-10954819D02*
X15795238Y-10954819D01*
X15795238Y-10954819D02*
X15890476Y-11002438D01*
X15890476Y-11002438D02*
X15938095Y-11050057D01*
X15938095Y-11050057D02*
X15985714Y-11145295D01*
X15985714Y-11145295D02*
X15985714Y-11240533D01*
X15985714Y-11240533D02*
X15938095Y-11383390D01*
X15938095Y-11383390D02*
X15366667Y-11954819D01*
X15366667Y-11954819D02*
X15985714Y-11954819D01*
X32157141Y-15484819D02*
X31823808Y-15008628D01*
X31585713Y-15484819D02*
X31585713Y-14484819D01*
X31585713Y-14484819D02*
X31966665Y-14484819D01*
X31966665Y-14484819D02*
X32061903Y-14532438D01*
X32061903Y-14532438D02*
X32109522Y-14580057D01*
X32109522Y-14580057D02*
X32157141Y-14675295D01*
X32157141Y-14675295D02*
X32157141Y-14818152D01*
X32157141Y-14818152D02*
X32109522Y-14913390D01*
X32109522Y-14913390D02*
X32061903Y-14961009D01*
X32061903Y-14961009D02*
X31966665Y-15008628D01*
X31966665Y-15008628D02*
X31585713Y-15008628D01*
X32538094Y-14580057D02*
X32585713Y-14532438D01*
X32585713Y-14532438D02*
X32680951Y-14484819D01*
X32680951Y-14484819D02*
X32919046Y-14484819D01*
X32919046Y-14484819D02*
X33014284Y-14532438D01*
X33014284Y-14532438D02*
X33061903Y-14580057D01*
X33061903Y-14580057D02*
X33109522Y-14675295D01*
X33109522Y-14675295D02*
X33109522Y-14770533D01*
X33109522Y-14770533D02*
X33061903Y-14913390D01*
X33061903Y-14913390D02*
X32490475Y-15484819D01*
X32490475Y-15484819D02*
X33109522Y-15484819D01*
X33728570Y-14484819D02*
X33823808Y-14484819D01*
X33823808Y-14484819D02*
X33919046Y-14532438D01*
X33919046Y-14532438D02*
X33966665Y-14580057D01*
X33966665Y-14580057D02*
X34014284Y-14675295D01*
X34014284Y-14675295D02*
X34061903Y-14865771D01*
X34061903Y-14865771D02*
X34061903Y-15103866D01*
X34061903Y-15103866D02*
X34014284Y-15294342D01*
X34014284Y-15294342D02*
X33966665Y-15389580D01*
X33966665Y-15389580D02*
X33919046Y-15437200D01*
X33919046Y-15437200D02*
X33823808Y-15484819D01*
X33823808Y-15484819D02*
X33728570Y-15484819D01*
X33728570Y-15484819D02*
X33633332Y-15437200D01*
X33633332Y-15437200D02*
X33585713Y-15389580D01*
X33585713Y-15389580D02*
X33538094Y-15294342D01*
X33538094Y-15294342D02*
X33490475Y-15103866D01*
X33490475Y-15103866D02*
X33490475Y-14865771D01*
X33490475Y-14865771D02*
X33538094Y-14675295D01*
X33538094Y-14675295D02*
X33585713Y-14580057D01*
X33585713Y-14580057D02*
X33633332Y-14532438D01*
X33633332Y-14532438D02*
X33728570Y-14484819D01*
X14557142Y-15484819D02*
X14223809Y-15008628D01*
X13985714Y-15484819D02*
X13985714Y-14484819D01*
X13985714Y-14484819D02*
X14366666Y-14484819D01*
X14366666Y-14484819D02*
X14461904Y-14532438D01*
X14461904Y-14532438D02*
X14509523Y-14580057D01*
X14509523Y-14580057D02*
X14557142Y-14675295D01*
X14557142Y-14675295D02*
X14557142Y-14818152D01*
X14557142Y-14818152D02*
X14509523Y-14913390D01*
X14509523Y-14913390D02*
X14461904Y-14961009D01*
X14461904Y-14961009D02*
X14366666Y-15008628D01*
X14366666Y-15008628D02*
X13985714Y-15008628D01*
X15509523Y-15484819D02*
X14938095Y-15484819D01*
X15223809Y-15484819D02*
X15223809Y-14484819D01*
X15223809Y-14484819D02*
X15128571Y-14627676D01*
X15128571Y-14627676D02*
X15033333Y-14722914D01*
X15033333Y-14722914D02*
X14938095Y-14770533D01*
X15890476Y-14580057D02*
X15938095Y-14532438D01*
X15938095Y-14532438D02*
X16033333Y-14484819D01*
X16033333Y-14484819D02*
X16271428Y-14484819D01*
X16271428Y-14484819D02*
X16366666Y-14532438D01*
X16366666Y-14532438D02*
X16414285Y-14580057D01*
X16414285Y-14580057D02*
X16461904Y-14675295D01*
X16461904Y-14675295D02*
X16461904Y-14770533D01*
X16461904Y-14770533D02*
X16414285Y-14913390D01*
X16414285Y-14913390D02*
X15842857Y-15484819D01*
X15842857Y-15484819D02*
X16461904Y-15484819D01*
X12738095Y-23654819D02*
X12738095Y-24464342D01*
X12738095Y-24464342D02*
X12785714Y-24559580D01*
X12785714Y-24559580D02*
X12833333Y-24607200D01*
X12833333Y-24607200D02*
X12928571Y-24654819D01*
X12928571Y-24654819D02*
X13119047Y-24654819D01*
X13119047Y-24654819D02*
X13214285Y-24607200D01*
X13214285Y-24607200D02*
X13261904Y-24559580D01*
X13261904Y-24559580D02*
X13309523Y-24464342D01*
X13309523Y-24464342D02*
X13309523Y-23654819D01*
X14214285Y-23654819D02*
X14023809Y-23654819D01*
X14023809Y-23654819D02*
X13928571Y-23702438D01*
X13928571Y-23702438D02*
X13880952Y-23750057D01*
X13880952Y-23750057D02*
X13785714Y-23892914D01*
X13785714Y-23892914D02*
X13738095Y-24083390D01*
X13738095Y-24083390D02*
X13738095Y-24464342D01*
X13738095Y-24464342D02*
X13785714Y-24559580D01*
X13785714Y-24559580D02*
X13833333Y-24607200D01*
X13833333Y-24607200D02*
X13928571Y-24654819D01*
X13928571Y-24654819D02*
X14119047Y-24654819D01*
X14119047Y-24654819D02*
X14214285Y-24607200D01*
X14214285Y-24607200D02*
X14261904Y-24559580D01*
X14261904Y-24559580D02*
X14309523Y-24464342D01*
X14309523Y-24464342D02*
X14309523Y-24226247D01*
X14309523Y-24226247D02*
X14261904Y-24131009D01*
X14261904Y-24131009D02*
X14214285Y-24083390D01*
X14214285Y-24083390D02*
X14119047Y-24035771D01*
X14119047Y-24035771D02*
X13928571Y-24035771D01*
X13928571Y-24035771D02*
X13833333Y-24083390D01*
X13833333Y-24083390D02*
X13785714Y-24131009D01*
X13785714Y-24131009D02*
X13738095Y-24226247D01*
X36557142Y-17599580D02*
X36509523Y-17647200D01*
X36509523Y-17647200D02*
X36366666Y-17694819D01*
X36366666Y-17694819D02*
X36271428Y-17694819D01*
X36271428Y-17694819D02*
X36128571Y-17647200D01*
X36128571Y-17647200D02*
X36033333Y-17551961D01*
X36033333Y-17551961D02*
X35985714Y-17456723D01*
X35985714Y-17456723D02*
X35938095Y-17266247D01*
X35938095Y-17266247D02*
X35938095Y-17123390D01*
X35938095Y-17123390D02*
X35985714Y-16932914D01*
X35985714Y-16932914D02*
X36033333Y-16837676D01*
X36033333Y-16837676D02*
X36128571Y-16742438D01*
X36128571Y-16742438D02*
X36271428Y-16694819D01*
X36271428Y-16694819D02*
X36366666Y-16694819D01*
X36366666Y-16694819D02*
X36509523Y-16742438D01*
X36509523Y-16742438D02*
X36557142Y-16790057D01*
X36938095Y-16790057D02*
X36985714Y-16742438D01*
X36985714Y-16742438D02*
X37080952Y-16694819D01*
X37080952Y-16694819D02*
X37319047Y-16694819D01*
X37319047Y-16694819D02*
X37414285Y-16742438D01*
X37414285Y-16742438D02*
X37461904Y-16790057D01*
X37461904Y-16790057D02*
X37509523Y-16885295D01*
X37509523Y-16885295D02*
X37509523Y-16980533D01*
X37509523Y-16980533D02*
X37461904Y-17123390D01*
X37461904Y-17123390D02*
X36890476Y-17694819D01*
X36890476Y-17694819D02*
X37509523Y-17694819D01*
X37985714Y-17694819D02*
X38176190Y-17694819D01*
X38176190Y-17694819D02*
X38271428Y-17647200D01*
X38271428Y-17647200D02*
X38319047Y-17599580D01*
X38319047Y-17599580D02*
X38414285Y-17456723D01*
X38414285Y-17456723D02*
X38461904Y-17266247D01*
X38461904Y-17266247D02*
X38461904Y-16885295D01*
X38461904Y-16885295D02*
X38414285Y-16790057D01*
X38414285Y-16790057D02*
X38366666Y-16742438D01*
X38366666Y-16742438D02*
X38271428Y-16694819D01*
X38271428Y-16694819D02*
X38080952Y-16694819D01*
X38080952Y-16694819D02*
X37985714Y-16742438D01*
X37985714Y-16742438D02*
X37938095Y-16790057D01*
X37938095Y-16790057D02*
X37890476Y-16885295D01*
X37890476Y-16885295D02*
X37890476Y-17123390D01*
X37890476Y-17123390D02*
X37938095Y-17218628D01*
X37938095Y-17218628D02*
X37985714Y-17266247D01*
X37985714Y-17266247D02*
X38080952Y-17313866D01*
X38080952Y-17313866D02*
X38271428Y-17313866D01*
X38271428Y-17313866D02*
X38366666Y-17266247D01*
X38366666Y-17266247D02*
X38414285Y-17218628D01*
X38414285Y-17218628D02*
X38461904Y-17123390D01*
X2166667Y-18807200D02*
X2309524Y-18854819D01*
X2309524Y-18854819D02*
X2547619Y-18854819D01*
X2547619Y-18854819D02*
X2642857Y-18807200D01*
X2642857Y-18807200D02*
X2690476Y-18759580D01*
X2690476Y-18759580D02*
X2738095Y-18664342D01*
X2738095Y-18664342D02*
X2738095Y-18569104D01*
X2738095Y-18569104D02*
X2690476Y-18473866D01*
X2690476Y-18473866D02*
X2642857Y-18426247D01*
X2642857Y-18426247D02*
X2547619Y-18378628D01*
X2547619Y-18378628D02*
X2357143Y-18331009D01*
X2357143Y-18331009D02*
X2261905Y-18283390D01*
X2261905Y-18283390D02*
X2214286Y-18235771D01*
X2214286Y-18235771D02*
X2166667Y-18140533D01*
X2166667Y-18140533D02*
X2166667Y-18045295D01*
X2166667Y-18045295D02*
X2214286Y-17950057D01*
X2214286Y-17950057D02*
X2261905Y-17902438D01*
X2261905Y-17902438D02*
X2357143Y-17854819D01*
X2357143Y-17854819D02*
X2595238Y-17854819D01*
X2595238Y-17854819D02*
X2738095Y-17902438D01*
X3071429Y-17854819D02*
X3309524Y-18854819D01*
X3309524Y-18854819D02*
X3500000Y-18140533D01*
X3500000Y-18140533D02*
X3690476Y-18854819D01*
X3690476Y-18854819D02*
X3928572Y-17854819D01*
X4833333Y-18854819D02*
X4261905Y-18854819D01*
X4547619Y-18854819D02*
X4547619Y-17854819D01*
X4547619Y-17854819D02*
X4452381Y-17997676D01*
X4452381Y-17997676D02*
X4357143Y-18092914D01*
X4357143Y-18092914D02*
X4261905Y-18140533D01*
X6238095Y-29054819D02*
X6238095Y-29864342D01*
X6238095Y-29864342D02*
X6285714Y-29959580D01*
X6285714Y-29959580D02*
X6333333Y-30007200D01*
X6333333Y-30007200D02*
X6428571Y-30054819D01*
X6428571Y-30054819D02*
X6619047Y-30054819D01*
X6619047Y-30054819D02*
X6714285Y-30007200D01*
X6714285Y-30007200D02*
X6761904Y-29959580D01*
X6761904Y-29959580D02*
X6809523Y-29864342D01*
X6809523Y-29864342D02*
X6809523Y-29054819D01*
X7714285Y-29388152D02*
X7714285Y-30054819D01*
X7476190Y-29007200D02*
X7238095Y-29721485D01*
X7238095Y-29721485D02*
X7857142Y-29721485D01*
X10633333Y-12679580D02*
X10585714Y-12727200D01*
X10585714Y-12727200D02*
X10442857Y-12774819D01*
X10442857Y-12774819D02*
X10347619Y-12774819D01*
X10347619Y-12774819D02*
X10204762Y-12727200D01*
X10204762Y-12727200D02*
X10109524Y-12631961D01*
X10109524Y-12631961D02*
X10061905Y-12536723D01*
X10061905Y-12536723D02*
X10014286Y-12346247D01*
X10014286Y-12346247D02*
X10014286Y-12203390D01*
X10014286Y-12203390D02*
X10061905Y-12012914D01*
X10061905Y-12012914D02*
X10109524Y-11917676D01*
X10109524Y-11917676D02*
X10204762Y-11822438D01*
X10204762Y-11822438D02*
X10347619Y-11774819D01*
X10347619Y-11774819D02*
X10442857Y-11774819D01*
X10442857Y-11774819D02*
X10585714Y-11822438D01*
X10585714Y-11822438D02*
X10633333Y-11870057D01*
X11585714Y-12774819D02*
X11014286Y-12774819D01*
X11300000Y-12774819D02*
X11300000Y-11774819D01*
X11300000Y-11774819D02*
X11204762Y-11917676D01*
X11204762Y-11917676D02*
X11109524Y-12012914D01*
X11109524Y-12012914D02*
X11014286Y-12060533D01*
X5757142Y-19799579D02*
X5709523Y-19847199D01*
X5709523Y-19847199D02*
X5566666Y-19894818D01*
X5566666Y-19894818D02*
X5471428Y-19894818D01*
X5471428Y-19894818D02*
X5328571Y-19847199D01*
X5328571Y-19847199D02*
X5233333Y-19751960D01*
X5233333Y-19751960D02*
X5185714Y-19656722D01*
X5185714Y-19656722D02*
X5138095Y-19466246D01*
X5138095Y-19466246D02*
X5138095Y-19323389D01*
X5138095Y-19323389D02*
X5185714Y-19132913D01*
X5185714Y-19132913D02*
X5233333Y-19037675D01*
X5233333Y-19037675D02*
X5328571Y-18942437D01*
X5328571Y-18942437D02*
X5471428Y-18894818D01*
X5471428Y-18894818D02*
X5566666Y-18894818D01*
X5566666Y-18894818D02*
X5709523Y-18942437D01*
X5709523Y-18942437D02*
X5757142Y-18990056D01*
X6090476Y-18894818D02*
X6709523Y-18894818D01*
X6709523Y-18894818D02*
X6376190Y-19275770D01*
X6376190Y-19275770D02*
X6519047Y-19275770D01*
X6519047Y-19275770D02*
X6614285Y-19323389D01*
X6614285Y-19323389D02*
X6661904Y-19371008D01*
X6661904Y-19371008D02*
X6709523Y-19466246D01*
X6709523Y-19466246D02*
X6709523Y-19704341D01*
X6709523Y-19704341D02*
X6661904Y-19799579D01*
X6661904Y-19799579D02*
X6614285Y-19847199D01*
X6614285Y-19847199D02*
X6519047Y-19894818D01*
X6519047Y-19894818D02*
X6233333Y-19894818D01*
X6233333Y-19894818D02*
X6138095Y-19847199D01*
X6138095Y-19847199D02*
X6090476Y-19799579D01*
X7042857Y-18894818D02*
X7661904Y-18894818D01*
X7661904Y-18894818D02*
X7328571Y-19275770D01*
X7328571Y-19275770D02*
X7471428Y-19275770D01*
X7471428Y-19275770D02*
X7566666Y-19323389D01*
X7566666Y-19323389D02*
X7614285Y-19371008D01*
X7614285Y-19371008D02*
X7661904Y-19466246D01*
X7661904Y-19466246D02*
X7661904Y-19704341D01*
X7661904Y-19704341D02*
X7614285Y-19799579D01*
X7614285Y-19799579D02*
X7566666Y-19847199D01*
X7566666Y-19847199D02*
X7471428Y-19894818D01*
X7471428Y-19894818D02*
X7185714Y-19894818D01*
X7185714Y-19894818D02*
X7090476Y-19847199D01*
X7090476Y-19847199D02*
X7042857Y-19799579D01*
X10157142Y-19884818D02*
X9823809Y-19408627D01*
X9585714Y-19884818D02*
X9585714Y-18884818D01*
X9585714Y-18884818D02*
X9966666Y-18884818D01*
X9966666Y-18884818D02*
X10061904Y-18932437D01*
X10061904Y-18932437D02*
X10109523Y-18980056D01*
X10109523Y-18980056D02*
X10157142Y-19075294D01*
X10157142Y-19075294D02*
X10157142Y-19218151D01*
X10157142Y-19218151D02*
X10109523Y-19313389D01*
X10109523Y-19313389D02*
X10061904Y-19361008D01*
X10061904Y-19361008D02*
X9966666Y-19408627D01*
X9966666Y-19408627D02*
X9585714Y-19408627D01*
X10538095Y-18980056D02*
X10585714Y-18932437D01*
X10585714Y-18932437D02*
X10680952Y-18884818D01*
X10680952Y-18884818D02*
X10919047Y-18884818D01*
X10919047Y-18884818D02*
X11014285Y-18932437D01*
X11014285Y-18932437D02*
X11061904Y-18980056D01*
X11061904Y-18980056D02*
X11109523Y-19075294D01*
X11109523Y-19075294D02*
X11109523Y-19170532D01*
X11109523Y-19170532D02*
X11061904Y-19313389D01*
X11061904Y-19313389D02*
X10490476Y-19884818D01*
X10490476Y-19884818D02*
X11109523Y-19884818D01*
X11966666Y-18884818D02*
X11776190Y-18884818D01*
X11776190Y-18884818D02*
X11680952Y-18932437D01*
X11680952Y-18932437D02*
X11633333Y-18980056D01*
X11633333Y-18980056D02*
X11538095Y-19122913D01*
X11538095Y-19122913D02*
X11490476Y-19313389D01*
X11490476Y-19313389D02*
X11490476Y-19694341D01*
X11490476Y-19694341D02*
X11538095Y-19789579D01*
X11538095Y-19789579D02*
X11585714Y-19837199D01*
X11585714Y-19837199D02*
X11680952Y-19884818D01*
X11680952Y-19884818D02*
X11871428Y-19884818D01*
X11871428Y-19884818D02*
X11966666Y-19837199D01*
X11966666Y-19837199D02*
X12014285Y-19789579D01*
X12014285Y-19789579D02*
X12061904Y-19694341D01*
X12061904Y-19694341D02*
X12061904Y-19456246D01*
X12061904Y-19456246D02*
X12014285Y-19361008D01*
X12014285Y-19361008D02*
X11966666Y-19313389D01*
X11966666Y-19313389D02*
X11871428Y-19265770D01*
X11871428Y-19265770D02*
X11680952Y-19265770D01*
X11680952Y-19265770D02*
X11585714Y-19313389D01*
X11585714Y-19313389D02*
X11538095Y-19361008D01*
X11538095Y-19361008D02*
X11490476Y-19456246D01*
X28233332Y-13024819D02*
X27757142Y-13024819D01*
X27757142Y-13024819D02*
X27757142Y-12024819D01*
X28519047Y-12120057D02*
X28566666Y-12072438D01*
X28566666Y-12072438D02*
X28661904Y-12024819D01*
X28661904Y-12024819D02*
X28899999Y-12024819D01*
X28899999Y-12024819D02*
X28995237Y-12072438D01*
X28995237Y-12072438D02*
X29042856Y-12120057D01*
X29042856Y-12120057D02*
X29090475Y-12215295D01*
X29090475Y-12215295D02*
X29090475Y-12310533D01*
X29090475Y-12310533D02*
X29042856Y-12453390D01*
X29042856Y-12453390D02*
X28471428Y-13024819D01*
X28471428Y-13024819D02*
X29090475Y-13024819D01*
X10157142Y-17599580D02*
X10109523Y-17647200D01*
X10109523Y-17647200D02*
X9966666Y-17694819D01*
X9966666Y-17694819D02*
X9871428Y-17694819D01*
X9871428Y-17694819D02*
X9728571Y-17647200D01*
X9728571Y-17647200D02*
X9633333Y-17551961D01*
X9633333Y-17551961D02*
X9585714Y-17456723D01*
X9585714Y-17456723D02*
X9538095Y-17266247D01*
X9538095Y-17266247D02*
X9538095Y-17123390D01*
X9538095Y-17123390D02*
X9585714Y-16932914D01*
X9585714Y-16932914D02*
X9633333Y-16837676D01*
X9633333Y-16837676D02*
X9728571Y-16742438D01*
X9728571Y-16742438D02*
X9871428Y-16694819D01*
X9871428Y-16694819D02*
X9966666Y-16694819D01*
X9966666Y-16694819D02*
X10109523Y-16742438D01*
X10109523Y-16742438D02*
X10157142Y-16790057D01*
X11109523Y-17694819D02*
X10538095Y-17694819D01*
X10823809Y-17694819D02*
X10823809Y-16694819D01*
X10823809Y-16694819D02*
X10728571Y-16837676D01*
X10728571Y-16837676D02*
X10633333Y-16932914D01*
X10633333Y-16932914D02*
X10538095Y-16980533D01*
X11442857Y-16694819D02*
X12109523Y-16694819D01*
X12109523Y-16694819D02*
X11680952Y-17694819D01*
X8904761Y-11150057D02*
X8809523Y-11102438D01*
X8809523Y-11102438D02*
X8714285Y-11007200D01*
X8714285Y-11007200D02*
X8571428Y-10864342D01*
X8571428Y-10864342D02*
X8476190Y-10816723D01*
X8476190Y-10816723D02*
X8380952Y-10816723D01*
X8428571Y-11054819D02*
X8333333Y-11007200D01*
X8333333Y-11007200D02*
X8238095Y-10911961D01*
X8238095Y-10911961D02*
X8190476Y-10721485D01*
X8190476Y-10721485D02*
X8190476Y-10388152D01*
X8190476Y-10388152D02*
X8238095Y-10197676D01*
X8238095Y-10197676D02*
X8333333Y-10102438D01*
X8333333Y-10102438D02*
X8428571Y-10054819D01*
X8428571Y-10054819D02*
X8619047Y-10054819D01*
X8619047Y-10054819D02*
X8714285Y-10102438D01*
X8714285Y-10102438D02*
X8809523Y-10197676D01*
X8809523Y-10197676D02*
X8857142Y-10388152D01*
X8857142Y-10388152D02*
X8857142Y-10721485D01*
X8857142Y-10721485D02*
X8809523Y-10911961D01*
X8809523Y-10911961D02*
X8714285Y-11007200D01*
X8714285Y-11007200D02*
X8619047Y-11054819D01*
X8619047Y-11054819D02*
X8428571Y-11054819D01*
X9714285Y-10388152D02*
X9714285Y-11054819D01*
X9476190Y-10007200D02*
X9238095Y-10721485D01*
X9238095Y-10721485D02*
X9857142Y-10721485D01*
X7880952Y-7454819D02*
X7404762Y-7454819D01*
X7404762Y-7454819D02*
X7404762Y-6454819D01*
X8214286Y-6931009D02*
X8547619Y-6931009D01*
X8690476Y-7454819D02*
X8214286Y-7454819D01*
X8214286Y-7454819D02*
X8214286Y-6454819D01*
X8214286Y-6454819D02*
X8690476Y-6454819D01*
X9119048Y-7454819D02*
X9119048Y-6454819D01*
X9119048Y-6454819D02*
X9357143Y-6454819D01*
X9357143Y-6454819D02*
X9500000Y-6502438D01*
X9500000Y-6502438D02*
X9595238Y-6597676D01*
X9595238Y-6597676D02*
X9642857Y-6692914D01*
X9642857Y-6692914D02*
X9690476Y-6883390D01*
X9690476Y-6883390D02*
X9690476Y-7026247D01*
X9690476Y-7026247D02*
X9642857Y-7216723D01*
X9642857Y-7216723D02*
X9595238Y-7311961D01*
X9595238Y-7311961D02*
X9500000Y-7407200D01*
X9500000Y-7407200D02*
X9357143Y-7454819D01*
X9357143Y-7454819D02*
X9119048Y-7454819D01*
X10642857Y-7454819D02*
X10071429Y-7454819D01*
X10357143Y-7454819D02*
X10357143Y-6454819D01*
X10357143Y-6454819D02*
X10261905Y-6597676D01*
X10261905Y-6597676D02*
X10166667Y-6692914D01*
X10166667Y-6692914D02*
X10071429Y-6740533D01*
X3557142Y-17599580D02*
X3509523Y-17647200D01*
X3509523Y-17647200D02*
X3366666Y-17694819D01*
X3366666Y-17694819D02*
X3271428Y-17694819D01*
X3271428Y-17694819D02*
X3128571Y-17647200D01*
X3128571Y-17647200D02*
X3033333Y-17551961D01*
X3033333Y-17551961D02*
X2985714Y-17456723D01*
X2985714Y-17456723D02*
X2938095Y-17266247D01*
X2938095Y-17266247D02*
X2938095Y-17123390D01*
X2938095Y-17123390D02*
X2985714Y-16932914D01*
X2985714Y-16932914D02*
X3033333Y-16837676D01*
X3033333Y-16837676D02*
X3128571Y-16742438D01*
X3128571Y-16742438D02*
X3271428Y-16694819D01*
X3271428Y-16694819D02*
X3366666Y-16694819D01*
X3366666Y-16694819D02*
X3509523Y-16742438D01*
X3509523Y-16742438D02*
X3557142Y-16790057D01*
X4509523Y-17694819D02*
X3938095Y-17694819D01*
X4223809Y-17694819D02*
X4223809Y-16694819D01*
X4223809Y-16694819D02*
X4128571Y-16837676D01*
X4128571Y-16837676D02*
X4033333Y-16932914D01*
X4033333Y-16932914D02*
X3938095Y-16980533D01*
X5366666Y-17028152D02*
X5366666Y-17694819D01*
X5128571Y-16647200D02*
X4890476Y-17361485D01*
X4890476Y-17361485D02*
X5509523Y-17361485D01*
X4033333Y-15399580D02*
X3985714Y-15447200D01*
X3985714Y-15447200D02*
X3842857Y-15494819D01*
X3842857Y-15494819D02*
X3747619Y-15494819D01*
X3747619Y-15494819D02*
X3604762Y-15447200D01*
X3604762Y-15447200D02*
X3509524Y-15351961D01*
X3509524Y-15351961D02*
X3461905Y-15256723D01*
X3461905Y-15256723D02*
X3414286Y-15066247D01*
X3414286Y-15066247D02*
X3414286Y-14923390D01*
X3414286Y-14923390D02*
X3461905Y-14732914D01*
X3461905Y-14732914D02*
X3509524Y-14637676D01*
X3509524Y-14637676D02*
X3604762Y-14542438D01*
X3604762Y-14542438D02*
X3747619Y-14494819D01*
X3747619Y-14494819D02*
X3842857Y-14494819D01*
X3842857Y-14494819D02*
X3985714Y-14542438D01*
X3985714Y-14542438D02*
X4033333Y-14590057D01*
X4509524Y-15494819D02*
X4700000Y-15494819D01*
X4700000Y-15494819D02*
X4795238Y-15447200D01*
X4795238Y-15447200D02*
X4842857Y-15399580D01*
X4842857Y-15399580D02*
X4938095Y-15256723D01*
X4938095Y-15256723D02*
X4985714Y-15066247D01*
X4985714Y-15066247D02*
X4985714Y-14685295D01*
X4985714Y-14685295D02*
X4938095Y-14590057D01*
X4938095Y-14590057D02*
X4890476Y-14542438D01*
X4890476Y-14542438D02*
X4795238Y-14494819D01*
X4795238Y-14494819D02*
X4604762Y-14494819D01*
X4604762Y-14494819D02*
X4509524Y-14542438D01*
X4509524Y-14542438D02*
X4461905Y-14590057D01*
X4461905Y-14590057D02*
X4414286Y-14685295D01*
X4414286Y-14685295D02*
X4414286Y-14923390D01*
X4414286Y-14923390D02*
X4461905Y-15018628D01*
X4461905Y-15018628D02*
X4509524Y-15066247D01*
X4509524Y-15066247D02*
X4604762Y-15113866D01*
X4604762Y-15113866D02*
X4795238Y-15113866D01*
X4795238Y-15113866D02*
X4890476Y-15066247D01*
X4890476Y-15066247D02*
X4938095Y-15018628D01*
X4938095Y-15018628D02*
X4985714Y-14923390D01*
X32157141Y-17329580D02*
X32109522Y-17377200D01*
X32109522Y-17377200D02*
X31966665Y-17424819D01*
X31966665Y-17424819D02*
X31871427Y-17424819D01*
X31871427Y-17424819D02*
X31728570Y-17377200D01*
X31728570Y-17377200D02*
X31633332Y-17281961D01*
X31633332Y-17281961D02*
X31585713Y-17186723D01*
X31585713Y-17186723D02*
X31538094Y-16996247D01*
X31538094Y-16996247D02*
X31538094Y-16853390D01*
X31538094Y-16853390D02*
X31585713Y-16662914D01*
X31585713Y-16662914D02*
X31633332Y-16567676D01*
X31633332Y-16567676D02*
X31728570Y-16472438D01*
X31728570Y-16472438D02*
X31871427Y-16424819D01*
X31871427Y-16424819D02*
X31966665Y-16424819D01*
X31966665Y-16424819D02*
X32109522Y-16472438D01*
X32109522Y-16472438D02*
X32157141Y-16520057D01*
X32538094Y-16520057D02*
X32585713Y-16472438D01*
X32585713Y-16472438D02*
X32680951Y-16424819D01*
X32680951Y-16424819D02*
X32919046Y-16424819D01*
X32919046Y-16424819D02*
X33014284Y-16472438D01*
X33014284Y-16472438D02*
X33061903Y-16520057D01*
X33061903Y-16520057D02*
X33109522Y-16615295D01*
X33109522Y-16615295D02*
X33109522Y-16710533D01*
X33109522Y-16710533D02*
X33061903Y-16853390D01*
X33061903Y-16853390D02*
X32490475Y-17424819D01*
X32490475Y-17424819D02*
X33109522Y-17424819D01*
X33442856Y-16424819D02*
X34109522Y-16424819D01*
X34109522Y-16424819D02*
X33680951Y-17424819D01*
X37033333Y-13199580D02*
X36985714Y-13247200D01*
X36985714Y-13247200D02*
X36842857Y-13294819D01*
X36842857Y-13294819D02*
X36747619Y-13294819D01*
X36747619Y-13294819D02*
X36604762Y-13247200D01*
X36604762Y-13247200D02*
X36509524Y-13151961D01*
X36509524Y-13151961D02*
X36461905Y-13056723D01*
X36461905Y-13056723D02*
X36414286Y-12866247D01*
X36414286Y-12866247D02*
X36414286Y-12723390D01*
X36414286Y-12723390D02*
X36461905Y-12532914D01*
X36461905Y-12532914D02*
X36509524Y-12437676D01*
X36509524Y-12437676D02*
X36604762Y-12342438D01*
X36604762Y-12342438D02*
X36747619Y-12294819D01*
X36747619Y-12294819D02*
X36842857Y-12294819D01*
X36842857Y-12294819D02*
X36985714Y-12342438D01*
X36985714Y-12342438D02*
X37033333Y-12390057D01*
X37890476Y-12294819D02*
X37700000Y-12294819D01*
X37700000Y-12294819D02*
X37604762Y-12342438D01*
X37604762Y-12342438D02*
X37557143Y-12390057D01*
X37557143Y-12390057D02*
X37461905Y-12532914D01*
X37461905Y-12532914D02*
X37414286Y-12723390D01*
X37414286Y-12723390D02*
X37414286Y-13104342D01*
X37414286Y-13104342D02*
X37461905Y-13199580D01*
X37461905Y-13199580D02*
X37509524Y-13247200D01*
X37509524Y-13247200D02*
X37604762Y-13294819D01*
X37604762Y-13294819D02*
X37795238Y-13294819D01*
X37795238Y-13294819D02*
X37890476Y-13247200D01*
X37890476Y-13247200D02*
X37938095Y-13199580D01*
X37938095Y-13199580D02*
X37985714Y-13104342D01*
X37985714Y-13104342D02*
X37985714Y-12866247D01*
X37985714Y-12866247D02*
X37938095Y-12771009D01*
X37938095Y-12771009D02*
X37890476Y-12723390D01*
X37890476Y-12723390D02*
X37795238Y-12675771D01*
X37795238Y-12675771D02*
X37604762Y-12675771D01*
X37604762Y-12675771D02*
X37509524Y-12723390D01*
X37509524Y-12723390D02*
X37461905Y-12771009D01*
X37461905Y-12771009D02*
X37414286Y-12866247D01*
X36557142Y-15399580D02*
X36509523Y-15447200D01*
X36509523Y-15447200D02*
X36366666Y-15494819D01*
X36366666Y-15494819D02*
X36271428Y-15494819D01*
X36271428Y-15494819D02*
X36128571Y-15447200D01*
X36128571Y-15447200D02*
X36033333Y-15351961D01*
X36033333Y-15351961D02*
X35985714Y-15256723D01*
X35985714Y-15256723D02*
X35938095Y-15066247D01*
X35938095Y-15066247D02*
X35938095Y-14923390D01*
X35938095Y-14923390D02*
X35985714Y-14732914D01*
X35985714Y-14732914D02*
X36033333Y-14637676D01*
X36033333Y-14637676D02*
X36128571Y-14542438D01*
X36128571Y-14542438D02*
X36271428Y-14494819D01*
X36271428Y-14494819D02*
X36366666Y-14494819D01*
X36366666Y-14494819D02*
X36509523Y-14542438D01*
X36509523Y-14542438D02*
X36557142Y-14590057D01*
X37509523Y-15494819D02*
X36938095Y-15494819D01*
X37223809Y-15494819D02*
X37223809Y-14494819D01*
X37223809Y-14494819D02*
X37128571Y-14637676D01*
X37128571Y-14637676D02*
X37033333Y-14732914D01*
X37033333Y-14732914D02*
X36938095Y-14780533D01*
X38461904Y-15494819D02*
X37890476Y-15494819D01*
X38176190Y-15494819D02*
X38176190Y-14494819D01*
X38176190Y-14494819D02*
X38080952Y-14637676D01*
X38080952Y-14637676D02*
X37985714Y-14732914D01*
X37985714Y-14732914D02*
X37890476Y-14780533D01*
X18957141Y-15484819D02*
X18623808Y-15008628D01*
X18385713Y-15484819D02*
X18385713Y-14484819D01*
X18385713Y-14484819D02*
X18766665Y-14484819D01*
X18766665Y-14484819D02*
X18861903Y-14532438D01*
X18861903Y-14532438D02*
X18909522Y-14580057D01*
X18909522Y-14580057D02*
X18957141Y-14675295D01*
X18957141Y-14675295D02*
X18957141Y-14818152D01*
X18957141Y-14818152D02*
X18909522Y-14913390D01*
X18909522Y-14913390D02*
X18861903Y-14961009D01*
X18861903Y-14961009D02*
X18766665Y-15008628D01*
X18766665Y-15008628D02*
X18385713Y-15008628D01*
X19909522Y-15484819D02*
X19338094Y-15484819D01*
X19623808Y-15484819D02*
X19623808Y-14484819D01*
X19623808Y-14484819D02*
X19528570Y-14627676D01*
X19528570Y-14627676D02*
X19433332Y-14722914D01*
X19433332Y-14722914D02*
X19338094Y-14770533D01*
X20766665Y-14818152D02*
X20766665Y-15484819D01*
X20528570Y-14437200D02*
X20290475Y-15151485D01*
X20290475Y-15151485D02*
X20909522Y-15151485D01*
X39233333Y-13199580D02*
X39185714Y-13247200D01*
X39185714Y-13247200D02*
X39042857Y-13294819D01*
X39042857Y-13294819D02*
X38947619Y-13294819D01*
X38947619Y-13294819D02*
X38804762Y-13247200D01*
X38804762Y-13247200D02*
X38709524Y-13151961D01*
X38709524Y-13151961D02*
X38661905Y-13056723D01*
X38661905Y-13056723D02*
X38614286Y-12866247D01*
X38614286Y-12866247D02*
X38614286Y-12723390D01*
X38614286Y-12723390D02*
X38661905Y-12532914D01*
X38661905Y-12532914D02*
X38709524Y-12437676D01*
X38709524Y-12437676D02*
X38804762Y-12342438D01*
X38804762Y-12342438D02*
X38947619Y-12294819D01*
X38947619Y-12294819D02*
X39042857Y-12294819D01*
X39042857Y-12294819D02*
X39185714Y-12342438D01*
X39185714Y-12342438D02*
X39233333Y-12390057D01*
X39566667Y-12294819D02*
X40233333Y-12294819D01*
X40233333Y-12294819D02*
X39804762Y-13294819D01*
X32023809Y-15528628D02*
X32023809Y-16004819D01*
X31690476Y-15004819D02*
X32023809Y-15528628D01*
X32023809Y-15528628D02*
X32357142Y-15004819D01*
X33214285Y-16004819D02*
X32642857Y-16004819D01*
X32928571Y-16004819D02*
X32928571Y-15004819D01*
X32928571Y-15004819D02*
X32833333Y-15147676D01*
X32833333Y-15147676D02*
X32738095Y-15242914D01*
X32738095Y-15242914D02*
X32642857Y-15290533D01*
X3166666Y-2624819D02*
X3166666Y-3339104D01*
X3166666Y-3339104D02*
X3119047Y-3481961D01*
X3119047Y-3481961D02*
X3023809Y-3577200D01*
X3023809Y-3577200D02*
X2880952Y-3624819D01*
X2880952Y-3624819D02*
X2785714Y-3624819D01*
X3785714Y-3053390D02*
X3690476Y-3005771D01*
X3690476Y-3005771D02*
X3642857Y-2958152D01*
X3642857Y-2958152D02*
X3595238Y-2862914D01*
X3595238Y-2862914D02*
X3595238Y-2815295D01*
X3595238Y-2815295D02*
X3642857Y-2720057D01*
X3642857Y-2720057D02*
X3690476Y-2672438D01*
X3690476Y-2672438D02*
X3785714Y-2624819D01*
X3785714Y-2624819D02*
X3976190Y-2624819D01*
X3976190Y-2624819D02*
X4071428Y-2672438D01*
X4071428Y-2672438D02*
X4119047Y-2720057D01*
X4119047Y-2720057D02*
X4166666Y-2815295D01*
X4166666Y-2815295D02*
X4166666Y-2862914D01*
X4166666Y-2862914D02*
X4119047Y-2958152D01*
X4119047Y-2958152D02*
X4071428Y-3005771D01*
X4071428Y-3005771D02*
X3976190Y-3053390D01*
X3976190Y-3053390D02*
X3785714Y-3053390D01*
X3785714Y-3053390D02*
X3690476Y-3101009D01*
X3690476Y-3101009D02*
X3642857Y-3148628D01*
X3642857Y-3148628D02*
X3595238Y-3243866D01*
X3595238Y-3243866D02*
X3595238Y-3434342D01*
X3595238Y-3434342D02*
X3642857Y-3529580D01*
X3642857Y-3529580D02*
X3690476Y-3577200D01*
X3690476Y-3577200D02*
X3785714Y-3624819D01*
X3785714Y-3624819D02*
X3976190Y-3624819D01*
X3976190Y-3624819D02*
X4071428Y-3577200D01*
X4071428Y-3577200D02*
X4119047Y-3529580D01*
X4119047Y-3529580D02*
X4166666Y-3434342D01*
X4166666Y-3434342D02*
X4166666Y-3243866D01*
X4166666Y-3243866D02*
X4119047Y-3148628D01*
X4119047Y-3148628D02*
X4071428Y-3101009D01*
X4071428Y-3101009D02*
X3976190Y-3053390D01*
X4033333Y-13284819D02*
X3700000Y-12808628D01*
X3461905Y-13284819D02*
X3461905Y-12284819D01*
X3461905Y-12284819D02*
X3842857Y-12284819D01*
X3842857Y-12284819D02*
X3938095Y-12332438D01*
X3938095Y-12332438D02*
X3985714Y-12380057D01*
X3985714Y-12380057D02*
X4033333Y-12475295D01*
X4033333Y-12475295D02*
X4033333Y-12618152D01*
X4033333Y-12618152D02*
X3985714Y-12713390D01*
X3985714Y-12713390D02*
X3938095Y-12761009D01*
X3938095Y-12761009D02*
X3842857Y-12808628D01*
X3842857Y-12808628D02*
X3461905Y-12808628D01*
X4414286Y-12380057D02*
X4461905Y-12332438D01*
X4461905Y-12332438D02*
X4557143Y-12284819D01*
X4557143Y-12284819D02*
X4795238Y-12284819D01*
X4795238Y-12284819D02*
X4890476Y-12332438D01*
X4890476Y-12332438D02*
X4938095Y-12380057D01*
X4938095Y-12380057D02*
X4985714Y-12475295D01*
X4985714Y-12475295D02*
X4985714Y-12570533D01*
X4985714Y-12570533D02*
X4938095Y-12713390D01*
X4938095Y-12713390D02*
X4366667Y-13284819D01*
X4366667Y-13284819D02*
X4985714Y-13284819D01*
X1357142Y-17599580D02*
X1309523Y-17647200D01*
X1309523Y-17647200D02*
X1166666Y-17694819D01*
X1166666Y-17694819D02*
X1071428Y-17694819D01*
X1071428Y-17694819D02*
X928571Y-17647200D01*
X928571Y-17647200D02*
X833333Y-17551961D01*
X833333Y-17551961D02*
X785714Y-17456723D01*
X785714Y-17456723D02*
X738095Y-17266247D01*
X738095Y-17266247D02*
X738095Y-17123390D01*
X738095Y-17123390D02*
X785714Y-16932914D01*
X785714Y-16932914D02*
X833333Y-16837676D01*
X833333Y-16837676D02*
X928571Y-16742438D01*
X928571Y-16742438D02*
X1071428Y-16694819D01*
X1071428Y-16694819D02*
X1166666Y-16694819D01*
X1166666Y-16694819D02*
X1309523Y-16742438D01*
X1309523Y-16742438D02*
X1357142Y-16790057D01*
X2309523Y-17694819D02*
X1738095Y-17694819D01*
X2023809Y-17694819D02*
X2023809Y-16694819D01*
X2023809Y-16694819D02*
X1928571Y-16837676D01*
X1928571Y-16837676D02*
X1833333Y-16932914D01*
X1833333Y-16932914D02*
X1738095Y-16980533D01*
X2642857Y-16694819D02*
X3261904Y-16694819D01*
X3261904Y-16694819D02*
X2928571Y-17075771D01*
X2928571Y-17075771D02*
X3071428Y-17075771D01*
X3071428Y-17075771D02*
X3166666Y-17123390D01*
X3166666Y-17123390D02*
X3214285Y-17171009D01*
X3214285Y-17171009D02*
X3261904Y-17266247D01*
X3261904Y-17266247D02*
X3261904Y-17504342D01*
X3261904Y-17504342D02*
X3214285Y-17599580D01*
X3214285Y-17599580D02*
X3166666Y-17647200D01*
X3166666Y-17647200D02*
X3071428Y-17694819D01*
X3071428Y-17694819D02*
X2785714Y-17694819D01*
X2785714Y-17694819D02*
X2690476Y-17647200D01*
X2690476Y-17647200D02*
X2642857Y-17599580D01*
X9950057Y-33095238D02*
X9902438Y-33190476D01*
X9902438Y-33190476D02*
X9807200Y-33285714D01*
X9807200Y-33285714D02*
X9664342Y-33428571D01*
X9664342Y-33428571D02*
X9616723Y-33523809D01*
X9616723Y-33523809D02*
X9616723Y-33619047D01*
X9854819Y-33571428D02*
X9807200Y-33666666D01*
X9807200Y-33666666D02*
X9711961Y-33761904D01*
X9711961Y-33761904D02*
X9521485Y-33809523D01*
X9521485Y-33809523D02*
X9188152Y-33809523D01*
X9188152Y-33809523D02*
X8997676Y-33761904D01*
X8997676Y-33761904D02*
X8902438Y-33666666D01*
X8902438Y-33666666D02*
X8854819Y-33571428D01*
X8854819Y-33571428D02*
X8854819Y-33380952D01*
X8854819Y-33380952D02*
X8902438Y-33285714D01*
X8902438Y-33285714D02*
X8997676Y-33190476D01*
X8997676Y-33190476D02*
X9188152Y-33142857D01*
X9188152Y-33142857D02*
X9521485Y-33142857D01*
X9521485Y-33142857D02*
X9711961Y-33190476D01*
X9711961Y-33190476D02*
X9807200Y-33285714D01*
X9807200Y-33285714D02*
X9854819Y-33380952D01*
X9854819Y-33380952D02*
X9854819Y-33571428D01*
X8854819Y-32809523D02*
X8854819Y-32190476D01*
X8854819Y-32190476D02*
X9235771Y-32523809D01*
X9235771Y-32523809D02*
X9235771Y-32380952D01*
X9235771Y-32380952D02*
X9283390Y-32285714D01*
X9283390Y-32285714D02*
X9331009Y-32238095D01*
X9331009Y-32238095D02*
X9426247Y-32190476D01*
X9426247Y-32190476D02*
X9664342Y-32190476D01*
X9664342Y-32190476D02*
X9759580Y-32238095D01*
X9759580Y-32238095D02*
X9807200Y-32285714D01*
X9807200Y-32285714D02*
X9854819Y-32380952D01*
X9854819Y-32380952D02*
X9854819Y-32666666D01*
X9854819Y-32666666D02*
X9807200Y-32761904D01*
X9807200Y-32761904D02*
X9759580Y-32809523D01*
X25557141Y-15484819D02*
X25223808Y-15008628D01*
X24985713Y-15484819D02*
X24985713Y-14484819D01*
X24985713Y-14484819D02*
X25366665Y-14484819D01*
X25366665Y-14484819D02*
X25461903Y-14532438D01*
X25461903Y-14532438D02*
X25509522Y-14580057D01*
X25509522Y-14580057D02*
X25557141Y-14675295D01*
X25557141Y-14675295D02*
X25557141Y-14818152D01*
X25557141Y-14818152D02*
X25509522Y-14913390D01*
X25509522Y-14913390D02*
X25461903Y-14961009D01*
X25461903Y-14961009D02*
X25366665Y-15008628D01*
X25366665Y-15008628D02*
X24985713Y-15008628D01*
X26509522Y-15484819D02*
X25938094Y-15484819D01*
X26223808Y-15484819D02*
X26223808Y-14484819D01*
X26223808Y-14484819D02*
X26128570Y-14627676D01*
X26128570Y-14627676D02*
X26033332Y-14722914D01*
X26033332Y-14722914D02*
X25938094Y-14770533D01*
X26842856Y-14484819D02*
X27509522Y-14484819D01*
X27509522Y-14484819D02*
X27080951Y-15484819D01*
X25461904Y-18554818D02*
X25461904Y-17554818D01*
X25461904Y-17554818D02*
X25699999Y-17554818D01*
X25699999Y-17554818D02*
X25842856Y-17602437D01*
X25842856Y-17602437D02*
X25938094Y-17697675D01*
X25938094Y-17697675D02*
X25985713Y-17792913D01*
X25985713Y-17792913D02*
X26033332Y-17983389D01*
X26033332Y-17983389D02*
X26033332Y-18126246D01*
X26033332Y-18126246D02*
X25985713Y-18316722D01*
X25985713Y-18316722D02*
X25938094Y-18411960D01*
X25938094Y-18411960D02*
X25842856Y-18507199D01*
X25842856Y-18507199D02*
X25699999Y-18554818D01*
X25699999Y-18554818D02*
X25461904Y-18554818D01*
X26938094Y-17554818D02*
X26461904Y-17554818D01*
X26461904Y-17554818D02*
X26414285Y-18031008D01*
X26414285Y-18031008D02*
X26461904Y-17983389D01*
X26461904Y-17983389D02*
X26557142Y-17935770D01*
X26557142Y-17935770D02*
X26795237Y-17935770D01*
X26795237Y-17935770D02*
X26890475Y-17983389D01*
X26890475Y-17983389D02*
X26938094Y-18031008D01*
X26938094Y-18031008D02*
X26985713Y-18126246D01*
X26985713Y-18126246D02*
X26985713Y-18364341D01*
X26985713Y-18364341D02*
X26938094Y-18459579D01*
X26938094Y-18459579D02*
X26890475Y-18507199D01*
X26890475Y-18507199D02*
X26795237Y-18554818D01*
X26795237Y-18554818D02*
X26557142Y-18554818D01*
X26557142Y-18554818D02*
X26461904Y-18507199D01*
X26461904Y-18507199D02*
X26414285Y-18459579D01*
X16757142Y-19884818D02*
X16423809Y-19408627D01*
X16185714Y-19884818D02*
X16185714Y-18884818D01*
X16185714Y-18884818D02*
X16566666Y-18884818D01*
X16566666Y-18884818D02*
X16661904Y-18932437D01*
X16661904Y-18932437D02*
X16709523Y-18980056D01*
X16709523Y-18980056D02*
X16757142Y-19075294D01*
X16757142Y-19075294D02*
X16757142Y-19218151D01*
X16757142Y-19218151D02*
X16709523Y-19313389D01*
X16709523Y-19313389D02*
X16661904Y-19361008D01*
X16661904Y-19361008D02*
X16566666Y-19408627D01*
X16566666Y-19408627D02*
X16185714Y-19408627D01*
X17138095Y-18980056D02*
X17185714Y-18932437D01*
X17185714Y-18932437D02*
X17280952Y-18884818D01*
X17280952Y-18884818D02*
X17519047Y-18884818D01*
X17519047Y-18884818D02*
X17614285Y-18932437D01*
X17614285Y-18932437D02*
X17661904Y-18980056D01*
X17661904Y-18980056D02*
X17709523Y-19075294D01*
X17709523Y-19075294D02*
X17709523Y-19170532D01*
X17709523Y-19170532D02*
X17661904Y-19313389D01*
X17661904Y-19313389D02*
X17090476Y-19884818D01*
X17090476Y-19884818D02*
X17709523Y-19884818D01*
X18042857Y-18884818D02*
X18709523Y-18884818D01*
X18709523Y-18884818D02*
X18280952Y-19884818D01*
X27757141Y-17599580D02*
X27709522Y-17647200D01*
X27709522Y-17647200D02*
X27566665Y-17694819D01*
X27566665Y-17694819D02*
X27471427Y-17694819D01*
X27471427Y-17694819D02*
X27328570Y-17647200D01*
X27328570Y-17647200D02*
X27233332Y-17551961D01*
X27233332Y-17551961D02*
X27185713Y-17456723D01*
X27185713Y-17456723D02*
X27138094Y-17266247D01*
X27138094Y-17266247D02*
X27138094Y-17123390D01*
X27138094Y-17123390D02*
X27185713Y-16932914D01*
X27185713Y-16932914D02*
X27233332Y-16837676D01*
X27233332Y-16837676D02*
X27328570Y-16742438D01*
X27328570Y-16742438D02*
X27471427Y-16694819D01*
X27471427Y-16694819D02*
X27566665Y-16694819D01*
X27566665Y-16694819D02*
X27709522Y-16742438D01*
X27709522Y-16742438D02*
X27757141Y-16790057D01*
X28138094Y-16790057D02*
X28185713Y-16742438D01*
X28185713Y-16742438D02*
X28280951Y-16694819D01*
X28280951Y-16694819D02*
X28519046Y-16694819D01*
X28519046Y-16694819D02*
X28614284Y-16742438D01*
X28614284Y-16742438D02*
X28661903Y-16790057D01*
X28661903Y-16790057D02*
X28709522Y-16885295D01*
X28709522Y-16885295D02*
X28709522Y-16980533D01*
X28709522Y-16980533D02*
X28661903Y-17123390D01*
X28661903Y-17123390D02*
X28090475Y-17694819D01*
X28090475Y-17694819D02*
X28709522Y-17694819D01*
X29614284Y-16694819D02*
X29138094Y-16694819D01*
X29138094Y-16694819D02*
X29090475Y-17171009D01*
X29090475Y-17171009D02*
X29138094Y-17123390D01*
X29138094Y-17123390D02*
X29233332Y-17075771D01*
X29233332Y-17075771D02*
X29471427Y-17075771D01*
X29471427Y-17075771D02*
X29566665Y-17123390D01*
X29566665Y-17123390D02*
X29614284Y-17171009D01*
X29614284Y-17171009D02*
X29661903Y-17266247D01*
X29661903Y-17266247D02*
X29661903Y-17504342D01*
X29661903Y-17504342D02*
X29614284Y-17599580D01*
X29614284Y-17599580D02*
X29566665Y-17647200D01*
X29566665Y-17647200D02*
X29471427Y-17694819D01*
X29471427Y-17694819D02*
X29233332Y-17694819D01*
X29233332Y-17694819D02*
X29138094Y-17647200D01*
X29138094Y-17647200D02*
X29090475Y-17599580D01*
X27757141Y-15484819D02*
X27423808Y-15008628D01*
X27185713Y-15484819D02*
X27185713Y-14484819D01*
X27185713Y-14484819D02*
X27566665Y-14484819D01*
X27566665Y-14484819D02*
X27661903Y-14532438D01*
X27661903Y-14532438D02*
X27709522Y-14580057D01*
X27709522Y-14580057D02*
X27757141Y-14675295D01*
X27757141Y-14675295D02*
X27757141Y-14818152D01*
X27757141Y-14818152D02*
X27709522Y-14913390D01*
X27709522Y-14913390D02*
X27661903Y-14961009D01*
X27661903Y-14961009D02*
X27566665Y-15008628D01*
X27566665Y-15008628D02*
X27185713Y-15008628D01*
X28709522Y-15484819D02*
X28138094Y-15484819D01*
X28423808Y-15484819D02*
X28423808Y-14484819D01*
X28423808Y-14484819D02*
X28328570Y-14627676D01*
X28328570Y-14627676D02*
X28233332Y-14722914D01*
X28233332Y-14722914D02*
X28138094Y-14770533D01*
X29280951Y-14913390D02*
X29185713Y-14865771D01*
X29185713Y-14865771D02*
X29138094Y-14818152D01*
X29138094Y-14818152D02*
X29090475Y-14722914D01*
X29090475Y-14722914D02*
X29090475Y-14675295D01*
X29090475Y-14675295D02*
X29138094Y-14580057D01*
X29138094Y-14580057D02*
X29185713Y-14532438D01*
X29185713Y-14532438D02*
X29280951Y-14484819D01*
X29280951Y-14484819D02*
X29471427Y-14484819D01*
X29471427Y-14484819D02*
X29566665Y-14532438D01*
X29566665Y-14532438D02*
X29614284Y-14580057D01*
X29614284Y-14580057D02*
X29661903Y-14675295D01*
X29661903Y-14675295D02*
X29661903Y-14722914D01*
X29661903Y-14722914D02*
X29614284Y-14818152D01*
X29614284Y-14818152D02*
X29566665Y-14865771D01*
X29566665Y-14865771D02*
X29471427Y-14913390D01*
X29471427Y-14913390D02*
X29280951Y-14913390D01*
X29280951Y-14913390D02*
X29185713Y-14961009D01*
X29185713Y-14961009D02*
X29138094Y-15008628D01*
X29138094Y-15008628D02*
X29090475Y-15103866D01*
X29090475Y-15103866D02*
X29090475Y-15294342D01*
X29090475Y-15294342D02*
X29138094Y-15389580D01*
X29138094Y-15389580D02*
X29185713Y-15437200D01*
X29185713Y-15437200D02*
X29280951Y-15484819D01*
X29280951Y-15484819D02*
X29471427Y-15484819D01*
X29471427Y-15484819D02*
X29566665Y-15437200D01*
X29566665Y-15437200D02*
X29614284Y-15389580D01*
X29614284Y-15389580D02*
X29661903Y-15294342D01*
X29661903Y-15294342D02*
X29661903Y-15103866D01*
X29661903Y-15103866D02*
X29614284Y-15008628D01*
X29614284Y-15008628D02*
X29566665Y-14961009D01*
X29566665Y-14961009D02*
X29471427Y-14913390D01*
X14557142Y-17599580D02*
X14509523Y-17647200D01*
X14509523Y-17647200D02*
X14366666Y-17694819D01*
X14366666Y-17694819D02*
X14271428Y-17694819D01*
X14271428Y-17694819D02*
X14128571Y-17647200D01*
X14128571Y-17647200D02*
X14033333Y-17551961D01*
X14033333Y-17551961D02*
X13985714Y-17456723D01*
X13985714Y-17456723D02*
X13938095Y-17266247D01*
X13938095Y-17266247D02*
X13938095Y-17123390D01*
X13938095Y-17123390D02*
X13985714Y-16932914D01*
X13985714Y-16932914D02*
X14033333Y-16837676D01*
X14033333Y-16837676D02*
X14128571Y-16742438D01*
X14128571Y-16742438D02*
X14271428Y-16694819D01*
X14271428Y-16694819D02*
X14366666Y-16694819D01*
X14366666Y-16694819D02*
X14509523Y-16742438D01*
X14509523Y-16742438D02*
X14557142Y-16790057D01*
X15509523Y-17694819D02*
X14938095Y-17694819D01*
X15223809Y-17694819D02*
X15223809Y-16694819D01*
X15223809Y-16694819D02*
X15128571Y-16837676D01*
X15128571Y-16837676D02*
X15033333Y-16932914D01*
X15033333Y-16932914D02*
X14938095Y-16980533D01*
X15985714Y-17694819D02*
X16176190Y-17694819D01*
X16176190Y-17694819D02*
X16271428Y-17647200D01*
X16271428Y-17647200D02*
X16319047Y-17599580D01*
X16319047Y-17599580D02*
X16414285Y-17456723D01*
X16414285Y-17456723D02*
X16461904Y-17266247D01*
X16461904Y-17266247D02*
X16461904Y-16885295D01*
X16461904Y-16885295D02*
X16414285Y-16790057D01*
X16414285Y-16790057D02*
X16366666Y-16742438D01*
X16366666Y-16742438D02*
X16271428Y-16694819D01*
X16271428Y-16694819D02*
X16080952Y-16694819D01*
X16080952Y-16694819D02*
X15985714Y-16742438D01*
X15985714Y-16742438D02*
X15938095Y-16790057D01*
X15938095Y-16790057D02*
X15890476Y-16885295D01*
X15890476Y-16885295D02*
X15890476Y-17123390D01*
X15890476Y-17123390D02*
X15938095Y-17218628D01*
X15938095Y-17218628D02*
X15985714Y-17266247D01*
X15985714Y-17266247D02*
X16080952Y-17313866D01*
X16080952Y-17313866D02*
X16271428Y-17313866D01*
X16271428Y-17313866D02*
X16366666Y-17266247D01*
X16366666Y-17266247D02*
X16414285Y-17218628D01*
X16414285Y-17218628D02*
X16461904Y-17123390D01*
X6233333Y-15484819D02*
X5900000Y-15008628D01*
X5661905Y-15484819D02*
X5661905Y-14484819D01*
X5661905Y-14484819D02*
X6042857Y-14484819D01*
X6042857Y-14484819D02*
X6138095Y-14532438D01*
X6138095Y-14532438D02*
X6185714Y-14580057D01*
X6185714Y-14580057D02*
X6233333Y-14675295D01*
X6233333Y-14675295D02*
X6233333Y-14818152D01*
X6233333Y-14818152D02*
X6185714Y-14913390D01*
X6185714Y-14913390D02*
X6138095Y-14961009D01*
X6138095Y-14961009D02*
X6042857Y-15008628D01*
X6042857Y-15008628D02*
X5661905Y-15008628D01*
X6709524Y-15484819D02*
X6900000Y-15484819D01*
X6900000Y-15484819D02*
X6995238Y-15437200D01*
X6995238Y-15437200D02*
X7042857Y-15389580D01*
X7042857Y-15389580D02*
X7138095Y-15246723D01*
X7138095Y-15246723D02*
X7185714Y-15056247D01*
X7185714Y-15056247D02*
X7185714Y-14675295D01*
X7185714Y-14675295D02*
X7138095Y-14580057D01*
X7138095Y-14580057D02*
X7090476Y-14532438D01*
X7090476Y-14532438D02*
X6995238Y-14484819D01*
X6995238Y-14484819D02*
X6804762Y-14484819D01*
X6804762Y-14484819D02*
X6709524Y-14532438D01*
X6709524Y-14532438D02*
X6661905Y-14580057D01*
X6661905Y-14580057D02*
X6614286Y-14675295D01*
X6614286Y-14675295D02*
X6614286Y-14913390D01*
X6614286Y-14913390D02*
X6661905Y-15008628D01*
X6661905Y-15008628D02*
X6709524Y-15056247D01*
X6709524Y-15056247D02*
X6804762Y-15103866D01*
X6804762Y-15103866D02*
X6995238Y-15103866D01*
X6995238Y-15103866D02*
X7090476Y-15056247D01*
X7090476Y-15056247D02*
X7138095Y-15008628D01*
X7138095Y-15008628D02*
X7185714Y-14913390D01*
X38190476Y-28759819D02*
X38190476Y-29474104D01*
X38190476Y-29474104D02*
X38142857Y-29616961D01*
X38142857Y-29616961D02*
X38047619Y-29712200D01*
X38047619Y-29712200D02*
X37904762Y-29759819D01*
X37904762Y-29759819D02*
X37809524Y-29759819D01*
X39190476Y-29759819D02*
X38619048Y-29759819D01*
X38904762Y-29759819D02*
X38904762Y-28759819D01*
X38904762Y-28759819D02*
X38809524Y-28902676D01*
X38809524Y-28902676D02*
X38714286Y-28997914D01*
X38714286Y-28997914D02*
X38619048Y-29045533D01*
X40142857Y-29759819D02*
X39571429Y-29759819D01*
X39857143Y-29759819D02*
X39857143Y-28759819D01*
X39857143Y-28759819D02*
X39761905Y-28902676D01*
X39761905Y-28902676D02*
X39666667Y-28997914D01*
X39666667Y-28997914D02*
X39571429Y-29045533D01*
X5661905Y-12054819D02*
X5661905Y-11054819D01*
X5661905Y-11054819D02*
X5900000Y-11054819D01*
X5900000Y-11054819D02*
X6042857Y-11102438D01*
X6042857Y-11102438D02*
X6138095Y-11197676D01*
X6138095Y-11197676D02*
X6185714Y-11292914D01*
X6185714Y-11292914D02*
X6233333Y-11483390D01*
X6233333Y-11483390D02*
X6233333Y-11626247D01*
X6233333Y-11626247D02*
X6185714Y-11816723D01*
X6185714Y-11816723D02*
X6138095Y-11911961D01*
X6138095Y-11911961D02*
X6042857Y-12007200D01*
X6042857Y-12007200D02*
X5900000Y-12054819D01*
X5900000Y-12054819D02*
X5661905Y-12054819D01*
X7185714Y-12054819D02*
X6614286Y-12054819D01*
X6900000Y-12054819D02*
X6900000Y-11054819D01*
X6900000Y-11054819D02*
X6804762Y-11197676D01*
X6804762Y-11197676D02*
X6709524Y-11292914D01*
X6709524Y-11292914D02*
X6614286Y-11340533D01*
X16757142Y-17599580D02*
X16709523Y-17647200D01*
X16709523Y-17647200D02*
X16566666Y-17694819D01*
X16566666Y-17694819D02*
X16471428Y-17694819D01*
X16471428Y-17694819D02*
X16328571Y-17647200D01*
X16328571Y-17647200D02*
X16233333Y-17551961D01*
X16233333Y-17551961D02*
X16185714Y-17456723D01*
X16185714Y-17456723D02*
X16138095Y-17266247D01*
X16138095Y-17266247D02*
X16138095Y-17123390D01*
X16138095Y-17123390D02*
X16185714Y-16932914D01*
X16185714Y-16932914D02*
X16233333Y-16837676D01*
X16233333Y-16837676D02*
X16328571Y-16742438D01*
X16328571Y-16742438D02*
X16471428Y-16694819D01*
X16471428Y-16694819D02*
X16566666Y-16694819D01*
X16566666Y-16694819D02*
X16709523Y-16742438D01*
X16709523Y-16742438D02*
X16757142Y-16790057D01*
X17138095Y-16790057D02*
X17185714Y-16742438D01*
X17185714Y-16742438D02*
X17280952Y-16694819D01*
X17280952Y-16694819D02*
X17519047Y-16694819D01*
X17519047Y-16694819D02*
X17614285Y-16742438D01*
X17614285Y-16742438D02*
X17661904Y-16790057D01*
X17661904Y-16790057D02*
X17709523Y-16885295D01*
X17709523Y-16885295D02*
X17709523Y-16980533D01*
X17709523Y-16980533D02*
X17661904Y-17123390D01*
X17661904Y-17123390D02*
X17090476Y-17694819D01*
X17090476Y-17694819D02*
X17709523Y-17694819D01*
X18328571Y-16694819D02*
X18423809Y-16694819D01*
X18423809Y-16694819D02*
X18519047Y-16742438D01*
X18519047Y-16742438D02*
X18566666Y-16790057D01*
X18566666Y-16790057D02*
X18614285Y-16885295D01*
X18614285Y-16885295D02*
X18661904Y-17075771D01*
X18661904Y-17075771D02*
X18661904Y-17313866D01*
X18661904Y-17313866D02*
X18614285Y-17504342D01*
X18614285Y-17504342D02*
X18566666Y-17599580D01*
X18566666Y-17599580D02*
X18519047Y-17647200D01*
X18519047Y-17647200D02*
X18423809Y-17694819D01*
X18423809Y-17694819D02*
X18328571Y-17694819D01*
X18328571Y-17694819D02*
X18233333Y-17647200D01*
X18233333Y-17647200D02*
X18185714Y-17599580D01*
X18185714Y-17599580D02*
X18138095Y-17504342D01*
X18138095Y-17504342D02*
X18090476Y-17313866D01*
X18090476Y-17313866D02*
X18090476Y-17075771D01*
X18090476Y-17075771D02*
X18138095Y-16885295D01*
X18138095Y-16885295D02*
X18185714Y-16790057D01*
X18185714Y-16790057D02*
X18233333Y-16742438D01*
X18233333Y-16742438D02*
X18328571Y-16694819D01*
X3166666Y-33624819D02*
X3166666Y-34339104D01*
X3166666Y-34339104D02*
X3119047Y-34481961D01*
X3119047Y-34481961D02*
X3023809Y-34577200D01*
X3023809Y-34577200D02*
X2880952Y-34624819D01*
X2880952Y-34624819D02*
X2785714Y-34624819D01*
X3547619Y-33624819D02*
X4214285Y-33624819D01*
X4214285Y-33624819D02*
X3785714Y-34624819D01*
X13238095Y-31054819D02*
X13238095Y-31864342D01*
X13238095Y-31864342D02*
X13285714Y-31959580D01*
X13285714Y-31959580D02*
X13333333Y-32007200D01*
X13333333Y-32007200D02*
X13428571Y-32054819D01*
X13428571Y-32054819D02*
X13619047Y-32054819D01*
X13619047Y-32054819D02*
X13714285Y-32007200D01*
X13714285Y-32007200D02*
X13761904Y-31959580D01*
X13761904Y-31959580D02*
X13809523Y-31864342D01*
X13809523Y-31864342D02*
X13809523Y-31054819D01*
X14761904Y-31054819D02*
X14285714Y-31054819D01*
X14285714Y-31054819D02*
X14238095Y-31531009D01*
X14238095Y-31531009D02*
X14285714Y-31483390D01*
X14285714Y-31483390D02*
X14380952Y-31435771D01*
X14380952Y-31435771D02*
X14619047Y-31435771D01*
X14619047Y-31435771D02*
X14714285Y-31483390D01*
X14714285Y-31483390D02*
X14761904Y-31531009D01*
X14761904Y-31531009D02*
X14809523Y-31626247D01*
X14809523Y-31626247D02*
X14809523Y-31864342D01*
X14809523Y-31864342D02*
X14761904Y-31959580D01*
X14761904Y-31959580D02*
X14714285Y-32007200D01*
X14714285Y-32007200D02*
X14619047Y-32054819D01*
X14619047Y-32054819D02*
X14380952Y-32054819D01*
X14380952Y-32054819D02*
X14285714Y-32007200D01*
X14285714Y-32007200D02*
X14238095Y-31959580D01*
X23357141Y-19884818D02*
X23023808Y-19408627D01*
X22785713Y-19884818D02*
X22785713Y-18884818D01*
X22785713Y-18884818D02*
X23166665Y-18884818D01*
X23166665Y-18884818D02*
X23261903Y-18932437D01*
X23261903Y-18932437D02*
X23309522Y-18980056D01*
X23309522Y-18980056D02*
X23357141Y-19075294D01*
X23357141Y-19075294D02*
X23357141Y-19218151D01*
X23357141Y-19218151D02*
X23309522Y-19313389D01*
X23309522Y-19313389D02*
X23261903Y-19361008D01*
X23261903Y-19361008D02*
X23166665Y-19408627D01*
X23166665Y-19408627D02*
X22785713Y-19408627D01*
X23738094Y-18980056D02*
X23785713Y-18932437D01*
X23785713Y-18932437D02*
X23880951Y-18884818D01*
X23880951Y-18884818D02*
X24119046Y-18884818D01*
X24119046Y-18884818D02*
X24214284Y-18932437D01*
X24214284Y-18932437D02*
X24261903Y-18980056D01*
X24261903Y-18980056D02*
X24309522Y-19075294D01*
X24309522Y-19075294D02*
X24309522Y-19170532D01*
X24309522Y-19170532D02*
X24261903Y-19313389D01*
X24261903Y-19313389D02*
X23690475Y-19884818D01*
X23690475Y-19884818D02*
X24309522Y-19884818D01*
X24880951Y-19313389D02*
X24785713Y-19265770D01*
X24785713Y-19265770D02*
X24738094Y-19218151D01*
X24738094Y-19218151D02*
X24690475Y-19122913D01*
X24690475Y-19122913D02*
X24690475Y-19075294D01*
X24690475Y-19075294D02*
X24738094Y-18980056D01*
X24738094Y-18980056D02*
X24785713Y-18932437D01*
X24785713Y-18932437D02*
X24880951Y-18884818D01*
X24880951Y-18884818D02*
X25071427Y-18884818D01*
X25071427Y-18884818D02*
X25166665Y-18932437D01*
X25166665Y-18932437D02*
X25214284Y-18980056D01*
X25214284Y-18980056D02*
X25261903Y-19075294D01*
X25261903Y-19075294D02*
X25261903Y-19122913D01*
X25261903Y-19122913D02*
X25214284Y-19218151D01*
X25214284Y-19218151D02*
X25166665Y-19265770D01*
X25166665Y-19265770D02*
X25071427Y-19313389D01*
X25071427Y-19313389D02*
X24880951Y-19313389D01*
X24880951Y-19313389D02*
X24785713Y-19361008D01*
X24785713Y-19361008D02*
X24738094Y-19408627D01*
X24738094Y-19408627D02*
X24690475Y-19503865D01*
X24690475Y-19503865D02*
X24690475Y-19694341D01*
X24690475Y-19694341D02*
X24738094Y-19789579D01*
X24738094Y-19789579D02*
X24785713Y-19837199D01*
X24785713Y-19837199D02*
X24880951Y-19884818D01*
X24880951Y-19884818D02*
X25071427Y-19884818D01*
X25071427Y-19884818D02*
X25166665Y-19837199D01*
X25166665Y-19837199D02*
X25214284Y-19789579D01*
X25214284Y-19789579D02*
X25261903Y-19694341D01*
X25261903Y-19694341D02*
X25261903Y-19503865D01*
X25261903Y-19503865D02*
X25214284Y-19408627D01*
X25214284Y-19408627D02*
X25166665Y-19361008D01*
X25166665Y-19361008D02*
X25071427Y-19313389D01*
D11*
%TO.C,R22*%
X8446359Y-20219999D02*
X8753641Y-20219999D01*
X8446359Y-20979999D02*
X8753641Y-20979999D01*
%TO.C,R3*%
X8446359Y-13620000D02*
X8753641Y-13620000D01*
X8446359Y-14380000D02*
X8753641Y-14380000D01*
%TO.C,R5*%
X23846358Y-13620000D02*
X24153640Y-13620000D01*
X23846358Y-14380000D02*
X24153640Y-14380000D01*
%TO.C,U1*%
X15850000Y-26150000D02*
X15850000Y-25725000D01*
X16275000Y-15850000D02*
X15675000Y-15850000D01*
X16275000Y-26150000D02*
X15850000Y-26150000D01*
X25725000Y-15850000D02*
X26150000Y-15850000D01*
X25725000Y-26150000D02*
X26150000Y-26150000D01*
X26150000Y-15850000D02*
X26150000Y-16275000D01*
X26150000Y-26150000D02*
X26150000Y-25725000D01*
D12*
X15050000Y-16300000D02*
G75*
G03*
X14750000Y-16300000I-150000J0D01*
G01*
X14750000Y-16300000D02*
G75*
G03*
X15050000Y-16300000I150000J0D01*
G01*
D11*
%TO.C,C4*%
X19338747Y-13265000D02*
X19861251Y-13265000D01*
X19338747Y-14735000D02*
X19861251Y-14735000D01*
%TO.C,C28*%
X34892164Y-18040000D02*
X35107836Y-18040000D01*
X34892164Y-18760000D02*
X35107836Y-18760000D01*
%TO.C,R6*%
X26046358Y-13620000D02*
X26353640Y-13620000D01*
X26046358Y-14380000D02*
X26353640Y-14380000D01*
%TO.C,C26*%
X30459419Y-17890000D02*
X30740579Y-17890000D01*
X30459419Y-18910000D02*
X30740579Y-18910000D01*
%TO.C,J2*%
X16300000Y-37600000D02*
X16300000Y-39600000D01*
X16300000Y-41500000D02*
X16300000Y-43400000D01*
X16300000Y-43400000D02*
X25700000Y-43400000D01*
X25700000Y-37600000D02*
X25700000Y-39600000D01*
X25700000Y-41500000D02*
X25700000Y-43400000D01*
%TO.C,C18*%
X12892164Y-18040000D02*
X13107836Y-18040000D01*
X12892164Y-18760000D02*
X13107836Y-18760000D01*
%TO.C,R4*%
X21646358Y-13620000D02*
X21953640Y-13620000D01*
X21646358Y-14380000D02*
X21953640Y-14380000D01*
%TO.C,C8*%
X1892164Y-15840000D02*
X2107836Y-15840000D01*
X1892164Y-16560000D02*
X2107836Y-16560000D01*
%TO.C,U3*%
X14200000Y-14200000D02*
X14200000Y-15000000D01*
X14200000Y-15000000D02*
X15000000Y-15000000D01*
X14400000Y1800000D02*
X27600000Y1800000D01*
X14400000Y-3600000D02*
X27600000Y-3600000D01*
X14400000Y-14800000D02*
X14400000Y1800000D01*
X15075000Y2000000D02*
X14225000Y2000000D01*
X27050000Y2000000D02*
X27800000Y2000000D01*
X27600000Y1800000D02*
X27600000Y-14800000D01*
X27600000Y-14800000D02*
X14400000Y-14800000D01*
X27800000Y2000000D02*
X27800000Y1400000D01*
X27800000Y-14200000D02*
X27800000Y-15000000D01*
X27800000Y-15000000D02*
X27000000Y-15000000D01*
%TO.C,U2*%
X32500000Y-10440000D02*
X30550000Y-10440000D01*
X32500000Y-10440000D02*
X34450000Y-10440000D01*
X32500000Y-15560000D02*
X30550000Y-15560000D01*
X32500000Y-15560000D02*
X34450000Y-15560000D01*
X29800000Y-10535000D02*
X29560000Y-10205000D01*
X30040000Y-10205000D01*
X29800000Y-10535000D01*
G36*
X29800000Y-10535000D02*
G01*
X29560000Y-10205000D01*
X30040000Y-10205000D01*
X29800000Y-10535000D01*
G37*
%TO.C,C10*%
X8492164Y-15840000D02*
X8707836Y-15840000D01*
X8492164Y-16560000D02*
X8707836Y-16560000D01*
%TO.C,R7*%
X32646358Y-13620000D02*
X32953640Y-13620000D01*
X32646358Y-14380000D02*
X32953640Y-14380000D01*
%TO.C,D4*%
X16089999Y-18949999D02*
X16089999Y-22249999D01*
X16089999Y-18949999D02*
X21599999Y-18949999D01*
X16089999Y-22249999D02*
X21599999Y-22249999D01*
%TO.C,R8*%
X34846359Y-13620000D02*
X35153641Y-13620000D01*
X34846359Y-14380000D02*
X35153641Y-14380000D01*
%TO.C,R24*%
X21646358Y-20219999D02*
X21953640Y-20219999D01*
X21646358Y-20979999D02*
X21953640Y-20979999D01*
%TO.C,J10*%
X37890000Y-24240000D02*
X39000000Y-24240000D01*
X37890000Y-25000000D02*
X37890000Y-24240000D01*
X37890000Y-25760000D02*
X37890000Y-29505000D01*
X37890000Y-25760000D02*
X38436529Y-25760000D01*
X37890000Y-29505000D02*
X38692470Y-29505000D01*
X39307530Y-29505000D02*
X40110000Y-29505000D01*
X39563471Y-25760000D02*
X40110000Y-25760000D01*
X40110000Y-25760000D02*
X40110000Y-29505000D01*
%TO.C,C24*%
X26092163Y-18040000D02*
X26307835Y-18040000D01*
X26092163Y-18760000D02*
X26307835Y-18760000D01*
%TO.C,L1*%
X17100378Y-33440000D02*
X17899622Y-33440000D01*
X17100378Y-34560000D02*
X17899622Y-34560000D01*
%TO.C,J9*%
X37890000Y-18240000D02*
X39000000Y-18240000D01*
X37890000Y-19000000D02*
X37890000Y-18240000D01*
X37890000Y-19760000D02*
X37890000Y-26045000D01*
X37890000Y-19760000D02*
X38436529Y-19760000D01*
X37890000Y-26045000D02*
X38692470Y-26045000D01*
X39307530Y-26045000D02*
X40110000Y-26045000D01*
X39563471Y-19760000D02*
X40110000Y-19760000D01*
X40110000Y-19760000D02*
X40110000Y-26045000D01*
%TO.C,R11*%
X12846359Y-15820000D02*
X13153641Y-15820000D01*
X12846359Y-16580000D02*
X13153641Y-16580000D01*
%TO.C,C34*%
X34892164Y-20239999D02*
X35107836Y-20239999D01*
X34892164Y-20959999D02*
X35107836Y-20959999D01*
%TO.C,R15*%
X21646358Y-15820000D02*
X21953640Y-15820000D01*
X21646358Y-16580000D02*
X21953640Y-16580000D01*
%TO.C,Q2*%
X35000000Y-31440000D02*
X34350000Y-31440000D01*
X35000000Y-31440000D02*
X35650000Y-31440000D01*
X35000000Y-34560000D02*
X34350000Y-34560000D01*
X35000000Y-34560000D02*
X35650000Y-34560000D01*
X33837500Y-31490000D02*
X33597500Y-31160000D01*
X34077500Y-31160000D01*
X33837500Y-31490000D01*
G36*
X33837500Y-31490000D02*
G01*
X33597500Y-31160000D01*
X34077500Y-31160000D01*
X33837500Y-31490000D01*
G37*
%TO.C,R29*%
X30446358Y-20219999D02*
X30753640Y-20219999D01*
X30446358Y-20979999D02*
X30753640Y-20979999D01*
%TO.C,C15*%
X6292164Y-18040000D02*
X6507836Y-18040000D01*
X6292164Y-18760000D02*
X6507836Y-18760000D01*
%TO.C,C22*%
X21692163Y-18040000D02*
X21907835Y-18040000D01*
X21692163Y-18760000D02*
X21907835Y-18760000D01*
%TO.C,Q1*%
X35000000Y-7440000D02*
X34350000Y-7440000D01*
X35000000Y-7440000D02*
X35650000Y-7440000D01*
X35000000Y-10560000D02*
X34350000Y-10560000D01*
X35000000Y-10560000D02*
X35650000Y-10560000D01*
X33837500Y-7490000D02*
X33597500Y-7160000D01*
X34077500Y-7160000D01*
X33837500Y-7490000D01*
G36*
X33837500Y-7490000D02*
G01*
X33597500Y-7160000D01*
X34077500Y-7160000D01*
X33837500Y-7490000D01*
G37*
%TO.C,R13*%
X17246359Y-15820000D02*
X17553641Y-15820000D01*
X17246359Y-16580000D02*
X17553641Y-16580000D01*
%TO.C,R1*%
X1846359Y-13620000D02*
X2153641Y-13620000D01*
X1846359Y-14380000D02*
X2153641Y-14380000D01*
%TO.C,C5*%
X30459419Y-13490000D02*
X30740579Y-13490000D01*
X30459419Y-14510000D02*
X30740579Y-14510000D01*
%TO.C,R16*%
X23846358Y-15820000D02*
X24153640Y-15820000D01*
X23846358Y-16580000D02*
X24153640Y-16580000D01*
%TO.C,C35*%
X37092164Y-20239999D02*
X37307836Y-20239999D01*
X37092164Y-20959999D02*
X37307836Y-20959999D01*
%TO.C,C12*%
X39292164Y-15840000D02*
X39507836Y-15840000D01*
X39292164Y-16560000D02*
X39507836Y-16560000D01*
%TO.C,J6*%
X37170000Y-35170000D02*
X38500000Y-35170000D01*
X37170000Y-36500000D02*
X37170000Y-35170000D01*
X37170000Y-37770000D02*
X37170000Y-40370000D01*
X37170000Y-37770000D02*
X39830000Y-37770000D01*
X37170000Y-40370000D02*
X39830000Y-40370000D01*
X39830000Y-37770000D02*
X39830000Y-40370000D01*
%TO.C,C30*%
X39292164Y-18040000D02*
X39507836Y-18040000D01*
X39292164Y-18760000D02*
X39507836Y-18760000D01*
%TO.C,C23*%
X23892163Y-18040000D02*
X24107835Y-18040000D01*
X23892163Y-18760000D02*
X24107835Y-18760000D01*
%TO.C,D6*%
X29289999Y-18949999D02*
X29289999Y-22249999D01*
X29289999Y-18949999D02*
X34799999Y-18949999D01*
X29289999Y-22249999D02*
X34799999Y-22249999D01*
%TO.C,J1*%
X27940000Y-35690000D02*
X28960000Y-35690000D01*
X27940000Y-39940000D02*
X27940000Y-35690000D01*
X28960000Y-35690000D02*
X28960000Y-37290000D01*
X28960000Y-37290000D02*
X30240000Y-37290000D01*
X29660000Y-43510000D02*
X34340000Y-43510000D01*
X30240000Y-37290000D02*
X30240000Y-34400000D01*
X35040000Y-35690000D02*
X35040000Y-37290000D01*
X35040000Y-37290000D02*
X33760000Y-37290000D01*
X36060000Y-35690000D02*
X35040000Y-35690000D01*
X36060000Y-39940000D02*
X36060000Y-35690000D01*
%TO.C,LED2*%
X31580000Y-7850000D02*
X31580000Y-8500000D01*
X31580000Y-7850000D02*
X34420000Y-7850000D01*
X31580000Y-10150000D02*
X34420000Y-10150000D01*
%TO.C,J4*%
X15600000Y-1300000D02*
X15600000Y-2640000D01*
X15600000Y-5360000D02*
X15600000Y-7100000D01*
X15600000Y-7100000D02*
X26400000Y-7100000D01*
X17090000Y-1300000D02*
X15600000Y-1300000D01*
X17090000Y-1300000D02*
X17090000Y-100000D01*
X24910000Y-1300000D02*
X26400000Y-1300000D01*
X26400000Y-1300000D02*
X26400000Y-2640000D01*
X26400000Y-7100000D02*
X26400000Y-5360000D01*
%TO.C,SW2*%
X440000Y-25150000D02*
X6560000Y-25150000D01*
X440000Y-28850000D02*
X440000Y-25150000D01*
X6560000Y-25150000D02*
X6560000Y-28850000D01*
X6560000Y-28850000D02*
X440000Y-28850000D01*
%TO.C,C21*%
X19492163Y-18040000D02*
X19707835Y-18040000D01*
X19492163Y-18760000D02*
X19707835Y-18760000D01*
%TO.C,J5*%
X37170000Y-4170000D02*
X38500000Y-4170000D01*
X37170000Y-5500000D02*
X37170000Y-4170000D01*
X37170000Y-6770000D02*
X37170000Y-9370000D01*
X37170000Y-6770000D02*
X39830000Y-6770000D01*
X37170000Y-9370000D02*
X39830000Y-9370000D01*
X39830000Y-6770000D02*
X39830000Y-9370000D01*
%TO.C,R10*%
X10646359Y-15820000D02*
X10953641Y-15820000D01*
X10646359Y-16580000D02*
X10953641Y-16580000D01*
%TO.C,R23*%
X15046359Y-20219999D02*
X15353641Y-20219999D01*
X15046359Y-20979999D02*
X15353641Y-20979999D01*
%TO.C,D3*%
X9490000Y-18949999D02*
X9490000Y-22249999D01*
X9490000Y-18949999D02*
X15000000Y-18949999D01*
X9490000Y-22249999D02*
X15000000Y-22249999D01*
%TO.C,C2*%
X12738748Y-13265000D02*
X13261252Y-13265000D01*
X12738748Y-14735000D02*
X13261252Y-14735000D01*
%TO.C,C16*%
X8492164Y-18040000D02*
X8707836Y-18040000D01*
X8492164Y-18760000D02*
X8707836Y-18760000D01*
%TO.C,C3*%
X17138748Y-13265000D02*
X17661252Y-13265000D01*
X17138748Y-14735000D02*
X17661252Y-14735000D01*
D13*
%TO.C,U7*%
X26650000Y-26540000D02*
X26650000Y-26100000D01*
X26650000Y-28100000D02*
X26650000Y-27460000D01*
X26650000Y-28100000D02*
X26800000Y-28100000D01*
X29075000Y-28075000D02*
X29225000Y-28075000D01*
X29200000Y-25900000D02*
X29350000Y-25900000D01*
X29350000Y-26540000D02*
X29350000Y-25900000D01*
X29350000Y-28100000D02*
X29350000Y-27460000D01*
X26650000Y-25900000D02*
X26290000Y-25900000D01*
X26650000Y-25540000D01*
X26650000Y-25900000D01*
G36*
X26650000Y-25900000D02*
G01*
X26290000Y-25900000D01*
X26650000Y-25540000D01*
X26650000Y-25900000D01*
G37*
D11*
%TO.C,R19*%
X30446358Y-15820000D02*
X30753640Y-15820000D01*
X30446358Y-16580000D02*
X30753640Y-16580000D01*
%TO.C,R25*%
X28246358Y-20219999D02*
X28553640Y-20219999D01*
X28246358Y-20979999D02*
X28553640Y-20979999D01*
%TO.C,R21*%
X34846359Y-15820000D02*
X35153641Y-15820000D01*
X34846359Y-16580000D02*
X35153641Y-16580000D01*
%TO.C,D2*%
X11690000Y-12350000D02*
X11690000Y-15650000D01*
X11690000Y-12350000D02*
X17200000Y-12350000D01*
X11690000Y-15650000D02*
X17200000Y-15650000D01*
%TO.C,R20*%
X32646358Y-15820000D02*
X32953640Y-15820000D01*
X32646358Y-16580000D02*
X32953640Y-16580000D01*
%TO.C,R12*%
X15046359Y-15820000D02*
X15353641Y-15820000D01*
X15046359Y-16580000D02*
X15353641Y-16580000D01*
%TO.C,U6*%
X12140000Y-28610000D02*
X12140000Y-28385000D01*
X12865000Y-25390000D02*
X12440000Y-25390000D01*
X12865000Y-28610000D02*
X12140000Y-28610000D01*
X14135000Y-25390000D02*
X14860000Y-25390000D01*
X14135000Y-28610000D02*
X14860000Y-28610000D01*
X14860000Y-25390000D02*
X14860000Y-25615000D01*
X14860000Y-28610000D02*
X14860000Y-28385000D01*
X12140000Y-25390000D02*
X11900000Y-25060000D01*
X12380000Y-25060000D01*
X12140000Y-25390000D01*
G36*
X12140000Y-25390000D02*
G01*
X11900000Y-25060000D01*
X12380000Y-25060000D01*
X12140000Y-25390000D01*
G37*
%TO.C,C29*%
X37092164Y-18040000D02*
X37307836Y-18040000D01*
X37092164Y-18760000D02*
X37307836Y-18760000D01*
%TO.C,SW1*%
X440000Y-19150000D02*
X6560000Y-19150000D01*
X440000Y-22850000D02*
X440000Y-19150000D01*
X6560000Y-19150000D02*
X6560000Y-22850000D01*
X6560000Y-22850000D02*
X440000Y-22850000D01*
%TO.C,U4*%
X7000000Y-30440000D02*
X5050000Y-30440000D01*
X7000000Y-30440000D02*
X8950000Y-30440000D01*
X7000000Y-35560000D02*
X5050000Y-35560000D01*
X7000000Y-35560000D02*
X8950000Y-35560000D01*
X4300000Y-30535000D02*
X4060000Y-30205000D01*
X4540000Y-30205000D01*
X4300000Y-30535000D01*
G36*
X4300000Y-30535000D02*
G01*
X4060000Y-30205000D01*
X4540000Y-30205000D01*
X4300000Y-30535000D01*
G37*
%TO.C,C1*%
X10538748Y-13265000D02*
X11061252Y-13265000D01*
X10538748Y-14735000D02*
X11061252Y-14735000D01*
%TO.C,C33*%
X6292164Y-20239999D02*
X6507836Y-20239999D01*
X6292164Y-20959999D02*
X6507836Y-20959999D01*
%TO.C,R26*%
X10646359Y-20219999D02*
X10953641Y-20219999D01*
X10646359Y-20979999D02*
X10953641Y-20979999D01*
%TO.C,L2*%
X28237220Y-13490000D02*
X28562778Y-13490000D01*
X28237220Y-14510000D02*
X28562778Y-14510000D01*
%TO.C,C17*%
X10692164Y-18040000D02*
X10907836Y-18040000D01*
X10692164Y-18760000D02*
X10907836Y-18760000D01*
%TO.C,Q4*%
X9000000Y-11440000D02*
X8350000Y-11440000D01*
X9000000Y-11440000D02*
X9650000Y-11440000D01*
X9000000Y-14560000D02*
X8350000Y-14560000D01*
X9000000Y-14560000D02*
X9650000Y-14560000D01*
X7837500Y-11490000D02*
X7597500Y-11160000D01*
X8077500Y-11160000D01*
X7837500Y-11490000D01*
G36*
X7837500Y-11490000D02*
G01*
X7597500Y-11160000D01*
X8077500Y-11160000D01*
X7837500Y-11490000D01*
G37*
%TO.C,LED1*%
X7580000Y-7850000D02*
X7580000Y-8500000D01*
X7580000Y-7850000D02*
X10420000Y-7850000D01*
X7580000Y-10150000D02*
X10420000Y-10150000D01*
%TO.C,C14*%
X4092164Y-18040000D02*
X4307836Y-18040000D01*
X4092164Y-18760000D02*
X4307836Y-18760000D01*
%TO.C,C9*%
X4092164Y-15840000D02*
X4307836Y-15840000D01*
X4092164Y-16560000D02*
X4307836Y-16560000D01*
%TO.C,C27*%
X32659419Y-17890000D02*
X32940579Y-17890000D01*
X32659419Y-18910000D02*
X32940579Y-18910000D01*
%TO.C,C6*%
X37092164Y-13640000D02*
X37307836Y-13640000D01*
X37092164Y-14360000D02*
X37307836Y-14360000D01*
%TO.C,C11*%
X37092164Y-15840000D02*
X37307836Y-15840000D01*
X37092164Y-16560000D02*
X37307836Y-16560000D01*
%TO.C,R14*%
X19446358Y-15820000D02*
X19753640Y-15820000D01*
X19446358Y-16580000D02*
X19753640Y-16580000D01*
%TO.C,C7*%
X39292164Y-13640000D02*
X39507836Y-13640000D01*
X39292164Y-14360000D02*
X39507836Y-14360000D01*
%TO.C,Y1*%
X30500000Y-16350000D02*
X30500000Y-19650000D01*
X30500000Y-19650000D02*
X34500000Y-19650000D01*
%TO.C,J8*%
X2170000Y-4170000D02*
X3500000Y-4170000D01*
X2170000Y-5500000D02*
X2170000Y-4170000D01*
X2170000Y-6770000D02*
X2170000Y-9370000D01*
X2170000Y-6770000D02*
X4830000Y-6770000D01*
X2170000Y-9370000D02*
X4830000Y-9370000D01*
X4830000Y-6770000D02*
X4830000Y-9370000D01*
%TO.C,R2*%
X4046359Y-13620000D02*
X4353641Y-13620000D01*
X4046359Y-14380000D02*
X4353641Y-14380000D01*
%TO.C,C13*%
X1892164Y-18040000D02*
X2107836Y-18040000D01*
X1892164Y-18760000D02*
X2107836Y-18760000D01*
%TO.C,Q3*%
X8560000Y-33000000D02*
X8560000Y-32350000D01*
X8560000Y-33000000D02*
X8560000Y-33650000D01*
X5440000Y-33000000D02*
X5440000Y-32350000D01*
X5440000Y-33000000D02*
X5440000Y-33650000D01*
X8840000Y-32077500D02*
X8510000Y-31837500D01*
X8840000Y-31597500D01*
X8840000Y-32077500D01*
G36*
X8840000Y-32077500D02*
G01*
X8510000Y-31837500D01*
X8840000Y-31597500D01*
X8840000Y-32077500D01*
G37*
%TO.C,R17*%
X26046358Y-15820000D02*
X26353640Y-15820000D01*
X26046358Y-16580000D02*
X26353640Y-16580000D01*
%TO.C,D5*%
X22689999Y-18949999D02*
X22689999Y-22249999D01*
X22689999Y-18949999D02*
X28199999Y-18949999D01*
X22689999Y-22249999D02*
X28199999Y-22249999D01*
%TO.C,R27*%
X17246359Y-20219999D02*
X17553641Y-20219999D01*
X17246359Y-20979999D02*
X17553641Y-20979999D01*
%TO.C,C25*%
X28292163Y-18040000D02*
X28507835Y-18040000D01*
X28292163Y-18760000D02*
X28507835Y-18760000D01*
%TO.C,R18*%
X28246358Y-15820000D02*
X28553640Y-15820000D01*
X28246358Y-16580000D02*
X28553640Y-16580000D01*
%TO.C,C19*%
X15092164Y-18040000D02*
X15307836Y-18040000D01*
X15092164Y-18760000D02*
X15307836Y-18760000D01*
%TO.C,R9*%
X6246359Y-15820000D02*
X6553641Y-15820000D01*
X6246359Y-16580000D02*
X6553641Y-16580000D01*
%TO.C,J11*%
X37890000Y-30240000D02*
X39000000Y-30240000D01*
X37890000Y-31000000D02*
X37890000Y-30240000D01*
X37890000Y-31760000D02*
X37890000Y-35505000D01*
X37890000Y-31760000D02*
X38436529Y-31760000D01*
X37890000Y-35505000D02*
X38692470Y-35505000D01*
X39307530Y-35505000D02*
X40110000Y-35505000D01*
X39563471Y-31760000D02*
X40110000Y-31760000D01*
X40110000Y-31760000D02*
X40110000Y-35505000D01*
%TO.C,D1*%
X6400000Y-12440000D02*
X5600000Y-12440000D01*
X6400000Y-12440000D02*
X7200000Y-12440000D01*
X6400000Y-15560000D02*
X5600000Y-15560000D01*
X6400000Y-15560000D02*
X7200000Y-15560000D01*
X5100000Y-12490000D02*
X4860000Y-12160000D01*
X5340000Y-12160000D01*
X5100000Y-12490000D01*
G36*
X5100000Y-12490000D02*
G01*
X4860000Y-12160000D01*
X5340000Y-12160000D01*
X5100000Y-12490000D01*
G37*
%TO.C,C20*%
X17292164Y-18040000D02*
X17507836Y-18040000D01*
X17292164Y-18760000D02*
X17507836Y-18760000D01*
%TO.C,J7*%
X2170000Y-35170000D02*
X3500000Y-35170000D01*
X2170000Y-36500000D02*
X2170000Y-35170000D01*
X2170000Y-37770000D02*
X2170000Y-40370000D01*
X2170000Y-37770000D02*
X4830000Y-37770000D01*
X2170000Y-40370000D02*
X4830000Y-40370000D01*
X4830000Y-37770000D02*
X4830000Y-40370000D01*
%TO.C,U5*%
X14000000Y-32440000D02*
X13200000Y-32440000D01*
X14000000Y-32440000D02*
X14800000Y-32440000D01*
X14000000Y-35560000D02*
X13200000Y-35560000D01*
X14000000Y-35560000D02*
X14800000Y-35560000D01*
X12700000Y-32490000D02*
X12460000Y-32160000D01*
X12940000Y-32160000D01*
X12700000Y-32490000D01*
G36*
X12700000Y-32490000D02*
G01*
X12460000Y-32160000D01*
X12940000Y-32160000D01*
X12700000Y-32490000D01*
G37*
%TO.C,R28*%
X23846358Y-20219999D02*
X24153640Y-20219999D01*
X23846358Y-20979999D02*
X24153640Y-20979999D01*
%TD*%
M02*
