%TF.GenerationSoftware,KiCad,Pcbnew,7.0.11+dfsg-1build4*%
%TF.CreationDate,2026-06-17T00:18:48+00:00*%
%TF.ProjectId,stratosdrone,73747261-746f-4736-9472-6f6e652e6b69,rev?*%
%TF.SameCoordinates,Original*%
%TF.FileFunction,Paste,Top*%
%TF.FilePolarity,Positive*%
%FSLAX46Y46*%
G04 Gerber Fmt 4.6, Leading zero omitted, Abs format (unit mm)*
G04 Created by KiCad (PCBNEW 7.0.11+dfsg-1build4) date 2026-06-17 00:18:48*
%MOMM*%
%LPD*%
G01*
G04 APERTURE LIST*
G04 Aperture macros list*
%AMRoundRect*
0 Rectangle with rounded corners*
0 $1 Rounding radius*
0 $2 $3 $4 $5 $6 $7 $8 $9 X,Y pos of 4 corners*
0 Add a 4 corners polygon primitive as box body*
4,1,4,$2,$3,$4,$5,$6,$7,$8,$9,$2,$3,0*
0 Add four circle primitives for the rounded corners*
1,1,$1+$1,$2,$3*
1,1,$1+$1,$4,$5*
1,1,$1+$1,$6,$7*
1,1,$1+$1,$8,$9*
0 Add four rect primitives between the rounded corners*
20,1,$1+$1,$2,$3,$4,$5,0*
20,1,$1+$1,$4,$5,$6,$7,0*
20,1,$1+$1,$6,$7,$8,$9,0*
20,1,$1+$1,$8,$9,$2,$3,0*%
%AMFreePoly0*
4,1,6,0.725000,-0.725000,-0.725000,-0.725000,-0.725000,0.125000,-0.125000,0.725000,0.725000,0.725000,0.725000,-0.725000,0.725000,-0.725000,$1*%
G04 Aperture macros list end*
%ADD10RoundRect,0.135000X-0.135000X-0.185000X0.135000X-0.185000X0.135000X0.185000X-0.135000X0.185000X0*%
%ADD11RoundRect,0.250000X-0.250000X-0.475000X0.250000X-0.475000X0.250000X0.475000X-0.250000X0.475000X0*%
%ADD12RoundRect,0.150000X-0.587500X-0.150000X0.587500X-0.150000X0.587500X0.150000X-0.587500X0.150000X0*%
%ADD13RoundRect,0.218750X-0.218750X-0.381250X0.218750X-0.381250X0.218750X0.381250X-0.218750X0.381250X0*%
%ADD14RoundRect,0.140000X-0.140000X-0.170000X0.140000X-0.170000X0.140000X0.170000X-0.140000X0.170000X0*%
%ADD15RoundRect,0.150000X-0.512500X-0.150000X0.512500X-0.150000X0.512500X0.150000X-0.512500X0.150000X0*%
%ADD16RoundRect,0.225000X-0.225000X-0.250000X0.225000X-0.250000X0.225000X0.250000X-0.225000X0.250000X0*%
%ADD17RoundRect,0.250000X-1.000000X-0.650000X1.000000X-0.650000X1.000000X0.650000X-1.000000X0.650000X0*%
%ADD18R,0.700000X0.700000*%
%ADD19RoundRect,0.250000X-0.250000X-1.500000X0.250000X-1.500000X0.250000X1.500000X-0.250000X1.500000X0*%
%ADD20RoundRect,0.250001X-0.499999X-1.449999X0.499999X-1.449999X0.499999X1.449999X-0.499999X1.449999X0*%
%ADD21R,1.400000X1.200000*%
%ADD22RoundRect,0.150000X-0.825000X-0.150000X0.825000X-0.150000X0.825000X0.150000X-0.825000X0.150000X0*%
%ADD23R,1.500000X1.500000*%
%ADD24RoundRect,0.202500X-0.202500X-0.402500X0.202500X-0.402500X0.202500X0.402500X-0.202500X0.402500X0*%
%ADD25RoundRect,0.062500X-0.062500X-0.350000X0.062500X-0.350000X0.062500X0.350000X-0.062500X0.350000X0*%
%ADD26RoundRect,0.062500X-0.350000X-0.062500X0.350000X-0.062500X0.350000X0.062500X-0.350000X0.062500X0*%
%ADD27O,0.650000X0.200000*%
%ADD28O,0.200000X0.650000*%
%ADD29R,1.700000X1.700000*%
%ADD30RoundRect,0.242500X-0.242500X-0.527500X0.242500X-0.527500X0.242500X0.527500X-0.242500X0.527500X0*%
%ADD31R,1.450000X0.600000*%
%ADD32R,1.450000X0.300000*%
%ADD33R,0.800000X0.400000*%
%ADD34R,0.400000X0.800000*%
%ADD35FreePoly0,0.000000*%
%ADD36R,1.450000X1.450000*%
%ADD37R,0.350000X0.500000*%
%ADD38R,1.400000X2.700000*%
%ADD39R,0.300000X1.300000*%
%ADD40R,1.800000X2.200000*%
G04 APERTURE END LIST*
D10*
%TO.C,R1*%
X6490000Y-28000000D03*
X7510000Y-28000000D03*
%TD*%
D11*
%TO.C,C1*%
X8482204Y-62192284D03*
X10382204Y-62192284D03*
%TD*%
D10*
%TO.C,R8*%
X27597697Y-61489034D03*
X28617697Y-61489034D03*
%TD*%
%TO.C,R23*%
X15566247Y-48135042D03*
X16586247Y-48135042D03*
%TD*%
D12*
%TO.C,Q1*%
X29062500Y-15050000D03*
X29062500Y-16950000D03*
X30937500Y-16000000D03*
%TD*%
D10*
%TO.C,R28*%
X6878427Y-57883100D03*
X7898427Y-57883100D03*
%TD*%
D13*
%TO.C,L1*%
X25937500Y-57000000D03*
X28062500Y-57000000D03*
%TD*%
D14*
%TO.C,C33*%
X18231957Y-8537711D03*
X19191957Y-8537711D03*
%TD*%
D10*
%TO.C,R5*%
X26373322Y-59647604D03*
X27393322Y-59647604D03*
%TD*%
D15*
%TO.C,U5*%
X21862500Y-56050000D03*
X21862500Y-57000000D03*
X21862500Y-57950000D03*
X24137500Y-57950000D03*
X24137500Y-56050000D03*
%TD*%
D14*
%TO.C,C17*%
X10146009Y-33897699D03*
X11106009Y-33897699D03*
%TD*%
D12*
%TO.C,Q2*%
X29062500Y-54050000D03*
X29062500Y-55950000D03*
X30937500Y-55000000D03*
%TD*%
D15*
%TO.C,U10*%
X29110267Y-28103164D03*
X29110267Y-29053164D03*
X29110267Y-30003164D03*
X31385267Y-30003164D03*
X31385267Y-28103164D03*
%TD*%
D14*
%TO.C,C11*%
X15258744Y-43730284D03*
X16218744Y-43730284D03*
%TD*%
%TO.C,C10*%
X32520000Y-42300000D03*
X33480000Y-42300000D03*
%TD*%
D10*
%TO.C,R17*%
X11545398Y-45896724D03*
X12565398Y-45896724D03*
%TD*%
%TO.C,R9*%
X32490000Y-37700000D03*
X33510000Y-37700000D03*
%TD*%
%TO.C,R22*%
X18709220Y-26067776D03*
X19729220Y-26067776D03*
%TD*%
D14*
%TO.C,C20*%
X12436702Y-43936864D03*
X13396702Y-43936864D03*
%TD*%
D10*
%TO.C,R6*%
X21966104Y-51123305D03*
X22986104Y-51123305D03*
%TD*%
D14*
%TO.C,C16*%
X21417382Y-43986444D03*
X22377382Y-43986444D03*
%TD*%
D15*
%TO.C,D1*%
X10362500Y-27050000D03*
X10362500Y-28000000D03*
X10362500Y-28950000D03*
X12637500Y-28950000D03*
X12637500Y-28000000D03*
X12637500Y-27050000D03*
%TD*%
D10*
%TO.C,R18*%
X7154593Y-34230636D03*
X8174593Y-34230636D03*
%TD*%
D16*
%TO.C,C27*%
X22176477Y-48150016D03*
X23726477Y-48150016D03*
%TD*%
%TO.C,C26*%
X21819251Y-26022620D03*
X23369251Y-26022620D03*
%TD*%
D14*
%TO.C,C18*%
X24766017Y-41047868D03*
X25726017Y-41047868D03*
%TD*%
D17*
%TO.C,D4*%
X21434714Y-53647815D03*
X25434714Y-53647815D03*
%TD*%
D18*
%TO.C,LED1*%
X6085000Y-21450000D03*
X6085000Y-22550000D03*
X7915000Y-22550000D03*
X7915000Y-21450000D03*
%TD*%
D12*
%TO.C,Q3*%
X5062500Y-54050000D03*
X5062500Y-55950000D03*
X6937500Y-55000000D03*
%TD*%
D10*
%TO.C,R24*%
X24768447Y-28356262D03*
X25788447Y-28356262D03*
%TD*%
D19*
%TO.C,J1*%
X17000000Y-64150000D03*
X19000000Y-64150000D03*
D20*
X14650000Y-69900000D03*
X21350000Y-69900000D03*
%TD*%
D14*
%TO.C,C37*%
X18393108Y-43743714D03*
X19353108Y-43743714D03*
%TD*%
D10*
%TO.C,R29*%
X6878427Y-13116899D03*
X7898427Y-13116899D03*
%TD*%
D14*
%TO.C,C6*%
X22869556Y-59878855D03*
X23829556Y-59878855D03*
%TD*%
%TO.C,C35*%
X27649313Y-19550121D03*
X28609313Y-19550121D03*
%TD*%
D10*
%TO.C,R13*%
X21561067Y-28085606D03*
X22581067Y-28085606D03*
%TD*%
D21*
%TO.C,Y1*%
X28900000Y-33850000D03*
X31100000Y-33850000D03*
X31100000Y-32150000D03*
X28900000Y-32150000D03*
%TD*%
D17*
%TO.C,D2*%
X2600000Y-8250000D03*
X6600000Y-8250000D03*
%TD*%
D14*
%TO.C,C15*%
X24714832Y-34256938D03*
X25674832Y-34256938D03*
%TD*%
D22*
%TO.C,U2*%
X6525000Y-36095000D03*
X6525000Y-37365000D03*
X6525000Y-38635000D03*
X6525000Y-39905000D03*
X11475000Y-39905000D03*
X11475000Y-38635000D03*
X11475000Y-37365000D03*
X11475000Y-36095000D03*
%TD*%
D10*
%TO.C,R10*%
X32490000Y-47700000D03*
X33510000Y-47700000D03*
%TD*%
D17*
%TO.C,D3*%
X29298332Y-25282775D03*
X33298332Y-25282775D03*
%TD*%
D10*
%TO.C,R21*%
X27090000Y-64000000D03*
X28110000Y-64000000D03*
%TD*%
D11*
%TO.C,C4*%
X8477595Y-67727527D03*
X10377595Y-67727527D03*
%TD*%
D14*
%TO.C,C9*%
X33403322Y-35647604D03*
X34363322Y-35647604D03*
%TD*%
D18*
%TO.C,LED2*%
X28085000Y-21450000D03*
X28085000Y-22550000D03*
X29915000Y-22550000D03*
X29915000Y-21450000D03*
%TD*%
D14*
%TO.C,C13*%
X19940302Y-30006993D03*
X20900302Y-30006993D03*
%TD*%
%TO.C,C7*%
X16995206Y-30220280D03*
X17955206Y-30220280D03*
%TD*%
D11*
%TO.C,C5*%
X11473795Y-48521542D03*
X13373795Y-48521542D03*
%TD*%
D14*
%TO.C,C24*%
X15442336Y-28345907D03*
X16402336Y-28345907D03*
%TD*%
%TO.C,C22*%
X24754780Y-32350488D03*
X25714780Y-32350488D03*
%TD*%
D17*
%TO.C,D5*%
X2874567Y-51349827D03*
X6874567Y-51349827D03*
%TD*%
D10*
%TO.C,R31*%
X14890201Y-46137343D03*
X15910201Y-46137343D03*
%TD*%
%TO.C,R3*%
X17174519Y-54190234D03*
X18194519Y-54190234D03*
%TD*%
D23*
%TO.C,SW2*%
X29100000Y-50000000D03*
X36900000Y-50000000D03*
%TD*%
D24*
%TO.C,U6*%
X8000000Y-47000000D03*
D25*
X7750000Y-45562500D03*
D26*
X6812500Y-46000000D03*
X6812500Y-46500000D03*
X6812500Y-47000000D03*
X6812500Y-47500000D03*
X6812500Y-48000000D03*
D25*
X7750000Y-48437500D03*
X8250000Y-48437500D03*
D26*
X9187500Y-48000000D03*
X9187500Y-47500000D03*
X9187500Y-47000000D03*
X9187500Y-46500000D03*
X9187500Y-46000000D03*
D25*
X8250000Y-45562500D03*
%TD*%
D14*
%TO.C,C29*%
X3784702Y-47698248D03*
X4744702Y-47698248D03*
%TD*%
D10*
%TO.C,R20*%
X18709220Y-47932223D03*
X19729220Y-47932223D03*
%TD*%
D27*
%TO.C,U1*%
X13125000Y-32625000D03*
X13125000Y-32975000D03*
X13125000Y-33325000D03*
X13125000Y-33675000D03*
X13125000Y-34025000D03*
X13125000Y-34375000D03*
X13125000Y-34725000D03*
X13125000Y-35075000D03*
X13125000Y-35425000D03*
X13125000Y-35775000D03*
X13125000Y-36125000D03*
X13125000Y-36475000D03*
X13125000Y-36825000D03*
X13125000Y-37175000D03*
X13125000Y-37525000D03*
X13125000Y-37875000D03*
X13125000Y-38225000D03*
X13125000Y-38575000D03*
X13125000Y-38925000D03*
X13125000Y-39275000D03*
X13125000Y-39625000D03*
X13125000Y-39975000D03*
X13125000Y-40325000D03*
X13125000Y-40675000D03*
X13125000Y-41025000D03*
X13125000Y-41375000D03*
D28*
X13625000Y-41875000D03*
X13975000Y-41875000D03*
X14325000Y-41875000D03*
X14675000Y-41875000D03*
X15025000Y-41875000D03*
X15375000Y-41875000D03*
X15725000Y-41875000D03*
X16075000Y-41875000D03*
X16425000Y-41875000D03*
X16775000Y-41875000D03*
X17125000Y-41875000D03*
X17475000Y-41875000D03*
X17825000Y-41875000D03*
X18175000Y-41875000D03*
X18525000Y-41875000D03*
X18875000Y-41875000D03*
X19225000Y-41875000D03*
X19575000Y-41875000D03*
X19925000Y-41875000D03*
X20275000Y-41875000D03*
X20625000Y-41875000D03*
X20975000Y-41875000D03*
X21325000Y-41875000D03*
X21675000Y-41875000D03*
X22025000Y-41875000D03*
X22375000Y-41875000D03*
D27*
X22875000Y-41375000D03*
X22875000Y-41025000D03*
X22875000Y-40675000D03*
X22875000Y-40325000D03*
X22875000Y-39975000D03*
X22875000Y-39625000D03*
X22875000Y-39275000D03*
X22875000Y-38925000D03*
X22875000Y-38575000D03*
X22875000Y-38225000D03*
X22875000Y-37875000D03*
X22875000Y-37525000D03*
X22875000Y-37175000D03*
X22875000Y-36825000D03*
X22875000Y-36475000D03*
X22875000Y-36125000D03*
X22875000Y-35775000D03*
X22875000Y-35425000D03*
X22875000Y-35075000D03*
X22875000Y-34725000D03*
X22875000Y-34375000D03*
X22875000Y-34025000D03*
X22875000Y-33675000D03*
X22875000Y-33325000D03*
X22875000Y-32975000D03*
X22875000Y-32625000D03*
D28*
X22375000Y-32125000D03*
X22025000Y-32125000D03*
X21675000Y-32125000D03*
X21325000Y-32125000D03*
X20975000Y-32125000D03*
X20625000Y-32125000D03*
X20275000Y-32125000D03*
X19925000Y-32125000D03*
X19575000Y-32125000D03*
X19225000Y-32125000D03*
X18875000Y-32125000D03*
X18525000Y-32125000D03*
X18175000Y-32125000D03*
X17825000Y-32125000D03*
X17475000Y-32125000D03*
X17125000Y-32125000D03*
X16775000Y-32125000D03*
X16425000Y-32125000D03*
X16075000Y-32125000D03*
X15725000Y-32125000D03*
X15375000Y-32125000D03*
X15025000Y-32125000D03*
X14675000Y-32125000D03*
X14325000Y-32125000D03*
X13975000Y-32125000D03*
X13625000Y-32125000D03*
D29*
X15300000Y-34300000D03*
X15300000Y-37000000D03*
X15300000Y-39700000D03*
X18000000Y-34300000D03*
X18000000Y-37000000D03*
X18000000Y-39700000D03*
X20700000Y-34300000D03*
X20700000Y-37000000D03*
X20700000Y-39700000D03*
%TD*%
D30*
%TO.C,U4*%
X13400000Y-57050000D03*
X13400000Y-58950000D03*
X14600000Y-57050000D03*
X14600000Y-58950000D03*
D22*
X11525000Y-56095000D03*
X11525000Y-57365000D03*
X11525000Y-58635000D03*
X11525000Y-59905000D03*
X16475000Y-59905000D03*
X16475000Y-58635000D03*
X16475000Y-57365000D03*
X16475000Y-56095000D03*
%TD*%
D10*
%TO.C,R15*%
X25605377Y-30496105D03*
X26625377Y-30496105D03*
%TD*%
D12*
%TO.C,Q4*%
X5062500Y-15050000D03*
X5062500Y-16950000D03*
X6937500Y-16000000D03*
%TD*%
D31*
%TO.C,J2*%
X-545000Y-31250000D03*
X-545000Y-30450000D03*
D32*
X-545000Y-29250000D03*
X-545000Y-28250000D03*
X-545000Y-27750000D03*
X-545000Y-26750000D03*
D31*
X-545000Y-25550000D03*
X-545000Y-24750000D03*
X-545000Y-24750000D03*
X-545000Y-25550000D03*
D32*
X-545000Y-26250000D03*
X-545000Y-27250000D03*
X-545000Y-28750000D03*
X-545000Y-29750000D03*
D31*
X-545000Y-30450000D03*
X-545000Y-31250000D03*
%TD*%
D14*
%TO.C,C8*%
X33320000Y-33000000D03*
X34280000Y-33000000D03*
%TD*%
D10*
%TO.C,R19*%
X15402533Y-26505597D03*
X16422533Y-26505597D03*
%TD*%
D23*
%TO.C,SW1*%
X29100000Y-40000000D03*
X36900000Y-40000000D03*
%TD*%
D14*
%TO.C,C25*%
X18218285Y-28127435D03*
X19178285Y-28127435D03*
%TD*%
D10*
%TO.C,R11*%
X9412937Y-42001105D03*
X10432937Y-42001105D03*
%TD*%
D33*
%TO.C,U3*%
X12100000Y-14700000D03*
X12100000Y-15500000D03*
X12100000Y-16300000D03*
X12100000Y-17100000D03*
X12100000Y-17900000D03*
X12100000Y-18700000D03*
X12100000Y-19500000D03*
X12100000Y-20300000D03*
X12100000Y-21100000D03*
X12100000Y-21900000D03*
X12100000Y-22700000D03*
D34*
X13200000Y-23600000D03*
X14000000Y-23600000D03*
X14800000Y-23600000D03*
X15600000Y-23600000D03*
X16400000Y-23600000D03*
X17200000Y-23600000D03*
X18000000Y-23600000D03*
X18800000Y-23600000D03*
X19600000Y-23600000D03*
X20400000Y-23600000D03*
X21200000Y-23600000D03*
X22000000Y-23600000D03*
X22800000Y-23600000D03*
D33*
X23900000Y-22700000D03*
X23900000Y-21900000D03*
X23900000Y-21100000D03*
X23900000Y-20300000D03*
X23900000Y-19500000D03*
X23900000Y-18700000D03*
X23900000Y-17900000D03*
X23900000Y-17100000D03*
X23900000Y-16300000D03*
X23900000Y-15500000D03*
X23900000Y-14700000D03*
D34*
X22800000Y-13800000D03*
X22000000Y-13800000D03*
X21200000Y-13800000D03*
X20400000Y-13800000D03*
X19600000Y-13800000D03*
X18800000Y-13800000D03*
X18000000Y-13800000D03*
X17200000Y-13800000D03*
X16400000Y-13800000D03*
X15600000Y-13800000D03*
X14800000Y-13800000D03*
X14000000Y-13800000D03*
X13200000Y-13800000D03*
D35*
X16025000Y-16725000D03*
D36*
X16025000Y-18700000D03*
X16025000Y-20675000D03*
X18000000Y-16725000D03*
X18000000Y-18700000D03*
X18000000Y-20675000D03*
X19975000Y-16725000D03*
X19975000Y-18700000D03*
X19975000Y-20675000D03*
D18*
X23950000Y-13750000D03*
X23950000Y-23650000D03*
X12050000Y-23650000D03*
X12050000Y-13750000D03*
%TD*%
D11*
%TO.C,C3*%
X32176251Y-45265050D03*
X34076251Y-45265050D03*
%TD*%
D10*
%TO.C,R30*%
X20425661Y-46035036D03*
X21445661Y-46035036D03*
%TD*%
%TO.C,R4*%
X19854570Y-60140782D03*
X20874570Y-60140782D03*
%TD*%
%TO.C,R16*%
X23434601Y-45896724D03*
X24454601Y-45896724D03*
%TD*%
D37*
%TO.C,U7*%
X28025000Y-46200000D03*
X28675000Y-46200000D03*
X29325000Y-46200000D03*
X29975000Y-46200000D03*
X29975000Y-47800000D03*
X29325000Y-47800000D03*
X28675000Y-47800000D03*
X28025000Y-47800000D03*
%TD*%
D14*
%TO.C,C34*%
X5649313Y-19550121D03*
X6609313Y-19550121D03*
%TD*%
D17*
%TO.C,D6*%
X7000000Y-11000000D03*
X11000000Y-11000000D03*
%TD*%
D14*
%TO.C,C14*%
X24934463Y-39077435D03*
X25894463Y-39077435D03*
%TD*%
D11*
%TO.C,C2*%
X8698249Y-65067691D03*
X10598249Y-65067691D03*
%TD*%
D10*
%TO.C,R27*%
X33290000Y-55000000D03*
X34310000Y-55000000D03*
%TD*%
%TO.C,R25*%
X27761289Y-42390788D03*
X28781289Y-42390788D03*
%TD*%
D38*
%TO.C,L2*%
X12629002Y-51885529D03*
X14729002Y-51885529D03*
%TD*%
D14*
%TO.C,C28*%
X6642716Y-43611730D03*
X7602716Y-43611730D03*
%TD*%
D10*
%TO.C,R26*%
X30878427Y-18883100D03*
X31898427Y-18883100D03*
%TD*%
D14*
%TO.C,C12*%
X24920000Y-37000000D03*
X25880000Y-37000000D03*
%TD*%
%TO.C,C23*%
X10319748Y-31768711D03*
X11279748Y-31768711D03*
%TD*%
%TO.C,C19*%
X17695427Y-45598210D03*
X18655427Y-45598210D03*
%TD*%
D11*
%TO.C,C36*%
X17751301Y-50381635D03*
X19651301Y-50381635D03*
%TD*%
D10*
%TO.C,R14*%
X27890000Y-37000000D03*
X28910000Y-37000000D03*
%TD*%
D39*
%TO.C,J4*%
X14500000Y-2650000D03*
X15000000Y-2650000D03*
X15500000Y-2650000D03*
X16000000Y-2650000D03*
X16500000Y-2650000D03*
X17000000Y-2650000D03*
X17500000Y-2650000D03*
X18000000Y-2650000D03*
X18500000Y-2650000D03*
X19000000Y-2650000D03*
X19500000Y-2650000D03*
X20000000Y-2650000D03*
X20500000Y-2650000D03*
X21000000Y-2650000D03*
X21500000Y-2650000D03*
D40*
X12600000Y-5900000D03*
X23400000Y-5900000D03*
%TD*%
D14*
%TO.C,C21*%
X22882012Y-30276249D03*
X23842012Y-30276249D03*
%TD*%
D10*
%TO.C,R12*%
X24896345Y-43417635D03*
X25916345Y-43417635D03*
%TD*%
%TO.C,R7*%
X24895898Y-50961651D03*
X25915898Y-50961651D03*
%TD*%
D14*
%TO.C,C30*%
X28342569Y-44406061D03*
X29302569Y-44406061D03*
%TD*%
D10*
%TO.C,R2*%
X6540704Y-30050000D03*
X7560704Y-30050000D03*
%TD*%
M02*
