%TF.GenerationSoftware,KiCad,Pcbnew,7.0.11+dfsg-1build4*%
%TF.CreationDate,2026-06-13T22:44:19+00:00*%
%TF.ProjectId,stratosdrone,73747261-746f-4736-9472-6f6e652e6b69,rev?*%
%TF.SameCoordinates,Original*%
%TF.FileFunction,Paste,Top*%
%TF.FilePolarity,Positive*%
%FSLAX46Y46*%
G04 Gerber Fmt 4.6, Leading zero omitted, Abs format (unit mm)*
G04 Created by KiCad (PCBNEW 7.0.11+dfsg-1build4) date 2026-06-13 22:44:19*
%MOMM*%
%LPD*%
G01*
G04 APERTURE LIST*
G04 Aperture macros list*
%AMRoundRect*
0 Rectangle with rounded corners*
0 $1 Rounding radius*
0 $2 $3 $4 $5 $6 $7 $8 $9 X,Y pos of 4 corners*
0 Add a 4 corners polygon primitive as box body*
4,1,4,$2,$3,$4,$5,$6,$7,$8,$9,$2,$3,0*
0 Add four circle primitives for the rounded corners*
1,1,$1+$1,$2,$3*
1,1,$1+$1,$4,$5*
1,1,$1+$1,$6,$7*
1,1,$1+$1,$8,$9*
0 Add four rect primitives between the rounded corners*
20,1,$1+$1,$2,$3,$4,$5,0*
20,1,$1+$1,$4,$5,$6,$7,0*
20,1,$1+$1,$6,$7,$8,$9,0*
20,1,$1+$1,$8,$9,$2,$3,0*%
%AMFreePoly0*
4,1,6,0.725000,-0.725000,-0.725000,-0.725000,-0.725000,0.125000,-0.125000,0.725000,0.725000,0.725000,0.725000,-0.725000,0.725000,-0.725000,$1*%
G04 Aperture macros list end*
%ADD10R,0.350000X0.500000*%
%ADD11RoundRect,0.140000X-0.140000X-0.170000X0.140000X-0.170000X0.140000X0.170000X-0.140000X0.170000X0*%
%ADD12RoundRect,0.135000X-0.135000X-0.185000X0.135000X-0.185000X0.135000X0.185000X-0.135000X0.185000X0*%
%ADD13RoundRect,0.150000X-0.587500X-0.150000X0.587500X-0.150000X0.587500X0.150000X-0.587500X0.150000X0*%
%ADD14R,1.400000X1.200000*%
%ADD15R,0.700000X0.700000*%
%ADD16O,0.650000X0.200000*%
%ADD17O,0.200000X0.650000*%
%ADD18R,1.700000X1.700000*%
%ADD19RoundRect,0.250000X-1.000000X-0.650000X1.000000X-0.650000X1.000000X0.650000X-1.000000X0.650000X0*%
%ADD20RoundRect,0.250000X-0.250000X-0.475000X0.250000X-0.475000X0.250000X0.475000X-0.250000X0.475000X0*%
%ADD21RoundRect,0.225000X-0.225000X-0.250000X0.225000X-0.250000X0.225000X0.250000X-0.225000X0.250000X0*%
%ADD22R,1.500000X1.500000*%
%ADD23RoundRect,0.150000X-0.512500X-0.150000X0.512500X-0.150000X0.512500X0.150000X-0.512500X0.150000X0*%
%ADD24RoundRect,0.202500X-0.202500X-0.402500X0.202500X-0.402500X0.202500X0.402500X-0.202500X0.402500X0*%
%ADD25RoundRect,0.062500X-0.062500X-0.350000X0.062500X-0.350000X0.062500X0.350000X-0.062500X0.350000X0*%
%ADD26RoundRect,0.062500X-0.350000X-0.062500X0.350000X-0.062500X0.350000X0.062500X-0.350000X0.062500X0*%
%ADD27RoundRect,0.150000X-0.825000X-0.150000X0.825000X-0.150000X0.825000X0.150000X-0.825000X0.150000X0*%
%ADD28R,0.300000X1.300000*%
%ADD29R,1.800000X2.200000*%
%ADD30RoundRect,0.218750X-0.218750X-0.381250X0.218750X-0.381250X0.218750X0.381250X-0.218750X0.381250X0*%
%ADD31RoundRect,0.218750X-0.218750X-0.256250X0.218750X-0.256250X0.218750X0.256250X-0.218750X0.256250X0*%
%ADD32R,0.800000X0.400000*%
%ADD33R,0.400000X0.800000*%
%ADD34FreePoly0,0.000000*%
%ADD35R,1.450000X1.450000*%
%ADD36RoundRect,0.250000X-0.250000X-1.500000X0.250000X-1.500000X0.250000X1.500000X-0.250000X1.500000X0*%
%ADD37RoundRect,0.250001X-0.499999X-1.449999X0.499999X-1.449999X0.499999X1.449999X-0.499999X1.449999X0*%
%ADD38RoundRect,0.242500X-0.242500X-0.527500X0.242500X-0.527500X0.242500X0.527500X-0.242500X0.527500X0*%
%ADD39R,0.600000X1.450000*%
%ADD40R,0.300000X1.450000*%
G04 APERTURE END LIST*
D10*
%TO.C,U7*%
X30025000Y-24200000D03*
X30675000Y-24200000D03*
X31325000Y-24200000D03*
X31975000Y-24200000D03*
X31975000Y-25800000D03*
X31325000Y-25800000D03*
X30675000Y-25800000D03*
X30025000Y-25800000D03*
%TD*%
D11*
%TO.C,C6*%
X38720000Y-13000000D03*
X39680000Y-13000000D03*
%TD*%
D12*
%TO.C,R18*%
X27689999Y-15200000D03*
X28709999Y-15200000D03*
%TD*%
D11*
%TO.C,C34*%
X29919999Y-19599999D03*
X30879999Y-19599999D03*
%TD*%
D13*
%TO.C,Q2*%
X39062500Y-39050000D03*
X39062500Y-40950000D03*
X40937500Y-40000000D03*
%TD*%
D11*
%TO.C,C9*%
X3520000Y-15200000D03*
X4480000Y-15200000D03*
%TD*%
%TO.C,C23*%
X21119999Y-17400000D03*
X22079999Y-17400000D03*
%TD*%
%TO.C,C22*%
X18920000Y-17400000D03*
X19880000Y-17400000D03*
%TD*%
D14*
%TO.C,Y1*%
X35900000Y-27850000D03*
X38100000Y-27850000D03*
X38100000Y-26150000D03*
X35900000Y-26150000D03*
%TD*%
D12*
%TO.C,R2*%
X5690000Y-13000000D03*
X6710000Y-13000000D03*
%TD*%
D15*
%TO.C,LED2*%
X39085000Y-9450000D03*
X39085000Y-10550000D03*
X40915000Y-10550000D03*
X40915000Y-9450000D03*
%TD*%
D16*
%TO.C,U1*%
X19125000Y-23625000D03*
X19125000Y-23975000D03*
X19125000Y-24325000D03*
X19125000Y-24675000D03*
X19125000Y-25025000D03*
X19125000Y-25375000D03*
X19125000Y-25725000D03*
X19125000Y-26075000D03*
X19125000Y-26425000D03*
X19125000Y-26775000D03*
X19125000Y-27125000D03*
X19125000Y-27475000D03*
X19125000Y-27825000D03*
X19125000Y-28175000D03*
X19125000Y-28525000D03*
X19125000Y-28875000D03*
X19125000Y-29225000D03*
X19125000Y-29575000D03*
X19125000Y-29925000D03*
X19125000Y-30275000D03*
X19125000Y-30625000D03*
X19125000Y-30975000D03*
X19125000Y-31325000D03*
X19125000Y-31675000D03*
X19125000Y-32025000D03*
X19125000Y-32375000D03*
D17*
X19625000Y-32875000D03*
X19975000Y-32875000D03*
X20325000Y-32875000D03*
X20675000Y-32875000D03*
X21025000Y-32875000D03*
X21375000Y-32875000D03*
X21725000Y-32875000D03*
X22075000Y-32875000D03*
X22425000Y-32875000D03*
X22775000Y-32875000D03*
X23125000Y-32875000D03*
X23475000Y-32875000D03*
X23825000Y-32875000D03*
X24175000Y-32875000D03*
X24525000Y-32875000D03*
X24875000Y-32875000D03*
X25225000Y-32875000D03*
X25575000Y-32875000D03*
X25925000Y-32875000D03*
X26275000Y-32875000D03*
X26625000Y-32875000D03*
X26975000Y-32875000D03*
X27325000Y-32875000D03*
X27675000Y-32875000D03*
X28025000Y-32875000D03*
X28375000Y-32875000D03*
D16*
X28875000Y-32375000D03*
X28875000Y-32025000D03*
X28875000Y-31675000D03*
X28875000Y-31325000D03*
X28875000Y-30975000D03*
X28875000Y-30625000D03*
X28875000Y-30275000D03*
X28875000Y-29925000D03*
X28875000Y-29575000D03*
X28875000Y-29225000D03*
X28875000Y-28875000D03*
X28875000Y-28525000D03*
X28875000Y-28175000D03*
X28875000Y-27825000D03*
X28875000Y-27475000D03*
X28875000Y-27125000D03*
X28875000Y-26775000D03*
X28875000Y-26425000D03*
X28875000Y-26075000D03*
X28875000Y-25725000D03*
X28875000Y-25375000D03*
X28875000Y-25025000D03*
X28875000Y-24675000D03*
X28875000Y-24325000D03*
X28875000Y-23975000D03*
X28875000Y-23625000D03*
D17*
X28375000Y-23125000D03*
X28025000Y-23125000D03*
X27675000Y-23125000D03*
X27325000Y-23125000D03*
X26975000Y-23125000D03*
X26625000Y-23125000D03*
X26275000Y-23125000D03*
X25925000Y-23125000D03*
X25575000Y-23125000D03*
X25225000Y-23125000D03*
X24875000Y-23125000D03*
X24525000Y-23125000D03*
X24175000Y-23125000D03*
X23825000Y-23125000D03*
X23475000Y-23125000D03*
X23125000Y-23125000D03*
X22775000Y-23125000D03*
X22425000Y-23125000D03*
X22075000Y-23125000D03*
X21725000Y-23125000D03*
X21375000Y-23125000D03*
X21025000Y-23125000D03*
X20675000Y-23125000D03*
X20325000Y-23125000D03*
X19975000Y-23125000D03*
X19625000Y-23125000D03*
D18*
X21300000Y-25300000D03*
X21300000Y-28000000D03*
X21300000Y-30700000D03*
X24000000Y-25300000D03*
X24000000Y-28000000D03*
X24000000Y-30700000D03*
X26700000Y-25300000D03*
X26700000Y-28000000D03*
X26700000Y-30700000D03*
%TD*%
D11*
%TO.C,C29*%
X34320000Y-17400000D03*
X35280000Y-17400000D03*
%TD*%
D19*
%TO.C,D3*%
X6400000Y-19599999D03*
X10400000Y-19599999D03*
%TD*%
D12*
%TO.C,R29*%
X25489999Y-19599999D03*
X26509999Y-19599999D03*
%TD*%
D20*
%TO.C,C3*%
X18450000Y-13000000D03*
X20350000Y-13000000D03*
%TD*%
D11*
%TO.C,C30*%
X36520000Y-17400000D03*
X37480000Y-17400000D03*
%TD*%
%TO.C,C35*%
X32119999Y-19599999D03*
X33079999Y-19599999D03*
%TD*%
%TO.C,C21*%
X16720000Y-17400000D03*
X17680000Y-17400000D03*
%TD*%
D12*
%TO.C,R26*%
X5690000Y-19599999D03*
X6710000Y-19599999D03*
%TD*%
%TO.C,R4*%
X23289999Y-13000000D03*
X24309999Y-13000000D03*
%TD*%
%TO.C,R22*%
X3490000Y-19599999D03*
X4510000Y-19599999D03*
%TD*%
D11*
%TO.C,C28*%
X32119999Y-17400000D03*
X33079999Y-17400000D03*
%TD*%
%TO.C,C25*%
X25519999Y-17400000D03*
X26479999Y-17400000D03*
%TD*%
%TO.C,C20*%
X14520000Y-17400000D03*
X15480000Y-17400000D03*
%TD*%
D19*
%TO.C,D4*%
X13000000Y-19599999D03*
X17000000Y-19599999D03*
%TD*%
D12*
%TO.C,R13*%
X16690000Y-15200000D03*
X17710000Y-15200000D03*
%TD*%
D20*
%TO.C,C1*%
X11850000Y-13000000D03*
X13750000Y-13000000D03*
%TD*%
D12*
%TO.C,R17*%
X25489999Y-15200000D03*
X26509999Y-15200000D03*
%TD*%
%TO.C,R21*%
X34290000Y-15200000D03*
X35310000Y-15200000D03*
%TD*%
D21*
%TO.C,C5*%
X31824999Y-13000000D03*
X33374999Y-13000000D03*
%TD*%
D12*
%TO.C,R27*%
X12290000Y-19599999D03*
X13310000Y-19599999D03*
%TD*%
%TO.C,R20*%
X32089999Y-15200000D03*
X33109999Y-15200000D03*
%TD*%
D21*
%TO.C,C27*%
X29624999Y-17400000D03*
X31174999Y-17400000D03*
%TD*%
D20*
%TO.C,C4*%
X20649999Y-13000000D03*
X22549999Y-13000000D03*
%TD*%
D12*
%TO.C,R7*%
X34290000Y-13000000D03*
X35310000Y-13000000D03*
%TD*%
D11*
%TO.C,C16*%
X5720000Y-17400000D03*
X6680000Y-17400000D03*
%TD*%
%TO.C,C7*%
X40920000Y-13000000D03*
X41880000Y-13000000D03*
%TD*%
D22*
%TO.C,SW1*%
X40100000Y-28000000D03*
X47900000Y-28000000D03*
%TD*%
D12*
%TO.C,R19*%
X29889999Y-15200000D03*
X30909999Y-15200000D03*
%TD*%
%TO.C,R10*%
X10090000Y-15200000D03*
X11110000Y-15200000D03*
%TD*%
%TO.C,R15*%
X21089999Y-15200000D03*
X22109999Y-15200000D03*
%TD*%
D11*
%TO.C,C14*%
X43120000Y-15200000D03*
X44080000Y-15200000D03*
%TD*%
D12*
%TO.C,R9*%
X5690000Y-15200000D03*
X6710000Y-15200000D03*
%TD*%
D11*
%TO.C,C17*%
X7920000Y-17400000D03*
X8880000Y-17400000D03*
%TD*%
D23*
%TO.C,U5*%
X15862500Y-45050000D03*
X15862500Y-46000000D03*
X15862500Y-46950000D03*
X18137500Y-46950000D03*
X18137500Y-45050000D03*
%TD*%
D24*
%TO.C,U6*%
X17000000Y-25000000D03*
D25*
X16750000Y-23562500D03*
D26*
X15812500Y-24000000D03*
X15812500Y-24500000D03*
X15812500Y-25000000D03*
X15812500Y-25500000D03*
X15812500Y-26000000D03*
D25*
X16750000Y-26437500D03*
X17250000Y-26437500D03*
D26*
X18187500Y-26000000D03*
X18187500Y-25500000D03*
X18187500Y-25000000D03*
X18187500Y-24500000D03*
X18187500Y-24000000D03*
D25*
X17250000Y-23562500D03*
%TD*%
D27*
%TO.C,U2*%
X34525000Y-18095000D03*
X34525000Y-19365000D03*
X34525000Y-20635000D03*
X34525000Y-21905000D03*
X39475000Y-21905000D03*
X39475000Y-20635000D03*
X39475000Y-19365000D03*
X39475000Y-18095000D03*
%TD*%
D12*
%TO.C,R16*%
X23289999Y-15200000D03*
X24309999Y-15200000D03*
%TD*%
D11*
%TO.C,C24*%
X23319999Y-17400000D03*
X24279999Y-17400000D03*
%TD*%
D28*
%TO.C,J4*%
X20500000Y-2150000D03*
X21000000Y-2150000D03*
X21500000Y-2150000D03*
X22000000Y-2150000D03*
X22500000Y-2150000D03*
X23000000Y-2150000D03*
X23500000Y-2150000D03*
X24000000Y-2150000D03*
X24500000Y-2150000D03*
X25000000Y-2150000D03*
X25500000Y-2150000D03*
X26000000Y-2150000D03*
X26500000Y-2150000D03*
X27000000Y-2150000D03*
X27500000Y-2150000D03*
D29*
X18600000Y-5400000D03*
X29400000Y-5400000D03*
%TD*%
D30*
%TO.C,L1*%
X20937500Y-46000000D03*
X23062500Y-46000000D03*
%TD*%
D12*
%TO.C,R1*%
X3490000Y-13000000D03*
X4510000Y-13000000D03*
%TD*%
%TO.C,R5*%
X25489999Y-13000000D03*
X26509999Y-13000000D03*
%TD*%
D19*
%TO.C,D6*%
X26199999Y-19599999D03*
X30199999Y-19599999D03*
%TD*%
D31*
%TO.C,L2*%
X29612499Y-13000000D03*
X31187499Y-13000000D03*
%TD*%
D11*
%TO.C,C11*%
X36520000Y-15200000D03*
X37480000Y-15200000D03*
%TD*%
D12*
%TO.C,R6*%
X27689999Y-13000000D03*
X28709999Y-13000000D03*
%TD*%
D11*
%TO.C,C18*%
X10120000Y-17400000D03*
X11080000Y-17400000D03*
%TD*%
D32*
%TO.C,U3*%
X18100000Y-47700000D03*
X18100000Y-48500000D03*
X18100000Y-49300000D03*
X18100000Y-50100000D03*
X18100000Y-50900000D03*
X18100000Y-51700000D03*
X18100000Y-52500000D03*
X18100000Y-53300000D03*
X18100000Y-54100000D03*
X18100000Y-54900000D03*
X18100000Y-55700000D03*
D33*
X19200000Y-56600000D03*
X20000000Y-56600000D03*
X20800000Y-56600000D03*
X21600000Y-56600000D03*
X22400000Y-56600000D03*
X23200000Y-56600000D03*
X24000000Y-56600000D03*
X24800000Y-56600000D03*
X25600000Y-56600000D03*
X26400000Y-56600000D03*
X27200000Y-56600000D03*
X28000000Y-56600000D03*
X28800000Y-56600000D03*
D32*
X29900000Y-55700000D03*
X29900000Y-54900000D03*
X29900000Y-54100000D03*
X29900000Y-53300000D03*
X29900000Y-52500000D03*
X29900000Y-51700000D03*
X29900000Y-50900000D03*
X29900000Y-50100000D03*
X29900000Y-49300000D03*
X29900000Y-48500000D03*
X29900000Y-47700000D03*
D33*
X28800000Y-46800000D03*
X28000000Y-46800000D03*
X27200000Y-46800000D03*
X26400000Y-46800000D03*
X25600000Y-46800000D03*
X24800000Y-46800000D03*
X24000000Y-46800000D03*
X23200000Y-46800000D03*
X22400000Y-46800000D03*
X21600000Y-46800000D03*
X20800000Y-46800000D03*
X20000000Y-46800000D03*
X19200000Y-46800000D03*
D34*
X22025000Y-49725000D03*
D35*
X22025000Y-51700000D03*
X22025000Y-53675000D03*
X24000000Y-49725000D03*
X24000000Y-51700000D03*
X24000000Y-53675000D03*
X25975000Y-49725000D03*
X25975000Y-51700000D03*
X25975000Y-53675000D03*
D15*
X29950000Y-46750000D03*
X29950000Y-56650000D03*
X18050000Y-56650000D03*
X18050000Y-46750000D03*
%TD*%
D19*
%TO.C,D2*%
X15200000Y-13000000D03*
X19200000Y-13000000D03*
%TD*%
D12*
%TO.C,R24*%
X16690000Y-19599999D03*
X17710000Y-19599999D03*
%TD*%
D13*
%TO.C,Q1*%
X39062500Y-15050000D03*
X39062500Y-16950000D03*
X40937500Y-16000000D03*
%TD*%
D11*
%TO.C,C10*%
X7920000Y-15200000D03*
X8880000Y-15200000D03*
%TD*%
D21*
%TO.C,C26*%
X27424999Y-17400000D03*
X28974999Y-17400000D03*
%TD*%
D13*
%TO.C,Q4*%
X7062500Y-15050000D03*
X7062500Y-16950000D03*
X8937500Y-16000000D03*
%TD*%
D36*
%TO.C,J1*%
X12000000Y-48150000D03*
X14000000Y-48150000D03*
D37*
X9650000Y-53900000D03*
X16350000Y-53900000D03*
%TD*%
D12*
%TO.C,R8*%
X36490000Y-13000000D03*
X37510000Y-13000000D03*
%TD*%
D20*
%TO.C,C2*%
X14050000Y-13000000D03*
X15950000Y-13000000D03*
%TD*%
D38*
%TO.C,U4*%
X8400000Y-43050000D03*
X8400000Y-44950000D03*
X9600000Y-43050000D03*
X9600000Y-44950000D03*
D27*
X6525000Y-42095000D03*
X6525000Y-43365000D03*
X6525000Y-44635000D03*
X6525000Y-45905000D03*
X11475000Y-45905000D03*
X11475000Y-44635000D03*
X11475000Y-43365000D03*
X11475000Y-42095000D03*
%TD*%
D12*
%TO.C,R14*%
X18890000Y-15200000D03*
X19910000Y-15200000D03*
%TD*%
%TO.C,R25*%
X23289999Y-19599999D03*
X24309999Y-19599999D03*
%TD*%
D39*
%TO.C,J2*%
X34750000Y-46955000D03*
X35550000Y-46955000D03*
D40*
X36750000Y-46955000D03*
X37750000Y-46955000D03*
X38250000Y-46955000D03*
X39250000Y-46955000D03*
D39*
X40450000Y-46955000D03*
X41250000Y-46955000D03*
X41250000Y-46955000D03*
X40450000Y-46955000D03*
D40*
X39750000Y-46955000D03*
X38750000Y-46955000D03*
X37250000Y-46955000D03*
X36250000Y-46955000D03*
D39*
X35550000Y-46955000D03*
X34750000Y-46955000D03*
%TD*%
D23*
%TO.C,D1*%
X7262500Y-12050000D03*
X7262500Y-13000000D03*
X7262500Y-13950000D03*
X9537500Y-13950000D03*
X9537500Y-13000000D03*
X9537500Y-12050000D03*
%TD*%
D12*
%TO.C,R23*%
X10090000Y-19599999D03*
X11110000Y-19599999D03*
%TD*%
%TO.C,R28*%
X18890000Y-19599999D03*
X19910000Y-19599999D03*
%TD*%
%TO.C,R3*%
X10090000Y-13000000D03*
X11110000Y-13000000D03*
%TD*%
D13*
%TO.C,Q3*%
X7062500Y-39050000D03*
X7062500Y-40950000D03*
X8937500Y-40000000D03*
%TD*%
D19*
%TO.C,D5*%
X19599999Y-19599999D03*
X23599999Y-19599999D03*
%TD*%
D12*
%TO.C,R12*%
X14490000Y-15200000D03*
X15510000Y-15200000D03*
%TD*%
D11*
%TO.C,C19*%
X12320000Y-17400000D03*
X13280000Y-17400000D03*
%TD*%
%TO.C,C15*%
X3520000Y-17400000D03*
X4480000Y-17400000D03*
%TD*%
D12*
%TO.C,R11*%
X12290000Y-15200000D03*
X13310000Y-15200000D03*
%TD*%
D15*
%TO.C,LED1*%
X7085000Y-9450000D03*
X7085000Y-10550000D03*
X8915000Y-10550000D03*
X8915000Y-9450000D03*
%TD*%
D11*
%TO.C,C12*%
X38720000Y-15200000D03*
X39680000Y-15200000D03*
%TD*%
%TO.C,C13*%
X40920000Y-15200000D03*
X41880000Y-15200000D03*
%TD*%
D22*
%TO.C,SW2*%
X40100000Y-34000000D03*
X47900000Y-34000000D03*
%TD*%
D11*
%TO.C,C33*%
X43120000Y-17400000D03*
X44080000Y-17400000D03*
%TD*%
%TO.C,C8*%
X43120000Y-13000000D03*
X44080000Y-13000000D03*
%TD*%
M02*
