M48
; DRILL file {KiCad 7.0.11+dfsg-1build4} date Sat Jun 13 22:44:19 2026
; FORMAT={-:-/ absolute / metric / decimal}
; #@! TF.CreationDate,2026-06-13T22:44:19+00:00
; #@! TF.GenerationSoftware,Kicad,Pcbnew,7.0.11+dfsg-1build4
; #@! TF.FileFunction,Plated,1,4,PTH
FMAT,2
METRIC
; #@! TA.AperFunction,Plated,PTH,ComponentDrill
T1C0.600
; #@! TA.AperFunction,Plated,PTH,ComponentDrill
T2C0.650
; #@! TA.AperFunction,Plated,PTH,ComponentDrill
T3C1.000
%
G90
G05
T2
X10.0Y-51.0
X10.0Y-52.27
X10.0Y-53.54
X10.0Y-54.81
X18.0Y-51.0
X18.0Y-52.27
X18.0Y-53.54
X18.0Y-54.81
X44.0Y-40.0
X44.0Y-41.27
X44.0Y-42.54
X44.0Y-43.81
X44.0Y-45.08
X44.0Y-46.35
T3
X4.0Y-10.0
X4.0Y-12.54
X4.0Y-46.0
X4.0Y-48.54
X34.46Y-24.0
X34.46Y-26.54
X34.46Y-29.08
X34.46Y-31.62
X37.0Y-24.0
X37.0Y-26.54
X37.0Y-29.08
X37.0Y-31.62
X44.0Y-10.0
X44.0Y-12.54
X44.0Y-46.0
X44.0Y-48.54
T1
X33.68Y-47.32G85X33.68Y-48.42
G05
X33.68Y-51.75G85X33.68Y-52.35
G05
X42.32Y-47.32G85X42.32Y-48.42
G05
X42.32Y-51.75G85X42.32Y-52.35
G05
M30
