M48
; DRILL file {KiCad 7.0.11+dfsg-1build4} date Sat Jun 27 06:17:03 2026
; FORMAT={-:-/ absolute / metric / decimal}
; #@! TF.CreationDate,2026-06-27T06:17:03+00:00
; #@! TF.GenerationSoftware,Kicad,Pcbnew,7.0.11+dfsg-1build4
; #@! TF.FileFunction,Plated,1,4,PTH
FMAT,2
METRIC
; #@! TA.AperFunction,Plated,PTH,ViaDrill
T1C0.200
; #@! TA.AperFunction,Plated,PTH,ViaDrill
T2C0.250
; #@! TA.AperFunction,Plated,PTH,ComponentDrill
T3C0.600
; #@! TA.AperFunction,Plated,PTH,ComponentDrill
T4C0.650
; #@! TA.AperFunction,Plated,PTH,ComponentDrill
T5C1.000
%
G90
G05
T1
X7.92Y-51.0
X8.385Y-7.25
X9.674Y-55.936
X12.98Y-33.854
X13.079Y-63.446
X13.6Y-18.9
X15.027Y-35.682
X15.752Y-37.252
X15.975Y-62.805
X16.149Y-40.523
X16.626Y-42.002
X16.92Y-38.6
X17.292Y-35.888
X18.0Y-65.75
X18.2Y-32.3
X18.32Y-37.2
X18.32Y-40.0
X19.0Y-32.3
X19.032Y-42.638
X19.049Y-47.846
X19.217Y-57.982
X19.32Y-5.2
X19.348Y-41.312
X19.708Y-35.717
X19.8Y-32.3
X20.009Y-47.846
X20.2Y-44.3
X20.28Y-5.2
X20.541Y-37.249
X20.541Y-39.951
X20.6Y-32.3
X21.52Y-38.6
X21.765Y-41.797
X22.811Y-37.215
X22.811Y-39.985
X22.88Y-35.899
X23.137Y-61.85
X23.892Y-57.099
X24.42Y-64.575
X24.99Y-43.0
X25.206Y-35.214
X25.29Y-67.9
X27.785Y-22.95
X28.062Y-60.9
X31.451Y-27.096
X31.539Y-51.95
X31.751Y-42.848
X32.32Y-49.3
X32.675Y-50.1
X33.28Y-49.3
X35.426Y-42.539
T2
X0.528Y-25.034
X0.528Y-25.034
X0.528Y-34.146
X0.528Y-34.146
X2.8Y-27.81
X2.8Y-27.81
X5.375Y-25.947
X5.375Y-25.947
X5.375Y-30.237
X5.375Y-30.237
X5.919Y-22.645
X5.919Y-22.645
X7.249Y-45.905
X7.249Y-45.905
X9.282Y-47.668
X9.282Y-47.668
X9.603Y-46.769
X9.603Y-46.769
X10.345Y-31.271
X10.345Y-31.271
X10.631Y-49.4
X10.631Y-49.4
X11.025Y-63.624
X11.025Y-63.624
X11.069Y-6.851
X11.069Y-6.851
X12.384Y-23.778
X12.384Y-23.778
X12.431Y-19.25
X12.431Y-19.25
X12.978Y-30.402
X12.978Y-30.402
X15.975Y-58.16
X15.975Y-58.16
X16.565Y-28.632
X16.565Y-28.632
X19.0Y-53.059
X19.0Y-53.059
X21.5Y-1.794
X21.5Y-1.794
X21.572Y-56.788
X21.572Y-56.788
X23.044Y-32.879
X23.044Y-32.879
X23.137Y-64.117
X23.137Y-64.117
X23.5Y-27.11
X23.5Y-27.11
X24.3Y-28.791
X24.3Y-28.791
X24.338Y-62.015
X24.338Y-62.015
X24.493Y-24.561
X24.493Y-24.561
X27.143Y-31.634
X27.143Y-31.634
X27.785Y-25.448
X27.785Y-25.448
X28.15Y-40.546
X28.15Y-40.546
X28.737Y-41.149
X28.737Y-41.149
X29.582Y-21.638
X29.582Y-21.638
X32.025Y-47.72
X32.025Y-47.72
X33.355Y-45.59
X33.355Y-45.59
X36.856Y-45.904
X36.856Y-45.904
T4
X3.4Y-41.8
X3.4Y-43.07
X3.4Y-44.34
X3.4Y-45.61
X3.4Y-46.88
X3.4Y-48.15
X11.0Y-67.9
X11.0Y-69.17
X11.0Y-70.44
X11.0Y-71.71
X28.7Y-67.9
X28.7Y-69.17
X28.7Y-70.44
X28.7Y-71.71
T5
X4.2Y-12.2
X4.2Y-14.74
X4.2Y-61.8
X4.2Y-64.34
X27.06Y-43.5
X27.06Y-46.04
X27.06Y-48.58
X27.06Y-51.12
X29.6Y-43.5
X29.6Y-46.04
X29.6Y-48.58
X29.6Y-51.12
X33.8Y-12.2
X33.8Y-14.74
X33.8Y-61.8
X33.8Y-64.34
T3
X1.92Y-25.28G85X3.02Y-25.28
G05
X1.92Y-33.92G85X3.02Y-33.92
G05
X6.35Y-25.28G85X6.95Y-25.28
G05
X6.35Y-33.92G85X6.95Y-33.92
G05
M30
