M48
; DRILL file {KiCad 7.0.11+dfsg-1build4} date Sat Jun 20 21:57:06 2026
; FORMAT={-:-/ absolute / metric / decimal}
; #@! TF.CreationDate,2026-06-20T21:57:06+00:00
; #@! TF.GenerationSoftware,Kicad,Pcbnew,7.0.11+dfsg-1build4
; #@! TF.FileFunction,Plated,1,4,PTH
FMAT,2
METRIC
; #@! TA.AperFunction,Plated,PTH,ViaDrill
T1C0.200
; #@! TA.AperFunction,Plated,PTH,ViaDrill
T2C0.250
; #@! TA.AperFunction,Plated,PTH,ComponentDrill
T3C0.600
; #@! TA.AperFunction,Plated,PTH,ComponentDrill
T4C0.650
; #@! TA.AperFunction,Plated,PTH,ComponentDrill
T5C1.000
%
G90
G05
T1
X1.155Y-24.75
X1.155Y-31.25
X2.07Y-23.68
X2.07Y-32.32
X4.0Y-11.0
X4.0Y-40.0
X4.0Y-41.27
X4.0Y-42.54
X4.0Y-59.0
X5.062Y-18.95
X5.062Y-52.95
X5.678Y-67.823
X6.241Y-34.177
X6.25Y-23.68
X6.25Y-32.32
X6.525Y-39.905
X6.808Y-43.88
X7.039Y-20.546
X7.039Y-54.546
X7.537Y-14.129
X7.578Y-67.823
X7.768Y-43.88
X8.0Y-47.0
X8.085Y-8.45
X8.087Y-34.239
X9.051Y-59.229
X9.231Y-11.187
X9.522Y-56.849
X9.915Y-9.55
X9.961Y-51.409
X10.191Y-11.187
X10.643Y-41.648
X10.72Y-47.0
X11.0Y-62.0
X11.0Y-65.81
X11.525Y-54.595
X11.525Y-57.135
X11.603Y-41.648
X11.61Y-34.25
X11.68Y-47.0
X11.87Y-28.707
X11.888Y-30.501
X12.05Y-16.75
X12.05Y-26.65
X12.848Y-30.501
X13.0Y-13.0
X13.317Y-43.807
X13.479Y-29.07
X14.0Y-56.5
X14.277Y-43.807
X14.439Y-29.07
X15.3Y-34.3
X15.3Y-37.0
X15.3Y-39.7
X15.56Y-30.528
X15.771Y-45.114
X15.938Y-29.158
X16.025Y-19.725
X16.025Y-21.7
X16.025Y-23.675
X16.095Y-46.7
X16.4Y-36.0
X16.475Y-58.405
X16.579Y-43.529
X16.731Y-45.114
X16.863Y-51.3
X16.898Y-29.158
X17.0Y-62.15
X17.2Y-35.2
X18.0Y-19.725
X18.0Y-21.7
X18.0Y-23.675
X18.0Y-34.3
X18.0Y-35.2
X18.0Y-37.0
X18.0Y-39.7
X18.049Y-38.546
X18.049Y-46.546
X18.051Y-44.982
X18.128Y-30.51
X18.4Y-43.0
X18.4Y-45.0
X18.574Y-28.767
X18.682Y-54.44
X18.8Y-35.2
X18.802Y-48.189
X19.0Y-62.15
X19.009Y-38.546
X19.009Y-46.546
X19.011Y-44.982
X19.137Y-52.25
X19.2Y-43.0
X19.2Y-45.0
X19.387Y-46.459
X19.534Y-28.767
X19.6Y-35.2
X19.6Y-36.0
X19.6Y-36.8
X19.975Y-19.725
X19.975Y-21.7
X19.975Y-23.675
X20.352Y-48.189
X20.403Y-30.165
X20.443Y-45.088
X20.7Y-34.3
X20.7Y-37.0
X20.7Y-39.7
X20.863Y-57.0
X21.074Y-43.609
X21.403Y-45.088
X21.67Y-30.514
X22.155Y-53.127
X22.233Y-49.915
X22.455Y-43.673
X22.63Y-30.514
X22.788Y-45.244
X23.137Y-57.95
X23.226Y-46.927
X23.363Y-29.155
X23.415Y-43.673
X23.95Y-16.75
X23.95Y-26.65
X24.133Y-49.915
X24.39Y-34.25
X24.419Y-32.949
X24.419Y-41.051
X24.438Y-64.764
X24.744Y-63.423
X24.77Y-66.227
X24.776Y-46.927
X24.891Y-59.537
X25.09Y-62.0
X25.35Y-34.25
X25.35Y-39.75
X25.379Y-32.949
X25.379Y-41.051
X25.46Y-49.62
X25.608Y-31.147
X25.759Y-37.108
X25.82Y-5.0
X25.984Y-42.864
X25.99Y-50.385
X26.717Y-41.108
X26.78Y-5.0
X27.562Y-57.0
X27.607Y-44.238
X28.0Y-42.0
X28.0Y-44.54
X28.0Y-49.62
X28.016Y-29.292
X28.085Y-21.45
X28.5Y-62.0
X28.9Y-32.15
X29.062Y-18.95
X29.062Y-52.95
X29.125Y-25.574
X29.507Y-44.238
X29.915Y-22.55
X30.171Y-42.352
X30.339Y-48.95
X30.42Y-47.0
X31.009Y-30.454
X31.039Y-54.546
X31.1Y-33.85
X31.38Y-47.0
X31.42Y-22.0
X31.541Y-41.048
X32.0Y-11.0
X32.0Y-59.0
X32.194Y-67.773
X32.38Y-22.0
X33.98Y-33.0
X34.01Y-18.0
X34.094Y-67.773
X34.4Y-36.1
X34.4Y-47.1
T2
X2.399Y-26.633
X3.146Y-29.832
X3.708Y-25.661
X7.121Y-45.047
X8.846Y-15.735
X9.024Y-44.517
X9.642Y-43.88
X10.777Y-15.91
X12.198Y-33.474
X18.063Y-48.985
X20.863Y-59.986
X20.896Y-27.954
X21.0Y-1.47
X23.137Y-59.0
X24.513Y-57.707
X25.112Y-29.69
X25.606Y-26.718
X26.975Y-19.726
X27.734Y-38.725
X29.759Y-35.683
X30.619Y-47.814
X32.397Y-39.993
T4
X4.0Y-40.0
X4.0Y-41.27
X4.0Y-42.54
X4.0Y-43.81
X4.0Y-45.08
X4.0Y-46.35
X11.0Y-62.0
X11.0Y-63.27
X11.0Y-64.54
X11.0Y-65.81
X28.5Y-62.0
X28.5Y-63.27
X28.5Y-64.54
X28.5Y-65.81
T5
X4.0Y-11.0
X4.0Y-13.54
X4.0Y-59.0
X4.0Y-61.54
X25.46Y-42.0
X25.46Y-44.54
X25.46Y-47.08
X25.46Y-49.62
X28.0Y-42.0
X28.0Y-44.54
X28.0Y-47.08
X28.0Y-49.62
X32.0Y-11.0
X32.0Y-13.54
X32.0Y-59.0
X32.0Y-61.54
T3
X1.52Y-23.68G85X2.62Y-23.68
G05
X1.52Y-32.32G85X2.62Y-32.32
G05
X5.95Y-23.68G85X6.55Y-23.68
G05
X5.95Y-32.32G85X6.55Y-32.32
G05
M30
