%TF.GenerationSoftware,KiCad,Pcbnew,7.0.11+dfsg-1build4*%
%TF.CreationDate,2026-06-21T11:47:14+00:00*%
%TF.ProjectId,stratosdrone,73747261-746f-4736-9472-6f6e652e6b69,rev?*%
%TF.SameCoordinates,Original*%
%TF.FileFunction,Copper,L2,Inr*%
%TF.FilePolarity,Positive*%
%FSLAX46Y46*%
G04 Gerber Fmt 4.6, Leading zero omitted, Abs format (unit mm)*
G04 Created by KiCad (PCBNEW 7.0.11+dfsg-1build4) date 2026-06-21 11:47:14*
%MOMM*%
%LPD*%
G01*
G04 APERTURE LIST*
%TA.AperFunction,ComponentPad*%
%ADD10R,1.700000X1.700000*%
%TD*%
%TA.AperFunction,ComponentPad*%
%ADD11O,1.700000X1.700000*%
%TD*%
%TA.AperFunction,ComponentPad*%
%ADD12R,1.000000X1.000000*%
%TD*%
%TA.AperFunction,ComponentPad*%
%ADD13O,1.000000X1.000000*%
%TD*%
%TA.AperFunction,ComponentPad*%
%ADD14O,2.100000X1.000000*%
%TD*%
%TA.AperFunction,ComponentPad*%
%ADD15O,1.600000X1.000000*%
%TD*%
%TA.AperFunction,ViaPad*%
%ADD16C,0.400000*%
%TD*%
%TA.AperFunction,ViaPad*%
%ADD17C,0.450000*%
%TD*%
G04 APERTURE END LIST*
D10*
%TO.N,VBAT*%
%TO.C,J8*%
X4000000Y-11000000D03*
D11*
%TO.N,M4_D*%
X4000000Y-13540000D03*
%TD*%
D12*
%TO.N,GND*%
%TO.C,J10*%
X11000000Y-62000000D03*
D13*
%TO.N,U0TXD*%
X11000000Y-63270000D03*
%TO.N,U0RXD*%
X11000000Y-64540000D03*
%TO.N,3V3*%
X11000000Y-65810000D03*
%TD*%
D12*
%TO.N,3V3*%
%TO.C,J9*%
X4000000Y-40000000D03*
D13*
%TO.N,GND*%
X4000000Y-41270000D03*
%TO.N,VBAT*%
X4000000Y-42540000D03*
%TO.N,I2C_SDA*%
X4000000Y-43810000D03*
%TO.N,I2C_SCL*%
X4000000Y-45080000D03*
%TO.N,EXP_IO*%
X4000000Y-46350000D03*
%TD*%
D10*
%TO.N,VBAT*%
%TO.C,J7*%
X4000000Y-59000000D03*
D11*
%TO.N,M3_D*%
X4000000Y-61540000D03*
%TD*%
D10*
%TO.N,VBAT*%
%TO.C,J6*%
X32000000Y-59000000D03*
D11*
%TO.N,M2_D*%
X32000000Y-61540000D03*
%TD*%
D10*
%TO.N,VBAT*%
%TO.C,J5*%
X32000000Y-11000000D03*
D11*
%TO.N,M1_D*%
X32000000Y-13540000D03*
%TD*%
D12*
%TO.N,GND*%
%TO.C,J11*%
X28500000Y-62000000D03*
D13*
%TO.N,C6_U0TXD*%
X28500000Y-63270000D03*
%TO.N,C6_U0RXD*%
X28500000Y-64540000D03*
%TO.N,C6_BOOT*%
X28500000Y-65810000D03*
%TD*%
D14*
%TO.N,GND*%
%TO.C,J2*%
X2070000Y-32320000D03*
D15*
X6250000Y-32320000D03*
D14*
X2070000Y-23680000D03*
D15*
X6250000Y-23680000D03*
%TD*%
D10*
%TO.N,3V3*%
%TO.C,J3*%
X28000000Y-42000000D03*
D11*
%TO.N,CS_FLOW*%
X25460000Y-42000000D03*
%TO.N,GND*%
X28000000Y-44540000D03*
%TO.N,SPI_SCLK*%
X25460000Y-44540000D03*
%TO.N,SPI_MOSI*%
X28000000Y-47080000D03*
%TO.N,SPI_MISO*%
X25460000Y-47080000D03*
%TO.N,GND*%
X28000000Y-49620000D03*
%TO.N,3V3*%
X25460000Y-49620000D03*
%TD*%
D16*
%TO.N,GND*%
X19600000Y-36000000D03*
X18000000Y-35200000D03*
X18048985Y-38545618D03*
X16400000Y-36000000D03*
X18800000Y-35200000D03*
X17200000Y-35200000D03*
D17*
%TO.N,I2C_SDA*%
X21000000Y-1469700D03*
%TO.N,I2C_SCL*%
X30618800Y-47813600D03*
D16*
%TO.N,3V3*%
X18681766Y-54439956D03*
X20443047Y-45088002D03*
X27562500Y-57000000D03*
X32194357Y-67772803D03*
X15937584Y-29158063D03*
X19137500Y-52250000D03*
X11888197Y-30500553D03*
X6807933Y-43880230D03*
X30171163Y-42351649D03*
X25090000Y-62000000D03*
X23226118Y-46927062D03*
X13479484Y-29070041D03*
X22455455Y-43673176D03*
X12100000Y-19300000D03*
X10643369Y-41647790D03*
X8086968Y-34239020D03*
X18574247Y-28767226D03*
X22788280Y-45244284D03*
X16095314Y-46700250D03*
X25820000Y-5000000D03*
X24389922Y-34249697D03*
D17*
%TO.N,SPI_SCLK*%
X9641700Y-43880300D03*
%TO.N,SPI_MOSI*%
X9024100Y-44516800D03*
%TO.N,SPI_MISO*%
X7121400Y-45047100D03*
%TO.N,VDD_CORE*%
X25112200Y-29690400D03*
X20895900Y-27954200D03*
%TO.N,FLASH_IO3*%
X12198500Y-33473700D03*
X27734500Y-38724600D03*
%TO.N,C6_U0RXD*%
X25605800Y-26718400D03*
D16*
%TO.N,VBAT*%
X25758635Y-37107800D03*
X17000000Y-62150000D03*
X23137500Y-57950000D03*
X9961074Y-51409130D03*
X29125195Y-25573768D03*
X22233034Y-49915026D03*
X5677833Y-67822961D03*
X31420000Y-22000000D03*
D17*
X3708100Y-25660700D03*
X23137500Y-59000000D03*
D16*
X8085000Y-8450000D03*
X16475000Y-58405000D03*
X24437741Y-64764265D03*
X22154695Y-53127078D03*
X9230739Y-11187429D03*
X28085000Y-21450000D03*
D17*
%TO.N,VBUS*%
X8845600Y-15735300D03*
%TO.N,CC2*%
X3146400Y-29832500D03*
X2399300Y-26632800D03*
%TO.N,SW3V3*%
X20862500Y-59985700D03*
X24513200Y-57706700D03*
%TO.N,M1_GATE*%
X18062800Y-48984600D03*
X32396800Y-39993000D03*
%TO.N,M4_D*%
X29758600Y-35682700D03*
%TO.N,LED_D12*%
X26975400Y-19726500D03*
X10777100Y-15909800D03*
%TD*%
%TA.AperFunction,Conductor*%
%TO.N,GND*%
G36*
X32003032Y-500648D02*
G01*
X32336929Y-517052D01*
X32349037Y-518245D01*
X32452146Y-533539D01*
X32676699Y-566849D01*
X32688617Y-569219D01*
X33009951Y-649709D01*
X33021588Y-653240D01*
X33092806Y-678722D01*
X33333467Y-764832D01*
X33344688Y-769479D01*
X33644163Y-911120D01*
X33654871Y-916844D01*
X33938988Y-1087137D01*
X33949103Y-1093895D01*
X34169913Y-1257659D01*
X34215170Y-1291224D01*
X34224576Y-1298944D01*
X34470013Y-1521395D01*
X34478604Y-1529986D01*
X34653469Y-1722920D01*
X34701055Y-1775423D01*
X34708775Y-1784829D01*
X34906102Y-2050893D01*
X34912862Y-2061011D01*
X35041776Y-2276092D01*
X35083148Y-2345116D01*
X35088885Y-2355848D01*
X35230514Y-2655297D01*
X35235170Y-2666540D01*
X35346759Y-2978411D01*
X35350292Y-2990055D01*
X35430777Y-3311369D01*
X35433151Y-3323305D01*
X35481754Y-3650962D01*
X35482947Y-3663071D01*
X35499351Y-3996966D01*
X35499500Y-4003051D01*
X35499500Y-65996948D01*
X35499351Y-66003033D01*
X35482947Y-66336928D01*
X35481754Y-66349037D01*
X35433151Y-66676694D01*
X35430777Y-66688630D01*
X35350292Y-67009944D01*
X35346759Y-67021588D01*
X35235170Y-67333459D01*
X35230514Y-67344702D01*
X35088885Y-67644151D01*
X35083148Y-67654883D01*
X34912862Y-67938988D01*
X34906102Y-67949106D01*
X34708775Y-68215170D01*
X34701055Y-68224576D01*
X34478611Y-68470006D01*
X34470006Y-68478611D01*
X34224576Y-68701055D01*
X34215170Y-68708775D01*
X33949106Y-68906102D01*
X33938988Y-68912862D01*
X33654883Y-69083148D01*
X33644151Y-69088885D01*
X33344702Y-69230514D01*
X33333459Y-69235170D01*
X33021588Y-69346759D01*
X33009944Y-69350292D01*
X32688630Y-69430777D01*
X32676694Y-69433151D01*
X32349037Y-69481754D01*
X32336928Y-69482947D01*
X32021989Y-69498419D01*
X32003031Y-69499351D01*
X31996949Y-69499500D01*
X4003051Y-69499500D01*
X3996968Y-69499351D01*
X3976900Y-69498365D01*
X3663071Y-69482947D01*
X3650962Y-69481754D01*
X3323305Y-69433151D01*
X3311369Y-69430777D01*
X2990055Y-69350292D01*
X2978411Y-69346759D01*
X2666540Y-69235170D01*
X2655301Y-69230515D01*
X2355844Y-69088883D01*
X2345121Y-69083150D01*
X2061011Y-68912862D01*
X2050893Y-68906102D01*
X1784829Y-68708775D01*
X1775423Y-68701055D01*
X1736475Y-68665755D01*
X1529986Y-68478604D01*
X1521395Y-68470013D01*
X1298944Y-68224576D01*
X1291224Y-68215170D01*
X1263876Y-68178295D01*
X1093895Y-67949103D01*
X1087137Y-67938988D01*
X1062632Y-67898104D01*
X1017595Y-67822964D01*
X5272341Y-67822964D01*
X5292185Y-67948261D01*
X5292185Y-67948262D01*
X5310638Y-67984478D01*
X5349783Y-68061303D01*
X5349785Y-68061305D01*
X5349787Y-68061308D01*
X5439485Y-68151006D01*
X5439487Y-68151007D01*
X5439491Y-68151011D01*
X5552529Y-68208607D01*
X5552530Y-68208607D01*
X5552532Y-68208608D01*
X5677830Y-68228453D01*
X5677833Y-68228453D01*
X5677836Y-68228453D01*
X5803133Y-68208608D01*
X5803134Y-68208608D01*
X5803135Y-68208607D01*
X5803137Y-68208607D01*
X5916175Y-68151011D01*
X6005883Y-68061303D01*
X6063479Y-67948265D01*
X6063479Y-67948263D01*
X6063480Y-67948262D01*
X6063480Y-67948261D01*
X6083325Y-67822964D01*
X6083325Y-67822957D01*
X6075382Y-67772806D01*
X31788865Y-67772806D01*
X31808709Y-67898103D01*
X31808709Y-67898104D01*
X31808711Y-67898107D01*
X31866307Y-68011145D01*
X31866309Y-68011147D01*
X31866311Y-68011150D01*
X31956009Y-68100848D01*
X31956011Y-68100849D01*
X31956015Y-68100853D01*
X32069053Y-68158449D01*
X32069054Y-68158449D01*
X32069056Y-68158450D01*
X32194354Y-68178295D01*
X32194357Y-68178295D01*
X32194360Y-68178295D01*
X32319657Y-68158450D01*
X32319658Y-68158450D01*
X32319659Y-68158449D01*
X32319661Y-68158449D01*
X32432699Y-68100853D01*
X32522407Y-68011145D01*
X32580003Y-67898107D01*
X32580003Y-67898105D01*
X32580004Y-67898104D01*
X32580004Y-67898103D01*
X32599849Y-67772806D01*
X32599849Y-67772799D01*
X32580004Y-67647502D01*
X32580004Y-67647501D01*
X32578297Y-67644151D01*
X32522407Y-67534461D01*
X32522403Y-67534457D01*
X32522402Y-67534455D01*
X32432704Y-67444757D01*
X32432701Y-67444755D01*
X32432699Y-67444753D01*
X32319661Y-67387157D01*
X32319660Y-67387156D01*
X32319657Y-67387155D01*
X32194360Y-67367311D01*
X32194354Y-67367311D01*
X32069056Y-67387155D01*
X32069055Y-67387155D01*
X31993694Y-67425554D01*
X31956015Y-67444753D01*
X31956014Y-67444754D01*
X31956009Y-67444757D01*
X31866311Y-67534455D01*
X31866308Y-67534460D01*
X31808709Y-67647501D01*
X31808709Y-67647502D01*
X31788865Y-67772799D01*
X31788865Y-67772806D01*
X6075382Y-67772806D01*
X6063480Y-67697660D01*
X6063480Y-67697659D01*
X6041684Y-67654883D01*
X6005883Y-67584619D01*
X6005879Y-67584615D01*
X6005878Y-67584613D01*
X5916180Y-67494915D01*
X5916177Y-67494913D01*
X5916175Y-67494911D01*
X5803137Y-67437315D01*
X5803136Y-67437314D01*
X5803133Y-67437313D01*
X5677836Y-67417469D01*
X5677830Y-67417469D01*
X5552532Y-67437313D01*
X5552531Y-67437313D01*
X5477170Y-67475712D01*
X5439491Y-67494911D01*
X5439490Y-67494912D01*
X5439485Y-67494915D01*
X5349787Y-67584613D01*
X5349784Y-67584618D01*
X5292185Y-67697659D01*
X5292185Y-67697660D01*
X5272341Y-67822957D01*
X5272341Y-67822964D01*
X1017595Y-67822964D01*
X916844Y-67654871D01*
X911120Y-67644163D01*
X769479Y-67344688D01*
X764829Y-67333459D01*
X653240Y-67021588D01*
X649707Y-67009944D01*
X640958Y-66975015D01*
X569219Y-66688617D01*
X566848Y-66676694D01*
X518245Y-66349037D01*
X517052Y-66336927D01*
X516960Y-66335063D01*
X500649Y-66003032D01*
X500500Y-65996948D01*
X500500Y-65000000D01*
X3644341Y-65000000D01*
X3664936Y-65235403D01*
X3664938Y-65235413D01*
X3726094Y-65463655D01*
X3726096Y-65463659D01*
X3726097Y-65463663D01*
X3776031Y-65570746D01*
X3825964Y-65677828D01*
X3825965Y-65677830D01*
X3961505Y-65871402D01*
X4128597Y-66038494D01*
X4322169Y-66174034D01*
X4322171Y-66174035D01*
X4536337Y-66273903D01*
X4764592Y-66335063D01*
X4941032Y-66350499D01*
X4941033Y-66350500D01*
X4941034Y-66350500D01*
X5058967Y-66350500D01*
X5058967Y-66350499D01*
X5235408Y-66335063D01*
X5463663Y-66273903D01*
X5677829Y-66174035D01*
X5871401Y-66038495D01*
X6038495Y-65871401D01*
X6174035Y-65677830D01*
X6273903Y-65463663D01*
X6335063Y-65235408D01*
X6355659Y-65000000D01*
X6335063Y-64764592D01*
X6288626Y-64591285D01*
X6273905Y-64536344D01*
X6273904Y-64536343D01*
X6273903Y-64536337D01*
X6174035Y-64322171D01*
X6174034Y-64322169D01*
X6038494Y-64128597D01*
X5871402Y-63961505D01*
X5677830Y-63825965D01*
X5677828Y-63825964D01*
X5570746Y-63776031D01*
X5463663Y-63726097D01*
X5463659Y-63726096D01*
X5463655Y-63726094D01*
X5235413Y-63664938D01*
X5235403Y-63664936D01*
X5058967Y-63649500D01*
X5058966Y-63649500D01*
X4941034Y-63649500D01*
X4941033Y-63649500D01*
X4764596Y-63664936D01*
X4764586Y-63664938D01*
X4536344Y-63726094D01*
X4536335Y-63726098D01*
X4322171Y-63825964D01*
X4322169Y-63825965D01*
X4128597Y-63961505D01*
X3961506Y-64128597D01*
X3961501Y-64128604D01*
X3825967Y-64322165D01*
X3825965Y-64322169D01*
X3726098Y-64536335D01*
X3726094Y-64536344D01*
X3664938Y-64764586D01*
X3664936Y-64764596D01*
X3644341Y-64999999D01*
X3644341Y-65000000D01*
X500500Y-65000000D01*
X500500Y-61540000D01*
X2944417Y-61540000D01*
X2964699Y-61745932D01*
X2987759Y-61821950D01*
X3024768Y-61943954D01*
X3122315Y-62126450D01*
X3122317Y-62126452D01*
X3253589Y-62286410D01*
X3350209Y-62365702D01*
X3413550Y-62417685D01*
X3596046Y-62515232D01*
X3794066Y-62575300D01*
X3794065Y-62575300D01*
X3812529Y-62577118D01*
X4000000Y-62595583D01*
X4205934Y-62575300D01*
X4296445Y-62547844D01*
X10000000Y-62547844D01*
X10006401Y-62607372D01*
X10006403Y-62607379D01*
X10056645Y-62742086D01*
X10056649Y-62742093D01*
X10142809Y-62857187D01*
X10142812Y-62857190D01*
X10257905Y-62943349D01*
X10259829Y-62944400D01*
X10261379Y-62945950D01*
X10265011Y-62948669D01*
X10264620Y-62949190D01*
X10309236Y-62993804D01*
X10324089Y-63062077D01*
X10316350Y-63097197D01*
X10314862Y-63101121D01*
X10314859Y-63101130D01*
X10294355Y-63270000D01*
X10314859Y-63438869D01*
X10314860Y-63438874D01*
X10375182Y-63597931D01*
X10471818Y-63737930D01*
X10555634Y-63812185D01*
X10592761Y-63871374D01*
X10591993Y-63941240D01*
X10555634Y-63997815D01*
X10471818Y-64072069D01*
X10375182Y-64212068D01*
X10314860Y-64371125D01*
X10314859Y-64371130D01*
X10294355Y-64540000D01*
X10314859Y-64708869D01*
X10314860Y-64708874D01*
X10375182Y-64867931D01*
X10390116Y-64889566D01*
X10468143Y-65002607D01*
X10471818Y-65007930D01*
X10555634Y-65082185D01*
X10592761Y-65141374D01*
X10591993Y-65211240D01*
X10555634Y-65267815D01*
X10471818Y-65342069D01*
X10375182Y-65482068D01*
X10314860Y-65641125D01*
X10314859Y-65641130D01*
X10294355Y-65810000D01*
X10314859Y-65978869D01*
X10314860Y-65978874D01*
X10375182Y-66137931D01*
X10415607Y-66196496D01*
X10471817Y-66277929D01*
X10545280Y-66343011D01*
X10599150Y-66390736D01*
X10749773Y-66469789D01*
X10749775Y-66469790D01*
X10914944Y-66510500D01*
X11085056Y-66510500D01*
X11250225Y-66469790D01*
X11329692Y-66428081D01*
X11400849Y-66390736D01*
X11400850Y-66390734D01*
X11400852Y-66390734D01*
X11528183Y-66277929D01*
X11624818Y-66137930D01*
X11685140Y-65978872D01*
X11705645Y-65810000D01*
X11685140Y-65641128D01*
X11624818Y-65482070D01*
X11612112Y-65463663D01*
X11590476Y-65432318D01*
X11528183Y-65342071D01*
X11444363Y-65267813D01*
X11407238Y-65208626D01*
X11408006Y-65138761D01*
X11444363Y-65082186D01*
X11528183Y-65007929D01*
X11624818Y-64867930D01*
X11664131Y-64764268D01*
X24032249Y-64764268D01*
X24052093Y-64889565D01*
X24052093Y-64889566D01*
X24052095Y-64889569D01*
X24109691Y-65002607D01*
X24109693Y-65002609D01*
X24109695Y-65002612D01*
X24199393Y-65092310D01*
X24199395Y-65092311D01*
X24199399Y-65092315D01*
X24312437Y-65149911D01*
X24312438Y-65149911D01*
X24312440Y-65149912D01*
X24437738Y-65169757D01*
X24437741Y-65169757D01*
X24437744Y-65169757D01*
X24563041Y-65149912D01*
X24563042Y-65149912D01*
X24563043Y-65149911D01*
X24563045Y-65149911D01*
X24676083Y-65092315D01*
X24765791Y-65002607D01*
X24823387Y-64889569D01*
X24823387Y-64889567D01*
X24823388Y-64889566D01*
X24823388Y-64889565D01*
X24843233Y-64764268D01*
X24843233Y-64764261D01*
X24823388Y-64638964D01*
X24823388Y-64638963D01*
X24823387Y-64638961D01*
X24765791Y-64525923D01*
X24765787Y-64525919D01*
X24765786Y-64525917D01*
X24676088Y-64436219D01*
X24676085Y-64436217D01*
X24676083Y-64436215D01*
X24563045Y-64378619D01*
X24563044Y-64378618D01*
X24563041Y-64378617D01*
X24437744Y-64358773D01*
X24437738Y-64358773D01*
X24312440Y-64378617D01*
X24312439Y-64378617D01*
X24237078Y-64417016D01*
X24199399Y-64436215D01*
X24199398Y-64436216D01*
X24199393Y-64436219D01*
X24109695Y-64525917D01*
X24109692Y-64525922D01*
X24109691Y-64525923D01*
X24090492Y-64563602D01*
X24052093Y-64638963D01*
X24052093Y-64638964D01*
X24032249Y-64764261D01*
X24032249Y-64764268D01*
X11664131Y-64764268D01*
X11685140Y-64708872D01*
X11705645Y-64540000D01*
X11685140Y-64371128D01*
X11680454Y-64358773D01*
X11624817Y-64212068D01*
X11567205Y-64128604D01*
X11528183Y-64072071D01*
X11444363Y-63997813D01*
X11407238Y-63938626D01*
X11408006Y-63868761D01*
X11444363Y-63812186D01*
X11528183Y-63737929D01*
X11624818Y-63597930D01*
X11685140Y-63438872D01*
X11705645Y-63270000D01*
X11685140Y-63101128D01*
X11683653Y-63097209D01*
X11683417Y-63094139D01*
X11683345Y-63093846D01*
X11683393Y-63093833D01*
X11678284Y-63027547D01*
X11711429Y-62966039D01*
X11740175Y-62944398D01*
X11742093Y-62943350D01*
X11857187Y-62857190D01*
X11857190Y-62857187D01*
X11943350Y-62742093D01*
X11943354Y-62742086D01*
X11993596Y-62607379D01*
X11993598Y-62607372D01*
X11999999Y-62547844D01*
X12000000Y-62547827D01*
X12000000Y-62250000D01*
X11214483Y-62250000D01*
X11285801Y-62165007D01*
X11291262Y-62150003D01*
X16594508Y-62150003D01*
X16614352Y-62275300D01*
X16614352Y-62275301D01*
X16632090Y-62310112D01*
X16671950Y-62388342D01*
X16671952Y-62388344D01*
X16671954Y-62388347D01*
X16761652Y-62478045D01*
X16761654Y-62478046D01*
X16761658Y-62478050D01*
X16874696Y-62535646D01*
X16874697Y-62535646D01*
X16874699Y-62535647D01*
X16999997Y-62555492D01*
X17000000Y-62555492D01*
X17000003Y-62555492D01*
X17048291Y-62547844D01*
X27500000Y-62547844D01*
X27506401Y-62607372D01*
X27506403Y-62607379D01*
X27556645Y-62742086D01*
X27556649Y-62742093D01*
X27642809Y-62857187D01*
X27642812Y-62857190D01*
X27757905Y-62943349D01*
X27759829Y-62944400D01*
X27761379Y-62945950D01*
X27765011Y-62948669D01*
X27764620Y-62949190D01*
X27809236Y-62993804D01*
X27824089Y-63062077D01*
X27816350Y-63097197D01*
X27814862Y-63101121D01*
X27814859Y-63101130D01*
X27794355Y-63270000D01*
X27814859Y-63438869D01*
X27814860Y-63438874D01*
X27875182Y-63597931D01*
X27971818Y-63737930D01*
X28055634Y-63812185D01*
X28092761Y-63871374D01*
X28091993Y-63941240D01*
X28055634Y-63997815D01*
X27971818Y-64072069D01*
X27875182Y-64212068D01*
X27814860Y-64371125D01*
X27814859Y-64371130D01*
X27794355Y-64540000D01*
X27814859Y-64708869D01*
X27814860Y-64708874D01*
X27875182Y-64867931D01*
X27890116Y-64889566D01*
X27968143Y-65002607D01*
X27971818Y-65007930D01*
X28055634Y-65082185D01*
X28092761Y-65141374D01*
X28091993Y-65211240D01*
X28055634Y-65267815D01*
X27971818Y-65342069D01*
X27875182Y-65482068D01*
X27814860Y-65641125D01*
X27814859Y-65641130D01*
X27794355Y-65810000D01*
X27814859Y-65978869D01*
X27814860Y-65978874D01*
X27875182Y-66137931D01*
X27915607Y-66196496D01*
X27971817Y-66277929D01*
X28045280Y-66343011D01*
X28099150Y-66390736D01*
X28249773Y-66469789D01*
X28249775Y-66469790D01*
X28414944Y-66510500D01*
X28585056Y-66510500D01*
X28750225Y-66469790D01*
X28829692Y-66428081D01*
X28900849Y-66390736D01*
X28900850Y-66390734D01*
X28900852Y-66390734D01*
X29028183Y-66277929D01*
X29124818Y-66137930D01*
X29185140Y-65978872D01*
X29205645Y-65810000D01*
X29185140Y-65641128D01*
X29124818Y-65482070D01*
X29112112Y-65463663D01*
X29090476Y-65432318D01*
X29028183Y-65342071D01*
X28944363Y-65267813D01*
X28907238Y-65208626D01*
X28908006Y-65138761D01*
X28944363Y-65082186D01*
X29028183Y-65007929D01*
X29033656Y-65000000D01*
X29644341Y-65000000D01*
X29664936Y-65235403D01*
X29664938Y-65235413D01*
X29726094Y-65463655D01*
X29726096Y-65463659D01*
X29726097Y-65463663D01*
X29776031Y-65570746D01*
X29825964Y-65677828D01*
X29825965Y-65677830D01*
X29961505Y-65871402D01*
X30128597Y-66038494D01*
X30322169Y-66174034D01*
X30322171Y-66174035D01*
X30536337Y-66273903D01*
X30764592Y-66335063D01*
X30941032Y-66350499D01*
X30941033Y-66350500D01*
X30941034Y-66350500D01*
X31058967Y-66350500D01*
X31058967Y-66350499D01*
X31235408Y-66335063D01*
X31463663Y-66273903D01*
X31677829Y-66174035D01*
X31871401Y-66038495D01*
X32038495Y-65871401D01*
X32174035Y-65677830D01*
X32273903Y-65463663D01*
X32335063Y-65235408D01*
X32355659Y-65000000D01*
X32335063Y-64764592D01*
X32288626Y-64591285D01*
X32273905Y-64536344D01*
X32273904Y-64536343D01*
X32273903Y-64536337D01*
X32174035Y-64322171D01*
X32174034Y-64322169D01*
X32038494Y-64128597D01*
X31871402Y-63961505D01*
X31677830Y-63825965D01*
X31677828Y-63825964D01*
X31570746Y-63776031D01*
X31463663Y-63726097D01*
X31463659Y-63726096D01*
X31463655Y-63726094D01*
X31235413Y-63664938D01*
X31235403Y-63664936D01*
X31058967Y-63649500D01*
X31058966Y-63649500D01*
X30941034Y-63649500D01*
X30941033Y-63649500D01*
X30764596Y-63664936D01*
X30764586Y-63664938D01*
X30536344Y-63726094D01*
X30536335Y-63726098D01*
X30322171Y-63825964D01*
X30322169Y-63825965D01*
X30128597Y-63961505D01*
X29961506Y-64128597D01*
X29961501Y-64128604D01*
X29825967Y-64322165D01*
X29825965Y-64322169D01*
X29726098Y-64536335D01*
X29726094Y-64536344D01*
X29664938Y-64764586D01*
X29664936Y-64764596D01*
X29644341Y-64999999D01*
X29644341Y-65000000D01*
X29033656Y-65000000D01*
X29124818Y-64867930D01*
X29185140Y-64708872D01*
X29205645Y-64540000D01*
X29185140Y-64371128D01*
X29180454Y-64358773D01*
X29124817Y-64212068D01*
X29067205Y-64128604D01*
X29028183Y-64072071D01*
X28944363Y-63997813D01*
X28907238Y-63938626D01*
X28908006Y-63868761D01*
X28944363Y-63812186D01*
X29028183Y-63737929D01*
X29124818Y-63597930D01*
X29185140Y-63438872D01*
X29205645Y-63270000D01*
X29185140Y-63101128D01*
X29183653Y-63097209D01*
X29183417Y-63094139D01*
X29183345Y-63093846D01*
X29183393Y-63093833D01*
X29178284Y-63027547D01*
X29211429Y-62966039D01*
X29240175Y-62944398D01*
X29242093Y-62943350D01*
X29357187Y-62857190D01*
X29357190Y-62857187D01*
X29443350Y-62742093D01*
X29443354Y-62742086D01*
X29493596Y-62607379D01*
X29493598Y-62607372D01*
X29499999Y-62547844D01*
X29500000Y-62547827D01*
X29500000Y-62250000D01*
X28714483Y-62250000D01*
X28785801Y-62165007D01*
X28825000Y-62057306D01*
X28825000Y-61942694D01*
X28785801Y-61834993D01*
X28712129Y-61747195D01*
X28612871Y-61689888D01*
X28528436Y-61675000D01*
X28471564Y-61675000D01*
X28387129Y-61689888D01*
X28287871Y-61747195D01*
X28214199Y-61834993D01*
X28175000Y-61942694D01*
X28175000Y-62057306D01*
X28214199Y-62165007D01*
X28285517Y-62250000D01*
X27500000Y-62250000D01*
X27500000Y-62547844D01*
X17048291Y-62547844D01*
X17125300Y-62535647D01*
X17125301Y-62535647D01*
X17125302Y-62535646D01*
X17125304Y-62535646D01*
X17238342Y-62478050D01*
X17328050Y-62388342D01*
X17385646Y-62275304D01*
X17385646Y-62275302D01*
X17385647Y-62275301D01*
X17385647Y-62275300D01*
X17405492Y-62150003D01*
X17405492Y-62149996D01*
X17385647Y-62024699D01*
X17385647Y-62024698D01*
X17373064Y-62000003D01*
X24684508Y-62000003D01*
X24704352Y-62125300D01*
X24704352Y-62125301D01*
X24716935Y-62149996D01*
X24761950Y-62238342D01*
X24761952Y-62238344D01*
X24761954Y-62238347D01*
X24851652Y-62328045D01*
X24851654Y-62328046D01*
X24851658Y-62328050D01*
X24964696Y-62385646D01*
X24964697Y-62385646D01*
X24964699Y-62385647D01*
X25089997Y-62405492D01*
X25090000Y-62405492D01*
X25090003Y-62405492D01*
X25215300Y-62385647D01*
X25215301Y-62385647D01*
X25215302Y-62385646D01*
X25215304Y-62385646D01*
X25328342Y-62328050D01*
X25418050Y-62238342D01*
X25475646Y-62125304D01*
X25475646Y-62125302D01*
X25475647Y-62125301D01*
X25475647Y-62125300D01*
X25495492Y-62000003D01*
X25495492Y-61999996D01*
X25475647Y-61874699D01*
X25475647Y-61874698D01*
X25448772Y-61821954D01*
X25418050Y-61761658D01*
X25418046Y-61761654D01*
X25418045Y-61761652D01*
X25406393Y-61750000D01*
X27500000Y-61750000D01*
X28250000Y-61750000D01*
X28250000Y-61000000D01*
X28750000Y-61000000D01*
X28750000Y-61750000D01*
X29500000Y-61750000D01*
X29500000Y-61540000D01*
X30944417Y-61540000D01*
X30964699Y-61745932D01*
X30987759Y-61821950D01*
X31024768Y-61943954D01*
X31122315Y-62126450D01*
X31122317Y-62126452D01*
X31253589Y-62286410D01*
X31350209Y-62365702D01*
X31413550Y-62417685D01*
X31596046Y-62515232D01*
X31794066Y-62575300D01*
X31794065Y-62575300D01*
X31812529Y-62577118D01*
X32000000Y-62595583D01*
X32205934Y-62575300D01*
X32403954Y-62515232D01*
X32586450Y-62417685D01*
X32746410Y-62286410D01*
X32877685Y-62126450D01*
X32975232Y-61943954D01*
X33035300Y-61745934D01*
X33055583Y-61540000D01*
X33035300Y-61334066D01*
X32975232Y-61136046D01*
X32877685Y-60953550D01*
X32825702Y-60890209D01*
X32746410Y-60793589D01*
X32586452Y-60662317D01*
X32586453Y-60662317D01*
X32586450Y-60662315D01*
X32403954Y-60564768D01*
X32205934Y-60504700D01*
X32205932Y-60504699D01*
X32205934Y-60504699D01*
X32000000Y-60484417D01*
X31794067Y-60504699D01*
X31596043Y-60564769D01*
X31485898Y-60623643D01*
X31413550Y-60662315D01*
X31413548Y-60662316D01*
X31413547Y-60662317D01*
X31253589Y-60793589D01*
X31122317Y-60953547D01*
X31024769Y-61136043D01*
X31024768Y-61136045D01*
X31024768Y-61136046D01*
X31022716Y-61142812D01*
X30964699Y-61334067D01*
X30944417Y-61540000D01*
X29500000Y-61540000D01*
X29500000Y-61452172D01*
X29499999Y-61452155D01*
X29493598Y-61392627D01*
X29493596Y-61392620D01*
X29443354Y-61257913D01*
X29443350Y-61257906D01*
X29357190Y-61142812D01*
X29357187Y-61142809D01*
X29242093Y-61056649D01*
X29242086Y-61056645D01*
X29107379Y-61006403D01*
X29107372Y-61006401D01*
X29047844Y-61000000D01*
X28750000Y-61000000D01*
X28250000Y-61000000D01*
X27952155Y-61000000D01*
X27892627Y-61006401D01*
X27892620Y-61006403D01*
X27757913Y-61056645D01*
X27757906Y-61056649D01*
X27642812Y-61142809D01*
X27642809Y-61142812D01*
X27556649Y-61257906D01*
X27556645Y-61257913D01*
X27506403Y-61392620D01*
X27506401Y-61392627D01*
X27500000Y-61452155D01*
X27500000Y-61750000D01*
X25406393Y-61750000D01*
X25328347Y-61671954D01*
X25328344Y-61671952D01*
X25328342Y-61671950D01*
X25215304Y-61614354D01*
X25215303Y-61614353D01*
X25215300Y-61614352D01*
X25090003Y-61594508D01*
X25089997Y-61594508D01*
X24964699Y-61614352D01*
X24964698Y-61614352D01*
X24889337Y-61652751D01*
X24851658Y-61671950D01*
X24851657Y-61671951D01*
X24851652Y-61671954D01*
X24761954Y-61761652D01*
X24761951Y-61761657D01*
X24761950Y-61761658D01*
X24742751Y-61799337D01*
X24704352Y-61874698D01*
X24704352Y-61874699D01*
X24684508Y-61999996D01*
X24684508Y-62000003D01*
X17373064Y-62000003D01*
X17328050Y-61911658D01*
X17328046Y-61911654D01*
X17328045Y-61911652D01*
X17238347Y-61821954D01*
X17238344Y-61821952D01*
X17238342Y-61821950D01*
X17125304Y-61764354D01*
X17125303Y-61764353D01*
X17125300Y-61764352D01*
X17000003Y-61744508D01*
X16999997Y-61744508D01*
X16874699Y-61764352D01*
X16874698Y-61764352D01*
X16799337Y-61802751D01*
X16761658Y-61821950D01*
X16761657Y-61821951D01*
X16761652Y-61821954D01*
X16671954Y-61911652D01*
X16671951Y-61911657D01*
X16614352Y-62024698D01*
X16614352Y-62024699D01*
X16594508Y-62149996D01*
X16594508Y-62150003D01*
X11291262Y-62150003D01*
X11325000Y-62057306D01*
X11325000Y-61942694D01*
X11285801Y-61834993D01*
X11212129Y-61747195D01*
X11112871Y-61689888D01*
X11028436Y-61675000D01*
X10971564Y-61675000D01*
X10887129Y-61689888D01*
X10787871Y-61747195D01*
X10714199Y-61834993D01*
X10675000Y-61942694D01*
X10675000Y-62057306D01*
X10714199Y-62165007D01*
X10785517Y-62250000D01*
X10000000Y-62250000D01*
X10000000Y-62547844D01*
X4296445Y-62547844D01*
X4403954Y-62515232D01*
X4586450Y-62417685D01*
X4746410Y-62286410D01*
X4877685Y-62126450D01*
X4975232Y-61943954D01*
X5034067Y-61750000D01*
X10000000Y-61750000D01*
X10750000Y-61750000D01*
X10750000Y-61000000D01*
X11250000Y-61000000D01*
X11250000Y-61750000D01*
X12000000Y-61750000D01*
X12000000Y-61452172D01*
X11999999Y-61452155D01*
X11993598Y-61392627D01*
X11993596Y-61392620D01*
X11943354Y-61257913D01*
X11943350Y-61257906D01*
X11857190Y-61142812D01*
X11857187Y-61142809D01*
X11742093Y-61056649D01*
X11742086Y-61056645D01*
X11607379Y-61006403D01*
X11607372Y-61006401D01*
X11547844Y-61000000D01*
X11250000Y-61000000D01*
X10750000Y-61000000D01*
X10452155Y-61000000D01*
X10392627Y-61006401D01*
X10392620Y-61006403D01*
X10257913Y-61056645D01*
X10257906Y-61056649D01*
X10142812Y-61142809D01*
X10142809Y-61142812D01*
X10056649Y-61257906D01*
X10056645Y-61257913D01*
X10006403Y-61392620D01*
X10006401Y-61392627D01*
X10000000Y-61452155D01*
X10000000Y-61750000D01*
X5034067Y-61750000D01*
X5035300Y-61745934D01*
X5055583Y-61540000D01*
X5035300Y-61334066D01*
X4975232Y-61136046D01*
X4877685Y-60953550D01*
X4825702Y-60890209D01*
X4746410Y-60793589D01*
X4586452Y-60662317D01*
X4586453Y-60662317D01*
X4586450Y-60662315D01*
X4403954Y-60564768D01*
X4205934Y-60504700D01*
X4205932Y-60504699D01*
X4205934Y-60504699D01*
X4000000Y-60484417D01*
X3794067Y-60504699D01*
X3596043Y-60564769D01*
X3485898Y-60623643D01*
X3413550Y-60662315D01*
X3413548Y-60662316D01*
X3413547Y-60662317D01*
X3253589Y-60793589D01*
X3122317Y-60953547D01*
X3024769Y-61136043D01*
X3024768Y-61136045D01*
X3024768Y-61136046D01*
X3022716Y-61142812D01*
X2964699Y-61334067D01*
X2944417Y-61540000D01*
X500500Y-61540000D01*
X500500Y-59869752D01*
X2949500Y-59869752D01*
X2961131Y-59928229D01*
X2961132Y-59928230D01*
X3005447Y-59994552D01*
X3071769Y-60038867D01*
X3071770Y-60038868D01*
X3130247Y-60050499D01*
X3130250Y-60050500D01*
X3130252Y-60050500D01*
X4869750Y-60050500D01*
X4869751Y-60050499D01*
X4884568Y-60047552D01*
X4928229Y-60038868D01*
X4928229Y-60038867D01*
X4928231Y-60038867D01*
X4994552Y-59994552D01*
X5000465Y-59985702D01*
X20431696Y-59985702D01*
X20452779Y-60118821D01*
X20452780Y-60118824D01*
X20452781Y-60118826D01*
X20513972Y-60238920D01*
X20513973Y-60238921D01*
X20513976Y-60238925D01*
X20609274Y-60334223D01*
X20609278Y-60334226D01*
X20609280Y-60334228D01*
X20729374Y-60395419D01*
X20729376Y-60395419D01*
X20729378Y-60395420D01*
X20862498Y-60416504D01*
X20862500Y-60416504D01*
X20862502Y-60416504D01*
X20995621Y-60395420D01*
X20995621Y-60395419D01*
X20995626Y-60395419D01*
X21115720Y-60334228D01*
X21211028Y-60238920D01*
X21272219Y-60118826D01*
X21293304Y-59985700D01*
X21274939Y-59869752D01*
X30949500Y-59869752D01*
X30961131Y-59928229D01*
X30961132Y-59928230D01*
X31005447Y-59994552D01*
X31071769Y-60038867D01*
X31071770Y-60038868D01*
X31130247Y-60050499D01*
X31130250Y-60050500D01*
X31130252Y-60050500D01*
X32869750Y-60050500D01*
X32869751Y-60050499D01*
X32884568Y-60047552D01*
X32928229Y-60038868D01*
X32928229Y-60038867D01*
X32928231Y-60038867D01*
X32994552Y-59994552D01*
X33038867Y-59928231D01*
X33038867Y-59928229D01*
X33038868Y-59928229D01*
X33050499Y-59869752D01*
X33050500Y-59869750D01*
X33050500Y-58130249D01*
X33050499Y-58130247D01*
X33038868Y-58071770D01*
X33038867Y-58071769D01*
X32994552Y-58005447D01*
X32928230Y-57961132D01*
X32928229Y-57961131D01*
X32869752Y-57949500D01*
X32869748Y-57949500D01*
X31130252Y-57949500D01*
X31130247Y-57949500D01*
X31071770Y-57961131D01*
X31071769Y-57961132D01*
X31005447Y-58005447D01*
X30961132Y-58071769D01*
X30961131Y-58071770D01*
X30949500Y-58130247D01*
X30949500Y-59869752D01*
X21274939Y-59869752D01*
X21274939Y-59869750D01*
X21272220Y-59852578D01*
X21272219Y-59852576D01*
X21272219Y-59852574D01*
X21211028Y-59732480D01*
X21211026Y-59732478D01*
X21211023Y-59732474D01*
X21115725Y-59637176D01*
X21115721Y-59637173D01*
X21115720Y-59637172D01*
X20995626Y-59575981D01*
X20995624Y-59575980D01*
X20995621Y-59575979D01*
X20862502Y-59554896D01*
X20862498Y-59554896D01*
X20729378Y-59575979D01*
X20609278Y-59637173D01*
X20609274Y-59637176D01*
X20513976Y-59732474D01*
X20513973Y-59732478D01*
X20452779Y-59852578D01*
X20431696Y-59985697D01*
X20431696Y-59985702D01*
X5000465Y-59985702D01*
X5038867Y-59928231D01*
X5038867Y-59928229D01*
X5038868Y-59928229D01*
X5050499Y-59869752D01*
X5050500Y-59869750D01*
X5050500Y-59000002D01*
X22706696Y-59000002D01*
X22727779Y-59133121D01*
X22727780Y-59133124D01*
X22727781Y-59133126D01*
X22788972Y-59253220D01*
X22788973Y-59253221D01*
X22788976Y-59253225D01*
X22884274Y-59348523D01*
X22884278Y-59348526D01*
X22884280Y-59348528D01*
X23004374Y-59409719D01*
X23004376Y-59409719D01*
X23004378Y-59409720D01*
X23137498Y-59430804D01*
X23137500Y-59430804D01*
X23137502Y-59430804D01*
X23270621Y-59409720D01*
X23270621Y-59409719D01*
X23270626Y-59409719D01*
X23390720Y-59348528D01*
X23486028Y-59253220D01*
X23547219Y-59133126D01*
X23568304Y-59000000D01*
X23547219Y-58866874D01*
X23486028Y-58746780D01*
X23486026Y-58746778D01*
X23486023Y-58746774D01*
X23390725Y-58651476D01*
X23390721Y-58651473D01*
X23390720Y-58651472D01*
X23270626Y-58590281D01*
X23270624Y-58590280D01*
X23270621Y-58590279D01*
X23236132Y-58584817D01*
X23172997Y-58554888D01*
X23137941Y-58498590D01*
X23137936Y-58498974D01*
X23099327Y-58557207D01*
X23038868Y-58584817D01*
X23004378Y-58590279D01*
X22884278Y-58651473D01*
X22884274Y-58651476D01*
X22788976Y-58746774D01*
X22788973Y-58746778D01*
X22727779Y-58866878D01*
X22706696Y-58999997D01*
X22706696Y-59000002D01*
X5050500Y-59000002D01*
X5050500Y-58405003D01*
X16069508Y-58405003D01*
X16089352Y-58530300D01*
X16089352Y-58530301D01*
X16089354Y-58530304D01*
X16146950Y-58643342D01*
X16146952Y-58643344D01*
X16146954Y-58643347D01*
X16236652Y-58733045D01*
X16236654Y-58733046D01*
X16236658Y-58733050D01*
X16349696Y-58790646D01*
X16349697Y-58790646D01*
X16349699Y-58790647D01*
X16474997Y-58810492D01*
X16475000Y-58810492D01*
X16475003Y-58810492D01*
X16600300Y-58790647D01*
X16600301Y-58790647D01*
X16600302Y-58790646D01*
X16600304Y-58790646D01*
X16713342Y-58733050D01*
X16803050Y-58643342D01*
X16860646Y-58530304D01*
X16860646Y-58530302D01*
X16860647Y-58530301D01*
X16860647Y-58530300D01*
X16880492Y-58405003D01*
X16880492Y-58404996D01*
X16860647Y-58279699D01*
X16860647Y-58279698D01*
X16859805Y-58278045D01*
X16803050Y-58166658D01*
X16803046Y-58166654D01*
X16803045Y-58166652D01*
X16713347Y-58076954D01*
X16713344Y-58076952D01*
X16713342Y-58076950D01*
X16600304Y-58019354D01*
X16600303Y-58019353D01*
X16600300Y-58019352D01*
X16475003Y-57999508D01*
X16474997Y-57999508D01*
X16349699Y-58019352D01*
X16349698Y-58019352D01*
X16279290Y-58055228D01*
X16236658Y-58076950D01*
X16236657Y-58076951D01*
X16236652Y-58076954D01*
X16146954Y-58166652D01*
X16146951Y-58166657D01*
X16146950Y-58166658D01*
X16135899Y-58188347D01*
X16089352Y-58279698D01*
X16089352Y-58279699D01*
X16069508Y-58404996D01*
X16069508Y-58405003D01*
X5050500Y-58405003D01*
X5050500Y-58130249D01*
X5050499Y-58130247D01*
X5038868Y-58071770D01*
X5038867Y-58071769D01*
X4994552Y-58005447D01*
X4928230Y-57961132D01*
X4928229Y-57961131D01*
X4872281Y-57950003D01*
X22732008Y-57950003D01*
X22751852Y-58075300D01*
X22751852Y-58075301D01*
X22770305Y-58111517D01*
X22809450Y-58188342D01*
X22809452Y-58188344D01*
X22809454Y-58188347D01*
X22899152Y-58278045D01*
X22899154Y-58278046D01*
X22899158Y-58278050D01*
X23012196Y-58335646D01*
X23012198Y-58335647D01*
X23038868Y-58339871D01*
X23102002Y-58369800D01*
X23137057Y-58426097D01*
X23137063Y-58425714D01*
X23175672Y-58367481D01*
X23236132Y-58339871D01*
X23262800Y-58335647D01*
X23262801Y-58335647D01*
X23262802Y-58335646D01*
X23262804Y-58335646D01*
X23375842Y-58278050D01*
X23465550Y-58188342D01*
X23523146Y-58075304D01*
X23523146Y-58075302D01*
X23523147Y-58075301D01*
X23523147Y-58075300D01*
X23542992Y-57950003D01*
X23542992Y-57949996D01*
X23523147Y-57824699D01*
X23523147Y-57824698D01*
X23523146Y-57824696D01*
X23465550Y-57711658D01*
X23465546Y-57711654D01*
X23465545Y-57711652D01*
X23460595Y-57706702D01*
X24082396Y-57706702D01*
X24103479Y-57839821D01*
X24103480Y-57839824D01*
X24103481Y-57839826D01*
X24164672Y-57959920D01*
X24164673Y-57959921D01*
X24164676Y-57959925D01*
X24259974Y-58055223D01*
X24259978Y-58055226D01*
X24259980Y-58055228D01*
X24380074Y-58116419D01*
X24380076Y-58116419D01*
X24380078Y-58116420D01*
X24513198Y-58137504D01*
X24513200Y-58137504D01*
X24513202Y-58137504D01*
X24646321Y-58116420D01*
X24646321Y-58116419D01*
X24646326Y-58116419D01*
X24766420Y-58055228D01*
X24861728Y-57959920D01*
X24922919Y-57839826D01*
X24925315Y-57824698D01*
X24944004Y-57706702D01*
X24944004Y-57706697D01*
X24922920Y-57573578D01*
X24922919Y-57573576D01*
X24922919Y-57573574D01*
X24861728Y-57453480D01*
X24861726Y-57453478D01*
X24861723Y-57453474D01*
X24766425Y-57358176D01*
X24766421Y-57358173D01*
X24766420Y-57358172D01*
X24646326Y-57296981D01*
X24646324Y-57296980D01*
X24646321Y-57296979D01*
X24513202Y-57275896D01*
X24513198Y-57275896D01*
X24380078Y-57296979D01*
X24259978Y-57358173D01*
X24259974Y-57358176D01*
X24164676Y-57453474D01*
X24164673Y-57453478D01*
X24103479Y-57573578D01*
X24082396Y-57706697D01*
X24082396Y-57706702D01*
X23460595Y-57706702D01*
X23375847Y-57621954D01*
X23375844Y-57621952D01*
X23375842Y-57621950D01*
X23262804Y-57564354D01*
X23262803Y-57564353D01*
X23262800Y-57564352D01*
X23137503Y-57544508D01*
X23137497Y-57544508D01*
X23012199Y-57564352D01*
X23012198Y-57564352D01*
X22936837Y-57602751D01*
X22899158Y-57621950D01*
X22899157Y-57621951D01*
X22899152Y-57621954D01*
X22809454Y-57711652D01*
X22809451Y-57711657D01*
X22751852Y-57824698D01*
X22751852Y-57824699D01*
X22732008Y-57949996D01*
X22732008Y-57950003D01*
X4872281Y-57950003D01*
X4869752Y-57949500D01*
X4869748Y-57949500D01*
X3130252Y-57949500D01*
X3130247Y-57949500D01*
X3071770Y-57961131D01*
X3071769Y-57961132D01*
X3005447Y-58005447D01*
X2961132Y-58071769D01*
X2961131Y-58071770D01*
X2949500Y-58130247D01*
X2949500Y-59869752D01*
X500500Y-59869752D01*
X500500Y-57000003D01*
X27157008Y-57000003D01*
X27176852Y-57125300D01*
X27176852Y-57125301D01*
X27176854Y-57125304D01*
X27234450Y-57238342D01*
X27234452Y-57238344D01*
X27234454Y-57238347D01*
X27324152Y-57328045D01*
X27324154Y-57328046D01*
X27324158Y-57328050D01*
X27437196Y-57385646D01*
X27437197Y-57385646D01*
X27437199Y-57385647D01*
X27562497Y-57405492D01*
X27562500Y-57405492D01*
X27562503Y-57405492D01*
X27687800Y-57385647D01*
X27687801Y-57385647D01*
X27687802Y-57385646D01*
X27687804Y-57385646D01*
X27800842Y-57328050D01*
X27890550Y-57238342D01*
X27948146Y-57125304D01*
X27948146Y-57125302D01*
X27948147Y-57125301D01*
X27948147Y-57125300D01*
X27967992Y-57000003D01*
X27967992Y-56999996D01*
X27948147Y-56874699D01*
X27948147Y-56874698D01*
X27948146Y-56874696D01*
X27890550Y-56761658D01*
X27890546Y-56761654D01*
X27890545Y-56761652D01*
X27800847Y-56671954D01*
X27800844Y-56671952D01*
X27800842Y-56671950D01*
X27687804Y-56614354D01*
X27687803Y-56614353D01*
X27687800Y-56614352D01*
X27562503Y-56594508D01*
X27562497Y-56594508D01*
X27437199Y-56614352D01*
X27437198Y-56614352D01*
X27361837Y-56652751D01*
X27324158Y-56671950D01*
X27324157Y-56671951D01*
X27324152Y-56671954D01*
X27234454Y-56761652D01*
X27234451Y-56761657D01*
X27176852Y-56874698D01*
X27176852Y-56874699D01*
X27157008Y-56999996D01*
X27157008Y-57000003D01*
X500500Y-57000003D01*
X500500Y-54439959D01*
X18276274Y-54439959D01*
X18296118Y-54565256D01*
X18296118Y-54565257D01*
X18296120Y-54565260D01*
X18353716Y-54678298D01*
X18353718Y-54678300D01*
X18353720Y-54678303D01*
X18443418Y-54768001D01*
X18443420Y-54768002D01*
X18443424Y-54768006D01*
X18556462Y-54825602D01*
X18556463Y-54825602D01*
X18556465Y-54825603D01*
X18681763Y-54845448D01*
X18681766Y-54845448D01*
X18681769Y-54845448D01*
X18807066Y-54825603D01*
X18807067Y-54825603D01*
X18807068Y-54825602D01*
X18807070Y-54825602D01*
X18920108Y-54768006D01*
X19009816Y-54678298D01*
X19067412Y-54565260D01*
X19067412Y-54565258D01*
X19067413Y-54565257D01*
X19067413Y-54565256D01*
X19087258Y-54439959D01*
X19087258Y-54439952D01*
X19067413Y-54314655D01*
X19067413Y-54314654D01*
X19067412Y-54314652D01*
X19009816Y-54201614D01*
X19009812Y-54201610D01*
X19009811Y-54201608D01*
X18920113Y-54111910D01*
X18920110Y-54111908D01*
X18920108Y-54111906D01*
X18807070Y-54054310D01*
X18807069Y-54054309D01*
X18807066Y-54054308D01*
X18681769Y-54034464D01*
X18681763Y-54034464D01*
X18556465Y-54054308D01*
X18556464Y-54054308D01*
X18481103Y-54092707D01*
X18443424Y-54111906D01*
X18443423Y-54111907D01*
X18443418Y-54111910D01*
X18353720Y-54201608D01*
X18353717Y-54201613D01*
X18296118Y-54314654D01*
X18296118Y-54314655D01*
X18276274Y-54439952D01*
X18276274Y-54439959D01*
X500500Y-54439959D01*
X500500Y-53127081D01*
X21749203Y-53127081D01*
X21769047Y-53252378D01*
X21769047Y-53252379D01*
X21769049Y-53252382D01*
X21826645Y-53365420D01*
X21826647Y-53365422D01*
X21826649Y-53365425D01*
X21916347Y-53455123D01*
X21916349Y-53455124D01*
X21916353Y-53455128D01*
X22029391Y-53512724D01*
X22029392Y-53512724D01*
X22029394Y-53512725D01*
X22154692Y-53532570D01*
X22154695Y-53532570D01*
X22154698Y-53532570D01*
X22279995Y-53512725D01*
X22279996Y-53512725D01*
X22279997Y-53512724D01*
X22279999Y-53512724D01*
X22393037Y-53455128D01*
X22482745Y-53365420D01*
X22540341Y-53252382D01*
X22540341Y-53252380D01*
X22540342Y-53252379D01*
X22540342Y-53252378D01*
X22560187Y-53127081D01*
X22560187Y-53127074D01*
X22540342Y-53001777D01*
X22540342Y-53001776D01*
X22540341Y-53001774D01*
X22482745Y-52888736D01*
X22482741Y-52888732D01*
X22482740Y-52888730D01*
X22393042Y-52799032D01*
X22393039Y-52799030D01*
X22393037Y-52799028D01*
X22279999Y-52741432D01*
X22279998Y-52741431D01*
X22279995Y-52741430D01*
X22154698Y-52721586D01*
X22154692Y-52721586D01*
X22029394Y-52741430D01*
X22029393Y-52741430D01*
X21954032Y-52779829D01*
X21916353Y-52799028D01*
X21916352Y-52799029D01*
X21916347Y-52799032D01*
X21826649Y-52888730D01*
X21826646Y-52888735D01*
X21769047Y-53001776D01*
X21769047Y-53001777D01*
X21749203Y-53127074D01*
X21749203Y-53127081D01*
X500500Y-53127081D01*
X500500Y-52250003D01*
X18732008Y-52250003D01*
X18751852Y-52375300D01*
X18751852Y-52375301D01*
X18751854Y-52375304D01*
X18809450Y-52488342D01*
X18809452Y-52488344D01*
X18809454Y-52488347D01*
X18899152Y-52578045D01*
X18899154Y-52578046D01*
X18899158Y-52578050D01*
X19012196Y-52635646D01*
X19012197Y-52635646D01*
X19012199Y-52635647D01*
X19137497Y-52655492D01*
X19137500Y-52655492D01*
X19137503Y-52655492D01*
X19262800Y-52635647D01*
X19262801Y-52635647D01*
X19262802Y-52635646D01*
X19262804Y-52635646D01*
X19375842Y-52578050D01*
X19465550Y-52488342D01*
X19523146Y-52375304D01*
X19523146Y-52375302D01*
X19523147Y-52375301D01*
X19523147Y-52375300D01*
X19542992Y-52250003D01*
X19542992Y-52249996D01*
X19523147Y-52124699D01*
X19523147Y-52124698D01*
X19523146Y-52124696D01*
X19465550Y-52011658D01*
X19465546Y-52011654D01*
X19465545Y-52011652D01*
X19375847Y-51921954D01*
X19375844Y-51921952D01*
X19375842Y-51921950D01*
X19262804Y-51864354D01*
X19262803Y-51864353D01*
X19262800Y-51864352D01*
X19137503Y-51844508D01*
X19137497Y-51844508D01*
X19012199Y-51864352D01*
X19012198Y-51864352D01*
X18936837Y-51902751D01*
X18899158Y-51921950D01*
X18899157Y-51921951D01*
X18899152Y-51921954D01*
X18809454Y-52011652D01*
X18809451Y-52011657D01*
X18751852Y-52124698D01*
X18751852Y-52124699D01*
X18732008Y-52249996D01*
X18732008Y-52250003D01*
X500500Y-52250003D01*
X500500Y-51409133D01*
X9555582Y-51409133D01*
X9575426Y-51534430D01*
X9575426Y-51534431D01*
X9575428Y-51534434D01*
X9633024Y-51647472D01*
X9633026Y-51647474D01*
X9633028Y-51647477D01*
X9722726Y-51737175D01*
X9722728Y-51737176D01*
X9722732Y-51737180D01*
X9835770Y-51794776D01*
X9835771Y-51794776D01*
X9835773Y-51794777D01*
X9961071Y-51814622D01*
X9961074Y-51814622D01*
X9961077Y-51814622D01*
X10086374Y-51794777D01*
X10086375Y-51794777D01*
X10086376Y-51794776D01*
X10086378Y-51794776D01*
X10199416Y-51737180D01*
X10289124Y-51647472D01*
X10346720Y-51534434D01*
X10346720Y-51534432D01*
X10346721Y-51534431D01*
X10346721Y-51534430D01*
X10366566Y-51409133D01*
X10366566Y-51409126D01*
X10346721Y-51283829D01*
X10346721Y-51283828D01*
X10346720Y-51283826D01*
X10289124Y-51170788D01*
X10289120Y-51170784D01*
X10289119Y-51170782D01*
X10199421Y-51081084D01*
X10199418Y-51081082D01*
X10199416Y-51081080D01*
X10086378Y-51023484D01*
X10086377Y-51023483D01*
X10086374Y-51023482D01*
X9961077Y-51003638D01*
X9961071Y-51003638D01*
X9835773Y-51023482D01*
X9835772Y-51023482D01*
X9760411Y-51061881D01*
X9722732Y-51081080D01*
X9722731Y-51081081D01*
X9722726Y-51081084D01*
X9633028Y-51170782D01*
X9633025Y-51170787D01*
X9575426Y-51283828D01*
X9575426Y-51283829D01*
X9555582Y-51409126D01*
X9555582Y-51409133D01*
X500500Y-51409133D01*
X500500Y-49915029D01*
X21827542Y-49915029D01*
X21847386Y-50040326D01*
X21847386Y-50040327D01*
X21847388Y-50040330D01*
X21904984Y-50153368D01*
X21904986Y-50153370D01*
X21904988Y-50153373D01*
X21994686Y-50243071D01*
X21994688Y-50243072D01*
X21994692Y-50243076D01*
X22107730Y-50300672D01*
X22107731Y-50300672D01*
X22107733Y-50300673D01*
X22233031Y-50320518D01*
X22233034Y-50320518D01*
X22233037Y-50320518D01*
X22358334Y-50300673D01*
X22358335Y-50300673D01*
X22358336Y-50300672D01*
X22358338Y-50300672D01*
X22471376Y-50243076D01*
X22561084Y-50153368D01*
X22618680Y-50040330D01*
X22618680Y-50040328D01*
X22618681Y-50040327D01*
X22618681Y-50040326D01*
X22638526Y-49915029D01*
X22638526Y-49915022D01*
X22618681Y-49789725D01*
X22618681Y-49789724D01*
X22618680Y-49789722D01*
X22561084Y-49676684D01*
X22561080Y-49676680D01*
X22561079Y-49676678D01*
X22504401Y-49620000D01*
X24404417Y-49620000D01*
X24424699Y-49825932D01*
X24424700Y-49825934D01*
X24484768Y-50023954D01*
X24582315Y-50206450D01*
X24582317Y-50206452D01*
X24713589Y-50366410D01*
X24810209Y-50445702D01*
X24873550Y-50497685D01*
X25056046Y-50595232D01*
X25254066Y-50655300D01*
X25254065Y-50655300D01*
X25272529Y-50657118D01*
X25460000Y-50675583D01*
X25665934Y-50655300D01*
X25863954Y-50595232D01*
X26046450Y-50497685D01*
X26206410Y-50366410D01*
X26337685Y-50206450D01*
X26435232Y-50023954D01*
X26455406Y-49957446D01*
X26493702Y-49899010D01*
X26557514Y-49870553D01*
X26626581Y-49881112D01*
X26678975Y-49927336D01*
X26693841Y-49961349D01*
X26726567Y-50083486D01*
X26726570Y-50083492D01*
X26826399Y-50297578D01*
X26961894Y-50491082D01*
X27128917Y-50658105D01*
X27322421Y-50793600D01*
X27536507Y-50893429D01*
X27536516Y-50893433D01*
X27750000Y-50950634D01*
X27750000Y-50055501D01*
X27857685Y-50104680D01*
X27964237Y-50120000D01*
X28035763Y-50120000D01*
X28142315Y-50104680D01*
X28250000Y-50055501D01*
X28250000Y-50950633D01*
X28463483Y-50893433D01*
X28463492Y-50893429D01*
X28677578Y-50793600D01*
X28871082Y-50658105D01*
X29038105Y-50491082D01*
X29173600Y-50297578D01*
X29273429Y-50083492D01*
X29273432Y-50083486D01*
X29330636Y-49870000D01*
X28433686Y-49870000D01*
X28459493Y-49829844D01*
X28500000Y-49691889D01*
X28500000Y-49548111D01*
X28459493Y-49410156D01*
X28433686Y-49370000D01*
X29330636Y-49370000D01*
X29330635Y-49369999D01*
X29273432Y-49156513D01*
X29273429Y-49156507D01*
X29173600Y-48942422D01*
X29173599Y-48942420D01*
X29038113Y-48748926D01*
X29038108Y-48748920D01*
X28871082Y-48581894D01*
X28677578Y-48446399D01*
X28463492Y-48346570D01*
X28463486Y-48346567D01*
X28341349Y-48313841D01*
X28281689Y-48277476D01*
X28251160Y-48214629D01*
X28259455Y-48145253D01*
X28303940Y-48091375D01*
X28337444Y-48075407D01*
X28403954Y-48055232D01*
X28586450Y-47957685D01*
X28746410Y-47826410D01*
X28756921Y-47813602D01*
X30187996Y-47813602D01*
X30209079Y-47946721D01*
X30209080Y-47946724D01*
X30209081Y-47946726D01*
X30264368Y-48055232D01*
X30270273Y-48066821D01*
X30270276Y-48066825D01*
X30365574Y-48162123D01*
X30365578Y-48162126D01*
X30365580Y-48162128D01*
X30485674Y-48223319D01*
X30485676Y-48223319D01*
X30485678Y-48223320D01*
X30618798Y-48244404D01*
X30618800Y-48244404D01*
X30618802Y-48244404D01*
X30751921Y-48223320D01*
X30751921Y-48223319D01*
X30751926Y-48223319D01*
X30872020Y-48162128D01*
X30967328Y-48066820D01*
X31028519Y-47946726D01*
X31049604Y-47813600D01*
X31028519Y-47680474D01*
X30967328Y-47560380D01*
X30967326Y-47560378D01*
X30967323Y-47560374D01*
X30872025Y-47465076D01*
X30872021Y-47465073D01*
X30872020Y-47465072D01*
X30751926Y-47403881D01*
X30751924Y-47403880D01*
X30751921Y-47403879D01*
X30618802Y-47382796D01*
X30618798Y-47382796D01*
X30485678Y-47403879D01*
X30365578Y-47465073D01*
X30365574Y-47465076D01*
X30270276Y-47560374D01*
X30270273Y-47560378D01*
X30209079Y-47680478D01*
X30187996Y-47813597D01*
X30187996Y-47813602D01*
X28756921Y-47813602D01*
X28877685Y-47666450D01*
X28975232Y-47483954D01*
X29035300Y-47285934D01*
X29055583Y-47080000D01*
X29035300Y-46874066D01*
X28975232Y-46676046D01*
X28877685Y-46493550D01*
X28778100Y-46372204D01*
X28746410Y-46333589D01*
X28586452Y-46202317D01*
X28586453Y-46202317D01*
X28586450Y-46202315D01*
X28403954Y-46104768D01*
X28337447Y-46084593D01*
X28279009Y-46046296D01*
X28250553Y-45982484D01*
X28261113Y-45913417D01*
X28307337Y-45861023D01*
X28341350Y-45846158D01*
X28463483Y-45813433D01*
X28463492Y-45813429D01*
X28677578Y-45713600D01*
X28871082Y-45578105D01*
X29038105Y-45411082D01*
X29173600Y-45217578D01*
X29273429Y-45003492D01*
X29273432Y-45003486D01*
X29330636Y-44790000D01*
X28433686Y-44790000D01*
X28459493Y-44749844D01*
X28500000Y-44611889D01*
X28500000Y-44468111D01*
X28459493Y-44330156D01*
X28433686Y-44290000D01*
X29330636Y-44290000D01*
X29330635Y-44289999D01*
X29273432Y-44076513D01*
X29273429Y-44076507D01*
X29173600Y-43862422D01*
X29173599Y-43862420D01*
X29038113Y-43668926D01*
X29038108Y-43668920D01*
X28871082Y-43501894D01*
X28677578Y-43366399D01*
X28507052Y-43286882D01*
X28454613Y-43240710D01*
X28435461Y-43173516D01*
X28455677Y-43106635D01*
X28508842Y-43061300D01*
X28559457Y-43050500D01*
X28869750Y-43050500D01*
X28869751Y-43050499D01*
X28884568Y-43047552D01*
X28928229Y-43038868D01*
X28928229Y-43038867D01*
X28928231Y-43038867D01*
X28994552Y-42994552D01*
X29038867Y-42928231D01*
X29038867Y-42928229D01*
X29038868Y-42928229D01*
X29050499Y-42869752D01*
X29050500Y-42869750D01*
X29050500Y-42351652D01*
X29765671Y-42351652D01*
X29785515Y-42476949D01*
X29785515Y-42476950D01*
X29785517Y-42476953D01*
X29843113Y-42589991D01*
X29843115Y-42589993D01*
X29843117Y-42589996D01*
X29932815Y-42679694D01*
X29932817Y-42679695D01*
X29932821Y-42679699D01*
X30045859Y-42737295D01*
X30045860Y-42737295D01*
X30045862Y-42737296D01*
X30171160Y-42757141D01*
X30171163Y-42757141D01*
X30171166Y-42757141D01*
X30296463Y-42737296D01*
X30296464Y-42737296D01*
X30296465Y-42737295D01*
X30296467Y-42737295D01*
X30409505Y-42679699D01*
X30499213Y-42589991D01*
X30556809Y-42476953D01*
X30556809Y-42476951D01*
X30556810Y-42476950D01*
X30556810Y-42476949D01*
X30576655Y-42351652D01*
X30576655Y-42351645D01*
X30556810Y-42226348D01*
X30556810Y-42226347D01*
X30525229Y-42164367D01*
X30499213Y-42113307D01*
X30499209Y-42113303D01*
X30499208Y-42113301D01*
X30409510Y-42023603D01*
X30409507Y-42023601D01*
X30409505Y-42023599D01*
X30296467Y-41966003D01*
X30296466Y-41966002D01*
X30296463Y-41966001D01*
X30171166Y-41946157D01*
X30171160Y-41946157D01*
X30045862Y-41966001D01*
X30045861Y-41966001D01*
X29979136Y-42000000D01*
X29932821Y-42023599D01*
X29932820Y-42023600D01*
X29932815Y-42023603D01*
X29843117Y-42113301D01*
X29843114Y-42113306D01*
X29843113Y-42113307D01*
X29823914Y-42150986D01*
X29785515Y-42226347D01*
X29785515Y-42226348D01*
X29765671Y-42351645D01*
X29765671Y-42351652D01*
X29050500Y-42351652D01*
X29050500Y-41130249D01*
X29050499Y-41130247D01*
X29038868Y-41071770D01*
X29038867Y-41071769D01*
X28994552Y-41005447D01*
X28928230Y-40961132D01*
X28928229Y-40961131D01*
X28869752Y-40949500D01*
X28869748Y-40949500D01*
X27130252Y-40949500D01*
X27130247Y-40949500D01*
X27071770Y-40961131D01*
X27071769Y-40961132D01*
X27005447Y-41005447D01*
X26961132Y-41071769D01*
X26961131Y-41071770D01*
X26949500Y-41130247D01*
X26949500Y-42869752D01*
X26961131Y-42928229D01*
X26961132Y-42928230D01*
X27005447Y-42994552D01*
X27071769Y-43038867D01*
X27071770Y-43038868D01*
X27130247Y-43050499D01*
X27130250Y-43050500D01*
X27440543Y-43050500D01*
X27507582Y-43070185D01*
X27553337Y-43122989D01*
X27563281Y-43192147D01*
X27534256Y-43255703D01*
X27492948Y-43286882D01*
X27322422Y-43366399D01*
X27322420Y-43366400D01*
X27128926Y-43501886D01*
X27128920Y-43501891D01*
X26961891Y-43668920D01*
X26961886Y-43668926D01*
X26826400Y-43862420D01*
X26826399Y-43862422D01*
X26726570Y-44076507D01*
X26726567Y-44076514D01*
X26693841Y-44198650D01*
X26657476Y-44258310D01*
X26594629Y-44288839D01*
X26525253Y-44280544D01*
X26471375Y-44236059D01*
X26455406Y-44202553D01*
X26435232Y-44136046D01*
X26433884Y-44133525D01*
X26430635Y-44127447D01*
X26337685Y-43953550D01*
X26262897Y-43862420D01*
X26206410Y-43793589D01*
X26059679Y-43673172D01*
X26046450Y-43662315D01*
X25863954Y-43564768D01*
X25665934Y-43504700D01*
X25665932Y-43504699D01*
X25665934Y-43504699D01*
X25460000Y-43484417D01*
X25254067Y-43504699D01*
X25056043Y-43564769D01*
X24945898Y-43623643D01*
X24873550Y-43662315D01*
X24873548Y-43662316D01*
X24873547Y-43662317D01*
X24713589Y-43793589D01*
X24616805Y-43911523D01*
X24582315Y-43953550D01*
X24554531Y-44005530D01*
X24484769Y-44136043D01*
X24424699Y-44334067D01*
X24404417Y-44540000D01*
X24424699Y-44745932D01*
X24432008Y-44770025D01*
X24484768Y-44943954D01*
X24582315Y-45126450D01*
X24582317Y-45126452D01*
X24713589Y-45286410D01*
X24762250Y-45326344D01*
X24873550Y-45417685D01*
X25056046Y-45515232D01*
X25254066Y-45575300D01*
X25254065Y-45575300D01*
X25272529Y-45577118D01*
X25460000Y-45595583D01*
X25665934Y-45575300D01*
X25863954Y-45515232D01*
X26046450Y-45417685D01*
X26206410Y-45286410D01*
X26337685Y-45126450D01*
X26435232Y-44943954D01*
X26455406Y-44877446D01*
X26493702Y-44819010D01*
X26557514Y-44790553D01*
X26626581Y-44801112D01*
X26678975Y-44847336D01*
X26693841Y-44881349D01*
X26726567Y-45003486D01*
X26726570Y-45003492D01*
X26826399Y-45217578D01*
X26961894Y-45411082D01*
X27128917Y-45578105D01*
X27322421Y-45713600D01*
X27536507Y-45813429D01*
X27536516Y-45813433D01*
X27658649Y-45846158D01*
X27718310Y-45882523D01*
X27748839Y-45945369D01*
X27740545Y-46014745D01*
X27696059Y-46068623D01*
X27662552Y-46084593D01*
X27596046Y-46104767D01*
X27465358Y-46174622D01*
X27413550Y-46202315D01*
X27413548Y-46202316D01*
X27413547Y-46202317D01*
X27253589Y-46333589D01*
X27122317Y-46493547D01*
X27024769Y-46676043D01*
X26964699Y-46874067D01*
X26944417Y-47080000D01*
X26964699Y-47285932D01*
X26972822Y-47312709D01*
X27024768Y-47483954D01*
X27122315Y-47666450D01*
X27156969Y-47708677D01*
X27253589Y-47826410D01*
X27350209Y-47905702D01*
X27413550Y-47957685D01*
X27596046Y-48055232D01*
X27662551Y-48075405D01*
X27720989Y-48113702D01*
X27749446Y-48177514D01*
X27738887Y-48246581D01*
X27692663Y-48298975D01*
X27658650Y-48313841D01*
X27536514Y-48346567D01*
X27536507Y-48346570D01*
X27322422Y-48446399D01*
X27322420Y-48446400D01*
X27128926Y-48581886D01*
X27128920Y-48581891D01*
X26961891Y-48748920D01*
X26961886Y-48748926D01*
X26826400Y-48942420D01*
X26826399Y-48942422D01*
X26726570Y-49156507D01*
X26726567Y-49156514D01*
X26693841Y-49278650D01*
X26657476Y-49338310D01*
X26594629Y-49368839D01*
X26525253Y-49360544D01*
X26471375Y-49316059D01*
X26455406Y-49282553D01*
X26435232Y-49216046D01*
X26337685Y-49033550D01*
X26262897Y-48942420D01*
X26206410Y-48873589D01*
X26088677Y-48776969D01*
X26046450Y-48742315D01*
X25863954Y-48644768D01*
X25665934Y-48584700D01*
X25665932Y-48584699D01*
X25665934Y-48584699D01*
X25460000Y-48564417D01*
X25254067Y-48584699D01*
X25056043Y-48644769D01*
X24945898Y-48703643D01*
X24873550Y-48742315D01*
X24873548Y-48742316D01*
X24873547Y-48742317D01*
X24713589Y-48873589D01*
X24582317Y-49033547D01*
X24484769Y-49216043D01*
X24424699Y-49414067D01*
X24404417Y-49620000D01*
X22504401Y-49620000D01*
X22471381Y-49586980D01*
X22471378Y-49586978D01*
X22471376Y-49586976D01*
X22358338Y-49529380D01*
X22358337Y-49529379D01*
X22358334Y-49529378D01*
X22233037Y-49509534D01*
X22233031Y-49509534D01*
X22107733Y-49529378D01*
X22107732Y-49529378D01*
X22032371Y-49567777D01*
X21994692Y-49586976D01*
X21994691Y-49586977D01*
X21994686Y-49586980D01*
X21904988Y-49676678D01*
X21904985Y-49676683D01*
X21847386Y-49789724D01*
X21847386Y-49789725D01*
X21827542Y-49915022D01*
X21827542Y-49915029D01*
X500500Y-49915029D01*
X500500Y-48984602D01*
X17631996Y-48984602D01*
X17653079Y-49117721D01*
X17653080Y-49117724D01*
X17653081Y-49117726D01*
X17703177Y-49216044D01*
X17714273Y-49237821D01*
X17714276Y-49237825D01*
X17809574Y-49333123D01*
X17809578Y-49333126D01*
X17809580Y-49333128D01*
X17929674Y-49394319D01*
X17929676Y-49394319D01*
X17929678Y-49394320D01*
X18062798Y-49415404D01*
X18062800Y-49415404D01*
X18062802Y-49415404D01*
X18195921Y-49394320D01*
X18195921Y-49394319D01*
X18195926Y-49394319D01*
X18316020Y-49333128D01*
X18411328Y-49237820D01*
X18472519Y-49117726D01*
X18493604Y-48984600D01*
X18486923Y-48942420D01*
X18472520Y-48851478D01*
X18472519Y-48851476D01*
X18472519Y-48851474D01*
X18411328Y-48731380D01*
X18411326Y-48731378D01*
X18411323Y-48731374D01*
X18316025Y-48636076D01*
X18316021Y-48636073D01*
X18316020Y-48636072D01*
X18195926Y-48574881D01*
X18195924Y-48574880D01*
X18195921Y-48574879D01*
X18062802Y-48553796D01*
X18062798Y-48553796D01*
X17929678Y-48574879D01*
X17809578Y-48636073D01*
X17809574Y-48636076D01*
X17714276Y-48731374D01*
X17714273Y-48731378D01*
X17653079Y-48851478D01*
X17631996Y-48984597D01*
X17631996Y-48984602D01*
X500500Y-48984602D01*
X500500Y-41019999D01*
X3030839Y-41019999D01*
X3030840Y-41020000D01*
X3785517Y-41020000D01*
X3714199Y-41104993D01*
X3675000Y-41212694D01*
X3675000Y-41327306D01*
X3714199Y-41435007D01*
X3785517Y-41520000D01*
X3030840Y-41520000D01*
X3071652Y-41654541D01*
X3164503Y-41828253D01*
X3164507Y-41828260D01*
X3289471Y-41980528D01*
X3358009Y-42036776D01*
X3397343Y-42094522D01*
X3399214Y-42164367D01*
X3381397Y-42203065D01*
X3375183Y-42212067D01*
X3375182Y-42212068D01*
X3314860Y-42371125D01*
X3314859Y-42371130D01*
X3294355Y-42540000D01*
X3314859Y-42708869D01*
X3314860Y-42708874D01*
X3375182Y-42867931D01*
X3416804Y-42928230D01*
X3462583Y-42994552D01*
X3471818Y-43007930D01*
X3555634Y-43082185D01*
X3592761Y-43141374D01*
X3591993Y-43211240D01*
X3555634Y-43267815D01*
X3471818Y-43342069D01*
X3375182Y-43482068D01*
X3314860Y-43641125D01*
X3314859Y-43641130D01*
X3294355Y-43810000D01*
X3314859Y-43978869D01*
X3314860Y-43978874D01*
X3375182Y-44137931D01*
X3396126Y-44168273D01*
X3463497Y-44265876D01*
X3471818Y-44277930D01*
X3555634Y-44352185D01*
X3592761Y-44411374D01*
X3591993Y-44481240D01*
X3555634Y-44537815D01*
X3471818Y-44612069D01*
X3375182Y-44752068D01*
X3314860Y-44911125D01*
X3314859Y-44911130D01*
X3294355Y-45080000D01*
X3314859Y-45248869D01*
X3314860Y-45248874D01*
X3375182Y-45407931D01*
X3471818Y-45547930D01*
X3555634Y-45622185D01*
X3592761Y-45681374D01*
X3591993Y-45751240D01*
X3555634Y-45807815D01*
X3471818Y-45882069D01*
X3375182Y-46022068D01*
X3314860Y-46181125D01*
X3314859Y-46181130D01*
X3294355Y-46350000D01*
X3314859Y-46518869D01*
X3314860Y-46518874D01*
X3375182Y-46677931D01*
X3437475Y-46768177D01*
X3471817Y-46817929D01*
X3535183Y-46874066D01*
X3599150Y-46930736D01*
X3749773Y-47009789D01*
X3749775Y-47009790D01*
X3914944Y-47050500D01*
X4085056Y-47050500D01*
X4250225Y-47009790D01*
X4329692Y-46968081D01*
X4400849Y-46930736D01*
X4400850Y-46930734D01*
X4400852Y-46930734D01*
X4528183Y-46817929D01*
X4609409Y-46700253D01*
X15689822Y-46700253D01*
X15709666Y-46825550D01*
X15709666Y-46825551D01*
X15709668Y-46825554D01*
X15767264Y-46938592D01*
X15767266Y-46938594D01*
X15767268Y-46938597D01*
X15856966Y-47028295D01*
X15856968Y-47028296D01*
X15856972Y-47028300D01*
X15970010Y-47085896D01*
X15970011Y-47085896D01*
X15970013Y-47085897D01*
X16095311Y-47105742D01*
X16095314Y-47105742D01*
X16095317Y-47105742D01*
X16220614Y-47085897D01*
X16220615Y-47085897D01*
X16220616Y-47085896D01*
X16220618Y-47085896D01*
X16333656Y-47028300D01*
X16423364Y-46938592D01*
X16429237Y-46927065D01*
X22820626Y-46927065D01*
X22840470Y-47052362D01*
X22840470Y-47052363D01*
X22840472Y-47052366D01*
X22898068Y-47165404D01*
X22898070Y-47165406D01*
X22898072Y-47165409D01*
X22987770Y-47255107D01*
X22987772Y-47255108D01*
X22987776Y-47255112D01*
X23100814Y-47312708D01*
X23100815Y-47312708D01*
X23100817Y-47312709D01*
X23226115Y-47332554D01*
X23226118Y-47332554D01*
X23226121Y-47332554D01*
X23351418Y-47312709D01*
X23351419Y-47312709D01*
X23351420Y-47312708D01*
X23351422Y-47312708D01*
X23464460Y-47255112D01*
X23554168Y-47165404D01*
X23597684Y-47080000D01*
X24404417Y-47080000D01*
X24424699Y-47285932D01*
X24432822Y-47312709D01*
X24484768Y-47483954D01*
X24582315Y-47666450D01*
X24616969Y-47708677D01*
X24713589Y-47826410D01*
X24810209Y-47905702D01*
X24873550Y-47957685D01*
X25056046Y-48055232D01*
X25254066Y-48115300D01*
X25254065Y-48115300D01*
X25272529Y-48117118D01*
X25460000Y-48135583D01*
X25665934Y-48115300D01*
X25863954Y-48055232D01*
X26046450Y-47957685D01*
X26206410Y-47826410D01*
X26337685Y-47666450D01*
X26435232Y-47483954D01*
X26495300Y-47285934D01*
X26515583Y-47080000D01*
X26495300Y-46874066D01*
X26435232Y-46676046D01*
X26337685Y-46493550D01*
X26238100Y-46372204D01*
X26206410Y-46333589D01*
X26046452Y-46202317D01*
X26046453Y-46202317D01*
X26046450Y-46202315D01*
X25863954Y-46104768D01*
X25665934Y-46044700D01*
X25665932Y-46044699D01*
X25665934Y-46044699D01*
X25460000Y-46024417D01*
X25254067Y-46044699D01*
X25078692Y-46097898D01*
X25056050Y-46104767D01*
X25056043Y-46104769D01*
X24945898Y-46163643D01*
X24873550Y-46202315D01*
X24873548Y-46202316D01*
X24873547Y-46202317D01*
X24713589Y-46333589D01*
X24582317Y-46493547D01*
X24484769Y-46676043D01*
X24424699Y-46874067D01*
X24404417Y-47080000D01*
X23597684Y-47080000D01*
X23611764Y-47052366D01*
X23611764Y-47052364D01*
X23611765Y-47052363D01*
X23611765Y-47052362D01*
X23631610Y-46927065D01*
X23631610Y-46927058D01*
X23611765Y-46801761D01*
X23611765Y-46801760D01*
X23611764Y-46801758D01*
X23554168Y-46688720D01*
X23554164Y-46688716D01*
X23554163Y-46688714D01*
X23464465Y-46599016D01*
X23464462Y-46599014D01*
X23464460Y-46599012D01*
X23351422Y-46541416D01*
X23351421Y-46541415D01*
X23351418Y-46541414D01*
X23226121Y-46521570D01*
X23226115Y-46521570D01*
X23100817Y-46541414D01*
X23100816Y-46541414D01*
X23035008Y-46574946D01*
X22987776Y-46599012D01*
X22987775Y-46599013D01*
X22987770Y-46599016D01*
X22898072Y-46688714D01*
X22898069Y-46688719D01*
X22898068Y-46688720D01*
X22892193Y-46700250D01*
X22840470Y-46801760D01*
X22840470Y-46801761D01*
X22820626Y-46927058D01*
X22820626Y-46927065D01*
X16429237Y-46927065D01*
X16480960Y-46825554D01*
X16480960Y-46825552D01*
X16480961Y-46825551D01*
X16480961Y-46825550D01*
X16500806Y-46700253D01*
X16500806Y-46700246D01*
X16480961Y-46574949D01*
X16480961Y-46574948D01*
X16480960Y-46574946D01*
X16423364Y-46461908D01*
X16423360Y-46461904D01*
X16423359Y-46461902D01*
X16333661Y-46372204D01*
X16333658Y-46372202D01*
X16333656Y-46372200D01*
X16220618Y-46314604D01*
X16220617Y-46314603D01*
X16220614Y-46314602D01*
X16095317Y-46294758D01*
X16095311Y-46294758D01*
X15970013Y-46314602D01*
X15970012Y-46314602D01*
X15900542Y-46350000D01*
X15856972Y-46372200D01*
X15856971Y-46372201D01*
X15856966Y-46372204D01*
X15767268Y-46461902D01*
X15767265Y-46461907D01*
X15709666Y-46574948D01*
X15709666Y-46574949D01*
X15689822Y-46700246D01*
X15689822Y-46700253D01*
X4609409Y-46700253D01*
X4624818Y-46677930D01*
X4685140Y-46518872D01*
X4705645Y-46350000D01*
X4685140Y-46181128D01*
X4624818Y-46022070D01*
X4528183Y-45882071D01*
X4444363Y-45807813D01*
X4407238Y-45748626D01*
X4408006Y-45678761D01*
X4444363Y-45622186D01*
X4528183Y-45547929D01*
X4624818Y-45407930D01*
X4685140Y-45248872D01*
X4705645Y-45080000D01*
X4701650Y-45047102D01*
X6690596Y-45047102D01*
X6711679Y-45180221D01*
X6711680Y-45180224D01*
X6711681Y-45180226D01*
X6772872Y-45300320D01*
X6772873Y-45300321D01*
X6772876Y-45300325D01*
X6868174Y-45395623D01*
X6868178Y-45395626D01*
X6868180Y-45395628D01*
X6988274Y-45456819D01*
X6988276Y-45456819D01*
X6988278Y-45456820D01*
X7121398Y-45477904D01*
X7121400Y-45477904D01*
X7121402Y-45477904D01*
X7254521Y-45456820D01*
X7254521Y-45456819D01*
X7254526Y-45456819D01*
X7374620Y-45395628D01*
X7469928Y-45300320D01*
X7531119Y-45180226D01*
X7540819Y-45118982D01*
X7545725Y-45088005D01*
X20037555Y-45088005D01*
X20057399Y-45213302D01*
X20057399Y-45213303D01*
X20073183Y-45244280D01*
X20114997Y-45326344D01*
X20114999Y-45326346D01*
X20115001Y-45326349D01*
X20204699Y-45416047D01*
X20204701Y-45416048D01*
X20204705Y-45416052D01*
X20317743Y-45473648D01*
X20317744Y-45473648D01*
X20317746Y-45473649D01*
X20443044Y-45493494D01*
X20443047Y-45493494D01*
X20443050Y-45493494D01*
X20568347Y-45473649D01*
X20568348Y-45473649D01*
X20568349Y-45473648D01*
X20568351Y-45473648D01*
X20681389Y-45416052D01*
X20771097Y-45326344D01*
X20812907Y-45244287D01*
X22382788Y-45244287D01*
X22402632Y-45369584D01*
X22402632Y-45369585D01*
X22415901Y-45395626D01*
X22460230Y-45482626D01*
X22460232Y-45482628D01*
X22460234Y-45482631D01*
X22549932Y-45572329D01*
X22549934Y-45572330D01*
X22549938Y-45572334D01*
X22662976Y-45629930D01*
X22662977Y-45629930D01*
X22662979Y-45629931D01*
X22788277Y-45649776D01*
X22788280Y-45649776D01*
X22788283Y-45649776D01*
X22913580Y-45629931D01*
X22913581Y-45629931D01*
X22913582Y-45629930D01*
X22913584Y-45629930D01*
X23026622Y-45572334D01*
X23116330Y-45482626D01*
X23173926Y-45369588D01*
X23173926Y-45369586D01*
X23173927Y-45369585D01*
X23173927Y-45369584D01*
X23193772Y-45244287D01*
X23193772Y-45244280D01*
X23173927Y-45118983D01*
X23173927Y-45118982D01*
X23158143Y-45088005D01*
X23116330Y-45005942D01*
X23116326Y-45005938D01*
X23116325Y-45005936D01*
X23026627Y-44916238D01*
X23026624Y-44916236D01*
X23026622Y-44916234D01*
X22913584Y-44858638D01*
X22913583Y-44858637D01*
X22913580Y-44858636D01*
X22788283Y-44838792D01*
X22788277Y-44838792D01*
X22662979Y-44858636D01*
X22662978Y-44858636D01*
X22618403Y-44881349D01*
X22549938Y-44916234D01*
X22549937Y-44916235D01*
X22549932Y-44916238D01*
X22460234Y-45005936D01*
X22460231Y-45005941D01*
X22460230Y-45005942D01*
X22442877Y-45040000D01*
X22402632Y-45118982D01*
X22402632Y-45118983D01*
X22382788Y-45244280D01*
X22382788Y-45244287D01*
X20812907Y-45244287D01*
X20828693Y-45213306D01*
X20828693Y-45213304D01*
X20828694Y-45213303D01*
X20828694Y-45213302D01*
X20848539Y-45088005D01*
X20848539Y-45087998D01*
X20828694Y-44962701D01*
X20828694Y-44962700D01*
X20810259Y-44926520D01*
X20771097Y-44849660D01*
X20771093Y-44849656D01*
X20771092Y-44849654D01*
X20681394Y-44759956D01*
X20681391Y-44759954D01*
X20681389Y-44759952D01*
X20568351Y-44702356D01*
X20568350Y-44702355D01*
X20568347Y-44702354D01*
X20443050Y-44682510D01*
X20443044Y-44682510D01*
X20317746Y-44702354D01*
X20317745Y-44702354D01*
X20242384Y-44740753D01*
X20204705Y-44759952D01*
X20204704Y-44759953D01*
X20204699Y-44759956D01*
X20115001Y-44849654D01*
X20114998Y-44849659D01*
X20114997Y-44849660D01*
X20107015Y-44865326D01*
X20057399Y-44962700D01*
X20057399Y-44962701D01*
X20037555Y-45087998D01*
X20037555Y-45088005D01*
X7545725Y-45088005D01*
X7552204Y-45047102D01*
X7552204Y-45047097D01*
X7531120Y-44913978D01*
X7531119Y-44913976D01*
X7531119Y-44913974D01*
X7469928Y-44793880D01*
X7469926Y-44793878D01*
X7469923Y-44793874D01*
X7374625Y-44698576D01*
X7374621Y-44698573D01*
X7374620Y-44698572D01*
X7254526Y-44637381D01*
X7254524Y-44637380D01*
X7254521Y-44637379D01*
X7121402Y-44616296D01*
X7121398Y-44616296D01*
X6988278Y-44637379D01*
X6868178Y-44698573D01*
X6868174Y-44698576D01*
X6772876Y-44793874D01*
X6772873Y-44793878D01*
X6711679Y-44913978D01*
X6690596Y-45047097D01*
X6690596Y-45047102D01*
X4701650Y-45047102D01*
X4685140Y-44911128D01*
X4673846Y-44881349D01*
X4627809Y-44759956D01*
X4624818Y-44752070D01*
X4623281Y-44749844D01*
X4590476Y-44702318D01*
X4528183Y-44612071D01*
X4444363Y-44537813D01*
X4431184Y-44516802D01*
X8593296Y-44516802D01*
X8614379Y-44649921D01*
X8614380Y-44649924D01*
X8614381Y-44649926D01*
X8675572Y-44770020D01*
X8675573Y-44770021D01*
X8675576Y-44770025D01*
X8770874Y-44865323D01*
X8770878Y-44865326D01*
X8770880Y-44865328D01*
X8890974Y-44926519D01*
X8890976Y-44926519D01*
X8890978Y-44926520D01*
X9024098Y-44947604D01*
X9024100Y-44947604D01*
X9024102Y-44947604D01*
X9157221Y-44926520D01*
X9157221Y-44926519D01*
X9157226Y-44926519D01*
X9277320Y-44865328D01*
X9372628Y-44770020D01*
X9433819Y-44649926D01*
X9435806Y-44637379D01*
X9454904Y-44516802D01*
X9454904Y-44516798D01*
X9443379Y-44444034D01*
X9452333Y-44374741D01*
X9497329Y-44321289D01*
X9564081Y-44300649D01*
X9585246Y-44302162D01*
X9625502Y-44308538D01*
X9641699Y-44311104D01*
X9641700Y-44311104D01*
X9641702Y-44311104D01*
X9774821Y-44290020D01*
X9774821Y-44290019D01*
X9774826Y-44290019D01*
X9894920Y-44228828D01*
X9990228Y-44133520D01*
X10051419Y-44013426D01*
X10052669Y-44005534D01*
X10072504Y-43880302D01*
X10072504Y-43880297D01*
X10051420Y-43747178D01*
X10051419Y-43747176D01*
X10051419Y-43747174D01*
X10013717Y-43673179D01*
X22049963Y-43673179D01*
X22069807Y-43798476D01*
X22069807Y-43798477D01*
X22088260Y-43834693D01*
X22127405Y-43911518D01*
X22127407Y-43911520D01*
X22127409Y-43911523D01*
X22217107Y-44001221D01*
X22217109Y-44001222D01*
X22217113Y-44001226D01*
X22330151Y-44058822D01*
X22330152Y-44058822D01*
X22330154Y-44058823D01*
X22455452Y-44078668D01*
X22455455Y-44078668D01*
X22455458Y-44078668D01*
X22580755Y-44058823D01*
X22580756Y-44058823D01*
X22580757Y-44058822D01*
X22580759Y-44058822D01*
X22693797Y-44001226D01*
X22783505Y-43911518D01*
X22841101Y-43798480D01*
X22841101Y-43798478D01*
X22841102Y-43798477D01*
X22841102Y-43798476D01*
X22860947Y-43673179D01*
X22860947Y-43673172D01*
X22841102Y-43547875D01*
X22841102Y-43547874D01*
X22841101Y-43547872D01*
X22783505Y-43434834D01*
X22783501Y-43434830D01*
X22783500Y-43434828D01*
X22693802Y-43345130D01*
X22693799Y-43345128D01*
X22693797Y-43345126D01*
X22580759Y-43287530D01*
X22580758Y-43287529D01*
X22580755Y-43287528D01*
X22455458Y-43267684D01*
X22455452Y-43267684D01*
X22330154Y-43287528D01*
X22330153Y-43287528D01*
X22254792Y-43325927D01*
X22217113Y-43345126D01*
X22217112Y-43345127D01*
X22217107Y-43345130D01*
X22127409Y-43434828D01*
X22127406Y-43434833D01*
X22127405Y-43434834D01*
X22109192Y-43470579D01*
X22069807Y-43547874D01*
X22069807Y-43547875D01*
X22049963Y-43673172D01*
X22049963Y-43673179D01*
X10013717Y-43673179D01*
X9990228Y-43627080D01*
X9990226Y-43627078D01*
X9990223Y-43627074D01*
X9894925Y-43531776D01*
X9894921Y-43531773D01*
X9894920Y-43531772D01*
X9774826Y-43470581D01*
X9774824Y-43470580D01*
X9774821Y-43470579D01*
X9641702Y-43449496D01*
X9641698Y-43449496D01*
X9508578Y-43470579D01*
X9508574Y-43470580D01*
X9508574Y-43470581D01*
X9447135Y-43501886D01*
X9388478Y-43531773D01*
X9388474Y-43531776D01*
X9293176Y-43627074D01*
X9293173Y-43627078D01*
X9231979Y-43747178D01*
X9210896Y-43880297D01*
X9210896Y-43880303D01*
X9222420Y-43953066D01*
X9213465Y-44022359D01*
X9168469Y-44075811D01*
X9101717Y-44096450D01*
X9080550Y-44094936D01*
X9024103Y-44085996D01*
X9024098Y-44085996D01*
X8890978Y-44107079D01*
X8770878Y-44168273D01*
X8770874Y-44168276D01*
X8675576Y-44263574D01*
X8675573Y-44263578D01*
X8614379Y-44383678D01*
X8593296Y-44516797D01*
X8593296Y-44516802D01*
X4431184Y-44516802D01*
X4407238Y-44478626D01*
X4408006Y-44408761D01*
X4444363Y-44352186D01*
X4528183Y-44277929D01*
X4624818Y-44137930D01*
X4685140Y-43978872D01*
X4697117Y-43880233D01*
X6402441Y-43880233D01*
X6422285Y-44005530D01*
X6422285Y-44005531D01*
X6426308Y-44013426D01*
X6479883Y-44118572D01*
X6479885Y-44118574D01*
X6479887Y-44118577D01*
X6569585Y-44208275D01*
X6569587Y-44208276D01*
X6569591Y-44208280D01*
X6682629Y-44265876D01*
X6682630Y-44265876D01*
X6682632Y-44265877D01*
X6807930Y-44285722D01*
X6807933Y-44285722D01*
X6807936Y-44285722D01*
X6933233Y-44265877D01*
X6933234Y-44265877D01*
X6933235Y-44265876D01*
X6933237Y-44265876D01*
X7046275Y-44208280D01*
X7135983Y-44118572D01*
X7193579Y-44005534D01*
X7193579Y-44005532D01*
X7193580Y-44005531D01*
X7193580Y-44005530D01*
X7213425Y-43880233D01*
X7213425Y-43880226D01*
X7193580Y-43754929D01*
X7193580Y-43754928D01*
X7189629Y-43747174D01*
X7135983Y-43641888D01*
X7135979Y-43641884D01*
X7135978Y-43641882D01*
X7046280Y-43552184D01*
X7046277Y-43552182D01*
X7046275Y-43552180D01*
X6933237Y-43494584D01*
X6933236Y-43494583D01*
X6933233Y-43494582D01*
X6807936Y-43474738D01*
X6807930Y-43474738D01*
X6682632Y-43494582D01*
X6682631Y-43494582D01*
X6609644Y-43531772D01*
X6569591Y-43552180D01*
X6569590Y-43552181D01*
X6569585Y-43552184D01*
X6479887Y-43641882D01*
X6479884Y-43641887D01*
X6479883Y-43641888D01*
X6463943Y-43673172D01*
X6422285Y-43754928D01*
X6422285Y-43754929D01*
X6402441Y-43880226D01*
X6402441Y-43880233D01*
X4697117Y-43880233D01*
X4705645Y-43810000D01*
X4685140Y-43641128D01*
X4624818Y-43482070D01*
X4616886Y-43470579D01*
X4544976Y-43366400D01*
X4528183Y-43342071D01*
X4444363Y-43267813D01*
X4407238Y-43208626D01*
X4408006Y-43138761D01*
X4444363Y-43082186D01*
X4528183Y-43007929D01*
X4624818Y-42867930D01*
X4685140Y-42708872D01*
X4705645Y-42540000D01*
X4685140Y-42371128D01*
X4624818Y-42212070D01*
X4618604Y-42203068D01*
X4596722Y-42136714D01*
X4614187Y-42069063D01*
X4641991Y-42036774D01*
X4710529Y-41980527D01*
X4835492Y-41828260D01*
X4835496Y-41828253D01*
X4928347Y-41654541D01*
X4930394Y-41647793D01*
X10237877Y-41647793D01*
X10257721Y-41773090D01*
X10257721Y-41773091D01*
X10257723Y-41773094D01*
X10315319Y-41886132D01*
X10315321Y-41886134D01*
X10315323Y-41886137D01*
X10405021Y-41975835D01*
X10405023Y-41975836D01*
X10405027Y-41975840D01*
X10518065Y-42033436D01*
X10518066Y-42033436D01*
X10518068Y-42033437D01*
X10643366Y-42053282D01*
X10643369Y-42053282D01*
X10643372Y-42053282D01*
X10768669Y-42033437D01*
X10768670Y-42033437D01*
X10768671Y-42033436D01*
X10768673Y-42033436D01*
X10834295Y-42000000D01*
X24404417Y-42000000D01*
X24424699Y-42205932D01*
X24430892Y-42226347D01*
X24484768Y-42403954D01*
X24582315Y-42586450D01*
X24582317Y-42586452D01*
X24713589Y-42746410D01*
X24810209Y-42825702D01*
X24873550Y-42877685D01*
X25056046Y-42975232D01*
X25254066Y-43035300D01*
X25254065Y-43035300D01*
X25272529Y-43037118D01*
X25460000Y-43055583D01*
X25665934Y-43035300D01*
X25863954Y-42975232D01*
X26046450Y-42877685D01*
X26206410Y-42746410D01*
X26337685Y-42586450D01*
X26435232Y-42403954D01*
X26495300Y-42205934D01*
X26515583Y-42000000D01*
X26495300Y-41794066D01*
X26435232Y-41596046D01*
X26337685Y-41413550D01*
X26260701Y-41319744D01*
X26206410Y-41253589D01*
X26056121Y-41130252D01*
X26046450Y-41122315D01*
X25863954Y-41024768D01*
X25665934Y-40964700D01*
X25665932Y-40964699D01*
X25665934Y-40964699D01*
X25460000Y-40944417D01*
X25254067Y-40964699D01*
X25119736Y-41005448D01*
X25071768Y-41019999D01*
X25056043Y-41024769D01*
X24968114Y-41071769D01*
X24873550Y-41122315D01*
X24873548Y-41122316D01*
X24873547Y-41122317D01*
X24713589Y-41253589D01*
X24582317Y-41413547D01*
X24484769Y-41596043D01*
X24424699Y-41794067D01*
X24404417Y-42000000D01*
X10834295Y-42000000D01*
X10881711Y-41975840D01*
X10971419Y-41886132D01*
X11029015Y-41773094D01*
X11029015Y-41773092D01*
X11029016Y-41773091D01*
X11029016Y-41773090D01*
X11048861Y-41647793D01*
X11048861Y-41647786D01*
X11029016Y-41522489D01*
X11029016Y-41522488D01*
X11027748Y-41520000D01*
X10971419Y-41409448D01*
X10971415Y-41409444D01*
X10971414Y-41409442D01*
X10881716Y-41319744D01*
X10881713Y-41319742D01*
X10881711Y-41319740D01*
X10768673Y-41262144D01*
X10768672Y-41262143D01*
X10768669Y-41262142D01*
X10643372Y-41242298D01*
X10643366Y-41242298D01*
X10518068Y-41262142D01*
X10518067Y-41262142D01*
X10442706Y-41300541D01*
X10405027Y-41319740D01*
X10405026Y-41319741D01*
X10405021Y-41319744D01*
X10315323Y-41409442D01*
X10315320Y-41409447D01*
X10315319Y-41409448D01*
X10313229Y-41413550D01*
X10257721Y-41522488D01*
X10257721Y-41522489D01*
X10237877Y-41647786D01*
X10237877Y-41647793D01*
X4930394Y-41647793D01*
X4969160Y-41520000D01*
X4214483Y-41520000D01*
X4285801Y-41435007D01*
X4325000Y-41327306D01*
X4325000Y-41212694D01*
X4285801Y-41104993D01*
X4214483Y-41020000D01*
X4969160Y-41020000D01*
X4969160Y-41019999D01*
X4928347Y-40885458D01*
X4835496Y-40711746D01*
X4835492Y-40711739D01*
X4728647Y-40581549D01*
X4701334Y-40517239D01*
X4700500Y-40502884D01*
X4700500Y-39993002D01*
X31965996Y-39993002D01*
X31987079Y-40126121D01*
X31987080Y-40126124D01*
X31987081Y-40126126D01*
X32048272Y-40246220D01*
X32048273Y-40246221D01*
X32048276Y-40246225D01*
X32143574Y-40341523D01*
X32143578Y-40341526D01*
X32143580Y-40341528D01*
X32263674Y-40402719D01*
X32263676Y-40402719D01*
X32263678Y-40402720D01*
X32396798Y-40423804D01*
X32396800Y-40423804D01*
X32396802Y-40423804D01*
X32529921Y-40402720D01*
X32529921Y-40402719D01*
X32529926Y-40402719D01*
X32650020Y-40341528D01*
X32745328Y-40246220D01*
X32806519Y-40126126D01*
X32827604Y-39993000D01*
X32806519Y-39859874D01*
X32745328Y-39739780D01*
X32745326Y-39739778D01*
X32745323Y-39739774D01*
X32650025Y-39644476D01*
X32650021Y-39644473D01*
X32650020Y-39644472D01*
X32529926Y-39583281D01*
X32529924Y-39583280D01*
X32529921Y-39583279D01*
X32396802Y-39562196D01*
X32396798Y-39562196D01*
X32263678Y-39583279D01*
X32143578Y-39644473D01*
X32143574Y-39644476D01*
X32048276Y-39739774D01*
X32048273Y-39739778D01*
X31987079Y-39859878D01*
X31965996Y-39992997D01*
X31965996Y-39993002D01*
X4700500Y-39993002D01*
X4700500Y-39480249D01*
X4700499Y-39480247D01*
X4688868Y-39421770D01*
X4688867Y-39421769D01*
X4644552Y-39355447D01*
X4578230Y-39311132D01*
X4578229Y-39311131D01*
X4519752Y-39299500D01*
X4519748Y-39299500D01*
X3480252Y-39299500D01*
X3480247Y-39299500D01*
X3421770Y-39311131D01*
X3421769Y-39311132D01*
X3355447Y-39355447D01*
X3311132Y-39421769D01*
X3311131Y-39421770D01*
X3299500Y-39480247D01*
X3299500Y-40502885D01*
X3279815Y-40569924D01*
X3271353Y-40581550D01*
X3164507Y-40711739D01*
X3164503Y-40711746D01*
X3071652Y-40885458D01*
X3030839Y-41019999D01*
X500500Y-41019999D01*
X500500Y-38724602D01*
X27303696Y-38724602D01*
X27324779Y-38857721D01*
X27324780Y-38857724D01*
X27324781Y-38857726D01*
X27385972Y-38977820D01*
X27385973Y-38977821D01*
X27385976Y-38977825D01*
X27481274Y-39073123D01*
X27481278Y-39073126D01*
X27481280Y-39073128D01*
X27601374Y-39134319D01*
X27601376Y-39134319D01*
X27601378Y-39134320D01*
X27734498Y-39155404D01*
X27734500Y-39155404D01*
X27734502Y-39155404D01*
X27867621Y-39134320D01*
X27867621Y-39134319D01*
X27867626Y-39134319D01*
X27987720Y-39073128D01*
X28083028Y-38977820D01*
X28144219Y-38857726D01*
X28165304Y-38724600D01*
X28144219Y-38591474D01*
X28083028Y-38471380D01*
X28083026Y-38471378D01*
X28083023Y-38471374D01*
X27987725Y-38376076D01*
X27987721Y-38376073D01*
X27987720Y-38376072D01*
X27867626Y-38314881D01*
X27867624Y-38314880D01*
X27867621Y-38314879D01*
X27734502Y-38293796D01*
X27734498Y-38293796D01*
X27601378Y-38314879D01*
X27481278Y-38376073D01*
X27481274Y-38376076D01*
X27385976Y-38471374D01*
X27385973Y-38471378D01*
X27324779Y-38591478D01*
X27303696Y-38724597D01*
X27303696Y-38724602D01*
X500500Y-38724602D01*
X500500Y-37107803D01*
X25353143Y-37107803D01*
X25372987Y-37233100D01*
X25372987Y-37233101D01*
X25372989Y-37233104D01*
X25430585Y-37346142D01*
X25430587Y-37346144D01*
X25430589Y-37346147D01*
X25520287Y-37435845D01*
X25520289Y-37435846D01*
X25520293Y-37435850D01*
X25633331Y-37493446D01*
X25633332Y-37493446D01*
X25633334Y-37493447D01*
X25758632Y-37513292D01*
X25758635Y-37513292D01*
X25758638Y-37513292D01*
X25883935Y-37493447D01*
X25883936Y-37493447D01*
X25883937Y-37493446D01*
X25883939Y-37493446D01*
X25996977Y-37435850D01*
X26086685Y-37346142D01*
X26144281Y-37233104D01*
X26144281Y-37233102D01*
X26144282Y-37233101D01*
X26144282Y-37233100D01*
X26164127Y-37107803D01*
X26164127Y-37107796D01*
X26144282Y-36982499D01*
X26144282Y-36982498D01*
X26144281Y-36982496D01*
X26086685Y-36869458D01*
X26086681Y-36869454D01*
X26086680Y-36869452D01*
X25996982Y-36779754D01*
X25996979Y-36779752D01*
X25996977Y-36779750D01*
X25883939Y-36722154D01*
X25883938Y-36722153D01*
X25883935Y-36722152D01*
X25758638Y-36702308D01*
X25758632Y-36702308D01*
X25633334Y-36722152D01*
X25633333Y-36722152D01*
X25557972Y-36760551D01*
X25520293Y-36779750D01*
X25520292Y-36779751D01*
X25520287Y-36779754D01*
X25430589Y-36869452D01*
X25430586Y-36869457D01*
X25372987Y-36982498D01*
X25372987Y-36982499D01*
X25353143Y-37107796D01*
X25353143Y-37107803D01*
X500500Y-37107803D01*
X500500Y-35682702D01*
X29327796Y-35682702D01*
X29348879Y-35815821D01*
X29348880Y-35815824D01*
X29348881Y-35815826D01*
X29410072Y-35935920D01*
X29410073Y-35935921D01*
X29410076Y-35935925D01*
X29505374Y-36031223D01*
X29505378Y-36031226D01*
X29505380Y-36031228D01*
X29625474Y-36092419D01*
X29625476Y-36092419D01*
X29625478Y-36092420D01*
X29758598Y-36113504D01*
X29758600Y-36113504D01*
X29758602Y-36113504D01*
X29891721Y-36092420D01*
X29891721Y-36092419D01*
X29891726Y-36092419D01*
X30011820Y-36031228D01*
X30107128Y-35935920D01*
X30168319Y-35815826D01*
X30189404Y-35682700D01*
X30168319Y-35549574D01*
X30107128Y-35429480D01*
X30107126Y-35429478D01*
X30107123Y-35429474D01*
X30011825Y-35334176D01*
X30011821Y-35334173D01*
X30011820Y-35334172D01*
X29891726Y-35272981D01*
X29891724Y-35272980D01*
X29891721Y-35272979D01*
X29758602Y-35251896D01*
X29758598Y-35251896D01*
X29625478Y-35272979D01*
X29505378Y-35334173D01*
X29505374Y-35334176D01*
X29410076Y-35429474D01*
X29410073Y-35429478D01*
X29348879Y-35549578D01*
X29327796Y-35682697D01*
X29327796Y-35682702D01*
X500500Y-35682702D01*
X500500Y-34239023D01*
X7681476Y-34239023D01*
X7701320Y-34364320D01*
X7701320Y-34364321D01*
X7706762Y-34375001D01*
X7758918Y-34477362D01*
X7758920Y-34477364D01*
X7758922Y-34477367D01*
X7848620Y-34567065D01*
X7848622Y-34567066D01*
X7848626Y-34567070D01*
X7961664Y-34624666D01*
X7961665Y-34624666D01*
X7961667Y-34624667D01*
X8086965Y-34644512D01*
X8086968Y-34644512D01*
X8086971Y-34644512D01*
X8212268Y-34624667D01*
X8212269Y-34624667D01*
X8212270Y-34624666D01*
X8212272Y-34624666D01*
X8325310Y-34567070D01*
X8415018Y-34477362D01*
X8472614Y-34364324D01*
X8472614Y-34364322D01*
X8472615Y-34364321D01*
X8472615Y-34364320D01*
X8490769Y-34249700D01*
X23984430Y-34249700D01*
X24004274Y-34374997D01*
X24004274Y-34374998D01*
X24004276Y-34375001D01*
X24061872Y-34488039D01*
X24061874Y-34488041D01*
X24061876Y-34488044D01*
X24151574Y-34577742D01*
X24151576Y-34577743D01*
X24151580Y-34577747D01*
X24264618Y-34635343D01*
X24264619Y-34635343D01*
X24264621Y-34635344D01*
X24389919Y-34655189D01*
X24389922Y-34655189D01*
X24389925Y-34655189D01*
X24515222Y-34635344D01*
X24515223Y-34635344D01*
X24515224Y-34635343D01*
X24515226Y-34635343D01*
X24628264Y-34577747D01*
X24717972Y-34488039D01*
X24775568Y-34375001D01*
X24775568Y-34374999D01*
X24775569Y-34374998D01*
X24775569Y-34374997D01*
X24795414Y-34249700D01*
X24795414Y-34249693D01*
X24775569Y-34124396D01*
X24775569Y-34124395D01*
X24770128Y-34113716D01*
X24717972Y-34011355D01*
X24717968Y-34011351D01*
X24717967Y-34011349D01*
X24628269Y-33921651D01*
X24628266Y-33921649D01*
X24628264Y-33921647D01*
X24515226Y-33864051D01*
X24515225Y-33864050D01*
X24515222Y-33864049D01*
X24389925Y-33844205D01*
X24389919Y-33844205D01*
X24264621Y-33864049D01*
X24264620Y-33864049D01*
X24189259Y-33902448D01*
X24151580Y-33921647D01*
X24151579Y-33921648D01*
X24151574Y-33921651D01*
X24061876Y-34011349D01*
X24061873Y-34011354D01*
X24004274Y-34124395D01*
X24004274Y-34124396D01*
X23984430Y-34249693D01*
X23984430Y-34249700D01*
X8490769Y-34249700D01*
X8492460Y-34239023D01*
X8492460Y-34239016D01*
X8472615Y-34113719D01*
X8472615Y-34113718D01*
X8472614Y-34113716D01*
X8415018Y-34000678D01*
X8415014Y-34000674D01*
X8415013Y-34000672D01*
X8325315Y-33910974D01*
X8325312Y-33910972D01*
X8325310Y-33910970D01*
X8212272Y-33853374D01*
X8212271Y-33853373D01*
X8212268Y-33853372D01*
X8086971Y-33833528D01*
X8086965Y-33833528D01*
X7961667Y-33853372D01*
X7961666Y-33853372D01*
X7886305Y-33891771D01*
X7848626Y-33910970D01*
X7848625Y-33910971D01*
X7848620Y-33910974D01*
X7758922Y-34000672D01*
X7758919Y-34000677D01*
X7758918Y-34000678D01*
X7753478Y-34011355D01*
X7701320Y-34113718D01*
X7701320Y-34113719D01*
X7681476Y-34239016D01*
X7681476Y-34239023D01*
X500500Y-34239023D01*
X500500Y-33473702D01*
X11767696Y-33473702D01*
X11788779Y-33606821D01*
X11788780Y-33606824D01*
X11788781Y-33606826D01*
X11849972Y-33726920D01*
X11849973Y-33726921D01*
X11849976Y-33726925D01*
X11945274Y-33822223D01*
X11945278Y-33822226D01*
X11945280Y-33822228D01*
X12065374Y-33883419D01*
X12065376Y-33883419D01*
X12065378Y-33883420D01*
X12198498Y-33904504D01*
X12198500Y-33904504D01*
X12198502Y-33904504D01*
X12331621Y-33883420D01*
X12331621Y-33883419D01*
X12331626Y-33883419D01*
X12451720Y-33822228D01*
X12547028Y-33726920D01*
X12608219Y-33606826D01*
X12629304Y-33473700D01*
X12608219Y-33340574D01*
X12547028Y-33220480D01*
X12547026Y-33220478D01*
X12547023Y-33220474D01*
X12451725Y-33125176D01*
X12451721Y-33125173D01*
X12451720Y-33125172D01*
X12331626Y-33063981D01*
X12331624Y-33063980D01*
X12331621Y-33063979D01*
X12198502Y-33042896D01*
X12198498Y-33042896D01*
X12065378Y-33063979D01*
X11945278Y-33125173D01*
X11945274Y-33125176D01*
X11849976Y-33220474D01*
X11849973Y-33220478D01*
X11788779Y-33340578D01*
X11767696Y-33473697D01*
X11767696Y-33473702D01*
X500500Y-33473702D01*
X500500Y-33007817D01*
X520185Y-32940778D01*
X572989Y-32895023D01*
X642147Y-32885079D01*
X705703Y-32914104D01*
X722563Y-32931924D01*
X725153Y-32935271D01*
X865264Y-33082668D01*
X865266Y-33082669D01*
X1032195Y-33198856D01*
X1219092Y-33279059D01*
X1418310Y-33320000D01*
X1820000Y-33320000D01*
X1820000Y-32620000D01*
X2320000Y-32620000D01*
X2320000Y-33320000D01*
X2670713Y-33320000D01*
X2822338Y-33304581D01*
X3016381Y-33243700D01*
X3016391Y-33243695D01*
X3194215Y-33144994D01*
X3194216Y-33144994D01*
X3348530Y-33012521D01*
X3348531Y-33012520D01*
X3473018Y-32851695D01*
X3562588Y-32669093D01*
X3588246Y-32570000D01*
X4976634Y-32570000D01*
X4976931Y-32571946D01*
X4976933Y-32571952D01*
X5047562Y-32762657D01*
X5047565Y-32762664D01*
X5155149Y-32935267D01*
X5295264Y-33082668D01*
X5295266Y-33082669D01*
X5462195Y-33198856D01*
X5649092Y-33279059D01*
X5848310Y-33320000D01*
X6000000Y-33320000D01*
X6000000Y-32620000D01*
X6500000Y-32620000D01*
X6500000Y-33320000D01*
X6600713Y-33320000D01*
X6752338Y-33304581D01*
X6946381Y-33243700D01*
X6946391Y-33243695D01*
X7124215Y-33144994D01*
X7124216Y-33144994D01*
X7278530Y-33012521D01*
X7278531Y-33012520D01*
X7403018Y-32851695D01*
X7492588Y-32669093D01*
X7518246Y-32570000D01*
X6716111Y-32570000D01*
X6755610Y-32545543D01*
X6823201Y-32456038D01*
X6853895Y-32348160D01*
X6843546Y-32236479D01*
X6793552Y-32136078D01*
X6721069Y-32070000D01*
X7523366Y-32070000D01*
X7523068Y-32068053D01*
X7523066Y-32068047D01*
X7452437Y-31877342D01*
X7452434Y-31877335D01*
X7344850Y-31704732D01*
X7204735Y-31557331D01*
X7204733Y-31557330D01*
X7037804Y-31441143D01*
X6850907Y-31360940D01*
X6651690Y-31320000D01*
X6500000Y-31320000D01*
X6500000Y-32020000D01*
X6000000Y-32020000D01*
X6000000Y-31320000D01*
X5899287Y-31320000D01*
X5747661Y-31335418D01*
X5553618Y-31396299D01*
X5553608Y-31396304D01*
X5375784Y-31495005D01*
X5375783Y-31495005D01*
X5221469Y-31627478D01*
X5221468Y-31627479D01*
X5096981Y-31788304D01*
X5007411Y-31970906D01*
X4981754Y-32070000D01*
X5783889Y-32070000D01*
X5744390Y-32094457D01*
X5676799Y-32183962D01*
X5646105Y-32291840D01*
X5656454Y-32403521D01*
X5706448Y-32503922D01*
X5778931Y-32570000D01*
X4976634Y-32570000D01*
X3588246Y-32570000D01*
X2786111Y-32570000D01*
X2825610Y-32545543D01*
X2893201Y-32456038D01*
X2923895Y-32348160D01*
X2913546Y-32236479D01*
X2863552Y-32136078D01*
X2791069Y-32070000D01*
X3593366Y-32070000D01*
X3593068Y-32068053D01*
X3593066Y-32068047D01*
X3522437Y-31877342D01*
X3522434Y-31877335D01*
X3414850Y-31704732D01*
X3274735Y-31557331D01*
X3274733Y-31557330D01*
X3107804Y-31441143D01*
X3099924Y-31437762D01*
X3046080Y-31393235D01*
X3024857Y-31326666D01*
X3042992Y-31259192D01*
X3050443Y-31248332D01*
X3102698Y-31180233D01*
X3160687Y-31040236D01*
X3180466Y-30890000D01*
X3160687Y-30739764D01*
X3102698Y-30599767D01*
X3026570Y-30500556D01*
X11482705Y-30500556D01*
X11502549Y-30625853D01*
X11502549Y-30625854D01*
X11502551Y-30625857D01*
X11560147Y-30738895D01*
X11560149Y-30738897D01*
X11560151Y-30738900D01*
X11649849Y-30828598D01*
X11649851Y-30828599D01*
X11649855Y-30828603D01*
X11762893Y-30886199D01*
X11762894Y-30886199D01*
X11762896Y-30886200D01*
X11888194Y-30906045D01*
X11888197Y-30906045D01*
X11888200Y-30906045D01*
X12013497Y-30886200D01*
X12013498Y-30886200D01*
X12013499Y-30886199D01*
X12013501Y-30886199D01*
X12126539Y-30828603D01*
X12216247Y-30738895D01*
X12273843Y-30625857D01*
X12273843Y-30625855D01*
X12273844Y-30625854D01*
X12273844Y-30625853D01*
X12293689Y-30500556D01*
X12293689Y-30500549D01*
X12273844Y-30375252D01*
X12273844Y-30375251D01*
X12273843Y-30375249D01*
X12216247Y-30262211D01*
X12216243Y-30262207D01*
X12216242Y-30262205D01*
X12126544Y-30172507D01*
X12126541Y-30172505D01*
X12126539Y-30172503D01*
X12013501Y-30114907D01*
X12013500Y-30114906D01*
X12013497Y-30114905D01*
X11888200Y-30095061D01*
X11888194Y-30095061D01*
X11762896Y-30114905D01*
X11762895Y-30114905D01*
X11687534Y-30153304D01*
X11649855Y-30172503D01*
X11649854Y-30172504D01*
X11649849Y-30172507D01*
X11560151Y-30262205D01*
X11560148Y-30262210D01*
X11560147Y-30262211D01*
X11545958Y-30290059D01*
X11502549Y-30375251D01*
X11502549Y-30375252D01*
X11482705Y-30500549D01*
X11482705Y-30500556D01*
X3026570Y-30500556D01*
X3010451Y-30479549D01*
X3007327Y-30477152D01*
X3005361Y-30474459D01*
X3004704Y-30473802D01*
X3004806Y-30473699D01*
X2966127Y-30420725D01*
X2961973Y-30350979D01*
X2996187Y-30290059D01*
X3057904Y-30257307D01*
X3102215Y-30256306D01*
X3146398Y-30263304D01*
X3146400Y-30263304D01*
X3146402Y-30263304D01*
X3279521Y-30242220D01*
X3279521Y-30242219D01*
X3279526Y-30242219D01*
X3399620Y-30181028D01*
X3494928Y-30085720D01*
X3556119Y-29965626D01*
X3559604Y-29943621D01*
X3577204Y-29832502D01*
X3577204Y-29832497D01*
X3556120Y-29699378D01*
X3556119Y-29699376D01*
X3556119Y-29699374D01*
X3551548Y-29690402D01*
X24681396Y-29690402D01*
X24702479Y-29823521D01*
X24702480Y-29823524D01*
X24702481Y-29823526D01*
X24707055Y-29832502D01*
X24763673Y-29943621D01*
X24763676Y-29943625D01*
X24858974Y-30038923D01*
X24858978Y-30038926D01*
X24858980Y-30038928D01*
X24979074Y-30100119D01*
X24979076Y-30100119D01*
X24979078Y-30100120D01*
X25112198Y-30121204D01*
X25112200Y-30121204D01*
X25112202Y-30121204D01*
X25245321Y-30100120D01*
X25245321Y-30100119D01*
X25245326Y-30100119D01*
X25365420Y-30038928D01*
X25460728Y-29943620D01*
X25521919Y-29823526D01*
X25543004Y-29690400D01*
X25525404Y-29579280D01*
X25521920Y-29557278D01*
X25521919Y-29557276D01*
X25521919Y-29557274D01*
X25460728Y-29437180D01*
X25460726Y-29437178D01*
X25460723Y-29437174D01*
X25365425Y-29341876D01*
X25365421Y-29341873D01*
X25365420Y-29341872D01*
X25245326Y-29280681D01*
X25245324Y-29280680D01*
X25245321Y-29280679D01*
X25112202Y-29259596D01*
X25112198Y-29259596D01*
X24979078Y-29280679D01*
X24979074Y-29280680D01*
X24979074Y-29280681D01*
X24924706Y-29308383D01*
X24858978Y-29341873D01*
X24858974Y-29341876D01*
X24763676Y-29437174D01*
X24763673Y-29437178D01*
X24702479Y-29557278D01*
X24681396Y-29690397D01*
X24681396Y-29690402D01*
X3551548Y-29690402D01*
X3494928Y-29579280D01*
X3494926Y-29579278D01*
X3494923Y-29579274D01*
X3399625Y-29483976D01*
X3399621Y-29483973D01*
X3399620Y-29483972D01*
X3279526Y-29422781D01*
X3279524Y-29422780D01*
X3279521Y-29422779D01*
X3146402Y-29401696D01*
X3146398Y-29401696D01*
X3013278Y-29422779D01*
X2893178Y-29483973D01*
X2893174Y-29483976D01*
X2797876Y-29579274D01*
X2797873Y-29579278D01*
X2797872Y-29579280D01*
X2741254Y-29690400D01*
X2736679Y-29699378D01*
X2715596Y-29832497D01*
X2715596Y-29832502D01*
X2736679Y-29965621D01*
X2736680Y-29965624D01*
X2736681Y-29965626D01*
X2797872Y-30085720D01*
X2797873Y-30085721D01*
X2797876Y-30085725D01*
X2827317Y-30115166D01*
X2860802Y-30176489D01*
X2855818Y-30246181D01*
X2813946Y-30302114D01*
X2748482Y-30326531D01*
X2723451Y-30325786D01*
X2637730Y-30314501D01*
X2637725Y-30314500D01*
X2637720Y-30314500D01*
X2562280Y-30314500D01*
X2562272Y-30314500D01*
X2449764Y-30329313D01*
X2449763Y-30329313D01*
X2309770Y-30387300D01*
X2189549Y-30479549D01*
X2097300Y-30599770D01*
X2039313Y-30739763D01*
X2039312Y-30739765D01*
X2019534Y-30889999D01*
X2019534Y-30890000D01*
X2039312Y-31040234D01*
X2039313Y-31040236D01*
X2084177Y-31148547D01*
X2091646Y-31218017D01*
X2060371Y-31280496D01*
X2000282Y-31316148D01*
X1969616Y-31320000D01*
X1469287Y-31320000D01*
X1317661Y-31335418D01*
X1123618Y-31396299D01*
X1123608Y-31396304D01*
X945784Y-31495005D01*
X945783Y-31495005D01*
X791471Y-31627477D01*
X722556Y-31716508D01*
X665954Y-31757471D01*
X596191Y-31761331D01*
X535416Y-31726862D01*
X502925Y-31665007D01*
X500500Y-31640606D01*
X500500Y-29070044D01*
X13073992Y-29070044D01*
X13093836Y-29195341D01*
X13093836Y-29195342D01*
X13093838Y-29195345D01*
X13151434Y-29308383D01*
X13151436Y-29308385D01*
X13151438Y-29308388D01*
X13241136Y-29398086D01*
X13241138Y-29398087D01*
X13241142Y-29398091D01*
X13354180Y-29455687D01*
X13354181Y-29455687D01*
X13354183Y-29455688D01*
X13479481Y-29475533D01*
X13479484Y-29475533D01*
X13479487Y-29475533D01*
X13604784Y-29455688D01*
X13604785Y-29455688D01*
X13604786Y-29455687D01*
X13604788Y-29455687D01*
X13717826Y-29398091D01*
X13807534Y-29308383D01*
X13865130Y-29195345D01*
X13865130Y-29195343D01*
X13865131Y-29195342D01*
X13865131Y-29195341D01*
X13871035Y-29158066D01*
X15532092Y-29158066D01*
X15551936Y-29283363D01*
X15551936Y-29283364D01*
X15551938Y-29283367D01*
X15609534Y-29396405D01*
X15609536Y-29396407D01*
X15609538Y-29396410D01*
X15699236Y-29486108D01*
X15699238Y-29486109D01*
X15699242Y-29486113D01*
X15812280Y-29543709D01*
X15812281Y-29543709D01*
X15812283Y-29543710D01*
X15937581Y-29563555D01*
X15937584Y-29563555D01*
X15937587Y-29563555D01*
X16062884Y-29543710D01*
X16062885Y-29543710D01*
X16062886Y-29543709D01*
X16062888Y-29543709D01*
X16175926Y-29486113D01*
X16265634Y-29396405D01*
X16323230Y-29283367D01*
X16323230Y-29283365D01*
X16323231Y-29283364D01*
X16323231Y-29283363D01*
X16343076Y-29158066D01*
X16343076Y-29158059D01*
X16323231Y-29032762D01*
X16323231Y-29032761D01*
X16309375Y-29005568D01*
X16265634Y-28919721D01*
X16265630Y-28919717D01*
X16265629Y-28919715D01*
X16175931Y-28830017D01*
X16175928Y-28830015D01*
X16175926Y-28830013D01*
X16062888Y-28772417D01*
X16062887Y-28772416D01*
X16062884Y-28772415D01*
X16030139Y-28767229D01*
X18168755Y-28767229D01*
X18188599Y-28892526D01*
X18188599Y-28892527D01*
X18207052Y-28928743D01*
X18246197Y-29005568D01*
X18246199Y-29005570D01*
X18246201Y-29005573D01*
X18335899Y-29095271D01*
X18335901Y-29095272D01*
X18335905Y-29095276D01*
X18448943Y-29152872D01*
X18448944Y-29152872D01*
X18448946Y-29152873D01*
X18574244Y-29172718D01*
X18574247Y-29172718D01*
X18574250Y-29172718D01*
X18699547Y-29152873D01*
X18699548Y-29152873D01*
X18699549Y-29152872D01*
X18699551Y-29152872D01*
X18812589Y-29095276D01*
X18902297Y-29005568D01*
X18959893Y-28892530D01*
X18959893Y-28892528D01*
X18959894Y-28892527D01*
X18959894Y-28892526D01*
X18979739Y-28767229D01*
X18979739Y-28767222D01*
X18959894Y-28641925D01*
X18959894Y-28641924D01*
X18959893Y-28641922D01*
X18902297Y-28528884D01*
X18902293Y-28528880D01*
X18902292Y-28528878D01*
X18812594Y-28439180D01*
X18812591Y-28439178D01*
X18812589Y-28439176D01*
X18699551Y-28381580D01*
X18699550Y-28381579D01*
X18699547Y-28381578D01*
X18574250Y-28361734D01*
X18574244Y-28361734D01*
X18448946Y-28381578D01*
X18448945Y-28381578D01*
X18373584Y-28419977D01*
X18335905Y-28439176D01*
X18335904Y-28439177D01*
X18335899Y-28439180D01*
X18246201Y-28528878D01*
X18246198Y-28528883D01*
X18188599Y-28641924D01*
X18188599Y-28641925D01*
X18168755Y-28767222D01*
X18168755Y-28767229D01*
X16030139Y-28767229D01*
X15937587Y-28752571D01*
X15937581Y-28752571D01*
X15812283Y-28772415D01*
X15812282Y-28772415D01*
X15736921Y-28810814D01*
X15699242Y-28830013D01*
X15699241Y-28830014D01*
X15699236Y-28830017D01*
X15609538Y-28919715D01*
X15609535Y-28919720D01*
X15551936Y-29032761D01*
X15551936Y-29032762D01*
X15532092Y-29158059D01*
X15532092Y-29158066D01*
X13871035Y-29158066D01*
X13884976Y-29070044D01*
X13884976Y-29070037D01*
X13865131Y-28944740D01*
X13865131Y-28944739D01*
X13865130Y-28944737D01*
X13807534Y-28831699D01*
X13807530Y-28831695D01*
X13807529Y-28831693D01*
X13717831Y-28741995D01*
X13717828Y-28741993D01*
X13717826Y-28741991D01*
X13604788Y-28684395D01*
X13604787Y-28684394D01*
X13604784Y-28684393D01*
X13479487Y-28664549D01*
X13479481Y-28664549D01*
X13354183Y-28684393D01*
X13354182Y-28684393D01*
X13278821Y-28722792D01*
X13241142Y-28741991D01*
X13241141Y-28741992D01*
X13241136Y-28741995D01*
X13151438Y-28831693D01*
X13151435Y-28831698D01*
X13093836Y-28944739D01*
X13093836Y-28944740D01*
X13073992Y-29070037D01*
X13073992Y-29070044D01*
X500500Y-29070044D01*
X500500Y-27954202D01*
X20465096Y-27954202D01*
X20486179Y-28087321D01*
X20486180Y-28087324D01*
X20486181Y-28087326D01*
X20547372Y-28207420D01*
X20547373Y-28207421D01*
X20547376Y-28207425D01*
X20642674Y-28302723D01*
X20642678Y-28302726D01*
X20642680Y-28302728D01*
X20762774Y-28363919D01*
X20762776Y-28363919D01*
X20762778Y-28363920D01*
X20895898Y-28385004D01*
X20895900Y-28385004D01*
X20895902Y-28385004D01*
X21029021Y-28363920D01*
X21029021Y-28363919D01*
X21029026Y-28363919D01*
X21149120Y-28302728D01*
X21244428Y-28207420D01*
X21305619Y-28087326D01*
X21326704Y-27954200D01*
X21305619Y-27821074D01*
X21244428Y-27700980D01*
X21244426Y-27700978D01*
X21244423Y-27700974D01*
X21149125Y-27605676D01*
X21149121Y-27605673D01*
X21149120Y-27605672D01*
X21029026Y-27544481D01*
X21029024Y-27544480D01*
X21029021Y-27544479D01*
X20895902Y-27523396D01*
X20895898Y-27523396D01*
X20762778Y-27544479D01*
X20642678Y-27605673D01*
X20642674Y-27605676D01*
X20547376Y-27700974D01*
X20547373Y-27700978D01*
X20486179Y-27821078D01*
X20465096Y-27954197D01*
X20465096Y-27954202D01*
X500500Y-27954202D01*
X500500Y-26632802D01*
X1968496Y-26632802D01*
X1989579Y-26765921D01*
X1989580Y-26765924D01*
X1989581Y-26765926D01*
X2050772Y-26886020D01*
X2050773Y-26886021D01*
X2050776Y-26886025D01*
X2146074Y-26981323D01*
X2146078Y-26981326D01*
X2146080Y-26981328D01*
X2266174Y-27042519D01*
X2266176Y-27042519D01*
X2266178Y-27042520D01*
X2399298Y-27063604D01*
X2399300Y-27063604D01*
X2399302Y-27063604D01*
X2532421Y-27042520D01*
X2532421Y-27042519D01*
X2532426Y-27042519D01*
X2652520Y-26981328D01*
X2747828Y-26886020D01*
X2809019Y-26765926D01*
X2816546Y-26718402D01*
X25174996Y-26718402D01*
X25196079Y-26851521D01*
X25196080Y-26851524D01*
X25196081Y-26851526D01*
X25257272Y-26971620D01*
X25257273Y-26971621D01*
X25257276Y-26971625D01*
X25352574Y-27066923D01*
X25352578Y-27066926D01*
X25352580Y-27066928D01*
X25472674Y-27128119D01*
X25472676Y-27128119D01*
X25472678Y-27128120D01*
X25605798Y-27149204D01*
X25605800Y-27149204D01*
X25605802Y-27149204D01*
X25738921Y-27128120D01*
X25738921Y-27128119D01*
X25738926Y-27128119D01*
X25859020Y-27066928D01*
X25954328Y-26971620D01*
X26015519Y-26851526D01*
X26029077Y-26765926D01*
X26036604Y-26718402D01*
X26036604Y-26718397D01*
X26015520Y-26585278D01*
X26015519Y-26585276D01*
X26015519Y-26585274D01*
X25954328Y-26465180D01*
X25954326Y-26465178D01*
X25954323Y-26465174D01*
X25859025Y-26369876D01*
X25859021Y-26369873D01*
X25859020Y-26369872D01*
X25738926Y-26308681D01*
X25738924Y-26308680D01*
X25738921Y-26308679D01*
X25605802Y-26287596D01*
X25605798Y-26287596D01*
X25472678Y-26308679D01*
X25352578Y-26369873D01*
X25352574Y-26369876D01*
X25257276Y-26465174D01*
X25257273Y-26465178D01*
X25196079Y-26585278D01*
X25174996Y-26718397D01*
X25174996Y-26718402D01*
X2816546Y-26718402D01*
X2830104Y-26632802D01*
X2830104Y-26632797D01*
X2809020Y-26499678D01*
X2809019Y-26499676D01*
X2809019Y-26499674D01*
X2747828Y-26379580D01*
X2747826Y-26379578D01*
X2747823Y-26379574D01*
X2652525Y-26284276D01*
X2652521Y-26284273D01*
X2652520Y-26284272D01*
X2532426Y-26223081D01*
X2532424Y-26223080D01*
X2532421Y-26223079D01*
X2399302Y-26201996D01*
X2399298Y-26201996D01*
X2266178Y-26223079D01*
X2146078Y-26284273D01*
X2146074Y-26284276D01*
X2050776Y-26379574D01*
X2050773Y-26379578D01*
X1989579Y-26499678D01*
X1968496Y-26632797D01*
X1968496Y-26632802D01*
X500500Y-26632802D01*
X500500Y-24367817D01*
X520185Y-24300778D01*
X572989Y-24255023D01*
X642147Y-24245079D01*
X705703Y-24274104D01*
X722563Y-24291924D01*
X725153Y-24295271D01*
X865264Y-24442668D01*
X865266Y-24442669D01*
X1032195Y-24558856D01*
X1219092Y-24639059D01*
X1418310Y-24680000D01*
X1969616Y-24680000D01*
X2036655Y-24699685D01*
X2082410Y-24752489D01*
X2092354Y-24821647D01*
X2084177Y-24851453D01*
X2039313Y-24959763D01*
X2039312Y-24959765D01*
X2019534Y-25109999D01*
X2019534Y-25110000D01*
X2039312Y-25260234D01*
X2039313Y-25260236D01*
X2093035Y-25389933D01*
X2097302Y-25400233D01*
X2189549Y-25520451D01*
X2309767Y-25612698D01*
X2449764Y-25670687D01*
X2562280Y-25685500D01*
X2562287Y-25685500D01*
X2637713Y-25685500D01*
X2637720Y-25685500D01*
X2750236Y-25670687D01*
X2890233Y-25612698D01*
X3010451Y-25520451D01*
X3070371Y-25442362D01*
X3275377Y-25442362D01*
X3297310Y-25483691D01*
X3298312Y-25528002D01*
X3277296Y-25660696D01*
X3277296Y-25660702D01*
X3298379Y-25793821D01*
X3298380Y-25793824D01*
X3298381Y-25793826D01*
X3353405Y-25901816D01*
X3359573Y-25913921D01*
X3359576Y-25913925D01*
X3454874Y-26009223D01*
X3454878Y-26009226D01*
X3454880Y-26009228D01*
X3574974Y-26070419D01*
X3574976Y-26070419D01*
X3574978Y-26070420D01*
X3708098Y-26091504D01*
X3708100Y-26091504D01*
X3708102Y-26091504D01*
X3841221Y-26070420D01*
X3841221Y-26070419D01*
X3841226Y-26070419D01*
X3961320Y-26009228D01*
X4056628Y-25913920D01*
X4117819Y-25793826D01*
X4117820Y-25793821D01*
X4138904Y-25660702D01*
X4138904Y-25660697D01*
X4125136Y-25573771D01*
X28719703Y-25573771D01*
X28739547Y-25699068D01*
X28739547Y-25699069D01*
X28739549Y-25699072D01*
X28797145Y-25812110D01*
X28797147Y-25812112D01*
X28797149Y-25812115D01*
X28886847Y-25901813D01*
X28886849Y-25901814D01*
X28886853Y-25901818D01*
X28999891Y-25959414D01*
X28999892Y-25959414D01*
X28999894Y-25959415D01*
X29125192Y-25979260D01*
X29125195Y-25979260D01*
X29125198Y-25979260D01*
X29250495Y-25959415D01*
X29250496Y-25959415D01*
X29250497Y-25959414D01*
X29250499Y-25959414D01*
X29363537Y-25901818D01*
X29453245Y-25812110D01*
X29510841Y-25699072D01*
X29510841Y-25699070D01*
X29510842Y-25699069D01*
X29510842Y-25699068D01*
X29530687Y-25573771D01*
X29530687Y-25573764D01*
X29510842Y-25448467D01*
X29510842Y-25448466D01*
X29510841Y-25448464D01*
X29453245Y-25335426D01*
X29453241Y-25335422D01*
X29453240Y-25335420D01*
X29363542Y-25245722D01*
X29363539Y-25245720D01*
X29363537Y-25245718D01*
X29250499Y-25188122D01*
X29250498Y-25188121D01*
X29250495Y-25188120D01*
X29125198Y-25168276D01*
X29125192Y-25168276D01*
X28999894Y-25188120D01*
X28999893Y-25188120D01*
X28924532Y-25226519D01*
X28886853Y-25245718D01*
X28886852Y-25245719D01*
X28886847Y-25245722D01*
X28797149Y-25335420D01*
X28797146Y-25335425D01*
X28739547Y-25448466D01*
X28739547Y-25448467D01*
X28719703Y-25573764D01*
X28719703Y-25573771D01*
X4125136Y-25573771D01*
X4117820Y-25527578D01*
X4117819Y-25527576D01*
X4117819Y-25527574D01*
X4056628Y-25407480D01*
X4056626Y-25407478D01*
X4056623Y-25407474D01*
X3961325Y-25312176D01*
X3961321Y-25312173D01*
X3961320Y-25312172D01*
X3841226Y-25250981D01*
X3841224Y-25250980D01*
X3841221Y-25250979D01*
X3708102Y-25229896D01*
X3708098Y-25229896D01*
X3574978Y-25250979D01*
X3454878Y-25312173D01*
X3356739Y-25410312D01*
X3295416Y-25443796D01*
X3275377Y-25442362D01*
X3070371Y-25442362D01*
X3077464Y-25433118D01*
X3133891Y-25391916D01*
X3167177Y-25389933D01*
X3145374Y-25331475D01*
X3154498Y-25275176D01*
X3160687Y-25260236D01*
X3180466Y-25110000D01*
X3160687Y-24959764D01*
X3102698Y-24819767D01*
X3102697Y-24819765D01*
X3077388Y-24786783D01*
X3048199Y-24748743D01*
X3023005Y-24683576D01*
X3037043Y-24615131D01*
X3085856Y-24565141D01*
X3086398Y-24564839D01*
X3194211Y-24504997D01*
X3194216Y-24504994D01*
X3348530Y-24372521D01*
X3348531Y-24372520D01*
X3473018Y-24211695D01*
X3562588Y-24029093D01*
X3588246Y-23930000D01*
X4976634Y-23930000D01*
X4976931Y-23931946D01*
X4976933Y-23931952D01*
X5047562Y-24122657D01*
X5047565Y-24122664D01*
X5155149Y-24295267D01*
X5295264Y-24442668D01*
X5295266Y-24442669D01*
X5462195Y-24558856D01*
X5649092Y-24639059D01*
X5848310Y-24680000D01*
X6000000Y-24680000D01*
X6000000Y-23980000D01*
X6500000Y-23980000D01*
X6500000Y-24680000D01*
X6600713Y-24680000D01*
X6752338Y-24664581D01*
X6946381Y-24603700D01*
X6946391Y-24603695D01*
X7124215Y-24504994D01*
X7124216Y-24504994D01*
X7278530Y-24372521D01*
X7278531Y-24372520D01*
X7403018Y-24211695D01*
X7492588Y-24029093D01*
X7518246Y-23930000D01*
X6716111Y-23930000D01*
X6755610Y-23905543D01*
X6823201Y-23816038D01*
X6853895Y-23708160D01*
X6843546Y-23596479D01*
X6793552Y-23496078D01*
X6721069Y-23430000D01*
X7523366Y-23430000D01*
X7523068Y-23428053D01*
X7523066Y-23428047D01*
X7452437Y-23237342D01*
X7452434Y-23237335D01*
X7344850Y-23064732D01*
X7204735Y-22917331D01*
X7204733Y-22917330D01*
X7037804Y-22801143D01*
X6850907Y-22720940D01*
X6651690Y-22680000D01*
X6500000Y-22680000D01*
X6500000Y-23380000D01*
X6000000Y-23380000D01*
X6000000Y-22680000D01*
X5899287Y-22680000D01*
X5747661Y-22695418D01*
X5553618Y-22756299D01*
X5553608Y-22756304D01*
X5375784Y-22855005D01*
X5375783Y-22855005D01*
X5221469Y-22987478D01*
X5221468Y-22987479D01*
X5096981Y-23148304D01*
X5007411Y-23330906D01*
X4981754Y-23430000D01*
X5783889Y-23430000D01*
X5744390Y-23454457D01*
X5676799Y-23543962D01*
X5646105Y-23651840D01*
X5656454Y-23763521D01*
X5706448Y-23863922D01*
X5778931Y-23930000D01*
X4976634Y-23930000D01*
X3588246Y-23930000D01*
X2786111Y-23930000D01*
X2825610Y-23905543D01*
X2893201Y-23816038D01*
X2923895Y-23708160D01*
X2913546Y-23596479D01*
X2863552Y-23496078D01*
X2791069Y-23430000D01*
X3593366Y-23430000D01*
X3593068Y-23428053D01*
X3593066Y-23428047D01*
X3522437Y-23237342D01*
X3522434Y-23237335D01*
X3414850Y-23064732D01*
X3274735Y-22917331D01*
X3274733Y-22917330D01*
X3107804Y-22801143D01*
X2920907Y-22720940D01*
X2721690Y-22680000D01*
X2320000Y-22680000D01*
X2320000Y-23380000D01*
X1820000Y-23380000D01*
X1820000Y-22680000D01*
X1469287Y-22680000D01*
X1317661Y-22695418D01*
X1123618Y-22756299D01*
X1123608Y-22756304D01*
X945784Y-22855005D01*
X945783Y-22855005D01*
X791471Y-22987477D01*
X722556Y-23076508D01*
X665954Y-23117471D01*
X596191Y-23121331D01*
X535416Y-23086862D01*
X502925Y-23025007D01*
X500500Y-23000606D01*
X500500Y-22000003D01*
X31014508Y-22000003D01*
X31034352Y-22125300D01*
X31034352Y-22125301D01*
X31034354Y-22125304D01*
X31091950Y-22238342D01*
X31091952Y-22238344D01*
X31091954Y-22238347D01*
X31181652Y-22328045D01*
X31181654Y-22328046D01*
X31181658Y-22328050D01*
X31294696Y-22385646D01*
X31294697Y-22385646D01*
X31294699Y-22385647D01*
X31419997Y-22405492D01*
X31420000Y-22405492D01*
X31420003Y-22405492D01*
X31545300Y-22385647D01*
X31545301Y-22385647D01*
X31545302Y-22385646D01*
X31545304Y-22385646D01*
X31658342Y-22328050D01*
X31748050Y-22238342D01*
X31805646Y-22125304D01*
X31805646Y-22125302D01*
X31805647Y-22125301D01*
X31805647Y-22125300D01*
X31825492Y-22000003D01*
X31825492Y-21999996D01*
X31805647Y-21874699D01*
X31805647Y-21874698D01*
X31785749Y-21835647D01*
X31748050Y-21761658D01*
X31748046Y-21761654D01*
X31748045Y-21761652D01*
X31658347Y-21671954D01*
X31658344Y-21671952D01*
X31658342Y-21671950D01*
X31545304Y-21614354D01*
X31545303Y-21614353D01*
X31545300Y-21614352D01*
X31420003Y-21594508D01*
X31419997Y-21594508D01*
X31294699Y-21614352D01*
X31294698Y-21614352D01*
X31219337Y-21652751D01*
X31181658Y-21671950D01*
X31181657Y-21671951D01*
X31181652Y-21671954D01*
X31091954Y-21761652D01*
X31091951Y-21761657D01*
X31091950Y-21761658D01*
X31083599Y-21778048D01*
X31034352Y-21874698D01*
X31034352Y-21874699D01*
X31014508Y-21999996D01*
X31014508Y-22000003D01*
X500500Y-22000003D01*
X500500Y-21450003D01*
X27679508Y-21450003D01*
X27699352Y-21575300D01*
X27699352Y-21575301D01*
X27699354Y-21575304D01*
X27756950Y-21688342D01*
X27756952Y-21688344D01*
X27756954Y-21688347D01*
X27846652Y-21778045D01*
X27846654Y-21778046D01*
X27846658Y-21778050D01*
X27959696Y-21835646D01*
X27959697Y-21835646D01*
X27959699Y-21835647D01*
X28084997Y-21855492D01*
X28085000Y-21855492D01*
X28085003Y-21855492D01*
X28210300Y-21835647D01*
X28210301Y-21835647D01*
X28210302Y-21835646D01*
X28210304Y-21835646D01*
X28323342Y-21778050D01*
X28413050Y-21688342D01*
X28470646Y-21575304D01*
X28470646Y-21575302D01*
X28470647Y-21575301D01*
X28470647Y-21575300D01*
X28490492Y-21450003D01*
X28490492Y-21449996D01*
X28470647Y-21324699D01*
X28470647Y-21324698D01*
X28470646Y-21324696D01*
X28413050Y-21211658D01*
X28413046Y-21211654D01*
X28413045Y-21211652D01*
X28323347Y-21121954D01*
X28323344Y-21121952D01*
X28323342Y-21121950D01*
X28210304Y-21064354D01*
X28210303Y-21064353D01*
X28210300Y-21064352D01*
X28085003Y-21044508D01*
X28084997Y-21044508D01*
X27959699Y-21064352D01*
X27959698Y-21064352D01*
X27884337Y-21102751D01*
X27846658Y-21121950D01*
X27846657Y-21121951D01*
X27846652Y-21121954D01*
X27756954Y-21211652D01*
X27756951Y-21211657D01*
X27699352Y-21324698D01*
X27699352Y-21324699D01*
X27679508Y-21449996D01*
X27679508Y-21450003D01*
X500500Y-21450003D01*
X500500Y-19726502D01*
X26544596Y-19726502D01*
X26565679Y-19859621D01*
X26565680Y-19859624D01*
X26565681Y-19859626D01*
X26626872Y-19979720D01*
X26626873Y-19979721D01*
X26626876Y-19979725D01*
X26722174Y-20075023D01*
X26722178Y-20075026D01*
X26722180Y-20075028D01*
X26842274Y-20136219D01*
X26842276Y-20136219D01*
X26842278Y-20136220D01*
X26975398Y-20157304D01*
X26975400Y-20157304D01*
X26975402Y-20157304D01*
X27108521Y-20136220D01*
X27108521Y-20136219D01*
X27108526Y-20136219D01*
X27228620Y-20075028D01*
X27323928Y-19979720D01*
X27385119Y-19859626D01*
X27406204Y-19726500D01*
X27399733Y-19685646D01*
X27385120Y-19593378D01*
X27385119Y-19593376D01*
X27385119Y-19593374D01*
X27323928Y-19473280D01*
X27323926Y-19473278D01*
X27323923Y-19473274D01*
X27228625Y-19377976D01*
X27228621Y-19377973D01*
X27228620Y-19377972D01*
X27108526Y-19316781D01*
X27108524Y-19316780D01*
X27108521Y-19316779D01*
X26975402Y-19295696D01*
X26975398Y-19295696D01*
X26842278Y-19316779D01*
X26722178Y-19377973D01*
X26722174Y-19377976D01*
X26626876Y-19473274D01*
X26626873Y-19473278D01*
X26565679Y-19593378D01*
X26544596Y-19726497D01*
X26544596Y-19726502D01*
X500500Y-19726502D01*
X500500Y-19300003D01*
X11694508Y-19300003D01*
X11714352Y-19425300D01*
X11714352Y-19425301D01*
X11714354Y-19425304D01*
X11771950Y-19538342D01*
X11771952Y-19538344D01*
X11771954Y-19538347D01*
X11861652Y-19628045D01*
X11861654Y-19628046D01*
X11861658Y-19628050D01*
X11974696Y-19685646D01*
X11974697Y-19685646D01*
X11974699Y-19685647D01*
X12099997Y-19705492D01*
X12100000Y-19705492D01*
X12100003Y-19705492D01*
X12225300Y-19685647D01*
X12225301Y-19685647D01*
X12225302Y-19685646D01*
X12225304Y-19685646D01*
X12338342Y-19628050D01*
X12428050Y-19538342D01*
X12485646Y-19425304D01*
X12485646Y-19425302D01*
X12485647Y-19425301D01*
X12485647Y-19425300D01*
X12505492Y-19300003D01*
X12505492Y-19299996D01*
X12485647Y-19174699D01*
X12485647Y-19174698D01*
X12485646Y-19174696D01*
X12428050Y-19061658D01*
X12428046Y-19061654D01*
X12428045Y-19061652D01*
X12338347Y-18971954D01*
X12338344Y-18971952D01*
X12338342Y-18971950D01*
X12225304Y-18914354D01*
X12225303Y-18914353D01*
X12225300Y-18914352D01*
X12100003Y-18894508D01*
X12099997Y-18894508D01*
X11974699Y-18914352D01*
X11974698Y-18914352D01*
X11899337Y-18952751D01*
X11861658Y-18971950D01*
X11861657Y-18971951D01*
X11861652Y-18971954D01*
X11771954Y-19061652D01*
X11771951Y-19061657D01*
X11714352Y-19174698D01*
X11714352Y-19174699D01*
X11694508Y-19299996D01*
X11694508Y-19300003D01*
X500500Y-19300003D01*
X500500Y-15735302D01*
X8414796Y-15735302D01*
X8435879Y-15868421D01*
X8435880Y-15868424D01*
X8435881Y-15868426D01*
X8497072Y-15988520D01*
X8497073Y-15988521D01*
X8497076Y-15988525D01*
X8592374Y-16083823D01*
X8592378Y-16083826D01*
X8592380Y-16083828D01*
X8712474Y-16145019D01*
X8712476Y-16145019D01*
X8712478Y-16145020D01*
X8845598Y-16166104D01*
X8845600Y-16166104D01*
X8845602Y-16166104D01*
X8978721Y-16145020D01*
X8978721Y-16145019D01*
X8978726Y-16145019D01*
X9098820Y-16083828D01*
X9194128Y-15988520D01*
X9234237Y-15909802D01*
X10346296Y-15909802D01*
X10367379Y-16042921D01*
X10367380Y-16042924D01*
X10367381Y-16042926D01*
X10419401Y-16145020D01*
X10428573Y-16163021D01*
X10428576Y-16163025D01*
X10523874Y-16258323D01*
X10523878Y-16258326D01*
X10523880Y-16258328D01*
X10643974Y-16319519D01*
X10643976Y-16319519D01*
X10643978Y-16319520D01*
X10777098Y-16340604D01*
X10777100Y-16340604D01*
X10777102Y-16340604D01*
X10910221Y-16319520D01*
X10910221Y-16319519D01*
X10910226Y-16319519D01*
X11030320Y-16258328D01*
X11125628Y-16163020D01*
X11165516Y-16084734D01*
X11213489Y-16033939D01*
X11281310Y-16017144D01*
X11347445Y-16039681D01*
X11377398Y-16077398D01*
X11400000Y-16100000D01*
X24600000Y-16100000D01*
X24600000Y-13540000D01*
X30944417Y-13540000D01*
X30964699Y-13745932D01*
X30964700Y-13745934D01*
X31024768Y-13943954D01*
X31122315Y-14126450D01*
X31122317Y-14126452D01*
X31253589Y-14286410D01*
X31350209Y-14365702D01*
X31413550Y-14417685D01*
X31596046Y-14515232D01*
X31794066Y-14575300D01*
X31794065Y-14575300D01*
X31812529Y-14577118D01*
X32000000Y-14595583D01*
X32205934Y-14575300D01*
X32403954Y-14515232D01*
X32586450Y-14417685D01*
X32746410Y-14286410D01*
X32877685Y-14126450D01*
X32975232Y-13943954D01*
X33035300Y-13745934D01*
X33055583Y-13540000D01*
X33035300Y-13334066D01*
X32975232Y-13136046D01*
X32877685Y-12953550D01*
X32825702Y-12890209D01*
X32746410Y-12793589D01*
X32586452Y-12662317D01*
X32586453Y-12662317D01*
X32586450Y-12662315D01*
X32403954Y-12564768D01*
X32205934Y-12504700D01*
X32205932Y-12504699D01*
X32205934Y-12504699D01*
X32000000Y-12484417D01*
X31794067Y-12504699D01*
X31596043Y-12564769D01*
X31485898Y-12623643D01*
X31413550Y-12662315D01*
X31413548Y-12662316D01*
X31413547Y-12662317D01*
X31253589Y-12793589D01*
X31122317Y-12953547D01*
X31024769Y-13136043D01*
X30964699Y-13334067D01*
X30944417Y-13540000D01*
X24600000Y-13540000D01*
X24600000Y-11869752D01*
X30949500Y-11869752D01*
X30961131Y-11928229D01*
X30961132Y-11928230D01*
X31005447Y-11994552D01*
X31071769Y-12038867D01*
X31071770Y-12038868D01*
X31130247Y-12050499D01*
X31130250Y-12050500D01*
X31130252Y-12050500D01*
X32869750Y-12050500D01*
X32869751Y-12050499D01*
X32884568Y-12047552D01*
X32928229Y-12038868D01*
X32928229Y-12038867D01*
X32928231Y-12038867D01*
X32994552Y-11994552D01*
X33038867Y-11928231D01*
X33038867Y-11928229D01*
X33038868Y-11928229D01*
X33050499Y-11869752D01*
X33050500Y-11869750D01*
X33050500Y-10130249D01*
X33050499Y-10130247D01*
X33038868Y-10071770D01*
X33038867Y-10071769D01*
X32994552Y-10005447D01*
X32928230Y-9961132D01*
X32928229Y-9961131D01*
X32869752Y-9949500D01*
X32869748Y-9949500D01*
X31130252Y-9949500D01*
X31130247Y-9949500D01*
X31071770Y-9961131D01*
X31071769Y-9961132D01*
X31005447Y-10005447D01*
X30961132Y-10071769D01*
X30961131Y-10071770D01*
X30949500Y-10130247D01*
X30949500Y-11869752D01*
X24600000Y-11869752D01*
X24600000Y-10700000D01*
X11400000Y-10700000D01*
X11400000Y-15678569D01*
X11380315Y-15745608D01*
X11327511Y-15791363D01*
X11258353Y-15801307D01*
X11194797Y-15772282D01*
X11165517Y-15734866D01*
X11125628Y-15656580D01*
X11125626Y-15656578D01*
X11125623Y-15656574D01*
X11030325Y-15561276D01*
X11030321Y-15561273D01*
X11030320Y-15561272D01*
X10910226Y-15500081D01*
X10910224Y-15500080D01*
X10910221Y-15500079D01*
X10777102Y-15478996D01*
X10777098Y-15478996D01*
X10643978Y-15500079D01*
X10523878Y-15561273D01*
X10523874Y-15561276D01*
X10428576Y-15656574D01*
X10428573Y-15656578D01*
X10367379Y-15776678D01*
X10346296Y-15909797D01*
X10346296Y-15909802D01*
X9234237Y-15909802D01*
X9255319Y-15868426D01*
X9267525Y-15791363D01*
X9276404Y-15735302D01*
X9276404Y-15735297D01*
X9255320Y-15602178D01*
X9255319Y-15602176D01*
X9255319Y-15602174D01*
X9194128Y-15482080D01*
X9194126Y-15482078D01*
X9194123Y-15482074D01*
X9098825Y-15386776D01*
X9098821Y-15386773D01*
X9098820Y-15386772D01*
X8978726Y-15325581D01*
X8978724Y-15325580D01*
X8978721Y-15325579D01*
X8845602Y-15304496D01*
X8845598Y-15304496D01*
X8712478Y-15325579D01*
X8592378Y-15386773D01*
X8592374Y-15386776D01*
X8497076Y-15482074D01*
X8497073Y-15482078D01*
X8435879Y-15602178D01*
X8414796Y-15735297D01*
X8414796Y-15735302D01*
X500500Y-15735302D01*
X500500Y-13540000D01*
X2944417Y-13540000D01*
X2964699Y-13745932D01*
X2964700Y-13745934D01*
X3024768Y-13943954D01*
X3122315Y-14126450D01*
X3122317Y-14126452D01*
X3253589Y-14286410D01*
X3350209Y-14365702D01*
X3413550Y-14417685D01*
X3596046Y-14515232D01*
X3794066Y-14575300D01*
X3794065Y-14575300D01*
X3812529Y-14577118D01*
X4000000Y-14595583D01*
X4205934Y-14575300D01*
X4403954Y-14515232D01*
X4586450Y-14417685D01*
X4746410Y-14286410D01*
X4877685Y-14126450D01*
X4975232Y-13943954D01*
X5035300Y-13745934D01*
X5055583Y-13540000D01*
X5035300Y-13334066D01*
X4975232Y-13136046D01*
X4877685Y-12953550D01*
X4825702Y-12890209D01*
X4746410Y-12793589D01*
X4586452Y-12662317D01*
X4586453Y-12662317D01*
X4586450Y-12662315D01*
X4403954Y-12564768D01*
X4205934Y-12504700D01*
X4205932Y-12504699D01*
X4205934Y-12504699D01*
X4000000Y-12484417D01*
X3794067Y-12504699D01*
X3596043Y-12564769D01*
X3485898Y-12623643D01*
X3413550Y-12662315D01*
X3413548Y-12662316D01*
X3413547Y-12662317D01*
X3253589Y-12793589D01*
X3122317Y-12953547D01*
X3024769Y-13136043D01*
X2964699Y-13334067D01*
X2944417Y-13540000D01*
X500500Y-13540000D01*
X500500Y-11869752D01*
X2949500Y-11869752D01*
X2961131Y-11928229D01*
X2961132Y-11928230D01*
X3005447Y-11994552D01*
X3071769Y-12038867D01*
X3071770Y-12038868D01*
X3130247Y-12050499D01*
X3130250Y-12050500D01*
X3130252Y-12050500D01*
X4869750Y-12050500D01*
X4869751Y-12050499D01*
X4884568Y-12047552D01*
X4928229Y-12038868D01*
X4928229Y-12038867D01*
X4928231Y-12038867D01*
X4994552Y-11994552D01*
X5038867Y-11928231D01*
X5038867Y-11928229D01*
X5038868Y-11928229D01*
X5050499Y-11869752D01*
X5050500Y-11869750D01*
X5050500Y-11187432D01*
X8825247Y-11187432D01*
X8845091Y-11312729D01*
X8845091Y-11312730D01*
X8845093Y-11312733D01*
X8902689Y-11425771D01*
X8902691Y-11425773D01*
X8902693Y-11425776D01*
X8992391Y-11515474D01*
X8992393Y-11515475D01*
X8992397Y-11515479D01*
X9105435Y-11573075D01*
X9105436Y-11573075D01*
X9105438Y-11573076D01*
X9230736Y-11592921D01*
X9230739Y-11592921D01*
X9230742Y-11592921D01*
X9356039Y-11573076D01*
X9356040Y-11573076D01*
X9356041Y-11573075D01*
X9356043Y-11573075D01*
X9469081Y-11515479D01*
X9558789Y-11425771D01*
X9616385Y-11312733D01*
X9616385Y-11312731D01*
X9616386Y-11312730D01*
X9616386Y-11312729D01*
X9636231Y-11187432D01*
X9636231Y-11187425D01*
X9616386Y-11062128D01*
X9616386Y-11062127D01*
X9616385Y-11062125D01*
X9558789Y-10949087D01*
X9558785Y-10949083D01*
X9558784Y-10949081D01*
X9469086Y-10859383D01*
X9469083Y-10859381D01*
X9469081Y-10859379D01*
X9356043Y-10801783D01*
X9356042Y-10801782D01*
X9356039Y-10801781D01*
X9230742Y-10781937D01*
X9230736Y-10781937D01*
X9105438Y-10801781D01*
X9105437Y-10801781D01*
X9030076Y-10840180D01*
X8992397Y-10859379D01*
X8992396Y-10859380D01*
X8992391Y-10859383D01*
X8902693Y-10949081D01*
X8902690Y-10949086D01*
X8845091Y-11062127D01*
X8845091Y-11062128D01*
X8825247Y-11187425D01*
X8825247Y-11187432D01*
X5050500Y-11187432D01*
X5050500Y-10130249D01*
X5050499Y-10130247D01*
X5038868Y-10071770D01*
X5038867Y-10071769D01*
X4994552Y-10005447D01*
X4928230Y-9961132D01*
X4928229Y-9961131D01*
X4869752Y-9949500D01*
X4869748Y-9949500D01*
X3130252Y-9949500D01*
X3130247Y-9949500D01*
X3071770Y-9961131D01*
X3071769Y-9961132D01*
X3005447Y-10005447D01*
X2961132Y-10071769D01*
X2961131Y-10071770D01*
X2949500Y-10130247D01*
X2949500Y-11869752D01*
X500500Y-11869752D01*
X500500Y-8450003D01*
X7679508Y-8450003D01*
X7699352Y-8575300D01*
X7699352Y-8575301D01*
X7699354Y-8575304D01*
X7756950Y-8688342D01*
X7756952Y-8688344D01*
X7756954Y-8688347D01*
X7846652Y-8778045D01*
X7846654Y-8778046D01*
X7846658Y-8778050D01*
X7959696Y-8835646D01*
X7959697Y-8835646D01*
X7959699Y-8835647D01*
X8084997Y-8855492D01*
X8085000Y-8855492D01*
X8085003Y-8855492D01*
X8210300Y-8835647D01*
X8210301Y-8835647D01*
X8210302Y-8835646D01*
X8210304Y-8835646D01*
X8323342Y-8778050D01*
X8413050Y-8688342D01*
X8470646Y-8575304D01*
X8470646Y-8575302D01*
X8470647Y-8575301D01*
X8470647Y-8575300D01*
X8490492Y-8450003D01*
X8490492Y-8449996D01*
X8470647Y-8324699D01*
X8470647Y-8324698D01*
X8470646Y-8324696D01*
X8413050Y-8211658D01*
X8413046Y-8211654D01*
X8413045Y-8211652D01*
X8323347Y-8121954D01*
X8323344Y-8121952D01*
X8323342Y-8121950D01*
X8210304Y-8064354D01*
X8210303Y-8064353D01*
X8210300Y-8064352D01*
X8085003Y-8044508D01*
X8084997Y-8044508D01*
X7959699Y-8064352D01*
X7959698Y-8064352D01*
X7884337Y-8102751D01*
X7846658Y-8121950D01*
X7846657Y-8121951D01*
X7846652Y-8121954D01*
X7756954Y-8211652D01*
X7756951Y-8211657D01*
X7699352Y-8324698D01*
X7699352Y-8324699D01*
X7679508Y-8449996D01*
X7679508Y-8450003D01*
X500500Y-8450003D01*
X500500Y-5000000D01*
X3644341Y-5000000D01*
X3664936Y-5235403D01*
X3664938Y-5235413D01*
X3726094Y-5463655D01*
X3726096Y-5463659D01*
X3726097Y-5463663D01*
X3776031Y-5570746D01*
X3825964Y-5677828D01*
X3825965Y-5677830D01*
X3961505Y-5871402D01*
X4128597Y-6038494D01*
X4322169Y-6174034D01*
X4322171Y-6174035D01*
X4536337Y-6273903D01*
X4764592Y-6335063D01*
X4941032Y-6350499D01*
X4941033Y-6350500D01*
X4941034Y-6350500D01*
X5058967Y-6350500D01*
X5058967Y-6350499D01*
X5235408Y-6335063D01*
X5463663Y-6273903D01*
X5677829Y-6174035D01*
X5871401Y-6038495D01*
X6038495Y-5871401D01*
X6174035Y-5677830D01*
X6273903Y-5463663D01*
X6335063Y-5235408D01*
X6355659Y-5000003D01*
X25414508Y-5000003D01*
X25434352Y-5125300D01*
X25434352Y-5125301D01*
X25434354Y-5125304D01*
X25491950Y-5238342D01*
X25491952Y-5238344D01*
X25491954Y-5238347D01*
X25581652Y-5328045D01*
X25581654Y-5328046D01*
X25581658Y-5328050D01*
X25694696Y-5385646D01*
X25694697Y-5385646D01*
X25694699Y-5385647D01*
X25819997Y-5405492D01*
X25820000Y-5405492D01*
X25820003Y-5405492D01*
X25945300Y-5385647D01*
X25945301Y-5385647D01*
X25945302Y-5385646D01*
X25945304Y-5385646D01*
X26058342Y-5328050D01*
X26148050Y-5238342D01*
X26205646Y-5125304D01*
X26205646Y-5125302D01*
X26205647Y-5125301D01*
X26205647Y-5125300D01*
X26225492Y-5000003D01*
X26225492Y-5000000D01*
X29644341Y-5000000D01*
X29664936Y-5235403D01*
X29664938Y-5235413D01*
X29726094Y-5463655D01*
X29726096Y-5463659D01*
X29726097Y-5463663D01*
X29776031Y-5570746D01*
X29825964Y-5677828D01*
X29825965Y-5677830D01*
X29961505Y-5871402D01*
X30128597Y-6038494D01*
X30322169Y-6174034D01*
X30322171Y-6174035D01*
X30536337Y-6273903D01*
X30764592Y-6335063D01*
X30941032Y-6350499D01*
X30941033Y-6350500D01*
X30941034Y-6350500D01*
X31058967Y-6350500D01*
X31058967Y-6350499D01*
X31235408Y-6335063D01*
X31463663Y-6273903D01*
X31677829Y-6174035D01*
X31871401Y-6038495D01*
X32038495Y-5871401D01*
X32174035Y-5677830D01*
X32273903Y-5463663D01*
X32335063Y-5235408D01*
X32355659Y-5000000D01*
X32335063Y-4764592D01*
X32273903Y-4536337D01*
X32174035Y-4322171D01*
X32174034Y-4322169D01*
X32038494Y-4128597D01*
X31871402Y-3961505D01*
X31677830Y-3825965D01*
X31677828Y-3825964D01*
X31570746Y-3776031D01*
X31463663Y-3726097D01*
X31463659Y-3726096D01*
X31463655Y-3726094D01*
X31235413Y-3664938D01*
X31235403Y-3664936D01*
X31058967Y-3649500D01*
X31058966Y-3649500D01*
X30941034Y-3649500D01*
X30941033Y-3649500D01*
X30764596Y-3664936D01*
X30764586Y-3664938D01*
X30536344Y-3726094D01*
X30536335Y-3726098D01*
X30322171Y-3825964D01*
X30322169Y-3825965D01*
X30128597Y-3961505D01*
X29961506Y-4128597D01*
X29961501Y-4128604D01*
X29825967Y-4322165D01*
X29825965Y-4322169D01*
X29726098Y-4536335D01*
X29726094Y-4536344D01*
X29664938Y-4764586D01*
X29664936Y-4764596D01*
X29644341Y-4999999D01*
X29644341Y-5000000D01*
X26225492Y-5000000D01*
X26225492Y-4999996D01*
X26205647Y-4874699D01*
X26205647Y-4874698D01*
X26205646Y-4874696D01*
X26148050Y-4761658D01*
X26148046Y-4761654D01*
X26148045Y-4761652D01*
X26058347Y-4671954D01*
X26058344Y-4671952D01*
X26058342Y-4671950D01*
X25945304Y-4614354D01*
X25945303Y-4614353D01*
X25945300Y-4614352D01*
X25820003Y-4594508D01*
X25819997Y-4594508D01*
X25694699Y-4614352D01*
X25694698Y-4614352D01*
X25619337Y-4652751D01*
X25581658Y-4671950D01*
X25581657Y-4671951D01*
X25581652Y-4671954D01*
X25491954Y-4761652D01*
X25491951Y-4761657D01*
X25491950Y-4761658D01*
X25490455Y-4764592D01*
X25434352Y-4874698D01*
X25434352Y-4874699D01*
X25414508Y-4999996D01*
X25414508Y-5000003D01*
X6355659Y-5000003D01*
X6355659Y-5000000D01*
X6335063Y-4764592D01*
X6273903Y-4536337D01*
X6174035Y-4322171D01*
X6174034Y-4322169D01*
X6038494Y-4128597D01*
X5871402Y-3961505D01*
X5677830Y-3825965D01*
X5677828Y-3825964D01*
X5570746Y-3776031D01*
X5463663Y-3726097D01*
X5463659Y-3726096D01*
X5463655Y-3726094D01*
X5235413Y-3664938D01*
X5235403Y-3664936D01*
X5058967Y-3649500D01*
X5058966Y-3649500D01*
X4941034Y-3649500D01*
X4941033Y-3649500D01*
X4764596Y-3664936D01*
X4764586Y-3664938D01*
X4536344Y-3726094D01*
X4536335Y-3726098D01*
X4322171Y-3825964D01*
X4322169Y-3825965D01*
X4128597Y-3961505D01*
X3961506Y-4128597D01*
X3961501Y-4128604D01*
X3825967Y-4322165D01*
X3825965Y-4322169D01*
X3726098Y-4536335D01*
X3726094Y-4536344D01*
X3664938Y-4764586D01*
X3664936Y-4764596D01*
X3644341Y-4999999D01*
X3644341Y-5000000D01*
X500500Y-5000000D01*
X500500Y-4003051D01*
X500649Y-3996967D01*
X516960Y-3664938D01*
X517052Y-3663068D01*
X518245Y-3650962D01*
X518462Y-3649500D01*
X566849Y-3323296D01*
X569218Y-3311385D01*
X649710Y-2990043D01*
X653240Y-2978411D01*
X764835Y-2666525D01*
X769476Y-2655318D01*
X911124Y-2355828D01*
X916840Y-2345136D01*
X1087145Y-2060998D01*
X1093888Y-2050905D01*
X1291232Y-1784818D01*
X1298935Y-1775433D01*
X1521405Y-1529975D01*
X1529975Y-1521405D01*
X1587021Y-1469702D01*
X20569196Y-1469702D01*
X20590279Y-1602821D01*
X20590280Y-1602824D01*
X20590281Y-1602826D01*
X20651472Y-1722920D01*
X20651473Y-1722921D01*
X20651476Y-1722925D01*
X20746774Y-1818223D01*
X20746778Y-1818226D01*
X20746780Y-1818228D01*
X20866874Y-1879419D01*
X20866876Y-1879419D01*
X20866878Y-1879420D01*
X20999998Y-1900504D01*
X21000000Y-1900504D01*
X21000002Y-1900504D01*
X21133121Y-1879420D01*
X21133121Y-1879419D01*
X21133126Y-1879419D01*
X21253220Y-1818228D01*
X21348528Y-1722920D01*
X21409719Y-1602826D01*
X21421255Y-1529993D01*
X21430804Y-1469702D01*
X21430804Y-1469697D01*
X21409720Y-1336578D01*
X21409719Y-1336576D01*
X21409719Y-1336574D01*
X21348528Y-1216480D01*
X21348526Y-1216478D01*
X21348523Y-1216474D01*
X21253225Y-1121176D01*
X21253221Y-1121173D01*
X21253220Y-1121172D01*
X21133126Y-1059981D01*
X21133124Y-1059980D01*
X21133121Y-1059979D01*
X21000002Y-1038896D01*
X20999998Y-1038896D01*
X20866878Y-1059979D01*
X20746778Y-1121173D01*
X20746774Y-1121176D01*
X20651476Y-1216474D01*
X20651473Y-1216478D01*
X20590279Y-1336578D01*
X20569196Y-1469697D01*
X20569196Y-1469702D01*
X1587021Y-1469702D01*
X1775433Y-1298935D01*
X1784818Y-1291232D01*
X2050905Y-1093888D01*
X2060998Y-1087145D01*
X2345136Y-916840D01*
X2355828Y-911124D01*
X2655318Y-769476D01*
X2666525Y-764835D01*
X2978412Y-653239D01*
X2990043Y-649710D01*
X3311385Y-569218D01*
X3323296Y-566849D01*
X3650962Y-518244D01*
X3663068Y-517052D01*
X3996967Y-500648D01*
X4003051Y-500500D01*
X4065892Y-500500D01*
X31934108Y-500500D01*
X31996949Y-500500D01*
X32003032Y-500648D01*
G37*
%TD.AperFunction*%
%TD*%
M02*
