%TF.GenerationSoftware,KiCad,Pcbnew,7.0.11+dfsg-1build4*%
%TF.CreationDate,2026-06-17T16:28:33+00:00*%
%TF.ProjectId,stratosdrone,73747261-746f-4736-9472-6f6e652e6b69,rev?*%
%TF.SameCoordinates,Original*%
%TF.FileFunction,Copper,L2,Inr*%
%TF.FilePolarity,Positive*%
%FSLAX46Y46*%
G04 Gerber Fmt 4.6, Leading zero omitted, Abs format (unit mm)*
G04 Created by KiCad (PCBNEW 7.0.11+dfsg-1build4) date 2026-06-17 16:28:33*
%MOMM*%
%LPD*%
G01*
G04 APERTURE LIST*
%TA.AperFunction,ComponentPad*%
%ADD10R,1.000000X1.000000*%
%TD*%
%TA.AperFunction,ComponentPad*%
%ADD11O,1.000000X1.000000*%
%TD*%
%TA.AperFunction,ComponentPad*%
%ADD12R,1.700000X1.700000*%
%TD*%
%TA.AperFunction,ComponentPad*%
%ADD13O,1.700000X1.700000*%
%TD*%
%TA.AperFunction,ComponentPad*%
%ADD14O,2.100000X1.000000*%
%TD*%
%TA.AperFunction,ComponentPad*%
%ADD15O,1.600000X1.000000*%
%TD*%
G04 APERTURE END LIST*
D10*
%TO.N,GND*%
%TO.C,J10*%
X13000000Y-64000000D03*
D11*
%TO.N,U0TXD*%
X13000000Y-65270000D03*
%TO.N,U0RXD*%
X13000000Y-66540000D03*
%TO.N,3V3*%
X13000000Y-67810000D03*
%TD*%
D12*
%TO.N,VBAT*%
%TO.C,J8*%
X4000000Y-11000000D03*
D13*
%TO.N,M4_D*%
X4000000Y-13540000D03*
%TD*%
D14*
%TO.N,GND*%
%TO.C,J2*%
X370000Y-32320000D03*
D15*
X4550000Y-32320000D03*
D14*
X370000Y-23680000D03*
D15*
X4550000Y-23680000D03*
%TD*%
D12*
%TO.N,VBAT*%
%TO.C,J7*%
X4000000Y-59000000D03*
D13*
%TO.N,M3_D*%
X4000000Y-61540000D03*
%TD*%
D12*
%TO.N,VBAT*%
%TO.C,J5*%
X32000000Y-11000000D03*
D13*
%TO.N,M1_D*%
X32000000Y-13540000D03*
%TD*%
D10*
%TO.N,3V3*%
%TO.C,J9*%
X4000000Y-40000000D03*
D11*
%TO.N,GND*%
X4000000Y-41270000D03*
%TO.N,VBAT*%
X4000000Y-42540000D03*
%TO.N,I2C_SDA*%
X4000000Y-43810000D03*
%TO.N,I2C_SCL*%
X4000000Y-45080000D03*
%TO.N,EXP_IO*%
X4000000Y-46350000D03*
%TD*%
D12*
%TO.N,VBAT*%
%TO.C,J6*%
X32000000Y-59000000D03*
D13*
%TO.N,M2_D*%
X32000000Y-61540000D03*
%TD*%
D10*
%TO.N,GND*%
%TO.C,J11*%
X25000000Y-64000000D03*
D11*
%TO.N,C6_U0TXD*%
X25000000Y-65270000D03*
%TO.N,C6_U0RXD*%
X25000000Y-66540000D03*
%TO.N,C6_BOOT*%
X25000000Y-67810000D03*
%TD*%
D12*
%TO.N,3V3*%
%TO.C,J3*%
X29000000Y-43000000D03*
D13*
%TO.N,CS_FLOW*%
X26460000Y-43000000D03*
%TO.N,GND*%
X29000000Y-45540000D03*
%TO.N,SPI_SCLK*%
X26460000Y-45540000D03*
%TO.N,SPI_MOSI*%
X29000000Y-48080000D03*
%TO.N,SPI_MISO*%
X26460000Y-48080000D03*
%TO.N,GND*%
X29000000Y-50620000D03*
%TO.N,3V3*%
X26460000Y-50620000D03*
%TD*%
%TA.AperFunction,Conductor*%
%TO.N,GND*%
G36*
X32003032Y-500648D02*
G01*
X32336929Y-517052D01*
X32349037Y-518245D01*
X32452146Y-533539D01*
X32676699Y-566849D01*
X32688617Y-569219D01*
X33009951Y-649709D01*
X33021588Y-653240D01*
X33092806Y-678722D01*
X33333467Y-764832D01*
X33344688Y-769479D01*
X33644163Y-911120D01*
X33654871Y-916844D01*
X33938988Y-1087137D01*
X33949106Y-1093897D01*
X34215170Y-1291224D01*
X34224576Y-1298944D01*
X34470013Y-1521395D01*
X34478604Y-1529986D01*
X34665755Y-1736475D01*
X34701055Y-1775423D01*
X34708775Y-1784829D01*
X34906102Y-2050893D01*
X34912862Y-2061011D01*
X35041776Y-2276092D01*
X35083148Y-2345116D01*
X35088885Y-2355848D01*
X35230514Y-2655297D01*
X35235170Y-2666540D01*
X35346759Y-2978411D01*
X35350292Y-2990055D01*
X35430777Y-3311369D01*
X35433151Y-3323305D01*
X35481754Y-3650962D01*
X35482947Y-3663071D01*
X35499351Y-3996966D01*
X35499500Y-4003051D01*
X35499500Y-65996948D01*
X35499351Y-66003033D01*
X35482947Y-66336928D01*
X35481754Y-66349037D01*
X35433151Y-66676694D01*
X35430777Y-66688630D01*
X35350292Y-67009944D01*
X35346759Y-67021588D01*
X35235170Y-67333459D01*
X35230514Y-67344702D01*
X35088885Y-67644151D01*
X35083148Y-67654883D01*
X34912862Y-67938988D01*
X34906102Y-67949106D01*
X34708775Y-68215170D01*
X34701055Y-68224576D01*
X34478611Y-68470006D01*
X34470006Y-68478611D01*
X34224576Y-68701055D01*
X34215170Y-68708775D01*
X33949106Y-68906102D01*
X33938988Y-68912862D01*
X33654883Y-69083148D01*
X33644151Y-69088885D01*
X33344702Y-69230514D01*
X33333459Y-69235170D01*
X33021588Y-69346759D01*
X33009944Y-69350292D01*
X32688630Y-69430777D01*
X32676694Y-69433151D01*
X32349037Y-69481754D01*
X32336928Y-69482947D01*
X32021989Y-69498419D01*
X32003031Y-69499351D01*
X31996949Y-69499500D01*
X4003051Y-69499500D01*
X3996968Y-69499351D01*
X3976900Y-69498365D01*
X3663071Y-69482947D01*
X3650962Y-69481754D01*
X3323305Y-69433151D01*
X3311369Y-69430777D01*
X2990055Y-69350292D01*
X2978411Y-69346759D01*
X2666540Y-69235170D01*
X2655301Y-69230515D01*
X2355844Y-69088883D01*
X2345121Y-69083150D01*
X2061011Y-68912862D01*
X2050893Y-68906102D01*
X1784829Y-68708775D01*
X1775423Y-68701055D01*
X1736475Y-68665755D01*
X1529986Y-68478604D01*
X1521395Y-68470013D01*
X1298944Y-68224576D01*
X1291224Y-68215170D01*
X1093897Y-67949106D01*
X1087137Y-67938988D01*
X1009825Y-67810000D01*
X916844Y-67654871D01*
X911120Y-67644163D01*
X769479Y-67344688D01*
X764829Y-67333459D01*
X741341Y-67267815D01*
X674922Y-67082185D01*
X653240Y-67021588D01*
X649707Y-67009944D01*
X649203Y-67007930D01*
X569219Y-66688617D01*
X566848Y-66676694D01*
X546571Y-66540000D01*
X518245Y-66349037D01*
X517052Y-66336927D01*
X516960Y-66335063D01*
X500649Y-66003032D01*
X500500Y-65996948D01*
X500500Y-65000000D01*
X3644341Y-65000000D01*
X3664936Y-65235403D01*
X3664938Y-65235413D01*
X3726094Y-65463655D01*
X3726096Y-65463659D01*
X3726097Y-65463663D01*
X3776031Y-65570746D01*
X3825964Y-65677828D01*
X3825965Y-65677830D01*
X3961505Y-65871402D01*
X4128597Y-66038494D01*
X4322169Y-66174034D01*
X4322171Y-66174035D01*
X4536337Y-66273903D01*
X4764592Y-66335063D01*
X4941032Y-66350499D01*
X4941033Y-66350500D01*
X4941034Y-66350500D01*
X5058967Y-66350500D01*
X5058967Y-66350499D01*
X5235408Y-66335063D01*
X5463663Y-66273903D01*
X5677829Y-66174035D01*
X5871401Y-66038495D01*
X6038495Y-65871401D01*
X6174035Y-65677830D01*
X6273903Y-65463663D01*
X6335063Y-65235408D01*
X6355659Y-65000000D01*
X6335063Y-64764592D01*
X6276986Y-64547844D01*
X12000000Y-64547844D01*
X12006401Y-64607372D01*
X12006403Y-64607379D01*
X12056645Y-64742086D01*
X12056649Y-64742093D01*
X12142809Y-64857187D01*
X12142812Y-64857190D01*
X12257905Y-64943349D01*
X12259829Y-64944400D01*
X12261379Y-64945950D01*
X12265011Y-64948669D01*
X12264620Y-64949190D01*
X12309236Y-64993804D01*
X12324089Y-65062077D01*
X12316350Y-65097197D01*
X12314862Y-65101121D01*
X12314859Y-65101130D01*
X12294355Y-65270000D01*
X12314859Y-65438869D01*
X12314860Y-65438874D01*
X12375182Y-65597931D01*
X12471818Y-65737930D01*
X12555634Y-65812185D01*
X12592761Y-65871374D01*
X12591993Y-65941240D01*
X12555634Y-65997815D01*
X12471818Y-66072069D01*
X12375182Y-66212068D01*
X12314860Y-66371125D01*
X12314859Y-66371130D01*
X12294355Y-66540000D01*
X12314859Y-66708869D01*
X12314860Y-66708874D01*
X12375182Y-66867931D01*
X12471818Y-67007930D01*
X12555634Y-67082185D01*
X12592761Y-67141374D01*
X12591993Y-67211240D01*
X12555634Y-67267815D01*
X12471818Y-67342069D01*
X12375182Y-67482068D01*
X12314860Y-67641125D01*
X12314859Y-67641130D01*
X12294355Y-67810000D01*
X12314859Y-67978869D01*
X12314860Y-67978874D01*
X12375182Y-68137931D01*
X12428497Y-68215170D01*
X12471817Y-68277929D01*
X12577505Y-68371560D01*
X12599150Y-68390736D01*
X12749773Y-68469789D01*
X12749775Y-68469790D01*
X12914944Y-68510500D01*
X13085056Y-68510500D01*
X13250225Y-68469790D01*
X13344289Y-68420421D01*
X13400849Y-68390736D01*
X13400850Y-68390734D01*
X13400852Y-68390734D01*
X13528183Y-68277929D01*
X13624818Y-68137930D01*
X13685140Y-67978872D01*
X13705645Y-67810000D01*
X13685140Y-67641128D01*
X13624818Y-67482070D01*
X13528183Y-67342071D01*
X13444363Y-67267813D01*
X13407238Y-67208626D01*
X13408006Y-67138761D01*
X13444363Y-67082186D01*
X13528183Y-67007929D01*
X13624818Y-66867930D01*
X13685140Y-66708872D01*
X13705645Y-66540000D01*
X13685140Y-66371128D01*
X13624818Y-66212070D01*
X13598563Y-66174034D01*
X13590476Y-66162318D01*
X13528183Y-66072071D01*
X13444363Y-65997813D01*
X13407238Y-65938626D01*
X13408006Y-65868761D01*
X13444363Y-65812186D01*
X13528183Y-65737929D01*
X13624818Y-65597930D01*
X13685140Y-65438872D01*
X13705645Y-65270000D01*
X13685140Y-65101128D01*
X13683653Y-65097209D01*
X13683417Y-65094139D01*
X13683345Y-65093846D01*
X13683393Y-65093833D01*
X13678284Y-65027547D01*
X13711429Y-64966039D01*
X13740175Y-64944398D01*
X13742093Y-64943350D01*
X13857187Y-64857190D01*
X13857190Y-64857187D01*
X13943350Y-64742093D01*
X13943354Y-64742086D01*
X13993596Y-64607379D01*
X13993598Y-64607372D01*
X13999999Y-64547844D01*
X24000000Y-64547844D01*
X24006401Y-64607372D01*
X24006403Y-64607379D01*
X24056645Y-64742086D01*
X24056649Y-64742093D01*
X24142809Y-64857187D01*
X24142812Y-64857190D01*
X24257905Y-64943349D01*
X24259829Y-64944400D01*
X24261379Y-64945950D01*
X24265011Y-64948669D01*
X24264620Y-64949190D01*
X24309236Y-64993804D01*
X24324089Y-65062077D01*
X24316350Y-65097197D01*
X24314862Y-65101121D01*
X24314859Y-65101130D01*
X24294355Y-65270000D01*
X24314859Y-65438869D01*
X24314860Y-65438874D01*
X24375182Y-65597931D01*
X24471818Y-65737930D01*
X24555634Y-65812185D01*
X24592761Y-65871374D01*
X24591993Y-65941240D01*
X24555634Y-65997815D01*
X24471818Y-66072069D01*
X24375182Y-66212068D01*
X24314860Y-66371125D01*
X24314859Y-66371130D01*
X24294355Y-66540000D01*
X24314859Y-66708869D01*
X24314860Y-66708874D01*
X24375182Y-66867931D01*
X24471818Y-67007930D01*
X24555634Y-67082185D01*
X24592761Y-67141374D01*
X24591993Y-67211240D01*
X24555634Y-67267815D01*
X24471818Y-67342069D01*
X24375182Y-67482068D01*
X24314860Y-67641125D01*
X24314859Y-67641130D01*
X24294355Y-67810000D01*
X24314859Y-67978869D01*
X24314860Y-67978874D01*
X24375182Y-68137931D01*
X24428497Y-68215170D01*
X24471817Y-68277929D01*
X24577505Y-68371560D01*
X24599150Y-68390736D01*
X24749773Y-68469789D01*
X24749775Y-68469790D01*
X24914944Y-68510500D01*
X25085056Y-68510500D01*
X25250225Y-68469790D01*
X25344289Y-68420421D01*
X25400849Y-68390736D01*
X25400850Y-68390734D01*
X25400852Y-68390734D01*
X25528183Y-68277929D01*
X25624818Y-68137930D01*
X25685140Y-67978872D01*
X25705645Y-67810000D01*
X25685140Y-67641128D01*
X25624818Y-67482070D01*
X25528183Y-67342071D01*
X25444363Y-67267813D01*
X25407238Y-67208626D01*
X25408006Y-67138761D01*
X25444363Y-67082186D01*
X25528183Y-67007929D01*
X25624818Y-66867930D01*
X25685140Y-66708872D01*
X25705645Y-66540000D01*
X25685140Y-66371128D01*
X25624818Y-66212070D01*
X25598563Y-66174034D01*
X25590476Y-66162318D01*
X25528183Y-66072071D01*
X25444363Y-65997813D01*
X25407238Y-65938626D01*
X25408006Y-65868761D01*
X25444363Y-65812186D01*
X25528183Y-65737929D01*
X25624818Y-65597930D01*
X25685140Y-65438872D01*
X25705645Y-65270000D01*
X25685140Y-65101128D01*
X25683653Y-65097209D01*
X25683417Y-65094139D01*
X25683345Y-65093846D01*
X25683393Y-65093833D01*
X25678284Y-65027547D01*
X25693128Y-65000000D01*
X29644341Y-65000000D01*
X29664936Y-65235403D01*
X29664938Y-65235413D01*
X29726094Y-65463655D01*
X29726096Y-65463659D01*
X29726097Y-65463663D01*
X29776031Y-65570746D01*
X29825964Y-65677828D01*
X29825965Y-65677830D01*
X29961505Y-65871402D01*
X30128597Y-66038494D01*
X30322169Y-66174034D01*
X30322171Y-66174035D01*
X30536337Y-66273903D01*
X30764592Y-66335063D01*
X30941032Y-66350499D01*
X30941033Y-66350500D01*
X30941034Y-66350500D01*
X31058967Y-66350500D01*
X31058967Y-66350499D01*
X31235408Y-66335063D01*
X31463663Y-66273903D01*
X31677829Y-66174035D01*
X31871401Y-66038495D01*
X32038495Y-65871401D01*
X32174035Y-65677830D01*
X32273903Y-65463663D01*
X32335063Y-65235408D01*
X32355659Y-65000000D01*
X32335063Y-64764592D01*
X32273903Y-64536337D01*
X32174035Y-64322171D01*
X32174034Y-64322169D01*
X32038494Y-64128597D01*
X31871402Y-63961505D01*
X31677830Y-63825965D01*
X31677828Y-63825964D01*
X31570746Y-63776031D01*
X31463663Y-63726097D01*
X31463659Y-63726096D01*
X31463655Y-63726094D01*
X31235413Y-63664938D01*
X31235403Y-63664936D01*
X31058967Y-63649500D01*
X31058966Y-63649500D01*
X30941034Y-63649500D01*
X30941033Y-63649500D01*
X30764596Y-63664936D01*
X30764586Y-63664938D01*
X30536344Y-63726094D01*
X30536335Y-63726098D01*
X30322171Y-63825964D01*
X30322169Y-63825965D01*
X30128597Y-63961505D01*
X29961506Y-64128597D01*
X29961501Y-64128604D01*
X29825967Y-64322165D01*
X29825965Y-64322169D01*
X29726098Y-64536335D01*
X29726094Y-64536344D01*
X29664938Y-64764586D01*
X29664936Y-64764596D01*
X29644341Y-64999999D01*
X29644341Y-65000000D01*
X25693128Y-65000000D01*
X25711429Y-64966039D01*
X25740175Y-64944398D01*
X25742093Y-64943350D01*
X25857187Y-64857190D01*
X25857190Y-64857187D01*
X25943350Y-64742093D01*
X25943354Y-64742086D01*
X25993596Y-64607379D01*
X25993598Y-64607372D01*
X25999999Y-64547844D01*
X26000000Y-64547827D01*
X26000000Y-64250000D01*
X25214483Y-64250000D01*
X25285801Y-64165007D01*
X25325000Y-64057306D01*
X25325000Y-63942694D01*
X25285801Y-63834993D01*
X25212129Y-63747195D01*
X25112871Y-63689888D01*
X25028436Y-63675000D01*
X24971564Y-63675000D01*
X24887129Y-63689888D01*
X24787871Y-63747195D01*
X24714199Y-63834993D01*
X24675000Y-63942694D01*
X24675000Y-64057306D01*
X24714199Y-64165007D01*
X24785517Y-64250000D01*
X24000000Y-64250000D01*
X24000000Y-64547844D01*
X13999999Y-64547844D01*
X14000000Y-64547827D01*
X14000000Y-64250000D01*
X13214483Y-64250000D01*
X13285801Y-64165007D01*
X13325000Y-64057306D01*
X13325000Y-63942694D01*
X13285801Y-63834993D01*
X13212129Y-63747195D01*
X13112871Y-63689888D01*
X13028436Y-63675000D01*
X12971564Y-63675000D01*
X12887129Y-63689888D01*
X12787871Y-63747195D01*
X12714199Y-63834993D01*
X12675000Y-63942694D01*
X12675000Y-64057306D01*
X12714199Y-64165007D01*
X12785517Y-64250000D01*
X12000000Y-64250000D01*
X12000000Y-64547844D01*
X6276986Y-64547844D01*
X6273903Y-64536337D01*
X6174035Y-64322171D01*
X6174034Y-64322169D01*
X6038494Y-64128597D01*
X5871402Y-63961505D01*
X5677830Y-63825965D01*
X5677828Y-63825964D01*
X5570746Y-63776031D01*
X5514923Y-63750000D01*
X12000000Y-63750000D01*
X12750000Y-63750000D01*
X12750000Y-63000000D01*
X13250000Y-63000000D01*
X13250000Y-63750000D01*
X14000000Y-63750000D01*
X24000000Y-63750000D01*
X24750000Y-63750000D01*
X24750000Y-63000000D01*
X25250000Y-63000000D01*
X25250000Y-63750000D01*
X26000000Y-63750000D01*
X26000000Y-63452172D01*
X25999999Y-63452155D01*
X25993598Y-63392627D01*
X25993596Y-63392620D01*
X25943354Y-63257913D01*
X25943350Y-63257906D01*
X25857190Y-63142812D01*
X25857187Y-63142809D01*
X25742093Y-63056649D01*
X25742086Y-63056645D01*
X25607379Y-63006403D01*
X25607372Y-63006401D01*
X25547844Y-63000000D01*
X25250000Y-63000000D01*
X24750000Y-63000000D01*
X24452155Y-63000000D01*
X24392627Y-63006401D01*
X24392620Y-63006403D01*
X24257913Y-63056645D01*
X24257906Y-63056649D01*
X24142812Y-63142809D01*
X24142809Y-63142812D01*
X24056649Y-63257906D01*
X24056645Y-63257913D01*
X24006403Y-63392620D01*
X24006401Y-63392627D01*
X24000000Y-63452155D01*
X24000000Y-63750000D01*
X14000000Y-63750000D01*
X14000000Y-63452172D01*
X13999999Y-63452155D01*
X13993598Y-63392627D01*
X13993596Y-63392620D01*
X13943354Y-63257913D01*
X13943350Y-63257906D01*
X13857190Y-63142812D01*
X13857187Y-63142809D01*
X13742093Y-63056649D01*
X13742086Y-63056645D01*
X13607379Y-63006403D01*
X13607372Y-63006401D01*
X13547844Y-63000000D01*
X13250000Y-63000000D01*
X12750000Y-63000000D01*
X12452155Y-63000000D01*
X12392627Y-63006401D01*
X12392620Y-63006403D01*
X12257913Y-63056645D01*
X12257906Y-63056649D01*
X12142812Y-63142809D01*
X12142809Y-63142812D01*
X12056649Y-63257906D01*
X12056645Y-63257913D01*
X12006403Y-63392620D01*
X12006401Y-63392627D01*
X12000000Y-63452155D01*
X12000000Y-63750000D01*
X5514923Y-63750000D01*
X5463663Y-63726097D01*
X5463659Y-63726096D01*
X5463655Y-63726094D01*
X5235413Y-63664938D01*
X5235403Y-63664936D01*
X5058967Y-63649500D01*
X5058966Y-63649500D01*
X4941034Y-63649500D01*
X4941033Y-63649500D01*
X4764596Y-63664936D01*
X4764586Y-63664938D01*
X4536344Y-63726094D01*
X4536335Y-63726098D01*
X4322171Y-63825964D01*
X4322169Y-63825965D01*
X4128597Y-63961505D01*
X3961506Y-64128597D01*
X3961501Y-64128604D01*
X3825967Y-64322165D01*
X3825965Y-64322169D01*
X3726098Y-64536335D01*
X3726094Y-64536344D01*
X3664938Y-64764586D01*
X3664936Y-64764596D01*
X3644341Y-64999999D01*
X3644341Y-65000000D01*
X500500Y-65000000D01*
X500500Y-61540000D01*
X2944417Y-61540000D01*
X2964699Y-61745932D01*
X2964700Y-61745934D01*
X3024768Y-61943954D01*
X3122315Y-62126450D01*
X3122317Y-62126452D01*
X3253589Y-62286410D01*
X3350209Y-62365702D01*
X3413550Y-62417685D01*
X3596046Y-62515232D01*
X3794066Y-62575300D01*
X3794065Y-62575300D01*
X3812529Y-62577118D01*
X4000000Y-62595583D01*
X4205934Y-62575300D01*
X4403954Y-62515232D01*
X4586450Y-62417685D01*
X4746410Y-62286410D01*
X4877685Y-62126450D01*
X4975232Y-61943954D01*
X5035300Y-61745934D01*
X5055583Y-61540000D01*
X30944417Y-61540000D01*
X30964699Y-61745932D01*
X30964700Y-61745934D01*
X31024768Y-61943954D01*
X31122315Y-62126450D01*
X31122317Y-62126452D01*
X31253589Y-62286410D01*
X31350209Y-62365702D01*
X31413550Y-62417685D01*
X31596046Y-62515232D01*
X31794066Y-62575300D01*
X31794065Y-62575300D01*
X31812529Y-62577118D01*
X32000000Y-62595583D01*
X32205934Y-62575300D01*
X32403954Y-62515232D01*
X32586450Y-62417685D01*
X32746410Y-62286410D01*
X32877685Y-62126450D01*
X32975232Y-61943954D01*
X33035300Y-61745934D01*
X33055583Y-61540000D01*
X33035300Y-61334066D01*
X32975232Y-61136046D01*
X32877685Y-60953550D01*
X32825702Y-60890209D01*
X32746410Y-60793589D01*
X32586452Y-60662317D01*
X32586453Y-60662317D01*
X32586450Y-60662315D01*
X32403954Y-60564768D01*
X32205934Y-60504700D01*
X32205932Y-60504699D01*
X32205934Y-60504699D01*
X32000000Y-60484417D01*
X31794067Y-60504699D01*
X31596043Y-60564769D01*
X31485898Y-60623643D01*
X31413550Y-60662315D01*
X31413548Y-60662316D01*
X31413547Y-60662317D01*
X31253589Y-60793589D01*
X31122317Y-60953547D01*
X31024769Y-61136043D01*
X30964699Y-61334067D01*
X30944417Y-61540000D01*
X5055583Y-61540000D01*
X5035300Y-61334066D01*
X4975232Y-61136046D01*
X4877685Y-60953550D01*
X4825702Y-60890209D01*
X4746410Y-60793589D01*
X4586452Y-60662317D01*
X4586453Y-60662317D01*
X4586450Y-60662315D01*
X4403954Y-60564768D01*
X4205934Y-60504700D01*
X4205932Y-60504699D01*
X4205934Y-60504699D01*
X4000000Y-60484417D01*
X3794067Y-60504699D01*
X3596043Y-60564769D01*
X3485898Y-60623643D01*
X3413550Y-60662315D01*
X3413548Y-60662316D01*
X3413547Y-60662317D01*
X3253589Y-60793589D01*
X3122317Y-60953547D01*
X3024769Y-61136043D01*
X2964699Y-61334067D01*
X2944417Y-61540000D01*
X500500Y-61540000D01*
X500500Y-59869752D01*
X2949500Y-59869752D01*
X2961131Y-59928229D01*
X2961132Y-59928230D01*
X3005447Y-59994552D01*
X3071769Y-60038867D01*
X3071770Y-60038868D01*
X3130247Y-60050499D01*
X3130250Y-60050500D01*
X3130252Y-60050500D01*
X4869750Y-60050500D01*
X4869751Y-60050499D01*
X4884568Y-60047552D01*
X4928229Y-60038868D01*
X4928229Y-60038867D01*
X4928231Y-60038867D01*
X4994552Y-59994552D01*
X5038867Y-59928231D01*
X5038867Y-59928229D01*
X5038868Y-59928229D01*
X5050499Y-59869752D01*
X30949500Y-59869752D01*
X30961131Y-59928229D01*
X30961132Y-59928230D01*
X31005447Y-59994552D01*
X31071769Y-60038867D01*
X31071770Y-60038868D01*
X31130247Y-60050499D01*
X31130250Y-60050500D01*
X31130252Y-60050500D01*
X32869750Y-60050500D01*
X32869751Y-60050499D01*
X32884568Y-60047552D01*
X32928229Y-60038868D01*
X32928229Y-60038867D01*
X32928231Y-60038867D01*
X32994552Y-59994552D01*
X33038867Y-59928231D01*
X33038867Y-59928229D01*
X33038868Y-59928229D01*
X33050499Y-59869752D01*
X33050500Y-59869750D01*
X33050500Y-58130249D01*
X33050499Y-58130247D01*
X33038868Y-58071770D01*
X33038867Y-58071769D01*
X32994552Y-58005447D01*
X32928230Y-57961132D01*
X32928229Y-57961131D01*
X32869752Y-57949500D01*
X32869748Y-57949500D01*
X31130252Y-57949500D01*
X31130247Y-57949500D01*
X31071770Y-57961131D01*
X31071769Y-57961132D01*
X31005447Y-58005447D01*
X30961132Y-58071769D01*
X30961131Y-58071770D01*
X30949500Y-58130247D01*
X30949500Y-59869752D01*
X5050499Y-59869752D01*
X5050500Y-59869750D01*
X5050500Y-58130249D01*
X5050499Y-58130247D01*
X5038868Y-58071770D01*
X5038867Y-58071769D01*
X4994552Y-58005447D01*
X4928230Y-57961132D01*
X4928229Y-57961131D01*
X4869752Y-57949500D01*
X4869748Y-57949500D01*
X3130252Y-57949500D01*
X3130247Y-57949500D01*
X3071770Y-57961131D01*
X3071769Y-57961132D01*
X3005447Y-58005447D01*
X2961132Y-58071769D01*
X2961131Y-58071770D01*
X2949500Y-58130247D01*
X2949500Y-59869752D01*
X500500Y-59869752D01*
X500500Y-50620000D01*
X25404417Y-50620000D01*
X25424699Y-50825932D01*
X25424700Y-50825934D01*
X25484768Y-51023954D01*
X25582315Y-51206450D01*
X25582317Y-51206452D01*
X25713589Y-51366410D01*
X25810209Y-51445702D01*
X25873550Y-51497685D01*
X26056046Y-51595232D01*
X26254066Y-51655300D01*
X26254065Y-51655300D01*
X26272529Y-51657118D01*
X26460000Y-51675583D01*
X26665934Y-51655300D01*
X26863954Y-51595232D01*
X27046450Y-51497685D01*
X27206410Y-51366410D01*
X27337685Y-51206450D01*
X27435232Y-51023954D01*
X27455406Y-50957446D01*
X27493702Y-50899010D01*
X27557514Y-50870553D01*
X27626581Y-50881112D01*
X27678975Y-50927336D01*
X27693841Y-50961349D01*
X27726567Y-51083486D01*
X27726570Y-51083492D01*
X27826399Y-51297578D01*
X27961894Y-51491082D01*
X28128917Y-51658105D01*
X28322421Y-51793600D01*
X28536507Y-51893429D01*
X28536516Y-51893433D01*
X28750000Y-51950634D01*
X28750000Y-51055501D01*
X28857685Y-51104680D01*
X28964237Y-51120000D01*
X29035763Y-51120000D01*
X29142315Y-51104680D01*
X29250000Y-51055501D01*
X29250000Y-51950633D01*
X29463483Y-51893433D01*
X29463492Y-51893429D01*
X29677578Y-51793600D01*
X29871082Y-51658105D01*
X30038105Y-51491082D01*
X30173600Y-51297578D01*
X30273429Y-51083492D01*
X30273432Y-51083486D01*
X30330636Y-50870000D01*
X29433686Y-50870000D01*
X29459493Y-50829844D01*
X29500000Y-50691889D01*
X29500000Y-50548111D01*
X29459493Y-50410156D01*
X29433686Y-50370000D01*
X30330636Y-50370000D01*
X30330635Y-50369999D01*
X30273432Y-50156513D01*
X30273429Y-50156507D01*
X30173600Y-49942422D01*
X30173599Y-49942420D01*
X30038113Y-49748926D01*
X30038108Y-49748920D01*
X29871082Y-49581894D01*
X29677578Y-49446399D01*
X29463492Y-49346570D01*
X29463486Y-49346567D01*
X29341349Y-49313841D01*
X29281689Y-49277476D01*
X29251160Y-49214629D01*
X29259455Y-49145253D01*
X29303940Y-49091375D01*
X29337444Y-49075407D01*
X29403954Y-49055232D01*
X29586450Y-48957685D01*
X29746410Y-48826410D01*
X29877685Y-48666450D01*
X29975232Y-48483954D01*
X30035300Y-48285934D01*
X30055583Y-48080000D01*
X30035300Y-47874066D01*
X29975232Y-47676046D01*
X29877685Y-47493550D01*
X29825702Y-47430209D01*
X29746410Y-47333589D01*
X29586452Y-47202317D01*
X29586453Y-47202317D01*
X29586450Y-47202315D01*
X29403954Y-47104768D01*
X29337447Y-47084593D01*
X29279009Y-47046296D01*
X29250553Y-46982484D01*
X29261113Y-46913417D01*
X29307337Y-46861023D01*
X29341350Y-46846158D01*
X29463483Y-46813433D01*
X29463492Y-46813429D01*
X29677578Y-46713600D01*
X29871082Y-46578105D01*
X30038105Y-46411082D01*
X30173600Y-46217578D01*
X30273429Y-46003492D01*
X30273432Y-46003486D01*
X30330636Y-45790000D01*
X29433686Y-45790000D01*
X29459493Y-45749844D01*
X29500000Y-45611889D01*
X29500000Y-45468111D01*
X29459493Y-45330156D01*
X29433686Y-45290000D01*
X30330636Y-45290000D01*
X30330635Y-45289999D01*
X30273432Y-45076513D01*
X30273429Y-45076507D01*
X30173600Y-44862422D01*
X30173599Y-44862420D01*
X30038113Y-44668926D01*
X30038108Y-44668920D01*
X29871082Y-44501894D01*
X29677578Y-44366399D01*
X29507052Y-44286882D01*
X29454613Y-44240710D01*
X29435461Y-44173516D01*
X29455677Y-44106635D01*
X29508842Y-44061300D01*
X29559457Y-44050500D01*
X29869750Y-44050500D01*
X29869751Y-44050499D01*
X29884568Y-44047552D01*
X29928229Y-44038868D01*
X29928229Y-44038867D01*
X29928231Y-44038867D01*
X29994552Y-43994552D01*
X30038867Y-43928231D01*
X30038867Y-43928229D01*
X30038868Y-43928229D01*
X30050499Y-43869752D01*
X30050500Y-43869750D01*
X30050500Y-42130249D01*
X30050499Y-42130247D01*
X30038868Y-42071770D01*
X30038867Y-42071769D01*
X29994552Y-42005447D01*
X29928230Y-41961132D01*
X29928229Y-41961131D01*
X29869752Y-41949500D01*
X29869748Y-41949500D01*
X28130252Y-41949500D01*
X28130247Y-41949500D01*
X28071770Y-41961131D01*
X28071769Y-41961132D01*
X28005447Y-42005447D01*
X27961132Y-42071769D01*
X27961131Y-42071770D01*
X27949500Y-42130247D01*
X27949500Y-43869752D01*
X27961131Y-43928229D01*
X27961132Y-43928230D01*
X28005447Y-43994552D01*
X28071769Y-44038867D01*
X28071770Y-44038868D01*
X28130247Y-44050499D01*
X28130250Y-44050500D01*
X28440543Y-44050500D01*
X28507582Y-44070185D01*
X28553337Y-44122989D01*
X28563281Y-44192147D01*
X28534256Y-44255703D01*
X28492948Y-44286882D01*
X28322422Y-44366399D01*
X28322420Y-44366400D01*
X28128926Y-44501886D01*
X28128920Y-44501891D01*
X27961891Y-44668920D01*
X27961886Y-44668926D01*
X27826400Y-44862420D01*
X27826399Y-44862422D01*
X27726570Y-45076507D01*
X27726567Y-45076514D01*
X27693841Y-45198650D01*
X27657476Y-45258310D01*
X27594629Y-45288839D01*
X27525253Y-45280544D01*
X27471375Y-45236059D01*
X27455406Y-45202553D01*
X27435232Y-45136046D01*
X27337685Y-44953550D01*
X27262897Y-44862420D01*
X27206410Y-44793589D01*
X27088677Y-44696969D01*
X27046450Y-44662315D01*
X26863954Y-44564768D01*
X26665934Y-44504700D01*
X26665932Y-44504699D01*
X26665934Y-44504699D01*
X26460000Y-44484417D01*
X26254067Y-44504699D01*
X26056043Y-44564769D01*
X25967553Y-44612069D01*
X25873550Y-44662315D01*
X25873548Y-44662316D01*
X25873547Y-44662317D01*
X25713589Y-44793589D01*
X25582317Y-44953547D01*
X25484769Y-45136043D01*
X25424699Y-45334067D01*
X25404417Y-45540000D01*
X25424699Y-45745932D01*
X25432096Y-45770315D01*
X25484768Y-45943954D01*
X25582315Y-46126450D01*
X25582317Y-46126452D01*
X25713589Y-46286410D01*
X25791075Y-46350000D01*
X25873550Y-46417685D01*
X26056046Y-46515232D01*
X26254066Y-46575300D01*
X26254065Y-46575300D01*
X26272529Y-46577118D01*
X26460000Y-46595583D01*
X26665934Y-46575300D01*
X26863954Y-46515232D01*
X27046450Y-46417685D01*
X27206410Y-46286410D01*
X27337685Y-46126450D01*
X27435232Y-45943954D01*
X27455406Y-45877446D01*
X27493702Y-45819010D01*
X27557514Y-45790553D01*
X27626581Y-45801112D01*
X27678975Y-45847336D01*
X27693841Y-45881349D01*
X27726567Y-46003486D01*
X27726570Y-46003492D01*
X27826399Y-46217578D01*
X27961894Y-46411082D01*
X28128917Y-46578105D01*
X28322421Y-46713600D01*
X28536507Y-46813429D01*
X28536516Y-46813433D01*
X28658649Y-46846158D01*
X28718310Y-46882523D01*
X28748839Y-46945369D01*
X28740545Y-47014745D01*
X28696059Y-47068623D01*
X28662552Y-47084593D01*
X28596046Y-47104767D01*
X28465358Y-47174622D01*
X28413550Y-47202315D01*
X28413548Y-47202316D01*
X28413547Y-47202317D01*
X28253589Y-47333589D01*
X28122317Y-47493547D01*
X28024769Y-47676043D01*
X27964699Y-47874067D01*
X27944417Y-48080000D01*
X27964699Y-48285932D01*
X27964700Y-48285934D01*
X28024768Y-48483954D01*
X28122315Y-48666450D01*
X28122317Y-48666452D01*
X28253589Y-48826410D01*
X28350209Y-48905702D01*
X28413550Y-48957685D01*
X28596046Y-49055232D01*
X28662551Y-49075405D01*
X28720989Y-49113702D01*
X28749446Y-49177514D01*
X28738887Y-49246581D01*
X28692663Y-49298975D01*
X28658650Y-49313841D01*
X28536514Y-49346567D01*
X28536507Y-49346570D01*
X28322422Y-49446399D01*
X28322420Y-49446400D01*
X28128926Y-49581886D01*
X28128920Y-49581891D01*
X27961891Y-49748920D01*
X27961886Y-49748926D01*
X27826400Y-49942420D01*
X27826399Y-49942422D01*
X27726570Y-50156507D01*
X27726567Y-50156514D01*
X27693841Y-50278650D01*
X27657476Y-50338310D01*
X27594629Y-50368839D01*
X27525253Y-50360544D01*
X27471375Y-50316059D01*
X27455406Y-50282553D01*
X27435232Y-50216046D01*
X27337685Y-50033550D01*
X27262897Y-49942420D01*
X27206410Y-49873589D01*
X27088677Y-49776969D01*
X27046450Y-49742315D01*
X26863954Y-49644768D01*
X26665934Y-49584700D01*
X26665932Y-49584699D01*
X26665934Y-49584699D01*
X26460000Y-49564417D01*
X26254067Y-49584699D01*
X26056043Y-49644769D01*
X25945898Y-49703643D01*
X25873550Y-49742315D01*
X25873548Y-49742316D01*
X25873547Y-49742317D01*
X25713589Y-49873589D01*
X25582317Y-50033547D01*
X25484769Y-50216043D01*
X25424699Y-50414067D01*
X25404417Y-50620000D01*
X500500Y-50620000D01*
X500500Y-48080000D01*
X25404417Y-48080000D01*
X25424699Y-48285932D01*
X25424700Y-48285934D01*
X25484768Y-48483954D01*
X25582315Y-48666450D01*
X25582317Y-48666452D01*
X25713589Y-48826410D01*
X25810209Y-48905702D01*
X25873550Y-48957685D01*
X26056046Y-49055232D01*
X26254066Y-49115300D01*
X26254065Y-49115300D01*
X26272529Y-49117118D01*
X26460000Y-49135583D01*
X26665934Y-49115300D01*
X26863954Y-49055232D01*
X27046450Y-48957685D01*
X27206410Y-48826410D01*
X27337685Y-48666450D01*
X27435232Y-48483954D01*
X27495300Y-48285934D01*
X27515583Y-48080000D01*
X27495300Y-47874066D01*
X27435232Y-47676046D01*
X27337685Y-47493550D01*
X27285702Y-47430209D01*
X27206410Y-47333589D01*
X27046452Y-47202317D01*
X27046453Y-47202317D01*
X27046450Y-47202315D01*
X26863954Y-47104768D01*
X26665934Y-47044700D01*
X26665932Y-47044699D01*
X26665934Y-47044699D01*
X26460000Y-47024417D01*
X26254067Y-47044699D01*
X26078692Y-47097898D01*
X26056050Y-47104767D01*
X26056043Y-47104769D01*
X25945898Y-47163643D01*
X25873550Y-47202315D01*
X25873548Y-47202316D01*
X25873547Y-47202317D01*
X25713589Y-47333589D01*
X25582317Y-47493547D01*
X25484769Y-47676043D01*
X25424699Y-47874067D01*
X25404417Y-48080000D01*
X500500Y-48080000D01*
X500500Y-41019999D01*
X3030839Y-41019999D01*
X3030840Y-41020000D01*
X3785517Y-41020000D01*
X3714199Y-41104993D01*
X3675000Y-41212694D01*
X3675000Y-41327306D01*
X3714199Y-41435007D01*
X3785517Y-41520000D01*
X3030840Y-41520000D01*
X3071652Y-41654541D01*
X3164503Y-41828253D01*
X3164507Y-41828260D01*
X3289471Y-41980528D01*
X3358009Y-42036776D01*
X3397343Y-42094522D01*
X3399214Y-42164367D01*
X3381397Y-42203065D01*
X3375183Y-42212067D01*
X3375182Y-42212068D01*
X3314860Y-42371125D01*
X3314859Y-42371130D01*
X3294355Y-42540000D01*
X3314859Y-42708869D01*
X3314860Y-42708874D01*
X3375182Y-42867931D01*
X3471818Y-43007930D01*
X3555634Y-43082185D01*
X3592761Y-43141374D01*
X3591993Y-43211240D01*
X3555634Y-43267815D01*
X3471818Y-43342069D01*
X3375182Y-43482068D01*
X3314860Y-43641125D01*
X3314859Y-43641130D01*
X3294355Y-43810000D01*
X3314859Y-43978869D01*
X3314860Y-43978874D01*
X3375182Y-44137931D01*
X3441885Y-44234566D01*
X3456475Y-44255703D01*
X3471818Y-44277930D01*
X3555634Y-44352185D01*
X3592761Y-44411374D01*
X3591993Y-44481240D01*
X3555634Y-44537815D01*
X3471818Y-44612069D01*
X3375182Y-44752068D01*
X3314860Y-44911125D01*
X3314859Y-44911130D01*
X3294355Y-45080000D01*
X3314859Y-45248869D01*
X3314860Y-45248874D01*
X3375182Y-45407931D01*
X3471818Y-45547930D01*
X3555634Y-45622185D01*
X3592761Y-45681374D01*
X3591993Y-45751240D01*
X3555634Y-45807815D01*
X3471818Y-45882069D01*
X3375182Y-46022068D01*
X3314860Y-46181125D01*
X3314859Y-46181130D01*
X3294355Y-46350000D01*
X3314859Y-46518869D01*
X3314860Y-46518874D01*
X3375182Y-46677931D01*
X3399803Y-46713600D01*
X3471817Y-46817929D01*
X3544729Y-46882523D01*
X3599150Y-46930736D01*
X3697748Y-46982484D01*
X3749775Y-47009790D01*
X3914944Y-47050500D01*
X4085056Y-47050500D01*
X4250225Y-47009790D01*
X4372968Y-46945369D01*
X4400849Y-46930736D01*
X4400850Y-46930734D01*
X4400852Y-46930734D01*
X4528183Y-46817929D01*
X4624818Y-46677930D01*
X4685140Y-46518872D01*
X4705645Y-46350000D01*
X4685140Y-46181128D01*
X4624818Y-46022070D01*
X4611994Y-46003492D01*
X4570898Y-45943954D01*
X4528183Y-45882071D01*
X4444363Y-45807813D01*
X4407238Y-45748626D01*
X4408006Y-45678761D01*
X4444363Y-45622186D01*
X4528183Y-45547929D01*
X4624818Y-45407930D01*
X4685140Y-45248872D01*
X4705645Y-45080000D01*
X4685140Y-44911128D01*
X4624818Y-44752070D01*
X4528183Y-44612071D01*
X4444363Y-44537813D01*
X4407238Y-44478626D01*
X4408006Y-44408761D01*
X4444363Y-44352186D01*
X4528183Y-44277929D01*
X4624818Y-44137930D01*
X4685140Y-43978872D01*
X4705645Y-43810000D01*
X4685140Y-43641128D01*
X4624818Y-43482070D01*
X4528183Y-43342071D01*
X4444363Y-43267813D01*
X4407238Y-43208626D01*
X4408006Y-43138761D01*
X4444363Y-43082186D01*
X4528183Y-43007929D01*
X4533656Y-43000000D01*
X25404417Y-43000000D01*
X25424699Y-43205932D01*
X25443471Y-43267815D01*
X25484768Y-43403954D01*
X25582315Y-43586450D01*
X25582317Y-43586452D01*
X25713589Y-43746410D01*
X25791075Y-43810000D01*
X25873550Y-43877685D01*
X26056046Y-43975232D01*
X26254066Y-44035300D01*
X26254065Y-44035300D01*
X26272529Y-44037118D01*
X26460000Y-44055583D01*
X26665934Y-44035300D01*
X26863954Y-43975232D01*
X27046450Y-43877685D01*
X27206410Y-43746410D01*
X27337685Y-43586450D01*
X27435232Y-43403954D01*
X27495300Y-43205934D01*
X27515583Y-43000000D01*
X27495300Y-42794066D01*
X27435232Y-42596046D01*
X27337685Y-42413550D01*
X27285702Y-42350209D01*
X27206410Y-42253589D01*
X27056121Y-42130252D01*
X27046450Y-42122315D01*
X26863954Y-42024768D01*
X26665934Y-41964700D01*
X26665932Y-41964699D01*
X26665934Y-41964699D01*
X26460000Y-41944417D01*
X26254067Y-41964699D01*
X26056043Y-42024769D01*
X25968114Y-42071769D01*
X25873550Y-42122315D01*
X25873548Y-42122316D01*
X25873547Y-42122317D01*
X25713589Y-42253589D01*
X25582317Y-42413547D01*
X25484769Y-42596043D01*
X25424699Y-42794067D01*
X25404417Y-43000000D01*
X4533656Y-43000000D01*
X4624818Y-42867930D01*
X4685140Y-42708872D01*
X4705645Y-42540000D01*
X4685140Y-42371128D01*
X4624818Y-42212070D01*
X4618604Y-42203068D01*
X4596722Y-42136714D01*
X4614187Y-42069063D01*
X4641991Y-42036774D01*
X4710529Y-41980527D01*
X4835492Y-41828260D01*
X4835496Y-41828253D01*
X4928347Y-41654541D01*
X4969160Y-41520000D01*
X4214483Y-41520000D01*
X4285801Y-41435007D01*
X4325000Y-41327306D01*
X4325000Y-41212694D01*
X4285801Y-41104993D01*
X4214483Y-41020000D01*
X4969160Y-41020000D01*
X4969160Y-41019999D01*
X4928347Y-40885458D01*
X4835496Y-40711746D01*
X4835492Y-40711739D01*
X4728647Y-40581549D01*
X4701334Y-40517239D01*
X4700500Y-40502884D01*
X4700500Y-39480249D01*
X4700499Y-39480247D01*
X4688868Y-39421770D01*
X4688867Y-39421769D01*
X4644552Y-39355447D01*
X4578230Y-39311132D01*
X4578229Y-39311131D01*
X4519752Y-39299500D01*
X4519748Y-39299500D01*
X3480252Y-39299500D01*
X3480247Y-39299500D01*
X3421770Y-39311131D01*
X3421769Y-39311132D01*
X3355447Y-39355447D01*
X3311132Y-39421769D01*
X3311131Y-39421770D01*
X3299500Y-39480247D01*
X3299500Y-40502885D01*
X3279815Y-40569924D01*
X3271353Y-40581550D01*
X3164507Y-40711739D01*
X3164503Y-40711746D01*
X3071652Y-40885458D01*
X3030839Y-41019999D01*
X500500Y-41019999D01*
X500500Y-33444000D01*
X520185Y-33376961D01*
X572989Y-33331206D01*
X624500Y-33320000D01*
X970713Y-33320000D01*
X1122338Y-33304581D01*
X1316381Y-33243700D01*
X1316391Y-33243695D01*
X1494215Y-33144994D01*
X1494216Y-33144994D01*
X1648530Y-33012521D01*
X1648531Y-33012520D01*
X1773018Y-32851695D01*
X1862588Y-32669093D01*
X1888246Y-32570000D01*
X3276634Y-32570000D01*
X3276931Y-32571946D01*
X3276933Y-32571952D01*
X3347562Y-32762657D01*
X3347565Y-32762664D01*
X3455149Y-32935267D01*
X3595264Y-33082668D01*
X3595266Y-33082669D01*
X3762195Y-33198856D01*
X3949092Y-33279059D01*
X4148310Y-33320000D01*
X4300000Y-33320000D01*
X4300000Y-32620000D01*
X4800000Y-32620000D01*
X4800000Y-33320000D01*
X4900713Y-33320000D01*
X5052338Y-33304581D01*
X5246381Y-33243700D01*
X5246391Y-33243695D01*
X5424215Y-33144994D01*
X5424216Y-33144994D01*
X5578530Y-33012521D01*
X5578531Y-33012520D01*
X5703018Y-32851695D01*
X5792588Y-32669093D01*
X5818246Y-32570000D01*
X5016111Y-32570000D01*
X5055610Y-32545543D01*
X5123201Y-32456038D01*
X5153895Y-32348160D01*
X5143546Y-32236479D01*
X5093552Y-32136078D01*
X5021069Y-32070000D01*
X5823366Y-32070000D01*
X5823068Y-32068053D01*
X5823066Y-32068047D01*
X5752437Y-31877342D01*
X5752434Y-31877335D01*
X5644850Y-31704732D01*
X5504735Y-31557331D01*
X5504733Y-31557330D01*
X5337804Y-31441143D01*
X5150907Y-31360940D01*
X4951690Y-31320000D01*
X4800000Y-31320000D01*
X4800000Y-32020000D01*
X4300000Y-32020000D01*
X4300000Y-31320000D01*
X4199287Y-31320000D01*
X4047661Y-31335418D01*
X3853618Y-31396299D01*
X3853608Y-31396304D01*
X3675784Y-31495005D01*
X3675783Y-31495005D01*
X3521469Y-31627478D01*
X3521468Y-31627479D01*
X3396981Y-31788304D01*
X3307411Y-31970906D01*
X3281754Y-32070000D01*
X4083889Y-32070000D01*
X4044390Y-32094457D01*
X3976799Y-32183962D01*
X3946105Y-32291840D01*
X3956454Y-32403521D01*
X4006448Y-32503922D01*
X4078931Y-32570000D01*
X3276634Y-32570000D01*
X1888246Y-32570000D01*
X1086111Y-32570000D01*
X1125610Y-32545543D01*
X1193201Y-32456038D01*
X1223895Y-32348160D01*
X1213546Y-32236479D01*
X1163552Y-32136078D01*
X1091069Y-32070000D01*
X1893366Y-32070000D01*
X1893068Y-32068053D01*
X1893066Y-32068047D01*
X1822437Y-31877342D01*
X1822434Y-31877335D01*
X1714850Y-31704732D01*
X1574735Y-31557331D01*
X1574733Y-31557330D01*
X1407804Y-31441143D01*
X1399924Y-31437762D01*
X1346080Y-31393235D01*
X1324857Y-31326666D01*
X1342992Y-31259192D01*
X1350443Y-31248332D01*
X1402698Y-31180233D01*
X1460687Y-31040236D01*
X1480466Y-30890000D01*
X1460687Y-30739764D01*
X1402698Y-30599767D01*
X1310451Y-30479549D01*
X1190233Y-30387302D01*
X1190229Y-30387300D01*
X1126801Y-30361027D01*
X1050236Y-30329313D01*
X1036171Y-30327461D01*
X937727Y-30314500D01*
X937720Y-30314500D01*
X862280Y-30314500D01*
X862272Y-30314500D01*
X749764Y-30329313D01*
X749760Y-30329314D01*
X671952Y-30361543D01*
X602483Y-30369012D01*
X540004Y-30337736D01*
X504352Y-30277647D01*
X500500Y-30246982D01*
X500500Y-25753017D01*
X520185Y-25685978D01*
X572989Y-25640223D01*
X642147Y-25630279D01*
X671949Y-25638455D01*
X749764Y-25670687D01*
X862280Y-25685500D01*
X862287Y-25685500D01*
X937713Y-25685500D01*
X937720Y-25685500D01*
X1050236Y-25670687D01*
X1190233Y-25612698D01*
X1310451Y-25520451D01*
X1402698Y-25400233D01*
X1460687Y-25260236D01*
X1480466Y-25110000D01*
X1460687Y-24959764D01*
X1402698Y-24819767D01*
X1402697Y-24819765D01*
X1377388Y-24786783D01*
X1348199Y-24748743D01*
X1323005Y-24683576D01*
X1337043Y-24615131D01*
X1385856Y-24565141D01*
X1386398Y-24564839D01*
X1494211Y-24504997D01*
X1494216Y-24504994D01*
X1648530Y-24372521D01*
X1648531Y-24372520D01*
X1773018Y-24211695D01*
X1862588Y-24029093D01*
X1888246Y-23930000D01*
X3276634Y-23930000D01*
X3276931Y-23931946D01*
X3276933Y-23931952D01*
X3347562Y-24122657D01*
X3347565Y-24122664D01*
X3455149Y-24295267D01*
X3595264Y-24442668D01*
X3595266Y-24442669D01*
X3762195Y-24558856D01*
X3949092Y-24639059D01*
X4148310Y-24680000D01*
X4300000Y-24680000D01*
X4300000Y-23980000D01*
X4800000Y-23980000D01*
X4800000Y-24680000D01*
X4900713Y-24680000D01*
X5052338Y-24664581D01*
X5246381Y-24603700D01*
X5246391Y-24603695D01*
X5424215Y-24504994D01*
X5424216Y-24504994D01*
X5578530Y-24372521D01*
X5578531Y-24372520D01*
X5703018Y-24211695D01*
X5792588Y-24029093D01*
X5818246Y-23930000D01*
X5016111Y-23930000D01*
X5055610Y-23905543D01*
X5123201Y-23816038D01*
X5153895Y-23708160D01*
X5143546Y-23596479D01*
X5093552Y-23496078D01*
X5021069Y-23430000D01*
X5823366Y-23430000D01*
X5823068Y-23428053D01*
X5823066Y-23428047D01*
X5752437Y-23237342D01*
X5752434Y-23237335D01*
X5644850Y-23064732D01*
X5504735Y-22917331D01*
X5504733Y-22917330D01*
X5337804Y-22801143D01*
X5150907Y-22720940D01*
X4951690Y-22680000D01*
X4800000Y-22680000D01*
X4800000Y-23380000D01*
X4300000Y-23380000D01*
X4300000Y-22680000D01*
X4199287Y-22680000D01*
X4047661Y-22695418D01*
X3853618Y-22756299D01*
X3853608Y-22756304D01*
X3675784Y-22855005D01*
X3675783Y-22855005D01*
X3521469Y-22987478D01*
X3521468Y-22987479D01*
X3396981Y-23148304D01*
X3307411Y-23330906D01*
X3281754Y-23430000D01*
X4083889Y-23430000D01*
X4044390Y-23454457D01*
X3976799Y-23543962D01*
X3946105Y-23651840D01*
X3956454Y-23763521D01*
X4006448Y-23863922D01*
X4078931Y-23930000D01*
X3276634Y-23930000D01*
X1888246Y-23930000D01*
X1086111Y-23930000D01*
X1125610Y-23905543D01*
X1193201Y-23816038D01*
X1223895Y-23708160D01*
X1213546Y-23596479D01*
X1163552Y-23496078D01*
X1091069Y-23430000D01*
X1893366Y-23430000D01*
X1893068Y-23428053D01*
X1893066Y-23428047D01*
X1822437Y-23237342D01*
X1822434Y-23237335D01*
X1714850Y-23064732D01*
X1574735Y-22917331D01*
X1574733Y-22917330D01*
X1407804Y-22801143D01*
X1220907Y-22720940D01*
X1021690Y-22680000D01*
X624500Y-22680000D01*
X557461Y-22660315D01*
X511706Y-22607511D01*
X500500Y-22556000D01*
X500500Y-13540000D01*
X2944417Y-13540000D01*
X2964699Y-13745932D01*
X2964700Y-13745934D01*
X3024768Y-13943954D01*
X3122315Y-14126450D01*
X3122317Y-14126452D01*
X3253589Y-14286410D01*
X3350209Y-14365702D01*
X3413550Y-14417685D01*
X3596046Y-14515232D01*
X3794066Y-14575300D01*
X3794065Y-14575300D01*
X3812529Y-14577118D01*
X4000000Y-14595583D01*
X4205934Y-14575300D01*
X4403954Y-14515232D01*
X4586450Y-14417685D01*
X4746410Y-14286410D01*
X4877685Y-14126450D01*
X4975232Y-13943954D01*
X5035300Y-13745934D01*
X5055583Y-13540000D01*
X30944417Y-13540000D01*
X30964699Y-13745932D01*
X30964700Y-13745934D01*
X31024768Y-13943954D01*
X31122315Y-14126450D01*
X31122317Y-14126452D01*
X31253589Y-14286410D01*
X31350209Y-14365702D01*
X31413550Y-14417685D01*
X31596046Y-14515232D01*
X31794066Y-14575300D01*
X31794065Y-14575300D01*
X31812529Y-14577118D01*
X32000000Y-14595583D01*
X32205934Y-14575300D01*
X32403954Y-14515232D01*
X32586450Y-14417685D01*
X32746410Y-14286410D01*
X32877685Y-14126450D01*
X32975232Y-13943954D01*
X33035300Y-13745934D01*
X33055583Y-13540000D01*
X33035300Y-13334066D01*
X32975232Y-13136046D01*
X32877685Y-12953550D01*
X32825702Y-12890209D01*
X32746410Y-12793589D01*
X32586452Y-12662317D01*
X32586453Y-12662317D01*
X32586450Y-12662315D01*
X32403954Y-12564768D01*
X32205934Y-12504700D01*
X32205932Y-12504699D01*
X32205934Y-12504699D01*
X32000000Y-12484417D01*
X31794067Y-12504699D01*
X31596043Y-12564769D01*
X31485898Y-12623643D01*
X31413550Y-12662315D01*
X31413548Y-12662316D01*
X31413547Y-12662317D01*
X31253589Y-12793589D01*
X31122317Y-12953547D01*
X31024769Y-13136043D01*
X30964699Y-13334067D01*
X30944417Y-13540000D01*
X5055583Y-13540000D01*
X5035300Y-13334066D01*
X4975232Y-13136046D01*
X4877685Y-12953550D01*
X4825702Y-12890209D01*
X4746410Y-12793589D01*
X4586452Y-12662317D01*
X4586453Y-12662317D01*
X4586450Y-12662315D01*
X4403954Y-12564768D01*
X4205934Y-12504700D01*
X4205932Y-12504699D01*
X4205934Y-12504699D01*
X4000000Y-12484417D01*
X3794067Y-12504699D01*
X3596043Y-12564769D01*
X3485898Y-12623643D01*
X3413550Y-12662315D01*
X3413548Y-12662316D01*
X3413547Y-12662317D01*
X3253589Y-12793589D01*
X3122317Y-12953547D01*
X3024769Y-13136043D01*
X2964699Y-13334067D01*
X2944417Y-13540000D01*
X500500Y-13540000D01*
X500500Y-11869752D01*
X2949500Y-11869752D01*
X2961131Y-11928229D01*
X2961132Y-11928230D01*
X3005447Y-11994552D01*
X3071769Y-12038867D01*
X3071770Y-12038868D01*
X3130247Y-12050499D01*
X3130250Y-12050500D01*
X3130252Y-12050500D01*
X4869750Y-12050500D01*
X4869751Y-12050499D01*
X4884568Y-12047552D01*
X4928229Y-12038868D01*
X4928229Y-12038867D01*
X4928231Y-12038867D01*
X4994552Y-11994552D01*
X5038867Y-11928231D01*
X5038867Y-11928229D01*
X5038868Y-11928229D01*
X5050499Y-11869752D01*
X5050500Y-11869750D01*
X5050500Y-10130249D01*
X5050499Y-10130247D01*
X5038868Y-10071770D01*
X5038867Y-10071769D01*
X4994552Y-10005447D01*
X4928230Y-9961132D01*
X4928229Y-9961131D01*
X4869752Y-9949500D01*
X4869748Y-9949500D01*
X3130252Y-9949500D01*
X3130247Y-9949500D01*
X3071770Y-9961131D01*
X3071769Y-9961132D01*
X3005447Y-10005447D01*
X2961132Y-10071769D01*
X2961131Y-10071770D01*
X2949500Y-10130247D01*
X2949500Y-11869752D01*
X500500Y-11869752D01*
X500500Y-7700000D01*
X11400000Y-7700000D01*
X11400000Y-13100000D01*
X24600000Y-13100000D01*
X24600000Y-11869752D01*
X30949500Y-11869752D01*
X30961131Y-11928229D01*
X30961132Y-11928230D01*
X31005447Y-11994552D01*
X31071769Y-12038867D01*
X31071770Y-12038868D01*
X31130247Y-12050499D01*
X31130250Y-12050500D01*
X31130252Y-12050500D01*
X32869750Y-12050500D01*
X32869751Y-12050499D01*
X32884568Y-12047552D01*
X32928229Y-12038868D01*
X32928229Y-12038867D01*
X32928231Y-12038867D01*
X32994552Y-11994552D01*
X33038867Y-11928231D01*
X33038867Y-11928229D01*
X33038868Y-11928229D01*
X33050499Y-11869752D01*
X33050500Y-11869750D01*
X33050500Y-10130249D01*
X33050499Y-10130247D01*
X33038868Y-10071770D01*
X33038867Y-10071769D01*
X32994552Y-10005447D01*
X32928230Y-9961132D01*
X32928229Y-9961131D01*
X32869752Y-9949500D01*
X32869748Y-9949500D01*
X31130252Y-9949500D01*
X31130247Y-9949500D01*
X31071770Y-9961131D01*
X31071769Y-9961132D01*
X31005447Y-10005447D01*
X30961132Y-10071769D01*
X30961131Y-10071770D01*
X30949500Y-10130247D01*
X30949500Y-11869752D01*
X24600000Y-11869752D01*
X24600000Y-7700000D01*
X11400000Y-7700000D01*
X500500Y-7700000D01*
X500500Y-5000000D01*
X3644341Y-5000000D01*
X3664936Y-5235403D01*
X3664938Y-5235413D01*
X3726094Y-5463655D01*
X3726096Y-5463659D01*
X3726097Y-5463663D01*
X3776031Y-5570746D01*
X3825964Y-5677828D01*
X3825965Y-5677830D01*
X3961505Y-5871402D01*
X4128597Y-6038494D01*
X4322169Y-6174034D01*
X4322171Y-6174035D01*
X4536337Y-6273903D01*
X4764592Y-6335063D01*
X4941032Y-6350499D01*
X4941033Y-6350500D01*
X4941034Y-6350500D01*
X5058967Y-6350500D01*
X5058967Y-6350499D01*
X5235408Y-6335063D01*
X5463663Y-6273903D01*
X5677829Y-6174035D01*
X5871401Y-6038495D01*
X6038495Y-5871401D01*
X6174035Y-5677830D01*
X6273903Y-5463663D01*
X6335063Y-5235408D01*
X6355659Y-5000000D01*
X29644341Y-5000000D01*
X29664936Y-5235403D01*
X29664938Y-5235413D01*
X29726094Y-5463655D01*
X29726096Y-5463659D01*
X29726097Y-5463663D01*
X29776031Y-5570746D01*
X29825964Y-5677828D01*
X29825965Y-5677830D01*
X29961505Y-5871402D01*
X30128597Y-6038494D01*
X30322169Y-6174034D01*
X30322171Y-6174035D01*
X30536337Y-6273903D01*
X30764592Y-6335063D01*
X30941032Y-6350499D01*
X30941033Y-6350500D01*
X30941034Y-6350500D01*
X31058967Y-6350500D01*
X31058967Y-6350499D01*
X31235408Y-6335063D01*
X31463663Y-6273903D01*
X31677829Y-6174035D01*
X31871401Y-6038495D01*
X32038495Y-5871401D01*
X32174035Y-5677830D01*
X32273903Y-5463663D01*
X32335063Y-5235408D01*
X32355659Y-5000000D01*
X32335063Y-4764592D01*
X32273903Y-4536337D01*
X32174035Y-4322171D01*
X32174034Y-4322169D01*
X32038494Y-4128597D01*
X31871402Y-3961505D01*
X31677830Y-3825965D01*
X31677828Y-3825964D01*
X31570746Y-3776031D01*
X31463663Y-3726097D01*
X31463659Y-3726096D01*
X31463655Y-3726094D01*
X31235413Y-3664938D01*
X31235403Y-3664936D01*
X31058967Y-3649500D01*
X31058966Y-3649500D01*
X30941034Y-3649500D01*
X30941033Y-3649500D01*
X30764596Y-3664936D01*
X30764586Y-3664938D01*
X30536344Y-3726094D01*
X30536335Y-3726098D01*
X30322171Y-3825964D01*
X30322169Y-3825965D01*
X30128597Y-3961505D01*
X29961506Y-4128597D01*
X29961501Y-4128604D01*
X29825967Y-4322165D01*
X29825965Y-4322169D01*
X29726098Y-4536335D01*
X29726094Y-4536344D01*
X29664938Y-4764586D01*
X29664936Y-4764596D01*
X29644341Y-4999999D01*
X29644341Y-5000000D01*
X6355659Y-5000000D01*
X6335063Y-4764592D01*
X6273903Y-4536337D01*
X6174035Y-4322171D01*
X6174034Y-4322169D01*
X6038494Y-4128597D01*
X5871402Y-3961505D01*
X5677830Y-3825965D01*
X5677828Y-3825964D01*
X5570746Y-3776031D01*
X5463663Y-3726097D01*
X5463659Y-3726096D01*
X5463655Y-3726094D01*
X5235413Y-3664938D01*
X5235403Y-3664936D01*
X5058967Y-3649500D01*
X5058966Y-3649500D01*
X4941034Y-3649500D01*
X4941033Y-3649500D01*
X4764596Y-3664936D01*
X4764586Y-3664938D01*
X4536344Y-3726094D01*
X4536335Y-3726098D01*
X4322171Y-3825964D01*
X4322169Y-3825965D01*
X4128597Y-3961505D01*
X3961506Y-4128597D01*
X3961501Y-4128604D01*
X3825967Y-4322165D01*
X3825965Y-4322169D01*
X3726098Y-4536335D01*
X3726094Y-4536344D01*
X3664938Y-4764586D01*
X3664936Y-4764596D01*
X3644341Y-4999999D01*
X3644341Y-5000000D01*
X500500Y-5000000D01*
X500500Y-4003051D01*
X500649Y-3996967D01*
X516960Y-3664938D01*
X517052Y-3663068D01*
X518245Y-3650962D01*
X518462Y-3649500D01*
X566849Y-3323296D01*
X569218Y-3311385D01*
X649710Y-2990043D01*
X653240Y-2978411D01*
X764835Y-2666525D01*
X769476Y-2655318D01*
X911124Y-2355828D01*
X916840Y-2345136D01*
X1087145Y-2060998D01*
X1093888Y-2050905D01*
X1291232Y-1784818D01*
X1298935Y-1775433D01*
X1521405Y-1529975D01*
X1529975Y-1521405D01*
X1775433Y-1298935D01*
X1784818Y-1291232D01*
X2050905Y-1093888D01*
X2060998Y-1087145D01*
X2345136Y-916840D01*
X2355828Y-911124D01*
X2655318Y-769476D01*
X2666525Y-764835D01*
X2978412Y-653239D01*
X2990043Y-649710D01*
X3311385Y-569218D01*
X3323296Y-566849D01*
X3650962Y-518244D01*
X3663068Y-517052D01*
X3996967Y-500648D01*
X4003051Y-500500D01*
X4065892Y-500500D01*
X31934108Y-500500D01*
X31996949Y-500500D01*
X32003032Y-500648D01*
G37*
%TD.AperFunction*%
%TD*%
M02*
