M48
; DRILL file {KiCad 7.0.11+dfsg-1build4} date Sun Jun 14 01:09:49 2026
; FORMAT={-:-/ absolute / metric / decimal}
; #@! TF.CreationDate,2026-06-14T01:09:49+00:00
; #@! TF.GenerationSoftware,Kicad,Pcbnew,7.0.11+dfsg-1build4
; #@! TF.FileFunction,Plated,1,4,PTH
FMAT,2
METRIC
; #@! TA.AperFunction,Plated,PTH,ComponentDrill
T1C0.600
; #@! TA.AperFunction,Plated,PTH,ComponentDrill
T2C0.650
; #@! TA.AperFunction,Plated,PTH,ComponentDrill
T3C1.000
%
G90
G05
T2
X5.0Y-44.0
X5.0Y-45.27
X5.0Y-46.54
X5.0Y-47.81
X5.0Y-49.08
X5.0Y-50.35
X10.0Y-60.0
X10.0Y-61.27
X10.0Y-62.54
X10.0Y-63.81
X22.0Y-60.0
X22.0Y-61.27
X22.0Y-62.54
X22.0Y-63.81
T3
X4.0Y-5.0
X4.0Y-7.54
X4.0Y-61.0
X4.0Y-63.54
X21.46Y-44.0
X21.46Y-46.54
X21.46Y-49.08
X21.46Y-51.62
X24.0Y-44.0
X24.0Y-46.54
X24.0Y-49.08
X24.0Y-51.62
X28.0Y-5.0
X28.0Y-7.54
X28.0Y-61.0
X28.0Y-63.54
T1
X-0.18Y-19.68G85X0.92Y-19.68
G05
X-0.18Y-28.32G85X0.92Y-28.32
G05
X4.25Y-19.68G85X4.85Y-19.68
G05
X4.25Y-28.32G85X4.85Y-28.32
G05
M30
