%TF.GenerationSoftware,KiCad,Pcbnew,7.0.11+dfsg-1build4*%
%TF.CreationDate,2026-06-27T10:55:31+00:00*%
%TF.ProjectId,stratosdrone,73747261-746f-4736-9472-6f6e652e6b69,rev?*%
%TF.SameCoordinates,Original*%
%TF.FileFunction,Soldermask,Bot*%
%TF.FilePolarity,Negative*%
%FSLAX46Y46*%
G04 Gerber Fmt 4.6, Leading zero omitted, Abs format (unit mm)*
G04 Created by KiCad (PCBNEW 7.0.11+dfsg-1build4) date 2026-06-27 10:55:31*
%MOMM*%
%LPD*%
G01*
G04 APERTURE LIST*
G04 Aperture macros list*
%AMRoundRect*
0 Rectangle with rounded corners*
0 $1 Rounding radius*
0 $2 $3 $4 $5 $6 $7 $8 $9 X,Y pos of 4 corners*
0 Add a 4 corners polygon primitive as box body*
4,1,4,$2,$3,$4,$5,$6,$7,$8,$9,$2,$3,0*
0 Add four circle primitives for the rounded corners*
1,1,$1+$1,$2,$3*
1,1,$1+$1,$4,$5*
1,1,$1+$1,$6,$7*
1,1,$1+$1,$8,$9*
0 Add four rect primitives between the rounded corners*
20,1,$1+$1,$2,$3,$4,$5,0*
20,1,$1+$1,$4,$5,$6,$7,0*
20,1,$1+$1,$6,$7,$8,$9,0*
20,1,$1+$1,$8,$9,$2,$3,0*%
G04 Aperture macros list end*
%ADD10R,1.000000X1.000000*%
%ADD11O,1.000000X1.000000*%
%ADD12R,1.700000X1.700000*%
%ADD13O,1.700000X1.700000*%
%ADD14C,2.200000*%
%ADD15C,0.650000*%
%ADD16O,2.100000X1.000000*%
%ADD17O,1.600000X1.000000*%
%ADD18RoundRect,0.140000X0.140000X0.170000X-0.140000X0.170000X-0.140000X-0.170000X0.140000X-0.170000X0*%
%ADD19RoundRect,0.062500X0.127500X0.062500X-0.127500X0.062500X-0.127500X-0.062500X0.127500X-0.062500X0*%
%ADD20RoundRect,0.125000X0.125000X0.125000X-0.125000X0.125000X-0.125000X-0.125000X0.125000X-0.125000X0*%
%ADD21RoundRect,0.225000X0.225000X0.250000X-0.225000X0.250000X-0.225000X-0.250000X0.225000X-0.250000X0*%
%ADD22RoundRect,0.250000X0.250000X0.475000X-0.250000X0.475000X-0.250000X-0.475000X0.250000X-0.475000X0*%
%ADD23RoundRect,0.112500X0.112500X0.237500X-0.112500X0.237500X-0.112500X-0.237500X0.112500X-0.237500X0*%
%ADD24RoundRect,0.250000X1.000000X0.650000X-1.000000X0.650000X-1.000000X-0.650000X1.000000X-0.650000X0*%
G04 APERTURE END LIST*
D10*
%TO.C,J10*%
X11000000Y-67900000D03*
D11*
X11000000Y-69170000D03*
X11000000Y-70440000D03*
X11000000Y-71710000D03*
%TD*%
D12*
%TO.C,J5*%
X33800000Y-12200000D03*
D13*
X33800000Y-14740000D03*
%TD*%
D10*
%TO.C,J9*%
X3400000Y-41800000D03*
D11*
X3400000Y-43070000D03*
X3400000Y-44340000D03*
X3400000Y-45610000D03*
X3400000Y-46880000D03*
X3400000Y-48150000D03*
%TD*%
D14*
%TO.C,MH3*%
X32000000Y-6000000D03*
%TD*%
D12*
%TO.C,J6*%
X33800000Y-61800000D03*
D13*
X33800000Y-64340000D03*
%TD*%
D12*
%TO.C,J8*%
X4200000Y-12200000D03*
D13*
X4200000Y-14740000D03*
%TD*%
D15*
%TO.C,J2*%
X3000000Y-32490000D03*
X3000000Y-26710000D03*
D16*
X2470000Y-33920000D03*
D17*
X6650000Y-33920000D03*
D16*
X2470000Y-25280000D03*
D17*
X6650000Y-25280000D03*
%TD*%
D14*
%TO.C,MH2*%
X6000000Y-68000000D03*
%TD*%
%TO.C,MH4*%
X32000000Y-68000000D03*
%TD*%
D10*
%TO.C,J11*%
X28700000Y-67900000D03*
D11*
X28700000Y-69170000D03*
X28700000Y-70440000D03*
X28700000Y-71710000D03*
%TD*%
D14*
%TO.C,MH1*%
X6000000Y-6000000D03*
%TD*%
D12*
%TO.C,J7*%
X4200000Y-61800000D03*
D13*
X4200000Y-64340000D03*
%TD*%
D18*
%TO.C,C16*%
X17586194Y-42001620D03*
X16626194Y-42001620D03*
%TD*%
%TO.C,C22*%
X14788807Y-39985349D03*
X13828807Y-39985349D03*
%TD*%
%TO.C,C28*%
X9680000Y-49600000D03*
X8720000Y-49600000D03*
%TD*%
D19*
%TO.C,U8*%
X20740000Y-32425000D03*
D20*
X20600000Y-32300000D03*
X19800000Y-32300000D03*
X19000000Y-32300000D03*
X18200000Y-32300000D03*
X17400000Y-32300000D03*
X17400000Y-33100000D03*
X17400000Y-33900000D03*
X18200000Y-33900000D03*
X19000000Y-33900000D03*
X19800000Y-33900000D03*
X20600000Y-33900000D03*
X20600000Y-33100000D03*
%TD*%
D21*
%TO.C,C26*%
X23361016Y-43509793D03*
X21811016Y-43509793D03*
%TD*%
D22*
%TO.C,C2*%
X14978985Y-63445618D03*
X13078985Y-63445618D03*
%TD*%
D18*
%TO.C,C25*%
X23840128Y-35899031D03*
X22880128Y-35899031D03*
%TD*%
%TO.C,C15*%
X20668427Y-35716899D03*
X19708427Y-35716899D03*
%TD*%
D22*
%TO.C,C3*%
X23297296Y-62869615D03*
X21397296Y-62869615D03*
%TD*%
D18*
%TO.C,C35*%
X29980000Y-23500000D03*
X29020000Y-23500000D03*
%TD*%
%TO.C,C11*%
X17109318Y-40523055D03*
X16149318Y-40523055D03*
%TD*%
%TO.C,C10*%
X36386146Y-42539103D03*
X35426146Y-42539103D03*
%TD*%
D23*
%TO.C,U9*%
X20200000Y-46300000D03*
X19400000Y-46300000D03*
X18600000Y-46300000D03*
X17800000Y-46300000D03*
X17800000Y-44300000D03*
X18600000Y-44300000D03*
X19400000Y-44300000D03*
X20200000Y-44300000D03*
%TD*%
D22*
%TO.C,C5*%
X13387125Y-36201285D03*
X11487125Y-36201285D03*
%TD*%
D18*
%TO.C,C34*%
X10580000Y-7800000D03*
X9620000Y-7800000D03*
%TD*%
%TO.C,C39*%
X21501490Y-39950918D03*
X20541490Y-39950918D03*
%TD*%
D21*
%TO.C,C27*%
X16075452Y-43717925D03*
X14525452Y-43717925D03*
%TD*%
D22*
%TO.C,C36*%
X14880165Y-33853979D03*
X12980165Y-33853979D03*
%TD*%
D18*
%TO.C,C13*%
X18251645Y-35888452D03*
X17291645Y-35888452D03*
%TD*%
%TO.C,C29*%
X8880000Y-51000000D03*
X7920000Y-51000000D03*
%TD*%
%TO.C,C23*%
X23771192Y-37214650D03*
X22811192Y-37214650D03*
%TD*%
%TO.C,C37*%
X20080000Y-38600000D03*
X19120000Y-38600000D03*
%TD*%
%TO.C,C40*%
X21501490Y-37249081D03*
X20541490Y-37249081D03*
%TD*%
%TO.C,C32*%
X20008985Y-47845618D03*
X19048985Y-47845618D03*
%TD*%
D24*
%TO.C,D2*%
X13000000Y-11300000D03*
X9000000Y-11300000D03*
%TD*%
D18*
%TO.C,C30*%
X33279999Y-49300000D03*
X32319999Y-49300000D03*
%TD*%
D22*
%TO.C,C4*%
X22602703Y-58930384D03*
X20702703Y-58930384D03*
%TD*%
D18*
%TO.C,C12*%
X16712177Y-37252302D03*
X15752177Y-37252302D03*
%TD*%
%TO.C,C7*%
X19280000Y-40000000D03*
X18320000Y-40000000D03*
%TD*%
%TO.C,C21*%
X22725343Y-41796811D03*
X21765343Y-41796811D03*
%TD*%
D22*
%TO.C,C1*%
X15250000Y-60900000D03*
X13350000Y-60900000D03*
%TD*%
D18*
%TO.C,C6*%
X23280000Y-60900000D03*
X22320000Y-60900000D03*
%TD*%
D12*
%TO.C,J3*%
X29600000Y-43500000D03*
D13*
X27060000Y-43500000D03*
X29600000Y-46040000D03*
X27060000Y-46040000D03*
X29600000Y-48580000D03*
X27060000Y-48580000D03*
X29600000Y-51120000D03*
X27060000Y-51120000D03*
%TD*%
D18*
%TO.C,C42*%
X17880000Y-38600000D03*
X16920000Y-38600000D03*
%TD*%
%TO.C,C17*%
X15480000Y-38600000D03*
X14520000Y-38600000D03*
%TD*%
%TO.C,C20*%
X23771192Y-39985349D03*
X22811192Y-39985349D03*
%TD*%
%TO.C,C14*%
X22480000Y-38600000D03*
X21520000Y-38600000D03*
%TD*%
%TO.C,C18*%
X19991957Y-42637711D03*
X19031957Y-42637711D03*
%TD*%
%TO.C,C33*%
X20280000Y-5200000D03*
X19320000Y-5200000D03*
%TD*%
%TO.C,C31*%
X18609313Y-30650121D03*
X17649313Y-30650121D03*
%TD*%
%TO.C,C24*%
X15349243Y-42155159D03*
X14389243Y-42155159D03*
%TD*%
%TO.C,C41*%
X20308354Y-41311547D03*
X19348354Y-41311547D03*
%TD*%
%TO.C,C19*%
X15986552Y-35682260D03*
X15026552Y-35682260D03*
%TD*%
%TO.C,C38*%
X19280000Y-37200000D03*
X18320000Y-37200000D03*
%TD*%
M02*
