%TF.GenerationSoftware,KiCad,Pcbnew,7.0.11+dfsg-1build4*%
%TF.CreationDate,2026-06-19T18:54:11+00:00*%
%TF.ProjectId,stratosdrone,73747261-746f-4736-9472-6f6e652e6b69,rev?*%
%TF.SameCoordinates,Original*%
%TF.FileFunction,Copper,L4,Bot*%
%TF.FilePolarity,Positive*%
%FSLAX46Y46*%
G04 Gerber Fmt 4.6, Leading zero omitted, Abs format (unit mm)*
G04 Created by KiCad (PCBNEW 7.0.11+dfsg-1build4) date 2026-06-19 18:54:11*
%MOMM*%
%LPD*%
G01*
G04 APERTURE LIST*
G04 Aperture macros list*
%AMRoundRect*
0 Rectangle with rounded corners*
0 $1 Rounding radius*
0 $2 $3 $4 $5 $6 $7 $8 $9 X,Y pos of 4 corners*
0 Add a 4 corners polygon primitive as box body*
4,1,4,$2,$3,$4,$5,$6,$7,$8,$9,$2,$3,0*
0 Add four circle primitives for the rounded corners*
1,1,$1+$1,$2,$3*
1,1,$1+$1,$4,$5*
1,1,$1+$1,$6,$7*
1,1,$1+$1,$8,$9*
0 Add four rect primitives between the rounded corners*
20,1,$1+$1,$2,$3,$4,$5,0*
20,1,$1+$1,$4,$5,$6,$7,0*
20,1,$1+$1,$6,$7,$8,$9,0*
20,1,$1+$1,$8,$9,$2,$3,0*%
G04 Aperture macros list end*
%TA.AperFunction,ComponentPad*%
%ADD10R,1.000000X1.000000*%
%TD*%
%TA.AperFunction,ComponentPad*%
%ADD11O,1.000000X1.000000*%
%TD*%
%TA.AperFunction,ComponentPad*%
%ADD12R,1.700000X1.700000*%
%TD*%
%TA.AperFunction,ComponentPad*%
%ADD13O,1.700000X1.700000*%
%TD*%
%TA.AperFunction,ComponentPad*%
%ADD14O,2.100000X1.000000*%
%TD*%
%TA.AperFunction,ComponentPad*%
%ADD15O,1.600000X1.000000*%
%TD*%
%TA.AperFunction,SMDPad,CuDef*%
%ADD16RoundRect,0.140000X0.140000X0.170000X-0.140000X0.170000X-0.140000X-0.170000X0.140000X-0.170000X0*%
%TD*%
%TA.AperFunction,SMDPad,CuDef*%
%ADD17RoundRect,0.062500X0.127500X0.062500X-0.127500X0.062500X-0.127500X-0.062500X0.127500X-0.062500X0*%
%TD*%
%TA.AperFunction,SMDPad,CuDef*%
%ADD18RoundRect,0.125000X0.125000X0.125000X-0.125000X0.125000X-0.125000X-0.125000X0.125000X-0.125000X0*%
%TD*%
%TA.AperFunction,SMDPad,CuDef*%
%ADD19RoundRect,0.112500X0.112500X0.237500X-0.112500X0.237500X-0.112500X-0.237500X0.112500X-0.237500X0*%
%TD*%
%TA.AperFunction,ViaPad*%
%ADD20C,0.450000*%
%TD*%
%TA.AperFunction,Conductor*%
%ADD21C,0.200000*%
%TD*%
G04 APERTURE END LIST*
D10*
%TO.P,J9,1*%
%TO.N,3V3*%
X4000000Y-40000000D03*
D11*
%TO.P,J9,2*%
%TO.N,GND*%
X4000000Y-41270000D03*
%TO.P,J9,3*%
%TO.N,VBAT*%
X4000000Y-42540000D03*
%TO.P,J9,4*%
%TO.N,I2C_SDA*%
X4000000Y-43810000D03*
%TO.P,J9,5*%
%TO.N,I2C_SCL*%
X4000000Y-45080000D03*
%TO.P,J9,6*%
%TO.N,EXP_IO*%
X4000000Y-46350000D03*
%TD*%
D12*
%TO.P,J6,1*%
%TO.N,VBAT*%
X32000000Y-59000000D03*
D13*
%TO.P,J6,2*%
%TO.N,M2_D*%
X32000000Y-61540000D03*
%TD*%
D10*
%TO.P,J11,1*%
%TO.N,GND*%
X25000000Y-64000000D03*
D11*
%TO.P,J11,2*%
%TO.N,C6_U0TXD*%
X25000000Y-65270000D03*
%TO.P,J11,3*%
%TO.N,C6_U0RXD*%
X25000000Y-66540000D03*
%TO.P,J11,4*%
%TO.N,C6_BOOT*%
X25000000Y-67810000D03*
%TD*%
D10*
%TO.P,J10,1*%
%TO.N,GND*%
X13000000Y-64000000D03*
D11*
%TO.P,J10,2*%
%TO.N,U0TXD*%
X13000000Y-65270000D03*
%TO.P,J10,3*%
%TO.N,U0RXD*%
X13000000Y-66540000D03*
%TO.P,J10,4*%
%TO.N,3V3*%
X13000000Y-67810000D03*
%TD*%
D12*
%TO.P,J7,1*%
%TO.N,VBAT*%
X4000000Y-59000000D03*
D13*
%TO.P,J7,2*%
%TO.N,M3_D*%
X4000000Y-61540000D03*
%TD*%
D12*
%TO.P,J8,1*%
%TO.N,VBAT*%
X4000000Y-11000000D03*
D13*
%TO.P,J8,2*%
%TO.N,M4_D*%
X4000000Y-13540000D03*
%TD*%
D12*
%TO.P,J5,1*%
%TO.N,VBAT*%
X32000000Y-11000000D03*
D13*
%TO.P,J5,2*%
%TO.N,M1_D*%
X32000000Y-13540000D03*
%TD*%
D14*
%TO.P,J2,S1*%
%TO.N,GND*%
X370000Y-32320000D03*
D15*
X4550000Y-32320000D03*
D14*
X370000Y-23680000D03*
D15*
X4550000Y-23680000D03*
%TD*%
D16*
%TO.P,C31,1*%
%TO.N,3V3*%
X18302569Y-38593938D03*
%TO.P,C31,2*%
%TO.N,GND*%
X17342569Y-38593938D03*
%TD*%
D12*
%TO.P,J3,1*%
%TO.N,3V3*%
X29000000Y-43000000D03*
D13*
%TO.P,J3,2*%
%TO.N,CS_FLOW*%
X26460000Y-43000000D03*
%TO.P,J3,3*%
%TO.N,GND*%
X29000000Y-45540000D03*
%TO.P,J3,4*%
%TO.N,SPI_SCLK*%
X26460000Y-45540000D03*
%TO.P,J3,5*%
%TO.N,SPI_MOSI*%
X29000000Y-48080000D03*
%TO.P,J3,6*%
%TO.N,SPI_MISO*%
X26460000Y-48080000D03*
%TO.P,J3,7*%
%TO.N,GND*%
X29000000Y-50620000D03*
%TO.P,J3,8*%
%TO.N,3V3*%
X26460000Y-50620000D03*
%TD*%
D17*
%TO.P,U8,1*%
%TO.N,3V3*%
X19740000Y-35325000D03*
D18*
X19600000Y-35200000D03*
%TO.P,U8,2*%
%TO.N,GND*%
X18800000Y-35200000D03*
%TO.P,U8,3*%
X18000000Y-35200000D03*
%TO.P,U8,4*%
X17200000Y-35200000D03*
%TO.P,U8,5*%
%TO.N,VL53_XSHUT*%
X16400000Y-35200000D03*
%TO.P,U8,6*%
%TO.N,GND*%
X16400000Y-36000000D03*
%TO.P,U8,7*%
%TO.N,TOF_INT*%
X16400000Y-36800000D03*
%TO.P,U8,8*%
%TO.N,N/C*%
X17200000Y-36800000D03*
%TO.P,U8,9*%
%TO.N,I2C_SDA*%
X18000000Y-36800000D03*
%TO.P,U8,10*%
%TO.N,I2C_SCL*%
X18800000Y-36800000D03*
%TO.P,U8,11*%
%TO.N,3V3*%
X19600000Y-36800000D03*
%TO.P,U8,12*%
%TO.N,GND*%
X19600000Y-36000000D03*
%TD*%
D16*
%TO.P,C32,1*%
%TO.N,3V3*%
X18829556Y-46878855D03*
%TO.P,C32,2*%
%TO.N,GND*%
X17869556Y-46878855D03*
%TD*%
D19*
%TO.P,U9,1*%
%TO.N,3V3*%
X19200000Y-45000000D03*
%TO.P,U9,2*%
%TO.N,GND*%
X18400000Y-45000000D03*
%TO.P,U9,3*%
%TO.N,SPI_SCLK*%
X17600000Y-45000000D03*
%TO.P,U9,4*%
%TO.N,SPI_MOSI*%
X16800000Y-45000000D03*
%TO.P,U9,5*%
%TO.N,SPI_MISO*%
X16800000Y-43000000D03*
%TO.P,U9,6*%
%TO.N,CS_FLOW*%
X17600000Y-43000000D03*
%TO.P,U9,7*%
%TO.N,GND*%
X18400000Y-43000000D03*
%TO.P,U9,8*%
%TO.N,3V3*%
X19200000Y-43000000D03*
%TD*%
D20*
%TO.N,SPI_SCLK*%
X10077700Y-44906100D03*
%TO.N,SPI_MOSI*%
X8902200Y-45299000D03*
%TO.N,SPI_MISO*%
X7750000Y-44623200D03*
%TO.N,LED_D12*%
X8784900Y-21668000D03*
X28085000Y-23403300D03*
%TD*%
D21*
%TO.N,GND*%
X17200000Y-35272100D02*
X16472100Y-36000000D01*
X19527900Y-36000000D02*
X19600000Y-36000000D01*
X17200000Y-35200000D02*
X17200000Y-35272100D01*
X16472100Y-36000000D02*
X16400000Y-36000000D01*
X18800000Y-35200000D02*
X18000000Y-35200000D01*
X18800000Y-35200000D02*
X18800000Y-35272100D01*
X18800000Y-35272100D02*
X19527900Y-36000000D01*
X18000000Y-35200000D02*
X17200000Y-35200000D01*
%TO.N,I2C_SDA*%
X5749600Y-43643600D02*
X5749600Y-43810000D01*
X5749600Y-43810000D02*
X4000000Y-43810000D01*
X11426400Y-42912200D02*
X10930500Y-43408100D01*
X18000000Y-36906900D02*
X11994700Y-42912200D01*
X11994700Y-42912200D02*
X11426400Y-42912200D01*
X10930500Y-43408100D02*
X5985100Y-43408100D01*
X5985100Y-43408100D02*
X5749600Y-43643600D01*
X18000000Y-36800000D02*
X18000000Y-36906900D01*
%TO.N,I2C_SCL*%
X6351500Y-43810000D02*
X5081500Y-45080000D01*
X18934500Y-38902600D02*
X14027100Y-43810000D01*
X14027100Y-43810000D02*
X6351500Y-43810000D01*
X5081500Y-45080000D02*
X4000000Y-45080000D01*
X18934500Y-36934500D02*
X18934500Y-38902600D01*
X18800000Y-36800000D02*
X18934500Y-36934500D01*
%TO.N,3V3*%
X19725000Y-35325000D02*
X19600000Y-35200000D01*
X20157800Y-35657800D02*
X19825000Y-35325000D01*
X19740000Y-35325000D02*
X19725000Y-35325000D01*
X19825000Y-35325000D02*
X19740000Y-35325000D01*
X19724100Y-36800000D02*
X20157800Y-36366300D01*
X20157800Y-36366300D02*
X20157800Y-35657800D01*
X19600000Y-36800000D02*
X19724100Y-36800000D01*
%TO.N,SPI_SCLK*%
X24088900Y-44320800D02*
X25308100Y-45540000D01*
X16470100Y-44320800D02*
X17600000Y-44320800D01*
X26460000Y-45540000D02*
X25308100Y-45540000D01*
X15884800Y-44906100D02*
X16470100Y-44320800D01*
X17600000Y-44320800D02*
X24088900Y-44320800D01*
X17600000Y-45000000D02*
X17600000Y-44320800D01*
X10077700Y-44906100D02*
X15884800Y-44906100D01*
%TO.N,SPI_MOSI*%
X22213700Y-49236300D02*
X18733000Y-45755600D01*
X17366600Y-45755600D02*
X16800000Y-45189000D01*
X8902200Y-45299000D02*
X9111200Y-45508000D01*
X26979800Y-49236300D02*
X22213700Y-49236300D01*
X16481000Y-45508000D02*
X16800000Y-45189000D01*
X27848100Y-48080000D02*
X27848100Y-48368000D01*
X27848100Y-48368000D02*
X26979800Y-49236300D01*
X9111200Y-45508000D02*
X16481000Y-45508000D01*
X16800000Y-45189000D02*
X16800000Y-45000000D01*
X29000000Y-48080000D02*
X27848100Y-48080000D01*
X18733000Y-45755600D02*
X17366600Y-45755600D01*
%TO.N,SPI_MISO*%
X26728500Y-46928100D02*
X26460000Y-46928100D01*
X26878400Y-44270000D02*
X27659400Y-45051000D01*
X8151900Y-44221300D02*
X7750000Y-44623200D01*
X17277800Y-43652300D02*
X25212100Y-43652300D01*
X15753200Y-44221300D02*
X8151900Y-44221300D01*
X27659400Y-45051000D02*
X27659400Y-45997200D01*
X16800000Y-43174500D02*
X17277800Y-43652300D01*
X26460000Y-48080000D02*
X26460000Y-46928100D01*
X16800000Y-43174500D02*
X15753200Y-44221300D01*
X25212100Y-43652300D02*
X25829800Y-44270000D01*
X25829800Y-44270000D02*
X26878400Y-44270000D01*
X27659400Y-45997200D02*
X26728500Y-46928100D01*
X16800000Y-43000000D02*
X16800000Y-43174500D01*
%TO.N,CS_FLOW*%
X25308100Y-43000000D02*
X24651700Y-42343600D01*
X24651700Y-42343600D02*
X18074300Y-42343600D01*
X26460000Y-43000000D02*
X25308100Y-43000000D01*
X17600000Y-42817900D02*
X17600000Y-43000000D01*
X18074300Y-42343600D02*
X17600000Y-42817900D01*
%TO.N,LED_D12*%
X8784900Y-21668000D02*
X26349700Y-21668000D01*
X26349700Y-21668000D02*
X28085000Y-23403300D01*
%TD*%
%TA.AperFunction,Conductor*%
%TO.N,VBAT*%
G36*
X32003032Y-500648D02*
G01*
X32336929Y-517052D01*
X32349037Y-518245D01*
X32452146Y-533539D01*
X32676699Y-566849D01*
X32688617Y-569219D01*
X33009951Y-649709D01*
X33021588Y-653240D01*
X33092806Y-678722D01*
X33333467Y-764832D01*
X33344688Y-769479D01*
X33644163Y-911120D01*
X33654871Y-916844D01*
X33938988Y-1087137D01*
X33949106Y-1093897D01*
X34215170Y-1291224D01*
X34224576Y-1298944D01*
X34470013Y-1521395D01*
X34478604Y-1529986D01*
X34665755Y-1736475D01*
X34701055Y-1775423D01*
X34708775Y-1784829D01*
X34906102Y-2050893D01*
X34912862Y-2061011D01*
X35041776Y-2276092D01*
X35083148Y-2345116D01*
X35088885Y-2355848D01*
X35230514Y-2655297D01*
X35235170Y-2666540D01*
X35346759Y-2978411D01*
X35350292Y-2990055D01*
X35430777Y-3311369D01*
X35433151Y-3323305D01*
X35481754Y-3650962D01*
X35482947Y-3663071D01*
X35499351Y-3996966D01*
X35499500Y-4003051D01*
X35499500Y-65996948D01*
X35499351Y-66003033D01*
X35482947Y-66336928D01*
X35481754Y-66349037D01*
X35433151Y-66676694D01*
X35430777Y-66688630D01*
X35350292Y-67009944D01*
X35346759Y-67021588D01*
X35235170Y-67333459D01*
X35230514Y-67344702D01*
X35088885Y-67644151D01*
X35083148Y-67654883D01*
X34912862Y-67938988D01*
X34906102Y-67949106D01*
X34708775Y-68215170D01*
X34701055Y-68224576D01*
X34478611Y-68470006D01*
X34470006Y-68478611D01*
X34224576Y-68701055D01*
X34215170Y-68708775D01*
X33949106Y-68906102D01*
X33938988Y-68912862D01*
X33654883Y-69083148D01*
X33644151Y-69088885D01*
X33344702Y-69230514D01*
X33333459Y-69235170D01*
X33021588Y-69346759D01*
X33009944Y-69350292D01*
X32688630Y-69430777D01*
X32676694Y-69433151D01*
X32349037Y-69481754D01*
X32336928Y-69482947D01*
X32021989Y-69498419D01*
X32003031Y-69499351D01*
X31996949Y-69499500D01*
X4003051Y-69499500D01*
X3996968Y-69499351D01*
X3976900Y-69498365D01*
X3663071Y-69482947D01*
X3650962Y-69481754D01*
X3323305Y-69433151D01*
X3311369Y-69430777D01*
X2990055Y-69350292D01*
X2978411Y-69346759D01*
X2666540Y-69235170D01*
X2655301Y-69230515D01*
X2355844Y-69088883D01*
X2345121Y-69083150D01*
X2061011Y-68912862D01*
X2050893Y-68906102D01*
X1784829Y-68708775D01*
X1775423Y-68701055D01*
X1736475Y-68665755D01*
X1529986Y-68478604D01*
X1521395Y-68470013D01*
X1298944Y-68224576D01*
X1291224Y-68215170D01*
X1093897Y-67949106D01*
X1087137Y-67938988D01*
X1009825Y-67810000D01*
X12294355Y-67810000D01*
X12314859Y-67978869D01*
X12314860Y-67978874D01*
X12375182Y-68137931D01*
X12428497Y-68215170D01*
X12471817Y-68277929D01*
X12577505Y-68371560D01*
X12599150Y-68390736D01*
X12749773Y-68469789D01*
X12749775Y-68469790D01*
X12914944Y-68510500D01*
X13085056Y-68510500D01*
X13250225Y-68469790D01*
X13344289Y-68420421D01*
X13400849Y-68390736D01*
X13400850Y-68390734D01*
X13400852Y-68390734D01*
X13528183Y-68277929D01*
X13624818Y-68137930D01*
X13685140Y-67978872D01*
X13705645Y-67810000D01*
X24294355Y-67810000D01*
X24314859Y-67978869D01*
X24314860Y-67978874D01*
X24375182Y-68137931D01*
X24428497Y-68215170D01*
X24471817Y-68277929D01*
X24577505Y-68371560D01*
X24599150Y-68390736D01*
X24749773Y-68469789D01*
X24749775Y-68469790D01*
X24914944Y-68510500D01*
X25085056Y-68510500D01*
X25250225Y-68469790D01*
X25344289Y-68420421D01*
X25400849Y-68390736D01*
X25400850Y-68390734D01*
X25400852Y-68390734D01*
X25528183Y-68277929D01*
X25624818Y-68137930D01*
X25685140Y-67978872D01*
X25705645Y-67810000D01*
X25685140Y-67641128D01*
X25624818Y-67482070D01*
X25528183Y-67342071D01*
X25444363Y-67267813D01*
X25407238Y-67208626D01*
X25408006Y-67138761D01*
X25444363Y-67082186D01*
X25528183Y-67007929D01*
X25624818Y-66867930D01*
X25685140Y-66708872D01*
X25705645Y-66540000D01*
X25685140Y-66371128D01*
X25624818Y-66212070D01*
X25598563Y-66174034D01*
X25590476Y-66162318D01*
X25528183Y-66072071D01*
X25444363Y-65997813D01*
X25407238Y-65938626D01*
X25408006Y-65868761D01*
X25444363Y-65812186D01*
X25528183Y-65737929D01*
X25624818Y-65597930D01*
X25685140Y-65438872D01*
X25705645Y-65270000D01*
X25685140Y-65101128D01*
X25646788Y-65000000D01*
X29644341Y-65000000D01*
X29664936Y-65235403D01*
X29664938Y-65235413D01*
X29726094Y-65463655D01*
X29726096Y-65463659D01*
X29726097Y-65463663D01*
X29776031Y-65570746D01*
X29825964Y-65677828D01*
X29825965Y-65677830D01*
X29961505Y-65871402D01*
X30128597Y-66038494D01*
X30322169Y-66174034D01*
X30322171Y-66174035D01*
X30536337Y-66273903D01*
X30764592Y-66335063D01*
X30941032Y-66350499D01*
X30941033Y-66350500D01*
X30941034Y-66350500D01*
X31058967Y-66350500D01*
X31058967Y-66350499D01*
X31235408Y-66335063D01*
X31463663Y-66273903D01*
X31677829Y-66174035D01*
X31871401Y-66038495D01*
X32038495Y-65871401D01*
X32174035Y-65677830D01*
X32273903Y-65463663D01*
X32335063Y-65235408D01*
X32355659Y-65000000D01*
X32335063Y-64764592D01*
X32273903Y-64536337D01*
X32174035Y-64322171D01*
X32174034Y-64322169D01*
X32038494Y-64128597D01*
X31871402Y-63961505D01*
X31677830Y-63825965D01*
X31677828Y-63825964D01*
X31570746Y-63776031D01*
X31463663Y-63726097D01*
X31463659Y-63726096D01*
X31463655Y-63726094D01*
X31235413Y-63664938D01*
X31235403Y-63664936D01*
X31058967Y-63649500D01*
X31058966Y-63649500D01*
X30941034Y-63649500D01*
X30941033Y-63649500D01*
X30764596Y-63664936D01*
X30764586Y-63664938D01*
X30536344Y-63726094D01*
X30536335Y-63726098D01*
X30322171Y-63825964D01*
X30322169Y-63825965D01*
X30128597Y-63961505D01*
X29961506Y-64128597D01*
X29961501Y-64128604D01*
X29825967Y-64322165D01*
X29825965Y-64322169D01*
X29726098Y-64536335D01*
X29726094Y-64536344D01*
X29664938Y-64764586D01*
X29664936Y-64764596D01*
X29644341Y-64999999D01*
X29644341Y-65000000D01*
X25646788Y-65000000D01*
X25624818Y-64942070D01*
X25624817Y-64942068D01*
X25624816Y-64942066D01*
X25562017Y-64851088D01*
X25540133Y-64784733D01*
X25557598Y-64717082D01*
X25595175Y-64677545D01*
X25644552Y-64644552D01*
X25688867Y-64578231D01*
X25688867Y-64578229D01*
X25688868Y-64578229D01*
X25700499Y-64519752D01*
X25700500Y-64519750D01*
X25700500Y-63480249D01*
X25700499Y-63480247D01*
X25688868Y-63421770D01*
X25688867Y-63421769D01*
X25644552Y-63355447D01*
X25578230Y-63311132D01*
X25578229Y-63311131D01*
X25519752Y-63299500D01*
X25519748Y-63299500D01*
X24480252Y-63299500D01*
X24480247Y-63299500D01*
X24421770Y-63311131D01*
X24421769Y-63311132D01*
X24355447Y-63355447D01*
X24311132Y-63421769D01*
X24311131Y-63421770D01*
X24299500Y-63480247D01*
X24299500Y-64519752D01*
X24311131Y-64578229D01*
X24311132Y-64578230D01*
X24355447Y-64644552D01*
X24404824Y-64677545D01*
X24449629Y-64731158D01*
X24458336Y-64800483D01*
X24437983Y-64851087D01*
X24375183Y-64942068D01*
X24375182Y-64942068D01*
X24314860Y-65101125D01*
X24314859Y-65101130D01*
X24294355Y-65270000D01*
X24314859Y-65438869D01*
X24314860Y-65438874D01*
X24375182Y-65597931D01*
X24471818Y-65737930D01*
X24555634Y-65812185D01*
X24592761Y-65871374D01*
X24591993Y-65941240D01*
X24555634Y-65997815D01*
X24471818Y-66072069D01*
X24375182Y-66212068D01*
X24314860Y-66371125D01*
X24314859Y-66371130D01*
X24294355Y-66540000D01*
X24314859Y-66708869D01*
X24314860Y-66708874D01*
X24375182Y-66867931D01*
X24471818Y-67007930D01*
X24555634Y-67082185D01*
X24592761Y-67141374D01*
X24591993Y-67211240D01*
X24555634Y-67267815D01*
X24471818Y-67342069D01*
X24375182Y-67482068D01*
X24314860Y-67641125D01*
X24314859Y-67641130D01*
X24294355Y-67810000D01*
X13705645Y-67810000D01*
X13685140Y-67641128D01*
X13624818Y-67482070D01*
X13528183Y-67342071D01*
X13444363Y-67267813D01*
X13407238Y-67208626D01*
X13408006Y-67138761D01*
X13444363Y-67082186D01*
X13528183Y-67007929D01*
X13624818Y-66867930D01*
X13685140Y-66708872D01*
X13705645Y-66540000D01*
X13685140Y-66371128D01*
X13624818Y-66212070D01*
X13598563Y-66174034D01*
X13590476Y-66162318D01*
X13528183Y-66072071D01*
X13444363Y-65997813D01*
X13407238Y-65938626D01*
X13408006Y-65868761D01*
X13444363Y-65812186D01*
X13528183Y-65737929D01*
X13624818Y-65597930D01*
X13685140Y-65438872D01*
X13705645Y-65270000D01*
X13685140Y-65101128D01*
X13624818Y-64942070D01*
X13624817Y-64942068D01*
X13624816Y-64942066D01*
X13562017Y-64851088D01*
X13540133Y-64784733D01*
X13557598Y-64717082D01*
X13595175Y-64677545D01*
X13644552Y-64644552D01*
X13688867Y-64578231D01*
X13688867Y-64578229D01*
X13688868Y-64578229D01*
X13700499Y-64519752D01*
X13700500Y-64519750D01*
X13700500Y-63480249D01*
X13700499Y-63480247D01*
X13688868Y-63421770D01*
X13688867Y-63421769D01*
X13644552Y-63355447D01*
X13578230Y-63311132D01*
X13578229Y-63311131D01*
X13519752Y-63299500D01*
X13519748Y-63299500D01*
X12480252Y-63299500D01*
X12480247Y-63299500D01*
X12421770Y-63311131D01*
X12421769Y-63311132D01*
X12355447Y-63355447D01*
X12311132Y-63421769D01*
X12311131Y-63421770D01*
X12299500Y-63480247D01*
X12299500Y-64519752D01*
X12311131Y-64578229D01*
X12311132Y-64578230D01*
X12355447Y-64644552D01*
X12404824Y-64677545D01*
X12449629Y-64731158D01*
X12458336Y-64800483D01*
X12437983Y-64851087D01*
X12375183Y-64942068D01*
X12375182Y-64942068D01*
X12314860Y-65101125D01*
X12314859Y-65101130D01*
X12294355Y-65270000D01*
X12314859Y-65438869D01*
X12314860Y-65438874D01*
X12375182Y-65597931D01*
X12471818Y-65737930D01*
X12555634Y-65812185D01*
X12592761Y-65871374D01*
X12591993Y-65941240D01*
X12555634Y-65997815D01*
X12471818Y-66072069D01*
X12375182Y-66212068D01*
X12314860Y-66371125D01*
X12314859Y-66371130D01*
X12294355Y-66540000D01*
X12314859Y-66708869D01*
X12314860Y-66708874D01*
X12375182Y-66867931D01*
X12471818Y-67007930D01*
X12555634Y-67082185D01*
X12592761Y-67141374D01*
X12591993Y-67211240D01*
X12555634Y-67267815D01*
X12471818Y-67342069D01*
X12375182Y-67482068D01*
X12314860Y-67641125D01*
X12314859Y-67641130D01*
X12294355Y-67810000D01*
X1009825Y-67810000D01*
X916844Y-67654871D01*
X911120Y-67644163D01*
X769479Y-67344688D01*
X764829Y-67333459D01*
X741341Y-67267815D01*
X674922Y-67082185D01*
X653240Y-67021588D01*
X649707Y-67009944D01*
X649203Y-67007930D01*
X569219Y-66688617D01*
X566848Y-66676694D01*
X546571Y-66540000D01*
X518245Y-66349037D01*
X517052Y-66336927D01*
X516960Y-66335063D01*
X500649Y-66003032D01*
X500500Y-65996948D01*
X500500Y-65000000D01*
X3644341Y-65000000D01*
X3664936Y-65235403D01*
X3664938Y-65235413D01*
X3726094Y-65463655D01*
X3726096Y-65463659D01*
X3726097Y-65463663D01*
X3776031Y-65570746D01*
X3825964Y-65677828D01*
X3825965Y-65677830D01*
X3961505Y-65871402D01*
X4128597Y-66038494D01*
X4322169Y-66174034D01*
X4322171Y-66174035D01*
X4536337Y-66273903D01*
X4764592Y-66335063D01*
X4941032Y-66350499D01*
X4941033Y-66350500D01*
X4941034Y-66350500D01*
X5058967Y-66350500D01*
X5058967Y-66350499D01*
X5235408Y-66335063D01*
X5463663Y-66273903D01*
X5677829Y-66174035D01*
X5871401Y-66038495D01*
X6038495Y-65871401D01*
X6174035Y-65677830D01*
X6273903Y-65463663D01*
X6335063Y-65235408D01*
X6355659Y-65000000D01*
X6335063Y-64764592D01*
X6273903Y-64536337D01*
X6174035Y-64322171D01*
X6174034Y-64322169D01*
X6038494Y-64128597D01*
X5871402Y-63961505D01*
X5677830Y-63825965D01*
X5677828Y-63825964D01*
X5570746Y-63776031D01*
X5463663Y-63726097D01*
X5463659Y-63726096D01*
X5463655Y-63726094D01*
X5235413Y-63664938D01*
X5235403Y-63664936D01*
X5058967Y-63649500D01*
X5058966Y-63649500D01*
X4941034Y-63649500D01*
X4941033Y-63649500D01*
X4764596Y-63664936D01*
X4764586Y-63664938D01*
X4536344Y-63726094D01*
X4536335Y-63726098D01*
X4322171Y-63825964D01*
X4322169Y-63825965D01*
X4128597Y-63961505D01*
X3961506Y-64128597D01*
X3961501Y-64128604D01*
X3825967Y-64322165D01*
X3825965Y-64322169D01*
X3726098Y-64536335D01*
X3726094Y-64536344D01*
X3664938Y-64764586D01*
X3664936Y-64764596D01*
X3644341Y-64999999D01*
X3644341Y-65000000D01*
X500500Y-65000000D01*
X500500Y-59897844D01*
X2650000Y-59897844D01*
X2656401Y-59957372D01*
X2656403Y-59957379D01*
X2706645Y-60092086D01*
X2706649Y-60092093D01*
X2792809Y-60207187D01*
X2792812Y-60207190D01*
X2907906Y-60293350D01*
X2907913Y-60293354D01*
X3042620Y-60343596D01*
X3042627Y-60343598D01*
X3102155Y-60349999D01*
X3102172Y-60350000D01*
X3502813Y-60350000D01*
X3569852Y-60369685D01*
X3615607Y-60422489D01*
X3625551Y-60491647D01*
X3596526Y-60555203D01*
X3561267Y-60583357D01*
X3413550Y-60662315D01*
X3413548Y-60662316D01*
X3413547Y-60662317D01*
X3253589Y-60793589D01*
X3122317Y-60953547D01*
X3024769Y-61136043D01*
X2964699Y-61334067D01*
X2944417Y-61540000D01*
X2964699Y-61745932D01*
X2964700Y-61745934D01*
X3024768Y-61943954D01*
X3122315Y-62126450D01*
X3122317Y-62126452D01*
X3253589Y-62286410D01*
X3350209Y-62365702D01*
X3413550Y-62417685D01*
X3596046Y-62515232D01*
X3794066Y-62575300D01*
X3794065Y-62575300D01*
X3812529Y-62577118D01*
X4000000Y-62595583D01*
X4205934Y-62575300D01*
X4403954Y-62515232D01*
X4586450Y-62417685D01*
X4746410Y-62286410D01*
X4877685Y-62126450D01*
X4975232Y-61943954D01*
X5035300Y-61745934D01*
X5055583Y-61540000D01*
X5035300Y-61334066D01*
X4975232Y-61136046D01*
X4877685Y-60953550D01*
X4825702Y-60890209D01*
X4746410Y-60793589D01*
X4586452Y-60662317D01*
X4586453Y-60662317D01*
X4586450Y-60662315D01*
X4438732Y-60583357D01*
X4388889Y-60534395D01*
X4373429Y-60466257D01*
X4397261Y-60400578D01*
X4452819Y-60358209D01*
X4497187Y-60350000D01*
X4897828Y-60350000D01*
X4897844Y-60349999D01*
X4957372Y-60343598D01*
X4957379Y-60343596D01*
X5092086Y-60293354D01*
X5092093Y-60293350D01*
X5207187Y-60207190D01*
X5207190Y-60207187D01*
X5293350Y-60092093D01*
X5293354Y-60092086D01*
X5343596Y-59957379D01*
X5343598Y-59957372D01*
X5349999Y-59897844D01*
X30650000Y-59897844D01*
X30656401Y-59957372D01*
X30656403Y-59957379D01*
X30706645Y-60092086D01*
X30706649Y-60092093D01*
X30792809Y-60207187D01*
X30792812Y-60207190D01*
X30907906Y-60293350D01*
X30907913Y-60293354D01*
X31042620Y-60343596D01*
X31042627Y-60343598D01*
X31102155Y-60349999D01*
X31102172Y-60350000D01*
X31502813Y-60350000D01*
X31569852Y-60369685D01*
X31615607Y-60422489D01*
X31625551Y-60491647D01*
X31596526Y-60555203D01*
X31561267Y-60583357D01*
X31413550Y-60662315D01*
X31413548Y-60662316D01*
X31413547Y-60662317D01*
X31253589Y-60793589D01*
X31122317Y-60953547D01*
X31024769Y-61136043D01*
X30964699Y-61334067D01*
X30944417Y-61540000D01*
X30964699Y-61745932D01*
X30964700Y-61745934D01*
X31024768Y-61943954D01*
X31122315Y-62126450D01*
X31122317Y-62126452D01*
X31253589Y-62286410D01*
X31350209Y-62365702D01*
X31413550Y-62417685D01*
X31596046Y-62515232D01*
X31794066Y-62575300D01*
X31794065Y-62575300D01*
X31812529Y-62577118D01*
X32000000Y-62595583D01*
X32205934Y-62575300D01*
X32403954Y-62515232D01*
X32586450Y-62417685D01*
X32746410Y-62286410D01*
X32877685Y-62126450D01*
X32975232Y-61943954D01*
X33035300Y-61745934D01*
X33055583Y-61540000D01*
X33035300Y-61334066D01*
X32975232Y-61136046D01*
X32877685Y-60953550D01*
X32825702Y-60890209D01*
X32746410Y-60793589D01*
X32586452Y-60662317D01*
X32586453Y-60662317D01*
X32586450Y-60662315D01*
X32438732Y-60583357D01*
X32388889Y-60534395D01*
X32373429Y-60466257D01*
X32397261Y-60400578D01*
X32452819Y-60358209D01*
X32497187Y-60350000D01*
X32897828Y-60350000D01*
X32897844Y-60349999D01*
X32957372Y-60343598D01*
X32957379Y-60343596D01*
X33092086Y-60293354D01*
X33092093Y-60293350D01*
X33207187Y-60207190D01*
X33207190Y-60207187D01*
X33293350Y-60092093D01*
X33293354Y-60092086D01*
X33343596Y-59957379D01*
X33343598Y-59957372D01*
X33349999Y-59897844D01*
X33350000Y-59897827D01*
X33350000Y-59250000D01*
X32433686Y-59250000D01*
X32459493Y-59209844D01*
X32500000Y-59071889D01*
X32500000Y-58928111D01*
X32459493Y-58790156D01*
X32433686Y-58750000D01*
X33350000Y-58750000D01*
X33350000Y-58102172D01*
X33349999Y-58102155D01*
X33343598Y-58042627D01*
X33343596Y-58042620D01*
X33293354Y-57907913D01*
X33293350Y-57907906D01*
X33207190Y-57792812D01*
X33207187Y-57792809D01*
X33092093Y-57706649D01*
X33092086Y-57706645D01*
X32957379Y-57656403D01*
X32957372Y-57656401D01*
X32897844Y-57650000D01*
X32250000Y-57650000D01*
X32250000Y-58564498D01*
X32142315Y-58515320D01*
X32035763Y-58500000D01*
X31964237Y-58500000D01*
X31857685Y-58515320D01*
X31750000Y-58564498D01*
X31750000Y-57650000D01*
X31102155Y-57650000D01*
X31042627Y-57656401D01*
X31042620Y-57656403D01*
X30907913Y-57706645D01*
X30907906Y-57706649D01*
X30792812Y-57792809D01*
X30792809Y-57792812D01*
X30706649Y-57907906D01*
X30706645Y-57907913D01*
X30656403Y-58042620D01*
X30656401Y-58042627D01*
X30650000Y-58102155D01*
X30650000Y-58750000D01*
X31566314Y-58750000D01*
X31540507Y-58790156D01*
X31500000Y-58928111D01*
X31500000Y-59071889D01*
X31540507Y-59209844D01*
X31566314Y-59250000D01*
X30650000Y-59250000D01*
X30650000Y-59897844D01*
X5349999Y-59897844D01*
X5350000Y-59897827D01*
X5350000Y-59250000D01*
X4433686Y-59250000D01*
X4459493Y-59209844D01*
X4500000Y-59071889D01*
X4500000Y-58928111D01*
X4459493Y-58790156D01*
X4433686Y-58750000D01*
X5350000Y-58750000D01*
X5350000Y-58102172D01*
X5349999Y-58102155D01*
X5343598Y-58042627D01*
X5343596Y-58042620D01*
X5293354Y-57907913D01*
X5293350Y-57907906D01*
X5207190Y-57792812D01*
X5207187Y-57792809D01*
X5092093Y-57706649D01*
X5092086Y-57706645D01*
X4957379Y-57656403D01*
X4957372Y-57656401D01*
X4897844Y-57650000D01*
X4250000Y-57650000D01*
X4250000Y-58564498D01*
X4142315Y-58515320D01*
X4035763Y-58500000D01*
X3964237Y-58500000D01*
X3857685Y-58515320D01*
X3750000Y-58564498D01*
X3750000Y-57650000D01*
X3102155Y-57650000D01*
X3042627Y-57656401D01*
X3042620Y-57656403D01*
X2907913Y-57706645D01*
X2907906Y-57706649D01*
X2792812Y-57792809D01*
X2792809Y-57792812D01*
X2706649Y-57907906D01*
X2706645Y-57907913D01*
X2656403Y-58042620D01*
X2656401Y-58042627D01*
X2650000Y-58102155D01*
X2650000Y-58750000D01*
X3566314Y-58750000D01*
X3540507Y-58790156D01*
X3500000Y-58928111D01*
X3500000Y-59071889D01*
X3540507Y-59209844D01*
X3566314Y-59250000D01*
X2650000Y-59250000D01*
X2650000Y-59897844D01*
X500500Y-59897844D01*
X500500Y-42289999D01*
X3030839Y-42289999D01*
X3030840Y-42290000D01*
X3785517Y-42290000D01*
X3714199Y-42374993D01*
X3675000Y-42482694D01*
X3675000Y-42597306D01*
X3714199Y-42705007D01*
X3785517Y-42790000D01*
X3030840Y-42790000D01*
X3071652Y-42924541D01*
X3164503Y-43098253D01*
X3164507Y-43098260D01*
X3289471Y-43250528D01*
X3358009Y-43306776D01*
X3397343Y-43364522D01*
X3399214Y-43434367D01*
X3381397Y-43473065D01*
X3375183Y-43482067D01*
X3375182Y-43482068D01*
X3314860Y-43641125D01*
X3314859Y-43641130D01*
X3294355Y-43810000D01*
X3314859Y-43978869D01*
X3314860Y-43978874D01*
X3375182Y-44137931D01*
X3471818Y-44277930D01*
X3555634Y-44352185D01*
X3592761Y-44411374D01*
X3591993Y-44481240D01*
X3555634Y-44537815D01*
X3471818Y-44612069D01*
X3375182Y-44752068D01*
X3314860Y-44911125D01*
X3314859Y-44911130D01*
X3294355Y-45080000D01*
X3314859Y-45248869D01*
X3314860Y-45248874D01*
X3375182Y-45407931D01*
X3404898Y-45450981D01*
X3469449Y-45544499D01*
X3471818Y-45547930D01*
X3555634Y-45622185D01*
X3592761Y-45681374D01*
X3591993Y-45751240D01*
X3555634Y-45807815D01*
X3471818Y-45882069D01*
X3375182Y-46022068D01*
X3314860Y-46181125D01*
X3314859Y-46181130D01*
X3294355Y-46350000D01*
X3314859Y-46518869D01*
X3314860Y-46518874D01*
X3375182Y-46677931D01*
X3436776Y-46767164D01*
X3471817Y-46817929D01*
X3564333Y-46899891D01*
X3599150Y-46930736D01*
X3749773Y-47009789D01*
X3749775Y-47009790D01*
X3914944Y-47050500D01*
X4085056Y-47050500D01*
X4250225Y-47009790D01*
X4379404Y-46941991D01*
X4400849Y-46930736D01*
X4400850Y-46930734D01*
X4400852Y-46930734D01*
X4528183Y-46817929D01*
X4624818Y-46677930D01*
X4685140Y-46518872D01*
X4705645Y-46350000D01*
X4685140Y-46181128D01*
X4683904Y-46177870D01*
X4637724Y-46056100D01*
X4624818Y-46022070D01*
X4528183Y-45882071D01*
X4444363Y-45807813D01*
X4407238Y-45748626D01*
X4408006Y-45678761D01*
X4444363Y-45622186D01*
X4528183Y-45547929D01*
X4606782Y-45434058D01*
X4661065Y-45390069D01*
X4708832Y-45380500D01*
X5014362Y-45380500D01*
X5031490Y-45381689D01*
X5039261Y-45382772D01*
X5039261Y-45382771D01*
X5039265Y-45382773D01*
X5085580Y-45380632D01*
X5091305Y-45380500D01*
X5109343Y-45380500D01*
X5109344Y-45380500D01*
X5109344Y-45380499D01*
X5114231Y-45380046D01*
X5124818Y-45378817D01*
X5151492Y-45377585D01*
X5157822Y-45374789D01*
X5185129Y-45366332D01*
X5191933Y-45365061D01*
X5191935Y-45365059D01*
X5191937Y-45365059D01*
X5214638Y-45351003D01*
X5229825Y-45342996D01*
X5254265Y-45332206D01*
X5259161Y-45327309D01*
X5281569Y-45309561D01*
X5287452Y-45305919D01*
X5303553Y-45284595D01*
X5314814Y-45271655D01*
X6439652Y-44146819D01*
X6500975Y-44113334D01*
X6527333Y-44110500D01*
X7361589Y-44110500D01*
X7428628Y-44130185D01*
X7474383Y-44182989D01*
X7484327Y-44252147D01*
X7455302Y-44315703D01*
X7449270Y-44322181D01*
X7401476Y-44369974D01*
X7401473Y-44369978D01*
X7340279Y-44490078D01*
X7319196Y-44623197D01*
X7319196Y-44623202D01*
X7340279Y-44756321D01*
X7340280Y-44756324D01*
X7340281Y-44756326D01*
X7394719Y-44863166D01*
X7401473Y-44876421D01*
X7401476Y-44876425D01*
X7496774Y-44971723D01*
X7496778Y-44971726D01*
X7496780Y-44971728D01*
X7616874Y-45032919D01*
X7616876Y-45032919D01*
X7616878Y-45032920D01*
X7749998Y-45054004D01*
X7750000Y-45054004D01*
X7750002Y-45054004D01*
X7883121Y-45032920D01*
X7883121Y-45032919D01*
X7883126Y-45032919D01*
X8003220Y-44971728D01*
X8098528Y-44876420D01*
X8159719Y-44756326D01*
X8160394Y-44752068D01*
X8175599Y-44656064D01*
X8205528Y-44592929D01*
X8210392Y-44587778D01*
X8240054Y-44558117D01*
X8301378Y-44524633D01*
X8327734Y-44521800D01*
X9593611Y-44521800D01*
X9660650Y-44541485D01*
X9706405Y-44594289D01*
X9716349Y-44663447D01*
X9704096Y-44702094D01*
X9667979Y-44772976D01*
X9646896Y-44906097D01*
X9646896Y-44906102D01*
X9667979Y-45039221D01*
X9669916Y-45045181D01*
X9671912Y-45115022D01*
X9635832Y-45174855D01*
X9573131Y-45205684D01*
X9551985Y-45207500D01*
X9409116Y-45207500D01*
X9342077Y-45187815D01*
X9298631Y-45139795D01*
X9294669Y-45132019D01*
X9250728Y-45045780D01*
X9250724Y-45045776D01*
X9250723Y-45045774D01*
X9155425Y-44950476D01*
X9155421Y-44950473D01*
X9155420Y-44950472D01*
X9035326Y-44889281D01*
X9035324Y-44889280D01*
X9035321Y-44889279D01*
X8902202Y-44868196D01*
X8902198Y-44868196D01*
X8769078Y-44889279D01*
X8648978Y-44950473D01*
X8648974Y-44950476D01*
X8553676Y-45045774D01*
X8553673Y-45045778D01*
X8553672Y-45045780D01*
X8531127Y-45090028D01*
X8492479Y-45165878D01*
X8471396Y-45298997D01*
X8471396Y-45299002D01*
X8492479Y-45432121D01*
X8492480Y-45432124D01*
X8492481Y-45432126D01*
X8552796Y-45550500D01*
X8553673Y-45552221D01*
X8553676Y-45552225D01*
X8648974Y-45647523D01*
X8648978Y-45647526D01*
X8648980Y-45647528D01*
X8769074Y-45708719D01*
X8769076Y-45708719D01*
X8769078Y-45708720D01*
X8873087Y-45725193D01*
X8936222Y-45755122D01*
X8937230Y-45756031D01*
X8950267Y-45767916D01*
X8950270Y-45767917D01*
X8956721Y-45770416D01*
X8982006Y-45783743D01*
X8987720Y-45787657D01*
X9013717Y-45793771D01*
X9030118Y-45798851D01*
X9055024Y-45808500D01*
X9055027Y-45808500D01*
X9061952Y-45808500D01*
X9090340Y-45811793D01*
X9097081Y-45813379D01*
X9123533Y-45809689D01*
X9140664Y-45808500D01*
X10876000Y-45808500D01*
X10943039Y-45828185D01*
X10988794Y-45880989D01*
X11000000Y-45932500D01*
X11000000Y-51000000D01*
X25000000Y-51000000D01*
X25000000Y-49660800D01*
X25019685Y-49593761D01*
X25072489Y-49548006D01*
X25124000Y-49536800D01*
X25777413Y-49536800D01*
X25844452Y-49556485D01*
X25890207Y-49609289D01*
X25900151Y-49678447D01*
X25871126Y-49742003D01*
X25856078Y-49756653D01*
X25713590Y-49873589D01*
X25582317Y-50033547D01*
X25484769Y-50216043D01*
X25424699Y-50414067D01*
X25404417Y-50620000D01*
X25424699Y-50825932D01*
X25424700Y-50825934D01*
X25484768Y-51023954D01*
X25582315Y-51206450D01*
X25582317Y-51206452D01*
X25713589Y-51366410D01*
X25810209Y-51445702D01*
X25873550Y-51497685D01*
X26056046Y-51595232D01*
X26254066Y-51655300D01*
X26254065Y-51655300D01*
X26272529Y-51657118D01*
X26460000Y-51675583D01*
X26665934Y-51655300D01*
X26863954Y-51595232D01*
X27046450Y-51497685D01*
X27206410Y-51366410D01*
X27337685Y-51206450D01*
X27435232Y-51023954D01*
X27495300Y-50825934D01*
X27515583Y-50620000D01*
X27944417Y-50620000D01*
X27964699Y-50825932D01*
X27964700Y-50825934D01*
X28024768Y-51023954D01*
X28122315Y-51206450D01*
X28122317Y-51206452D01*
X28253589Y-51366410D01*
X28350209Y-51445702D01*
X28413550Y-51497685D01*
X28596046Y-51595232D01*
X28794066Y-51655300D01*
X28794065Y-51655300D01*
X28812529Y-51657118D01*
X29000000Y-51675583D01*
X29205934Y-51655300D01*
X29403954Y-51595232D01*
X29586450Y-51497685D01*
X29746410Y-51366410D01*
X29877685Y-51206450D01*
X29975232Y-51023954D01*
X30035300Y-50825934D01*
X30055583Y-50620000D01*
X30035300Y-50414066D01*
X29975232Y-50216046D01*
X29877685Y-50033550D01*
X29825702Y-49970209D01*
X29746410Y-49873589D01*
X29586452Y-49742317D01*
X29586453Y-49742317D01*
X29586450Y-49742315D01*
X29403954Y-49644768D01*
X29205934Y-49584700D01*
X29205932Y-49584699D01*
X29205934Y-49584699D01*
X29000000Y-49564417D01*
X28794067Y-49584699D01*
X28596043Y-49644769D01*
X28508533Y-49691545D01*
X28413550Y-49742315D01*
X28413548Y-49742316D01*
X28413547Y-49742317D01*
X28253589Y-49873589D01*
X28122317Y-50033547D01*
X28024769Y-50216043D01*
X27964699Y-50414067D01*
X27944417Y-50620000D01*
X27515583Y-50620000D01*
X27495300Y-50414066D01*
X27435232Y-50216046D01*
X27337685Y-50033550D01*
X27285702Y-49970209D01*
X27206410Y-49873589D01*
X27041742Y-49738451D01*
X27043399Y-49736430D01*
X27005870Y-49691545D01*
X26997146Y-49622222D01*
X27027286Y-49559187D01*
X27079952Y-49526636D01*
X27079517Y-49525512D01*
X27085559Y-49523170D01*
X27086720Y-49522454D01*
X27088423Y-49522061D01*
X27090230Y-49521361D01*
X27090233Y-49521361D01*
X27090234Y-49521359D01*
X27090237Y-49521359D01*
X27112938Y-49507303D01*
X27128125Y-49499296D01*
X27152565Y-49488506D01*
X27157461Y-49483609D01*
X27179869Y-49465861D01*
X27185752Y-49462219D01*
X27201853Y-49440895D01*
X27213114Y-49427955D01*
X27959001Y-48682069D01*
X28020322Y-48648586D01*
X28090014Y-48653570D01*
X28142533Y-48691087D01*
X28177042Y-48733136D01*
X28253590Y-48826410D01*
X28413550Y-48957685D01*
X28596046Y-49055232D01*
X28794066Y-49115300D01*
X28794065Y-49115300D01*
X28812529Y-49117118D01*
X29000000Y-49135583D01*
X29205934Y-49115300D01*
X29403954Y-49055232D01*
X29586450Y-48957685D01*
X29746410Y-48826410D01*
X29877685Y-48666450D01*
X29975232Y-48483954D01*
X30035300Y-48285934D01*
X30055583Y-48080000D01*
X30035300Y-47874066D01*
X29975232Y-47676046D01*
X29877685Y-47493550D01*
X29786818Y-47382827D01*
X29746410Y-47333589D01*
X29586452Y-47202317D01*
X29586453Y-47202317D01*
X29586450Y-47202315D01*
X29403954Y-47104768D01*
X29205934Y-47044700D01*
X29205932Y-47044699D01*
X29205934Y-47044699D01*
X29000000Y-47024417D01*
X28794067Y-47044699D01*
X28657412Y-47086153D01*
X28596050Y-47104767D01*
X28596043Y-47104769D01*
X28533234Y-47138342D01*
X28413550Y-47202315D01*
X28413548Y-47202316D01*
X28413547Y-47202317D01*
X28253589Y-47333589D01*
X28122317Y-47493547D01*
X28024769Y-47676043D01*
X28024766Y-47676050D01*
X28020548Y-47689955D01*
X27982249Y-47748393D01*
X27918436Y-47776847D01*
X27887934Y-47774658D01*
X27887749Y-47776659D01*
X27876308Y-47775599D01*
X27876307Y-47775599D01*
X27864868Y-47776659D01*
X27839917Y-47778971D01*
X27828476Y-47779500D01*
X27820254Y-47779500D01*
X27812169Y-47781011D01*
X27800839Y-47782591D01*
X27764439Y-47785964D01*
X27755744Y-47788438D01*
X27746108Y-47791668D01*
X27737663Y-47794940D01*
X27706594Y-47814176D01*
X27696596Y-47819746D01*
X27663870Y-47836042D01*
X27659134Y-47839619D01*
X27593771Y-47864307D01*
X27525437Y-47849739D01*
X27475827Y-47800539D01*
X27465751Y-47776656D01*
X27435232Y-47676046D01*
X27337685Y-47493550D01*
X27206410Y-47333590D01*
X27101108Y-47247171D01*
X27060376Y-47213743D01*
X27021042Y-47155998D01*
X27019171Y-47086153D01*
X27051358Y-47030211D01*
X27824411Y-46257158D01*
X27837363Y-46245888D01*
X27843623Y-46241160D01*
X27843628Y-46241158D01*
X27874888Y-46206866D01*
X27878802Y-46202767D01*
X27891574Y-46189997D01*
X27891575Y-46189996D01*
X27894682Y-46186254D01*
X27901316Y-46177876D01*
X27919316Y-46158133D01*
X27919318Y-46158129D01*
X27925367Y-46148361D01*
X27928554Y-46150334D01*
X27958569Y-46111256D01*
X28024330Y-46087650D01*
X28092414Y-46103345D01*
X28127500Y-46132769D01*
X28229589Y-46257165D01*
X28253590Y-46286410D01*
X28413550Y-46417685D01*
X28596046Y-46515232D01*
X28794066Y-46575300D01*
X28794065Y-46575300D01*
X28812529Y-46577118D01*
X29000000Y-46595583D01*
X29205934Y-46575300D01*
X29403954Y-46515232D01*
X29586450Y-46417685D01*
X29746410Y-46286410D01*
X29877685Y-46126450D01*
X29975232Y-45943954D01*
X30035300Y-45745934D01*
X30055583Y-45540000D01*
X30035300Y-45334066D01*
X29975232Y-45136046D01*
X29877685Y-44953550D01*
X29814387Y-44876421D01*
X29746410Y-44793589D01*
X29586452Y-44662317D01*
X29586453Y-44662317D01*
X29586450Y-44662315D01*
X29403954Y-44564768D01*
X29205934Y-44504700D01*
X29205932Y-44504699D01*
X29205934Y-44504699D01*
X29000000Y-44484417D01*
X28794067Y-44504699D01*
X28596043Y-44564769D01*
X28519655Y-44605600D01*
X28413550Y-44662315D01*
X28413548Y-44662316D01*
X28413547Y-44662317D01*
X28253589Y-44793590D01*
X28135524Y-44937453D01*
X28077778Y-44976787D01*
X28007934Y-44978658D01*
X27948166Y-44942470D01*
X27934246Y-44924069D01*
X27930405Y-44917866D01*
X27922395Y-44902670D01*
X27911607Y-44878237D01*
X27911606Y-44878236D01*
X27911606Y-44878235D01*
X27906709Y-44873338D01*
X27888963Y-44850934D01*
X27885318Y-44845047D01*
X27885317Y-44845046D01*
X27864002Y-44828950D01*
X27851048Y-44817677D01*
X27138362Y-44104991D01*
X27127087Y-44092035D01*
X27122355Y-44085768D01*
X27088083Y-44054525D01*
X27083938Y-44050567D01*
X27068824Y-44035452D01*
X27035341Y-43974128D01*
X27040328Y-43904437D01*
X27065105Y-43869752D01*
X27949500Y-43869752D01*
X27961131Y-43928229D01*
X27961132Y-43928230D01*
X28005447Y-43994552D01*
X28071769Y-44038867D01*
X28071770Y-44038868D01*
X28130247Y-44050499D01*
X28130250Y-44050500D01*
X28130252Y-44050500D01*
X29869750Y-44050500D01*
X29869751Y-44050499D01*
X29884568Y-44047552D01*
X29928229Y-44038868D01*
X29928229Y-44038867D01*
X29928231Y-44038867D01*
X29994552Y-43994552D01*
X30038867Y-43928231D01*
X30038867Y-43928229D01*
X30038868Y-43928229D01*
X30050499Y-43869752D01*
X30050500Y-43869750D01*
X30050500Y-42130249D01*
X30050499Y-42130247D01*
X30038868Y-42071770D01*
X30038867Y-42071769D01*
X29994552Y-42005447D01*
X29928230Y-41961132D01*
X29928229Y-41961131D01*
X29869752Y-41949500D01*
X29869748Y-41949500D01*
X28130252Y-41949500D01*
X28130247Y-41949500D01*
X28071770Y-41961131D01*
X28071769Y-41961132D01*
X28005447Y-42005447D01*
X27961132Y-42071769D01*
X27961131Y-42071770D01*
X27949500Y-42130247D01*
X27949500Y-43869752D01*
X27065105Y-43869752D01*
X27077842Y-43851921D01*
X27206410Y-43746410D01*
X27337685Y-43586450D01*
X27435232Y-43403954D01*
X27495300Y-43205934D01*
X27515583Y-43000000D01*
X27495300Y-42794066D01*
X27435232Y-42596046D01*
X27337685Y-42413550D01*
X27233989Y-42287195D01*
X27206410Y-42253589D01*
X27086835Y-42155458D01*
X27046450Y-42122315D01*
X26863954Y-42024768D01*
X26665934Y-41964700D01*
X26665932Y-41964699D01*
X26665934Y-41964699D01*
X26460000Y-41944417D01*
X26254067Y-41964699D01*
X26056043Y-42024769D01*
X25968114Y-42071769D01*
X25873550Y-42122315D01*
X25873548Y-42122316D01*
X25873547Y-42122317D01*
X25713589Y-42253589D01*
X25582317Y-42413547D01*
X25509365Y-42550028D01*
X25460402Y-42599872D01*
X25392264Y-42615332D01*
X25326585Y-42591500D01*
X25312326Y-42579255D01*
X25036319Y-42303248D01*
X25002834Y-42241925D01*
X25000000Y-42215567D01*
X25000000Y-29000000D01*
X11000000Y-29000000D01*
X11000000Y-42862266D01*
X10980315Y-42929305D01*
X10963683Y-42949944D01*
X10842346Y-43071282D01*
X10781026Y-43104766D01*
X10754667Y-43107600D01*
X6052238Y-43107600D01*
X6035110Y-43106411D01*
X6027338Y-43105327D01*
X6027335Y-43105327D01*
X5987072Y-43107188D01*
X5981020Y-43107468D01*
X5975295Y-43107600D01*
X5957256Y-43107600D01*
X5957251Y-43107600D01*
X5952426Y-43108048D01*
X5941797Y-43109281D01*
X5915108Y-43110515D01*
X5908763Y-43113315D01*
X5881480Y-43121765D01*
X5874668Y-43123038D01*
X5874667Y-43123039D01*
X5851957Y-43137099D01*
X5836778Y-43145100D01*
X5812335Y-43155893D01*
X5807436Y-43160793D01*
X5785042Y-43178531D01*
X5779148Y-43182180D01*
X5763049Y-43203498D01*
X5751779Y-43216448D01*
X5584586Y-43383641D01*
X5571635Y-43394912D01*
X5565367Y-43399644D01*
X5534122Y-43433918D01*
X5530174Y-43438053D01*
X5517427Y-43450800D01*
X5514347Y-43454509D01*
X5507686Y-43462918D01*
X5502110Y-43469035D01*
X5442400Y-43505319D01*
X5410470Y-43509500D01*
X4741527Y-43509500D01*
X4674488Y-43489815D01*
X4628733Y-43437011D01*
X4618789Y-43367853D01*
X4647814Y-43304297D01*
X4662862Y-43289647D01*
X4710528Y-43250528D01*
X4835492Y-43098260D01*
X4835496Y-43098253D01*
X4928347Y-42924541D01*
X4969160Y-42790000D01*
X4214483Y-42790000D01*
X4285801Y-42705007D01*
X4325000Y-42597306D01*
X4325000Y-42482694D01*
X4285801Y-42374993D01*
X4214483Y-42290000D01*
X4969160Y-42290000D01*
X4969160Y-42289999D01*
X4928347Y-42155458D01*
X4835496Y-41981746D01*
X4835492Y-41981739D01*
X4710528Y-41829471D01*
X4641990Y-41773223D01*
X4602656Y-41715477D01*
X4600785Y-41645632D01*
X4618607Y-41606928D01*
X4624817Y-41597931D01*
X4624816Y-41597931D01*
X4624818Y-41597930D01*
X4685140Y-41438872D01*
X4705645Y-41270000D01*
X4685140Y-41101128D01*
X4624818Y-40942070D01*
X4624817Y-40942068D01*
X4624816Y-40942066D01*
X4562017Y-40851088D01*
X4540133Y-40784733D01*
X4557598Y-40717082D01*
X4595175Y-40677545D01*
X4644552Y-40644552D01*
X4688867Y-40578231D01*
X4688867Y-40578229D01*
X4688868Y-40578229D01*
X4700499Y-40519752D01*
X4700500Y-40519750D01*
X4700500Y-39480249D01*
X4700499Y-39480247D01*
X4688868Y-39421770D01*
X4688867Y-39421769D01*
X4644552Y-39355447D01*
X4578230Y-39311132D01*
X4578229Y-39311131D01*
X4519752Y-39299500D01*
X4519748Y-39299500D01*
X3480252Y-39299500D01*
X3480247Y-39299500D01*
X3421770Y-39311131D01*
X3421769Y-39311132D01*
X3355447Y-39355447D01*
X3311132Y-39421769D01*
X3311131Y-39421770D01*
X3299500Y-39480247D01*
X3299500Y-40519752D01*
X3311131Y-40578229D01*
X3311132Y-40578230D01*
X3355447Y-40644552D01*
X3404824Y-40677545D01*
X3449629Y-40731158D01*
X3458336Y-40800483D01*
X3437983Y-40851087D01*
X3375183Y-40942068D01*
X3375182Y-40942068D01*
X3314860Y-41101125D01*
X3314859Y-41101130D01*
X3294355Y-41270000D01*
X3314859Y-41438869D01*
X3314860Y-41438874D01*
X3375182Y-41597930D01*
X3381395Y-41606931D01*
X3403277Y-41673285D01*
X3385811Y-41740937D01*
X3358010Y-41773222D01*
X3289472Y-41829470D01*
X3164507Y-41981739D01*
X3164503Y-41981746D01*
X3071652Y-42155458D01*
X3030839Y-42289999D01*
X500500Y-42289999D01*
X500500Y-33144500D01*
X520185Y-33077461D01*
X572989Y-33031706D01*
X624500Y-33020500D01*
X962374Y-33020500D01*
X1004538Y-33015380D01*
X1088872Y-33005140D01*
X1247930Y-32944818D01*
X1387929Y-32848183D01*
X1500734Y-32720852D01*
X1579790Y-32570225D01*
X1620500Y-32405056D01*
X1620500Y-32405055D01*
X3549500Y-32405055D01*
X3590210Y-32570226D01*
X3669263Y-32720849D01*
X3669266Y-32720852D01*
X3782071Y-32848183D01*
X3872318Y-32910476D01*
X3922068Y-32944817D01*
X3922069Y-32944817D01*
X3922070Y-32944818D01*
X4081128Y-33005140D01*
X4157028Y-33014356D01*
X4207626Y-33020500D01*
X4207628Y-33020500D01*
X4892374Y-33020500D01*
X4934538Y-33015380D01*
X5018872Y-33005140D01*
X5177930Y-32944818D01*
X5317929Y-32848183D01*
X5430734Y-32720852D01*
X5509790Y-32570225D01*
X5550500Y-32405056D01*
X5550500Y-32234944D01*
X5509790Y-32069775D01*
X5509789Y-32069773D01*
X5430736Y-31919150D01*
X5411560Y-31897505D01*
X5317929Y-31791817D01*
X5268177Y-31757475D01*
X5177931Y-31695182D01*
X5018874Y-31634860D01*
X5018868Y-31634859D01*
X4892374Y-31619500D01*
X4892372Y-31619500D01*
X4207628Y-31619500D01*
X4207626Y-31619500D01*
X4081131Y-31634859D01*
X4081125Y-31634860D01*
X3922068Y-31695182D01*
X3782072Y-31791816D01*
X3669263Y-31919150D01*
X3590210Y-32069773D01*
X3549500Y-32234944D01*
X3549500Y-32405055D01*
X1620500Y-32405055D01*
X1620500Y-32234944D01*
X1579790Y-32069775D01*
X1579789Y-32069773D01*
X1500736Y-31919150D01*
X1481560Y-31897505D01*
X1387929Y-31791817D01*
X1338177Y-31757475D01*
X1247931Y-31695182D01*
X1128909Y-31650044D01*
X1073206Y-31607866D01*
X1049149Y-31542269D01*
X1064376Y-31474079D01*
X1114051Y-31424945D01*
X1125407Y-31419549D01*
X1190233Y-31392698D01*
X1310451Y-31300451D01*
X1402698Y-31180233D01*
X1460687Y-31040236D01*
X1480466Y-30890000D01*
X1460687Y-30739764D01*
X1402698Y-30599767D01*
X1310451Y-30479549D01*
X1190233Y-30387302D01*
X1190229Y-30387300D01*
X1126801Y-30361027D01*
X1050236Y-30329313D01*
X1036171Y-30327461D01*
X937727Y-30314500D01*
X937720Y-30314500D01*
X862280Y-30314500D01*
X862272Y-30314500D01*
X749764Y-30329313D01*
X749760Y-30329314D01*
X671952Y-30361543D01*
X602483Y-30369012D01*
X540004Y-30337736D01*
X504352Y-30277647D01*
X500500Y-30246982D01*
X500500Y-25753017D01*
X520185Y-25685978D01*
X572989Y-25640223D01*
X642147Y-25630279D01*
X671949Y-25638455D01*
X749764Y-25670687D01*
X862280Y-25685500D01*
X862287Y-25685500D01*
X937713Y-25685500D01*
X937720Y-25685500D01*
X1050236Y-25670687D01*
X1190233Y-25612698D01*
X1310451Y-25520451D01*
X1402698Y-25400233D01*
X1460687Y-25260236D01*
X1480466Y-25110000D01*
X1460687Y-24959764D01*
X1402698Y-24819767D01*
X1310451Y-24699549D01*
X1190233Y-24607302D01*
X1190229Y-24607300D01*
X1125427Y-24580458D01*
X1071024Y-24536617D01*
X1048959Y-24470323D01*
X1066238Y-24402623D01*
X1117376Y-24355013D01*
X1128896Y-24349960D01*
X1247930Y-24304818D01*
X1387929Y-24208183D01*
X1500734Y-24080852D01*
X1579790Y-23930225D01*
X1620500Y-23765056D01*
X1620500Y-23765055D01*
X3549500Y-23765055D01*
X3590210Y-23930226D01*
X3669263Y-24080849D01*
X3669266Y-24080852D01*
X3782071Y-24208183D01*
X3872318Y-24270476D01*
X3922068Y-24304817D01*
X3922069Y-24304817D01*
X3922070Y-24304818D01*
X4081128Y-24365140D01*
X4157028Y-24374356D01*
X4207626Y-24380500D01*
X4207628Y-24380500D01*
X4892374Y-24380500D01*
X4934538Y-24375380D01*
X5018872Y-24365140D01*
X5177930Y-24304818D01*
X5317929Y-24208183D01*
X5430734Y-24080852D01*
X5509790Y-23930225D01*
X5550500Y-23765056D01*
X5550500Y-23594944D01*
X5509790Y-23429775D01*
X5493252Y-23398264D01*
X5430736Y-23279150D01*
X5411560Y-23257505D01*
X5317929Y-23151817D01*
X5268177Y-23117475D01*
X5177931Y-23055182D01*
X5018874Y-22994860D01*
X5018868Y-22994859D01*
X4892374Y-22979500D01*
X4892372Y-22979500D01*
X4207628Y-22979500D01*
X4207626Y-22979500D01*
X4081131Y-22994859D01*
X4081125Y-22994860D01*
X3922068Y-23055182D01*
X3782072Y-23151816D01*
X3669263Y-23279150D01*
X3590210Y-23429773D01*
X3549500Y-23594944D01*
X3549500Y-23765055D01*
X1620500Y-23765055D01*
X1620500Y-23594944D01*
X1579790Y-23429775D01*
X1563252Y-23398264D01*
X1500736Y-23279150D01*
X1481560Y-23257505D01*
X1387929Y-23151817D01*
X1338177Y-23117475D01*
X1247931Y-23055182D01*
X1088874Y-22994860D01*
X1088868Y-22994859D01*
X962374Y-22979500D01*
X962372Y-22979500D01*
X624500Y-22979500D01*
X557461Y-22959815D01*
X511706Y-22907011D01*
X500500Y-22855500D01*
X500500Y-21668002D01*
X8354096Y-21668002D01*
X8375179Y-21801121D01*
X8375180Y-21801124D01*
X8375181Y-21801126D01*
X8436372Y-21921220D01*
X8436373Y-21921221D01*
X8436376Y-21921225D01*
X8531674Y-22016523D01*
X8531678Y-22016526D01*
X8531680Y-22016528D01*
X8651774Y-22077719D01*
X8651776Y-22077719D01*
X8651778Y-22077720D01*
X8784898Y-22098804D01*
X8784900Y-22098804D01*
X8784902Y-22098804D01*
X8918021Y-22077720D01*
X8918021Y-22077719D01*
X8918026Y-22077719D01*
X9038120Y-22016528D01*
X9038125Y-22016523D01*
X9049830Y-22004819D01*
X9111153Y-21971334D01*
X9137511Y-21968500D01*
X26173867Y-21968500D01*
X26240906Y-21988185D01*
X26261548Y-22004819D01*
X27624608Y-23367879D01*
X27658093Y-23429202D01*
X27659400Y-23436162D01*
X27675279Y-23536421D01*
X27675280Y-23536424D01*
X27675281Y-23536426D01*
X27736472Y-23656520D01*
X27736473Y-23656521D01*
X27736476Y-23656525D01*
X27831774Y-23751823D01*
X27831778Y-23751826D01*
X27831780Y-23751828D01*
X27951874Y-23813019D01*
X27951876Y-23813019D01*
X27951878Y-23813020D01*
X28084998Y-23834104D01*
X28085000Y-23834104D01*
X28085002Y-23834104D01*
X28218121Y-23813020D01*
X28218121Y-23813019D01*
X28218126Y-23813019D01*
X28338220Y-23751828D01*
X28433528Y-23656520D01*
X28494719Y-23536426D01*
X28515804Y-23403300D01*
X28515006Y-23398264D01*
X28494720Y-23270178D01*
X28494719Y-23270176D01*
X28494719Y-23270174D01*
X28433528Y-23150080D01*
X28433526Y-23150078D01*
X28433523Y-23150074D01*
X28338225Y-23054776D01*
X28338221Y-23054773D01*
X28338220Y-23054772D01*
X28218126Y-22993581D01*
X28218124Y-22993580D01*
X28218121Y-22993579D01*
X28117862Y-22977700D01*
X28054727Y-22947771D01*
X28049579Y-22942908D01*
X26609662Y-21502991D01*
X26598387Y-21490035D01*
X26593655Y-21483768D01*
X26559383Y-21452525D01*
X26555260Y-21448589D01*
X26542497Y-21435826D01*
X26542496Y-21435825D01*
X26542494Y-21435823D01*
X26538777Y-21432737D01*
X26530379Y-21426084D01*
X26510633Y-21408084D01*
X26504170Y-21405580D01*
X26478892Y-21392256D01*
X26473181Y-21388344D01*
X26473178Y-21388343D01*
X26473179Y-21388343D01*
X26447183Y-21382228D01*
X26430789Y-21377151D01*
X26405874Y-21367500D01*
X26405873Y-21367500D01*
X26398949Y-21367500D01*
X26370558Y-21364206D01*
X26363819Y-21362621D01*
X26337366Y-21366311D01*
X26320236Y-21367500D01*
X9137511Y-21367500D01*
X9070472Y-21347815D01*
X9049830Y-21331181D01*
X9038125Y-21319476D01*
X9038121Y-21319473D01*
X9038120Y-21319472D01*
X8918026Y-21258281D01*
X8918024Y-21258280D01*
X8918021Y-21258279D01*
X8784902Y-21237196D01*
X8784898Y-21237196D01*
X8651778Y-21258279D01*
X8531678Y-21319473D01*
X8531674Y-21319476D01*
X8436376Y-21414774D01*
X8436373Y-21414778D01*
X8375179Y-21534878D01*
X8354096Y-21667997D01*
X8354096Y-21668002D01*
X500500Y-21668002D01*
X500500Y-11897844D01*
X2650000Y-11897844D01*
X2656401Y-11957372D01*
X2656403Y-11957379D01*
X2706645Y-12092086D01*
X2706649Y-12092093D01*
X2792809Y-12207187D01*
X2792812Y-12207190D01*
X2907906Y-12293350D01*
X2907913Y-12293354D01*
X3042620Y-12343596D01*
X3042627Y-12343598D01*
X3102155Y-12349999D01*
X3102172Y-12350000D01*
X3502813Y-12350000D01*
X3569852Y-12369685D01*
X3615607Y-12422489D01*
X3625551Y-12491647D01*
X3596526Y-12555203D01*
X3561267Y-12583357D01*
X3413550Y-12662315D01*
X3413548Y-12662316D01*
X3413547Y-12662317D01*
X3253589Y-12793589D01*
X3122317Y-12953547D01*
X3024769Y-13136043D01*
X2964699Y-13334067D01*
X2944417Y-13540000D01*
X2964699Y-13745932D01*
X2964700Y-13745934D01*
X3024768Y-13943954D01*
X3122315Y-14126450D01*
X3122317Y-14126452D01*
X3253589Y-14286410D01*
X3350209Y-14365702D01*
X3413550Y-14417685D01*
X3596046Y-14515232D01*
X3794066Y-14575300D01*
X3794065Y-14575300D01*
X3812529Y-14577118D01*
X4000000Y-14595583D01*
X4205934Y-14575300D01*
X4403954Y-14515232D01*
X4586450Y-14417685D01*
X4746410Y-14286410D01*
X4877685Y-14126450D01*
X4975232Y-13943954D01*
X5035300Y-13745934D01*
X5055583Y-13540000D01*
X5035300Y-13334066D01*
X4975232Y-13136046D01*
X4877685Y-12953550D01*
X4825702Y-12890209D01*
X4746410Y-12793589D01*
X4586452Y-12662317D01*
X4586453Y-12662317D01*
X4586450Y-12662315D01*
X4438732Y-12583357D01*
X4388889Y-12534395D01*
X4373429Y-12466257D01*
X4397261Y-12400578D01*
X4452819Y-12358209D01*
X4497187Y-12350000D01*
X4897828Y-12350000D01*
X4897844Y-12349999D01*
X4957372Y-12343598D01*
X4957379Y-12343596D01*
X5092086Y-12293354D01*
X5092093Y-12293350D01*
X5207187Y-12207190D01*
X5207190Y-12207187D01*
X5293350Y-12092093D01*
X5293354Y-12092086D01*
X5343596Y-11957379D01*
X5343598Y-11957372D01*
X5349999Y-11897844D01*
X5350000Y-11897827D01*
X5350000Y-11250000D01*
X4433686Y-11250000D01*
X4459493Y-11209844D01*
X4500000Y-11071889D01*
X4500000Y-10928111D01*
X4459493Y-10790156D01*
X4433686Y-10750000D01*
X5350000Y-10750000D01*
X5350000Y-10102172D01*
X5349999Y-10102155D01*
X5343598Y-10042627D01*
X5343596Y-10042620D01*
X5293354Y-9907913D01*
X5293350Y-9907906D01*
X5207190Y-9792812D01*
X5207187Y-9792809D01*
X5092093Y-9706649D01*
X5092086Y-9706645D01*
X4957379Y-9656403D01*
X4957372Y-9656401D01*
X4897844Y-9650000D01*
X4250000Y-9650000D01*
X4250000Y-10564498D01*
X4142315Y-10515320D01*
X4035763Y-10500000D01*
X3964237Y-10500000D01*
X3857685Y-10515320D01*
X3750000Y-10564498D01*
X3750000Y-9650000D01*
X3102155Y-9650000D01*
X3042627Y-9656401D01*
X3042620Y-9656403D01*
X2907913Y-9706645D01*
X2907906Y-9706649D01*
X2792812Y-9792809D01*
X2792809Y-9792812D01*
X2706649Y-9907906D01*
X2706645Y-9907913D01*
X2656403Y-10042620D01*
X2656401Y-10042627D01*
X2650000Y-10102155D01*
X2650000Y-10750000D01*
X3566314Y-10750000D01*
X3540507Y-10790156D01*
X3500000Y-10928111D01*
X3500000Y-11071889D01*
X3540507Y-11209844D01*
X3566314Y-11250000D01*
X2650000Y-11250000D01*
X2650000Y-11897844D01*
X500500Y-11897844D01*
X500500Y-7700000D01*
X11400000Y-7700000D01*
X11400000Y-13100000D01*
X24600000Y-13100000D01*
X24600000Y-11897844D01*
X30650000Y-11897844D01*
X30656401Y-11957372D01*
X30656403Y-11957379D01*
X30706645Y-12092086D01*
X30706649Y-12092093D01*
X30792809Y-12207187D01*
X30792812Y-12207190D01*
X30907906Y-12293350D01*
X30907913Y-12293354D01*
X31042620Y-12343596D01*
X31042627Y-12343598D01*
X31102155Y-12349999D01*
X31102172Y-12350000D01*
X31502813Y-12350000D01*
X31569852Y-12369685D01*
X31615607Y-12422489D01*
X31625551Y-12491647D01*
X31596526Y-12555203D01*
X31561267Y-12583357D01*
X31413550Y-12662315D01*
X31413548Y-12662316D01*
X31413547Y-12662317D01*
X31253589Y-12793589D01*
X31122317Y-12953547D01*
X31024769Y-13136043D01*
X30964699Y-13334067D01*
X30944417Y-13540000D01*
X30964699Y-13745932D01*
X30964700Y-13745934D01*
X31024768Y-13943954D01*
X31122315Y-14126450D01*
X31122317Y-14126452D01*
X31253589Y-14286410D01*
X31350209Y-14365702D01*
X31413550Y-14417685D01*
X31596046Y-14515232D01*
X31794066Y-14575300D01*
X31794065Y-14575300D01*
X31812529Y-14577118D01*
X32000000Y-14595583D01*
X32205934Y-14575300D01*
X32403954Y-14515232D01*
X32586450Y-14417685D01*
X32746410Y-14286410D01*
X32877685Y-14126450D01*
X32975232Y-13943954D01*
X33035300Y-13745934D01*
X33055583Y-13540000D01*
X33035300Y-13334066D01*
X32975232Y-13136046D01*
X32877685Y-12953550D01*
X32825702Y-12890209D01*
X32746410Y-12793589D01*
X32586452Y-12662317D01*
X32586453Y-12662317D01*
X32586450Y-12662315D01*
X32438732Y-12583357D01*
X32388889Y-12534395D01*
X32373429Y-12466257D01*
X32397261Y-12400578D01*
X32452819Y-12358209D01*
X32497187Y-12350000D01*
X32897828Y-12350000D01*
X32897844Y-12349999D01*
X32957372Y-12343598D01*
X32957379Y-12343596D01*
X33092086Y-12293354D01*
X33092093Y-12293350D01*
X33207187Y-12207190D01*
X33207190Y-12207187D01*
X33293350Y-12092093D01*
X33293354Y-12092086D01*
X33343596Y-11957379D01*
X33343598Y-11957372D01*
X33349999Y-11897844D01*
X33350000Y-11897827D01*
X33350000Y-11250000D01*
X32433686Y-11250000D01*
X32459493Y-11209844D01*
X32500000Y-11071889D01*
X32500000Y-10928111D01*
X32459493Y-10790156D01*
X32433686Y-10750000D01*
X33350000Y-10750000D01*
X33350000Y-10102172D01*
X33349999Y-10102155D01*
X33343598Y-10042627D01*
X33343596Y-10042620D01*
X33293354Y-9907913D01*
X33293350Y-9907906D01*
X33207190Y-9792812D01*
X33207187Y-9792809D01*
X33092093Y-9706649D01*
X33092086Y-9706645D01*
X32957379Y-9656403D01*
X32957372Y-9656401D01*
X32897844Y-9650000D01*
X32250000Y-9650000D01*
X32250000Y-10564498D01*
X32142315Y-10515320D01*
X32035763Y-10500000D01*
X31964237Y-10500000D01*
X31857685Y-10515320D01*
X31750000Y-10564498D01*
X31750000Y-9650000D01*
X31102155Y-9650000D01*
X31042627Y-9656401D01*
X31042620Y-9656403D01*
X30907913Y-9706645D01*
X30907906Y-9706649D01*
X30792812Y-9792809D01*
X30792809Y-9792812D01*
X30706649Y-9907906D01*
X30706645Y-9907913D01*
X30656403Y-10042620D01*
X30656401Y-10042627D01*
X30650000Y-10102155D01*
X30650000Y-10750000D01*
X31566314Y-10750000D01*
X31540507Y-10790156D01*
X31500000Y-10928111D01*
X31500000Y-11071889D01*
X31540507Y-11209844D01*
X31566314Y-11250000D01*
X30650000Y-11250000D01*
X30650000Y-11897844D01*
X24600000Y-11897844D01*
X24600000Y-7700000D01*
X11400000Y-7700000D01*
X500500Y-7700000D01*
X500500Y-5000000D01*
X3644341Y-5000000D01*
X3664936Y-5235403D01*
X3664938Y-5235413D01*
X3726094Y-5463655D01*
X3726096Y-5463659D01*
X3726097Y-5463663D01*
X3776031Y-5570746D01*
X3825964Y-5677828D01*
X3825965Y-5677830D01*
X3961505Y-5871402D01*
X4128597Y-6038494D01*
X4322169Y-6174034D01*
X4322171Y-6174035D01*
X4536337Y-6273903D01*
X4764592Y-6335063D01*
X4941032Y-6350499D01*
X4941033Y-6350500D01*
X4941034Y-6350500D01*
X5058967Y-6350500D01*
X5058967Y-6350499D01*
X5235408Y-6335063D01*
X5463663Y-6273903D01*
X5677829Y-6174035D01*
X5871401Y-6038495D01*
X6038495Y-5871401D01*
X6174035Y-5677830D01*
X6273903Y-5463663D01*
X6335063Y-5235408D01*
X6355659Y-5000000D01*
X29644341Y-5000000D01*
X29664936Y-5235403D01*
X29664938Y-5235413D01*
X29726094Y-5463655D01*
X29726096Y-5463659D01*
X29726097Y-5463663D01*
X29776031Y-5570746D01*
X29825964Y-5677828D01*
X29825965Y-5677830D01*
X29961505Y-5871402D01*
X30128597Y-6038494D01*
X30322169Y-6174034D01*
X30322171Y-6174035D01*
X30536337Y-6273903D01*
X30764592Y-6335063D01*
X30941032Y-6350499D01*
X30941033Y-6350500D01*
X30941034Y-6350500D01*
X31058967Y-6350500D01*
X31058967Y-6350499D01*
X31235408Y-6335063D01*
X31463663Y-6273903D01*
X31677829Y-6174035D01*
X31871401Y-6038495D01*
X32038495Y-5871401D01*
X32174035Y-5677830D01*
X32273903Y-5463663D01*
X32335063Y-5235408D01*
X32355659Y-5000000D01*
X32335063Y-4764592D01*
X32273903Y-4536337D01*
X32174035Y-4322171D01*
X32174034Y-4322169D01*
X32038494Y-4128597D01*
X31871402Y-3961505D01*
X31677830Y-3825965D01*
X31677828Y-3825964D01*
X31570746Y-3776031D01*
X31463663Y-3726097D01*
X31463659Y-3726096D01*
X31463655Y-3726094D01*
X31235413Y-3664938D01*
X31235403Y-3664936D01*
X31058967Y-3649500D01*
X31058966Y-3649500D01*
X30941034Y-3649500D01*
X30941033Y-3649500D01*
X30764596Y-3664936D01*
X30764586Y-3664938D01*
X30536344Y-3726094D01*
X30536335Y-3726098D01*
X30322171Y-3825964D01*
X30322169Y-3825965D01*
X30128597Y-3961505D01*
X29961506Y-4128597D01*
X29961501Y-4128604D01*
X29825967Y-4322165D01*
X29825965Y-4322169D01*
X29726098Y-4536335D01*
X29726094Y-4536344D01*
X29664938Y-4764586D01*
X29664936Y-4764596D01*
X29644341Y-4999999D01*
X29644341Y-5000000D01*
X6355659Y-5000000D01*
X6335063Y-4764592D01*
X6273903Y-4536337D01*
X6174035Y-4322171D01*
X6174034Y-4322169D01*
X6038494Y-4128597D01*
X5871402Y-3961505D01*
X5677830Y-3825965D01*
X5677828Y-3825964D01*
X5570746Y-3776031D01*
X5463663Y-3726097D01*
X5463659Y-3726096D01*
X5463655Y-3726094D01*
X5235413Y-3664938D01*
X5235403Y-3664936D01*
X5058967Y-3649500D01*
X5058966Y-3649500D01*
X4941034Y-3649500D01*
X4941033Y-3649500D01*
X4764596Y-3664936D01*
X4764586Y-3664938D01*
X4536344Y-3726094D01*
X4536335Y-3726098D01*
X4322171Y-3825964D01*
X4322169Y-3825965D01*
X4128597Y-3961505D01*
X3961506Y-4128597D01*
X3961501Y-4128604D01*
X3825967Y-4322165D01*
X3825965Y-4322169D01*
X3726098Y-4536335D01*
X3726094Y-4536344D01*
X3664938Y-4764586D01*
X3664936Y-4764596D01*
X3644341Y-4999999D01*
X3644341Y-5000000D01*
X500500Y-5000000D01*
X500500Y-4003051D01*
X500649Y-3996967D01*
X516960Y-3664938D01*
X517052Y-3663068D01*
X518245Y-3650962D01*
X518462Y-3649500D01*
X566849Y-3323296D01*
X569218Y-3311385D01*
X649710Y-2990043D01*
X653240Y-2978411D01*
X764835Y-2666525D01*
X769476Y-2655318D01*
X911124Y-2355828D01*
X916840Y-2345136D01*
X1087145Y-2060998D01*
X1093888Y-2050905D01*
X1291232Y-1784818D01*
X1298935Y-1775433D01*
X1521405Y-1529975D01*
X1529975Y-1521405D01*
X1775433Y-1298935D01*
X1784818Y-1291232D01*
X2050905Y-1093888D01*
X2060998Y-1087145D01*
X2345136Y-916840D01*
X2355828Y-911124D01*
X2655318Y-769476D01*
X2666525Y-764835D01*
X2978412Y-653239D01*
X2990043Y-649710D01*
X3311385Y-569218D01*
X3323296Y-566849D01*
X3650962Y-518244D01*
X3663068Y-517052D01*
X3996967Y-500648D01*
X4003051Y-500500D01*
X4065892Y-500500D01*
X31934108Y-500500D01*
X31996949Y-500500D01*
X32003032Y-500648D01*
G37*
%TD.AperFunction*%
%TD*%
M02*
