%TF.GenerationSoftware,KiCad,Pcbnew,7.0.11+dfsg-1build4*%
%TF.CreationDate,2026-06-14T01:09:49+00:00*%
%TF.ProjectId,stratosdrone,73747261-746f-4736-9472-6f6e652e6b69,rev?*%
%TF.SameCoordinates,Original*%
%TF.FileFunction,Legend,Top*%
%TF.FilePolarity,Positive*%
%FSLAX46Y46*%
G04 Gerber Fmt 4.6, Leading zero omitted, Abs format (unit mm)*
G04 Created by KiCad (PCBNEW 7.0.11+dfsg-1build4) date 2026-06-14 01:09:49*
%MOMM*%
%LPD*%
G01*
G04 APERTURE LIST*
%ADD10C,0.150000*%
%ADD11C,0.210000*%
%ADD12C,0.140000*%
%ADD13C,0.120000*%
%ADD14C,0.100000*%
%ADD15C,0.300000*%
G04 APERTURE END LIST*
D10*
X2500000Y-2000000D02*
X29500000Y-2000000D01*
X29500000Y-2000000D02*
X29500000Y-9500000D01*
X29500000Y-9500000D02*
X2500000Y-9500000D01*
X2500000Y-9500000D02*
X2500000Y-2000000D01*
X3000000Y-10500000D02*
X29000000Y-10500000D01*
X29000000Y-10500000D02*
X29000000Y-20000000D01*
X29000000Y-20000000D02*
X3000000Y-20000000D01*
X3000000Y-20000000D02*
X3000000Y-10500000D01*
X2500000Y-21500000D02*
X29500000Y-21500000D01*
X29500000Y-21500000D02*
X29500000Y-40000000D01*
X29500000Y-40000000D02*
X2500000Y-40000000D01*
X2500000Y-40000000D02*
X2500000Y-21500000D01*
D11*
X4904823Y-1351080D02*
X5104823Y-1417746D01*
X5104823Y-1417746D02*
X5438157Y-1417746D01*
X5438157Y-1417746D02*
X5571490Y-1351080D01*
X5571490Y-1351080D02*
X5638157Y-1284413D01*
X5638157Y-1284413D02*
X5704823Y-1151080D01*
X5704823Y-1151080D02*
X5704823Y-1017746D01*
X5704823Y-1017746D02*
X5638157Y-884413D01*
X5638157Y-884413D02*
X5571490Y-817746D01*
X5571490Y-817746D02*
X5438157Y-751080D01*
X5438157Y-751080D02*
X5171490Y-684413D01*
X5171490Y-684413D02*
X5038157Y-617746D01*
X5038157Y-617746D02*
X4971490Y-551080D01*
X4971490Y-551080D02*
X4904823Y-417746D01*
X4904823Y-417746D02*
X4904823Y-284413D01*
X4904823Y-284413D02*
X4971490Y-151080D01*
X4971490Y-151080D02*
X5038157Y-84413D01*
X5038157Y-84413D02*
X5171490Y-17746D01*
X5171490Y-17746D02*
X5504823Y-17746D01*
X5504823Y-17746D02*
X5704823Y-84413D01*
X6104823Y-17746D02*
X6904823Y-17746D01*
X6504823Y-1417746D02*
X6504823Y-17746D01*
X8171490Y-1417746D02*
X7704823Y-751080D01*
X7371490Y-1417746D02*
X7371490Y-17746D01*
X7371490Y-17746D02*
X7904823Y-17746D01*
X7904823Y-17746D02*
X8038157Y-84413D01*
X8038157Y-84413D02*
X8104823Y-151080D01*
X8104823Y-151080D02*
X8171490Y-284413D01*
X8171490Y-284413D02*
X8171490Y-484413D01*
X8171490Y-484413D02*
X8104823Y-617746D01*
X8104823Y-617746D02*
X8038157Y-684413D01*
X8038157Y-684413D02*
X7904823Y-751080D01*
X7904823Y-751080D02*
X7371490Y-751080D01*
X8704823Y-1017746D02*
X9371490Y-1017746D01*
X8571490Y-1417746D02*
X9038157Y-17746D01*
X9038157Y-17746D02*
X9504823Y-1417746D01*
X9771490Y-17746D02*
X10571490Y-17746D01*
X10171490Y-1417746D02*
X10171490Y-17746D01*
X11304824Y-17746D02*
X11571490Y-17746D01*
X11571490Y-17746D02*
X11704824Y-84413D01*
X11704824Y-84413D02*
X11838157Y-217746D01*
X11838157Y-217746D02*
X11904824Y-484413D01*
X11904824Y-484413D02*
X11904824Y-951080D01*
X11904824Y-951080D02*
X11838157Y-1217746D01*
X11838157Y-1217746D02*
X11704824Y-1351080D01*
X11704824Y-1351080D02*
X11571490Y-1417746D01*
X11571490Y-1417746D02*
X11304824Y-1417746D01*
X11304824Y-1417746D02*
X11171490Y-1351080D01*
X11171490Y-1351080D02*
X11038157Y-1217746D01*
X11038157Y-1217746D02*
X10971490Y-951080D01*
X10971490Y-951080D02*
X10971490Y-484413D01*
X10971490Y-484413D02*
X11038157Y-217746D01*
X11038157Y-217746D02*
X11171490Y-84413D01*
X11171490Y-84413D02*
X11304824Y-17746D01*
X12438157Y-1351080D02*
X12638157Y-1417746D01*
X12638157Y-1417746D02*
X12971491Y-1417746D01*
X12971491Y-1417746D02*
X13104824Y-1351080D01*
X13104824Y-1351080D02*
X13171491Y-1284413D01*
X13171491Y-1284413D02*
X13238157Y-1151080D01*
X13238157Y-1151080D02*
X13238157Y-1017746D01*
X13238157Y-1017746D02*
X13171491Y-884413D01*
X13171491Y-884413D02*
X13104824Y-817746D01*
X13104824Y-817746D02*
X12971491Y-751080D01*
X12971491Y-751080D02*
X12704824Y-684413D01*
X12704824Y-684413D02*
X12571491Y-617746D01*
X12571491Y-617746D02*
X12504824Y-551080D01*
X12504824Y-551080D02*
X12438157Y-417746D01*
X12438157Y-417746D02*
X12438157Y-284413D01*
X12438157Y-284413D02*
X12504824Y-151080D01*
X12504824Y-151080D02*
X12571491Y-84413D01*
X12571491Y-84413D02*
X12704824Y-17746D01*
X12704824Y-17746D02*
X13038157Y-17746D01*
X13038157Y-17746D02*
X13238157Y-84413D01*
X13838157Y-1417746D02*
X13838157Y-17746D01*
X13838157Y-17746D02*
X14171490Y-17746D01*
X14171490Y-17746D02*
X14371490Y-84413D01*
X14371490Y-84413D02*
X14504824Y-217746D01*
X14504824Y-217746D02*
X14571490Y-351080D01*
X14571490Y-351080D02*
X14638157Y-617746D01*
X14638157Y-617746D02*
X14638157Y-817746D01*
X14638157Y-817746D02*
X14571490Y-1084413D01*
X14571490Y-1084413D02*
X14504824Y-1217746D01*
X14504824Y-1217746D02*
X14371490Y-1351080D01*
X14371490Y-1351080D02*
X14171490Y-1417746D01*
X14171490Y-1417746D02*
X13838157Y-1417746D01*
X16038157Y-1417746D02*
X15571490Y-751080D01*
X15238157Y-1417746D02*
X15238157Y-17746D01*
X15238157Y-17746D02*
X15771490Y-17746D01*
X15771490Y-17746D02*
X15904824Y-84413D01*
X15904824Y-84413D02*
X15971490Y-151080D01*
X15971490Y-151080D02*
X16038157Y-284413D01*
X16038157Y-284413D02*
X16038157Y-484413D01*
X16038157Y-484413D02*
X15971490Y-617746D01*
X15971490Y-617746D02*
X15904824Y-684413D01*
X15904824Y-684413D02*
X15771490Y-751080D01*
X15771490Y-751080D02*
X15238157Y-751080D01*
X16904824Y-17746D02*
X17171490Y-17746D01*
X17171490Y-17746D02*
X17304824Y-84413D01*
X17304824Y-84413D02*
X17438157Y-217746D01*
X17438157Y-217746D02*
X17504824Y-484413D01*
X17504824Y-484413D02*
X17504824Y-951080D01*
X17504824Y-951080D02*
X17438157Y-1217746D01*
X17438157Y-1217746D02*
X17304824Y-1351080D01*
X17304824Y-1351080D02*
X17171490Y-1417746D01*
X17171490Y-1417746D02*
X16904824Y-1417746D01*
X16904824Y-1417746D02*
X16771490Y-1351080D01*
X16771490Y-1351080D02*
X16638157Y-1217746D01*
X16638157Y-1217746D02*
X16571490Y-951080D01*
X16571490Y-951080D02*
X16571490Y-484413D01*
X16571490Y-484413D02*
X16638157Y-217746D01*
X16638157Y-217746D02*
X16771490Y-84413D01*
X16771490Y-84413D02*
X16904824Y-17746D01*
X18104824Y-1417746D02*
X18104824Y-17746D01*
X18104824Y-17746D02*
X18904824Y-1417746D01*
X18904824Y-1417746D02*
X18904824Y-17746D01*
X19571491Y-684413D02*
X20038158Y-684413D01*
X20238158Y-1417746D02*
X19571491Y-1417746D01*
X19571491Y-1417746D02*
X19571491Y-17746D01*
X19571491Y-17746D02*
X20238158Y-17746D01*
D10*
X13908207Y-8574580D02*
X13860588Y-8622200D01*
X13860588Y-8622200D02*
X13717731Y-8669819D01*
X13717731Y-8669819D02*
X13622493Y-8669819D01*
X13622493Y-8669819D02*
X13479636Y-8622200D01*
X13479636Y-8622200D02*
X13384398Y-8526961D01*
X13384398Y-8526961D02*
X13336779Y-8431723D01*
X13336779Y-8431723D02*
X13289160Y-8241247D01*
X13289160Y-8241247D02*
X13289160Y-8098390D01*
X13289160Y-8098390D02*
X13336779Y-7907914D01*
X13336779Y-7907914D02*
X13384398Y-7812676D01*
X13384398Y-7812676D02*
X13479636Y-7717438D01*
X13479636Y-7717438D02*
X13622493Y-7669819D01*
X13622493Y-7669819D02*
X13717731Y-7669819D01*
X13717731Y-7669819D02*
X13860588Y-7717438D01*
X13860588Y-7717438D02*
X13908207Y-7765057D01*
X14289160Y-8384104D02*
X14765350Y-8384104D01*
X14193922Y-8669819D02*
X14527255Y-7669819D01*
X14527255Y-7669819D02*
X14860588Y-8669819D01*
X15193922Y-8669819D02*
X15193922Y-7669819D01*
X15193922Y-7669819D02*
X15527255Y-8384104D01*
X15527255Y-8384104D02*
X15860588Y-7669819D01*
X15860588Y-7669819D02*
X15860588Y-8669819D01*
X14908207Y-19069819D02*
X14574874Y-18593628D01*
X14336779Y-19069819D02*
X14336779Y-18069819D01*
X14336779Y-18069819D02*
X14717731Y-18069819D01*
X14717731Y-18069819D02*
X14812969Y-18117438D01*
X14812969Y-18117438D02*
X14860588Y-18165057D01*
X14860588Y-18165057D02*
X14908207Y-18260295D01*
X14908207Y-18260295D02*
X14908207Y-18403152D01*
X14908207Y-18403152D02*
X14860588Y-18498390D01*
X14860588Y-18498390D02*
X14812969Y-18546009D01*
X14812969Y-18546009D02*
X14717731Y-18593628D01*
X14717731Y-18593628D02*
X14336779Y-18593628D01*
X15670112Y-18546009D02*
X15336779Y-18546009D01*
X15336779Y-19069819D02*
X15336779Y-18069819D01*
X15336779Y-18069819D02*
X15812969Y-18069819D01*
X14408207Y-38974580D02*
X14360588Y-39022200D01*
X14360588Y-39022200D02*
X14217731Y-39069819D01*
X14217731Y-39069819D02*
X14122493Y-39069819D01*
X14122493Y-39069819D02*
X13979636Y-39022200D01*
X13979636Y-39022200D02*
X13884398Y-38926961D01*
X13884398Y-38926961D02*
X13836779Y-38831723D01*
X13836779Y-38831723D02*
X13789160Y-38641247D01*
X13789160Y-38641247D02*
X13789160Y-38498390D01*
X13789160Y-38498390D02*
X13836779Y-38307914D01*
X13836779Y-38307914D02*
X13884398Y-38212676D01*
X13884398Y-38212676D02*
X13979636Y-38117438D01*
X13979636Y-38117438D02*
X14122493Y-38069819D01*
X14122493Y-38069819D02*
X14217731Y-38069819D01*
X14217731Y-38069819D02*
X14360588Y-38117438D01*
X14360588Y-38117438D02*
X14408207Y-38165057D01*
X14836779Y-39069819D02*
X14836779Y-38069819D01*
X14836779Y-38069819D02*
X15217731Y-38069819D01*
X15217731Y-38069819D02*
X15312969Y-38117438D01*
X15312969Y-38117438D02*
X15360588Y-38165057D01*
X15360588Y-38165057D02*
X15408207Y-38260295D01*
X15408207Y-38260295D02*
X15408207Y-38403152D01*
X15408207Y-38403152D02*
X15360588Y-38498390D01*
X15360588Y-38498390D02*
X15312969Y-38546009D01*
X15312969Y-38546009D02*
X15217731Y-38593628D01*
X15217731Y-38593628D02*
X14836779Y-38593628D01*
X15836779Y-38069819D02*
X15836779Y-38879342D01*
X15836779Y-38879342D02*
X15884398Y-38974580D01*
X15884398Y-38974580D02*
X15932017Y-39022200D01*
X15932017Y-39022200D02*
X16027255Y-39069819D01*
X16027255Y-39069819D02*
X16217731Y-39069819D01*
X16217731Y-39069819D02*
X16312969Y-39022200D01*
X16312969Y-39022200D02*
X16360588Y-38974580D01*
X16360588Y-38974580D02*
X16408207Y-38879342D01*
X16408207Y-38879342D02*
X16408207Y-38069819D01*
X11670112Y-3546009D02*
X11336779Y-3546009D01*
X11336779Y-4069819D02*
X11336779Y-3069819D01*
X11336779Y-3069819D02*
X11812969Y-3069819D01*
X12765350Y-4069819D02*
X12432017Y-3593628D01*
X12193922Y-4069819D02*
X12193922Y-3069819D01*
X12193922Y-3069819D02*
X12574874Y-3069819D01*
X12574874Y-3069819D02*
X12670112Y-3117438D01*
X12670112Y-3117438D02*
X12717731Y-3165057D01*
X12717731Y-3165057D02*
X12765350Y-3260295D01*
X12765350Y-3260295D02*
X12765350Y-3403152D01*
X12765350Y-3403152D02*
X12717731Y-3498390D01*
X12717731Y-3498390D02*
X12670112Y-3546009D01*
X12670112Y-3546009D02*
X12574874Y-3593628D01*
X12574874Y-3593628D02*
X12193922Y-3593628D01*
X13384398Y-3069819D02*
X13574874Y-3069819D01*
X13574874Y-3069819D02*
X13670112Y-3117438D01*
X13670112Y-3117438D02*
X13765350Y-3212676D01*
X13765350Y-3212676D02*
X13812969Y-3403152D01*
X13812969Y-3403152D02*
X13812969Y-3736485D01*
X13812969Y-3736485D02*
X13765350Y-3926961D01*
X13765350Y-3926961D02*
X13670112Y-4022200D01*
X13670112Y-4022200D02*
X13574874Y-4069819D01*
X13574874Y-4069819D02*
X13384398Y-4069819D01*
X13384398Y-4069819D02*
X13289160Y-4022200D01*
X13289160Y-4022200D02*
X13193922Y-3926961D01*
X13193922Y-3926961D02*
X13146303Y-3736485D01*
X13146303Y-3736485D02*
X13146303Y-3403152D01*
X13146303Y-3403152D02*
X13193922Y-3212676D01*
X13193922Y-3212676D02*
X13289160Y-3117438D01*
X13289160Y-3117438D02*
X13384398Y-3069819D01*
X14241541Y-4069819D02*
X14241541Y-3069819D01*
X14241541Y-3069819D02*
X14812969Y-4069819D01*
X14812969Y-4069819D02*
X14812969Y-3069819D01*
X15146303Y-3069819D02*
X15717731Y-3069819D01*
X15432017Y-4069819D02*
X15432017Y-3069819D01*
X16670113Y-3165057D02*
X16860589Y-3022200D01*
X16860589Y-3022200D02*
X17051065Y-3165057D01*
D12*
X25306390Y-2882577D02*
X25306390Y-1982577D01*
X25306390Y-1982577D02*
X25606390Y-2625434D01*
X25606390Y-2625434D02*
X25906390Y-1982577D01*
X25906390Y-1982577D02*
X25906390Y-2882577D01*
X26806390Y-2882577D02*
X26292104Y-2882577D01*
X26549247Y-2882577D02*
X26549247Y-1982577D01*
X26549247Y-1982577D02*
X26463533Y-2111148D01*
X26463533Y-2111148D02*
X26377818Y-2196862D01*
X26377818Y-2196862D02*
X26292104Y-2239720D01*
X25306390Y-63382577D02*
X25306390Y-62482577D01*
X25306390Y-62482577D02*
X25606390Y-63125434D01*
X25606390Y-63125434D02*
X25906390Y-62482577D01*
X25906390Y-62482577D02*
X25906390Y-63382577D01*
X26292104Y-62568291D02*
X26334961Y-62525434D01*
X26334961Y-62525434D02*
X26420676Y-62482577D01*
X26420676Y-62482577D02*
X26634961Y-62482577D01*
X26634961Y-62482577D02*
X26720676Y-62525434D01*
X26720676Y-62525434D02*
X26763533Y-62568291D01*
X26763533Y-62568291D02*
X26806390Y-62654005D01*
X26806390Y-62654005D02*
X26806390Y-62739720D01*
X26806390Y-62739720D02*
X26763533Y-62868291D01*
X26763533Y-62868291D02*
X26249247Y-63382577D01*
X26249247Y-63382577D02*
X26806390Y-63382577D01*
X1306390Y-63382577D02*
X1306390Y-62482577D01*
X1306390Y-62482577D02*
X1606390Y-63125434D01*
X1606390Y-63125434D02*
X1906390Y-62482577D01*
X1906390Y-62482577D02*
X1906390Y-63382577D01*
X2249247Y-62482577D02*
X2806390Y-62482577D01*
X2806390Y-62482577D02*
X2506390Y-62825434D01*
X2506390Y-62825434D02*
X2634961Y-62825434D01*
X2634961Y-62825434D02*
X2720676Y-62868291D01*
X2720676Y-62868291D02*
X2763533Y-62911148D01*
X2763533Y-62911148D02*
X2806390Y-62996862D01*
X2806390Y-62996862D02*
X2806390Y-63211148D01*
X2806390Y-63211148D02*
X2763533Y-63296862D01*
X2763533Y-63296862D02*
X2720676Y-63339720D01*
X2720676Y-63339720D02*
X2634961Y-63382577D01*
X2634961Y-63382577D02*
X2377818Y-63382577D01*
X2377818Y-63382577D02*
X2292104Y-63339720D01*
X2292104Y-63339720D02*
X2249247Y-63296862D01*
X1306390Y-2882577D02*
X1306390Y-1982577D01*
X1306390Y-1982577D02*
X1606390Y-2625434D01*
X1606390Y-2625434D02*
X1906390Y-1982577D01*
X1906390Y-1982577D02*
X1906390Y-2882577D01*
X2720676Y-2282577D02*
X2720676Y-2882577D01*
X2506390Y-1939720D02*
X2292104Y-2582577D01*
X2292104Y-2582577D02*
X2849247Y-2582577D01*
D10*
X1857142Y-52999580D02*
X1809523Y-53047200D01*
X1809523Y-53047200D02*
X1666666Y-53094819D01*
X1666666Y-53094819D02*
X1571428Y-53094819D01*
X1571428Y-53094819D02*
X1428571Y-53047200D01*
X1428571Y-53047200D02*
X1333333Y-52951961D01*
X1333333Y-52951961D02*
X1285714Y-52856723D01*
X1285714Y-52856723D02*
X1238095Y-52666247D01*
X1238095Y-52666247D02*
X1238095Y-52523390D01*
X1238095Y-52523390D02*
X1285714Y-52332914D01*
X1285714Y-52332914D02*
X1333333Y-52237676D01*
X1333333Y-52237676D02*
X1428571Y-52142438D01*
X1428571Y-52142438D02*
X1571428Y-52094819D01*
X1571428Y-52094819D02*
X1666666Y-52094819D01*
X1666666Y-52094819D02*
X1809523Y-52142438D01*
X1809523Y-52142438D02*
X1857142Y-52190057D01*
X2238095Y-52190057D02*
X2285714Y-52142438D01*
X2285714Y-52142438D02*
X2380952Y-52094819D01*
X2380952Y-52094819D02*
X2619047Y-52094819D01*
X2619047Y-52094819D02*
X2714285Y-52142438D01*
X2714285Y-52142438D02*
X2761904Y-52190057D01*
X2761904Y-52190057D02*
X2809523Y-52285295D01*
X2809523Y-52285295D02*
X2809523Y-52380533D01*
X2809523Y-52380533D02*
X2761904Y-52523390D01*
X2761904Y-52523390D02*
X2190476Y-53094819D01*
X2190476Y-53094819D02*
X2809523Y-53094819D01*
X3285714Y-53094819D02*
X3476190Y-53094819D01*
X3476190Y-53094819D02*
X3571428Y-53047200D01*
X3571428Y-53047200D02*
X3619047Y-52999580D01*
X3619047Y-52999580D02*
X3714285Y-52856723D01*
X3714285Y-52856723D02*
X3761904Y-52666247D01*
X3761904Y-52666247D02*
X3761904Y-52285295D01*
X3761904Y-52285295D02*
X3714285Y-52190057D01*
X3714285Y-52190057D02*
X3666666Y-52142438D01*
X3666666Y-52142438D02*
X3571428Y-52094819D01*
X3571428Y-52094819D02*
X3380952Y-52094819D01*
X3380952Y-52094819D02*
X3285714Y-52142438D01*
X3285714Y-52142438D02*
X3238095Y-52190057D01*
X3238095Y-52190057D02*
X3190476Y-52285295D01*
X3190476Y-52285295D02*
X3190476Y-52523390D01*
X3190476Y-52523390D02*
X3238095Y-52618628D01*
X3238095Y-52618628D02*
X3285714Y-52666247D01*
X3285714Y-52666247D02*
X3380952Y-52713866D01*
X3380952Y-52713866D02*
X3571428Y-52713866D01*
X3571428Y-52713866D02*
X3666666Y-52666247D01*
X3666666Y-52666247D02*
X3714285Y-52618628D01*
X3714285Y-52618628D02*
X3761904Y-52523390D01*
X26057141Y-50529580D02*
X26009522Y-50577200D01*
X26009522Y-50577200D02*
X25866665Y-50624819D01*
X25866665Y-50624819D02*
X25771427Y-50624819D01*
X25771427Y-50624819D02*
X25628570Y-50577200D01*
X25628570Y-50577200D02*
X25533332Y-50481961D01*
X25533332Y-50481961D02*
X25485713Y-50386723D01*
X25485713Y-50386723D02*
X25438094Y-50196247D01*
X25438094Y-50196247D02*
X25438094Y-50053390D01*
X25438094Y-50053390D02*
X25485713Y-49862914D01*
X25485713Y-49862914D02*
X25533332Y-49767676D01*
X25533332Y-49767676D02*
X25628570Y-49672438D01*
X25628570Y-49672438D02*
X25771427Y-49624819D01*
X25771427Y-49624819D02*
X25866665Y-49624819D01*
X25866665Y-49624819D02*
X26009522Y-49672438D01*
X26009522Y-49672438D02*
X26057141Y-49720057D01*
X26438094Y-49720057D02*
X26485713Y-49672438D01*
X26485713Y-49672438D02*
X26580951Y-49624819D01*
X26580951Y-49624819D02*
X26819046Y-49624819D01*
X26819046Y-49624819D02*
X26914284Y-49672438D01*
X26914284Y-49672438D02*
X26961903Y-49720057D01*
X26961903Y-49720057D02*
X27009522Y-49815295D01*
X27009522Y-49815295D02*
X27009522Y-49910533D01*
X27009522Y-49910533D02*
X26961903Y-50053390D01*
X26961903Y-50053390D02*
X26390475Y-50624819D01*
X26390475Y-50624819D02*
X27009522Y-50624819D01*
X27342856Y-49624819D02*
X28009522Y-49624819D01*
X28009522Y-49624819D02*
X27580951Y-50624819D01*
X10657142Y-50799580D02*
X10609523Y-50847200D01*
X10609523Y-50847200D02*
X10466666Y-50894819D01*
X10466666Y-50894819D02*
X10371428Y-50894819D01*
X10371428Y-50894819D02*
X10228571Y-50847200D01*
X10228571Y-50847200D02*
X10133333Y-50751961D01*
X10133333Y-50751961D02*
X10085714Y-50656723D01*
X10085714Y-50656723D02*
X10038095Y-50466247D01*
X10038095Y-50466247D02*
X10038095Y-50323390D01*
X10038095Y-50323390D02*
X10085714Y-50132914D01*
X10085714Y-50132914D02*
X10133333Y-50037676D01*
X10133333Y-50037676D02*
X10228571Y-49942438D01*
X10228571Y-49942438D02*
X10371428Y-49894819D01*
X10371428Y-49894819D02*
X10466666Y-49894819D01*
X10466666Y-49894819D02*
X10609523Y-49942438D01*
X10609523Y-49942438D02*
X10657142Y-49990057D01*
X11038095Y-49990057D02*
X11085714Y-49942438D01*
X11085714Y-49942438D02*
X11180952Y-49894819D01*
X11180952Y-49894819D02*
X11419047Y-49894819D01*
X11419047Y-49894819D02*
X11514285Y-49942438D01*
X11514285Y-49942438D02*
X11561904Y-49990057D01*
X11561904Y-49990057D02*
X11609523Y-50085295D01*
X11609523Y-50085295D02*
X11609523Y-50180533D01*
X11609523Y-50180533D02*
X11561904Y-50323390D01*
X11561904Y-50323390D02*
X10990476Y-50894819D01*
X10990476Y-50894819D02*
X11609523Y-50894819D01*
X12228571Y-49894819D02*
X12323809Y-49894819D01*
X12323809Y-49894819D02*
X12419047Y-49942438D01*
X12419047Y-49942438D02*
X12466666Y-49990057D01*
X12466666Y-49990057D02*
X12514285Y-50085295D01*
X12514285Y-50085295D02*
X12561904Y-50275771D01*
X12561904Y-50275771D02*
X12561904Y-50513866D01*
X12561904Y-50513866D02*
X12514285Y-50704342D01*
X12514285Y-50704342D02*
X12466666Y-50799580D01*
X12466666Y-50799580D02*
X12419047Y-50847200D01*
X12419047Y-50847200D02*
X12323809Y-50894819D01*
X12323809Y-50894819D02*
X12228571Y-50894819D01*
X12228571Y-50894819D02*
X12133333Y-50847200D01*
X12133333Y-50847200D02*
X12085714Y-50799580D01*
X12085714Y-50799580D02*
X12038095Y-50704342D01*
X12038095Y-50704342D02*
X11990476Y-50513866D01*
X11990476Y-50513866D02*
X11990476Y-50275771D01*
X11990476Y-50275771D02*
X12038095Y-50085295D01*
X12038095Y-50085295D02*
X12085714Y-49990057D01*
X12085714Y-49990057D02*
X12133333Y-49942438D01*
X12133333Y-49942438D02*
X12228571Y-49894819D01*
X17733333Y-46484819D02*
X17400000Y-46008628D01*
X17161905Y-46484819D02*
X17161905Y-45484819D01*
X17161905Y-45484819D02*
X17542857Y-45484819D01*
X17542857Y-45484819D02*
X17638095Y-45532438D01*
X17638095Y-45532438D02*
X17685714Y-45580057D01*
X17685714Y-45580057D02*
X17733333Y-45675295D01*
X17733333Y-45675295D02*
X17733333Y-45818152D01*
X17733333Y-45818152D02*
X17685714Y-45913390D01*
X17685714Y-45913390D02*
X17638095Y-45961009D01*
X17638095Y-45961009D02*
X17542857Y-46008628D01*
X17542857Y-46008628D02*
X17161905Y-46008628D01*
X18209524Y-46484819D02*
X18400000Y-46484819D01*
X18400000Y-46484819D02*
X18495238Y-46437200D01*
X18495238Y-46437200D02*
X18542857Y-46389580D01*
X18542857Y-46389580D02*
X18638095Y-46246723D01*
X18638095Y-46246723D02*
X18685714Y-46056247D01*
X18685714Y-46056247D02*
X18685714Y-45675295D01*
X18685714Y-45675295D02*
X18638095Y-45580057D01*
X18638095Y-45580057D02*
X18590476Y-45532438D01*
X18590476Y-45532438D02*
X18495238Y-45484819D01*
X18495238Y-45484819D02*
X18304762Y-45484819D01*
X18304762Y-45484819D02*
X18209524Y-45532438D01*
X18209524Y-45532438D02*
X18161905Y-45580057D01*
X18161905Y-45580057D02*
X18114286Y-45675295D01*
X18114286Y-45675295D02*
X18114286Y-45913390D01*
X18114286Y-45913390D02*
X18161905Y-46008628D01*
X18161905Y-46008628D02*
X18209524Y-46056247D01*
X18209524Y-46056247D02*
X18304762Y-46103866D01*
X18304762Y-46103866D02*
X18495238Y-46103866D01*
X18495238Y-46103866D02*
X18590476Y-46056247D01*
X18590476Y-46056247D02*
X18638095Y-46008628D01*
X18638095Y-46008628D02*
X18685714Y-45913390D01*
X21657141Y-48599580D02*
X21609522Y-48647200D01*
X21609522Y-48647200D02*
X21466665Y-48694819D01*
X21466665Y-48694819D02*
X21371427Y-48694819D01*
X21371427Y-48694819D02*
X21228570Y-48647200D01*
X21228570Y-48647200D02*
X21133332Y-48551961D01*
X21133332Y-48551961D02*
X21085713Y-48456723D01*
X21085713Y-48456723D02*
X21038094Y-48266247D01*
X21038094Y-48266247D02*
X21038094Y-48123390D01*
X21038094Y-48123390D02*
X21085713Y-47932914D01*
X21085713Y-47932914D02*
X21133332Y-47837676D01*
X21133332Y-47837676D02*
X21228570Y-47742438D01*
X21228570Y-47742438D02*
X21371427Y-47694819D01*
X21371427Y-47694819D02*
X21466665Y-47694819D01*
X21466665Y-47694819D02*
X21609522Y-47742438D01*
X21609522Y-47742438D02*
X21657141Y-47790057D01*
X22609522Y-48694819D02*
X22038094Y-48694819D01*
X22323808Y-48694819D02*
X22323808Y-47694819D01*
X22323808Y-47694819D02*
X22228570Y-47837676D01*
X22228570Y-47837676D02*
X22133332Y-47932914D01*
X22133332Y-47932914D02*
X22038094Y-47980533D01*
X22990475Y-47790057D02*
X23038094Y-47742438D01*
X23038094Y-47742438D02*
X23133332Y-47694819D01*
X23133332Y-47694819D02*
X23371427Y-47694819D01*
X23371427Y-47694819D02*
X23466665Y-47742438D01*
X23466665Y-47742438D02*
X23514284Y-47790057D01*
X23514284Y-47790057D02*
X23561903Y-47885295D01*
X23561903Y-47885295D02*
X23561903Y-47980533D01*
X23561903Y-47980533D02*
X23514284Y-48123390D01*
X23514284Y-48123390D02*
X22942856Y-48694819D01*
X22942856Y-48694819D02*
X23561903Y-48694819D01*
X17733333Y-43679580D02*
X17685714Y-43727200D01*
X17685714Y-43727200D02*
X17542857Y-43774819D01*
X17542857Y-43774819D02*
X17447619Y-43774819D01*
X17447619Y-43774819D02*
X17304762Y-43727200D01*
X17304762Y-43727200D02*
X17209524Y-43631961D01*
X17209524Y-43631961D02*
X17161905Y-43536723D01*
X17161905Y-43536723D02*
X17114286Y-43346247D01*
X17114286Y-43346247D02*
X17114286Y-43203390D01*
X17114286Y-43203390D02*
X17161905Y-43012914D01*
X17161905Y-43012914D02*
X17209524Y-42917676D01*
X17209524Y-42917676D02*
X17304762Y-42822438D01*
X17304762Y-42822438D02*
X17447619Y-42774819D01*
X17447619Y-42774819D02*
X17542857Y-42774819D01*
X17542857Y-42774819D02*
X17685714Y-42822438D01*
X17685714Y-42822438D02*
X17733333Y-42870057D01*
X18066667Y-42774819D02*
X18685714Y-42774819D01*
X18685714Y-42774819D02*
X18352381Y-43155771D01*
X18352381Y-43155771D02*
X18495238Y-43155771D01*
X18495238Y-43155771D02*
X18590476Y-43203390D01*
X18590476Y-43203390D02*
X18638095Y-43251009D01*
X18638095Y-43251009D02*
X18685714Y-43346247D01*
X18685714Y-43346247D02*
X18685714Y-43584342D01*
X18685714Y-43584342D02*
X18638095Y-43679580D01*
X18638095Y-43679580D02*
X18590476Y-43727200D01*
X18590476Y-43727200D02*
X18495238Y-43774819D01*
X18495238Y-43774819D02*
X18209524Y-43774819D01*
X18209524Y-43774819D02*
X18114286Y-43727200D01*
X18114286Y-43727200D02*
X18066667Y-43679580D01*
X24333332Y-44284819D02*
X23999999Y-43808628D01*
X23761904Y-44284819D02*
X23761904Y-43284819D01*
X23761904Y-43284819D02*
X24142856Y-43284819D01*
X24142856Y-43284819D02*
X24238094Y-43332438D01*
X24238094Y-43332438D02*
X24285713Y-43380057D01*
X24285713Y-43380057D02*
X24333332Y-43475295D01*
X24333332Y-43475295D02*
X24333332Y-43618152D01*
X24333332Y-43618152D02*
X24285713Y-43713390D01*
X24285713Y-43713390D02*
X24238094Y-43761009D01*
X24238094Y-43761009D02*
X24142856Y-43808628D01*
X24142856Y-43808628D02*
X23761904Y-43808628D01*
X25238094Y-43284819D02*
X24761904Y-43284819D01*
X24761904Y-43284819D02*
X24714285Y-43761009D01*
X24714285Y-43761009D02*
X24761904Y-43713390D01*
X24761904Y-43713390D02*
X24857142Y-43665771D01*
X24857142Y-43665771D02*
X25095237Y-43665771D01*
X25095237Y-43665771D02*
X25190475Y-43713390D01*
X25190475Y-43713390D02*
X25238094Y-43761009D01*
X25238094Y-43761009D02*
X25285713Y-43856247D01*
X25285713Y-43856247D02*
X25285713Y-44094342D01*
X25285713Y-44094342D02*
X25238094Y-44189580D01*
X25238094Y-44189580D02*
X25190475Y-44237200D01*
X25190475Y-44237200D02*
X25095237Y-44284819D01*
X25095237Y-44284819D02*
X24857142Y-44284819D01*
X24857142Y-44284819D02*
X24761904Y-44237200D01*
X24761904Y-44237200D02*
X24714285Y-44189580D01*
X1857142Y-50799580D02*
X1809523Y-50847200D01*
X1809523Y-50847200D02*
X1666666Y-50894819D01*
X1666666Y-50894819D02*
X1571428Y-50894819D01*
X1571428Y-50894819D02*
X1428571Y-50847200D01*
X1428571Y-50847200D02*
X1333333Y-50751961D01*
X1333333Y-50751961D02*
X1285714Y-50656723D01*
X1285714Y-50656723D02*
X1238095Y-50466247D01*
X1238095Y-50466247D02*
X1238095Y-50323390D01*
X1238095Y-50323390D02*
X1285714Y-50132914D01*
X1285714Y-50132914D02*
X1333333Y-50037676D01*
X1333333Y-50037676D02*
X1428571Y-49942438D01*
X1428571Y-49942438D02*
X1571428Y-49894819D01*
X1571428Y-49894819D02*
X1666666Y-49894819D01*
X1666666Y-49894819D02*
X1809523Y-49942438D01*
X1809523Y-49942438D02*
X1857142Y-49990057D01*
X2809523Y-50894819D02*
X2238095Y-50894819D01*
X2523809Y-50894819D02*
X2523809Y-49894819D01*
X2523809Y-49894819D02*
X2428571Y-50037676D01*
X2428571Y-50037676D02*
X2333333Y-50132914D01*
X2333333Y-50132914D02*
X2238095Y-50180533D01*
X3666666Y-49894819D02*
X3476190Y-49894819D01*
X3476190Y-49894819D02*
X3380952Y-49942438D01*
X3380952Y-49942438D02*
X3333333Y-49990057D01*
X3333333Y-49990057D02*
X3238095Y-50132914D01*
X3238095Y-50132914D02*
X3190476Y-50323390D01*
X3190476Y-50323390D02*
X3190476Y-50704342D01*
X3190476Y-50704342D02*
X3238095Y-50799580D01*
X3238095Y-50799580D02*
X3285714Y-50847200D01*
X3285714Y-50847200D02*
X3380952Y-50894819D01*
X3380952Y-50894819D02*
X3571428Y-50894819D01*
X3571428Y-50894819D02*
X3666666Y-50847200D01*
X3666666Y-50847200D02*
X3714285Y-50799580D01*
X3714285Y-50799580D02*
X3761904Y-50704342D01*
X3761904Y-50704342D02*
X3761904Y-50466247D01*
X3761904Y-50466247D02*
X3714285Y-50371009D01*
X3714285Y-50371009D02*
X3666666Y-50323390D01*
X3666666Y-50323390D02*
X3571428Y-50275771D01*
X3571428Y-50275771D02*
X3380952Y-50275771D01*
X3380952Y-50275771D02*
X3285714Y-50323390D01*
X3285714Y-50323390D02*
X3238095Y-50371009D01*
X3238095Y-50371009D02*
X3190476Y-50466247D01*
X12857142Y-55199580D02*
X12809523Y-55247200D01*
X12809523Y-55247200D02*
X12666666Y-55294819D01*
X12666666Y-55294819D02*
X12571428Y-55294819D01*
X12571428Y-55294819D02*
X12428571Y-55247200D01*
X12428571Y-55247200D02*
X12333333Y-55151961D01*
X12333333Y-55151961D02*
X12285714Y-55056723D01*
X12285714Y-55056723D02*
X12238095Y-54866247D01*
X12238095Y-54866247D02*
X12238095Y-54723390D01*
X12238095Y-54723390D02*
X12285714Y-54532914D01*
X12285714Y-54532914D02*
X12333333Y-54437676D01*
X12333333Y-54437676D02*
X12428571Y-54342438D01*
X12428571Y-54342438D02*
X12571428Y-54294819D01*
X12571428Y-54294819D02*
X12666666Y-54294819D01*
X12666666Y-54294819D02*
X12809523Y-54342438D01*
X12809523Y-54342438D02*
X12857142Y-54390057D01*
X13190476Y-54294819D02*
X13809523Y-54294819D01*
X13809523Y-54294819D02*
X13476190Y-54675771D01*
X13476190Y-54675771D02*
X13619047Y-54675771D01*
X13619047Y-54675771D02*
X13714285Y-54723390D01*
X13714285Y-54723390D02*
X13761904Y-54771009D01*
X13761904Y-54771009D02*
X13809523Y-54866247D01*
X13809523Y-54866247D02*
X13809523Y-55104342D01*
X13809523Y-55104342D02*
X13761904Y-55199580D01*
X13761904Y-55199580D02*
X13714285Y-55247200D01*
X13714285Y-55247200D02*
X13619047Y-55294819D01*
X13619047Y-55294819D02*
X13333333Y-55294819D01*
X13333333Y-55294819D02*
X13238095Y-55247200D01*
X13238095Y-55247200D02*
X13190476Y-55199580D01*
X14714285Y-54294819D02*
X14238095Y-54294819D01*
X14238095Y-54294819D02*
X14190476Y-54771009D01*
X14190476Y-54771009D02*
X14238095Y-54723390D01*
X14238095Y-54723390D02*
X14333333Y-54675771D01*
X14333333Y-54675771D02*
X14571428Y-54675771D01*
X14571428Y-54675771D02*
X14666666Y-54723390D01*
X14666666Y-54723390D02*
X14714285Y-54771009D01*
X14714285Y-54771009D02*
X14761904Y-54866247D01*
X14761904Y-54866247D02*
X14761904Y-55104342D01*
X14761904Y-55104342D02*
X14714285Y-55199580D01*
X14714285Y-55199580D02*
X14666666Y-55247200D01*
X14666666Y-55247200D02*
X14571428Y-55294819D01*
X14571428Y-55294819D02*
X14333333Y-55294819D01*
X14333333Y-55294819D02*
X14238095Y-55247200D01*
X14238095Y-55247200D02*
X14190476Y-55199580D01*
X19457141Y-48599580D02*
X19409522Y-48647200D01*
X19409522Y-48647200D02*
X19266665Y-48694819D01*
X19266665Y-48694819D02*
X19171427Y-48694819D01*
X19171427Y-48694819D02*
X19028570Y-48647200D01*
X19028570Y-48647200D02*
X18933332Y-48551961D01*
X18933332Y-48551961D02*
X18885713Y-48456723D01*
X18885713Y-48456723D02*
X18838094Y-48266247D01*
X18838094Y-48266247D02*
X18838094Y-48123390D01*
X18838094Y-48123390D02*
X18885713Y-47932914D01*
X18885713Y-47932914D02*
X18933332Y-47837676D01*
X18933332Y-47837676D02*
X19028570Y-47742438D01*
X19028570Y-47742438D02*
X19171427Y-47694819D01*
X19171427Y-47694819D02*
X19266665Y-47694819D01*
X19266665Y-47694819D02*
X19409522Y-47742438D01*
X19409522Y-47742438D02*
X19457141Y-47790057D01*
X20409522Y-48694819D02*
X19838094Y-48694819D01*
X20123808Y-48694819D02*
X20123808Y-47694819D01*
X20123808Y-47694819D02*
X20028570Y-47837676D01*
X20028570Y-47837676D02*
X19933332Y-47932914D01*
X19933332Y-47932914D02*
X19838094Y-47980533D01*
X21361903Y-48694819D02*
X20790475Y-48694819D01*
X21076189Y-48694819D02*
X21076189Y-47694819D01*
X21076189Y-47694819D02*
X20980951Y-47837676D01*
X20980951Y-47837676D02*
X20885713Y-47932914D01*
X20885713Y-47932914D02*
X20790475Y-47980533D01*
X9238095Y-20054819D02*
X9238095Y-20864342D01*
X9238095Y-20864342D02*
X9285714Y-20959580D01*
X9285714Y-20959580D02*
X9333333Y-21007200D01*
X9333333Y-21007200D02*
X9428571Y-21054819D01*
X9428571Y-21054819D02*
X9619047Y-21054819D01*
X9619047Y-21054819D02*
X9714285Y-21007200D01*
X9714285Y-21007200D02*
X9761904Y-20959580D01*
X9761904Y-20959580D02*
X9809523Y-20864342D01*
X9809523Y-20864342D02*
X9809523Y-20054819D01*
X10238095Y-20150057D02*
X10285714Y-20102438D01*
X10285714Y-20102438D02*
X10380952Y-20054819D01*
X10380952Y-20054819D02*
X10619047Y-20054819D01*
X10619047Y-20054819D02*
X10714285Y-20102438D01*
X10714285Y-20102438D02*
X10761904Y-20150057D01*
X10761904Y-20150057D02*
X10809523Y-20245295D01*
X10809523Y-20245295D02*
X10809523Y-20340533D01*
X10809523Y-20340533D02*
X10761904Y-20483390D01*
X10761904Y-20483390D02*
X10190476Y-21054819D01*
X10190476Y-21054819D02*
X10809523Y-21054819D01*
X23761904Y-51754819D02*
X23761904Y-50754819D01*
X23761904Y-50754819D02*
X23999999Y-50754819D01*
X23999999Y-50754819D02*
X24142856Y-50802438D01*
X24142856Y-50802438D02*
X24238094Y-50897676D01*
X24238094Y-50897676D02*
X24285713Y-50992914D01*
X24285713Y-50992914D02*
X24333332Y-51183390D01*
X24333332Y-51183390D02*
X24333332Y-51326247D01*
X24333332Y-51326247D02*
X24285713Y-51516723D01*
X24285713Y-51516723D02*
X24238094Y-51611961D01*
X24238094Y-51611961D02*
X24142856Y-51707200D01*
X24142856Y-51707200D02*
X23999999Y-51754819D01*
X23999999Y-51754819D02*
X23761904Y-51754819D01*
X25190475Y-51088152D02*
X25190475Y-51754819D01*
X24952380Y-50707200D02*
X24714285Y-51421485D01*
X24714285Y-51421485D02*
X25333332Y-51421485D01*
X8457142Y-48684819D02*
X8123809Y-48208628D01*
X7885714Y-48684819D02*
X7885714Y-47684819D01*
X7885714Y-47684819D02*
X8266666Y-47684819D01*
X8266666Y-47684819D02*
X8361904Y-47732438D01*
X8361904Y-47732438D02*
X8409523Y-47780057D01*
X8409523Y-47780057D02*
X8457142Y-47875295D01*
X8457142Y-47875295D02*
X8457142Y-48018152D01*
X8457142Y-48018152D02*
X8409523Y-48113390D01*
X8409523Y-48113390D02*
X8361904Y-48161009D01*
X8361904Y-48161009D02*
X8266666Y-48208628D01*
X8266666Y-48208628D02*
X7885714Y-48208628D01*
X9409523Y-48684819D02*
X8838095Y-48684819D01*
X9123809Y-48684819D02*
X9123809Y-47684819D01*
X9123809Y-47684819D02*
X9028571Y-47827676D01*
X9028571Y-47827676D02*
X8933333Y-47922914D01*
X8933333Y-47922914D02*
X8838095Y-47970533D01*
X9742857Y-47684819D02*
X10409523Y-47684819D01*
X10409523Y-47684819D02*
X9980952Y-48684819D01*
X12857142Y-53084819D02*
X12523809Y-52608628D01*
X12285714Y-53084819D02*
X12285714Y-52084819D01*
X12285714Y-52084819D02*
X12666666Y-52084819D01*
X12666666Y-52084819D02*
X12761904Y-52132438D01*
X12761904Y-52132438D02*
X12809523Y-52180057D01*
X12809523Y-52180057D02*
X12857142Y-52275295D01*
X12857142Y-52275295D02*
X12857142Y-52418152D01*
X12857142Y-52418152D02*
X12809523Y-52513390D01*
X12809523Y-52513390D02*
X12761904Y-52561009D01*
X12761904Y-52561009D02*
X12666666Y-52608628D01*
X12666666Y-52608628D02*
X12285714Y-52608628D01*
X13238095Y-52180057D02*
X13285714Y-52132438D01*
X13285714Y-52132438D02*
X13380952Y-52084819D01*
X13380952Y-52084819D02*
X13619047Y-52084819D01*
X13619047Y-52084819D02*
X13714285Y-52132438D01*
X13714285Y-52132438D02*
X13761904Y-52180057D01*
X13761904Y-52180057D02*
X13809523Y-52275295D01*
X13809523Y-52275295D02*
X13809523Y-52370533D01*
X13809523Y-52370533D02*
X13761904Y-52513390D01*
X13761904Y-52513390D02*
X13190476Y-53084819D01*
X13190476Y-53084819D02*
X13809523Y-53084819D01*
X14190476Y-52180057D02*
X14238095Y-52132438D01*
X14238095Y-52132438D02*
X14333333Y-52084819D01*
X14333333Y-52084819D02*
X14571428Y-52084819D01*
X14571428Y-52084819D02*
X14666666Y-52132438D01*
X14666666Y-52132438D02*
X14714285Y-52180057D01*
X14714285Y-52180057D02*
X14761904Y-52275295D01*
X14761904Y-52275295D02*
X14761904Y-52370533D01*
X14761904Y-52370533D02*
X14714285Y-52513390D01*
X14714285Y-52513390D02*
X14142857Y-53084819D01*
X14142857Y-53084819D02*
X14761904Y-53084819D01*
X8933333Y-44284819D02*
X8600000Y-43808628D01*
X8361905Y-44284819D02*
X8361905Y-43284819D01*
X8361905Y-43284819D02*
X8742857Y-43284819D01*
X8742857Y-43284819D02*
X8838095Y-43332438D01*
X8838095Y-43332438D02*
X8885714Y-43380057D01*
X8885714Y-43380057D02*
X8933333Y-43475295D01*
X8933333Y-43475295D02*
X8933333Y-43618152D01*
X8933333Y-43618152D02*
X8885714Y-43713390D01*
X8885714Y-43713390D02*
X8838095Y-43761009D01*
X8838095Y-43761009D02*
X8742857Y-43808628D01*
X8742857Y-43808628D02*
X8361905Y-43808628D01*
X9266667Y-43284819D02*
X9885714Y-43284819D01*
X9885714Y-43284819D02*
X9552381Y-43665771D01*
X9552381Y-43665771D02*
X9695238Y-43665771D01*
X9695238Y-43665771D02*
X9790476Y-43713390D01*
X9790476Y-43713390D02*
X9838095Y-43761009D01*
X9838095Y-43761009D02*
X9885714Y-43856247D01*
X9885714Y-43856247D02*
X9885714Y-44094342D01*
X9885714Y-44094342D02*
X9838095Y-44189580D01*
X9838095Y-44189580D02*
X9790476Y-44237200D01*
X9790476Y-44237200D02*
X9695238Y-44284819D01*
X9695238Y-44284819D02*
X9409524Y-44284819D01*
X9409524Y-44284819D02*
X9314286Y-44237200D01*
X9314286Y-44237200D02*
X9266667Y-44189580D01*
X13333333Y-46399580D02*
X13285714Y-46447200D01*
X13285714Y-46447200D02*
X13142857Y-46494819D01*
X13142857Y-46494819D02*
X13047619Y-46494819D01*
X13047619Y-46494819D02*
X12904762Y-46447200D01*
X12904762Y-46447200D02*
X12809524Y-46351961D01*
X12809524Y-46351961D02*
X12761905Y-46256723D01*
X12761905Y-46256723D02*
X12714286Y-46066247D01*
X12714286Y-46066247D02*
X12714286Y-45923390D01*
X12714286Y-45923390D02*
X12761905Y-45732914D01*
X12761905Y-45732914D02*
X12809524Y-45637676D01*
X12809524Y-45637676D02*
X12904762Y-45542438D01*
X12904762Y-45542438D02*
X13047619Y-45494819D01*
X13047619Y-45494819D02*
X13142857Y-45494819D01*
X13142857Y-45494819D02*
X13285714Y-45542438D01*
X13285714Y-45542438D02*
X13333333Y-45590057D01*
X13904762Y-45923390D02*
X13809524Y-45875771D01*
X13809524Y-45875771D02*
X13761905Y-45828152D01*
X13761905Y-45828152D02*
X13714286Y-45732914D01*
X13714286Y-45732914D02*
X13714286Y-45685295D01*
X13714286Y-45685295D02*
X13761905Y-45590057D01*
X13761905Y-45590057D02*
X13809524Y-45542438D01*
X13809524Y-45542438D02*
X13904762Y-45494819D01*
X13904762Y-45494819D02*
X14095238Y-45494819D01*
X14095238Y-45494819D02*
X14190476Y-45542438D01*
X14190476Y-45542438D02*
X14238095Y-45590057D01*
X14238095Y-45590057D02*
X14285714Y-45685295D01*
X14285714Y-45685295D02*
X14285714Y-45732914D01*
X14285714Y-45732914D02*
X14238095Y-45828152D01*
X14238095Y-45828152D02*
X14190476Y-45875771D01*
X14190476Y-45875771D02*
X14095238Y-45923390D01*
X14095238Y-45923390D02*
X13904762Y-45923390D01*
X13904762Y-45923390D02*
X13809524Y-45971009D01*
X13809524Y-45971009D02*
X13761905Y-46018628D01*
X13761905Y-46018628D02*
X13714286Y-46113866D01*
X13714286Y-46113866D02*
X13714286Y-46304342D01*
X13714286Y-46304342D02*
X13761905Y-46399580D01*
X13761905Y-46399580D02*
X13809524Y-46447200D01*
X13809524Y-46447200D02*
X13904762Y-46494819D01*
X13904762Y-46494819D02*
X14095238Y-46494819D01*
X14095238Y-46494819D02*
X14190476Y-46447200D01*
X14190476Y-46447200D02*
X14238095Y-46399580D01*
X14238095Y-46399580D02*
X14285714Y-46304342D01*
X14285714Y-46304342D02*
X14285714Y-46113866D01*
X14285714Y-46113866D02*
X14238095Y-46018628D01*
X14238095Y-46018628D02*
X14190476Y-45971009D01*
X14190476Y-45971009D02*
X14095238Y-45923390D01*
X27666666Y-2124819D02*
X27666666Y-2839104D01*
X27666666Y-2839104D02*
X27619047Y-2981961D01*
X27619047Y-2981961D02*
X27523809Y-3077200D01*
X27523809Y-3077200D02*
X27380952Y-3124819D01*
X27380952Y-3124819D02*
X27285714Y-3124819D01*
X28619047Y-2124819D02*
X28142857Y-2124819D01*
X28142857Y-2124819D02*
X28095238Y-2601009D01*
X28095238Y-2601009D02*
X28142857Y-2553390D01*
X28142857Y-2553390D02*
X28238095Y-2505771D01*
X28238095Y-2505771D02*
X28476190Y-2505771D01*
X28476190Y-2505771D02*
X28571428Y-2553390D01*
X28571428Y-2553390D02*
X28619047Y-2601009D01*
X28619047Y-2601009D02*
X28666666Y-2696247D01*
X28666666Y-2696247D02*
X28666666Y-2934342D01*
X28666666Y-2934342D02*
X28619047Y-3029580D01*
X28619047Y-3029580D02*
X28571428Y-3077200D01*
X28571428Y-3077200D02*
X28476190Y-3124819D01*
X28476190Y-3124819D02*
X28238095Y-3124819D01*
X28238095Y-3124819D02*
X28142857Y-3077200D01*
X28142857Y-3077200D02*
X28095238Y-3029580D01*
X23833333Y-50904819D02*
X23357143Y-50904819D01*
X23357143Y-50904819D02*
X23357143Y-49904819D01*
X24690476Y-50904819D02*
X24119048Y-50904819D01*
X24404762Y-50904819D02*
X24404762Y-49904819D01*
X24404762Y-49904819D02*
X24309524Y-50047676D01*
X24309524Y-50047676D02*
X24214286Y-50142914D01*
X24214286Y-50142914D02*
X24119048Y-50190533D01*
X4904761Y-54150057D02*
X4809523Y-54102438D01*
X4809523Y-54102438D02*
X4714285Y-54007200D01*
X4714285Y-54007200D02*
X4571428Y-53864342D01*
X4571428Y-53864342D02*
X4476190Y-53816723D01*
X4476190Y-53816723D02*
X4380952Y-53816723D01*
X4428571Y-54054819D02*
X4333333Y-54007200D01*
X4333333Y-54007200D02*
X4238095Y-53911961D01*
X4238095Y-53911961D02*
X4190476Y-53721485D01*
X4190476Y-53721485D02*
X4190476Y-53388152D01*
X4190476Y-53388152D02*
X4238095Y-53197676D01*
X4238095Y-53197676D02*
X4333333Y-53102438D01*
X4333333Y-53102438D02*
X4428571Y-53054819D01*
X4428571Y-53054819D02*
X4619047Y-53054819D01*
X4619047Y-53054819D02*
X4714285Y-53102438D01*
X4714285Y-53102438D02*
X4809523Y-53197676D01*
X4809523Y-53197676D02*
X4857142Y-53388152D01*
X4857142Y-53388152D02*
X4857142Y-53721485D01*
X4857142Y-53721485D02*
X4809523Y-53911961D01*
X4809523Y-53911961D02*
X4714285Y-54007200D01*
X4714285Y-54007200D02*
X4619047Y-54054819D01*
X4619047Y-54054819D02*
X4428571Y-54054819D01*
X5190476Y-53054819D02*
X5809523Y-53054819D01*
X5809523Y-53054819D02*
X5476190Y-53435771D01*
X5476190Y-53435771D02*
X5619047Y-53435771D01*
X5619047Y-53435771D02*
X5714285Y-53483390D01*
X5714285Y-53483390D02*
X5761904Y-53531009D01*
X5761904Y-53531009D02*
X5809523Y-53626247D01*
X5809523Y-53626247D02*
X5809523Y-53864342D01*
X5809523Y-53864342D02*
X5761904Y-53959580D01*
X5761904Y-53959580D02*
X5714285Y-54007200D01*
X5714285Y-54007200D02*
X5619047Y-54054819D01*
X5619047Y-54054819D02*
X5333333Y-54054819D01*
X5333333Y-54054819D02*
X5238095Y-54007200D01*
X5238095Y-54007200D02*
X5190476Y-53959580D01*
X21190476Y-57759819D02*
X21190476Y-58474104D01*
X21190476Y-58474104D02*
X21142857Y-58616961D01*
X21142857Y-58616961D02*
X21047619Y-58712200D01*
X21047619Y-58712200D02*
X20904762Y-58759819D01*
X20904762Y-58759819D02*
X20809524Y-58759819D01*
X22190476Y-58759819D02*
X21619048Y-58759819D01*
X21904762Y-58759819D02*
X21904762Y-57759819D01*
X21904762Y-57759819D02*
X21809524Y-57902676D01*
X21809524Y-57902676D02*
X21714286Y-57997914D01*
X21714286Y-57997914D02*
X21619048Y-58045533D01*
X23142857Y-58759819D02*
X22571429Y-58759819D01*
X22857143Y-58759819D02*
X22857143Y-57759819D01*
X22857143Y-57759819D02*
X22761905Y-57902676D01*
X22761905Y-57902676D02*
X22666667Y-57997914D01*
X22666667Y-57997914D02*
X22571429Y-58045533D01*
X6733333Y-46484819D02*
X6400000Y-46008628D01*
X6161905Y-46484819D02*
X6161905Y-45484819D01*
X6161905Y-45484819D02*
X6542857Y-45484819D01*
X6542857Y-45484819D02*
X6638095Y-45532438D01*
X6638095Y-45532438D02*
X6685714Y-45580057D01*
X6685714Y-45580057D02*
X6733333Y-45675295D01*
X6733333Y-45675295D02*
X6733333Y-45818152D01*
X6733333Y-45818152D02*
X6685714Y-45913390D01*
X6685714Y-45913390D02*
X6638095Y-45961009D01*
X6638095Y-45961009D02*
X6542857Y-46008628D01*
X6542857Y-46008628D02*
X6161905Y-46008628D01*
X7304762Y-45913390D02*
X7209524Y-45865771D01*
X7209524Y-45865771D02*
X7161905Y-45818152D01*
X7161905Y-45818152D02*
X7114286Y-45722914D01*
X7114286Y-45722914D02*
X7114286Y-45675295D01*
X7114286Y-45675295D02*
X7161905Y-45580057D01*
X7161905Y-45580057D02*
X7209524Y-45532438D01*
X7209524Y-45532438D02*
X7304762Y-45484819D01*
X7304762Y-45484819D02*
X7495238Y-45484819D01*
X7495238Y-45484819D02*
X7590476Y-45532438D01*
X7590476Y-45532438D02*
X7638095Y-45580057D01*
X7638095Y-45580057D02*
X7685714Y-45675295D01*
X7685714Y-45675295D02*
X7685714Y-45722914D01*
X7685714Y-45722914D02*
X7638095Y-45818152D01*
X7638095Y-45818152D02*
X7590476Y-45865771D01*
X7590476Y-45865771D02*
X7495238Y-45913390D01*
X7495238Y-45913390D02*
X7304762Y-45913390D01*
X7304762Y-45913390D02*
X7209524Y-45961009D01*
X7209524Y-45961009D02*
X7161905Y-46008628D01*
X7161905Y-46008628D02*
X7114286Y-46103866D01*
X7114286Y-46103866D02*
X7114286Y-46294342D01*
X7114286Y-46294342D02*
X7161905Y-46389580D01*
X7161905Y-46389580D02*
X7209524Y-46437200D01*
X7209524Y-46437200D02*
X7304762Y-46484819D01*
X7304762Y-46484819D02*
X7495238Y-46484819D01*
X7495238Y-46484819D02*
X7590476Y-46437200D01*
X7590476Y-46437200D02*
X7638095Y-46389580D01*
X7638095Y-46389580D02*
X7685714Y-46294342D01*
X7685714Y-46294342D02*
X7685714Y-46103866D01*
X7685714Y-46103866D02*
X7638095Y-46008628D01*
X7638095Y-46008628D02*
X7590476Y-45961009D01*
X7590476Y-45961009D02*
X7495238Y-45913390D01*
X8457142Y-50799580D02*
X8409523Y-50847200D01*
X8409523Y-50847200D02*
X8266666Y-50894819D01*
X8266666Y-50894819D02*
X8171428Y-50894819D01*
X8171428Y-50894819D02*
X8028571Y-50847200D01*
X8028571Y-50847200D02*
X7933333Y-50751961D01*
X7933333Y-50751961D02*
X7885714Y-50656723D01*
X7885714Y-50656723D02*
X7838095Y-50466247D01*
X7838095Y-50466247D02*
X7838095Y-50323390D01*
X7838095Y-50323390D02*
X7885714Y-50132914D01*
X7885714Y-50132914D02*
X7933333Y-50037676D01*
X7933333Y-50037676D02*
X8028571Y-49942438D01*
X8028571Y-49942438D02*
X8171428Y-49894819D01*
X8171428Y-49894819D02*
X8266666Y-49894819D01*
X8266666Y-49894819D02*
X8409523Y-49942438D01*
X8409523Y-49942438D02*
X8457142Y-49990057D01*
X9409523Y-50894819D02*
X8838095Y-50894819D01*
X9123809Y-50894819D02*
X9123809Y-49894819D01*
X9123809Y-49894819D02*
X9028571Y-50037676D01*
X9028571Y-50037676D02*
X8933333Y-50132914D01*
X8933333Y-50132914D02*
X8838095Y-50180533D01*
X9885714Y-50894819D02*
X10076190Y-50894819D01*
X10076190Y-50894819D02*
X10171428Y-50847200D01*
X10171428Y-50847200D02*
X10219047Y-50799580D01*
X10219047Y-50799580D02*
X10314285Y-50656723D01*
X10314285Y-50656723D02*
X10361904Y-50466247D01*
X10361904Y-50466247D02*
X10361904Y-50085295D01*
X10361904Y-50085295D02*
X10314285Y-49990057D01*
X10314285Y-49990057D02*
X10266666Y-49942438D01*
X10266666Y-49942438D02*
X10171428Y-49894819D01*
X10171428Y-49894819D02*
X9980952Y-49894819D01*
X9980952Y-49894819D02*
X9885714Y-49942438D01*
X9885714Y-49942438D02*
X9838095Y-49990057D01*
X9838095Y-49990057D02*
X9790476Y-50085295D01*
X9790476Y-50085295D02*
X9790476Y-50323390D01*
X9790476Y-50323390D02*
X9838095Y-50418628D01*
X9838095Y-50418628D02*
X9885714Y-50466247D01*
X9885714Y-50466247D02*
X9980952Y-50513866D01*
X9980952Y-50513866D02*
X10171428Y-50513866D01*
X10171428Y-50513866D02*
X10266666Y-50466247D01*
X10266666Y-50466247D02*
X10314285Y-50418628D01*
X10314285Y-50418628D02*
X10361904Y-50323390D01*
X11133333Y-46399580D02*
X11085714Y-46447200D01*
X11085714Y-46447200D02*
X10942857Y-46494819D01*
X10942857Y-46494819D02*
X10847619Y-46494819D01*
X10847619Y-46494819D02*
X10704762Y-46447200D01*
X10704762Y-46447200D02*
X10609524Y-46351961D01*
X10609524Y-46351961D02*
X10561905Y-46256723D01*
X10561905Y-46256723D02*
X10514286Y-46066247D01*
X10514286Y-46066247D02*
X10514286Y-45923390D01*
X10514286Y-45923390D02*
X10561905Y-45732914D01*
X10561905Y-45732914D02*
X10609524Y-45637676D01*
X10609524Y-45637676D02*
X10704762Y-45542438D01*
X10704762Y-45542438D02*
X10847619Y-45494819D01*
X10847619Y-45494819D02*
X10942857Y-45494819D01*
X10942857Y-45494819D02*
X11085714Y-45542438D01*
X11085714Y-45542438D02*
X11133333Y-45590057D01*
X11466667Y-45494819D02*
X12133333Y-45494819D01*
X12133333Y-45494819D02*
X11704762Y-46494819D01*
X15238095Y-3954819D02*
X15238095Y-4764342D01*
X15238095Y-4764342D02*
X15285714Y-4859580D01*
X15285714Y-4859580D02*
X15333333Y-4907200D01*
X15333333Y-4907200D02*
X15428571Y-4954819D01*
X15428571Y-4954819D02*
X15619047Y-4954819D01*
X15619047Y-4954819D02*
X15714285Y-4907200D01*
X15714285Y-4907200D02*
X15761904Y-4859580D01*
X15761904Y-4859580D02*
X15809523Y-4764342D01*
X15809523Y-4764342D02*
X15809523Y-3954819D01*
X16190476Y-3954819D02*
X16809523Y-3954819D01*
X16809523Y-3954819D02*
X16476190Y-4335771D01*
X16476190Y-4335771D02*
X16619047Y-4335771D01*
X16619047Y-4335771D02*
X16714285Y-4383390D01*
X16714285Y-4383390D02*
X16761904Y-4431009D01*
X16761904Y-4431009D02*
X16809523Y-4526247D01*
X16809523Y-4526247D02*
X16809523Y-4764342D01*
X16809523Y-4764342D02*
X16761904Y-4859580D01*
X16761904Y-4859580D02*
X16714285Y-4907200D01*
X16714285Y-4907200D02*
X16619047Y-4954819D01*
X16619047Y-4954819D02*
X16333333Y-4954819D01*
X16333333Y-4954819D02*
X16238095Y-4907200D01*
X16238095Y-4907200D02*
X16190476Y-4859580D01*
X11238094Y-8319104D02*
X11714284Y-8319104D01*
X11142856Y-8604819D02*
X11476189Y-7604819D01*
X11476189Y-7604819D02*
X11809522Y-8604819D01*
X12142856Y-7938152D02*
X12142856Y-8604819D01*
X12142856Y-8033390D02*
X12190475Y-7985771D01*
X12190475Y-7985771D02*
X12285713Y-7938152D01*
X12285713Y-7938152D02*
X12428570Y-7938152D01*
X12428570Y-7938152D02*
X12523808Y-7985771D01*
X12523808Y-7985771D02*
X12571427Y-8081009D01*
X12571427Y-8081009D02*
X12571427Y-8604819D01*
X12904761Y-7938152D02*
X13285713Y-7938152D01*
X13047618Y-7604819D02*
X13047618Y-8461961D01*
X13047618Y-8461961D02*
X13095237Y-8557200D01*
X13095237Y-8557200D02*
X13190475Y-8604819D01*
X13190475Y-8604819D02*
X13285713Y-8604819D01*
X13999999Y-8557200D02*
X13904761Y-8604819D01*
X13904761Y-8604819D02*
X13714285Y-8604819D01*
X13714285Y-8604819D02*
X13619047Y-8557200D01*
X13619047Y-8557200D02*
X13571428Y-8461961D01*
X13571428Y-8461961D02*
X13571428Y-8081009D01*
X13571428Y-8081009D02*
X13619047Y-7985771D01*
X13619047Y-7985771D02*
X13714285Y-7938152D01*
X13714285Y-7938152D02*
X13904761Y-7938152D01*
X13904761Y-7938152D02*
X13999999Y-7985771D01*
X13999999Y-7985771D02*
X14047618Y-8081009D01*
X14047618Y-8081009D02*
X14047618Y-8176247D01*
X14047618Y-8176247D02*
X13571428Y-8271485D01*
X14476190Y-7938152D02*
X14476190Y-8604819D01*
X14476190Y-8033390D02*
X14523809Y-7985771D01*
X14523809Y-7985771D02*
X14619047Y-7938152D01*
X14619047Y-7938152D02*
X14761904Y-7938152D01*
X14761904Y-7938152D02*
X14857142Y-7985771D01*
X14857142Y-7985771D02*
X14904761Y-8081009D01*
X14904761Y-8081009D02*
X14904761Y-8604819D01*
X15380952Y-7938152D02*
X15380952Y-8604819D01*
X15380952Y-8033390D02*
X15428571Y-7985771D01*
X15428571Y-7985771D02*
X15523809Y-7938152D01*
X15523809Y-7938152D02*
X15666666Y-7938152D01*
X15666666Y-7938152D02*
X15761904Y-7985771D01*
X15761904Y-7985771D02*
X15809523Y-8081009D01*
X15809523Y-8081009D02*
X15809523Y-8604819D01*
X16714285Y-8604819D02*
X16714285Y-8081009D01*
X16714285Y-8081009D02*
X16666666Y-7985771D01*
X16666666Y-7985771D02*
X16571428Y-7938152D01*
X16571428Y-7938152D02*
X16380952Y-7938152D01*
X16380952Y-7938152D02*
X16285714Y-7985771D01*
X16714285Y-8557200D02*
X16619047Y-8604819D01*
X16619047Y-8604819D02*
X16380952Y-8604819D01*
X16380952Y-8604819D02*
X16285714Y-8557200D01*
X16285714Y-8557200D02*
X16238095Y-8461961D01*
X16238095Y-8461961D02*
X16238095Y-8366723D01*
X16238095Y-8366723D02*
X16285714Y-8271485D01*
X16285714Y-8271485D02*
X16380952Y-8223866D01*
X16380952Y-8223866D02*
X16619047Y-8223866D01*
X16619047Y-8223866D02*
X16714285Y-8176247D01*
X17904762Y-8319104D02*
X18380952Y-8319104D01*
X17809524Y-8604819D02*
X18142857Y-7604819D01*
X18142857Y-7604819D02*
X18476190Y-8604819D01*
X18809524Y-8604819D02*
X18809524Y-7938152D01*
X18809524Y-8128628D02*
X18857143Y-8033390D01*
X18857143Y-8033390D02*
X18904762Y-7985771D01*
X18904762Y-7985771D02*
X19000000Y-7938152D01*
X19000000Y-7938152D02*
X19095238Y-7938152D01*
X19809524Y-8557200D02*
X19714286Y-8604819D01*
X19714286Y-8604819D02*
X19523810Y-8604819D01*
X19523810Y-8604819D02*
X19428572Y-8557200D01*
X19428572Y-8557200D02*
X19380953Y-8461961D01*
X19380953Y-8461961D02*
X19380953Y-8081009D01*
X19380953Y-8081009D02*
X19428572Y-7985771D01*
X19428572Y-7985771D02*
X19523810Y-7938152D01*
X19523810Y-7938152D02*
X19714286Y-7938152D01*
X19714286Y-7938152D02*
X19809524Y-7985771D01*
X19809524Y-7985771D02*
X19857143Y-8081009D01*
X19857143Y-8081009D02*
X19857143Y-8176247D01*
X19857143Y-8176247D02*
X19380953Y-8271485D01*
X20714286Y-8604819D02*
X20714286Y-8081009D01*
X20714286Y-8081009D02*
X20666667Y-7985771D01*
X20666667Y-7985771D02*
X20571429Y-7938152D01*
X20571429Y-7938152D02*
X20380953Y-7938152D01*
X20380953Y-7938152D02*
X20285715Y-7985771D01*
X20714286Y-8557200D02*
X20619048Y-8604819D01*
X20619048Y-8604819D02*
X20380953Y-8604819D01*
X20380953Y-8604819D02*
X20285715Y-8557200D01*
X20285715Y-8557200D02*
X20238096Y-8461961D01*
X20238096Y-8461961D02*
X20238096Y-8366723D01*
X20238096Y-8366723D02*
X20285715Y-8271485D01*
X20285715Y-8271485D02*
X20380953Y-8223866D01*
X20380953Y-8223866D02*
X20619048Y-8223866D01*
X20619048Y-8223866D02*
X20714286Y-8176247D01*
X9190476Y-57759819D02*
X9190476Y-58474104D01*
X9190476Y-58474104D02*
X9142857Y-58616961D01*
X9142857Y-58616961D02*
X9047619Y-58712200D01*
X9047619Y-58712200D02*
X8904762Y-58759819D01*
X8904762Y-58759819D02*
X8809524Y-58759819D01*
X10190476Y-58759819D02*
X9619048Y-58759819D01*
X9904762Y-58759819D02*
X9904762Y-57759819D01*
X9904762Y-57759819D02*
X9809524Y-57902676D01*
X9809524Y-57902676D02*
X9714286Y-57997914D01*
X9714286Y-57997914D02*
X9619048Y-58045533D01*
X10809524Y-57759819D02*
X10904762Y-57759819D01*
X10904762Y-57759819D02*
X11000000Y-57807438D01*
X11000000Y-57807438D02*
X11047619Y-57855057D01*
X11047619Y-57855057D02*
X11095238Y-57950295D01*
X11095238Y-57950295D02*
X11142857Y-58140771D01*
X11142857Y-58140771D02*
X11142857Y-58378866D01*
X11142857Y-58378866D02*
X11095238Y-58569342D01*
X11095238Y-58569342D02*
X11047619Y-58664580D01*
X11047619Y-58664580D02*
X11000000Y-58712200D01*
X11000000Y-58712200D02*
X10904762Y-58759819D01*
X10904762Y-58759819D02*
X10809524Y-58759819D01*
X10809524Y-58759819D02*
X10714286Y-58712200D01*
X10714286Y-58712200D02*
X10666667Y-58664580D01*
X10666667Y-58664580D02*
X10619048Y-58569342D01*
X10619048Y-58569342D02*
X10571429Y-58378866D01*
X10571429Y-58378866D02*
X10571429Y-58140771D01*
X10571429Y-58140771D02*
X10619048Y-57950295D01*
X10619048Y-57950295D02*
X10666667Y-57855057D01*
X10666667Y-57855057D02*
X10714286Y-57807438D01*
X10714286Y-57807438D02*
X10809524Y-57759819D01*
X6257142Y-48684819D02*
X5923809Y-48208628D01*
X5685714Y-48684819D02*
X5685714Y-47684819D01*
X5685714Y-47684819D02*
X6066666Y-47684819D01*
X6066666Y-47684819D02*
X6161904Y-47732438D01*
X6161904Y-47732438D02*
X6209523Y-47780057D01*
X6209523Y-47780057D02*
X6257142Y-47875295D01*
X6257142Y-47875295D02*
X6257142Y-48018152D01*
X6257142Y-48018152D02*
X6209523Y-48113390D01*
X6209523Y-48113390D02*
X6161904Y-48161009D01*
X6161904Y-48161009D02*
X6066666Y-48208628D01*
X6066666Y-48208628D02*
X5685714Y-48208628D01*
X7209523Y-48684819D02*
X6638095Y-48684819D01*
X6923809Y-48684819D02*
X6923809Y-47684819D01*
X6923809Y-47684819D02*
X6828571Y-47827676D01*
X6828571Y-47827676D02*
X6733333Y-47922914D01*
X6733333Y-47922914D02*
X6638095Y-47970533D01*
X8066666Y-47684819D02*
X7876190Y-47684819D01*
X7876190Y-47684819D02*
X7780952Y-47732438D01*
X7780952Y-47732438D02*
X7733333Y-47780057D01*
X7733333Y-47780057D02*
X7638095Y-47922914D01*
X7638095Y-47922914D02*
X7590476Y-48113390D01*
X7590476Y-48113390D02*
X7590476Y-48494342D01*
X7590476Y-48494342D02*
X7638095Y-48589580D01*
X7638095Y-48589580D02*
X7685714Y-48637200D01*
X7685714Y-48637200D02*
X7780952Y-48684819D01*
X7780952Y-48684819D02*
X7971428Y-48684819D01*
X7971428Y-48684819D02*
X8066666Y-48637200D01*
X8066666Y-48637200D02*
X8114285Y-48589580D01*
X8114285Y-48589580D02*
X8161904Y-48494342D01*
X8161904Y-48494342D02*
X8161904Y-48256247D01*
X8161904Y-48256247D02*
X8114285Y-48161009D01*
X8114285Y-48161009D02*
X8066666Y-48113390D01*
X8066666Y-48113390D02*
X7971428Y-48065771D01*
X7971428Y-48065771D02*
X7780952Y-48065771D01*
X7780952Y-48065771D02*
X7685714Y-48113390D01*
X7685714Y-48113390D02*
X7638095Y-48161009D01*
X7638095Y-48161009D02*
X7590476Y-48256247D01*
X26904761Y-54150057D02*
X26809523Y-54102438D01*
X26809523Y-54102438D02*
X26714285Y-54007200D01*
X26714285Y-54007200D02*
X26571428Y-53864342D01*
X26571428Y-53864342D02*
X26476190Y-53816723D01*
X26476190Y-53816723D02*
X26380952Y-53816723D01*
X26428571Y-54054819D02*
X26333333Y-54007200D01*
X26333333Y-54007200D02*
X26238095Y-53911961D01*
X26238095Y-53911961D02*
X26190476Y-53721485D01*
X26190476Y-53721485D02*
X26190476Y-53388152D01*
X26190476Y-53388152D02*
X26238095Y-53197676D01*
X26238095Y-53197676D02*
X26333333Y-53102438D01*
X26333333Y-53102438D02*
X26428571Y-53054819D01*
X26428571Y-53054819D02*
X26619047Y-53054819D01*
X26619047Y-53054819D02*
X26714285Y-53102438D01*
X26714285Y-53102438D02*
X26809523Y-53197676D01*
X26809523Y-53197676D02*
X26857142Y-53388152D01*
X26857142Y-53388152D02*
X26857142Y-53721485D01*
X26857142Y-53721485D02*
X26809523Y-53911961D01*
X26809523Y-53911961D02*
X26714285Y-54007200D01*
X26714285Y-54007200D02*
X26619047Y-54054819D01*
X26619047Y-54054819D02*
X26428571Y-54054819D01*
X27238095Y-53150057D02*
X27285714Y-53102438D01*
X27285714Y-53102438D02*
X27380952Y-53054819D01*
X27380952Y-53054819D02*
X27619047Y-53054819D01*
X27619047Y-53054819D02*
X27714285Y-53102438D01*
X27714285Y-53102438D02*
X27761904Y-53150057D01*
X27761904Y-53150057D02*
X27809523Y-53245295D01*
X27809523Y-53245295D02*
X27809523Y-53340533D01*
X27809523Y-53340533D02*
X27761904Y-53483390D01*
X27761904Y-53483390D02*
X27190476Y-54054819D01*
X27190476Y-54054819D02*
X27809523Y-54054819D01*
X4904761Y-8150057D02*
X4809523Y-8102438D01*
X4809523Y-8102438D02*
X4714285Y-8007200D01*
X4714285Y-8007200D02*
X4571428Y-7864342D01*
X4571428Y-7864342D02*
X4476190Y-7816723D01*
X4476190Y-7816723D02*
X4380952Y-7816723D01*
X4428571Y-8054819D02*
X4333333Y-8007200D01*
X4333333Y-8007200D02*
X4238095Y-7911961D01*
X4238095Y-7911961D02*
X4190476Y-7721485D01*
X4190476Y-7721485D02*
X4190476Y-7388152D01*
X4190476Y-7388152D02*
X4238095Y-7197676D01*
X4238095Y-7197676D02*
X4333333Y-7102438D01*
X4333333Y-7102438D02*
X4428571Y-7054819D01*
X4428571Y-7054819D02*
X4619047Y-7054819D01*
X4619047Y-7054819D02*
X4714285Y-7102438D01*
X4714285Y-7102438D02*
X4809523Y-7197676D01*
X4809523Y-7197676D02*
X4857142Y-7388152D01*
X4857142Y-7388152D02*
X4857142Y-7721485D01*
X4857142Y-7721485D02*
X4809523Y-7911961D01*
X4809523Y-7911961D02*
X4714285Y-8007200D01*
X4714285Y-8007200D02*
X4619047Y-8054819D01*
X4619047Y-8054819D02*
X4428571Y-8054819D01*
X5714285Y-7388152D02*
X5714285Y-8054819D01*
X5476190Y-7007200D02*
X5238095Y-7721485D01*
X5238095Y-7721485D02*
X5857142Y-7721485D01*
X15057142Y-53084819D02*
X14723809Y-52608628D01*
X14485714Y-53084819D02*
X14485714Y-52084819D01*
X14485714Y-52084819D02*
X14866666Y-52084819D01*
X14866666Y-52084819D02*
X14961904Y-52132438D01*
X14961904Y-52132438D02*
X15009523Y-52180057D01*
X15009523Y-52180057D02*
X15057142Y-52275295D01*
X15057142Y-52275295D02*
X15057142Y-52418152D01*
X15057142Y-52418152D02*
X15009523Y-52513390D01*
X15009523Y-52513390D02*
X14961904Y-52561009D01*
X14961904Y-52561009D02*
X14866666Y-52608628D01*
X14866666Y-52608628D02*
X14485714Y-52608628D01*
X15438095Y-52180057D02*
X15485714Y-52132438D01*
X15485714Y-52132438D02*
X15580952Y-52084819D01*
X15580952Y-52084819D02*
X15819047Y-52084819D01*
X15819047Y-52084819D02*
X15914285Y-52132438D01*
X15914285Y-52132438D02*
X15961904Y-52180057D01*
X15961904Y-52180057D02*
X16009523Y-52275295D01*
X16009523Y-52275295D02*
X16009523Y-52370533D01*
X16009523Y-52370533D02*
X15961904Y-52513390D01*
X15961904Y-52513390D02*
X15390476Y-53084819D01*
X15390476Y-53084819D02*
X16009523Y-53084819D01*
X16866666Y-52084819D02*
X16676190Y-52084819D01*
X16676190Y-52084819D02*
X16580952Y-52132438D01*
X16580952Y-52132438D02*
X16533333Y-52180057D01*
X16533333Y-52180057D02*
X16438095Y-52322914D01*
X16438095Y-52322914D02*
X16390476Y-52513390D01*
X16390476Y-52513390D02*
X16390476Y-52894342D01*
X16390476Y-52894342D02*
X16438095Y-52989580D01*
X16438095Y-52989580D02*
X16485714Y-53037200D01*
X16485714Y-53037200D02*
X16580952Y-53084819D01*
X16580952Y-53084819D02*
X16771428Y-53084819D01*
X16771428Y-53084819D02*
X16866666Y-53037200D01*
X16866666Y-53037200D02*
X16914285Y-52989580D01*
X16914285Y-52989580D02*
X16961904Y-52894342D01*
X16961904Y-52894342D02*
X16961904Y-52656247D01*
X16961904Y-52656247D02*
X16914285Y-52561009D01*
X16914285Y-52561009D02*
X16866666Y-52513390D01*
X16866666Y-52513390D02*
X16771428Y-52465771D01*
X16771428Y-52465771D02*
X16580952Y-52465771D01*
X16580952Y-52465771D02*
X16485714Y-52513390D01*
X16485714Y-52513390D02*
X16438095Y-52561009D01*
X16438095Y-52561009D02*
X16390476Y-52656247D01*
X4057142Y-52999580D02*
X4009523Y-53047200D01*
X4009523Y-53047200D02*
X3866666Y-53094819D01*
X3866666Y-53094819D02*
X3771428Y-53094819D01*
X3771428Y-53094819D02*
X3628571Y-53047200D01*
X3628571Y-53047200D02*
X3533333Y-52951961D01*
X3533333Y-52951961D02*
X3485714Y-52856723D01*
X3485714Y-52856723D02*
X3438095Y-52666247D01*
X3438095Y-52666247D02*
X3438095Y-52523390D01*
X3438095Y-52523390D02*
X3485714Y-52332914D01*
X3485714Y-52332914D02*
X3533333Y-52237676D01*
X3533333Y-52237676D02*
X3628571Y-52142438D01*
X3628571Y-52142438D02*
X3771428Y-52094819D01*
X3771428Y-52094819D02*
X3866666Y-52094819D01*
X3866666Y-52094819D02*
X4009523Y-52142438D01*
X4009523Y-52142438D02*
X4057142Y-52190057D01*
X4390476Y-52094819D02*
X5009523Y-52094819D01*
X5009523Y-52094819D02*
X4676190Y-52475771D01*
X4676190Y-52475771D02*
X4819047Y-52475771D01*
X4819047Y-52475771D02*
X4914285Y-52523390D01*
X4914285Y-52523390D02*
X4961904Y-52571009D01*
X4961904Y-52571009D02*
X5009523Y-52666247D01*
X5009523Y-52666247D02*
X5009523Y-52904342D01*
X5009523Y-52904342D02*
X4961904Y-52999580D01*
X4961904Y-52999580D02*
X4914285Y-53047200D01*
X4914285Y-53047200D02*
X4819047Y-53094819D01*
X4819047Y-53094819D02*
X4533333Y-53094819D01*
X4533333Y-53094819D02*
X4438095Y-53047200D01*
X4438095Y-53047200D02*
X4390476Y-52999580D01*
X5628571Y-52094819D02*
X5723809Y-52094819D01*
X5723809Y-52094819D02*
X5819047Y-52142438D01*
X5819047Y-52142438D02*
X5866666Y-52190057D01*
X5866666Y-52190057D02*
X5914285Y-52285295D01*
X5914285Y-52285295D02*
X5961904Y-52475771D01*
X5961904Y-52475771D02*
X5961904Y-52713866D01*
X5961904Y-52713866D02*
X5914285Y-52904342D01*
X5914285Y-52904342D02*
X5866666Y-52999580D01*
X5866666Y-52999580D02*
X5819047Y-53047200D01*
X5819047Y-53047200D02*
X5723809Y-53094819D01*
X5723809Y-53094819D02*
X5628571Y-53094819D01*
X5628571Y-53094819D02*
X5533333Y-53047200D01*
X5533333Y-53047200D02*
X5485714Y-52999580D01*
X5485714Y-52999580D02*
X5438095Y-52904342D01*
X5438095Y-52904342D02*
X5390476Y-52713866D01*
X5390476Y-52713866D02*
X5390476Y-52475771D01*
X5390476Y-52475771D02*
X5438095Y-52285295D01*
X5438095Y-52285295D02*
X5485714Y-52190057D01*
X5485714Y-52190057D02*
X5533333Y-52142438D01*
X5533333Y-52142438D02*
X5628571Y-52094819D01*
X4533333Y-44284819D02*
X4200000Y-43808628D01*
X3961905Y-44284819D02*
X3961905Y-43284819D01*
X3961905Y-43284819D02*
X4342857Y-43284819D01*
X4342857Y-43284819D02*
X4438095Y-43332438D01*
X4438095Y-43332438D02*
X4485714Y-43380057D01*
X4485714Y-43380057D02*
X4533333Y-43475295D01*
X4533333Y-43475295D02*
X4533333Y-43618152D01*
X4533333Y-43618152D02*
X4485714Y-43713390D01*
X4485714Y-43713390D02*
X4438095Y-43761009D01*
X4438095Y-43761009D02*
X4342857Y-43808628D01*
X4342857Y-43808628D02*
X3961905Y-43808628D01*
X4914286Y-43380057D02*
X4961905Y-43332438D01*
X4961905Y-43332438D02*
X5057143Y-43284819D01*
X5057143Y-43284819D02*
X5295238Y-43284819D01*
X5295238Y-43284819D02*
X5390476Y-43332438D01*
X5390476Y-43332438D02*
X5438095Y-43380057D01*
X5438095Y-43380057D02*
X5485714Y-43475295D01*
X5485714Y-43475295D02*
X5485714Y-43570533D01*
X5485714Y-43570533D02*
X5438095Y-43713390D01*
X5438095Y-43713390D02*
X4866667Y-44284819D01*
X4866667Y-44284819D02*
X5485714Y-44284819D01*
X13333333Y-43679580D02*
X13285714Y-43727200D01*
X13285714Y-43727200D02*
X13142857Y-43774819D01*
X13142857Y-43774819D02*
X13047619Y-43774819D01*
X13047619Y-43774819D02*
X12904762Y-43727200D01*
X12904762Y-43727200D02*
X12809524Y-43631961D01*
X12809524Y-43631961D02*
X12761905Y-43536723D01*
X12761905Y-43536723D02*
X12714286Y-43346247D01*
X12714286Y-43346247D02*
X12714286Y-43203390D01*
X12714286Y-43203390D02*
X12761905Y-43012914D01*
X12761905Y-43012914D02*
X12809524Y-42917676D01*
X12809524Y-42917676D02*
X12904762Y-42822438D01*
X12904762Y-42822438D02*
X13047619Y-42774819D01*
X13047619Y-42774819D02*
X13142857Y-42774819D01*
X13142857Y-42774819D02*
X13285714Y-42822438D01*
X13285714Y-42822438D02*
X13333333Y-42870057D01*
X13714286Y-42870057D02*
X13761905Y-42822438D01*
X13761905Y-42822438D02*
X13857143Y-42774819D01*
X13857143Y-42774819D02*
X14095238Y-42774819D01*
X14095238Y-42774819D02*
X14190476Y-42822438D01*
X14190476Y-42822438D02*
X14238095Y-42870057D01*
X14238095Y-42870057D02*
X14285714Y-42965295D01*
X14285714Y-42965295D02*
X14285714Y-43060533D01*
X14285714Y-43060533D02*
X14238095Y-43203390D01*
X14238095Y-43203390D02*
X13666667Y-43774819D01*
X13666667Y-43774819D02*
X14285714Y-43774819D01*
X6257142Y-55284819D02*
X5923809Y-54808628D01*
X5685714Y-55284819D02*
X5685714Y-54284819D01*
X5685714Y-54284819D02*
X6066666Y-54284819D01*
X6066666Y-54284819D02*
X6161904Y-54332438D01*
X6161904Y-54332438D02*
X6209523Y-54380057D01*
X6209523Y-54380057D02*
X6257142Y-54475295D01*
X6257142Y-54475295D02*
X6257142Y-54618152D01*
X6257142Y-54618152D02*
X6209523Y-54713390D01*
X6209523Y-54713390D02*
X6161904Y-54761009D01*
X6161904Y-54761009D02*
X6066666Y-54808628D01*
X6066666Y-54808628D02*
X5685714Y-54808628D01*
X6638095Y-54380057D02*
X6685714Y-54332438D01*
X6685714Y-54332438D02*
X6780952Y-54284819D01*
X6780952Y-54284819D02*
X7019047Y-54284819D01*
X7019047Y-54284819D02*
X7114285Y-54332438D01*
X7114285Y-54332438D02*
X7161904Y-54380057D01*
X7161904Y-54380057D02*
X7209523Y-54475295D01*
X7209523Y-54475295D02*
X7209523Y-54570533D01*
X7209523Y-54570533D02*
X7161904Y-54713390D01*
X7161904Y-54713390D02*
X6590476Y-55284819D01*
X6590476Y-55284819D02*
X7209523Y-55284819D01*
X7685714Y-55284819D02*
X7876190Y-55284819D01*
X7876190Y-55284819D02*
X7971428Y-55237200D01*
X7971428Y-55237200D02*
X8019047Y-55189580D01*
X8019047Y-55189580D02*
X8114285Y-55046723D01*
X8114285Y-55046723D02*
X8161904Y-54856247D01*
X8161904Y-54856247D02*
X8161904Y-54475295D01*
X8161904Y-54475295D02*
X8114285Y-54380057D01*
X8114285Y-54380057D02*
X8066666Y-54332438D01*
X8066666Y-54332438D02*
X7971428Y-54284819D01*
X7971428Y-54284819D02*
X7780952Y-54284819D01*
X7780952Y-54284819D02*
X7685714Y-54332438D01*
X7685714Y-54332438D02*
X7638095Y-54380057D01*
X7638095Y-54380057D02*
X7590476Y-54475295D01*
X7590476Y-54475295D02*
X7590476Y-54713390D01*
X7590476Y-54713390D02*
X7638095Y-54808628D01*
X7638095Y-54808628D02*
X7685714Y-54856247D01*
X7685714Y-54856247D02*
X7780952Y-54903866D01*
X7780952Y-54903866D02*
X7971428Y-54903866D01*
X7971428Y-54903866D02*
X8066666Y-54856247D01*
X8066666Y-54856247D02*
X8114285Y-54808628D01*
X8114285Y-54808628D02*
X8161904Y-54713390D01*
X3666666Y-58124819D02*
X3666666Y-58839104D01*
X3666666Y-58839104D02*
X3619047Y-58981961D01*
X3619047Y-58981961D02*
X3523809Y-59077200D01*
X3523809Y-59077200D02*
X3380952Y-59124819D01*
X3380952Y-59124819D02*
X3285714Y-59124819D01*
X4047619Y-58124819D02*
X4714285Y-58124819D01*
X4714285Y-58124819D02*
X4285714Y-59124819D01*
X21238095Y-33354819D02*
X21238095Y-34164342D01*
X21238095Y-34164342D02*
X21285714Y-34259580D01*
X21285714Y-34259580D02*
X21333333Y-34307200D01*
X21333333Y-34307200D02*
X21428571Y-34354819D01*
X21428571Y-34354819D02*
X21619047Y-34354819D01*
X21619047Y-34354819D02*
X21714285Y-34307200D01*
X21714285Y-34307200D02*
X21761904Y-34259580D01*
X21761904Y-34259580D02*
X21809523Y-34164342D01*
X21809523Y-34164342D02*
X21809523Y-33354819D01*
X22190476Y-33354819D02*
X22857142Y-33354819D01*
X22857142Y-33354819D02*
X22428571Y-34354819D01*
X28257141Y-46484819D02*
X27923808Y-46008628D01*
X27685713Y-46484819D02*
X27685713Y-45484819D01*
X27685713Y-45484819D02*
X28066665Y-45484819D01*
X28066665Y-45484819D02*
X28161903Y-45532438D01*
X28161903Y-45532438D02*
X28209522Y-45580057D01*
X28209522Y-45580057D02*
X28257141Y-45675295D01*
X28257141Y-45675295D02*
X28257141Y-45818152D01*
X28257141Y-45818152D02*
X28209522Y-45913390D01*
X28209522Y-45913390D02*
X28161903Y-45961009D01*
X28161903Y-45961009D02*
X28066665Y-46008628D01*
X28066665Y-46008628D02*
X27685713Y-46008628D01*
X29209522Y-46484819D02*
X28638094Y-46484819D01*
X28923808Y-46484819D02*
X28923808Y-45484819D01*
X28923808Y-45484819D02*
X28828570Y-45627676D01*
X28828570Y-45627676D02*
X28733332Y-45722914D01*
X28733332Y-45722914D02*
X28638094Y-45770533D01*
X29542856Y-45484819D02*
X30161903Y-45484819D01*
X30161903Y-45484819D02*
X29828570Y-45865771D01*
X29828570Y-45865771D02*
X29971427Y-45865771D01*
X29971427Y-45865771D02*
X30066665Y-45913390D01*
X30066665Y-45913390D02*
X30114284Y-45961009D01*
X30114284Y-45961009D02*
X30161903Y-46056247D01*
X30161903Y-46056247D02*
X30161903Y-46294342D01*
X30161903Y-46294342D02*
X30114284Y-46389580D01*
X30114284Y-46389580D02*
X30066665Y-46437200D01*
X30066665Y-46437200D02*
X29971427Y-46484819D01*
X29971427Y-46484819D02*
X29685713Y-46484819D01*
X29685713Y-46484819D02*
X29590475Y-46437200D01*
X29590475Y-46437200D02*
X29542856Y-46389580D01*
X19457141Y-53084819D02*
X19123808Y-52608628D01*
X18885713Y-53084819D02*
X18885713Y-52084819D01*
X18885713Y-52084819D02*
X19266665Y-52084819D01*
X19266665Y-52084819D02*
X19361903Y-52132438D01*
X19361903Y-52132438D02*
X19409522Y-52180057D01*
X19409522Y-52180057D02*
X19457141Y-52275295D01*
X19457141Y-52275295D02*
X19457141Y-52418152D01*
X19457141Y-52418152D02*
X19409522Y-52513390D01*
X19409522Y-52513390D02*
X19361903Y-52561009D01*
X19361903Y-52561009D02*
X19266665Y-52608628D01*
X19266665Y-52608628D02*
X18885713Y-52608628D01*
X19838094Y-52180057D02*
X19885713Y-52132438D01*
X19885713Y-52132438D02*
X19980951Y-52084819D01*
X19980951Y-52084819D02*
X20219046Y-52084819D01*
X20219046Y-52084819D02*
X20314284Y-52132438D01*
X20314284Y-52132438D02*
X20361903Y-52180057D01*
X20361903Y-52180057D02*
X20409522Y-52275295D01*
X20409522Y-52275295D02*
X20409522Y-52370533D01*
X20409522Y-52370533D02*
X20361903Y-52513390D01*
X20361903Y-52513390D02*
X19790475Y-53084819D01*
X19790475Y-53084819D02*
X20409522Y-53084819D01*
X20742856Y-52084819D02*
X21361903Y-52084819D01*
X21361903Y-52084819D02*
X21028570Y-52465771D01*
X21028570Y-52465771D02*
X21171427Y-52465771D01*
X21171427Y-52465771D02*
X21266665Y-52513390D01*
X21266665Y-52513390D02*
X21314284Y-52561009D01*
X21314284Y-52561009D02*
X21361903Y-52656247D01*
X21361903Y-52656247D02*
X21361903Y-52894342D01*
X21361903Y-52894342D02*
X21314284Y-52989580D01*
X21314284Y-52989580D02*
X21266665Y-53037200D01*
X21266665Y-53037200D02*
X21171427Y-53084819D01*
X21171427Y-53084819D02*
X20885713Y-53084819D01*
X20885713Y-53084819D02*
X20790475Y-53037200D01*
X20790475Y-53037200D02*
X20742856Y-52989580D01*
X8361905Y-53954819D02*
X8361905Y-52954819D01*
X8361905Y-52954819D02*
X8600000Y-52954819D01*
X8600000Y-52954819D02*
X8742857Y-53002438D01*
X8742857Y-53002438D02*
X8838095Y-53097676D01*
X8838095Y-53097676D02*
X8885714Y-53192914D01*
X8885714Y-53192914D02*
X8933333Y-53383390D01*
X8933333Y-53383390D02*
X8933333Y-53526247D01*
X8933333Y-53526247D02*
X8885714Y-53716723D01*
X8885714Y-53716723D02*
X8838095Y-53811961D01*
X8838095Y-53811961D02*
X8742857Y-53907200D01*
X8742857Y-53907200D02*
X8600000Y-53954819D01*
X8600000Y-53954819D02*
X8361905Y-53954819D01*
X9790476Y-52954819D02*
X9600000Y-52954819D01*
X9600000Y-52954819D02*
X9504762Y-53002438D01*
X9504762Y-53002438D02*
X9457143Y-53050057D01*
X9457143Y-53050057D02*
X9361905Y-53192914D01*
X9361905Y-53192914D02*
X9314286Y-53383390D01*
X9314286Y-53383390D02*
X9314286Y-53764342D01*
X9314286Y-53764342D02*
X9361905Y-53859580D01*
X9361905Y-53859580D02*
X9409524Y-53907200D01*
X9409524Y-53907200D02*
X9504762Y-53954819D01*
X9504762Y-53954819D02*
X9695238Y-53954819D01*
X9695238Y-53954819D02*
X9790476Y-53907200D01*
X9790476Y-53907200D02*
X9838095Y-53859580D01*
X9838095Y-53859580D02*
X9885714Y-53764342D01*
X9885714Y-53764342D02*
X9885714Y-53526247D01*
X9885714Y-53526247D02*
X9838095Y-53431009D01*
X9838095Y-53431009D02*
X9790476Y-53383390D01*
X9790476Y-53383390D02*
X9695238Y-53335771D01*
X9695238Y-53335771D02*
X9504762Y-53335771D01*
X9504762Y-53335771D02*
X9409524Y-53383390D01*
X9409524Y-53383390D02*
X9361905Y-53431009D01*
X9361905Y-53431009D02*
X9314286Y-53526247D01*
X26533332Y-44284819D02*
X26199999Y-43808628D01*
X25961904Y-44284819D02*
X25961904Y-43284819D01*
X25961904Y-43284819D02*
X26342856Y-43284819D01*
X26342856Y-43284819D02*
X26438094Y-43332438D01*
X26438094Y-43332438D02*
X26485713Y-43380057D01*
X26485713Y-43380057D02*
X26533332Y-43475295D01*
X26533332Y-43475295D02*
X26533332Y-43618152D01*
X26533332Y-43618152D02*
X26485713Y-43713390D01*
X26485713Y-43713390D02*
X26438094Y-43761009D01*
X26438094Y-43761009D02*
X26342856Y-43808628D01*
X26342856Y-43808628D02*
X25961904Y-43808628D01*
X27390475Y-43284819D02*
X27199999Y-43284819D01*
X27199999Y-43284819D02*
X27104761Y-43332438D01*
X27104761Y-43332438D02*
X27057142Y-43380057D01*
X27057142Y-43380057D02*
X26961904Y-43522914D01*
X26961904Y-43522914D02*
X26914285Y-43713390D01*
X26914285Y-43713390D02*
X26914285Y-44094342D01*
X26914285Y-44094342D02*
X26961904Y-44189580D01*
X26961904Y-44189580D02*
X27009523Y-44237200D01*
X27009523Y-44237200D02*
X27104761Y-44284819D01*
X27104761Y-44284819D02*
X27295237Y-44284819D01*
X27295237Y-44284819D02*
X27390475Y-44237200D01*
X27390475Y-44237200D02*
X27438094Y-44189580D01*
X27438094Y-44189580D02*
X27485713Y-44094342D01*
X27485713Y-44094342D02*
X27485713Y-43856247D01*
X27485713Y-43856247D02*
X27438094Y-43761009D01*
X27438094Y-43761009D02*
X27390475Y-43713390D01*
X27390475Y-43713390D02*
X27295237Y-43665771D01*
X27295237Y-43665771D02*
X27104761Y-43665771D01*
X27104761Y-43665771D02*
X27009523Y-43713390D01*
X27009523Y-43713390D02*
X26961904Y-43761009D01*
X26961904Y-43761009D02*
X26914285Y-43856247D01*
X1857142Y-48684819D02*
X1523809Y-48208628D01*
X1285714Y-48684819D02*
X1285714Y-47684819D01*
X1285714Y-47684819D02*
X1666666Y-47684819D01*
X1666666Y-47684819D02*
X1761904Y-47732438D01*
X1761904Y-47732438D02*
X1809523Y-47780057D01*
X1809523Y-47780057D02*
X1857142Y-47875295D01*
X1857142Y-47875295D02*
X1857142Y-48018152D01*
X1857142Y-48018152D02*
X1809523Y-48113390D01*
X1809523Y-48113390D02*
X1761904Y-48161009D01*
X1761904Y-48161009D02*
X1666666Y-48208628D01*
X1666666Y-48208628D02*
X1285714Y-48208628D01*
X2809523Y-48684819D02*
X2238095Y-48684819D01*
X2523809Y-48684819D02*
X2523809Y-47684819D01*
X2523809Y-47684819D02*
X2428571Y-47827676D01*
X2428571Y-47827676D02*
X2333333Y-47922914D01*
X2333333Y-47922914D02*
X2238095Y-47970533D01*
X3666666Y-48018152D02*
X3666666Y-48684819D01*
X3428571Y-47637200D02*
X3190476Y-48351485D01*
X3190476Y-48351485D02*
X3809523Y-48351485D01*
X12857142Y-48684819D02*
X12523809Y-48208628D01*
X12285714Y-48684819D02*
X12285714Y-47684819D01*
X12285714Y-47684819D02*
X12666666Y-47684819D01*
X12666666Y-47684819D02*
X12761904Y-47732438D01*
X12761904Y-47732438D02*
X12809523Y-47780057D01*
X12809523Y-47780057D02*
X12857142Y-47875295D01*
X12857142Y-47875295D02*
X12857142Y-48018152D01*
X12857142Y-48018152D02*
X12809523Y-48113390D01*
X12809523Y-48113390D02*
X12761904Y-48161009D01*
X12761904Y-48161009D02*
X12666666Y-48208628D01*
X12666666Y-48208628D02*
X12285714Y-48208628D01*
X13809523Y-48684819D02*
X13238095Y-48684819D01*
X13523809Y-48684819D02*
X13523809Y-47684819D01*
X13523809Y-47684819D02*
X13428571Y-47827676D01*
X13428571Y-47827676D02*
X13333333Y-47922914D01*
X13333333Y-47922914D02*
X13238095Y-47970533D01*
X14285714Y-48684819D02*
X14476190Y-48684819D01*
X14476190Y-48684819D02*
X14571428Y-48637200D01*
X14571428Y-48637200D02*
X14619047Y-48589580D01*
X14619047Y-48589580D02*
X14714285Y-48446723D01*
X14714285Y-48446723D02*
X14761904Y-48256247D01*
X14761904Y-48256247D02*
X14761904Y-47875295D01*
X14761904Y-47875295D02*
X14714285Y-47780057D01*
X14714285Y-47780057D02*
X14666666Y-47732438D01*
X14666666Y-47732438D02*
X14571428Y-47684819D01*
X14571428Y-47684819D02*
X14380952Y-47684819D01*
X14380952Y-47684819D02*
X14285714Y-47732438D01*
X14285714Y-47732438D02*
X14238095Y-47780057D01*
X14238095Y-47780057D02*
X14190476Y-47875295D01*
X14190476Y-47875295D02*
X14190476Y-48113390D01*
X14190476Y-48113390D02*
X14238095Y-48208628D01*
X14238095Y-48208628D02*
X14285714Y-48256247D01*
X14285714Y-48256247D02*
X14380952Y-48303866D01*
X14380952Y-48303866D02*
X14571428Y-48303866D01*
X14571428Y-48303866D02*
X14666666Y-48256247D01*
X14666666Y-48256247D02*
X14714285Y-48208628D01*
X14714285Y-48208628D02*
X14761904Y-48113390D01*
X25666667Y-27807200D02*
X25809524Y-27854819D01*
X25809524Y-27854819D02*
X26047619Y-27854819D01*
X26047619Y-27854819D02*
X26142857Y-27807200D01*
X26142857Y-27807200D02*
X26190476Y-27759580D01*
X26190476Y-27759580D02*
X26238095Y-27664342D01*
X26238095Y-27664342D02*
X26238095Y-27569104D01*
X26238095Y-27569104D02*
X26190476Y-27473866D01*
X26190476Y-27473866D02*
X26142857Y-27426247D01*
X26142857Y-27426247D02*
X26047619Y-27378628D01*
X26047619Y-27378628D02*
X25857143Y-27331009D01*
X25857143Y-27331009D02*
X25761905Y-27283390D01*
X25761905Y-27283390D02*
X25714286Y-27235771D01*
X25714286Y-27235771D02*
X25666667Y-27140533D01*
X25666667Y-27140533D02*
X25666667Y-27045295D01*
X25666667Y-27045295D02*
X25714286Y-26950057D01*
X25714286Y-26950057D02*
X25761905Y-26902438D01*
X25761905Y-26902438D02*
X25857143Y-26854819D01*
X25857143Y-26854819D02*
X26095238Y-26854819D01*
X26095238Y-26854819D02*
X26238095Y-26902438D01*
X26571429Y-26854819D02*
X26809524Y-27854819D01*
X26809524Y-27854819D02*
X27000000Y-27140533D01*
X27000000Y-27140533D02*
X27190476Y-27854819D01*
X27190476Y-27854819D02*
X27428572Y-26854819D01*
X28333333Y-27854819D02*
X27761905Y-27854819D01*
X28047619Y-27854819D02*
X28047619Y-26854819D01*
X28047619Y-26854819D02*
X27952381Y-26997676D01*
X27952381Y-26997676D02*
X27857143Y-27092914D01*
X27857143Y-27092914D02*
X27761905Y-27140533D01*
X-2690180Y-24333333D02*
X-1975895Y-24333333D01*
X-1975895Y-24333333D02*
X-1833038Y-24380952D01*
X-1833038Y-24380952D02*
X-1737800Y-24476190D01*
X-1737800Y-24476190D02*
X-1690180Y-24619047D01*
X-1690180Y-24619047D02*
X-1690180Y-24714285D01*
X-2594942Y-23904761D02*
X-2642561Y-23857142D01*
X-2642561Y-23857142D02*
X-2690180Y-23761904D01*
X-2690180Y-23761904D02*
X-2690180Y-23523809D01*
X-2690180Y-23523809D02*
X-2642561Y-23428571D01*
X-2642561Y-23428571D02*
X-2594942Y-23380952D01*
X-2594942Y-23380952D02*
X-2499704Y-23333333D01*
X-2499704Y-23333333D02*
X-2404466Y-23333333D01*
X-2404466Y-23333333D02*
X-2261609Y-23380952D01*
X-2261609Y-23380952D02*
X-1690180Y-23952380D01*
X-1690180Y-23952380D02*
X-1690180Y-23333333D01*
X24880952Y-14454819D02*
X24404762Y-14454819D01*
X24404762Y-14454819D02*
X24404762Y-13454819D01*
X25214286Y-13931009D02*
X25547619Y-13931009D01*
X25690476Y-14454819D02*
X25214286Y-14454819D01*
X25214286Y-14454819D02*
X25214286Y-13454819D01*
X25214286Y-13454819D02*
X25690476Y-13454819D01*
X26119048Y-14454819D02*
X26119048Y-13454819D01*
X26119048Y-13454819D02*
X26357143Y-13454819D01*
X26357143Y-13454819D02*
X26500000Y-13502438D01*
X26500000Y-13502438D02*
X26595238Y-13597676D01*
X26595238Y-13597676D02*
X26642857Y-13692914D01*
X26642857Y-13692914D02*
X26690476Y-13883390D01*
X26690476Y-13883390D02*
X26690476Y-14026247D01*
X26690476Y-14026247D02*
X26642857Y-14216723D01*
X26642857Y-14216723D02*
X26595238Y-14311961D01*
X26595238Y-14311961D02*
X26500000Y-14407200D01*
X26500000Y-14407200D02*
X26357143Y-14454819D01*
X26357143Y-14454819D02*
X26119048Y-14454819D01*
X27071429Y-13550057D02*
X27119048Y-13502438D01*
X27119048Y-13502438D02*
X27214286Y-13454819D01*
X27214286Y-13454819D02*
X27452381Y-13454819D01*
X27452381Y-13454819D02*
X27547619Y-13502438D01*
X27547619Y-13502438D02*
X27595238Y-13550057D01*
X27595238Y-13550057D02*
X27642857Y-13645295D01*
X27642857Y-13645295D02*
X27642857Y-13740533D01*
X27642857Y-13740533D02*
X27595238Y-13883390D01*
X27595238Y-13883390D02*
X27023810Y-14454819D01*
X27023810Y-14454819D02*
X27642857Y-14454819D01*
X6257142Y-50799580D02*
X6209523Y-50847200D01*
X6209523Y-50847200D02*
X6066666Y-50894819D01*
X6066666Y-50894819D02*
X5971428Y-50894819D01*
X5971428Y-50894819D02*
X5828571Y-50847200D01*
X5828571Y-50847200D02*
X5733333Y-50751961D01*
X5733333Y-50751961D02*
X5685714Y-50656723D01*
X5685714Y-50656723D02*
X5638095Y-50466247D01*
X5638095Y-50466247D02*
X5638095Y-50323390D01*
X5638095Y-50323390D02*
X5685714Y-50132914D01*
X5685714Y-50132914D02*
X5733333Y-50037676D01*
X5733333Y-50037676D02*
X5828571Y-49942438D01*
X5828571Y-49942438D02*
X5971428Y-49894819D01*
X5971428Y-49894819D02*
X6066666Y-49894819D01*
X6066666Y-49894819D02*
X6209523Y-49942438D01*
X6209523Y-49942438D02*
X6257142Y-49990057D01*
X7209523Y-50894819D02*
X6638095Y-50894819D01*
X6923809Y-50894819D02*
X6923809Y-49894819D01*
X6923809Y-49894819D02*
X6828571Y-50037676D01*
X6828571Y-50037676D02*
X6733333Y-50132914D01*
X6733333Y-50132914D02*
X6638095Y-50180533D01*
X7780952Y-50323390D02*
X7685714Y-50275771D01*
X7685714Y-50275771D02*
X7638095Y-50228152D01*
X7638095Y-50228152D02*
X7590476Y-50132914D01*
X7590476Y-50132914D02*
X7590476Y-50085295D01*
X7590476Y-50085295D02*
X7638095Y-49990057D01*
X7638095Y-49990057D02*
X7685714Y-49942438D01*
X7685714Y-49942438D02*
X7780952Y-49894819D01*
X7780952Y-49894819D02*
X7971428Y-49894819D01*
X7971428Y-49894819D02*
X8066666Y-49942438D01*
X8066666Y-49942438D02*
X8114285Y-49990057D01*
X8114285Y-49990057D02*
X8161904Y-50085295D01*
X8161904Y-50085295D02*
X8161904Y-50132914D01*
X8161904Y-50132914D02*
X8114285Y-50228152D01*
X8114285Y-50228152D02*
X8066666Y-50275771D01*
X8066666Y-50275771D02*
X7971428Y-50323390D01*
X7971428Y-50323390D02*
X7780952Y-50323390D01*
X7780952Y-50323390D02*
X7685714Y-50371009D01*
X7685714Y-50371009D02*
X7638095Y-50418628D01*
X7638095Y-50418628D02*
X7590476Y-50513866D01*
X7590476Y-50513866D02*
X7590476Y-50704342D01*
X7590476Y-50704342D02*
X7638095Y-50799580D01*
X7638095Y-50799580D02*
X7685714Y-50847200D01*
X7685714Y-50847200D02*
X7780952Y-50894819D01*
X7780952Y-50894819D02*
X7971428Y-50894819D01*
X7971428Y-50894819D02*
X8066666Y-50847200D01*
X8066666Y-50847200D02*
X8114285Y-50799580D01*
X8114285Y-50799580D02*
X8161904Y-50704342D01*
X8161904Y-50704342D02*
X8161904Y-50513866D01*
X8161904Y-50513866D02*
X8114285Y-50418628D01*
X8114285Y-50418628D02*
X8066666Y-50371009D01*
X8066666Y-50371009D02*
X7971428Y-50323390D01*
X4057142Y-50799580D02*
X4009523Y-50847200D01*
X4009523Y-50847200D02*
X3866666Y-50894819D01*
X3866666Y-50894819D02*
X3771428Y-50894819D01*
X3771428Y-50894819D02*
X3628571Y-50847200D01*
X3628571Y-50847200D02*
X3533333Y-50751961D01*
X3533333Y-50751961D02*
X3485714Y-50656723D01*
X3485714Y-50656723D02*
X3438095Y-50466247D01*
X3438095Y-50466247D02*
X3438095Y-50323390D01*
X3438095Y-50323390D02*
X3485714Y-50132914D01*
X3485714Y-50132914D02*
X3533333Y-50037676D01*
X3533333Y-50037676D02*
X3628571Y-49942438D01*
X3628571Y-49942438D02*
X3771428Y-49894819D01*
X3771428Y-49894819D02*
X3866666Y-49894819D01*
X3866666Y-49894819D02*
X4009523Y-49942438D01*
X4009523Y-49942438D02*
X4057142Y-49990057D01*
X5009523Y-50894819D02*
X4438095Y-50894819D01*
X4723809Y-50894819D02*
X4723809Y-49894819D01*
X4723809Y-49894819D02*
X4628571Y-50037676D01*
X4628571Y-50037676D02*
X4533333Y-50132914D01*
X4533333Y-50132914D02*
X4438095Y-50180533D01*
X5342857Y-49894819D02*
X6009523Y-49894819D01*
X6009523Y-49894819D02*
X5580952Y-50894819D01*
X21657141Y-53084819D02*
X21323808Y-52608628D01*
X21085713Y-53084819D02*
X21085713Y-52084819D01*
X21085713Y-52084819D02*
X21466665Y-52084819D01*
X21466665Y-52084819D02*
X21561903Y-52132438D01*
X21561903Y-52132438D02*
X21609522Y-52180057D01*
X21609522Y-52180057D02*
X21657141Y-52275295D01*
X21657141Y-52275295D02*
X21657141Y-52418152D01*
X21657141Y-52418152D02*
X21609522Y-52513390D01*
X21609522Y-52513390D02*
X21561903Y-52561009D01*
X21561903Y-52561009D02*
X21466665Y-52608628D01*
X21466665Y-52608628D02*
X21085713Y-52608628D01*
X22038094Y-52180057D02*
X22085713Y-52132438D01*
X22085713Y-52132438D02*
X22180951Y-52084819D01*
X22180951Y-52084819D02*
X22419046Y-52084819D01*
X22419046Y-52084819D02*
X22514284Y-52132438D01*
X22514284Y-52132438D02*
X22561903Y-52180057D01*
X22561903Y-52180057D02*
X22609522Y-52275295D01*
X22609522Y-52275295D02*
X22609522Y-52370533D01*
X22609522Y-52370533D02*
X22561903Y-52513390D01*
X22561903Y-52513390D02*
X21990475Y-53084819D01*
X21990475Y-53084819D02*
X22609522Y-53084819D01*
X22942856Y-52084819D02*
X23609522Y-52084819D01*
X23609522Y-52084819D02*
X23180951Y-53084819D01*
X4057142Y-55284819D02*
X3723809Y-54808628D01*
X3485714Y-55284819D02*
X3485714Y-54284819D01*
X3485714Y-54284819D02*
X3866666Y-54284819D01*
X3866666Y-54284819D02*
X3961904Y-54332438D01*
X3961904Y-54332438D02*
X4009523Y-54380057D01*
X4009523Y-54380057D02*
X4057142Y-54475295D01*
X4057142Y-54475295D02*
X4057142Y-54618152D01*
X4057142Y-54618152D02*
X4009523Y-54713390D01*
X4009523Y-54713390D02*
X3961904Y-54761009D01*
X3961904Y-54761009D02*
X3866666Y-54808628D01*
X3866666Y-54808628D02*
X3485714Y-54808628D01*
X4438095Y-54380057D02*
X4485714Y-54332438D01*
X4485714Y-54332438D02*
X4580952Y-54284819D01*
X4580952Y-54284819D02*
X4819047Y-54284819D01*
X4819047Y-54284819D02*
X4914285Y-54332438D01*
X4914285Y-54332438D02*
X4961904Y-54380057D01*
X4961904Y-54380057D02*
X5009523Y-54475295D01*
X5009523Y-54475295D02*
X5009523Y-54570533D01*
X5009523Y-54570533D02*
X4961904Y-54713390D01*
X4961904Y-54713390D02*
X4390476Y-55284819D01*
X4390476Y-55284819D02*
X5009523Y-55284819D01*
X5914285Y-54284819D02*
X5438095Y-54284819D01*
X5438095Y-54284819D02*
X5390476Y-54761009D01*
X5390476Y-54761009D02*
X5438095Y-54713390D01*
X5438095Y-54713390D02*
X5533333Y-54665771D01*
X5533333Y-54665771D02*
X5771428Y-54665771D01*
X5771428Y-54665771D02*
X5866666Y-54713390D01*
X5866666Y-54713390D02*
X5914285Y-54761009D01*
X5914285Y-54761009D02*
X5961904Y-54856247D01*
X5961904Y-54856247D02*
X5961904Y-55094342D01*
X5961904Y-55094342D02*
X5914285Y-55189580D01*
X5914285Y-55189580D02*
X5866666Y-55237200D01*
X5866666Y-55237200D02*
X5771428Y-55284819D01*
X5771428Y-55284819D02*
X5533333Y-55284819D01*
X5533333Y-55284819D02*
X5438095Y-55237200D01*
X5438095Y-55237200D02*
X5390476Y-55189580D01*
X28257141Y-50799580D02*
X28209522Y-50847200D01*
X28209522Y-50847200D02*
X28066665Y-50894819D01*
X28066665Y-50894819D02*
X27971427Y-50894819D01*
X27971427Y-50894819D02*
X27828570Y-50847200D01*
X27828570Y-50847200D02*
X27733332Y-50751961D01*
X27733332Y-50751961D02*
X27685713Y-50656723D01*
X27685713Y-50656723D02*
X27638094Y-50466247D01*
X27638094Y-50466247D02*
X27638094Y-50323390D01*
X27638094Y-50323390D02*
X27685713Y-50132914D01*
X27685713Y-50132914D02*
X27733332Y-50037676D01*
X27733332Y-50037676D02*
X27828570Y-49942438D01*
X27828570Y-49942438D02*
X27971427Y-49894819D01*
X27971427Y-49894819D02*
X28066665Y-49894819D01*
X28066665Y-49894819D02*
X28209522Y-49942438D01*
X28209522Y-49942438D02*
X28257141Y-49990057D01*
X28638094Y-49990057D02*
X28685713Y-49942438D01*
X28685713Y-49942438D02*
X28780951Y-49894819D01*
X28780951Y-49894819D02*
X29019046Y-49894819D01*
X29019046Y-49894819D02*
X29114284Y-49942438D01*
X29114284Y-49942438D02*
X29161903Y-49990057D01*
X29161903Y-49990057D02*
X29209522Y-50085295D01*
X29209522Y-50085295D02*
X29209522Y-50180533D01*
X29209522Y-50180533D02*
X29161903Y-50323390D01*
X29161903Y-50323390D02*
X28590475Y-50894819D01*
X28590475Y-50894819D02*
X29209522Y-50894819D01*
X29780951Y-50323390D02*
X29685713Y-50275771D01*
X29685713Y-50275771D02*
X29638094Y-50228152D01*
X29638094Y-50228152D02*
X29590475Y-50132914D01*
X29590475Y-50132914D02*
X29590475Y-50085295D01*
X29590475Y-50085295D02*
X29638094Y-49990057D01*
X29638094Y-49990057D02*
X29685713Y-49942438D01*
X29685713Y-49942438D02*
X29780951Y-49894819D01*
X29780951Y-49894819D02*
X29971427Y-49894819D01*
X29971427Y-49894819D02*
X30066665Y-49942438D01*
X30066665Y-49942438D02*
X30114284Y-49990057D01*
X30114284Y-49990057D02*
X30161903Y-50085295D01*
X30161903Y-50085295D02*
X30161903Y-50132914D01*
X30161903Y-50132914D02*
X30114284Y-50228152D01*
X30114284Y-50228152D02*
X30066665Y-50275771D01*
X30066665Y-50275771D02*
X29971427Y-50323390D01*
X29971427Y-50323390D02*
X29780951Y-50323390D01*
X29780951Y-50323390D02*
X29685713Y-50371009D01*
X29685713Y-50371009D02*
X29638094Y-50418628D01*
X29638094Y-50418628D02*
X29590475Y-50513866D01*
X29590475Y-50513866D02*
X29590475Y-50704342D01*
X29590475Y-50704342D02*
X29638094Y-50799580D01*
X29638094Y-50799580D02*
X29685713Y-50847200D01*
X29685713Y-50847200D02*
X29780951Y-50894819D01*
X29780951Y-50894819D02*
X29971427Y-50894819D01*
X29971427Y-50894819D02*
X30066665Y-50847200D01*
X30066665Y-50847200D02*
X30114284Y-50799580D01*
X30114284Y-50799580D02*
X30161903Y-50704342D01*
X30161903Y-50704342D02*
X30161903Y-50513866D01*
X30161903Y-50513866D02*
X30114284Y-50418628D01*
X30114284Y-50418628D02*
X30066665Y-50371009D01*
X30066665Y-50371009D02*
X29971427Y-50323390D01*
X23857141Y-48599580D02*
X23809522Y-48647200D01*
X23809522Y-48647200D02*
X23666665Y-48694819D01*
X23666665Y-48694819D02*
X23571427Y-48694819D01*
X23571427Y-48694819D02*
X23428570Y-48647200D01*
X23428570Y-48647200D02*
X23333332Y-48551961D01*
X23333332Y-48551961D02*
X23285713Y-48456723D01*
X23285713Y-48456723D02*
X23238094Y-48266247D01*
X23238094Y-48266247D02*
X23238094Y-48123390D01*
X23238094Y-48123390D02*
X23285713Y-47932914D01*
X23285713Y-47932914D02*
X23333332Y-47837676D01*
X23333332Y-47837676D02*
X23428570Y-47742438D01*
X23428570Y-47742438D02*
X23571427Y-47694819D01*
X23571427Y-47694819D02*
X23666665Y-47694819D01*
X23666665Y-47694819D02*
X23809522Y-47742438D01*
X23809522Y-47742438D02*
X23857141Y-47790057D01*
X24809522Y-48694819D02*
X24238094Y-48694819D01*
X24523808Y-48694819D02*
X24523808Y-47694819D01*
X24523808Y-47694819D02*
X24428570Y-47837676D01*
X24428570Y-47837676D02*
X24333332Y-47932914D01*
X24333332Y-47932914D02*
X24238094Y-47980533D01*
X25142856Y-47694819D02*
X25761903Y-47694819D01*
X25761903Y-47694819D02*
X25428570Y-48075771D01*
X25428570Y-48075771D02*
X25571427Y-48075771D01*
X25571427Y-48075771D02*
X25666665Y-48123390D01*
X25666665Y-48123390D02*
X25714284Y-48171009D01*
X25714284Y-48171009D02*
X25761903Y-48266247D01*
X25761903Y-48266247D02*
X25761903Y-48504342D01*
X25761903Y-48504342D02*
X25714284Y-48599580D01*
X25714284Y-48599580D02*
X25666665Y-48647200D01*
X25666665Y-48647200D02*
X25571427Y-48694819D01*
X25571427Y-48694819D02*
X25285713Y-48694819D01*
X25285713Y-48694819D02*
X25190475Y-48647200D01*
X25190475Y-48647200D02*
X25142856Y-48599580D01*
X1761905Y-53954819D02*
X1761905Y-52954819D01*
X1761905Y-52954819D02*
X2000000Y-52954819D01*
X2000000Y-52954819D02*
X2142857Y-53002438D01*
X2142857Y-53002438D02*
X2238095Y-53097676D01*
X2238095Y-53097676D02*
X2285714Y-53192914D01*
X2285714Y-53192914D02*
X2333333Y-53383390D01*
X2333333Y-53383390D02*
X2333333Y-53526247D01*
X2333333Y-53526247D02*
X2285714Y-53716723D01*
X2285714Y-53716723D02*
X2238095Y-53811961D01*
X2238095Y-53811961D02*
X2142857Y-53907200D01*
X2142857Y-53907200D02*
X2000000Y-53954819D01*
X2000000Y-53954819D02*
X1761905Y-53954819D01*
X3238095Y-52954819D02*
X2761905Y-52954819D01*
X2761905Y-52954819D02*
X2714286Y-53431009D01*
X2714286Y-53431009D02*
X2761905Y-53383390D01*
X2761905Y-53383390D02*
X2857143Y-53335771D01*
X2857143Y-53335771D02*
X3095238Y-53335771D01*
X3095238Y-53335771D02*
X3190476Y-53383390D01*
X3190476Y-53383390D02*
X3238095Y-53431009D01*
X3238095Y-53431009D02*
X3285714Y-53526247D01*
X3285714Y-53526247D02*
X3285714Y-53764342D01*
X3285714Y-53764342D02*
X3238095Y-53859580D01*
X3238095Y-53859580D02*
X3190476Y-53907200D01*
X3190476Y-53907200D02*
X3095238Y-53954819D01*
X3095238Y-53954819D02*
X2857143Y-53954819D01*
X2857143Y-53954819D02*
X2761905Y-53907200D01*
X2761905Y-53907200D02*
X2714286Y-53859580D01*
X19457141Y-46399580D02*
X19409522Y-46447200D01*
X19409522Y-46447200D02*
X19266665Y-46494819D01*
X19266665Y-46494819D02*
X19171427Y-46494819D01*
X19171427Y-46494819D02*
X19028570Y-46447200D01*
X19028570Y-46447200D02*
X18933332Y-46351961D01*
X18933332Y-46351961D02*
X18885713Y-46256723D01*
X18885713Y-46256723D02*
X18838094Y-46066247D01*
X18838094Y-46066247D02*
X18838094Y-45923390D01*
X18838094Y-45923390D02*
X18885713Y-45732914D01*
X18885713Y-45732914D02*
X18933332Y-45637676D01*
X18933332Y-45637676D02*
X19028570Y-45542438D01*
X19028570Y-45542438D02*
X19171427Y-45494819D01*
X19171427Y-45494819D02*
X19266665Y-45494819D01*
X19266665Y-45494819D02*
X19409522Y-45542438D01*
X19409522Y-45542438D02*
X19457141Y-45590057D01*
X20409522Y-46494819D02*
X19838094Y-46494819D01*
X20123808Y-46494819D02*
X20123808Y-45494819D01*
X20123808Y-45494819D02*
X20028570Y-45637676D01*
X20028570Y-45637676D02*
X19933332Y-45732914D01*
X19933332Y-45732914D02*
X19838094Y-45780533D01*
X21028570Y-45494819D02*
X21123808Y-45494819D01*
X21123808Y-45494819D02*
X21219046Y-45542438D01*
X21219046Y-45542438D02*
X21266665Y-45590057D01*
X21266665Y-45590057D02*
X21314284Y-45685295D01*
X21314284Y-45685295D02*
X21361903Y-45875771D01*
X21361903Y-45875771D02*
X21361903Y-46113866D01*
X21361903Y-46113866D02*
X21314284Y-46304342D01*
X21314284Y-46304342D02*
X21266665Y-46399580D01*
X21266665Y-46399580D02*
X21219046Y-46447200D01*
X21219046Y-46447200D02*
X21123808Y-46494819D01*
X21123808Y-46494819D02*
X21028570Y-46494819D01*
X21028570Y-46494819D02*
X20933332Y-46447200D01*
X20933332Y-46447200D02*
X20885713Y-46399580D01*
X20885713Y-46399580D02*
X20838094Y-46304342D01*
X20838094Y-46304342D02*
X20790475Y-46113866D01*
X20790475Y-46113866D02*
X20790475Y-45875771D01*
X20790475Y-45875771D02*
X20838094Y-45685295D01*
X20838094Y-45685295D02*
X20885713Y-45590057D01*
X20885713Y-45590057D02*
X20933332Y-45542438D01*
X20933332Y-45542438D02*
X21028570Y-45494819D01*
X26057141Y-46484819D02*
X25723808Y-46008628D01*
X25485713Y-46484819D02*
X25485713Y-45484819D01*
X25485713Y-45484819D02*
X25866665Y-45484819D01*
X25866665Y-45484819D02*
X25961903Y-45532438D01*
X25961903Y-45532438D02*
X26009522Y-45580057D01*
X26009522Y-45580057D02*
X26057141Y-45675295D01*
X26057141Y-45675295D02*
X26057141Y-45818152D01*
X26057141Y-45818152D02*
X26009522Y-45913390D01*
X26009522Y-45913390D02*
X25961903Y-45961009D01*
X25961903Y-45961009D02*
X25866665Y-46008628D01*
X25866665Y-46008628D02*
X25485713Y-46008628D01*
X27009522Y-46484819D02*
X26438094Y-46484819D01*
X26723808Y-46484819D02*
X26723808Y-45484819D01*
X26723808Y-45484819D02*
X26628570Y-45627676D01*
X26628570Y-45627676D02*
X26533332Y-45722914D01*
X26533332Y-45722914D02*
X26438094Y-45770533D01*
X27390475Y-45580057D02*
X27438094Y-45532438D01*
X27438094Y-45532438D02*
X27533332Y-45484819D01*
X27533332Y-45484819D02*
X27771427Y-45484819D01*
X27771427Y-45484819D02*
X27866665Y-45532438D01*
X27866665Y-45532438D02*
X27914284Y-45580057D01*
X27914284Y-45580057D02*
X27961903Y-45675295D01*
X27961903Y-45675295D02*
X27961903Y-45770533D01*
X27961903Y-45770533D02*
X27914284Y-45913390D01*
X27914284Y-45913390D02*
X27342856Y-46484819D01*
X27342856Y-46484819D02*
X27961903Y-46484819D01*
X3666666Y-2124819D02*
X3666666Y-2839104D01*
X3666666Y-2839104D02*
X3619047Y-2981961D01*
X3619047Y-2981961D02*
X3523809Y-3077200D01*
X3523809Y-3077200D02*
X3380952Y-3124819D01*
X3380952Y-3124819D02*
X3285714Y-3124819D01*
X4285714Y-2553390D02*
X4190476Y-2505771D01*
X4190476Y-2505771D02*
X4142857Y-2458152D01*
X4142857Y-2458152D02*
X4095238Y-2362914D01*
X4095238Y-2362914D02*
X4095238Y-2315295D01*
X4095238Y-2315295D02*
X4142857Y-2220057D01*
X4142857Y-2220057D02*
X4190476Y-2172438D01*
X4190476Y-2172438D02*
X4285714Y-2124819D01*
X4285714Y-2124819D02*
X4476190Y-2124819D01*
X4476190Y-2124819D02*
X4571428Y-2172438D01*
X4571428Y-2172438D02*
X4619047Y-2220057D01*
X4619047Y-2220057D02*
X4666666Y-2315295D01*
X4666666Y-2315295D02*
X4666666Y-2362914D01*
X4666666Y-2362914D02*
X4619047Y-2458152D01*
X4619047Y-2458152D02*
X4571428Y-2505771D01*
X4571428Y-2505771D02*
X4476190Y-2553390D01*
X4476190Y-2553390D02*
X4285714Y-2553390D01*
X4285714Y-2553390D02*
X4190476Y-2601009D01*
X4190476Y-2601009D02*
X4142857Y-2648628D01*
X4142857Y-2648628D02*
X4095238Y-2743866D01*
X4095238Y-2743866D02*
X4095238Y-2934342D01*
X4095238Y-2934342D02*
X4142857Y-3029580D01*
X4142857Y-3029580D02*
X4190476Y-3077200D01*
X4190476Y-3077200D02*
X4285714Y-3124819D01*
X4285714Y-3124819D02*
X4476190Y-3124819D01*
X4476190Y-3124819D02*
X4571428Y-3077200D01*
X4571428Y-3077200D02*
X4619047Y-3029580D01*
X4619047Y-3029580D02*
X4666666Y-2934342D01*
X4666666Y-2934342D02*
X4666666Y-2743866D01*
X4666666Y-2743866D02*
X4619047Y-2648628D01*
X4619047Y-2648628D02*
X4571428Y-2601009D01*
X4571428Y-2601009D02*
X4476190Y-2553390D01*
X22133332Y-44284819D02*
X21799999Y-43808628D01*
X21561904Y-44284819D02*
X21561904Y-43284819D01*
X21561904Y-43284819D02*
X21942856Y-43284819D01*
X21942856Y-43284819D02*
X22038094Y-43332438D01*
X22038094Y-43332438D02*
X22085713Y-43380057D01*
X22085713Y-43380057D02*
X22133332Y-43475295D01*
X22133332Y-43475295D02*
X22133332Y-43618152D01*
X22133332Y-43618152D02*
X22085713Y-43713390D01*
X22085713Y-43713390D02*
X22038094Y-43761009D01*
X22038094Y-43761009D02*
X21942856Y-43808628D01*
X21942856Y-43808628D02*
X21561904Y-43808628D01*
X22990475Y-43618152D02*
X22990475Y-44284819D01*
X22752380Y-43237200D02*
X22514285Y-43951485D01*
X22514285Y-43951485D02*
X23133332Y-43951485D01*
X23857141Y-46484819D02*
X23523808Y-46008628D01*
X23285713Y-46484819D02*
X23285713Y-45484819D01*
X23285713Y-45484819D02*
X23666665Y-45484819D01*
X23666665Y-45484819D02*
X23761903Y-45532438D01*
X23761903Y-45532438D02*
X23809522Y-45580057D01*
X23809522Y-45580057D02*
X23857141Y-45675295D01*
X23857141Y-45675295D02*
X23857141Y-45818152D01*
X23857141Y-45818152D02*
X23809522Y-45913390D01*
X23809522Y-45913390D02*
X23761903Y-45961009D01*
X23761903Y-45961009D02*
X23666665Y-46008628D01*
X23666665Y-46008628D02*
X23285713Y-46008628D01*
X24809522Y-46484819D02*
X24238094Y-46484819D01*
X24523808Y-46484819D02*
X24523808Y-45484819D01*
X24523808Y-45484819D02*
X24428570Y-45627676D01*
X24428570Y-45627676D02*
X24333332Y-45722914D01*
X24333332Y-45722914D02*
X24238094Y-45770533D01*
X25761903Y-46484819D02*
X25190475Y-46484819D01*
X25476189Y-46484819D02*
X25476189Y-45484819D01*
X25476189Y-45484819D02*
X25380951Y-45627676D01*
X25380951Y-45627676D02*
X25285713Y-45722914D01*
X25285713Y-45722914D02*
X25190475Y-45770533D01*
X23857141Y-50529580D02*
X23809522Y-50577200D01*
X23809522Y-50577200D02*
X23666665Y-50624819D01*
X23666665Y-50624819D02*
X23571427Y-50624819D01*
X23571427Y-50624819D02*
X23428570Y-50577200D01*
X23428570Y-50577200D02*
X23333332Y-50481961D01*
X23333332Y-50481961D02*
X23285713Y-50386723D01*
X23285713Y-50386723D02*
X23238094Y-50196247D01*
X23238094Y-50196247D02*
X23238094Y-50053390D01*
X23238094Y-50053390D02*
X23285713Y-49862914D01*
X23285713Y-49862914D02*
X23333332Y-49767676D01*
X23333332Y-49767676D02*
X23428570Y-49672438D01*
X23428570Y-49672438D02*
X23571427Y-49624819D01*
X23571427Y-49624819D02*
X23666665Y-49624819D01*
X23666665Y-49624819D02*
X23809522Y-49672438D01*
X23809522Y-49672438D02*
X23857141Y-49720057D01*
X24238094Y-49720057D02*
X24285713Y-49672438D01*
X24285713Y-49672438D02*
X24380951Y-49624819D01*
X24380951Y-49624819D02*
X24619046Y-49624819D01*
X24619046Y-49624819D02*
X24714284Y-49672438D01*
X24714284Y-49672438D02*
X24761903Y-49720057D01*
X24761903Y-49720057D02*
X24809522Y-49815295D01*
X24809522Y-49815295D02*
X24809522Y-49910533D01*
X24809522Y-49910533D02*
X24761903Y-50053390D01*
X24761903Y-50053390D02*
X24190475Y-50624819D01*
X24190475Y-50624819D02*
X24809522Y-50624819D01*
X25666665Y-49624819D02*
X25476189Y-49624819D01*
X25476189Y-49624819D02*
X25380951Y-49672438D01*
X25380951Y-49672438D02*
X25333332Y-49720057D01*
X25333332Y-49720057D02*
X25238094Y-49862914D01*
X25238094Y-49862914D02*
X25190475Y-50053390D01*
X25190475Y-50053390D02*
X25190475Y-50434342D01*
X25190475Y-50434342D02*
X25238094Y-50529580D01*
X25238094Y-50529580D02*
X25285713Y-50577200D01*
X25285713Y-50577200D02*
X25380951Y-50624819D01*
X25380951Y-50624819D02*
X25571427Y-50624819D01*
X25571427Y-50624819D02*
X25666665Y-50577200D01*
X25666665Y-50577200D02*
X25714284Y-50529580D01*
X25714284Y-50529580D02*
X25761903Y-50434342D01*
X25761903Y-50434342D02*
X25761903Y-50196247D01*
X25761903Y-50196247D02*
X25714284Y-50101009D01*
X25714284Y-50101009D02*
X25666665Y-50053390D01*
X25666665Y-50053390D02*
X25571427Y-50005771D01*
X25571427Y-50005771D02*
X25380951Y-50005771D01*
X25380951Y-50005771D02*
X25285713Y-50053390D01*
X25285713Y-50053390D02*
X25238094Y-50101009D01*
X25238094Y-50101009D02*
X25190475Y-50196247D01*
X26057141Y-53084819D02*
X25723808Y-52608628D01*
X25485713Y-53084819D02*
X25485713Y-52084819D01*
X25485713Y-52084819D02*
X25866665Y-52084819D01*
X25866665Y-52084819D02*
X25961903Y-52132438D01*
X25961903Y-52132438D02*
X26009522Y-52180057D01*
X26009522Y-52180057D02*
X26057141Y-52275295D01*
X26057141Y-52275295D02*
X26057141Y-52418152D01*
X26057141Y-52418152D02*
X26009522Y-52513390D01*
X26009522Y-52513390D02*
X25961903Y-52561009D01*
X25961903Y-52561009D02*
X25866665Y-52608628D01*
X25866665Y-52608628D02*
X25485713Y-52608628D01*
X26438094Y-52180057D02*
X26485713Y-52132438D01*
X26485713Y-52132438D02*
X26580951Y-52084819D01*
X26580951Y-52084819D02*
X26819046Y-52084819D01*
X26819046Y-52084819D02*
X26914284Y-52132438D01*
X26914284Y-52132438D02*
X26961903Y-52180057D01*
X26961903Y-52180057D02*
X27009522Y-52275295D01*
X27009522Y-52275295D02*
X27009522Y-52370533D01*
X27009522Y-52370533D02*
X26961903Y-52513390D01*
X26961903Y-52513390D02*
X26390475Y-53084819D01*
X26390475Y-53084819D02*
X27009522Y-53084819D01*
X27866665Y-52418152D02*
X27866665Y-53084819D01*
X27628570Y-52037200D02*
X27390475Y-52751485D01*
X27390475Y-52751485D02*
X28009522Y-52751485D01*
X4057142Y-48684819D02*
X3723809Y-48208628D01*
X3485714Y-48684819D02*
X3485714Y-47684819D01*
X3485714Y-47684819D02*
X3866666Y-47684819D01*
X3866666Y-47684819D02*
X3961904Y-47732438D01*
X3961904Y-47732438D02*
X4009523Y-47780057D01*
X4009523Y-47780057D02*
X4057142Y-47875295D01*
X4057142Y-47875295D02*
X4057142Y-48018152D01*
X4057142Y-48018152D02*
X4009523Y-48113390D01*
X4009523Y-48113390D02*
X3961904Y-48161009D01*
X3961904Y-48161009D02*
X3866666Y-48208628D01*
X3866666Y-48208628D02*
X3485714Y-48208628D01*
X5009523Y-48684819D02*
X4438095Y-48684819D01*
X4723809Y-48684819D02*
X4723809Y-47684819D01*
X4723809Y-47684819D02*
X4628571Y-47827676D01*
X4628571Y-47827676D02*
X4533333Y-47922914D01*
X4533333Y-47922914D02*
X4438095Y-47970533D01*
X5914285Y-47684819D02*
X5438095Y-47684819D01*
X5438095Y-47684819D02*
X5390476Y-48161009D01*
X5390476Y-48161009D02*
X5438095Y-48113390D01*
X5438095Y-48113390D02*
X5533333Y-48065771D01*
X5533333Y-48065771D02*
X5771428Y-48065771D01*
X5771428Y-48065771D02*
X5866666Y-48113390D01*
X5866666Y-48113390D02*
X5914285Y-48161009D01*
X5914285Y-48161009D02*
X5961904Y-48256247D01*
X5961904Y-48256247D02*
X5961904Y-48494342D01*
X5961904Y-48494342D02*
X5914285Y-48589580D01*
X5914285Y-48589580D02*
X5866666Y-48637200D01*
X5866666Y-48637200D02*
X5771428Y-48684819D01*
X5771428Y-48684819D02*
X5533333Y-48684819D01*
X5533333Y-48684819D02*
X5438095Y-48637200D01*
X5438095Y-48637200D02*
X5390476Y-48589580D01*
X2333333Y-46129580D02*
X2285714Y-46177200D01*
X2285714Y-46177200D02*
X2142857Y-46224819D01*
X2142857Y-46224819D02*
X2047619Y-46224819D01*
X2047619Y-46224819D02*
X1904762Y-46177200D01*
X1904762Y-46177200D02*
X1809524Y-46081961D01*
X1809524Y-46081961D02*
X1761905Y-45986723D01*
X1761905Y-45986723D02*
X1714286Y-45796247D01*
X1714286Y-45796247D02*
X1714286Y-45653390D01*
X1714286Y-45653390D02*
X1761905Y-45462914D01*
X1761905Y-45462914D02*
X1809524Y-45367676D01*
X1809524Y-45367676D02*
X1904762Y-45272438D01*
X1904762Y-45272438D02*
X2047619Y-45224819D01*
X2047619Y-45224819D02*
X2142857Y-45224819D01*
X2142857Y-45224819D02*
X2285714Y-45272438D01*
X2285714Y-45272438D02*
X2333333Y-45320057D01*
X3238095Y-45224819D02*
X2761905Y-45224819D01*
X2761905Y-45224819D02*
X2714286Y-45701009D01*
X2714286Y-45701009D02*
X2761905Y-45653390D01*
X2761905Y-45653390D02*
X2857143Y-45605771D01*
X2857143Y-45605771D02*
X3095238Y-45605771D01*
X3095238Y-45605771D02*
X3190476Y-45653390D01*
X3190476Y-45653390D02*
X3238095Y-45701009D01*
X3238095Y-45701009D02*
X3285714Y-45796247D01*
X3285714Y-45796247D02*
X3285714Y-46034342D01*
X3285714Y-46034342D02*
X3238095Y-46129580D01*
X3238095Y-46129580D02*
X3190476Y-46177200D01*
X3190476Y-46177200D02*
X3095238Y-46224819D01*
X3095238Y-46224819D02*
X2857143Y-46224819D01*
X2857143Y-46224819D02*
X2761905Y-46177200D01*
X2761905Y-46177200D02*
X2714286Y-46129580D01*
X19457141Y-50799580D02*
X19409522Y-50847200D01*
X19409522Y-50847200D02*
X19266665Y-50894819D01*
X19266665Y-50894819D02*
X19171427Y-50894819D01*
X19171427Y-50894819D02*
X19028570Y-50847200D01*
X19028570Y-50847200D02*
X18933332Y-50751961D01*
X18933332Y-50751961D02*
X18885713Y-50656723D01*
X18885713Y-50656723D02*
X18838094Y-50466247D01*
X18838094Y-50466247D02*
X18838094Y-50323390D01*
X18838094Y-50323390D02*
X18885713Y-50132914D01*
X18885713Y-50132914D02*
X18933332Y-50037676D01*
X18933332Y-50037676D02*
X19028570Y-49942438D01*
X19028570Y-49942438D02*
X19171427Y-49894819D01*
X19171427Y-49894819D02*
X19266665Y-49894819D01*
X19266665Y-49894819D02*
X19409522Y-49942438D01*
X19409522Y-49942438D02*
X19457141Y-49990057D01*
X19838094Y-49990057D02*
X19885713Y-49942438D01*
X19885713Y-49942438D02*
X19980951Y-49894819D01*
X19980951Y-49894819D02*
X20219046Y-49894819D01*
X20219046Y-49894819D02*
X20314284Y-49942438D01*
X20314284Y-49942438D02*
X20361903Y-49990057D01*
X20361903Y-49990057D02*
X20409522Y-50085295D01*
X20409522Y-50085295D02*
X20409522Y-50180533D01*
X20409522Y-50180533D02*
X20361903Y-50323390D01*
X20361903Y-50323390D02*
X19790475Y-50894819D01*
X19790475Y-50894819D02*
X20409522Y-50894819D01*
X21266665Y-50228152D02*
X21266665Y-50894819D01*
X21028570Y-49847200D02*
X20790475Y-50561485D01*
X20790475Y-50561485D02*
X21409522Y-50561485D01*
X12857142Y-50799580D02*
X12809523Y-50847200D01*
X12809523Y-50847200D02*
X12666666Y-50894819D01*
X12666666Y-50894819D02*
X12571428Y-50894819D01*
X12571428Y-50894819D02*
X12428571Y-50847200D01*
X12428571Y-50847200D02*
X12333333Y-50751961D01*
X12333333Y-50751961D02*
X12285714Y-50656723D01*
X12285714Y-50656723D02*
X12238095Y-50466247D01*
X12238095Y-50466247D02*
X12238095Y-50323390D01*
X12238095Y-50323390D02*
X12285714Y-50132914D01*
X12285714Y-50132914D02*
X12333333Y-50037676D01*
X12333333Y-50037676D02*
X12428571Y-49942438D01*
X12428571Y-49942438D02*
X12571428Y-49894819D01*
X12571428Y-49894819D02*
X12666666Y-49894819D01*
X12666666Y-49894819D02*
X12809523Y-49942438D01*
X12809523Y-49942438D02*
X12857142Y-49990057D01*
X13238095Y-49990057D02*
X13285714Y-49942438D01*
X13285714Y-49942438D02*
X13380952Y-49894819D01*
X13380952Y-49894819D02*
X13619047Y-49894819D01*
X13619047Y-49894819D02*
X13714285Y-49942438D01*
X13714285Y-49942438D02*
X13761904Y-49990057D01*
X13761904Y-49990057D02*
X13809523Y-50085295D01*
X13809523Y-50085295D02*
X13809523Y-50180533D01*
X13809523Y-50180533D02*
X13761904Y-50323390D01*
X13761904Y-50323390D02*
X13190476Y-50894819D01*
X13190476Y-50894819D02*
X13809523Y-50894819D01*
X14761904Y-50894819D02*
X14190476Y-50894819D01*
X14476190Y-50894819D02*
X14476190Y-49894819D01*
X14476190Y-49894819D02*
X14380952Y-50037676D01*
X14380952Y-50037676D02*
X14285714Y-50132914D01*
X14285714Y-50132914D02*
X14190476Y-50180533D01*
X4880952Y-14454819D02*
X4404762Y-14454819D01*
X4404762Y-14454819D02*
X4404762Y-13454819D01*
X5214286Y-13931009D02*
X5547619Y-13931009D01*
X5690476Y-14454819D02*
X5214286Y-14454819D01*
X5214286Y-14454819D02*
X5214286Y-13454819D01*
X5214286Y-13454819D02*
X5690476Y-13454819D01*
X6119048Y-14454819D02*
X6119048Y-13454819D01*
X6119048Y-13454819D02*
X6357143Y-13454819D01*
X6357143Y-13454819D02*
X6500000Y-13502438D01*
X6500000Y-13502438D02*
X6595238Y-13597676D01*
X6595238Y-13597676D02*
X6642857Y-13692914D01*
X6642857Y-13692914D02*
X6690476Y-13883390D01*
X6690476Y-13883390D02*
X6690476Y-14026247D01*
X6690476Y-14026247D02*
X6642857Y-14216723D01*
X6642857Y-14216723D02*
X6595238Y-14311961D01*
X6595238Y-14311961D02*
X6500000Y-14407200D01*
X6500000Y-14407200D02*
X6357143Y-14454819D01*
X6357143Y-14454819D02*
X6119048Y-14454819D01*
X7642857Y-14454819D02*
X7071429Y-14454819D01*
X7357143Y-14454819D02*
X7357143Y-13454819D01*
X7357143Y-13454819D02*
X7261905Y-13597676D01*
X7261905Y-13597676D02*
X7166667Y-13692914D01*
X7166667Y-13692914D02*
X7071429Y-13740533D01*
X27666666Y-58124819D02*
X27666666Y-58839104D01*
X27666666Y-58839104D02*
X27619047Y-58981961D01*
X27619047Y-58981961D02*
X27523809Y-59077200D01*
X27523809Y-59077200D02*
X27380952Y-59124819D01*
X27380952Y-59124819D02*
X27285714Y-59124819D01*
X28571428Y-58124819D02*
X28380952Y-58124819D01*
X28380952Y-58124819D02*
X28285714Y-58172438D01*
X28285714Y-58172438D02*
X28238095Y-58220057D01*
X28238095Y-58220057D02*
X28142857Y-58362914D01*
X28142857Y-58362914D02*
X28095238Y-58553390D01*
X28095238Y-58553390D02*
X28095238Y-58934342D01*
X28095238Y-58934342D02*
X28142857Y-59029580D01*
X28142857Y-59029580D02*
X28190476Y-59077200D01*
X28190476Y-59077200D02*
X28285714Y-59124819D01*
X28285714Y-59124819D02*
X28476190Y-59124819D01*
X28476190Y-59124819D02*
X28571428Y-59077200D01*
X28571428Y-59077200D02*
X28619047Y-59029580D01*
X28619047Y-59029580D02*
X28666666Y-58934342D01*
X28666666Y-58934342D02*
X28666666Y-58696247D01*
X28666666Y-58696247D02*
X28619047Y-58601009D01*
X28619047Y-58601009D02*
X28571428Y-58553390D01*
X28571428Y-58553390D02*
X28476190Y-58505771D01*
X28476190Y-58505771D02*
X28285714Y-58505771D01*
X28285714Y-58505771D02*
X28190476Y-58553390D01*
X28190476Y-58553390D02*
X28142857Y-58601009D01*
X28142857Y-58601009D02*
X28095238Y-58696247D01*
X6161905Y-43054819D02*
X6161905Y-42054819D01*
X6161905Y-42054819D02*
X6400000Y-42054819D01*
X6400000Y-42054819D02*
X6542857Y-42102438D01*
X6542857Y-42102438D02*
X6638095Y-42197676D01*
X6638095Y-42197676D02*
X6685714Y-42292914D01*
X6685714Y-42292914D02*
X6733333Y-42483390D01*
X6733333Y-42483390D02*
X6733333Y-42626247D01*
X6733333Y-42626247D02*
X6685714Y-42816723D01*
X6685714Y-42816723D02*
X6638095Y-42911961D01*
X6638095Y-42911961D02*
X6542857Y-43007200D01*
X6542857Y-43007200D02*
X6400000Y-43054819D01*
X6400000Y-43054819D02*
X6161905Y-43054819D01*
X7685714Y-43054819D02*
X7114286Y-43054819D01*
X7400000Y-43054819D02*
X7400000Y-42054819D01*
X7400000Y-42054819D02*
X7304762Y-42197676D01*
X7304762Y-42197676D02*
X7209524Y-42292914D01*
X7209524Y-42292914D02*
X7114286Y-42340533D01*
X10657142Y-48684819D02*
X10323809Y-48208628D01*
X10085714Y-48684819D02*
X10085714Y-47684819D01*
X10085714Y-47684819D02*
X10466666Y-47684819D01*
X10466666Y-47684819D02*
X10561904Y-47732438D01*
X10561904Y-47732438D02*
X10609523Y-47780057D01*
X10609523Y-47780057D02*
X10657142Y-47875295D01*
X10657142Y-47875295D02*
X10657142Y-48018152D01*
X10657142Y-48018152D02*
X10609523Y-48113390D01*
X10609523Y-48113390D02*
X10561904Y-48161009D01*
X10561904Y-48161009D02*
X10466666Y-48208628D01*
X10466666Y-48208628D02*
X10085714Y-48208628D01*
X11609523Y-48684819D02*
X11038095Y-48684819D01*
X11323809Y-48684819D02*
X11323809Y-47684819D01*
X11323809Y-47684819D02*
X11228571Y-47827676D01*
X11228571Y-47827676D02*
X11133333Y-47922914D01*
X11133333Y-47922914D02*
X11038095Y-47970533D01*
X12180952Y-48113390D02*
X12085714Y-48065771D01*
X12085714Y-48065771D02*
X12038095Y-48018152D01*
X12038095Y-48018152D02*
X11990476Y-47922914D01*
X11990476Y-47922914D02*
X11990476Y-47875295D01*
X11990476Y-47875295D02*
X12038095Y-47780057D01*
X12038095Y-47780057D02*
X12085714Y-47732438D01*
X12085714Y-47732438D02*
X12180952Y-47684819D01*
X12180952Y-47684819D02*
X12371428Y-47684819D01*
X12371428Y-47684819D02*
X12466666Y-47732438D01*
X12466666Y-47732438D02*
X12514285Y-47780057D01*
X12514285Y-47780057D02*
X12561904Y-47875295D01*
X12561904Y-47875295D02*
X12561904Y-47922914D01*
X12561904Y-47922914D02*
X12514285Y-48018152D01*
X12514285Y-48018152D02*
X12466666Y-48065771D01*
X12466666Y-48065771D02*
X12371428Y-48113390D01*
X12371428Y-48113390D02*
X12180952Y-48113390D01*
X12180952Y-48113390D02*
X12085714Y-48161009D01*
X12085714Y-48161009D02*
X12038095Y-48208628D01*
X12038095Y-48208628D02*
X11990476Y-48303866D01*
X11990476Y-48303866D02*
X11990476Y-48494342D01*
X11990476Y-48494342D02*
X12038095Y-48589580D01*
X12038095Y-48589580D02*
X12085714Y-48637200D01*
X12085714Y-48637200D02*
X12180952Y-48684819D01*
X12180952Y-48684819D02*
X12371428Y-48684819D01*
X12371428Y-48684819D02*
X12466666Y-48637200D01*
X12466666Y-48637200D02*
X12514285Y-48589580D01*
X12514285Y-48589580D02*
X12561904Y-48494342D01*
X12561904Y-48494342D02*
X12561904Y-48303866D01*
X12561904Y-48303866D02*
X12514285Y-48208628D01*
X12514285Y-48208628D02*
X12466666Y-48161009D01*
X12466666Y-48161009D02*
X12371428Y-48113390D01*
X17257142Y-48684819D02*
X16923809Y-48208628D01*
X16685714Y-48684819D02*
X16685714Y-47684819D01*
X16685714Y-47684819D02*
X17066666Y-47684819D01*
X17066666Y-47684819D02*
X17161904Y-47732438D01*
X17161904Y-47732438D02*
X17209523Y-47780057D01*
X17209523Y-47780057D02*
X17257142Y-47875295D01*
X17257142Y-47875295D02*
X17257142Y-48018152D01*
X17257142Y-48018152D02*
X17209523Y-48113390D01*
X17209523Y-48113390D02*
X17161904Y-48161009D01*
X17161904Y-48161009D02*
X17066666Y-48208628D01*
X17066666Y-48208628D02*
X16685714Y-48208628D01*
X17638095Y-47780057D02*
X17685714Y-47732438D01*
X17685714Y-47732438D02*
X17780952Y-47684819D01*
X17780952Y-47684819D02*
X18019047Y-47684819D01*
X18019047Y-47684819D02*
X18114285Y-47732438D01*
X18114285Y-47732438D02*
X18161904Y-47780057D01*
X18161904Y-47780057D02*
X18209523Y-47875295D01*
X18209523Y-47875295D02*
X18209523Y-47970533D01*
X18209523Y-47970533D02*
X18161904Y-48113390D01*
X18161904Y-48113390D02*
X17590476Y-48684819D01*
X17590476Y-48684819D02*
X18209523Y-48684819D01*
X19161904Y-48684819D02*
X18590476Y-48684819D01*
X18876190Y-48684819D02*
X18876190Y-47684819D01*
X18876190Y-47684819D02*
X18780952Y-47827676D01*
X18780952Y-47827676D02*
X18685714Y-47922914D01*
X18685714Y-47922914D02*
X18590476Y-47970533D01*
X4666666Y-41759819D02*
X4666666Y-42474104D01*
X4666666Y-42474104D02*
X4619047Y-42616961D01*
X4619047Y-42616961D02*
X4523809Y-42712200D01*
X4523809Y-42712200D02*
X4380952Y-42759819D01*
X4380952Y-42759819D02*
X4285714Y-42759819D01*
X5190476Y-42759819D02*
X5380952Y-42759819D01*
X5380952Y-42759819D02*
X5476190Y-42712200D01*
X5476190Y-42712200D02*
X5523809Y-42664580D01*
X5523809Y-42664580D02*
X5619047Y-42521723D01*
X5619047Y-42521723D02*
X5666666Y-42331247D01*
X5666666Y-42331247D02*
X5666666Y-41950295D01*
X5666666Y-41950295D02*
X5619047Y-41855057D01*
X5619047Y-41855057D02*
X5571428Y-41807438D01*
X5571428Y-41807438D02*
X5476190Y-41759819D01*
X5476190Y-41759819D02*
X5285714Y-41759819D01*
X5285714Y-41759819D02*
X5190476Y-41807438D01*
X5190476Y-41807438D02*
X5142857Y-41855057D01*
X5142857Y-41855057D02*
X5095238Y-41950295D01*
X5095238Y-41950295D02*
X5095238Y-42188390D01*
X5095238Y-42188390D02*
X5142857Y-42283628D01*
X5142857Y-42283628D02*
X5190476Y-42331247D01*
X5190476Y-42331247D02*
X5285714Y-42378866D01*
X5285714Y-42378866D02*
X5476190Y-42378866D01*
X5476190Y-42378866D02*
X5571428Y-42331247D01*
X5571428Y-42331247D02*
X5619047Y-42283628D01*
X5619047Y-42283628D02*
X5666666Y-42188390D01*
X28733332Y-44024819D02*
X28257142Y-44024819D01*
X28257142Y-44024819D02*
X28257142Y-43024819D01*
X29019047Y-43120057D02*
X29066666Y-43072438D01*
X29066666Y-43072438D02*
X29161904Y-43024819D01*
X29161904Y-43024819D02*
X29399999Y-43024819D01*
X29399999Y-43024819D02*
X29495237Y-43072438D01*
X29495237Y-43072438D02*
X29542856Y-43120057D01*
X29542856Y-43120057D02*
X29590475Y-43215295D01*
X29590475Y-43215295D02*
X29590475Y-43310533D01*
X29590475Y-43310533D02*
X29542856Y-43453390D01*
X29542856Y-43453390D02*
X28971428Y-44024819D01*
X28971428Y-44024819D02*
X29590475Y-44024819D01*
X11133333Y-43679580D02*
X11085714Y-43727200D01*
X11085714Y-43727200D02*
X10942857Y-43774819D01*
X10942857Y-43774819D02*
X10847619Y-43774819D01*
X10847619Y-43774819D02*
X10704762Y-43727200D01*
X10704762Y-43727200D02*
X10609524Y-43631961D01*
X10609524Y-43631961D02*
X10561905Y-43536723D01*
X10561905Y-43536723D02*
X10514286Y-43346247D01*
X10514286Y-43346247D02*
X10514286Y-43203390D01*
X10514286Y-43203390D02*
X10561905Y-43012914D01*
X10561905Y-43012914D02*
X10609524Y-42917676D01*
X10609524Y-42917676D02*
X10704762Y-42822438D01*
X10704762Y-42822438D02*
X10847619Y-42774819D01*
X10847619Y-42774819D02*
X10942857Y-42774819D01*
X10942857Y-42774819D02*
X11085714Y-42822438D01*
X11085714Y-42822438D02*
X11133333Y-42870057D01*
X12085714Y-43774819D02*
X11514286Y-43774819D01*
X11800000Y-43774819D02*
X11800000Y-42774819D01*
X11800000Y-42774819D02*
X11704762Y-42917676D01*
X11704762Y-42917676D02*
X11609524Y-43012914D01*
X11609524Y-43012914D02*
X11514286Y-43060533D01*
X8238095Y-46054819D02*
X8238095Y-46864342D01*
X8238095Y-46864342D02*
X8285714Y-46959580D01*
X8285714Y-46959580D02*
X8333333Y-47007200D01*
X8333333Y-47007200D02*
X8428571Y-47054819D01*
X8428571Y-47054819D02*
X8619047Y-47054819D01*
X8619047Y-47054819D02*
X8714285Y-47007200D01*
X8714285Y-47007200D02*
X8761904Y-46959580D01*
X8761904Y-46959580D02*
X8809523Y-46864342D01*
X8809523Y-46864342D02*
X8809523Y-46054819D01*
X9714285Y-46388152D02*
X9714285Y-47054819D01*
X9476190Y-46007200D02*
X9238095Y-46721485D01*
X9238095Y-46721485D02*
X9857142Y-46721485D01*
X21657141Y-50799580D02*
X21609522Y-50847200D01*
X21609522Y-50847200D02*
X21466665Y-50894819D01*
X21466665Y-50894819D02*
X21371427Y-50894819D01*
X21371427Y-50894819D02*
X21228570Y-50847200D01*
X21228570Y-50847200D02*
X21133332Y-50751961D01*
X21133332Y-50751961D02*
X21085713Y-50656723D01*
X21085713Y-50656723D02*
X21038094Y-50466247D01*
X21038094Y-50466247D02*
X21038094Y-50323390D01*
X21038094Y-50323390D02*
X21085713Y-50132914D01*
X21085713Y-50132914D02*
X21133332Y-50037676D01*
X21133332Y-50037676D02*
X21228570Y-49942438D01*
X21228570Y-49942438D02*
X21371427Y-49894819D01*
X21371427Y-49894819D02*
X21466665Y-49894819D01*
X21466665Y-49894819D02*
X21609522Y-49942438D01*
X21609522Y-49942438D02*
X21657141Y-49990057D01*
X22038094Y-49990057D02*
X22085713Y-49942438D01*
X22085713Y-49942438D02*
X22180951Y-49894819D01*
X22180951Y-49894819D02*
X22419046Y-49894819D01*
X22419046Y-49894819D02*
X22514284Y-49942438D01*
X22514284Y-49942438D02*
X22561903Y-49990057D01*
X22561903Y-49990057D02*
X22609522Y-50085295D01*
X22609522Y-50085295D02*
X22609522Y-50180533D01*
X22609522Y-50180533D02*
X22561903Y-50323390D01*
X22561903Y-50323390D02*
X21990475Y-50894819D01*
X21990475Y-50894819D02*
X22609522Y-50894819D01*
X23514284Y-49894819D02*
X23038094Y-49894819D01*
X23038094Y-49894819D02*
X22990475Y-50371009D01*
X22990475Y-50371009D02*
X23038094Y-50323390D01*
X23038094Y-50323390D02*
X23133332Y-50275771D01*
X23133332Y-50275771D02*
X23371427Y-50275771D01*
X23371427Y-50275771D02*
X23466665Y-50323390D01*
X23466665Y-50323390D02*
X23514284Y-50371009D01*
X23514284Y-50371009D02*
X23561903Y-50466247D01*
X23561903Y-50466247D02*
X23561903Y-50704342D01*
X23561903Y-50704342D02*
X23514284Y-50799580D01*
X23514284Y-50799580D02*
X23466665Y-50847200D01*
X23466665Y-50847200D02*
X23371427Y-50894819D01*
X23371427Y-50894819D02*
X23133332Y-50894819D01*
X23133332Y-50894819D02*
X23038094Y-50847200D01*
X23038094Y-50847200D02*
X22990475Y-50799580D01*
X28257141Y-53084819D02*
X27923808Y-52608628D01*
X27685713Y-53084819D02*
X27685713Y-52084819D01*
X27685713Y-52084819D02*
X28066665Y-52084819D01*
X28066665Y-52084819D02*
X28161903Y-52132438D01*
X28161903Y-52132438D02*
X28209522Y-52180057D01*
X28209522Y-52180057D02*
X28257141Y-52275295D01*
X28257141Y-52275295D02*
X28257141Y-52418152D01*
X28257141Y-52418152D02*
X28209522Y-52513390D01*
X28209522Y-52513390D02*
X28161903Y-52561009D01*
X28161903Y-52561009D02*
X28066665Y-52608628D01*
X28066665Y-52608628D02*
X27685713Y-52608628D01*
X28638094Y-52180057D02*
X28685713Y-52132438D01*
X28685713Y-52132438D02*
X28780951Y-52084819D01*
X28780951Y-52084819D02*
X29019046Y-52084819D01*
X29019046Y-52084819D02*
X29114284Y-52132438D01*
X29114284Y-52132438D02*
X29161903Y-52180057D01*
X29161903Y-52180057D02*
X29209522Y-52275295D01*
X29209522Y-52275295D02*
X29209522Y-52370533D01*
X29209522Y-52370533D02*
X29161903Y-52513390D01*
X29161903Y-52513390D02*
X28590475Y-53084819D01*
X28590475Y-53084819D02*
X29209522Y-53084819D01*
X29780951Y-52513390D02*
X29685713Y-52465771D01*
X29685713Y-52465771D02*
X29638094Y-52418152D01*
X29638094Y-52418152D02*
X29590475Y-52322914D01*
X29590475Y-52322914D02*
X29590475Y-52275295D01*
X29590475Y-52275295D02*
X29638094Y-52180057D01*
X29638094Y-52180057D02*
X29685713Y-52132438D01*
X29685713Y-52132438D02*
X29780951Y-52084819D01*
X29780951Y-52084819D02*
X29971427Y-52084819D01*
X29971427Y-52084819D02*
X30066665Y-52132438D01*
X30066665Y-52132438D02*
X30114284Y-52180057D01*
X30114284Y-52180057D02*
X30161903Y-52275295D01*
X30161903Y-52275295D02*
X30161903Y-52322914D01*
X30161903Y-52322914D02*
X30114284Y-52418152D01*
X30114284Y-52418152D02*
X30066665Y-52465771D01*
X30066665Y-52465771D02*
X29971427Y-52513390D01*
X29971427Y-52513390D02*
X29780951Y-52513390D01*
X29780951Y-52513390D02*
X29685713Y-52561009D01*
X29685713Y-52561009D02*
X29638094Y-52608628D01*
X29638094Y-52608628D02*
X29590475Y-52703866D01*
X29590475Y-52703866D02*
X29590475Y-52894342D01*
X29590475Y-52894342D02*
X29638094Y-52989580D01*
X29638094Y-52989580D02*
X29685713Y-53037200D01*
X29685713Y-53037200D02*
X29780951Y-53084819D01*
X29780951Y-53084819D02*
X29971427Y-53084819D01*
X29971427Y-53084819D02*
X30066665Y-53037200D01*
X30066665Y-53037200D02*
X30114284Y-52989580D01*
X30114284Y-52989580D02*
X30161903Y-52894342D01*
X30161903Y-52894342D02*
X30161903Y-52703866D01*
X30161903Y-52703866D02*
X30114284Y-52608628D01*
X30114284Y-52608628D02*
X30066665Y-52561009D01*
X30066665Y-52561009D02*
X29971427Y-52513390D01*
X2333333Y-44284819D02*
X2000000Y-43808628D01*
X1761905Y-44284819D02*
X1761905Y-43284819D01*
X1761905Y-43284819D02*
X2142857Y-43284819D01*
X2142857Y-43284819D02*
X2238095Y-43332438D01*
X2238095Y-43332438D02*
X2285714Y-43380057D01*
X2285714Y-43380057D02*
X2333333Y-43475295D01*
X2333333Y-43475295D02*
X2333333Y-43618152D01*
X2333333Y-43618152D02*
X2285714Y-43713390D01*
X2285714Y-43713390D02*
X2238095Y-43761009D01*
X2238095Y-43761009D02*
X2142857Y-43808628D01*
X2142857Y-43808628D02*
X1761905Y-43808628D01*
X3285714Y-44284819D02*
X2714286Y-44284819D01*
X3000000Y-44284819D02*
X3000000Y-43284819D01*
X3000000Y-43284819D02*
X2904762Y-43427676D01*
X2904762Y-43427676D02*
X2809524Y-43522914D01*
X2809524Y-43522914D02*
X2714286Y-43570533D01*
X19933332Y-43679580D02*
X19885713Y-43727200D01*
X19885713Y-43727200D02*
X19742856Y-43774819D01*
X19742856Y-43774819D02*
X19647618Y-43774819D01*
X19647618Y-43774819D02*
X19504761Y-43727200D01*
X19504761Y-43727200D02*
X19409523Y-43631961D01*
X19409523Y-43631961D02*
X19361904Y-43536723D01*
X19361904Y-43536723D02*
X19314285Y-43346247D01*
X19314285Y-43346247D02*
X19314285Y-43203390D01*
X19314285Y-43203390D02*
X19361904Y-43012914D01*
X19361904Y-43012914D02*
X19409523Y-42917676D01*
X19409523Y-42917676D02*
X19504761Y-42822438D01*
X19504761Y-42822438D02*
X19647618Y-42774819D01*
X19647618Y-42774819D02*
X19742856Y-42774819D01*
X19742856Y-42774819D02*
X19885713Y-42822438D01*
X19885713Y-42822438D02*
X19933332Y-42870057D01*
X20790475Y-43108152D02*
X20790475Y-43774819D01*
X20552380Y-42727200D02*
X20314285Y-43441485D01*
X20314285Y-43441485D02*
X20933332Y-43441485D01*
X26057141Y-48599580D02*
X26009522Y-48647200D01*
X26009522Y-48647200D02*
X25866665Y-48694819D01*
X25866665Y-48694819D02*
X25771427Y-48694819D01*
X25771427Y-48694819D02*
X25628570Y-48647200D01*
X25628570Y-48647200D02*
X25533332Y-48551961D01*
X25533332Y-48551961D02*
X25485713Y-48456723D01*
X25485713Y-48456723D02*
X25438094Y-48266247D01*
X25438094Y-48266247D02*
X25438094Y-48123390D01*
X25438094Y-48123390D02*
X25485713Y-47932914D01*
X25485713Y-47932914D02*
X25533332Y-47837676D01*
X25533332Y-47837676D02*
X25628570Y-47742438D01*
X25628570Y-47742438D02*
X25771427Y-47694819D01*
X25771427Y-47694819D02*
X25866665Y-47694819D01*
X25866665Y-47694819D02*
X26009522Y-47742438D01*
X26009522Y-47742438D02*
X26057141Y-47790057D01*
X27009522Y-48694819D02*
X26438094Y-48694819D01*
X26723808Y-48694819D02*
X26723808Y-47694819D01*
X26723808Y-47694819D02*
X26628570Y-47837676D01*
X26628570Y-47837676D02*
X26533332Y-47932914D01*
X26533332Y-47932914D02*
X26438094Y-47980533D01*
X27866665Y-48028152D02*
X27866665Y-48694819D01*
X27628570Y-47647200D02*
X27390475Y-48361485D01*
X27390475Y-48361485D02*
X28009522Y-48361485D01*
X15057142Y-50799580D02*
X15009523Y-50847200D01*
X15009523Y-50847200D02*
X14866666Y-50894819D01*
X14866666Y-50894819D02*
X14771428Y-50894819D01*
X14771428Y-50894819D02*
X14628571Y-50847200D01*
X14628571Y-50847200D02*
X14533333Y-50751961D01*
X14533333Y-50751961D02*
X14485714Y-50656723D01*
X14485714Y-50656723D02*
X14438095Y-50466247D01*
X14438095Y-50466247D02*
X14438095Y-50323390D01*
X14438095Y-50323390D02*
X14485714Y-50132914D01*
X14485714Y-50132914D02*
X14533333Y-50037676D01*
X14533333Y-50037676D02*
X14628571Y-49942438D01*
X14628571Y-49942438D02*
X14771428Y-49894819D01*
X14771428Y-49894819D02*
X14866666Y-49894819D01*
X14866666Y-49894819D02*
X15009523Y-49942438D01*
X15009523Y-49942438D02*
X15057142Y-49990057D01*
X15438095Y-49990057D02*
X15485714Y-49942438D01*
X15485714Y-49942438D02*
X15580952Y-49894819D01*
X15580952Y-49894819D02*
X15819047Y-49894819D01*
X15819047Y-49894819D02*
X15914285Y-49942438D01*
X15914285Y-49942438D02*
X15961904Y-49990057D01*
X15961904Y-49990057D02*
X16009523Y-50085295D01*
X16009523Y-50085295D02*
X16009523Y-50180533D01*
X16009523Y-50180533D02*
X15961904Y-50323390D01*
X15961904Y-50323390D02*
X15390476Y-50894819D01*
X15390476Y-50894819D02*
X16009523Y-50894819D01*
X16390476Y-49990057D02*
X16438095Y-49942438D01*
X16438095Y-49942438D02*
X16533333Y-49894819D01*
X16533333Y-49894819D02*
X16771428Y-49894819D01*
X16771428Y-49894819D02*
X16866666Y-49942438D01*
X16866666Y-49942438D02*
X16914285Y-49990057D01*
X16914285Y-49990057D02*
X16961904Y-50085295D01*
X16961904Y-50085295D02*
X16961904Y-50180533D01*
X16961904Y-50180533D02*
X16914285Y-50323390D01*
X16914285Y-50323390D02*
X16342857Y-50894819D01*
X16342857Y-50894819D02*
X16961904Y-50894819D01*
X14961905Y-42954819D02*
X14961905Y-41954819D01*
X14961905Y-41954819D02*
X15200000Y-41954819D01*
X15200000Y-41954819D02*
X15342857Y-42002438D01*
X15342857Y-42002438D02*
X15438095Y-42097676D01*
X15438095Y-42097676D02*
X15485714Y-42192914D01*
X15485714Y-42192914D02*
X15533333Y-42383390D01*
X15533333Y-42383390D02*
X15533333Y-42526247D01*
X15533333Y-42526247D02*
X15485714Y-42716723D01*
X15485714Y-42716723D02*
X15438095Y-42811961D01*
X15438095Y-42811961D02*
X15342857Y-42907200D01*
X15342857Y-42907200D02*
X15200000Y-42954819D01*
X15200000Y-42954819D02*
X14961905Y-42954819D01*
X15914286Y-42050057D02*
X15961905Y-42002438D01*
X15961905Y-42002438D02*
X16057143Y-41954819D01*
X16057143Y-41954819D02*
X16295238Y-41954819D01*
X16295238Y-41954819D02*
X16390476Y-42002438D01*
X16390476Y-42002438D02*
X16438095Y-42050057D01*
X16438095Y-42050057D02*
X16485714Y-42145295D01*
X16485714Y-42145295D02*
X16485714Y-42240533D01*
X16485714Y-42240533D02*
X16438095Y-42383390D01*
X16438095Y-42383390D02*
X15866667Y-42954819D01*
X15866667Y-42954819D02*
X16485714Y-42954819D01*
X15238095Y-22854819D02*
X15238095Y-23664342D01*
X15238095Y-23664342D02*
X15285714Y-23759580D01*
X15285714Y-23759580D02*
X15333333Y-23807200D01*
X15333333Y-23807200D02*
X15428571Y-23854819D01*
X15428571Y-23854819D02*
X15619047Y-23854819D01*
X15619047Y-23854819D02*
X15714285Y-23807200D01*
X15714285Y-23807200D02*
X15761904Y-23759580D01*
X15761904Y-23759580D02*
X15809523Y-23664342D01*
X15809523Y-23664342D02*
X15809523Y-22854819D01*
X16809523Y-23854819D02*
X16238095Y-23854819D01*
X16523809Y-23854819D02*
X16523809Y-22854819D01*
X16523809Y-22854819D02*
X16428571Y-22997676D01*
X16428571Y-22997676D02*
X16333333Y-23092914D01*
X16333333Y-23092914D02*
X16238095Y-23140533D01*
X15057142Y-48684819D02*
X14723809Y-48208628D01*
X14485714Y-48684819D02*
X14485714Y-47684819D01*
X14485714Y-47684819D02*
X14866666Y-47684819D01*
X14866666Y-47684819D02*
X14961904Y-47732438D01*
X14961904Y-47732438D02*
X15009523Y-47780057D01*
X15009523Y-47780057D02*
X15057142Y-47875295D01*
X15057142Y-47875295D02*
X15057142Y-48018152D01*
X15057142Y-48018152D02*
X15009523Y-48113390D01*
X15009523Y-48113390D02*
X14961904Y-48161009D01*
X14961904Y-48161009D02*
X14866666Y-48208628D01*
X14866666Y-48208628D02*
X14485714Y-48208628D01*
X15438095Y-47780057D02*
X15485714Y-47732438D01*
X15485714Y-47732438D02*
X15580952Y-47684819D01*
X15580952Y-47684819D02*
X15819047Y-47684819D01*
X15819047Y-47684819D02*
X15914285Y-47732438D01*
X15914285Y-47732438D02*
X15961904Y-47780057D01*
X15961904Y-47780057D02*
X16009523Y-47875295D01*
X16009523Y-47875295D02*
X16009523Y-47970533D01*
X16009523Y-47970533D02*
X15961904Y-48113390D01*
X15961904Y-48113390D02*
X15390476Y-48684819D01*
X15390476Y-48684819D02*
X16009523Y-48684819D01*
X16628571Y-47684819D02*
X16723809Y-47684819D01*
X16723809Y-47684819D02*
X16819047Y-47732438D01*
X16819047Y-47732438D02*
X16866666Y-47780057D01*
X16866666Y-47780057D02*
X16914285Y-47875295D01*
X16914285Y-47875295D02*
X16961904Y-48065771D01*
X16961904Y-48065771D02*
X16961904Y-48303866D01*
X16961904Y-48303866D02*
X16914285Y-48494342D01*
X16914285Y-48494342D02*
X16866666Y-48589580D01*
X16866666Y-48589580D02*
X16819047Y-48637200D01*
X16819047Y-48637200D02*
X16723809Y-48684819D01*
X16723809Y-48684819D02*
X16628571Y-48684819D01*
X16628571Y-48684819D02*
X16533333Y-48637200D01*
X16533333Y-48637200D02*
X16485714Y-48589580D01*
X16485714Y-48589580D02*
X16438095Y-48494342D01*
X16438095Y-48494342D02*
X16390476Y-48303866D01*
X16390476Y-48303866D02*
X16390476Y-48065771D01*
X16390476Y-48065771D02*
X16438095Y-47875295D01*
X16438095Y-47875295D02*
X16485714Y-47780057D01*
X16485714Y-47780057D02*
X16533333Y-47732438D01*
X16533333Y-47732438D02*
X16628571Y-47684819D01*
X25666667Y-33807200D02*
X25809524Y-33854819D01*
X25809524Y-33854819D02*
X26047619Y-33854819D01*
X26047619Y-33854819D02*
X26142857Y-33807200D01*
X26142857Y-33807200D02*
X26190476Y-33759580D01*
X26190476Y-33759580D02*
X26238095Y-33664342D01*
X26238095Y-33664342D02*
X26238095Y-33569104D01*
X26238095Y-33569104D02*
X26190476Y-33473866D01*
X26190476Y-33473866D02*
X26142857Y-33426247D01*
X26142857Y-33426247D02*
X26047619Y-33378628D01*
X26047619Y-33378628D02*
X25857143Y-33331009D01*
X25857143Y-33331009D02*
X25761905Y-33283390D01*
X25761905Y-33283390D02*
X25714286Y-33235771D01*
X25714286Y-33235771D02*
X25666667Y-33140533D01*
X25666667Y-33140533D02*
X25666667Y-33045295D01*
X25666667Y-33045295D02*
X25714286Y-32950057D01*
X25714286Y-32950057D02*
X25761905Y-32902438D01*
X25761905Y-32902438D02*
X25857143Y-32854819D01*
X25857143Y-32854819D02*
X26095238Y-32854819D01*
X26095238Y-32854819D02*
X26238095Y-32902438D01*
X26571429Y-32854819D02*
X26809524Y-33854819D01*
X26809524Y-33854819D02*
X27000000Y-33140533D01*
X27000000Y-33140533D02*
X27190476Y-33854819D01*
X27190476Y-33854819D02*
X27428572Y-32854819D01*
X27761905Y-32950057D02*
X27809524Y-32902438D01*
X27809524Y-32902438D02*
X27904762Y-32854819D01*
X27904762Y-32854819D02*
X28142857Y-32854819D01*
X28142857Y-32854819D02*
X28238095Y-32902438D01*
X28238095Y-32902438D02*
X28285714Y-32950057D01*
X28285714Y-32950057D02*
X28333333Y-33045295D01*
X28333333Y-33045295D02*
X28333333Y-33140533D01*
X28333333Y-33140533D02*
X28285714Y-33283390D01*
X28285714Y-33283390D02*
X27714286Y-33854819D01*
X27714286Y-33854819D02*
X28333333Y-33854819D01*
X19238095Y-47054819D02*
X19238095Y-47864342D01*
X19238095Y-47864342D02*
X19285714Y-47959580D01*
X19285714Y-47959580D02*
X19333333Y-48007200D01*
X19333333Y-48007200D02*
X19428571Y-48054819D01*
X19428571Y-48054819D02*
X19619047Y-48054819D01*
X19619047Y-48054819D02*
X19714285Y-48007200D01*
X19714285Y-48007200D02*
X19761904Y-47959580D01*
X19761904Y-47959580D02*
X19809523Y-47864342D01*
X19809523Y-47864342D02*
X19809523Y-47054819D01*
X20761904Y-47054819D02*
X20285714Y-47054819D01*
X20285714Y-47054819D02*
X20238095Y-47531009D01*
X20238095Y-47531009D02*
X20285714Y-47483390D01*
X20285714Y-47483390D02*
X20380952Y-47435771D01*
X20380952Y-47435771D02*
X20619047Y-47435771D01*
X20619047Y-47435771D02*
X20714285Y-47483390D01*
X20714285Y-47483390D02*
X20761904Y-47531009D01*
X20761904Y-47531009D02*
X20809523Y-47626247D01*
X20809523Y-47626247D02*
X20809523Y-47864342D01*
X20809523Y-47864342D02*
X20761904Y-47959580D01*
X20761904Y-47959580D02*
X20714285Y-48007200D01*
X20714285Y-48007200D02*
X20619047Y-48054819D01*
X20619047Y-48054819D02*
X20380952Y-48054819D01*
X20380952Y-48054819D02*
X20285714Y-48007200D01*
X20285714Y-48007200D02*
X20238095Y-47959580D01*
X10657142Y-52999580D02*
X10609523Y-53047200D01*
X10609523Y-53047200D02*
X10466666Y-53094819D01*
X10466666Y-53094819D02*
X10371428Y-53094819D01*
X10371428Y-53094819D02*
X10228571Y-53047200D01*
X10228571Y-53047200D02*
X10133333Y-52951961D01*
X10133333Y-52951961D02*
X10085714Y-52856723D01*
X10085714Y-52856723D02*
X10038095Y-52666247D01*
X10038095Y-52666247D02*
X10038095Y-52523390D01*
X10038095Y-52523390D02*
X10085714Y-52332914D01*
X10085714Y-52332914D02*
X10133333Y-52237676D01*
X10133333Y-52237676D02*
X10228571Y-52142438D01*
X10228571Y-52142438D02*
X10371428Y-52094819D01*
X10371428Y-52094819D02*
X10466666Y-52094819D01*
X10466666Y-52094819D02*
X10609523Y-52142438D01*
X10609523Y-52142438D02*
X10657142Y-52190057D01*
X10990476Y-52094819D02*
X11609523Y-52094819D01*
X11609523Y-52094819D02*
X11276190Y-52475771D01*
X11276190Y-52475771D02*
X11419047Y-52475771D01*
X11419047Y-52475771D02*
X11514285Y-52523390D01*
X11514285Y-52523390D02*
X11561904Y-52571009D01*
X11561904Y-52571009D02*
X11609523Y-52666247D01*
X11609523Y-52666247D02*
X11609523Y-52904342D01*
X11609523Y-52904342D02*
X11561904Y-52999580D01*
X11561904Y-52999580D02*
X11514285Y-53047200D01*
X11514285Y-53047200D02*
X11419047Y-53094819D01*
X11419047Y-53094819D02*
X11133333Y-53094819D01*
X11133333Y-53094819D02*
X11038095Y-53047200D01*
X11038095Y-53047200D02*
X10990476Y-52999580D01*
X11942857Y-52094819D02*
X12561904Y-52094819D01*
X12561904Y-52094819D02*
X12228571Y-52475771D01*
X12228571Y-52475771D02*
X12371428Y-52475771D01*
X12371428Y-52475771D02*
X12466666Y-52523390D01*
X12466666Y-52523390D02*
X12514285Y-52571009D01*
X12514285Y-52571009D02*
X12561904Y-52666247D01*
X12561904Y-52666247D02*
X12561904Y-52904342D01*
X12561904Y-52904342D02*
X12514285Y-52999580D01*
X12514285Y-52999580D02*
X12466666Y-53047200D01*
X12466666Y-53047200D02*
X12371428Y-53094819D01*
X12371428Y-53094819D02*
X12085714Y-53094819D01*
X12085714Y-53094819D02*
X11990476Y-53047200D01*
X11990476Y-53047200D02*
X11942857Y-52999580D01*
X15533333Y-46399580D02*
X15485714Y-46447200D01*
X15485714Y-46447200D02*
X15342857Y-46494819D01*
X15342857Y-46494819D02*
X15247619Y-46494819D01*
X15247619Y-46494819D02*
X15104762Y-46447200D01*
X15104762Y-46447200D02*
X15009524Y-46351961D01*
X15009524Y-46351961D02*
X14961905Y-46256723D01*
X14961905Y-46256723D02*
X14914286Y-46066247D01*
X14914286Y-46066247D02*
X14914286Y-45923390D01*
X14914286Y-45923390D02*
X14961905Y-45732914D01*
X14961905Y-45732914D02*
X15009524Y-45637676D01*
X15009524Y-45637676D02*
X15104762Y-45542438D01*
X15104762Y-45542438D02*
X15247619Y-45494819D01*
X15247619Y-45494819D02*
X15342857Y-45494819D01*
X15342857Y-45494819D02*
X15485714Y-45542438D01*
X15485714Y-45542438D02*
X15533333Y-45590057D01*
X16009524Y-46494819D02*
X16200000Y-46494819D01*
X16200000Y-46494819D02*
X16295238Y-46447200D01*
X16295238Y-46447200D02*
X16342857Y-46399580D01*
X16342857Y-46399580D02*
X16438095Y-46256723D01*
X16438095Y-46256723D02*
X16485714Y-46066247D01*
X16485714Y-46066247D02*
X16485714Y-45685295D01*
X16485714Y-45685295D02*
X16438095Y-45590057D01*
X16438095Y-45590057D02*
X16390476Y-45542438D01*
X16390476Y-45542438D02*
X16295238Y-45494819D01*
X16295238Y-45494819D02*
X16104762Y-45494819D01*
X16104762Y-45494819D02*
X16009524Y-45542438D01*
X16009524Y-45542438D02*
X15961905Y-45590057D01*
X15961905Y-45590057D02*
X15914286Y-45685295D01*
X15914286Y-45685295D02*
X15914286Y-45923390D01*
X15914286Y-45923390D02*
X15961905Y-46018628D01*
X15961905Y-46018628D02*
X16009524Y-46066247D01*
X16009524Y-46066247D02*
X16104762Y-46113866D01*
X16104762Y-46113866D02*
X16295238Y-46113866D01*
X16295238Y-46113866D02*
X16390476Y-46066247D01*
X16390476Y-46066247D02*
X16438095Y-46018628D01*
X16438095Y-46018628D02*
X16485714Y-45923390D01*
X4533333Y-46484819D02*
X4200000Y-46008628D01*
X3961905Y-46484819D02*
X3961905Y-45484819D01*
X3961905Y-45484819D02*
X4342857Y-45484819D01*
X4342857Y-45484819D02*
X4438095Y-45532438D01*
X4438095Y-45532438D02*
X4485714Y-45580057D01*
X4485714Y-45580057D02*
X4533333Y-45675295D01*
X4533333Y-45675295D02*
X4533333Y-45818152D01*
X4533333Y-45818152D02*
X4485714Y-45913390D01*
X4485714Y-45913390D02*
X4438095Y-45961009D01*
X4438095Y-45961009D02*
X4342857Y-46008628D01*
X4342857Y-46008628D02*
X3961905Y-46008628D01*
X4866667Y-45484819D02*
X5533333Y-45484819D01*
X5533333Y-45484819D02*
X5104762Y-46484819D01*
X21657141Y-46484819D02*
X21323808Y-46008628D01*
X21085713Y-46484819D02*
X21085713Y-45484819D01*
X21085713Y-45484819D02*
X21466665Y-45484819D01*
X21466665Y-45484819D02*
X21561903Y-45532438D01*
X21561903Y-45532438D02*
X21609522Y-45580057D01*
X21609522Y-45580057D02*
X21657141Y-45675295D01*
X21657141Y-45675295D02*
X21657141Y-45818152D01*
X21657141Y-45818152D02*
X21609522Y-45913390D01*
X21609522Y-45913390D02*
X21561903Y-45961009D01*
X21561903Y-45961009D02*
X21466665Y-46008628D01*
X21466665Y-46008628D02*
X21085713Y-46008628D01*
X22609522Y-46484819D02*
X22038094Y-46484819D01*
X22323808Y-46484819D02*
X22323808Y-45484819D01*
X22323808Y-45484819D02*
X22228570Y-45627676D01*
X22228570Y-45627676D02*
X22133332Y-45722914D01*
X22133332Y-45722914D02*
X22038094Y-45770533D01*
X23228570Y-45484819D02*
X23323808Y-45484819D01*
X23323808Y-45484819D02*
X23419046Y-45532438D01*
X23419046Y-45532438D02*
X23466665Y-45580057D01*
X23466665Y-45580057D02*
X23514284Y-45675295D01*
X23514284Y-45675295D02*
X23561903Y-45865771D01*
X23561903Y-45865771D02*
X23561903Y-46103866D01*
X23561903Y-46103866D02*
X23514284Y-46294342D01*
X23514284Y-46294342D02*
X23466665Y-46389580D01*
X23466665Y-46389580D02*
X23419046Y-46437200D01*
X23419046Y-46437200D02*
X23323808Y-46484819D01*
X23323808Y-46484819D02*
X23228570Y-46484819D01*
X23228570Y-46484819D02*
X23133332Y-46437200D01*
X23133332Y-46437200D02*
X23085713Y-46389580D01*
X23085713Y-46389580D02*
X23038094Y-46294342D01*
X23038094Y-46294342D02*
X22990475Y-46103866D01*
X22990475Y-46103866D02*
X22990475Y-45865771D01*
X22990475Y-45865771D02*
X23038094Y-45675295D01*
X23038094Y-45675295D02*
X23085713Y-45580057D01*
X23085713Y-45580057D02*
X23133332Y-45532438D01*
X23133332Y-45532438D02*
X23228570Y-45484819D01*
X15666666Y-55654819D02*
X15666666Y-56369104D01*
X15666666Y-56369104D02*
X15619047Y-56511961D01*
X15619047Y-56511961D02*
X15523809Y-56607200D01*
X15523809Y-56607200D02*
X15380952Y-56654819D01*
X15380952Y-56654819D02*
X15285714Y-56654819D01*
X16666666Y-56654819D02*
X16095238Y-56654819D01*
X16380952Y-56654819D02*
X16380952Y-55654819D01*
X16380952Y-55654819D02*
X16285714Y-55797676D01*
X16285714Y-55797676D02*
X16190476Y-55892914D01*
X16190476Y-55892914D02*
X16095238Y-55940533D01*
X15666666Y-754819D02*
X15666666Y-1469104D01*
X15666666Y-1469104D02*
X15619047Y-1611961D01*
X15619047Y-1611961D02*
X15523809Y-1707200D01*
X15523809Y-1707200D02*
X15380952Y-1754819D01*
X15380952Y-1754819D02*
X15285714Y-1754819D01*
X16571428Y-1088152D02*
X16571428Y-1754819D01*
X16333333Y-707200D02*
X16095238Y-1421485D01*
X16095238Y-1421485D02*
X16714285Y-1421485D01*
X17257142Y-50799580D02*
X17209523Y-50847200D01*
X17209523Y-50847200D02*
X17066666Y-50894819D01*
X17066666Y-50894819D02*
X16971428Y-50894819D01*
X16971428Y-50894819D02*
X16828571Y-50847200D01*
X16828571Y-50847200D02*
X16733333Y-50751961D01*
X16733333Y-50751961D02*
X16685714Y-50656723D01*
X16685714Y-50656723D02*
X16638095Y-50466247D01*
X16638095Y-50466247D02*
X16638095Y-50323390D01*
X16638095Y-50323390D02*
X16685714Y-50132914D01*
X16685714Y-50132914D02*
X16733333Y-50037676D01*
X16733333Y-50037676D02*
X16828571Y-49942438D01*
X16828571Y-49942438D02*
X16971428Y-49894819D01*
X16971428Y-49894819D02*
X17066666Y-49894819D01*
X17066666Y-49894819D02*
X17209523Y-49942438D01*
X17209523Y-49942438D02*
X17257142Y-49990057D01*
X17638095Y-49990057D02*
X17685714Y-49942438D01*
X17685714Y-49942438D02*
X17780952Y-49894819D01*
X17780952Y-49894819D02*
X18019047Y-49894819D01*
X18019047Y-49894819D02*
X18114285Y-49942438D01*
X18114285Y-49942438D02*
X18161904Y-49990057D01*
X18161904Y-49990057D02*
X18209523Y-50085295D01*
X18209523Y-50085295D02*
X18209523Y-50180533D01*
X18209523Y-50180533D02*
X18161904Y-50323390D01*
X18161904Y-50323390D02*
X17590476Y-50894819D01*
X17590476Y-50894819D02*
X18209523Y-50894819D01*
X18542857Y-49894819D02*
X19161904Y-49894819D01*
X19161904Y-49894819D02*
X18828571Y-50275771D01*
X18828571Y-50275771D02*
X18971428Y-50275771D01*
X18971428Y-50275771D02*
X19066666Y-50323390D01*
X19066666Y-50323390D02*
X19114285Y-50371009D01*
X19114285Y-50371009D02*
X19161904Y-50466247D01*
X19161904Y-50466247D02*
X19161904Y-50704342D01*
X19161904Y-50704342D02*
X19114285Y-50799580D01*
X19114285Y-50799580D02*
X19066666Y-50847200D01*
X19066666Y-50847200D02*
X18971428Y-50894819D01*
X18971428Y-50894819D02*
X18685714Y-50894819D01*
X18685714Y-50894819D02*
X18590476Y-50847200D01*
X18590476Y-50847200D02*
X18542857Y-50799580D01*
X26904761Y-8150057D02*
X26809523Y-8102438D01*
X26809523Y-8102438D02*
X26714285Y-8007200D01*
X26714285Y-8007200D02*
X26571428Y-7864342D01*
X26571428Y-7864342D02*
X26476190Y-7816723D01*
X26476190Y-7816723D02*
X26380952Y-7816723D01*
X26428571Y-8054819D02*
X26333333Y-8007200D01*
X26333333Y-8007200D02*
X26238095Y-7911961D01*
X26238095Y-7911961D02*
X26190476Y-7721485D01*
X26190476Y-7721485D02*
X26190476Y-7388152D01*
X26190476Y-7388152D02*
X26238095Y-7197676D01*
X26238095Y-7197676D02*
X26333333Y-7102438D01*
X26333333Y-7102438D02*
X26428571Y-7054819D01*
X26428571Y-7054819D02*
X26619047Y-7054819D01*
X26619047Y-7054819D02*
X26714285Y-7102438D01*
X26714285Y-7102438D02*
X26809523Y-7197676D01*
X26809523Y-7197676D02*
X26857142Y-7388152D01*
X26857142Y-7388152D02*
X26857142Y-7721485D01*
X26857142Y-7721485D02*
X26809523Y-7911961D01*
X26809523Y-7911961D02*
X26714285Y-8007200D01*
X26714285Y-8007200D02*
X26619047Y-8054819D01*
X26619047Y-8054819D02*
X26428571Y-8054819D01*
X27809523Y-8054819D02*
X27238095Y-8054819D01*
X27523809Y-8054819D02*
X27523809Y-7054819D01*
X27523809Y-7054819D02*
X27428571Y-7197676D01*
X27428571Y-7197676D02*
X27333333Y-7292914D01*
X27333333Y-7292914D02*
X27238095Y-7340533D01*
X10238095Y-33654819D02*
X10238095Y-34464342D01*
X10238095Y-34464342D02*
X10285714Y-34559580D01*
X10285714Y-34559580D02*
X10333333Y-34607200D01*
X10333333Y-34607200D02*
X10428571Y-34654819D01*
X10428571Y-34654819D02*
X10619047Y-34654819D01*
X10619047Y-34654819D02*
X10714285Y-34607200D01*
X10714285Y-34607200D02*
X10761904Y-34559580D01*
X10761904Y-34559580D02*
X10809523Y-34464342D01*
X10809523Y-34464342D02*
X10809523Y-33654819D01*
X11714285Y-33654819D02*
X11523809Y-33654819D01*
X11523809Y-33654819D02*
X11428571Y-33702438D01*
X11428571Y-33702438D02*
X11380952Y-33750057D01*
X11380952Y-33750057D02*
X11285714Y-33892914D01*
X11285714Y-33892914D02*
X11238095Y-34083390D01*
X11238095Y-34083390D02*
X11238095Y-34464342D01*
X11238095Y-34464342D02*
X11285714Y-34559580D01*
X11285714Y-34559580D02*
X11333333Y-34607200D01*
X11333333Y-34607200D02*
X11428571Y-34654819D01*
X11428571Y-34654819D02*
X11619047Y-34654819D01*
X11619047Y-34654819D02*
X11714285Y-34607200D01*
X11714285Y-34607200D02*
X11761904Y-34559580D01*
X11761904Y-34559580D02*
X11809523Y-34464342D01*
X11809523Y-34464342D02*
X11809523Y-34226247D01*
X11809523Y-34226247D02*
X11761904Y-34131009D01*
X11761904Y-34131009D02*
X11714285Y-34083390D01*
X11714285Y-34083390D02*
X11619047Y-34035771D01*
X11619047Y-34035771D02*
X11428571Y-34035771D01*
X11428571Y-34035771D02*
X11333333Y-34083390D01*
X11333333Y-34083390D02*
X11285714Y-34131009D01*
X11285714Y-34131009D02*
X11238095Y-34226247D01*
X28257141Y-48599580D02*
X28209522Y-48647200D01*
X28209522Y-48647200D02*
X28066665Y-48694819D01*
X28066665Y-48694819D02*
X27971427Y-48694819D01*
X27971427Y-48694819D02*
X27828570Y-48647200D01*
X27828570Y-48647200D02*
X27733332Y-48551961D01*
X27733332Y-48551961D02*
X27685713Y-48456723D01*
X27685713Y-48456723D02*
X27638094Y-48266247D01*
X27638094Y-48266247D02*
X27638094Y-48123390D01*
X27638094Y-48123390D02*
X27685713Y-47932914D01*
X27685713Y-47932914D02*
X27733332Y-47837676D01*
X27733332Y-47837676D02*
X27828570Y-47742438D01*
X27828570Y-47742438D02*
X27971427Y-47694819D01*
X27971427Y-47694819D02*
X28066665Y-47694819D01*
X28066665Y-47694819D02*
X28209522Y-47742438D01*
X28209522Y-47742438D02*
X28257141Y-47790057D01*
X29209522Y-48694819D02*
X28638094Y-48694819D01*
X28923808Y-48694819D02*
X28923808Y-47694819D01*
X28923808Y-47694819D02*
X28828570Y-47837676D01*
X28828570Y-47837676D02*
X28733332Y-47932914D01*
X28733332Y-47932914D02*
X28638094Y-47980533D01*
X30114284Y-47694819D02*
X29638094Y-47694819D01*
X29638094Y-47694819D02*
X29590475Y-48171009D01*
X29590475Y-48171009D02*
X29638094Y-48123390D01*
X29638094Y-48123390D02*
X29733332Y-48075771D01*
X29733332Y-48075771D02*
X29971427Y-48075771D01*
X29971427Y-48075771D02*
X30066665Y-48123390D01*
X30066665Y-48123390D02*
X30114284Y-48171009D01*
X30114284Y-48171009D02*
X30161903Y-48266247D01*
X30161903Y-48266247D02*
X30161903Y-48504342D01*
X30161903Y-48504342D02*
X30114284Y-48599580D01*
X30114284Y-48599580D02*
X30066665Y-48647200D01*
X30066665Y-48647200D02*
X29971427Y-48694819D01*
X29971427Y-48694819D02*
X29733332Y-48694819D01*
X29733332Y-48694819D02*
X29638094Y-48647200D01*
X29638094Y-48647200D02*
X29590475Y-48599580D01*
X21523809Y-21528628D02*
X21523809Y-22004819D01*
X21190476Y-21004819D02*
X21523809Y-21528628D01*
X21523809Y-21528628D02*
X21857142Y-21004819D01*
X22714285Y-22004819D02*
X22142857Y-22004819D01*
X22428571Y-22004819D02*
X22428571Y-21004819D01*
X22428571Y-21004819D02*
X22333333Y-21147676D01*
X22333333Y-21147676D02*
X22238095Y-21242914D01*
X22238095Y-21242914D02*
X22142857Y-21290533D01*
X8933333Y-46399580D02*
X8885714Y-46447200D01*
X8885714Y-46447200D02*
X8742857Y-46494819D01*
X8742857Y-46494819D02*
X8647619Y-46494819D01*
X8647619Y-46494819D02*
X8504762Y-46447200D01*
X8504762Y-46447200D02*
X8409524Y-46351961D01*
X8409524Y-46351961D02*
X8361905Y-46256723D01*
X8361905Y-46256723D02*
X8314286Y-46066247D01*
X8314286Y-46066247D02*
X8314286Y-45923390D01*
X8314286Y-45923390D02*
X8361905Y-45732914D01*
X8361905Y-45732914D02*
X8409524Y-45637676D01*
X8409524Y-45637676D02*
X8504762Y-45542438D01*
X8504762Y-45542438D02*
X8647619Y-45494819D01*
X8647619Y-45494819D02*
X8742857Y-45494819D01*
X8742857Y-45494819D02*
X8885714Y-45542438D01*
X8885714Y-45542438D02*
X8933333Y-45590057D01*
X9790476Y-45494819D02*
X9600000Y-45494819D01*
X9600000Y-45494819D02*
X9504762Y-45542438D01*
X9504762Y-45542438D02*
X9457143Y-45590057D01*
X9457143Y-45590057D02*
X9361905Y-45732914D01*
X9361905Y-45732914D02*
X9314286Y-45923390D01*
X9314286Y-45923390D02*
X9314286Y-46304342D01*
X9314286Y-46304342D02*
X9361905Y-46399580D01*
X9361905Y-46399580D02*
X9409524Y-46447200D01*
X9409524Y-46447200D02*
X9504762Y-46494819D01*
X9504762Y-46494819D02*
X9695238Y-46494819D01*
X9695238Y-46494819D02*
X9790476Y-46447200D01*
X9790476Y-46447200D02*
X9838095Y-46399580D01*
X9838095Y-46399580D02*
X9885714Y-46304342D01*
X9885714Y-46304342D02*
X9885714Y-46066247D01*
X9885714Y-46066247D02*
X9838095Y-45971009D01*
X9838095Y-45971009D02*
X9790476Y-45923390D01*
X9790476Y-45923390D02*
X9695238Y-45875771D01*
X9695238Y-45875771D02*
X9504762Y-45875771D01*
X9504762Y-45875771D02*
X9409524Y-45923390D01*
X9409524Y-45923390D02*
X9361905Y-45971009D01*
X9361905Y-45971009D02*
X9314286Y-46066247D01*
X10657142Y-55199580D02*
X10609523Y-55247200D01*
X10609523Y-55247200D02*
X10466666Y-55294819D01*
X10466666Y-55294819D02*
X10371428Y-55294819D01*
X10371428Y-55294819D02*
X10228571Y-55247200D01*
X10228571Y-55247200D02*
X10133333Y-55151961D01*
X10133333Y-55151961D02*
X10085714Y-55056723D01*
X10085714Y-55056723D02*
X10038095Y-54866247D01*
X10038095Y-54866247D02*
X10038095Y-54723390D01*
X10038095Y-54723390D02*
X10085714Y-54532914D01*
X10085714Y-54532914D02*
X10133333Y-54437676D01*
X10133333Y-54437676D02*
X10228571Y-54342438D01*
X10228571Y-54342438D02*
X10371428Y-54294819D01*
X10371428Y-54294819D02*
X10466666Y-54294819D01*
X10466666Y-54294819D02*
X10609523Y-54342438D01*
X10609523Y-54342438D02*
X10657142Y-54390057D01*
X10990476Y-54294819D02*
X11609523Y-54294819D01*
X11609523Y-54294819D02*
X11276190Y-54675771D01*
X11276190Y-54675771D02*
X11419047Y-54675771D01*
X11419047Y-54675771D02*
X11514285Y-54723390D01*
X11514285Y-54723390D02*
X11561904Y-54771009D01*
X11561904Y-54771009D02*
X11609523Y-54866247D01*
X11609523Y-54866247D02*
X11609523Y-55104342D01*
X11609523Y-55104342D02*
X11561904Y-55199580D01*
X11561904Y-55199580D02*
X11514285Y-55247200D01*
X11514285Y-55247200D02*
X11419047Y-55294819D01*
X11419047Y-55294819D02*
X11133333Y-55294819D01*
X11133333Y-55294819D02*
X11038095Y-55247200D01*
X11038095Y-55247200D02*
X10990476Y-55199580D01*
X12466666Y-54628152D02*
X12466666Y-55294819D01*
X12228571Y-54247200D02*
X11990476Y-54961485D01*
X11990476Y-54961485D02*
X12609523Y-54961485D01*
X17161905Y-51754819D02*
X17161905Y-50754819D01*
X17161905Y-50754819D02*
X17400000Y-50754819D01*
X17400000Y-50754819D02*
X17542857Y-50802438D01*
X17542857Y-50802438D02*
X17638095Y-50897676D01*
X17638095Y-50897676D02*
X17685714Y-50992914D01*
X17685714Y-50992914D02*
X17733333Y-51183390D01*
X17733333Y-51183390D02*
X17733333Y-51326247D01*
X17733333Y-51326247D02*
X17685714Y-51516723D01*
X17685714Y-51516723D02*
X17638095Y-51611961D01*
X17638095Y-51611961D02*
X17542857Y-51707200D01*
X17542857Y-51707200D02*
X17400000Y-51754819D01*
X17400000Y-51754819D02*
X17161905Y-51754819D01*
X18066667Y-50754819D02*
X18685714Y-50754819D01*
X18685714Y-50754819D02*
X18352381Y-51135771D01*
X18352381Y-51135771D02*
X18495238Y-51135771D01*
X18495238Y-51135771D02*
X18590476Y-51183390D01*
X18590476Y-51183390D02*
X18638095Y-51231009D01*
X18638095Y-51231009D02*
X18685714Y-51326247D01*
X18685714Y-51326247D02*
X18685714Y-51564342D01*
X18685714Y-51564342D02*
X18638095Y-51659580D01*
X18638095Y-51659580D02*
X18590476Y-51707200D01*
X18590476Y-51707200D02*
X18495238Y-51754819D01*
X18495238Y-51754819D02*
X18209524Y-51754819D01*
X18209524Y-51754819D02*
X18114286Y-51707200D01*
X18114286Y-51707200D02*
X18066667Y-51659580D01*
D13*
%TO.C,C29*%
X2392164Y-53440000D02*
X2607836Y-53440000D01*
X2392164Y-54160000D02*
X2607836Y-54160000D01*
%TO.C,C27*%
X26559419Y-51090000D02*
X26840579Y-51090000D01*
X26559419Y-52110000D02*
X26840579Y-52110000D01*
%TO.C,C20*%
X11192164Y-51240000D02*
X11407836Y-51240000D01*
X11192164Y-51960000D02*
X11407836Y-51960000D01*
%TO.C,R9*%
X17746359Y-46820000D02*
X18053641Y-46820000D01*
X17746359Y-47580000D02*
X18053641Y-47580000D01*
%TO.C,C12*%
X22192163Y-49040000D02*
X22407835Y-49040000D01*
X22192163Y-49760000D02*
X22407835Y-49760000D01*
%TO.C,C3*%
X17638748Y-44265000D02*
X18161252Y-44265000D01*
X17638748Y-45735000D02*
X18161252Y-45735000D01*
%TO.C,R5*%
X24346358Y-44620000D02*
X24653640Y-44620000D01*
X24346358Y-45380000D02*
X24653640Y-45380000D01*
%TO.C,C16*%
X2392164Y-51240000D02*
X2607836Y-51240000D01*
X2392164Y-51960000D02*
X2607836Y-51960000D01*
%TO.C,C35*%
X13392164Y-55640000D02*
X13607836Y-55640000D01*
X13392164Y-56360000D02*
X13607836Y-56360000D01*
%TO.C,C11*%
X19992163Y-49040000D02*
X20207835Y-49040000D01*
X19992163Y-49760000D02*
X20207835Y-49760000D01*
%TO.C,U2*%
X10000000Y-21440000D02*
X8050000Y-21440000D01*
X10000000Y-21440000D02*
X11950000Y-21440000D01*
X10000000Y-26560000D02*
X8050000Y-26560000D01*
X10000000Y-26560000D02*
X11950000Y-26560000D01*
X7300000Y-21535000D02*
X7060000Y-21205000D01*
X7540000Y-21205000D01*
X7300000Y-21535000D01*
G36*
X7300000Y-21535000D02*
G01*
X7060000Y-21205000D01*
X7540000Y-21205000D01*
X7300000Y-21535000D01*
G37*
%TO.C,D4*%
X20989999Y-52150000D02*
X20989999Y-55450000D01*
X20989999Y-52150000D02*
X26499999Y-52150000D01*
X20989999Y-55450000D02*
X26499999Y-55450000D01*
%TO.C,R17*%
X8946359Y-49020000D02*
X9253641Y-49020000D01*
X8946359Y-49780000D02*
X9253641Y-49780000D01*
%TO.C,R22*%
X13346359Y-53420000D02*
X13653641Y-53420000D01*
X13346359Y-54180000D02*
X13653641Y-54180000D01*
%TO.C,R3*%
X8946359Y-44620000D02*
X9253641Y-44620000D01*
X8946359Y-45380000D02*
X9253641Y-45380000D01*
%TO.C,C8*%
X13392164Y-46840000D02*
X13607836Y-46840000D01*
X13392164Y-47560000D02*
X13607836Y-47560000D01*
%TO.C,J5*%
X26670000Y-3670000D02*
X28000000Y-3670000D01*
X26670000Y-5000000D02*
X26670000Y-3670000D01*
X26670000Y-6270000D02*
X26670000Y-8870000D01*
X26670000Y-6270000D02*
X29330000Y-6270000D01*
X26670000Y-8870000D02*
X29330000Y-8870000D01*
X29330000Y-6270000D02*
X29330000Y-8870000D01*
%TO.C,L1*%
X23600378Y-51440000D02*
X24399622Y-51440000D01*
X23600378Y-52560000D02*
X24399622Y-52560000D01*
%TO.C,Q3*%
X5000000Y-54440000D02*
X4350000Y-54440000D01*
X5000000Y-54440000D02*
X5650000Y-54440000D01*
X5000000Y-57560000D02*
X4350000Y-57560000D01*
X5000000Y-57560000D02*
X5650000Y-57560000D01*
X3837500Y-54490000D02*
X3597500Y-54160000D01*
X4077500Y-54160000D01*
X3837500Y-54490000D01*
G36*
X3837500Y-54490000D02*
G01*
X3597500Y-54160000D01*
X4077500Y-54160000D01*
X3837500Y-54490000D01*
G37*
%TO.C,J11*%
X20890000Y-59240000D02*
X22000000Y-59240000D01*
X20890000Y-60000000D02*
X20890000Y-59240000D01*
X20890000Y-60760000D02*
X20890000Y-64505000D01*
X20890000Y-60760000D02*
X21436529Y-60760000D01*
X20890000Y-64505000D02*
X21692470Y-64505000D01*
X22307530Y-64505000D02*
X23110000Y-64505000D01*
X22563471Y-60760000D02*
X23110000Y-60760000D01*
X23110000Y-60760000D02*
X23110000Y-64505000D01*
%TO.C,R8*%
X6746359Y-46820000D02*
X7053641Y-46820000D01*
X6746359Y-47580000D02*
X7053641Y-47580000D01*
%TO.C,C19*%
X8992164Y-51240000D02*
X9207836Y-51240000D01*
X8992164Y-51960000D02*
X9207836Y-51960000D01*
%TO.C,C7*%
X11192164Y-46840000D02*
X11407836Y-46840000D01*
X11192164Y-47560000D02*
X11407836Y-47560000D01*
%TO.C,U3*%
X9200000Y-21700000D02*
X9200000Y-22500000D01*
X9200000Y-22500000D02*
X10000000Y-22500000D01*
X9400000Y-5700000D02*
X22600000Y-5700000D01*
X9400000Y-11100000D02*
X22600000Y-11100000D01*
X9400000Y-22300000D02*
X9400000Y-5700000D01*
X10075000Y-5500000D02*
X9225000Y-5500000D01*
X22050000Y-5500000D02*
X22800000Y-5500000D01*
X22600000Y-5700000D02*
X22600000Y-22300000D01*
X22600000Y-22300000D02*
X9400000Y-22300000D01*
X22800000Y-5500000D02*
X22800000Y-6100000D01*
X22800000Y-21700000D02*
X22800000Y-22500000D01*
X22800000Y-22500000D02*
X22000000Y-22500000D01*
%TO.C,J10*%
X8890000Y-59240000D02*
X10000000Y-59240000D01*
X8890000Y-60000000D02*
X8890000Y-59240000D01*
X8890000Y-60760000D02*
X8890000Y-64505000D01*
X8890000Y-60760000D02*
X9436529Y-60760000D01*
X8890000Y-64505000D02*
X9692470Y-64505000D01*
X10307530Y-64505000D02*
X11110000Y-64505000D01*
X10563471Y-60760000D02*
X11110000Y-60760000D01*
X11110000Y-60760000D02*
X11110000Y-64505000D01*
%TO.C,R16*%
X6746359Y-49020000D02*
X7053641Y-49020000D01*
X6746359Y-49780000D02*
X7053641Y-49780000D01*
%TO.C,Q2*%
X27000000Y-54440000D02*
X26350000Y-54440000D01*
X27000000Y-54440000D02*
X27650000Y-54440000D01*
X27000000Y-57560000D02*
X26350000Y-57560000D01*
X27000000Y-57560000D02*
X27650000Y-57560000D01*
X25837500Y-54490000D02*
X25597500Y-54160000D01*
X26077500Y-54160000D01*
X25837500Y-54490000D01*
G36*
X25837500Y-54490000D02*
G01*
X25597500Y-54160000D01*
X26077500Y-54160000D01*
X25837500Y-54490000D01*
G37*
%TO.C,Q4*%
X5000000Y-8440000D02*
X4350000Y-8440000D01*
X5000000Y-8440000D02*
X5650000Y-8440000D01*
X5000000Y-11560000D02*
X4350000Y-11560000D01*
X5000000Y-11560000D02*
X5650000Y-11560000D01*
X3837500Y-8490000D02*
X3597500Y-8160000D01*
X4077500Y-8160000D01*
X3837500Y-8490000D01*
G36*
X3837500Y-8490000D02*
G01*
X3597500Y-8160000D01*
X4077500Y-8160000D01*
X3837500Y-8490000D01*
G37*
%TO.C,R26*%
X15546359Y-53420000D02*
X15853641Y-53420000D01*
X15546359Y-54180000D02*
X15853641Y-54180000D01*
%TO.C,C30*%
X4592164Y-53440000D02*
X4807836Y-53440000D01*
X4592164Y-54160000D02*
X4807836Y-54160000D01*
%TO.C,R2*%
X4546359Y-44620000D02*
X4853641Y-44620000D01*
X4546359Y-45380000D02*
X4853641Y-45380000D01*
%TO.C,C2*%
X13238748Y-44265000D02*
X13761252Y-44265000D01*
X13238748Y-45735000D02*
X13761252Y-45735000D01*
%TO.C,R29*%
X6746359Y-55620000D02*
X7053641Y-55620000D01*
X6746359Y-56380000D02*
X7053641Y-56380000D01*
%TO.C,J7*%
X2670000Y-59670000D02*
X4000000Y-59670000D01*
X2670000Y-61000000D02*
X2670000Y-59670000D01*
X2670000Y-62270000D02*
X2670000Y-64870000D01*
X2670000Y-62270000D02*
X5330000Y-62270000D01*
X2670000Y-64870000D02*
X5330000Y-64870000D01*
X5330000Y-62270000D02*
X5330000Y-64870000D01*
D14*
%TO.C,U7*%
X20650000Y-36540000D02*
X20650000Y-36100000D01*
X20650000Y-38100000D02*
X20650000Y-37460000D01*
X20650000Y-38100000D02*
X20800000Y-38100000D01*
X23075000Y-38075000D02*
X23225000Y-38075000D01*
X23200000Y-35900000D02*
X23350000Y-35900000D01*
X23350000Y-36540000D02*
X23350000Y-35900000D01*
X23350000Y-38100000D02*
X23350000Y-37460000D01*
X20650000Y-35900000D02*
X20290000Y-35900000D01*
X20650000Y-35540000D01*
X20650000Y-35900000D01*
G36*
X20650000Y-35900000D02*
G01*
X20290000Y-35900000D01*
X20650000Y-35540000D01*
X20650000Y-35900000D01*
G37*
D13*
%TO.C,R13*%
X28746358Y-46820000D02*
X29053640Y-46820000D01*
X28746358Y-47580000D02*
X29053640Y-47580000D01*
%TO.C,R23*%
X19946358Y-53420000D02*
X20253640Y-53420000D01*
X19946358Y-54180000D02*
X20253640Y-54180000D01*
%TO.C,D6*%
X5590000Y-54350000D02*
X5590000Y-57650000D01*
X5590000Y-54350000D02*
X11100000Y-54350000D01*
X5590000Y-57650000D02*
X11100000Y-57650000D01*
%TO.C,R6*%
X26546358Y-44620000D02*
X26853640Y-44620000D01*
X26546358Y-45380000D02*
X26853640Y-45380000D01*
%TO.C,R14*%
X2346359Y-49020000D02*
X2653641Y-49020000D01*
X2346359Y-49780000D02*
X2653641Y-49780000D01*
%TO.C,R19*%
X13346359Y-49020000D02*
X13653641Y-49020000D01*
X13346359Y-49780000D02*
X13653641Y-49780000D01*
%TO.C,SW1*%
X23940000Y-28150000D02*
X30060000Y-28150000D01*
X23940000Y-31850000D02*
X23940000Y-28150000D01*
X30060000Y-28150000D02*
X30060000Y-31850000D01*
X30060000Y-31850000D02*
X23940000Y-31850000D01*
%TO.C,J2*%
X1600000Y-28700000D02*
X3600000Y-28700000D01*
X5500000Y-28700000D02*
X7400000Y-28700000D01*
X7400000Y-28700000D02*
X7400000Y-19300000D01*
X1600000Y-19300000D02*
X3600000Y-19300000D01*
X5500000Y-19300000D02*
X7400000Y-19300000D01*
%TO.C,LED2*%
X24580000Y-14850000D02*
X24580000Y-15500000D01*
X24580000Y-14850000D02*
X27420000Y-14850000D01*
X24580000Y-17150000D02*
X27420000Y-17150000D01*
%TO.C,C18*%
X6792164Y-51240000D02*
X7007836Y-51240000D01*
X6792164Y-51960000D02*
X7007836Y-51960000D01*
%TO.C,C17*%
X4592164Y-51240000D02*
X4807836Y-51240000D01*
X4592164Y-51960000D02*
X4807836Y-51960000D01*
%TO.C,R27*%
X22146358Y-53420000D02*
X22453640Y-53420000D01*
X22146358Y-54180000D02*
X22453640Y-54180000D01*
%TO.C,R25*%
X4546359Y-55620000D02*
X4853641Y-55620000D01*
X4546359Y-56380000D02*
X4853641Y-56380000D01*
%TO.C,C28*%
X28792163Y-51240000D02*
X29007835Y-51240000D01*
X28792163Y-51960000D02*
X29007835Y-51960000D01*
%TO.C,C13*%
X24392163Y-49040000D02*
X24607835Y-49040000D01*
X24392163Y-49760000D02*
X24607835Y-49760000D01*
%TO.C,D5*%
X-1010000Y-54350000D02*
X-1010000Y-57650000D01*
X-1010000Y-54350000D02*
X4500000Y-54350000D01*
X-1010000Y-57650000D02*
X4500000Y-57650000D01*
%TO.C,C10*%
X19992163Y-46840000D02*
X20207835Y-46840000D01*
X19992163Y-47560000D02*
X20207835Y-47560000D01*
%TO.C,R12*%
X26546358Y-46820000D02*
X26853640Y-46820000D01*
X26546358Y-47580000D02*
X26853640Y-47580000D01*
%TO.C,J8*%
X2670000Y-3670000D02*
X4000000Y-3670000D01*
X2670000Y-5000000D02*
X2670000Y-3670000D01*
X2670000Y-6270000D02*
X2670000Y-8870000D01*
X2670000Y-6270000D02*
X5330000Y-6270000D01*
X2670000Y-8870000D02*
X5330000Y-8870000D01*
X5330000Y-6270000D02*
X5330000Y-8870000D01*
%TO.C,R4*%
X22146358Y-44620000D02*
X22453640Y-44620000D01*
X22146358Y-45380000D02*
X22453640Y-45380000D01*
%TO.C,R11*%
X24346358Y-46820000D02*
X24653640Y-46820000D01*
X24346358Y-47580000D02*
X24653640Y-47580000D01*
%TO.C,C26*%
X24359419Y-51090000D02*
X24640579Y-51090000D01*
X24359419Y-52110000D02*
X24640579Y-52110000D01*
%TO.C,R24*%
X26546358Y-53420000D02*
X26853640Y-53420000D01*
X26546358Y-54180000D02*
X26853640Y-54180000D01*
%TO.C,R15*%
X4546359Y-49020000D02*
X4853641Y-49020000D01*
X4546359Y-49780000D02*
X4853641Y-49780000D01*
%TO.C,C5*%
X2359420Y-46690000D02*
X2640580Y-46690000D01*
X2359420Y-47710000D02*
X2640580Y-47710000D01*
%TO.C,C24*%
X19992163Y-51240000D02*
X20207835Y-51240000D01*
X19992163Y-51960000D02*
X20207835Y-51960000D01*
%TO.C,C21*%
X13392164Y-51240000D02*
X13607836Y-51240000D01*
X13392164Y-51960000D02*
X13607836Y-51960000D01*
%TO.C,LED1*%
X4580000Y-14850000D02*
X4580000Y-15500000D01*
X4580000Y-14850000D02*
X7420000Y-14850000D01*
X4580000Y-17150000D02*
X7420000Y-17150000D01*
%TO.C,J6*%
X26670000Y-59670000D02*
X28000000Y-59670000D01*
X26670000Y-61000000D02*
X26670000Y-59670000D01*
X26670000Y-62270000D02*
X26670000Y-64870000D01*
X26670000Y-62270000D02*
X29330000Y-62270000D01*
X26670000Y-64870000D02*
X29330000Y-64870000D01*
X29330000Y-62270000D02*
X29330000Y-64870000D01*
%TO.C,D1*%
X6900000Y-43440000D02*
X6100000Y-43440000D01*
X6900000Y-43440000D02*
X7700000Y-43440000D01*
X6900000Y-46560000D02*
X6100000Y-46560000D01*
X6900000Y-46560000D02*
X7700000Y-46560000D01*
X5600000Y-43490000D02*
X5360000Y-43160000D01*
X5840000Y-43160000D01*
X5600000Y-43490000D01*
G36*
X5600000Y-43490000D02*
G01*
X5360000Y-43160000D01*
X5840000Y-43160000D01*
X5600000Y-43490000D01*
G37*
%TO.C,R18*%
X11146359Y-49020000D02*
X11453641Y-49020000D01*
X11146359Y-49780000D02*
X11453641Y-49780000D01*
%TO.C,R21*%
X17746359Y-49020000D02*
X18053641Y-49020000D01*
X17746359Y-49780000D02*
X18053641Y-49780000D01*
%TO.C,J9*%
X3890000Y-43240000D02*
X5000000Y-43240000D01*
X3890000Y-44000000D02*
X3890000Y-43240000D01*
X3890000Y-44760000D02*
X3890000Y-51045000D01*
X3890000Y-44760000D02*
X4436529Y-44760000D01*
X3890000Y-51045000D02*
X4692470Y-51045000D01*
X5307530Y-51045000D02*
X6110000Y-51045000D01*
X5563471Y-44760000D02*
X6110000Y-44760000D01*
X6110000Y-44760000D02*
X6110000Y-51045000D01*
%TO.C,L2*%
X28737220Y-44490000D02*
X29062778Y-44490000D01*
X28737220Y-45510000D02*
X29062778Y-45510000D01*
%TO.C,C1*%
X11038748Y-44265000D02*
X11561252Y-44265000D01*
X11038748Y-45735000D02*
X11561252Y-45735000D01*
%TO.C,U4*%
X9000000Y-47440000D02*
X7050000Y-47440000D01*
X9000000Y-47440000D02*
X10950000Y-47440000D01*
X9000000Y-52560000D02*
X7050000Y-52560000D01*
X9000000Y-52560000D02*
X10950000Y-52560000D01*
X6300000Y-47535000D02*
X6060000Y-47205000D01*
X6540000Y-47205000D01*
X6300000Y-47535000D01*
G36*
X6300000Y-47535000D02*
G01*
X6060000Y-47205000D01*
X6540000Y-47205000D01*
X6300000Y-47535000D01*
G37*
%TO.C,C25*%
X22192163Y-51240000D02*
X22407835Y-51240000D01*
X22192163Y-51960000D02*
X22407835Y-51960000D01*
%TO.C,R28*%
X28746358Y-53420000D02*
X29053640Y-53420000D01*
X28746358Y-54180000D02*
X29053640Y-54180000D01*
%TO.C,R1*%
X2346359Y-44620000D02*
X2653641Y-44620000D01*
X2346359Y-45380000D02*
X2653641Y-45380000D01*
%TO.C,C4*%
X19838747Y-44265000D02*
X20361251Y-44265000D01*
X19838747Y-45735000D02*
X20361251Y-45735000D01*
%TO.C,C14*%
X26592163Y-49040000D02*
X26807835Y-49040000D01*
X26592163Y-49760000D02*
X26807835Y-49760000D01*
%TO.C,C22*%
X15592164Y-51240000D02*
X15807836Y-51240000D01*
X15592164Y-51960000D02*
X15807836Y-51960000D01*
%TO.C,D2*%
X12190000Y-43350000D02*
X12190000Y-46650000D01*
X12190000Y-43350000D02*
X17700000Y-43350000D01*
X12190000Y-46650000D02*
X17700000Y-46650000D01*
%TO.C,U1*%
X10850000Y-35150000D02*
X10850000Y-34725000D01*
X11275000Y-24850000D02*
X10675000Y-24850000D01*
X11275000Y-35150000D02*
X10850000Y-35150000D01*
X20725000Y-24850000D02*
X21150000Y-24850000D01*
X20725000Y-35150000D02*
X21150000Y-35150000D01*
X21150000Y-24850000D02*
X21150000Y-25275000D01*
X21150000Y-35150000D02*
X21150000Y-34725000D01*
D15*
X10050000Y-25300000D02*
G75*
G03*
X9750000Y-25300000I-150000J0D01*
G01*
X9750000Y-25300000D02*
G75*
G03*
X10050000Y-25300000I150000J0D01*
G01*
D13*
%TO.C,R20*%
X15546359Y-49020000D02*
X15853641Y-49020000D01*
X15546359Y-49780000D02*
X15853641Y-49780000D01*
%TO.C,SW2*%
X23940000Y-34150000D02*
X30060000Y-34150000D01*
X23940000Y-37850000D02*
X23940000Y-34150000D01*
X30060000Y-34150000D02*
X30060000Y-37850000D01*
X30060000Y-37850000D02*
X23940000Y-37850000D01*
%TO.C,U5*%
X20000000Y-48440000D02*
X19200000Y-48440000D01*
X20000000Y-48440000D02*
X20800000Y-48440000D01*
X20000000Y-51560000D02*
X19200000Y-51560000D01*
X20000000Y-51560000D02*
X20800000Y-51560000D01*
X18700000Y-48490000D02*
X18460000Y-48160000D01*
X18940000Y-48160000D01*
X18700000Y-48490000D01*
G36*
X18700000Y-48490000D02*
G01*
X18460000Y-48160000D01*
X18940000Y-48160000D01*
X18700000Y-48490000D01*
G37*
%TO.C,C33*%
X11192164Y-53440000D02*
X11407836Y-53440000D01*
X11192164Y-54160000D02*
X11407836Y-54160000D01*
%TO.C,C9*%
X15592164Y-46840000D02*
X15807836Y-46840000D01*
X15592164Y-47560000D02*
X15807836Y-47560000D01*
%TO.C,R7*%
X4546359Y-46820000D02*
X4853641Y-46820000D01*
X4546359Y-47580000D02*
X4853641Y-47580000D01*
%TO.C,R10*%
X22146358Y-46820000D02*
X22453640Y-46820000D01*
X22146358Y-47580000D02*
X22453640Y-47580000D01*
%TO.C,J1*%
X11940000Y-58690000D02*
X12960000Y-58690000D01*
X11940000Y-62940000D02*
X11940000Y-58690000D01*
X12960000Y-58690000D02*
X12960000Y-60290000D01*
X12960000Y-60290000D02*
X14240000Y-60290000D01*
X13660000Y-66510000D02*
X18340000Y-66510000D01*
X14240000Y-60290000D02*
X14240000Y-57400000D01*
X19040000Y-58690000D02*
X19040000Y-60290000D01*
X19040000Y-60290000D02*
X17760000Y-60290000D01*
X20060000Y-58690000D02*
X19040000Y-58690000D01*
X20060000Y-62940000D02*
X20060000Y-58690000D01*
%TO.C,J4*%
X10600000Y-3700000D02*
X10600000Y-5040000D01*
X10600000Y-7760000D02*
X10600000Y-9500000D01*
X10600000Y-9500000D02*
X21400000Y-9500000D01*
X12090000Y-3700000D02*
X10600000Y-3700000D01*
X12090000Y-3700000D02*
X12090000Y-2500000D01*
X19910000Y-3700000D02*
X21400000Y-3700000D01*
X21400000Y-3700000D02*
X21400000Y-5040000D01*
X21400000Y-9500000D02*
X21400000Y-7760000D01*
%TO.C,C23*%
X17792164Y-51240000D02*
X18007836Y-51240000D01*
X17792164Y-51960000D02*
X18007836Y-51960000D01*
%TO.C,Q1*%
X27000000Y-8440000D02*
X26350000Y-8440000D01*
X27000000Y-8440000D02*
X27650000Y-8440000D01*
X27000000Y-11560000D02*
X26350000Y-11560000D01*
X27000000Y-11560000D02*
X27650000Y-11560000D01*
X25837500Y-8490000D02*
X25597500Y-8160000D01*
X26077500Y-8160000D01*
X25837500Y-8490000D01*
G36*
X25837500Y-8490000D02*
G01*
X25597500Y-8160000D01*
X26077500Y-8160000D01*
X25837500Y-8490000D01*
G37*
%TO.C,U6*%
X9640000Y-38610000D02*
X9640000Y-38385000D01*
X10365000Y-35390000D02*
X9940000Y-35390000D01*
X10365000Y-38610000D02*
X9640000Y-38610000D01*
X11635000Y-35390000D02*
X12360000Y-35390000D01*
X11635000Y-38610000D02*
X12360000Y-38610000D01*
X12360000Y-35390000D02*
X12360000Y-35615000D01*
X12360000Y-38610000D02*
X12360000Y-38385000D01*
X9640000Y-35390000D02*
X9400000Y-35060000D01*
X9880000Y-35060000D01*
X9640000Y-35390000D01*
G36*
X9640000Y-35390000D02*
G01*
X9400000Y-35060000D01*
X9880000Y-35060000D01*
X9640000Y-35390000D01*
G37*
%TO.C,C15*%
X28792163Y-49040000D02*
X29007835Y-49040000D01*
X28792163Y-49760000D02*
X29007835Y-49760000D01*
%TO.C,Y1*%
X20000000Y-22350000D02*
X20000000Y-25650000D01*
X20000000Y-25650000D02*
X24000000Y-25650000D01*
%TO.C,C6*%
X8992164Y-46840000D02*
X9207836Y-46840000D01*
X8992164Y-47560000D02*
X9207836Y-47560000D01*
%TO.C,C34*%
X11192164Y-55640000D02*
X11407836Y-55640000D01*
X11192164Y-56360000D02*
X11407836Y-56360000D01*
%TO.C,D3*%
X14390000Y-52150000D02*
X14390000Y-55450000D01*
X14390000Y-52150000D02*
X19900000Y-52150000D01*
X14390000Y-55450000D02*
X19900000Y-55450000D01*
%TD*%
M02*
