M48
; DRILL file {KiCad 7.0.11+dfsg-1build4} date Sun Jun 21 07:41:56 2026
; FORMAT={-:-/ absolute / metric / decimal}
; #@! TF.CreationDate,2026-06-21T07:41:56+00:00
; #@! TF.GenerationSoftware,Kicad,Pcbnew,7.0.11+dfsg-1build4
; #@! TF.FileFunction,Plated,1,4,PTH
FMAT,2
METRIC
; #@! TA.AperFunction,Plated,PTH,ViaDrill
T1C0.200
; #@! TA.AperFunction,Plated,PTH,ViaDrill
T2C0.250
; #@! TA.AperFunction,Plated,PTH,ComponentDrill
T3C0.600
; #@! TA.AperFunction,Plated,PTH,ComponentDrill
T4C0.650
; #@! TA.AperFunction,Plated,PTH,ComponentDrill
T5C1.000
%
G90
G05
T1
X5.678Y-67.823
X6.808Y-43.88
X8.085Y-8.45
X8.087Y-34.239
X9.231Y-11.187
X9.961Y-51.409
X10.643Y-41.648
X11.888Y-30.501
X12.1Y-19.3
X13.479Y-29.07
X15.938Y-29.158
X16.095Y-46.7
X16.4Y-36.0
X16.475Y-58.405
X17.0Y-62.15
X17.2Y-35.2
X18.0Y-35.2
X18.049Y-38.546
X18.574Y-28.767
X18.682Y-54.44
X18.8Y-35.2
X19.137Y-52.25
X19.6Y-36.0
X20.443Y-45.088
X22.155Y-53.127
X22.233Y-49.915
X22.455Y-43.673
X22.788Y-45.244
X23.137Y-57.95
X23.226Y-46.927
X24.39Y-34.25
X24.438Y-64.764
X25.09Y-62.0
X25.759Y-37.108
X25.82Y-5.0
X27.562Y-57.0
X28.085Y-21.45
X29.125Y-25.574
X30.171Y-42.352
X31.42Y-22.0
X32.194Y-67.773
T2
X2.399Y-26.633
X3.146Y-29.832
X3.708Y-25.661
X7.121Y-45.047
X8.846Y-15.735
X9.024Y-44.517
X9.642Y-43.88
X10.777Y-15.91
X12.198Y-33.474
X18.063Y-48.985
X20.863Y-59.986
X20.896Y-27.954
X21.0Y-1.47
X23.137Y-59.0
X24.513Y-57.707
X25.112Y-29.69
X25.606Y-26.718
X26.975Y-19.726
X27.734Y-38.725
X29.759Y-35.683
X30.619Y-47.814
X32.397Y-39.993
T4
X4.0Y-40.0
X4.0Y-41.27
X4.0Y-42.54
X4.0Y-43.81
X4.0Y-45.08
X4.0Y-46.35
X11.0Y-62.0
X11.0Y-63.27
X11.0Y-64.54
X11.0Y-65.81
X28.5Y-62.0
X28.5Y-63.27
X28.5Y-64.54
X28.5Y-65.81
T5
X4.0Y-11.0
X4.0Y-13.54
X4.0Y-59.0
X4.0Y-61.54
X25.46Y-42.0
X25.46Y-44.54
X25.46Y-47.08
X25.46Y-49.62
X28.0Y-42.0
X28.0Y-44.54
X28.0Y-47.08
X28.0Y-49.62
X32.0Y-11.0
X32.0Y-13.54
X32.0Y-59.0
X32.0Y-61.54
T3
X1.52Y-23.68G85X2.62Y-23.68
G05
X1.52Y-32.32G85X2.62Y-32.32
G05
X5.95Y-23.68G85X6.55Y-23.68
G05
X5.95Y-32.32G85X6.55Y-32.32
G05
M30
