%TF.GenerationSoftware,KiCad,Pcbnew,7.0.11+dfsg-1build4*%
%TF.CreationDate,2026-06-13T22:44:19+00:00*%
%TF.ProjectId,stratosdrone,73747261-746f-4736-9472-6f6e652e6b69,rev?*%
%TF.SameCoordinates,Original*%
%TF.FileFunction,Soldermask,Bot*%
%TF.FilePolarity,Negative*%
%FSLAX46Y46*%
G04 Gerber Fmt 4.6, Leading zero omitted, Abs format (unit mm)*
G04 Created by KiCad (PCBNEW 7.0.11+dfsg-1build4) date 2026-06-13 22:44:19*
%MOMM*%
%LPD*%
G01*
G04 APERTURE LIST*
G04 Aperture macros list*
%AMRoundRect*
0 Rectangle with rounded corners*
0 $1 Rounding radius*
0 $2 $3 $4 $5 $6 $7 $8 $9 X,Y pos of 4 corners*
0 Add a 4 corners polygon primitive as box body*
4,1,4,$2,$3,$4,$5,$6,$7,$8,$9,$2,$3,0*
0 Add four circle primitives for the rounded corners*
1,1,$1+$1,$2,$3*
1,1,$1+$1,$4,$5*
1,1,$1+$1,$6,$7*
1,1,$1+$1,$8,$9*
0 Add four rect primitives between the rounded corners*
20,1,$1+$1,$2,$3,$4,$5,0*
20,1,$1+$1,$4,$5,$6,$7,0*
20,1,$1+$1,$6,$7,$8,$9,0*
20,1,$1+$1,$8,$9,$2,$3,0*%
G04 Aperture macros list end*
%ADD10R,1.000000X1.000000*%
%ADD11O,1.000000X1.000000*%
%ADD12C,2.200000*%
%ADD13R,1.700000X1.700000*%
%ADD14O,1.700000X1.700000*%
%ADD15C,0.650000*%
%ADD16O,1.000000X2.100000*%
%ADD17O,1.000000X1.600000*%
%ADD18RoundRect,0.137500X0.137500X0.287500X-0.137500X0.287500X-0.137500X-0.287500X0.137500X-0.287500X0*%
%ADD19RoundRect,0.140000X0.140000X0.170000X-0.140000X0.170000X-0.140000X-0.170000X0.140000X-0.170000X0*%
%ADD20R,0.500000X0.500000*%
G04 APERTURE END LIST*
D10*
%TO.C,J11*%
X18000000Y-51000000D03*
D11*
X18000000Y-52270000D03*
X18000000Y-53540000D03*
X18000000Y-54810000D03*
%TD*%
D10*
%TO.C,J10*%
X10000000Y-51000000D03*
D11*
X10000000Y-52270000D03*
X10000000Y-53540000D03*
X10000000Y-54810000D03*
%TD*%
D12*
%TO.C,*%
X4000000Y-4000000D03*
%TD*%
D10*
%TO.C,J9*%
X44000000Y-40000000D03*
D11*
X44000000Y-41270000D03*
X44000000Y-42540000D03*
X44000000Y-43810000D03*
X44000000Y-45080000D03*
X44000000Y-46350000D03*
%TD*%
D12*
%TO.C,*%
X44000000Y-50000000D03*
%TD*%
%TO.C,*%
X44000000Y-4000000D03*
%TD*%
D13*
%TO.C,J8*%
X4000000Y-10000000D03*
D14*
X4000000Y-12540000D03*
%TD*%
D12*
%TO.C,*%
X4000000Y-50000000D03*
%TD*%
D13*
%TO.C,J7*%
X4000000Y-46000000D03*
D14*
X4000000Y-48540000D03*
%TD*%
D13*
%TO.C,J5*%
X44000000Y-10000000D03*
D14*
X44000000Y-12540000D03*
%TD*%
D15*
%TO.C,J2*%
X35110000Y-48400000D03*
X40890000Y-48400000D03*
D16*
X33680000Y-47870000D03*
D17*
X33680000Y-52050000D03*
D16*
X42320000Y-47870000D03*
D17*
X42320000Y-52050000D03*
%TD*%
D13*
%TO.C,J6*%
X44000000Y-46000000D03*
D14*
X44000000Y-48540000D03*
%TD*%
D18*
%TO.C,U9*%
X24000000Y-24000000D03*
X24000000Y-24000000D03*
X24000000Y-24000000D03*
X24000000Y-24000000D03*
X24000000Y-24000000D03*
X24000000Y-24000000D03*
X24000000Y-24000000D03*
X24000000Y-24000000D03*
%TD*%
D19*
%TO.C,C31*%
X39680000Y-17400000D03*
X38720000Y-17400000D03*
%TD*%
D13*
%TO.C,J3*%
X37000000Y-24000000D03*
D14*
X34460000Y-24000000D03*
X37000000Y-26540000D03*
X34460000Y-26540000D03*
X37000000Y-29080000D03*
X34460000Y-29080000D03*
X37000000Y-31620000D03*
X34460000Y-31620000D03*
%TD*%
D20*
%TO.C,U8*%
X25600000Y-30200000D03*
X24800000Y-30210000D03*
X24000000Y-30200000D03*
X23200000Y-30200000D03*
X22400000Y-30200000D03*
X22400000Y-31000000D03*
X22400000Y-31800000D03*
X23200000Y-31800000D03*
X24000000Y-31800000D03*
X24800000Y-31800000D03*
X25600000Y-31800000D03*
X25600000Y-31000000D03*
%TD*%
D19*
%TO.C,C32*%
X41880000Y-17400000D03*
X40920000Y-17400000D03*
%TD*%
M02*
