%TF.GenerationSoftware,KiCad,Pcbnew,7.0.11+dfsg-1build4*%
%TF.CreationDate,2026-06-20T21:19:36+00:00*%
%TF.ProjectId,stratosdrone,73747261-746f-4736-9472-6f6e652e6b69,rev?*%
%TF.SameCoordinates,Original*%
%TF.FileFunction,Paste,Top*%
%TF.FilePolarity,Positive*%
%FSLAX46Y46*%
G04 Gerber Fmt 4.6, Leading zero omitted, Abs format (unit mm)*
G04 Created by KiCad (PCBNEW 7.0.11+dfsg-1build4) date 2026-06-20 21:19:36*
%MOMM*%
%LPD*%
G01*
G04 APERTURE LIST*
G04 Aperture macros list*
%AMRoundRect*
0 Rectangle with rounded corners*
0 $1 Rounding radius*
0 $2 $3 $4 $5 $6 $7 $8 $9 X,Y pos of 4 corners*
0 Add a 4 corners polygon primitive as box body*
4,1,4,$2,$3,$4,$5,$6,$7,$8,$9,$2,$3,0*
0 Add four circle primitives for the rounded corners*
1,1,$1+$1,$2,$3*
1,1,$1+$1,$4,$5*
1,1,$1+$1,$6,$7*
1,1,$1+$1,$8,$9*
0 Add four rect primitives between the rounded corners*
20,1,$1+$1,$2,$3,$4,$5,0*
20,1,$1+$1,$4,$5,$6,$7,0*
20,1,$1+$1,$6,$7,$8,$9,0*
20,1,$1+$1,$8,$9,$2,$3,0*%
%AMFreePoly0*
4,1,6,0.725000,-0.725000,-0.725000,-0.725000,-0.725000,0.125000,-0.125000,0.725000,0.725000,0.725000,0.725000,-0.725000,0.725000,-0.725000,$1*%
G04 Aperture macros list end*
%ADD10RoundRect,0.135000X-0.135000X-0.185000X0.135000X-0.185000X0.135000X0.185000X-0.135000X0.185000X0*%
%ADD11RoundRect,0.140000X-0.140000X-0.170000X0.140000X-0.170000X0.140000X0.170000X-0.140000X0.170000X0*%
%ADD12R,0.800000X0.400000*%
%ADD13R,0.400000X0.800000*%
%ADD14FreePoly0,0.000000*%
%ADD15R,1.450000X1.450000*%
%ADD16R,0.700000X0.700000*%
%ADD17RoundRect,0.150000X-0.825000X-0.150000X0.825000X-0.150000X0.825000X0.150000X-0.825000X0.150000X0*%
%ADD18RoundRect,0.150000X-0.512500X-0.150000X0.512500X-0.150000X0.512500X0.150000X-0.512500X0.150000X0*%
%ADD19RoundRect,0.150000X-0.587500X-0.150000X0.587500X-0.150000X0.587500X0.150000X-0.587500X0.150000X0*%
%ADD20R,0.350000X0.500000*%
%ADD21RoundRect,0.250000X-1.000000X-0.650000X1.000000X-0.650000X1.000000X0.650000X-1.000000X0.650000X0*%
%ADD22R,1.500000X1.500000*%
%ADD23RoundRect,0.250000X-0.250000X-0.475000X0.250000X-0.475000X0.250000X0.475000X-0.250000X0.475000X0*%
%ADD24RoundRect,0.202500X-0.202500X-0.402500X0.202500X-0.402500X0.202500X0.402500X-0.202500X0.402500X0*%
%ADD25RoundRect,0.062500X-0.062500X-0.350000X0.062500X-0.350000X0.062500X0.350000X-0.062500X0.350000X0*%
%ADD26RoundRect,0.062500X-0.350000X-0.062500X0.350000X-0.062500X0.350000X0.062500X-0.350000X0.062500X0*%
%ADD27O,0.650000X0.200000*%
%ADD28O,0.200000X0.650000*%
%ADD29R,1.700000X1.700000*%
%ADD30R,0.300000X1.300000*%
%ADD31R,1.800000X2.200000*%
%ADD32RoundRect,0.225000X-0.225000X-0.250000X0.225000X-0.250000X0.225000X0.250000X-0.225000X0.250000X0*%
%ADD33R,1.400000X1.200000*%
%ADD34RoundRect,0.218750X-0.218750X-0.381250X0.218750X-0.381250X0.218750X0.381250X-0.218750X0.381250X0*%
%ADD35RoundRect,0.242500X-0.242500X-0.527500X0.242500X-0.527500X0.242500X0.527500X-0.242500X0.527500X0*%
%ADD36R,1.400000X2.700000*%
%ADD37R,1.450000X0.600000*%
%ADD38R,1.450000X0.300000*%
%ADD39RoundRect,0.250000X-0.250000X-1.500000X0.250000X-1.500000X0.250000X1.500000X-0.250000X1.500000X0*%
%ADD40RoundRect,0.250001X-0.499999X-1.449999X0.499999X-1.449999X0.499999X1.449999X-0.499999X1.449999X0*%
G04 APERTURE END LIST*
D10*
%TO.C,R15*%
X23491118Y-46927062D03*
X24511118Y-46927062D03*
%TD*%
D11*
%TO.C,C11*%
X21417382Y-43986444D03*
X22377382Y-43986444D03*
%TD*%
D10*
%TO.C,R13*%
X15566247Y-48135042D03*
X16586247Y-48135042D03*
%TD*%
D11*
%TO.C,C13*%
X24766017Y-41047868D03*
X25726017Y-41047868D03*
%TD*%
D10*
%TO.C,R7*%
X30218857Y-67945640D03*
X31238857Y-67945640D03*
%TD*%
D11*
%TO.C,C12*%
X10146009Y-33897699D03*
X11106009Y-33897699D03*
%TD*%
D12*
%TO.C,U3*%
X12100000Y-15700000D03*
X12100000Y-16500000D03*
X12100000Y-17300000D03*
X12100000Y-18100000D03*
X12100000Y-18900000D03*
X12100000Y-19700000D03*
X12100000Y-20500000D03*
X12100000Y-21300000D03*
X12100000Y-22100000D03*
X12100000Y-22900000D03*
X12100000Y-23700000D03*
D13*
X13200000Y-24600000D03*
X14000000Y-24600000D03*
X14800000Y-24600000D03*
X15600000Y-24600000D03*
X16400000Y-24600000D03*
X17200000Y-24600000D03*
X18000000Y-24600000D03*
X18800000Y-24600000D03*
X19600000Y-24600000D03*
X20400000Y-24600000D03*
X21200000Y-24600000D03*
X22000000Y-24600000D03*
X22800000Y-24600000D03*
D12*
X23900000Y-23700000D03*
X23900000Y-22900000D03*
X23900000Y-22100000D03*
X23900000Y-21300000D03*
X23900000Y-20500000D03*
X23900000Y-19700000D03*
X23900000Y-18900000D03*
X23900000Y-18100000D03*
X23900000Y-17300000D03*
X23900000Y-16500000D03*
X23900000Y-15700000D03*
D13*
X22800000Y-14800000D03*
X22000000Y-14800000D03*
X21200000Y-14800000D03*
X20400000Y-14800000D03*
X19600000Y-14800000D03*
X18800000Y-14800000D03*
X18000000Y-14800000D03*
X17200000Y-14800000D03*
X16400000Y-14800000D03*
X15600000Y-14800000D03*
X14800000Y-14800000D03*
X14000000Y-14800000D03*
X13200000Y-14800000D03*
D14*
X16025000Y-17725000D03*
D15*
X16025000Y-19700000D03*
X16025000Y-21675000D03*
X18000000Y-17725000D03*
X18000000Y-19700000D03*
X18000000Y-21675000D03*
X19975000Y-17725000D03*
X19975000Y-19700000D03*
X19975000Y-21675000D03*
D16*
X23950000Y-14750000D03*
X23950000Y-24650000D03*
X12050000Y-24650000D03*
X12050000Y-14750000D03*
%TD*%
D10*
%TO.C,R19*%
X25928223Y-28188848D03*
X26948223Y-28188848D03*
%TD*%
D17*
%TO.C,U2*%
X6525000Y-36095000D03*
X6525000Y-37365000D03*
X6525000Y-38635000D03*
X6525000Y-39905000D03*
X11475000Y-39905000D03*
X11475000Y-38635000D03*
X11475000Y-37365000D03*
X11475000Y-36095000D03*
%TD*%
D11*
%TO.C,C19*%
X19957829Y-28128867D03*
X20917829Y-28128867D03*
%TD*%
%TO.C,C14*%
X17695427Y-45598210D03*
X18655427Y-45598210D03*
%TD*%
%TO.C,C30*%
X30420000Y-47000000D03*
X31380000Y-47000000D03*
%TD*%
D10*
%TO.C,R17*%
X22720569Y-26311167D03*
X23740569Y-26311167D03*
%TD*%
D11*
%TO.C,C41*%
X24714832Y-34256938D03*
X25674832Y-34256938D03*
%TD*%
D10*
%TO.C,R27*%
X30884685Y-45299749D03*
X31904685Y-45299749D03*
%TD*%
%TO.C,R31*%
X25605377Y-30496105D03*
X26625377Y-30496105D03*
%TD*%
D18*
%TO.C,U5*%
X20862500Y-56050000D03*
X20862500Y-57000000D03*
X20862500Y-57950000D03*
X23137500Y-57950000D03*
X23137500Y-56050000D03*
%TD*%
D10*
%TO.C,R25*%
X14569861Y-30528308D03*
X15589861Y-30528308D03*
%TD*%
%TO.C,R12*%
X18709220Y-47932223D03*
X19729220Y-47932223D03*
%TD*%
%TO.C,R30*%
X22991225Y-28174099D03*
X24011225Y-28174099D03*
%TD*%
D11*
%TO.C,C17*%
X24754780Y-32350488D03*
X25714780Y-32350488D03*
%TD*%
%TO.C,C7*%
X16995206Y-30220280D03*
X17955206Y-30220280D03*
%TD*%
D10*
%TO.C,R26*%
X30878427Y-18883100D03*
X31898427Y-18883100D03*
%TD*%
D11*
%TO.C,C40*%
X24934463Y-39077435D03*
X25894463Y-39077435D03*
%TD*%
D19*
%TO.C,Q2*%
X29062500Y-54050000D03*
X29062500Y-55950000D03*
X30937500Y-55000000D03*
%TD*%
D20*
%TO.C,U7*%
X27025000Y-46200000D03*
X27675000Y-46200000D03*
X28325000Y-46200000D03*
X28975000Y-46200000D03*
X28975000Y-47800000D03*
X28325000Y-47800000D03*
X27675000Y-47800000D03*
X27025000Y-47800000D03*
%TD*%
D11*
%TO.C,C33*%
X18231957Y-9037711D03*
X19191957Y-9037711D03*
%TD*%
D21*
%TO.C,D6*%
X7000000Y-11000000D03*
X11000000Y-11000000D03*
%TD*%
D18*
%TO.C,U10*%
X27814448Y-38832951D03*
X27814448Y-39782951D03*
X27814448Y-40732951D03*
X30089448Y-40732951D03*
X30089448Y-38832951D03*
%TD*%
D22*
%TO.C,SW2*%
X34400000Y-54900000D03*
X34400000Y-47100000D03*
%TD*%
D10*
%TO.C,R16*%
X28100897Y-42386915D03*
X29120897Y-42386915D03*
%TD*%
D21*
%TO.C,D4*%
X21434714Y-53647815D03*
X25434714Y-53647815D03*
%TD*%
D11*
%TO.C,C21*%
X14920201Y-46137343D03*
X15880201Y-46137343D03*
%TD*%
D23*
%TO.C,C36*%
X10122614Y-50865833D03*
X12022614Y-50865833D03*
%TD*%
D11*
%TO.C,C35*%
X27649313Y-19550121D03*
X28609313Y-19550121D03*
%TD*%
%TO.C,C39*%
X19940302Y-30006993D03*
X20900302Y-30006993D03*
%TD*%
%TO.C,C15*%
X12436702Y-43936864D03*
X13396702Y-43936864D03*
%TD*%
D24*
%TO.C,U6*%
X8000000Y-47000000D03*
D25*
X7750000Y-45562500D03*
D26*
X6812500Y-46000000D03*
X6812500Y-46500000D03*
X6812500Y-47000000D03*
X6812500Y-47500000D03*
X6812500Y-48000000D03*
D25*
X7750000Y-48437500D03*
X8250000Y-48437500D03*
D26*
X9187500Y-48000000D03*
X9187500Y-47500000D03*
X9187500Y-47000000D03*
X9187500Y-46500000D03*
X9187500Y-46000000D03*
D25*
X8250000Y-45562500D03*
%TD*%
D23*
%TO.C,C4*%
X26350000Y-2075000D03*
X28250000Y-2075000D03*
%TD*%
D10*
%TO.C,R24*%
X18368717Y-50070495D03*
X19388717Y-50070495D03*
%TD*%
D16*
%TO.C,LED2*%
X28085000Y-21450000D03*
X28085000Y-22550000D03*
X29915000Y-22550000D03*
X29915000Y-21450000D03*
%TD*%
D27*
%TO.C,U1*%
X13125000Y-32625000D03*
X13125000Y-32975000D03*
X13125000Y-33325000D03*
X13125000Y-33675000D03*
X13125000Y-34025000D03*
X13125000Y-34375000D03*
X13125000Y-34725000D03*
X13125000Y-35075000D03*
X13125000Y-35425000D03*
X13125000Y-35775000D03*
X13125000Y-36125000D03*
X13125000Y-36475000D03*
X13125000Y-36825000D03*
X13125000Y-37175000D03*
X13125000Y-37525000D03*
X13125000Y-37875000D03*
X13125000Y-38225000D03*
X13125000Y-38575000D03*
X13125000Y-38925000D03*
X13125000Y-39275000D03*
X13125000Y-39625000D03*
X13125000Y-39975000D03*
X13125000Y-40325000D03*
X13125000Y-40675000D03*
X13125000Y-41025000D03*
X13125000Y-41375000D03*
D28*
X13625000Y-41875000D03*
X13975000Y-41875000D03*
X14325000Y-41875000D03*
X14675000Y-41875000D03*
X15025000Y-41875000D03*
X15375000Y-41875000D03*
X15725000Y-41875000D03*
X16075000Y-41875000D03*
X16425000Y-41875000D03*
X16775000Y-41875000D03*
X17125000Y-41875000D03*
X17475000Y-41875000D03*
X17825000Y-41875000D03*
X18175000Y-41875000D03*
X18525000Y-41875000D03*
X18875000Y-41875000D03*
X19225000Y-41875000D03*
X19575000Y-41875000D03*
X19925000Y-41875000D03*
X20275000Y-41875000D03*
X20625000Y-41875000D03*
X20975000Y-41875000D03*
X21325000Y-41875000D03*
X21675000Y-41875000D03*
X22025000Y-41875000D03*
X22375000Y-41875000D03*
D27*
X22875000Y-41375000D03*
X22875000Y-41025000D03*
X22875000Y-40675000D03*
X22875000Y-40325000D03*
X22875000Y-39975000D03*
X22875000Y-39625000D03*
X22875000Y-39275000D03*
X22875000Y-38925000D03*
X22875000Y-38575000D03*
X22875000Y-38225000D03*
X22875000Y-37875000D03*
X22875000Y-37525000D03*
X22875000Y-37175000D03*
X22875000Y-36825000D03*
X22875000Y-36475000D03*
X22875000Y-36125000D03*
X22875000Y-35775000D03*
X22875000Y-35425000D03*
X22875000Y-35075000D03*
X22875000Y-34725000D03*
X22875000Y-34375000D03*
X22875000Y-34025000D03*
X22875000Y-33675000D03*
X22875000Y-33325000D03*
X22875000Y-32975000D03*
X22875000Y-32625000D03*
D28*
X22375000Y-32125000D03*
X22025000Y-32125000D03*
X21675000Y-32125000D03*
X21325000Y-32125000D03*
X20975000Y-32125000D03*
X20625000Y-32125000D03*
X20275000Y-32125000D03*
X19925000Y-32125000D03*
X19575000Y-32125000D03*
X19225000Y-32125000D03*
X18875000Y-32125000D03*
X18525000Y-32125000D03*
X18175000Y-32125000D03*
X17825000Y-32125000D03*
X17475000Y-32125000D03*
X17125000Y-32125000D03*
X16775000Y-32125000D03*
X16425000Y-32125000D03*
X16075000Y-32125000D03*
X15725000Y-32125000D03*
X15375000Y-32125000D03*
X15025000Y-32125000D03*
X14675000Y-32125000D03*
X14325000Y-32125000D03*
X13975000Y-32125000D03*
X13625000Y-32125000D03*
D29*
X15300000Y-34300000D03*
X15300000Y-37000000D03*
X15300000Y-39700000D03*
X18000000Y-34300000D03*
X18000000Y-37000000D03*
X18000000Y-39700000D03*
X20700000Y-34300000D03*
X20700000Y-37000000D03*
X20700000Y-39700000D03*
%TD*%
D10*
%TO.C,R1*%
X8190000Y-28000000D03*
X9210000Y-28000000D03*
%TD*%
D11*
%TO.C,C29*%
X1739912Y-53767613D03*
X2699912Y-53767613D03*
%TD*%
D10*
%TO.C,R2*%
X8240704Y-30050000D03*
X9260704Y-30050000D03*
%TD*%
D23*
%TO.C,C1*%
X26464997Y-59279899D03*
X28364997Y-59279899D03*
%TD*%
D16*
%TO.C,LED1*%
X6085000Y-21450000D03*
X6085000Y-22550000D03*
X7915000Y-22550000D03*
X7915000Y-21450000D03*
%TD*%
D10*
%TO.C,R8*%
X7824489Y-62139437D03*
X8844489Y-62139437D03*
%TD*%
%TO.C,R21*%
X25414216Y-62354033D03*
X26434216Y-62354033D03*
%TD*%
D19*
%TO.C,Q1*%
X29062500Y-15050000D03*
X29062500Y-16950000D03*
X30937500Y-16000000D03*
%TD*%
D11*
%TO.C,C24*%
X27920000Y-37000000D03*
X28880000Y-37000000D03*
%TD*%
D30*
%TO.C,J4*%
X14500000Y-3150000D03*
X15000000Y-3150000D03*
X15500000Y-3150000D03*
X16000000Y-3150000D03*
X16500000Y-3150000D03*
X17000000Y-3150000D03*
X17500000Y-3150000D03*
X18000000Y-3150000D03*
X18500000Y-3150000D03*
X19000000Y-3150000D03*
X19500000Y-3150000D03*
X20000000Y-3150000D03*
X20500000Y-3150000D03*
X21000000Y-3150000D03*
X21500000Y-3150000D03*
D31*
X12600000Y-6400000D03*
X23400000Y-6400000D03*
%TD*%
D11*
%TO.C,C18*%
X16821714Y-28127435D03*
X17781714Y-28127435D03*
%TD*%
D10*
%TO.C,R23*%
X28370022Y-44296239D03*
X29390022Y-44296239D03*
%TD*%
D11*
%TO.C,C42*%
X15258744Y-43730284D03*
X16218744Y-43730284D03*
%TD*%
D19*
%TO.C,Q4*%
X5062500Y-15050000D03*
X5062500Y-16950000D03*
X6937500Y-16000000D03*
%TD*%
D11*
%TO.C,C34*%
X5649313Y-19550121D03*
X6609313Y-19550121D03*
%TD*%
%TO.C,C38*%
X24920000Y-37000000D03*
X25880000Y-37000000D03*
%TD*%
D10*
%TO.C,R14*%
X19759119Y-25930171D03*
X20779119Y-25930171D03*
%TD*%
%TO.C,R18*%
X6412494Y-42111640D03*
X7432494Y-42111640D03*
%TD*%
D18*
%TO.C,D1*%
X12062500Y-27050000D03*
X12062500Y-28000000D03*
X12062500Y-28950000D03*
X14337500Y-28950000D03*
X14337500Y-28000000D03*
X14337500Y-27050000D03*
%TD*%
D23*
%TO.C,C5*%
X25496801Y-49996212D03*
X27396801Y-49996212D03*
%TD*%
D22*
%TO.C,SW1*%
X34400000Y-43900000D03*
X34400000Y-36100000D03*
%TD*%
D10*
%TO.C,R10*%
X31234346Y-48720196D03*
X32254346Y-48720196D03*
%TD*%
D32*
%TO.C,C26*%
X14793925Y-50787308D03*
X16343925Y-50787308D03*
%TD*%
D33*
%TO.C,Y1*%
X28900000Y-33850000D03*
X31100000Y-33850000D03*
X31100000Y-32150000D03*
X28900000Y-32150000D03*
%TD*%
D10*
%TO.C,R5*%
X24259363Y-67335406D03*
X25279363Y-67335406D03*
%TD*%
D11*
%TO.C,C16*%
X22882012Y-30276249D03*
X23842012Y-30276249D03*
%TD*%
D10*
%TO.C,R3*%
X7920428Y-59851100D03*
X8940428Y-59851100D03*
%TD*%
D34*
%TO.C,L1*%
X25437500Y-57000000D03*
X27562500Y-57000000D03*
%TD*%
D35*
%TO.C,U4*%
X13400000Y-55550000D03*
X13400000Y-57450000D03*
X14600000Y-55550000D03*
X14600000Y-57450000D03*
D17*
X11525000Y-54595000D03*
X11525000Y-55865000D03*
X11525000Y-57135000D03*
X11525000Y-58405000D03*
X16475000Y-58405000D03*
X16475000Y-57135000D03*
X16475000Y-55865000D03*
X16475000Y-54595000D03*
%TD*%
D21*
%TO.C,D5*%
X2874567Y-51349827D03*
X6874567Y-51349827D03*
%TD*%
D11*
%TO.C,C6*%
X23810011Y-60032465D03*
X24770011Y-60032465D03*
%TD*%
D10*
%TO.C,R28*%
X6878427Y-57883100D03*
X7898427Y-57883100D03*
%TD*%
D11*
%TO.C,C25*%
X24160031Y-45004372D03*
X25120031Y-45004372D03*
%TD*%
D10*
%TO.C,R29*%
X6878427Y-13116899D03*
X7898427Y-13116899D03*
%TD*%
%TO.C,R20*%
X21618488Y-48798541D03*
X22638488Y-48798541D03*
%TD*%
D32*
%TO.C,C27*%
X29171072Y-29699907D03*
X30721072Y-29699907D03*
%TD*%
D10*
%TO.C,R22*%
X12706457Y-48548494D03*
X13726457Y-48548494D03*
%TD*%
%TO.C,R11*%
X12140000Y-46266471D03*
X13160000Y-46266471D03*
%TD*%
D11*
%TO.C,C23*%
X25365304Y-42872921D03*
X26325304Y-42872921D03*
%TD*%
%TO.C,C9*%
X32965343Y-29803188D03*
X33925343Y-29803188D03*
%TD*%
D21*
%TO.C,D3*%
X29298332Y-25282775D03*
X33298332Y-25282775D03*
%TD*%
D19*
%TO.C,Q3*%
X5062500Y-54050000D03*
X5062500Y-55950000D03*
X6937500Y-55000000D03*
%TD*%
D11*
%TO.C,C22*%
X9442937Y-42001105D03*
X10402937Y-42001105D03*
%TD*%
D23*
%TO.C,C2*%
X23838562Y-64943750D03*
X25738562Y-64943750D03*
%TD*%
D36*
%TO.C,L2*%
X29625741Y-51287602D03*
X31725741Y-51287602D03*
%TD*%
D37*
%TO.C,J2*%
X1155000Y-31250000D03*
X1155000Y-30450000D03*
D38*
X1155000Y-29250000D03*
X1155000Y-28250000D03*
X1155000Y-27750000D03*
X1155000Y-26750000D03*
D37*
X1155000Y-25550000D03*
X1155000Y-24750000D03*
X1155000Y-24750000D03*
X1155000Y-25550000D03*
D38*
X1155000Y-26250000D03*
X1155000Y-27250000D03*
X1155000Y-28750000D03*
X1155000Y-29750000D03*
D37*
X1155000Y-30450000D03*
X1155000Y-31250000D03*
%TD*%
D11*
%TO.C,C37*%
X18393108Y-43743714D03*
X19353108Y-43743714D03*
%TD*%
%TO.C,C20*%
X20455661Y-46035036D03*
X21415661Y-46035036D03*
%TD*%
D10*
%TO.C,R9*%
X30596552Y-37082260D03*
X31616552Y-37082260D03*
%TD*%
D23*
%TO.C,C3*%
X7850000Y-2075000D03*
X9750000Y-2075000D03*
%TD*%
D10*
%TO.C,R6*%
X27338855Y-67363439D03*
X28358855Y-67363439D03*
%TD*%
%TO.C,R4*%
X21664836Y-51102591D03*
X22684836Y-51102591D03*
%TD*%
D21*
%TO.C,D2*%
X2600000Y-8250000D03*
X6600000Y-8250000D03*
%TD*%
D39*
%TO.C,J1*%
X17000000Y-62150000D03*
X19000000Y-62150000D03*
D40*
X14650000Y-67900000D03*
X21350000Y-67900000D03*
%TD*%
D11*
%TO.C,C28*%
X14287613Y-52780087D03*
X15247613Y-52780087D03*
%TD*%
%TO.C,C8*%
X33320000Y-33000000D03*
X34280000Y-33000000D03*
%TD*%
%TO.C,C10*%
X31264346Y-42279803D03*
X32224346Y-42279803D03*
%TD*%
M02*
