%TF.GenerationSoftware,KiCad,Pcbnew,7.0.11+dfsg-1build4*%
%TF.CreationDate,2026-06-13T08:25:08+00:00*%
%TF.ProjectId,stratosdrone,73747261-746f-4736-9472-6f6e652e6b69,rev?*%
%TF.SameCoordinates,Original*%
%TF.FileFunction,Legend,Bot*%
%TF.FilePolarity,Positive*%
%FSLAX46Y46*%
G04 Gerber Fmt 4.6, Leading zero omitted, Abs format (unit mm)*
G04 Created by KiCad (PCBNEW 7.0.11+dfsg-1build4) date 2026-06-13 08:25:08*
%MOMM*%
%LPD*%
G01*
G04 APERTURE LIST*
%ADD10C,0.150000*%
%ADD11C,0.120000*%
G04 APERTURE END LIST*
D10*
X2642857Y-19799579D02*
X2690476Y-19847199D01*
X2690476Y-19847199D02*
X2833333Y-19894818D01*
X2833333Y-19894818D02*
X2928571Y-19894818D01*
X2928571Y-19894818D02*
X3071428Y-19847199D01*
X3071428Y-19847199D02*
X3166666Y-19751960D01*
X3166666Y-19751960D02*
X3214285Y-19656722D01*
X3214285Y-19656722D02*
X3261904Y-19466246D01*
X3261904Y-19466246D02*
X3261904Y-19323389D01*
X3261904Y-19323389D02*
X3214285Y-19132913D01*
X3214285Y-19132913D02*
X3166666Y-19037675D01*
X3166666Y-19037675D02*
X3071428Y-18942437D01*
X3071428Y-18942437D02*
X2928571Y-18894818D01*
X2928571Y-18894818D02*
X2833333Y-18894818D01*
X2833333Y-18894818D02*
X2690476Y-18942437D01*
X2690476Y-18942437D02*
X2642857Y-18990056D01*
X2309523Y-18894818D02*
X1690476Y-18894818D01*
X1690476Y-18894818D02*
X2023809Y-19275770D01*
X2023809Y-19275770D02*
X1880952Y-19275770D01*
X1880952Y-19275770D02*
X1785714Y-19323389D01*
X1785714Y-19323389D02*
X1738095Y-19371008D01*
X1738095Y-19371008D02*
X1690476Y-19466246D01*
X1690476Y-19466246D02*
X1690476Y-19704341D01*
X1690476Y-19704341D02*
X1738095Y-19799579D01*
X1738095Y-19799579D02*
X1785714Y-19847199D01*
X1785714Y-19847199D02*
X1880952Y-19894818D01*
X1880952Y-19894818D02*
X2166666Y-19894818D01*
X2166666Y-19894818D02*
X2261904Y-19847199D01*
X2261904Y-19847199D02*
X2309523Y-19799579D01*
X738095Y-19894818D02*
X1309523Y-19894818D01*
X1023809Y-19894818D02*
X1023809Y-18894818D01*
X1023809Y-18894818D02*
X1119047Y-19037675D01*
X1119047Y-19037675D02*
X1214285Y-19132913D01*
X1214285Y-19132913D02*
X1309523Y-19180532D01*
X21967619Y-17309726D02*
X21967619Y-18337821D01*
X21967619Y-18337821D02*
X21907142Y-18458773D01*
X21907142Y-18458773D02*
X21846666Y-18519250D01*
X21846666Y-18519250D02*
X21725714Y-18579726D01*
X21725714Y-18579726D02*
X21483809Y-18579726D01*
X21483809Y-18579726D02*
X21362857Y-18519250D01*
X21362857Y-18519250D02*
X21302380Y-18458773D01*
X21302380Y-18458773D02*
X21241904Y-18337821D01*
X21241904Y-18337821D02*
X21241904Y-17309726D01*
X20576666Y-18579726D02*
X20334762Y-18579726D01*
X20334762Y-18579726D02*
X20213809Y-18519250D01*
X20213809Y-18519250D02*
X20153333Y-18458773D01*
X20153333Y-18458773D02*
X20032381Y-18277345D01*
X20032381Y-18277345D02*
X19971904Y-18035440D01*
X19971904Y-18035440D02*
X19971904Y-17551630D01*
X19971904Y-17551630D02*
X20032381Y-17430678D01*
X20032381Y-17430678D02*
X20092857Y-17370202D01*
X20092857Y-17370202D02*
X20213809Y-17309726D01*
X20213809Y-17309726D02*
X20455714Y-17309726D01*
X20455714Y-17309726D02*
X20576666Y-17370202D01*
X20576666Y-17370202D02*
X20637143Y-17430678D01*
X20637143Y-17430678D02*
X20697619Y-17551630D01*
X20697619Y-17551630D02*
X20697619Y-17854011D01*
X20697619Y-17854011D02*
X20637143Y-17974964D01*
X20637143Y-17974964D02*
X20576666Y-18035440D01*
X20576666Y-18035440D02*
X20455714Y-18095916D01*
X20455714Y-18095916D02*
X20213809Y-18095916D01*
X20213809Y-18095916D02*
X20092857Y-18035440D01*
X20092857Y-18035440D02*
X20032381Y-17974964D01*
X20032381Y-17974964D02*
X19971904Y-17854011D01*
X26563810Y-18579726D02*
X26563810Y-17309726D01*
X26563810Y-17309726D02*
X26080000Y-17309726D01*
X26080000Y-17309726D02*
X25959048Y-17370202D01*
X25959048Y-17370202D02*
X25898571Y-17430678D01*
X25898571Y-17430678D02*
X25838095Y-17551630D01*
X25838095Y-17551630D02*
X25838095Y-17733059D01*
X25838095Y-17733059D02*
X25898571Y-17854011D01*
X25898571Y-17854011D02*
X25959048Y-17914488D01*
X25959048Y-17914488D02*
X26080000Y-17974964D01*
X26080000Y-17974964D02*
X26563810Y-17974964D01*
X25293810Y-18579726D02*
X25293810Y-17309726D01*
X25293810Y-17309726D02*
X24870476Y-18216869D01*
X24870476Y-18216869D02*
X24447143Y-17309726D01*
X24447143Y-17309726D02*
X24447143Y-18579726D01*
X23963333Y-17309726D02*
X23660952Y-18579726D01*
X23660952Y-18579726D02*
X23419047Y-17672583D01*
X23419047Y-17672583D02*
X23177142Y-18579726D01*
X23177142Y-18579726D02*
X22874762Y-17309726D01*
X22511904Y-17309726D02*
X21725713Y-17309726D01*
X21725713Y-17309726D02*
X22149047Y-17793535D01*
X22149047Y-17793535D02*
X21967618Y-17793535D01*
X21967618Y-17793535D02*
X21846666Y-17854011D01*
X21846666Y-17854011D02*
X21786190Y-17914488D01*
X21786190Y-17914488D02*
X21725713Y-18035440D01*
X21725713Y-18035440D02*
X21725713Y-18337821D01*
X21725713Y-18337821D02*
X21786190Y-18458773D01*
X21786190Y-18458773D02*
X21846666Y-18519250D01*
X21846666Y-18519250D02*
X21967618Y-18579726D01*
X21967618Y-18579726D02*
X22330475Y-18579726D01*
X22330475Y-18579726D02*
X22451428Y-18519250D01*
X22451428Y-18519250D02*
X22511904Y-18458773D01*
X21120951Y-18579726D02*
X20879047Y-18579726D01*
X20879047Y-18579726D02*
X20758094Y-18519250D01*
X20758094Y-18519250D02*
X20697618Y-18458773D01*
X20697618Y-18458773D02*
X20576666Y-18277345D01*
X20576666Y-18277345D02*
X20516189Y-18035440D01*
X20516189Y-18035440D02*
X20516189Y-17551630D01*
X20516189Y-17551630D02*
X20576666Y-17430678D01*
X20576666Y-17430678D02*
X20637142Y-17370202D01*
X20637142Y-17370202D02*
X20758094Y-17309726D01*
X20758094Y-17309726D02*
X20999999Y-17309726D01*
X20999999Y-17309726D02*
X21120951Y-17370202D01*
X21120951Y-17370202D02*
X21181428Y-17430678D01*
X21181428Y-17430678D02*
X21241904Y-17551630D01*
X21241904Y-17551630D02*
X21241904Y-17854011D01*
X21241904Y-17854011D02*
X21181428Y-17974964D01*
X21181428Y-17974964D02*
X21120951Y-18035440D01*
X21120951Y-18035440D02*
X20999999Y-18095916D01*
X20999999Y-18095916D02*
X20758094Y-18095916D01*
X20758094Y-18095916D02*
X20637142Y-18035440D01*
X20637142Y-18035440D02*
X20576666Y-17974964D01*
X20576666Y-17974964D02*
X20516189Y-17854011D01*
X19729999Y-17309726D02*
X19609046Y-17309726D01*
X19609046Y-17309726D02*
X19488094Y-17370202D01*
X19488094Y-17370202D02*
X19427618Y-17430678D01*
X19427618Y-17430678D02*
X19367142Y-17551630D01*
X19367142Y-17551630D02*
X19306665Y-17793535D01*
X19306665Y-17793535D02*
X19306665Y-18095916D01*
X19306665Y-18095916D02*
X19367142Y-18337821D01*
X19367142Y-18337821D02*
X19427618Y-18458773D01*
X19427618Y-18458773D02*
X19488094Y-18519250D01*
X19488094Y-18519250D02*
X19609046Y-18579726D01*
X19609046Y-18579726D02*
X19729999Y-18579726D01*
X19729999Y-18579726D02*
X19850951Y-18519250D01*
X19850951Y-18519250D02*
X19911427Y-18458773D01*
X19911427Y-18458773D02*
X19971904Y-18337821D01*
X19971904Y-18337821D02*
X20032380Y-18095916D01*
X20032380Y-18095916D02*
X20032380Y-17793535D01*
X20032380Y-17793535D02*
X19971904Y-17551630D01*
X19971904Y-17551630D02*
X19911427Y-17430678D01*
X19911427Y-17430678D02*
X19850951Y-17370202D01*
X19850951Y-17370202D02*
X19729999Y-17309726D01*
X18097141Y-18579726D02*
X18822856Y-18579726D01*
X18459999Y-18579726D02*
X18459999Y-17309726D01*
X18459999Y-17309726D02*
X18580951Y-17491154D01*
X18580951Y-17491154D02*
X18701903Y-17612107D01*
X18701903Y-17612107D02*
X18822856Y-17672583D01*
X17552856Y-18579726D02*
X17552856Y-17309726D01*
X17552856Y-17309726D02*
X17129522Y-18216869D01*
X17129522Y-18216869D02*
X16706189Y-17309726D01*
X16706189Y-17309726D02*
X16706189Y-18579726D01*
X15678093Y-17914488D02*
X15496665Y-17974964D01*
X15496665Y-17974964D02*
X15436188Y-18035440D01*
X15436188Y-18035440D02*
X15375712Y-18156392D01*
X15375712Y-18156392D02*
X15375712Y-18337821D01*
X15375712Y-18337821D02*
X15436188Y-18458773D01*
X15436188Y-18458773D02*
X15496665Y-18519250D01*
X15496665Y-18519250D02*
X15617617Y-18579726D01*
X15617617Y-18579726D02*
X16101427Y-18579726D01*
X16101427Y-18579726D02*
X16101427Y-17309726D01*
X16101427Y-17309726D02*
X15678093Y-17309726D01*
X15678093Y-17309726D02*
X15557141Y-17370202D01*
X15557141Y-17370202D02*
X15496665Y-17430678D01*
X15496665Y-17430678D02*
X15436188Y-17551630D01*
X15436188Y-17551630D02*
X15436188Y-17672583D01*
X15436188Y-17672583D02*
X15496665Y-17793535D01*
X15496665Y-17793535D02*
X15557141Y-17854011D01*
X15557141Y-17854011D02*
X15678093Y-17914488D01*
X15678093Y-17914488D02*
X16101427Y-17914488D01*
X21761904Y-21254819D02*
X21761904Y-22064342D01*
X21761904Y-22064342D02*
X21714285Y-22159580D01*
X21714285Y-22159580D02*
X21666666Y-22207200D01*
X21666666Y-22207200D02*
X21571428Y-22254819D01*
X21571428Y-22254819D02*
X21380952Y-22254819D01*
X21380952Y-22254819D02*
X21285714Y-22207200D01*
X21285714Y-22207200D02*
X21238095Y-22159580D01*
X21238095Y-22159580D02*
X21190476Y-22064342D01*
X21190476Y-22064342D02*
X21190476Y-21254819D01*
X20571428Y-21683390D02*
X20666666Y-21635771D01*
X20666666Y-21635771D02*
X20714285Y-21588152D01*
X20714285Y-21588152D02*
X20761904Y-21492914D01*
X20761904Y-21492914D02*
X20761904Y-21445295D01*
X20761904Y-21445295D02*
X20714285Y-21350057D01*
X20714285Y-21350057D02*
X20666666Y-21302438D01*
X20666666Y-21302438D02*
X20571428Y-21254819D01*
X20571428Y-21254819D02*
X20380952Y-21254819D01*
X20380952Y-21254819D02*
X20285714Y-21302438D01*
X20285714Y-21302438D02*
X20238095Y-21350057D01*
X20238095Y-21350057D02*
X20190476Y-21445295D01*
X20190476Y-21445295D02*
X20190476Y-21492914D01*
X20190476Y-21492914D02*
X20238095Y-21588152D01*
X20238095Y-21588152D02*
X20285714Y-21635771D01*
X20285714Y-21635771D02*
X20380952Y-21683390D01*
X20380952Y-21683390D02*
X20571428Y-21683390D01*
X20571428Y-21683390D02*
X20666666Y-21731009D01*
X20666666Y-21731009D02*
X20714285Y-21778628D01*
X20714285Y-21778628D02*
X20761904Y-21873866D01*
X20761904Y-21873866D02*
X20761904Y-22064342D01*
X20761904Y-22064342D02*
X20714285Y-22159580D01*
X20714285Y-22159580D02*
X20666666Y-22207200D01*
X20666666Y-22207200D02*
X20571428Y-22254819D01*
X20571428Y-22254819D02*
X20380952Y-22254819D01*
X20380952Y-22254819D02*
X20285714Y-22207200D01*
X20285714Y-22207200D02*
X20238095Y-22159580D01*
X20238095Y-22159580D02*
X20190476Y-22064342D01*
X20190476Y-22064342D02*
X20190476Y-21873866D01*
X20190476Y-21873866D02*
X20238095Y-21778628D01*
X20238095Y-21778628D02*
X20285714Y-21731009D01*
X20285714Y-21731009D02*
X20380952Y-21683390D01*
X9063333Y-15124819D02*
X9063333Y-15839104D01*
X9063333Y-15839104D02*
X9110952Y-15981961D01*
X9110952Y-15981961D02*
X9206190Y-16077200D01*
X9206190Y-16077200D02*
X9349047Y-16124819D01*
X9349047Y-16124819D02*
X9444285Y-16124819D01*
X8682380Y-15124819D02*
X8063333Y-15124819D01*
X8063333Y-15124819D02*
X8396666Y-15505771D01*
X8396666Y-15505771D02*
X8253809Y-15505771D01*
X8253809Y-15505771D02*
X8158571Y-15553390D01*
X8158571Y-15553390D02*
X8110952Y-15601009D01*
X8110952Y-15601009D02*
X8063333Y-15696247D01*
X8063333Y-15696247D02*
X8063333Y-15934342D01*
X8063333Y-15934342D02*
X8110952Y-16029580D01*
X8110952Y-16029580D02*
X8158571Y-16077200D01*
X8158571Y-16077200D02*
X8253809Y-16124819D01*
X8253809Y-16124819D02*
X8539523Y-16124819D01*
X8539523Y-16124819D02*
X8634761Y-16077200D01*
X8634761Y-16077200D02*
X8682380Y-16029580D01*
X4842857Y-19799579D02*
X4890476Y-19847199D01*
X4890476Y-19847199D02*
X5033333Y-19894818D01*
X5033333Y-19894818D02*
X5128571Y-19894818D01*
X5128571Y-19894818D02*
X5271428Y-19847199D01*
X5271428Y-19847199D02*
X5366666Y-19751960D01*
X5366666Y-19751960D02*
X5414285Y-19656722D01*
X5414285Y-19656722D02*
X5461904Y-19466246D01*
X5461904Y-19466246D02*
X5461904Y-19323389D01*
X5461904Y-19323389D02*
X5414285Y-19132913D01*
X5414285Y-19132913D02*
X5366666Y-19037675D01*
X5366666Y-19037675D02*
X5271428Y-18942437D01*
X5271428Y-18942437D02*
X5128571Y-18894818D01*
X5128571Y-18894818D02*
X5033333Y-18894818D01*
X5033333Y-18894818D02*
X4890476Y-18942437D01*
X4890476Y-18942437D02*
X4842857Y-18990056D01*
X4509523Y-18894818D02*
X3890476Y-18894818D01*
X3890476Y-18894818D02*
X4223809Y-19275770D01*
X4223809Y-19275770D02*
X4080952Y-19275770D01*
X4080952Y-19275770D02*
X3985714Y-19323389D01*
X3985714Y-19323389D02*
X3938095Y-19371008D01*
X3938095Y-19371008D02*
X3890476Y-19466246D01*
X3890476Y-19466246D02*
X3890476Y-19704341D01*
X3890476Y-19704341D02*
X3938095Y-19799579D01*
X3938095Y-19799579D02*
X3985714Y-19847199D01*
X3985714Y-19847199D02*
X4080952Y-19894818D01*
X4080952Y-19894818D02*
X4366666Y-19894818D01*
X4366666Y-19894818D02*
X4461904Y-19847199D01*
X4461904Y-19847199D02*
X4509523Y-19799579D01*
X3509523Y-18990056D02*
X3461904Y-18942437D01*
X3461904Y-18942437D02*
X3366666Y-18894818D01*
X3366666Y-18894818D02*
X3128571Y-18894818D01*
X3128571Y-18894818D02*
X3033333Y-18942437D01*
X3033333Y-18942437D02*
X2985714Y-18990056D01*
X2985714Y-18990056D02*
X2938095Y-19085294D01*
X2938095Y-19085294D02*
X2938095Y-19180532D01*
X2938095Y-19180532D02*
X2985714Y-19323389D01*
X2985714Y-19323389D02*
X3557142Y-19894818D01*
X3557142Y-19894818D02*
X2938095Y-19894818D01*
D11*
%TO.C,C31*%
X2107836Y-20959999D02*
X1892164Y-20959999D01*
X2107836Y-20239999D02*
X1892164Y-20239999D01*
%TO.C,U8*%
X23350000Y-25360000D02*
X23350000Y-24760000D01*
X23350000Y-23060000D02*
X23350000Y-23660000D01*
X22870000Y-22660000D02*
X22550000Y-22660000D01*
X22750000Y-25360000D02*
X23350000Y-25360000D01*
X19250000Y-22660000D02*
X18650000Y-22660000D01*
X18650000Y-25360000D02*
X19250000Y-25360000D01*
X18650000Y-24760000D02*
X18650000Y-25360000D01*
X18650000Y-22660000D02*
X18650000Y-23260000D01*
X23510000Y-22760000D02*
X23230000Y-22760000D01*
X23230000Y-22480000D01*
X23510000Y-22760000D01*
G36*
X23510000Y-22760000D02*
G01*
X23230000Y-22760000D01*
X23230000Y-22480000D01*
X23510000Y-22760000D01*
G37*
%TO.C,J3*%
X11330000Y-26950000D02*
X6130000Y-26950000D01*
X11330000Y-19270000D02*
X11330000Y-26950000D01*
X11330000Y-19270000D02*
X8730000Y-19270000D01*
X11330000Y-18000000D02*
X11330000Y-16670000D01*
X11330000Y-16670000D02*
X10000000Y-16670000D01*
X8730000Y-19270000D02*
X8730000Y-16670000D01*
X8730000Y-16670000D02*
X6130000Y-16670000D01*
X6130000Y-16670000D02*
X6130000Y-26950000D01*
%TO.C,C32*%
X4307836Y-20959999D02*
X4092164Y-20959999D01*
X4307836Y-20239999D02*
X4092164Y-20239999D01*
%TD*%
M02*
