%TF.GenerationSoftware,KiCad,Pcbnew,7.0.11+dfsg-1build4*%
%TF.CreationDate,2026-06-21T11:47:14+00:00*%
%TF.ProjectId,stratosdrone,73747261-746f-4736-9472-6f6e652e6b69,rev?*%
%TF.SameCoordinates,Original*%
%TF.FileFunction,Legend,Bot*%
%TF.FilePolarity,Positive*%
%FSLAX46Y46*%
G04 Gerber Fmt 4.6, Leading zero omitted, Abs format (unit mm)*
G04 Created by KiCad (PCBNEW 7.0.11+dfsg-1build4) date 2026-06-21 11:47:14*
%MOMM*%
%LPD*%
G01*
G04 APERTURE LIST*
%ADD10C,0.150000*%
%ADD11C,0.120000*%
%ADD12C,0.200000*%
G04 APERTURE END LIST*
D10*
X8329887Y-38346009D02*
X8663220Y-38346009D01*
X8663220Y-38869819D02*
X8663220Y-37869819D01*
X8663220Y-37869819D02*
X8187030Y-37869819D01*
X7329887Y-38869819D02*
X7806077Y-38869819D01*
X7806077Y-38869819D02*
X7806077Y-37869819D01*
X6806077Y-37869819D02*
X6615601Y-37869819D01*
X6615601Y-37869819D02*
X6520363Y-37917438D01*
X6520363Y-37917438D02*
X6425125Y-38012676D01*
X6425125Y-38012676D02*
X6377506Y-38203152D01*
X6377506Y-38203152D02*
X6377506Y-38536485D01*
X6377506Y-38536485D02*
X6425125Y-38726961D01*
X6425125Y-38726961D02*
X6520363Y-38822200D01*
X6520363Y-38822200D02*
X6615601Y-38869819D01*
X6615601Y-38869819D02*
X6806077Y-38869819D01*
X6806077Y-38869819D02*
X6901315Y-38822200D01*
X6901315Y-38822200D02*
X6996553Y-38726961D01*
X6996553Y-38726961D02*
X7044172Y-38536485D01*
X7044172Y-38536485D02*
X7044172Y-38203152D01*
X7044172Y-38203152D02*
X6996553Y-38012676D01*
X6996553Y-38012676D02*
X6901315Y-37917438D01*
X6901315Y-37917438D02*
X6806077Y-37869819D01*
X6044172Y-37869819D02*
X5806077Y-38869819D01*
X5806077Y-38869819D02*
X5615601Y-38155533D01*
X5615601Y-38155533D02*
X5425125Y-38869819D01*
X5425125Y-38869819D02*
X5187030Y-37869819D01*
X4044172Y-38488866D02*
X3282268Y-38488866D01*
X3663220Y-38869819D02*
X3663220Y-38107914D01*
X2187029Y-37869819D02*
X1615601Y-37869819D01*
X1901315Y-38869819D02*
X1901315Y-37869819D01*
X1139410Y-38869819D02*
X1234648Y-38822200D01*
X1234648Y-38822200D02*
X1282267Y-38774580D01*
X1282267Y-38774580D02*
X1329886Y-38679342D01*
X1329886Y-38679342D02*
X1329886Y-38393628D01*
X1329886Y-38393628D02*
X1282267Y-38298390D01*
X1282267Y-38298390D02*
X1234648Y-38250771D01*
X1234648Y-38250771D02*
X1139410Y-38203152D01*
X1139410Y-38203152D02*
X996553Y-38203152D01*
X996553Y-38203152D02*
X901315Y-38250771D01*
X901315Y-38250771D02*
X853696Y-38298390D01*
X853696Y-38298390D02*
X806077Y-38393628D01*
X806077Y-38393628D02*
X806077Y-38679342D01*
X806077Y-38679342D02*
X853696Y-38774580D01*
X853696Y-38774580D02*
X901315Y-38822200D01*
X901315Y-38822200D02*
X996553Y-38869819D01*
X996553Y-38869819D02*
X1139410Y-38869819D01*
X44172Y-38346009D02*
X377505Y-38346009D01*
X377505Y-38869819D02*
X377505Y-37869819D01*
X377505Y-37869819D02*
X-98684Y-37869819D01*
X18761904Y-41254819D02*
X18761904Y-42064342D01*
X18761904Y-42064342D02*
X18714285Y-42159580D01*
X18714285Y-42159580D02*
X18666666Y-42207200D01*
X18666666Y-42207200D02*
X18571428Y-42254819D01*
X18571428Y-42254819D02*
X18380952Y-42254819D01*
X18380952Y-42254819D02*
X18285714Y-42207200D01*
X18285714Y-42207200D02*
X18238095Y-42159580D01*
X18238095Y-42159580D02*
X18190476Y-42064342D01*
X18190476Y-42064342D02*
X18190476Y-41254819D01*
X17666666Y-42254819D02*
X17476190Y-42254819D01*
X17476190Y-42254819D02*
X17380952Y-42207200D01*
X17380952Y-42207200D02*
X17333333Y-42159580D01*
X17333333Y-42159580D02*
X17238095Y-42016723D01*
X17238095Y-42016723D02*
X17190476Y-41826247D01*
X17190476Y-41826247D02*
X17190476Y-41445295D01*
X17190476Y-41445295D02*
X17238095Y-41350057D01*
X17238095Y-41350057D02*
X17285714Y-41302438D01*
X17285714Y-41302438D02*
X17380952Y-41254819D01*
X17380952Y-41254819D02*
X17571428Y-41254819D01*
X17571428Y-41254819D02*
X17666666Y-41302438D01*
X17666666Y-41302438D02*
X17714285Y-41350057D01*
X17714285Y-41350057D02*
X17761904Y-41445295D01*
X17761904Y-41445295D02*
X17761904Y-41683390D01*
X17761904Y-41683390D02*
X17714285Y-41778628D01*
X17714285Y-41778628D02*
X17666666Y-41826247D01*
X17666666Y-41826247D02*
X17571428Y-41873866D01*
X17571428Y-41873866D02*
X17380952Y-41873866D01*
X17380952Y-41873866D02*
X17285714Y-41826247D01*
X17285714Y-41826247D02*
X17238095Y-41778628D01*
X17238095Y-41778628D02*
X17190476Y-41683390D01*
X12642857Y-36199580D02*
X12690476Y-36247200D01*
X12690476Y-36247200D02*
X12833333Y-36294819D01*
X12833333Y-36294819D02*
X12928571Y-36294819D01*
X12928571Y-36294819D02*
X13071428Y-36247200D01*
X13071428Y-36247200D02*
X13166666Y-36151961D01*
X13166666Y-36151961D02*
X13214285Y-36056723D01*
X13214285Y-36056723D02*
X13261904Y-35866247D01*
X13261904Y-35866247D02*
X13261904Y-35723390D01*
X13261904Y-35723390D02*
X13214285Y-35532914D01*
X13214285Y-35532914D02*
X13166666Y-35437676D01*
X13166666Y-35437676D02*
X13071428Y-35342438D01*
X13071428Y-35342438D02*
X12928571Y-35294819D01*
X12928571Y-35294819D02*
X12833333Y-35294819D01*
X12833333Y-35294819D02*
X12690476Y-35342438D01*
X12690476Y-35342438D02*
X12642857Y-35390057D01*
X12309523Y-35294819D02*
X11690476Y-35294819D01*
X11690476Y-35294819D02*
X12023809Y-35675771D01*
X12023809Y-35675771D02*
X11880952Y-35675771D01*
X11880952Y-35675771D02*
X11785714Y-35723390D01*
X11785714Y-35723390D02*
X11738095Y-35771009D01*
X11738095Y-35771009D02*
X11690476Y-35866247D01*
X11690476Y-35866247D02*
X11690476Y-36104342D01*
X11690476Y-36104342D02*
X11738095Y-36199580D01*
X11738095Y-36199580D02*
X11785714Y-36247200D01*
X11785714Y-36247200D02*
X11880952Y-36294819D01*
X11880952Y-36294819D02*
X12166666Y-36294819D01*
X12166666Y-36294819D02*
X12261904Y-36247200D01*
X12261904Y-36247200D02*
X12309523Y-36199580D01*
X10738095Y-36294819D02*
X11309523Y-36294819D01*
X11023809Y-36294819D02*
X11023809Y-35294819D01*
X11023809Y-35294819D02*
X11119047Y-35437676D01*
X11119047Y-35437676D02*
X11214285Y-35532914D01*
X11214285Y-35532914D02*
X11309523Y-35580533D01*
X18761904Y-33254819D02*
X18761904Y-34064342D01*
X18761904Y-34064342D02*
X18714285Y-34159580D01*
X18714285Y-34159580D02*
X18666666Y-34207200D01*
X18666666Y-34207200D02*
X18571428Y-34254819D01*
X18571428Y-34254819D02*
X18380952Y-34254819D01*
X18380952Y-34254819D02*
X18285714Y-34207200D01*
X18285714Y-34207200D02*
X18238095Y-34159580D01*
X18238095Y-34159580D02*
X18190476Y-34064342D01*
X18190476Y-34064342D02*
X18190476Y-33254819D01*
X17571428Y-33683390D02*
X17666666Y-33635771D01*
X17666666Y-33635771D02*
X17714285Y-33588152D01*
X17714285Y-33588152D02*
X17761904Y-33492914D01*
X17761904Y-33492914D02*
X17761904Y-33445295D01*
X17761904Y-33445295D02*
X17714285Y-33350057D01*
X17714285Y-33350057D02*
X17666666Y-33302438D01*
X17666666Y-33302438D02*
X17571428Y-33254819D01*
X17571428Y-33254819D02*
X17380952Y-33254819D01*
X17380952Y-33254819D02*
X17285714Y-33302438D01*
X17285714Y-33302438D02*
X17238095Y-33350057D01*
X17238095Y-33350057D02*
X17190476Y-33445295D01*
X17190476Y-33445295D02*
X17190476Y-33492914D01*
X17190476Y-33492914D02*
X17238095Y-33588152D01*
X17238095Y-33588152D02*
X17285714Y-33635771D01*
X17285714Y-33635771D02*
X17380952Y-33683390D01*
X17380952Y-33683390D02*
X17571428Y-33683390D01*
X17571428Y-33683390D02*
X17666666Y-33731009D01*
X17666666Y-33731009D02*
X17714285Y-33778628D01*
X17714285Y-33778628D02*
X17761904Y-33873866D01*
X17761904Y-33873866D02*
X17761904Y-34064342D01*
X17761904Y-34064342D02*
X17714285Y-34159580D01*
X17714285Y-34159580D02*
X17666666Y-34207200D01*
X17666666Y-34207200D02*
X17571428Y-34254819D01*
X17571428Y-34254819D02*
X17380952Y-34254819D01*
X17380952Y-34254819D02*
X17285714Y-34207200D01*
X17285714Y-34207200D02*
X17238095Y-34159580D01*
X17238095Y-34159580D02*
X17190476Y-34064342D01*
X17190476Y-34064342D02*
X17190476Y-33873866D01*
X17190476Y-33873866D02*
X17238095Y-33778628D01*
X17238095Y-33778628D02*
X17285714Y-33731009D01*
X17285714Y-33731009D02*
X17380952Y-33683390D01*
X27063333Y-39124819D02*
X27063333Y-39839104D01*
X27063333Y-39839104D02*
X27110952Y-39981961D01*
X27110952Y-39981961D02*
X27206190Y-40077200D01*
X27206190Y-40077200D02*
X27349047Y-40124819D01*
X27349047Y-40124819D02*
X27444285Y-40124819D01*
X26682380Y-39124819D02*
X26063333Y-39124819D01*
X26063333Y-39124819D02*
X26396666Y-39505771D01*
X26396666Y-39505771D02*
X26253809Y-39505771D01*
X26253809Y-39505771D02*
X26158571Y-39553390D01*
X26158571Y-39553390D02*
X26110952Y-39601009D01*
X26110952Y-39601009D02*
X26063333Y-39696247D01*
X26063333Y-39696247D02*
X26063333Y-39934342D01*
X26063333Y-39934342D02*
X26110952Y-40029580D01*
X26110952Y-40029580D02*
X26158571Y-40077200D01*
X26158571Y-40077200D02*
X26253809Y-40124819D01*
X26253809Y-40124819D02*
X26539523Y-40124819D01*
X26539523Y-40124819D02*
X26634761Y-40077200D01*
X26634761Y-40077200D02*
X26682380Y-40029580D01*
X20642857Y-49199580D02*
X20690476Y-49247200D01*
X20690476Y-49247200D02*
X20833333Y-49294819D01*
X20833333Y-49294819D02*
X20928571Y-49294819D01*
X20928571Y-49294819D02*
X21071428Y-49247200D01*
X21071428Y-49247200D02*
X21166666Y-49151961D01*
X21166666Y-49151961D02*
X21214285Y-49056723D01*
X21214285Y-49056723D02*
X21261904Y-48866247D01*
X21261904Y-48866247D02*
X21261904Y-48723390D01*
X21261904Y-48723390D02*
X21214285Y-48532914D01*
X21214285Y-48532914D02*
X21166666Y-48437676D01*
X21166666Y-48437676D02*
X21071428Y-48342438D01*
X21071428Y-48342438D02*
X20928571Y-48294819D01*
X20928571Y-48294819D02*
X20833333Y-48294819D01*
X20833333Y-48294819D02*
X20690476Y-48342438D01*
X20690476Y-48342438D02*
X20642857Y-48390057D01*
X20309523Y-48294819D02*
X19690476Y-48294819D01*
X19690476Y-48294819D02*
X20023809Y-48675771D01*
X20023809Y-48675771D02*
X19880952Y-48675771D01*
X19880952Y-48675771D02*
X19785714Y-48723390D01*
X19785714Y-48723390D02*
X19738095Y-48771009D01*
X19738095Y-48771009D02*
X19690476Y-48866247D01*
X19690476Y-48866247D02*
X19690476Y-49104342D01*
X19690476Y-49104342D02*
X19738095Y-49199580D01*
X19738095Y-49199580D02*
X19785714Y-49247200D01*
X19785714Y-49247200D02*
X19880952Y-49294819D01*
X19880952Y-49294819D02*
X20166666Y-49294819D01*
X20166666Y-49294819D02*
X20261904Y-49247200D01*
X20261904Y-49247200D02*
X20309523Y-49199580D01*
X19309523Y-48390057D02*
X19261904Y-48342438D01*
X19261904Y-48342438D02*
X19166666Y-48294819D01*
X19166666Y-48294819D02*
X18928571Y-48294819D01*
X18928571Y-48294819D02*
X18833333Y-48342438D01*
X18833333Y-48342438D02*
X18785714Y-48390057D01*
X18785714Y-48390057D02*
X18738095Y-48485295D01*
X18738095Y-48485295D02*
X18738095Y-48580533D01*
X18738095Y-48580533D02*
X18785714Y-48723390D01*
X18785714Y-48723390D02*
X19357142Y-49294819D01*
X19357142Y-49294819D02*
X18738095Y-49294819D01*
X8738094Y-28954819D02*
X8738094Y-27954819D01*
X8738094Y-27954819D02*
X8499999Y-27954819D01*
X8499999Y-27954819D02*
X8357142Y-28002438D01*
X8357142Y-28002438D02*
X8261904Y-28097676D01*
X8261904Y-28097676D02*
X8214285Y-28192914D01*
X8214285Y-28192914D02*
X8166666Y-28383390D01*
X8166666Y-28383390D02*
X8166666Y-28526247D01*
X8166666Y-28526247D02*
X8214285Y-28716723D01*
X8214285Y-28716723D02*
X8261904Y-28811961D01*
X8261904Y-28811961D02*
X8357142Y-28907200D01*
X8357142Y-28907200D02*
X8499999Y-28954819D01*
X8499999Y-28954819D02*
X8738094Y-28954819D01*
X7785713Y-28050057D02*
X7738094Y-28002438D01*
X7738094Y-28002438D02*
X7642856Y-27954819D01*
X7642856Y-27954819D02*
X7404761Y-27954819D01*
X7404761Y-27954819D02*
X7309523Y-28002438D01*
X7309523Y-28002438D02*
X7261904Y-28050057D01*
X7261904Y-28050057D02*
X7214285Y-28145295D01*
X7214285Y-28145295D02*
X7214285Y-28240533D01*
X7214285Y-28240533D02*
X7261904Y-28383390D01*
X7261904Y-28383390D02*
X7833332Y-28954819D01*
X7833332Y-28954819D02*
X7214285Y-28954819D01*
D11*
%TO.C,U9*%
X19800000Y-45500000D02*
X16200000Y-45500000D01*
X19800000Y-42500000D02*
X19800000Y-45500000D01*
X19800000Y-42500000D02*
X16200000Y-42500000D01*
X16200000Y-42500000D02*
X16200000Y-45500000D01*
D12*
X19750000Y-45200000D02*
G75*
G03*
X19450000Y-45200000I-150000J0D01*
G01*
X19450000Y-45200000D02*
G75*
G03*
X19750000Y-45200000I150000J0D01*
G01*
D11*
%TO.C,C31*%
X12107836Y-37360000D02*
X11892164Y-37360000D01*
X12107836Y-36640000D02*
X11892164Y-36640000D01*
%TO.C,U8*%
X20550000Y-37350000D02*
X15450000Y-37350000D01*
X20550000Y-34950000D02*
X20550000Y-37350000D01*
X15450000Y-37350000D02*
X15450000Y-34650000D01*
X15450000Y-34650000D02*
X20250000Y-34650000D01*
X20830000Y-34650000D02*
X20550000Y-34650000D01*
X20550000Y-34370000D01*
X20830000Y-34650000D01*
G36*
X20830000Y-34650000D02*
G01*
X20550000Y-34650000D01*
X20550000Y-34370000D01*
X20830000Y-34650000D01*
G37*
%TO.C,J3*%
X29330000Y-50950000D02*
X24130000Y-50950000D01*
X29330000Y-43270000D02*
X29330000Y-50950000D01*
X29330000Y-43270000D02*
X26730000Y-43270000D01*
X29330000Y-42000000D02*
X29330000Y-40670000D01*
X29330000Y-40670000D02*
X28000000Y-40670000D01*
X26730000Y-43270000D02*
X26730000Y-40670000D01*
X26730000Y-40670000D02*
X24130000Y-40670000D01*
X24130000Y-40670000D02*
X24130000Y-50950000D01*
%TO.C,C32*%
X20107836Y-50360000D02*
X19892164Y-50360000D01*
X20107836Y-49640000D02*
X19892164Y-49640000D01*
%TO.C,D2*%
X11510000Y-32650000D02*
X6000000Y-32650000D01*
X11510000Y-29350000D02*
X11510000Y-32650000D01*
X11510000Y-29350000D02*
X6000000Y-29350000D01*
%TD*%
M02*
