%TF.GenerationSoftware,KiCad,Pcbnew,7.0.11+dfsg-1build4*%
%TF.CreationDate,2026-06-20T21:57:05+00:00*%
%TF.ProjectId,stratosdrone,73747261-746f-4736-9472-6f6e652e6b69,rev?*%
%TF.SameCoordinates,Original*%
%TF.FileFunction,Copper,L4,Bot*%
%TF.FilePolarity,Positive*%
%FSLAX46Y46*%
G04 Gerber Fmt 4.6, Leading zero omitted, Abs format (unit mm)*
G04 Created by KiCad (PCBNEW 7.0.11+dfsg-1build4) date 2026-06-20 21:57:05*
%MOMM*%
%LPD*%
G01*
G04 APERTURE LIST*
G04 Aperture macros list*
%AMRoundRect*
0 Rectangle with rounded corners*
0 $1 Rounding radius*
0 $2 $3 $4 $5 $6 $7 $8 $9 X,Y pos of 4 corners*
0 Add a 4 corners polygon primitive as box body*
4,1,4,$2,$3,$4,$5,$6,$7,$8,$9,$2,$3,0*
0 Add four circle primitives for the rounded corners*
1,1,$1+$1,$2,$3*
1,1,$1+$1,$4,$5*
1,1,$1+$1,$6,$7*
1,1,$1+$1,$8,$9*
0 Add four rect primitives between the rounded corners*
20,1,$1+$1,$2,$3,$4,$5,0*
20,1,$1+$1,$4,$5,$6,$7,0*
20,1,$1+$1,$6,$7,$8,$9,0*
20,1,$1+$1,$8,$9,$2,$3,0*%
G04 Aperture macros list end*
%TA.AperFunction,ComponentPad*%
%ADD10O,2.100000X1.000000*%
%TD*%
%TA.AperFunction,ComponentPad*%
%ADD11O,1.600000X1.000000*%
%TD*%
%TA.AperFunction,ComponentPad*%
%ADD12R,1.700000X1.700000*%
%TD*%
%TA.AperFunction,ComponentPad*%
%ADD13O,1.700000X1.700000*%
%TD*%
%TA.AperFunction,ComponentPad*%
%ADD14R,1.000000X1.000000*%
%TD*%
%TA.AperFunction,ComponentPad*%
%ADD15O,1.000000X1.000000*%
%TD*%
%TA.AperFunction,SMDPad,CuDef*%
%ADD16RoundRect,0.140000X0.140000X0.170000X-0.140000X0.170000X-0.140000X-0.170000X0.140000X-0.170000X0*%
%TD*%
%TA.AperFunction,SMDPad,CuDef*%
%ADD17RoundRect,0.062500X0.127500X0.062500X-0.127500X0.062500X-0.127500X-0.062500X0.127500X-0.062500X0*%
%TD*%
%TA.AperFunction,SMDPad,CuDef*%
%ADD18RoundRect,0.125000X0.125000X0.125000X-0.125000X0.125000X-0.125000X-0.125000X0.125000X-0.125000X0*%
%TD*%
%TA.AperFunction,SMDPad,CuDef*%
%ADD19RoundRect,0.112500X0.112500X0.237500X-0.112500X0.237500X-0.112500X-0.237500X0.112500X-0.237500X0*%
%TD*%
%TA.AperFunction,SMDPad,CuDef*%
%ADD20RoundRect,0.250000X1.000000X0.650000X-1.000000X0.650000X-1.000000X-0.650000X1.000000X-0.650000X0*%
%TD*%
%TA.AperFunction,ViaPad*%
%ADD21C,0.400000*%
%TD*%
%TA.AperFunction,ViaPad*%
%ADD22C,0.450000*%
%TD*%
%TA.AperFunction,Conductor*%
%ADD23C,0.200000*%
%TD*%
G04 APERTURE END LIST*
D10*
%TO.P,J2,S1*%
%TO.N,GND*%
X2070000Y-32320000D03*
D11*
X6250000Y-32320000D03*
D10*
X2070000Y-23680000D03*
D11*
X6250000Y-23680000D03*
%TD*%
D12*
%TO.P,J5,1*%
%TO.N,VBAT*%
X32000000Y-11000000D03*
D13*
%TO.P,J5,2*%
%TO.N,M1_D*%
X32000000Y-13540000D03*
%TD*%
D14*
%TO.P,J9,1*%
%TO.N,3V3*%
X4000000Y-40000000D03*
D15*
%TO.P,J9,2*%
%TO.N,GND*%
X4000000Y-41270000D03*
%TO.P,J9,3*%
%TO.N,VBAT*%
X4000000Y-42540000D03*
%TO.P,J9,4*%
%TO.N,I2C_SDA*%
X4000000Y-43810000D03*
%TO.P,J9,5*%
%TO.N,I2C_SCL*%
X4000000Y-45080000D03*
%TO.P,J9,6*%
%TO.N,EXP_IO*%
X4000000Y-46350000D03*
%TD*%
D12*
%TO.P,J7,1*%
%TO.N,VBAT*%
X4000000Y-59000000D03*
D13*
%TO.P,J7,2*%
%TO.N,M3_D*%
X4000000Y-61540000D03*
%TD*%
D12*
%TO.P,J6,1*%
%TO.N,VBAT*%
X32000000Y-59000000D03*
D13*
%TO.P,J6,2*%
%TO.N,M2_D*%
X32000000Y-61540000D03*
%TD*%
D12*
%TO.P,J8,1*%
%TO.N,VBAT*%
X4000000Y-11000000D03*
D13*
%TO.P,J8,2*%
%TO.N,M4_D*%
X4000000Y-13540000D03*
%TD*%
D14*
%TO.P,J10,1*%
%TO.N,GND*%
X11000000Y-62000000D03*
D15*
%TO.P,J10,2*%
%TO.N,U0TXD*%
X11000000Y-63270000D03*
%TO.P,J10,3*%
%TO.N,U0RXD*%
X11000000Y-64540000D03*
%TO.P,J10,4*%
%TO.N,3V3*%
X11000000Y-65810000D03*
%TD*%
D14*
%TO.P,J11,1*%
%TO.N,GND*%
X28500000Y-62000000D03*
D15*
%TO.P,J11,2*%
%TO.N,C6_U0TXD*%
X28500000Y-63270000D03*
%TO.P,J11,3*%
%TO.N,C6_U0RXD*%
X28500000Y-64540000D03*
%TO.P,J11,4*%
%TO.N,C6_BOOT*%
X28500000Y-65810000D03*
%TD*%
D16*
%TO.P,C32,1*%
%TO.N,3V3*%
X19008985Y-46545618D03*
%TO.P,C32,2*%
%TO.N,GND*%
X18048985Y-46545618D03*
%TD*%
D17*
%TO.P,U8,1*%
%TO.N,3V3*%
X19740000Y-35325000D03*
D18*
X19600000Y-35200000D03*
%TO.P,U8,2*%
%TO.N,GND*%
X18800000Y-35200000D03*
%TO.P,U8,3*%
X18000000Y-35200000D03*
%TO.P,U8,4*%
X17200000Y-35200000D03*
%TO.P,U8,5*%
%TO.N,VL53_XSHUT*%
X16400000Y-35200000D03*
%TO.P,U8,6*%
%TO.N,GND*%
X16400000Y-36000000D03*
%TO.P,U8,7*%
%TO.N,TOF_INT*%
X16400000Y-36800000D03*
%TO.P,U8,8*%
%TO.N,N/C*%
X17200000Y-36800000D03*
%TO.P,U8,9*%
%TO.N,I2C_SDA*%
X18000000Y-36800000D03*
%TO.P,U8,10*%
%TO.N,I2C_SCL*%
X18800000Y-36800000D03*
%TO.P,U8,11*%
%TO.N,3V3*%
X19600000Y-36800000D03*
%TO.P,U8,12*%
%TO.N,GND*%
X19600000Y-36000000D03*
%TD*%
D19*
%TO.P,U9,1*%
%TO.N,3V3*%
X19200000Y-45000000D03*
%TO.P,U9,2*%
%TO.N,GND*%
X18400000Y-45000000D03*
%TO.P,U9,3*%
%TO.N,SPI_SCLK*%
X17600000Y-45000000D03*
%TO.P,U9,4*%
%TO.N,SPI_MOSI*%
X16800000Y-45000000D03*
%TO.P,U9,5*%
%TO.N,SPI_MISO*%
X16800000Y-43000000D03*
%TO.P,U9,6*%
%TO.N,CS_FLOW*%
X17600000Y-43000000D03*
%TO.P,U9,7*%
%TO.N,GND*%
X18400000Y-43000000D03*
%TO.P,U9,8*%
%TO.N,3V3*%
X19200000Y-43000000D03*
%TD*%
D16*
%TO.P,C31,1*%
%TO.N,3V3*%
X19008985Y-38545618D03*
%TO.P,C31,2*%
%TO.N,GND*%
X18048985Y-38545618D03*
%TD*%
D20*
%TO.P,D2,1*%
%TO.N,VBAT*%
X13000000Y-13000000D03*
%TO.P,D2,2*%
%TO.N,VBUS*%
X9000000Y-13000000D03*
%TD*%
D12*
%TO.P,J3,1*%
%TO.N,3V3*%
X28000000Y-42000000D03*
D13*
%TO.P,J3,2*%
%TO.N,CS_FLOW*%
X25460000Y-42000000D03*
%TO.P,J3,3*%
%TO.N,GND*%
X28000000Y-44540000D03*
%TO.P,J3,4*%
%TO.N,SPI_SCLK*%
X25460000Y-44540000D03*
%TO.P,J3,5*%
%TO.N,SPI_MOSI*%
X28000000Y-47080000D03*
%TO.P,J3,6*%
%TO.N,SPI_MISO*%
X25460000Y-47080000D03*
%TO.P,J3,7*%
%TO.N,GND*%
X28000000Y-49620000D03*
%TO.P,J3,8*%
%TO.N,3V3*%
X25460000Y-49620000D03*
%TD*%
D21*
%TO.N,GND*%
X34400000Y-47100000D03*
X28500000Y-62000000D03*
X19975000Y-19725000D03*
X29915000Y-22550000D03*
X7537116Y-14128553D03*
X15300000Y-39700000D03*
X25378516Y-32949016D03*
X24891384Y-59536774D03*
X12050000Y-16750000D03*
X28000000Y-44540000D03*
X25349922Y-34249697D03*
X25984076Y-42864143D03*
X16025000Y-21700000D03*
X18000000Y-23675000D03*
X34094357Y-67772803D03*
X5062500Y-18950000D03*
X7038985Y-54545618D03*
X24776118Y-46927062D03*
X16897584Y-29158063D03*
X18000000Y-34300000D03*
X14277398Y-43807212D03*
X28000000Y-49620000D03*
X20700000Y-39700000D03*
X21403047Y-45088002D03*
X16579497Y-43529019D03*
X9522179Y-56848782D03*
X25378516Y-41050983D03*
X15300000Y-37000000D03*
X18000000Y-35200000D03*
X7767933Y-43880230D03*
X16862500Y-51300000D03*
X15300000Y-34300000D03*
X12848197Y-30500553D03*
X20862500Y-57000000D03*
X11525000Y-54595000D03*
X24770384Y-66227169D03*
X18000000Y-21700000D03*
X20700000Y-34300000D03*
X4000000Y-41270000D03*
X34400000Y-36100000D03*
X34010000Y-18000000D03*
X12050000Y-26650000D03*
X19975000Y-21700000D03*
X18128097Y-30509532D03*
X11525000Y-57135000D03*
X29062500Y-18950000D03*
X23415455Y-43673176D03*
X29507060Y-44237987D03*
X31038985Y-54545618D03*
X2070000Y-32320000D03*
X14000000Y-56500000D03*
X18048985Y-46545618D03*
X31380000Y-47000000D03*
X9915000Y-9550000D03*
X19600000Y-36000000D03*
X23950000Y-26650000D03*
X33980000Y-33000000D03*
X11680000Y-47000000D03*
X16400000Y-36000000D03*
X6240565Y-34177256D03*
X19534247Y-28767226D03*
X29062500Y-52950000D03*
X31100000Y-33850000D03*
X18000000Y-39700000D03*
X28900000Y-32150000D03*
X22629519Y-30513746D03*
X23950000Y-16750000D03*
X21073921Y-43609203D03*
X6250000Y-32320000D03*
X18048985Y-38545618D03*
X11603369Y-41647790D03*
X19975000Y-23675000D03*
X16025000Y-19725000D03*
X18000000Y-19725000D03*
X16025000Y-23675000D03*
X25349922Y-39750302D03*
X24133034Y-49915026D03*
X19386549Y-46459474D03*
X24744088Y-63422526D03*
X32380000Y-22000000D03*
X9050759Y-59229279D03*
X1155000Y-31250000D03*
X20402967Y-30165367D03*
X31540512Y-41047770D03*
X7577833Y-67822961D03*
X25607700Y-31146569D03*
X10190739Y-11187429D03*
X6525000Y-39905000D03*
X6250000Y-23680000D03*
X5062500Y-52950000D03*
X20700000Y-37000000D03*
X19010583Y-44982385D03*
X11869586Y-28706746D03*
X11000000Y-62000000D03*
X8000000Y-47000000D03*
X31008985Y-30454381D03*
X14439484Y-29070041D03*
X11610077Y-34249697D03*
X1155000Y-24750000D03*
X19000000Y-62150000D03*
X18000000Y-37000000D03*
X17200000Y-35200000D03*
X26780000Y-5000000D03*
X2070000Y-23680000D03*
X18400000Y-43000000D03*
X16731362Y-45113708D03*
X7038985Y-20545618D03*
X18800000Y-35200000D03*
X15559861Y-30528308D03*
X20351523Y-48189484D03*
X28015827Y-29291512D03*
X18400000Y-45000000D03*
D22*
%TO.N,I2C_SDA*%
X21000000Y-1469700D03*
%TO.N,I2C_SCL*%
X30618800Y-47813600D03*
D21*
%TO.N,3V3*%
X19200000Y-45000000D03*
X8086968Y-34239020D03*
X30171163Y-42351649D03*
X30339295Y-48950000D03*
X25820000Y-5000000D03*
X18801523Y-48189484D03*
X25090000Y-62000000D03*
X27562500Y-57000000D03*
X13479484Y-29070041D03*
X19200000Y-43000000D03*
X19137500Y-52250000D03*
X11000000Y-65810000D03*
X19008985Y-38545618D03*
X21669519Y-30513746D03*
X30420000Y-47000000D03*
X19600000Y-35200000D03*
X22788280Y-45244284D03*
X26716809Y-41108040D03*
X19600000Y-36800000D03*
X15771362Y-45113708D03*
X20443047Y-45088002D03*
X22455455Y-43673176D03*
X24418516Y-32949016D03*
X32194357Y-67772803D03*
X18681766Y-54439956D03*
X18574247Y-28767226D03*
X15937584Y-29158063D03*
X6807933Y-43880230D03*
X10720000Y-47000000D03*
X23226118Y-46927062D03*
X19008985Y-46545618D03*
X18050583Y-44982385D03*
X25460000Y-49620000D03*
X28000000Y-42000000D03*
X10643369Y-41647790D03*
X24418516Y-41050983D03*
X24389922Y-34249697D03*
X13317398Y-43807212D03*
X27607060Y-44237987D03*
X16095314Y-46700250D03*
X11888197Y-30500553D03*
X23362921Y-29154695D03*
X4000000Y-40000000D03*
D22*
%TO.N,SPI_SCLK*%
X9641700Y-43880300D03*
%TO.N,SPI_MOSI*%
X9024100Y-44516800D03*
%TO.N,SPI_MISO*%
X7121400Y-45047100D03*
%TO.N,VDD_CORE*%
X20895900Y-27954200D03*
X25112200Y-29690400D03*
%TO.N,FLASH_IO3*%
X12198500Y-33473700D03*
X27734500Y-38724600D03*
%TO.N,C6_U0RXD*%
X25605800Y-26718400D03*
D21*
%TO.N,VBAT*%
X29125195Y-25573768D03*
X13000000Y-13000000D03*
X9961074Y-51409130D03*
X16475000Y-58405000D03*
D22*
X3708100Y-25660700D03*
D21*
X23137500Y-57950000D03*
X32000000Y-11000000D03*
X5677833Y-67822961D03*
X32000000Y-59000000D03*
X25989594Y-50385345D03*
X9230739Y-11187429D03*
X22154695Y-53127078D03*
X31420000Y-22000000D03*
X25758635Y-37107800D03*
X22233034Y-49915026D03*
X17000000Y-62150000D03*
X8085000Y-8450000D03*
X4000000Y-59000000D03*
D22*
X23137500Y-59000000D03*
D21*
X28085000Y-21450000D03*
X24437741Y-64764265D03*
X4000000Y-42540000D03*
X4000000Y-11000000D03*
D22*
%TO.N,VBUS*%
X8845600Y-15735300D03*
%TO.N,CC2*%
X3146400Y-29832500D03*
X2399300Y-26632800D03*
%TO.N,SW3V3*%
X20862500Y-59985700D03*
X24513200Y-57706700D03*
%TO.N,M1_GATE*%
X32396800Y-39993000D03*
X18062800Y-48984600D03*
%TO.N,M4_D*%
X29758600Y-35682700D03*
%TO.N,LED_D12*%
X10777100Y-15909800D03*
X26975400Y-19726500D03*
%TD*%
D23*
%TO.N,GND*%
X18800000Y-35200000D02*
X18000000Y-35200000D01*
X18400000Y-46194600D02*
X18400000Y-45000000D01*
X18049000Y-46545600D02*
X18400000Y-46194600D01*
X16472100Y-36000000D02*
X16400000Y-36000000D01*
X18800000Y-35272100D02*
X19527900Y-36000000D01*
X19527900Y-36000000D02*
X19600000Y-36000000D01*
X18800000Y-35200000D02*
X18800000Y-35272100D01*
X18000000Y-35200000D02*
X17200000Y-35200000D01*
X18400000Y-43000000D02*
X18400000Y-45000000D01*
X17200000Y-35272100D02*
X16472100Y-36000000D01*
X17200000Y-35200000D02*
X17200000Y-35272100D01*
%TO.N,I2C_SDA*%
X10476900Y-37386700D02*
X17551000Y-37386700D01*
X17551000Y-37386700D02*
X18000000Y-36937700D01*
X18000000Y-36937700D02*
X18000000Y-36800000D01*
X2836200Y-17140000D02*
X10476900Y-24780700D01*
X4000000Y-43810000D02*
X4801900Y-43810000D01*
X10476900Y-24780700D02*
X10476900Y-37386700D01*
X10476900Y-38135000D02*
X10476900Y-37386700D01*
X11361300Y-1469700D02*
X2836200Y-9994800D01*
X21000000Y-1469700D02*
X11361300Y-1469700D01*
X2836200Y-9994800D02*
X2836200Y-17140000D01*
X4801900Y-43810000D02*
X10476900Y-38135000D01*
%TO.N,I2C_SCL*%
X4800400Y-45080000D02*
X10907600Y-51187200D01*
X4000000Y-45080000D02*
X4701000Y-45080000D01*
X4800400Y-45080000D02*
X4801900Y-45080000D01*
X18800000Y-36800000D02*
X18800000Y-36917700D01*
X18800000Y-36917700D02*
X19610600Y-37728300D01*
X4701000Y-45080000D02*
X4800400Y-45080000D01*
X10907600Y-51187200D02*
X28839100Y-51187200D01*
X19610600Y-37728300D02*
X19610600Y-38937600D01*
X16194500Y-42353700D02*
X7528200Y-42353700D01*
X7528200Y-42353700D02*
X4801900Y-45080000D01*
X30618800Y-49407500D02*
X30618800Y-47813600D01*
X28839100Y-51187200D02*
X30618800Y-49407500D01*
X19610600Y-38937600D02*
X16194500Y-42353700D01*
%TO.N,3V3*%
X19200000Y-43000000D02*
X19200000Y-45000000D01*
X20208700Y-36330500D02*
X19739200Y-36800000D01*
X19740000Y-35325000D02*
X19823600Y-35325000D01*
X19200000Y-46354600D02*
X19200000Y-45000000D01*
X19725000Y-35325000D02*
X19600000Y-35200000D01*
X20208700Y-35710100D02*
X20208700Y-36330500D01*
X19009000Y-46545600D02*
X19200000Y-46354600D01*
X19823600Y-35325000D02*
X20208700Y-35710100D01*
X19739200Y-36800000D02*
X19600000Y-36800000D01*
X19740000Y-35325000D02*
X19725000Y-35325000D01*
%TO.N,SPI_SCLK*%
X16654800Y-43880300D02*
X9641700Y-43880300D01*
X17401200Y-45198800D02*
X17600000Y-45000000D01*
X17401200Y-46855900D02*
X17401200Y-45198800D01*
X19401300Y-47189400D02*
X17734700Y-47189400D01*
X22050700Y-44540000D02*
X19401300Y-47189400D01*
X17734700Y-47189400D02*
X17401200Y-46855900D01*
X25460000Y-44540000D02*
X22050700Y-44540000D01*
X17600000Y-45000000D02*
X17600000Y-44825500D01*
X17600000Y-44825500D02*
X16654800Y-43880300D01*
%TO.N,SPI_MOSI*%
X21435200Y-45923700D02*
X19767600Y-47591300D01*
X16800000Y-45000000D02*
X9507300Y-45000000D01*
X16800000Y-46823000D02*
X16800000Y-45000000D01*
X9507300Y-45000000D02*
X9024100Y-44516800D01*
X28000000Y-47080000D02*
X26848100Y-47080000D01*
X25932800Y-45923700D02*
X21435200Y-45923700D01*
X19767600Y-47591300D02*
X17568300Y-47591300D01*
X26848100Y-47080000D02*
X26848100Y-46839000D01*
X17568300Y-47591300D02*
X16800000Y-46823000D01*
X26848100Y-46839000D02*
X25932800Y-45923700D01*
%TO.N,SPI_MISO*%
X9615800Y-43000000D02*
X16800000Y-43000000D01*
X24306100Y-47080000D02*
X23392900Y-47993200D01*
X8354500Y-44766500D02*
X7402000Y-44766500D01*
X8354500Y-44261300D02*
X9615800Y-43000000D01*
X7402000Y-44766500D02*
X7121400Y-45047100D01*
X24308100Y-47080000D02*
X24306100Y-47080000D01*
X11581200Y-47993200D02*
X8354500Y-44766500D01*
X25460000Y-47080000D02*
X24308100Y-47080000D01*
X8354500Y-44766500D02*
X8354500Y-44261300D01*
X23392900Y-47993200D02*
X11581200Y-47993200D01*
%TO.N,CS_FLOW*%
X17600000Y-42775100D02*
X17600000Y-43000000D01*
X18375100Y-42000000D02*
X17600000Y-42775100D01*
X25460000Y-42000000D02*
X18375100Y-42000000D01*
%TO.N,VDD_CORE*%
X22632100Y-29690400D02*
X20895900Y-27954200D01*
X25112200Y-29690400D02*
X22632100Y-29690400D01*
%TO.N,FLASH_IO3*%
X24025300Y-38724600D02*
X18774400Y-33473700D01*
X27734500Y-38724600D02*
X24025300Y-38724600D01*
X18774400Y-33473700D02*
X12198500Y-33473700D01*
%TO.N,C6_U0RXD*%
X28500000Y-64540000D02*
X29348100Y-65388100D01*
X31694100Y-66651900D02*
X33587000Y-64759000D01*
X29348100Y-65388100D02*
X29348100Y-65706700D01*
X33587000Y-34699600D02*
X25605800Y-26718400D01*
X33587000Y-64759000D02*
X33587000Y-34699600D01*
X29348100Y-65706700D02*
X30293300Y-66651900D01*
X30293300Y-66651900D02*
X31694100Y-66651900D01*
%TO.N,VBAT*%
X4000000Y-59000000D02*
X23137500Y-59000000D01*
X5151900Y-11000000D02*
X5764200Y-10387700D01*
X3198100Y-41738100D02*
X3198100Y-36055900D01*
X5764200Y-10387700D02*
X30235800Y-10387700D01*
X32000000Y-11000000D02*
X30848100Y-11000000D01*
X3198100Y-36055900D02*
X3748300Y-35505700D01*
X3748300Y-35505700D02*
X3748300Y-25700900D01*
X4000000Y-11000000D02*
X5151900Y-11000000D01*
X3748300Y-25700900D02*
X3708100Y-25660700D01*
X30235800Y-10387700D02*
X30848100Y-11000000D01*
X23137500Y-59000000D02*
X32000000Y-59000000D01*
X4000000Y-42540000D02*
X3198100Y-41738100D01*
%TO.N,VBUS*%
X9000000Y-15580900D02*
X8845600Y-15735300D01*
X9000000Y-13000000D02*
X9000000Y-15580900D01*
%TO.N,CC2*%
X3146400Y-29832500D02*
X2399300Y-29085400D01*
X2399300Y-29085400D02*
X2399300Y-26632800D01*
%TO.N,SW3V3*%
X33151900Y-59975100D02*
X33151900Y-57970000D01*
X32963000Y-60164000D02*
X33151900Y-59975100D01*
X32888600Y-57706700D02*
X24513200Y-57706700D01*
X33151900Y-57970000D02*
X32888600Y-57706700D01*
X20862500Y-59985700D02*
X21040800Y-60164000D01*
X21040800Y-60164000D02*
X32963000Y-60164000D01*
%TO.N,M1_GATE*%
X28423400Y-48350000D02*
X23604400Y-48350000D01*
X32396800Y-44376600D02*
X28423400Y-48350000D01*
X23604400Y-48350000D02*
X22969800Y-48984600D01*
X22969800Y-48984600D02*
X18062800Y-48984600D01*
X32396800Y-39993000D02*
X32396800Y-44376600D01*
%TO.N,M4_D*%
X27294600Y-35682700D02*
X29758600Y-35682700D01*
X5151900Y-13540000D02*
X27294600Y-35682700D01*
X4000000Y-13540000D02*
X5151900Y-13540000D01*
%TO.N,LED_D12*%
X26975400Y-19726500D02*
X14593800Y-19726500D01*
X14593800Y-19726500D02*
X10777100Y-15909800D01*
%TD*%
%TA.AperFunction,Conductor*%
%TO.N,VBAT*%
G36*
X27245908Y-48670185D02*
G01*
X27291663Y-48722989D01*
X27301607Y-48792147D01*
X27272582Y-48855703D01*
X27257532Y-48870355D01*
X27253588Y-48873590D01*
X27122317Y-49033547D01*
X27122315Y-49033550D01*
X27099997Y-49075304D01*
X27024769Y-49216043D01*
X26964699Y-49414067D01*
X26944417Y-49620000D01*
X26964699Y-49825932D01*
X26964700Y-49825934D01*
X27024768Y-50023954D01*
X27122315Y-50206450D01*
X27122317Y-50206452D01*
X27253589Y-50366410D01*
X27350209Y-50445702D01*
X27413550Y-50497685D01*
X27596046Y-50595232D01*
X27756944Y-50644039D01*
X27815383Y-50682337D01*
X27843839Y-50746149D01*
X27833279Y-50815216D01*
X27787055Y-50867609D01*
X27720949Y-50886700D01*
X25739051Y-50886700D01*
X25672012Y-50867015D01*
X25626257Y-50814211D01*
X25616313Y-50745053D01*
X25645338Y-50681497D01*
X25703055Y-50644039D01*
X25863954Y-50595232D01*
X26046450Y-50497685D01*
X26206410Y-50366410D01*
X26337685Y-50206450D01*
X26435232Y-50023954D01*
X26495300Y-49825934D01*
X26515583Y-49620000D01*
X26495300Y-49414066D01*
X26435232Y-49216046D01*
X26337685Y-49033550D01*
X26269118Y-48950000D01*
X26206411Y-48873590D01*
X26202468Y-48870355D01*
X26163133Y-48812610D01*
X26161261Y-48742766D01*
X26197446Y-48682997D01*
X26260202Y-48652279D01*
X26281131Y-48650500D01*
X27178869Y-48650500D01*
X27245908Y-48670185D01*
G37*
%TD.AperFunction*%
%TA.AperFunction,Conductor*%
G36*
X32003032Y-500648D02*
G01*
X32336929Y-517052D01*
X32349037Y-518245D01*
X32452146Y-533539D01*
X32676699Y-566849D01*
X32688617Y-569219D01*
X33009951Y-649709D01*
X33021588Y-653240D01*
X33092806Y-678722D01*
X33333467Y-764832D01*
X33344688Y-769479D01*
X33644163Y-911120D01*
X33654871Y-916844D01*
X33938988Y-1087137D01*
X33949103Y-1093895D01*
X34115757Y-1217494D01*
X34215170Y-1291224D01*
X34224576Y-1298944D01*
X34470013Y-1521395D01*
X34478604Y-1529986D01*
X34653469Y-1722920D01*
X34701055Y-1775423D01*
X34708775Y-1784829D01*
X34906102Y-2050893D01*
X34912862Y-2061011D01*
X35041776Y-2276092D01*
X35083148Y-2345116D01*
X35088885Y-2355848D01*
X35230514Y-2655297D01*
X35235170Y-2666540D01*
X35346759Y-2978411D01*
X35350292Y-2990055D01*
X35430777Y-3311369D01*
X35433151Y-3323305D01*
X35481754Y-3650962D01*
X35482947Y-3663071D01*
X35499351Y-3996966D01*
X35499500Y-4003051D01*
X35499500Y-65996948D01*
X35499351Y-66003033D01*
X35482947Y-66336928D01*
X35481754Y-66349037D01*
X35433151Y-66676694D01*
X35430777Y-66688630D01*
X35350292Y-67009944D01*
X35346759Y-67021588D01*
X35235170Y-67333459D01*
X35230514Y-67344702D01*
X35088885Y-67644151D01*
X35083148Y-67654883D01*
X34912862Y-67938988D01*
X34906102Y-67949106D01*
X34708775Y-68215170D01*
X34701055Y-68224576D01*
X34478611Y-68470006D01*
X34470006Y-68478611D01*
X34224576Y-68701055D01*
X34215170Y-68708775D01*
X33949106Y-68906102D01*
X33938988Y-68912862D01*
X33654883Y-69083148D01*
X33644151Y-69088885D01*
X33344702Y-69230514D01*
X33333459Y-69235170D01*
X33021588Y-69346759D01*
X33009944Y-69350292D01*
X32688630Y-69430777D01*
X32676694Y-69433151D01*
X32349037Y-69481754D01*
X32336928Y-69482947D01*
X32021989Y-69498419D01*
X32003031Y-69499351D01*
X31996949Y-69499500D01*
X4003051Y-69499500D01*
X3996968Y-69499351D01*
X3976900Y-69498365D01*
X3663071Y-69482947D01*
X3650962Y-69481754D01*
X3323305Y-69433151D01*
X3311369Y-69430777D01*
X2990055Y-69350292D01*
X2978411Y-69346759D01*
X2666540Y-69235170D01*
X2655301Y-69230515D01*
X2355844Y-69088883D01*
X2345121Y-69083150D01*
X2061011Y-68912862D01*
X2050893Y-68906102D01*
X1784829Y-68708775D01*
X1775423Y-68701055D01*
X1736475Y-68665755D01*
X1529986Y-68478604D01*
X1521395Y-68470013D01*
X1298944Y-68224576D01*
X1291224Y-68215170D01*
X1263876Y-68178295D01*
X1093895Y-67949103D01*
X1087137Y-67938988D01*
X1062632Y-67898104D01*
X1017595Y-67822964D01*
X7172341Y-67822964D01*
X7192185Y-67948261D01*
X7192185Y-67948262D01*
X7210638Y-67984478D01*
X7249783Y-68061303D01*
X7249785Y-68061305D01*
X7249787Y-68061308D01*
X7339485Y-68151006D01*
X7339487Y-68151007D01*
X7339491Y-68151011D01*
X7452529Y-68208607D01*
X7452530Y-68208607D01*
X7452532Y-68208608D01*
X7577830Y-68228453D01*
X7577833Y-68228453D01*
X7577836Y-68228453D01*
X7703133Y-68208608D01*
X7703134Y-68208608D01*
X7703135Y-68208607D01*
X7703137Y-68208607D01*
X7816175Y-68151011D01*
X7905883Y-68061303D01*
X7963479Y-67948265D01*
X7963479Y-67948263D01*
X7963480Y-67948262D01*
X7963480Y-67948261D01*
X7983325Y-67822964D01*
X7983325Y-67822957D01*
X7975382Y-67772806D01*
X31788865Y-67772806D01*
X31808709Y-67898103D01*
X31808709Y-67898104D01*
X31808711Y-67898107D01*
X31866307Y-68011145D01*
X31866309Y-68011147D01*
X31866311Y-68011150D01*
X31956009Y-68100848D01*
X31956011Y-68100849D01*
X31956015Y-68100853D01*
X32069053Y-68158449D01*
X32069054Y-68158449D01*
X32069056Y-68158450D01*
X32194354Y-68178295D01*
X32194357Y-68178295D01*
X32194360Y-68178295D01*
X32319657Y-68158450D01*
X32319658Y-68158450D01*
X32319659Y-68158449D01*
X32319661Y-68158449D01*
X32432699Y-68100853D01*
X32522407Y-68011145D01*
X32580003Y-67898107D01*
X32580003Y-67898105D01*
X32580004Y-67898104D01*
X32580004Y-67898103D01*
X32599849Y-67772806D01*
X33688865Y-67772806D01*
X33708709Y-67898103D01*
X33708709Y-67898104D01*
X33708711Y-67898107D01*
X33766307Y-68011145D01*
X33766309Y-68011147D01*
X33766311Y-68011150D01*
X33856009Y-68100848D01*
X33856011Y-68100849D01*
X33856015Y-68100853D01*
X33969053Y-68158449D01*
X33969054Y-68158449D01*
X33969056Y-68158450D01*
X34094354Y-68178295D01*
X34094357Y-68178295D01*
X34094360Y-68178295D01*
X34219657Y-68158450D01*
X34219658Y-68158450D01*
X34219659Y-68158449D01*
X34219661Y-68158449D01*
X34332699Y-68100853D01*
X34422407Y-68011145D01*
X34480003Y-67898107D01*
X34480003Y-67898105D01*
X34480004Y-67898104D01*
X34480004Y-67898103D01*
X34499849Y-67772806D01*
X34499849Y-67772799D01*
X34480004Y-67647502D01*
X34480004Y-67647501D01*
X34478297Y-67644151D01*
X34422407Y-67534461D01*
X34422403Y-67534457D01*
X34422402Y-67534455D01*
X34332704Y-67444757D01*
X34332701Y-67444755D01*
X34332699Y-67444753D01*
X34219661Y-67387157D01*
X34219660Y-67387156D01*
X34219657Y-67387155D01*
X34094360Y-67367311D01*
X34094354Y-67367311D01*
X33969056Y-67387155D01*
X33969055Y-67387155D01*
X33893694Y-67425554D01*
X33856015Y-67444753D01*
X33856014Y-67444754D01*
X33856009Y-67444757D01*
X33766311Y-67534455D01*
X33766308Y-67534460D01*
X33708709Y-67647501D01*
X33708709Y-67647502D01*
X33688865Y-67772799D01*
X33688865Y-67772806D01*
X32599849Y-67772806D01*
X32599849Y-67772799D01*
X32580004Y-67647502D01*
X32580004Y-67647501D01*
X32578297Y-67644151D01*
X32522407Y-67534461D01*
X32522403Y-67534457D01*
X32522402Y-67534455D01*
X32432704Y-67444757D01*
X32432701Y-67444755D01*
X32432699Y-67444753D01*
X32319661Y-67387157D01*
X32319660Y-67387156D01*
X32319657Y-67387155D01*
X32194360Y-67367311D01*
X32194354Y-67367311D01*
X32069056Y-67387155D01*
X32069055Y-67387155D01*
X31993694Y-67425554D01*
X31956015Y-67444753D01*
X31956014Y-67444754D01*
X31956009Y-67444757D01*
X31866311Y-67534455D01*
X31866308Y-67534460D01*
X31808709Y-67647501D01*
X31808709Y-67647502D01*
X31788865Y-67772799D01*
X31788865Y-67772806D01*
X7975382Y-67772806D01*
X7963480Y-67697660D01*
X7963480Y-67697659D01*
X7941684Y-67654883D01*
X7905883Y-67584619D01*
X7905879Y-67584615D01*
X7905878Y-67584613D01*
X7816180Y-67494915D01*
X7816177Y-67494913D01*
X7816175Y-67494911D01*
X7703137Y-67437315D01*
X7703136Y-67437314D01*
X7703133Y-67437313D01*
X7577836Y-67417469D01*
X7577830Y-67417469D01*
X7452532Y-67437313D01*
X7452531Y-67437313D01*
X7377170Y-67475712D01*
X7339491Y-67494911D01*
X7339490Y-67494912D01*
X7339485Y-67494915D01*
X7249787Y-67584613D01*
X7249784Y-67584618D01*
X7192185Y-67697659D01*
X7192185Y-67697660D01*
X7172341Y-67822957D01*
X7172341Y-67822964D01*
X1017595Y-67822964D01*
X916844Y-67654871D01*
X911120Y-67644163D01*
X769479Y-67344688D01*
X764829Y-67333459D01*
X653240Y-67021588D01*
X649707Y-67009944D01*
X640958Y-66975015D01*
X569219Y-66688617D01*
X566848Y-66676694D01*
X560316Y-66632661D01*
X518754Y-66352469D01*
X518245Y-66349037D01*
X517052Y-66336927D01*
X516960Y-66335063D01*
X500649Y-66003032D01*
X500500Y-65996948D01*
X500500Y-65000000D01*
X3644341Y-65000000D01*
X3664936Y-65235403D01*
X3664938Y-65235413D01*
X3726094Y-65463655D01*
X3726096Y-65463659D01*
X3726097Y-65463663D01*
X3776031Y-65570746D01*
X3825964Y-65677828D01*
X3825965Y-65677830D01*
X3961505Y-65871402D01*
X4128597Y-66038494D01*
X4322169Y-66174034D01*
X4322171Y-66174035D01*
X4536337Y-66273903D01*
X4764592Y-66335063D01*
X4941032Y-66350499D01*
X4941033Y-66350500D01*
X4941034Y-66350500D01*
X5058967Y-66350500D01*
X5058967Y-66350499D01*
X5235408Y-66335063D01*
X5463663Y-66273903D01*
X5677829Y-66174035D01*
X5871401Y-66038495D01*
X6038495Y-65871401D01*
X6081488Y-65810000D01*
X10294355Y-65810000D01*
X10314859Y-65978869D01*
X10314860Y-65978874D01*
X10375182Y-66137931D01*
X10415607Y-66196496D01*
X10471817Y-66277929D01*
X10545280Y-66343011D01*
X10599150Y-66390736D01*
X10749773Y-66469789D01*
X10749775Y-66469790D01*
X10914944Y-66510500D01*
X11085056Y-66510500D01*
X11250225Y-66469790D01*
X11329692Y-66428081D01*
X11400849Y-66390736D01*
X11400850Y-66390734D01*
X11400852Y-66390734D01*
X11528183Y-66277929D01*
X11563218Y-66227172D01*
X24364892Y-66227172D01*
X24384736Y-66352469D01*
X24384736Y-66352470D01*
X24384738Y-66352473D01*
X24442334Y-66465511D01*
X24442336Y-66465513D01*
X24442338Y-66465516D01*
X24532036Y-66555214D01*
X24532038Y-66555215D01*
X24532042Y-66555219D01*
X24645080Y-66612815D01*
X24645081Y-66612815D01*
X24645083Y-66612816D01*
X24770381Y-66632661D01*
X24770384Y-66632661D01*
X24770387Y-66632661D01*
X24895684Y-66612816D01*
X24895685Y-66612816D01*
X24895686Y-66612815D01*
X24895688Y-66612815D01*
X25008726Y-66555219D01*
X25098434Y-66465511D01*
X25156030Y-66352473D01*
X25156030Y-66352471D01*
X25156031Y-66352470D01*
X25156031Y-66352469D01*
X25175876Y-66227172D01*
X25175876Y-66227165D01*
X25156031Y-66101868D01*
X25156031Y-66101867D01*
X25151896Y-66093751D01*
X25098434Y-65988827D01*
X25098430Y-65988823D01*
X25098429Y-65988821D01*
X25008731Y-65899123D01*
X25008728Y-65899121D01*
X25008726Y-65899119D01*
X24895688Y-65841523D01*
X24895687Y-65841522D01*
X24895684Y-65841521D01*
X24770387Y-65821677D01*
X24770381Y-65821677D01*
X24645083Y-65841521D01*
X24645082Y-65841521D01*
X24586453Y-65871395D01*
X24532042Y-65899119D01*
X24532041Y-65899120D01*
X24532036Y-65899123D01*
X24442338Y-65988821D01*
X24442335Y-65988826D01*
X24442334Y-65988827D01*
X24436641Y-66000000D01*
X24384736Y-66101867D01*
X24384736Y-66101868D01*
X24364892Y-66227165D01*
X24364892Y-66227172D01*
X11563218Y-66227172D01*
X11624818Y-66137930D01*
X11685140Y-65978872D01*
X11705645Y-65810000D01*
X11685140Y-65641128D01*
X11624818Y-65482070D01*
X11612112Y-65463663D01*
X11582342Y-65420533D01*
X11528183Y-65342071D01*
X11444363Y-65267813D01*
X11407238Y-65208626D01*
X11408006Y-65138761D01*
X11444363Y-65082186D01*
X11528183Y-65007929D01*
X11624818Y-64867930D01*
X11685140Y-64708872D01*
X11705645Y-64540000D01*
X11685140Y-64371128D01*
X11624818Y-64212070D01*
X11528183Y-64072071D01*
X11444363Y-63997813D01*
X11407238Y-63938626D01*
X11408006Y-63868761D01*
X11444363Y-63812186D01*
X11528183Y-63737929D01*
X11624818Y-63597930D01*
X11685140Y-63438872D01*
X11687124Y-63422529D01*
X24338596Y-63422529D01*
X24358440Y-63547826D01*
X24358440Y-63547827D01*
X24358442Y-63547830D01*
X24416038Y-63660868D01*
X24416040Y-63660870D01*
X24416042Y-63660873D01*
X24505740Y-63750571D01*
X24505742Y-63750572D01*
X24505746Y-63750576D01*
X24618784Y-63808172D01*
X24618785Y-63808172D01*
X24618787Y-63808173D01*
X24744085Y-63828018D01*
X24744088Y-63828018D01*
X24744091Y-63828018D01*
X24869388Y-63808173D01*
X24869389Y-63808173D01*
X24869390Y-63808172D01*
X24869392Y-63808172D01*
X24982430Y-63750576D01*
X25072138Y-63660868D01*
X25129734Y-63547830D01*
X25129734Y-63547828D01*
X25129735Y-63547827D01*
X25129735Y-63547826D01*
X25149580Y-63422529D01*
X25149580Y-63422522D01*
X25129735Y-63297225D01*
X25129735Y-63297224D01*
X25129734Y-63297222D01*
X25072138Y-63184184D01*
X25072134Y-63184180D01*
X25072133Y-63184178D01*
X24982435Y-63094480D01*
X24982432Y-63094478D01*
X24982430Y-63094476D01*
X24869392Y-63036880D01*
X24869391Y-63036879D01*
X24869388Y-63036878D01*
X24744091Y-63017034D01*
X24744085Y-63017034D01*
X24618787Y-63036878D01*
X24618786Y-63036878D01*
X24543425Y-63075277D01*
X24505746Y-63094476D01*
X24505745Y-63094477D01*
X24505740Y-63094480D01*
X24416042Y-63184178D01*
X24416039Y-63184183D01*
X24358440Y-63297224D01*
X24358440Y-63297225D01*
X24338596Y-63422522D01*
X24338596Y-63422529D01*
X11687124Y-63422529D01*
X11705645Y-63270000D01*
X11685140Y-63101128D01*
X11624818Y-62942070D01*
X11624817Y-62942068D01*
X11624816Y-62942066D01*
X11562017Y-62851088D01*
X11540133Y-62784733D01*
X11557598Y-62717082D01*
X11595175Y-62677545D01*
X11644552Y-62644552D01*
X11688867Y-62578231D01*
X11688867Y-62578229D01*
X11688868Y-62578229D01*
X11700499Y-62519752D01*
X11700500Y-62519750D01*
X11700500Y-62150003D01*
X18594508Y-62150003D01*
X18614352Y-62275300D01*
X18614352Y-62275301D01*
X18632805Y-62311517D01*
X18671950Y-62388342D01*
X18671952Y-62388344D01*
X18671954Y-62388347D01*
X18761652Y-62478045D01*
X18761654Y-62478046D01*
X18761658Y-62478050D01*
X18874696Y-62535646D01*
X18874697Y-62535646D01*
X18874699Y-62535647D01*
X18999997Y-62555492D01*
X19000000Y-62555492D01*
X19000003Y-62555492D01*
X19125300Y-62535647D01*
X19125301Y-62535647D01*
X19125302Y-62535646D01*
X19125304Y-62535646D01*
X19238342Y-62478050D01*
X19328050Y-62388342D01*
X19385646Y-62275304D01*
X19385646Y-62275302D01*
X19385647Y-62275301D01*
X19385647Y-62275300D01*
X19405492Y-62150003D01*
X19405492Y-62149996D01*
X19385647Y-62024699D01*
X19385647Y-62024698D01*
X19373064Y-62000003D01*
X24684508Y-62000003D01*
X24704352Y-62125300D01*
X24704352Y-62125301D01*
X24716935Y-62149996D01*
X24761950Y-62238342D01*
X24761952Y-62238344D01*
X24761954Y-62238347D01*
X24851652Y-62328045D01*
X24851654Y-62328046D01*
X24851658Y-62328050D01*
X24964696Y-62385646D01*
X24964697Y-62385646D01*
X24964699Y-62385647D01*
X25089997Y-62405492D01*
X25090000Y-62405492D01*
X25090003Y-62405492D01*
X25215300Y-62385647D01*
X25215301Y-62385647D01*
X25215302Y-62385646D01*
X25215304Y-62385646D01*
X25328342Y-62328050D01*
X25418050Y-62238342D01*
X25475646Y-62125304D01*
X25475646Y-62125302D01*
X25475647Y-62125301D01*
X25475647Y-62125300D01*
X25495492Y-62000003D01*
X25495492Y-61999996D01*
X25475647Y-61874699D01*
X25475647Y-61874698D01*
X25448772Y-61821954D01*
X25418050Y-61761658D01*
X25418046Y-61761654D01*
X25418045Y-61761652D01*
X25328347Y-61671954D01*
X25328344Y-61671952D01*
X25328342Y-61671950D01*
X25215304Y-61614354D01*
X25215303Y-61614353D01*
X25215300Y-61614352D01*
X25090003Y-61594508D01*
X25089997Y-61594508D01*
X24964699Y-61614352D01*
X24964698Y-61614352D01*
X24909266Y-61642597D01*
X24851658Y-61671950D01*
X24851657Y-61671951D01*
X24851652Y-61671954D01*
X24761954Y-61761652D01*
X24761951Y-61761657D01*
X24761950Y-61761658D01*
X24742751Y-61799337D01*
X24704352Y-61874698D01*
X24704352Y-61874699D01*
X24684508Y-61999996D01*
X24684508Y-62000003D01*
X19373064Y-62000003D01*
X19328050Y-61911658D01*
X19328046Y-61911654D01*
X19328045Y-61911652D01*
X19238347Y-61821954D01*
X19238344Y-61821952D01*
X19238342Y-61821950D01*
X19125304Y-61764354D01*
X19125303Y-61764353D01*
X19125300Y-61764352D01*
X19000003Y-61744508D01*
X18999997Y-61744508D01*
X18874699Y-61764352D01*
X18874698Y-61764352D01*
X18799337Y-61802751D01*
X18761658Y-61821950D01*
X18761657Y-61821951D01*
X18761652Y-61821954D01*
X18671954Y-61911652D01*
X18671951Y-61911657D01*
X18614352Y-62024698D01*
X18614352Y-62024699D01*
X18594508Y-62149996D01*
X18594508Y-62150003D01*
X11700500Y-62150003D01*
X11700500Y-61480249D01*
X11700499Y-61480247D01*
X11688868Y-61421770D01*
X11688867Y-61421769D01*
X11644552Y-61355447D01*
X11578230Y-61311132D01*
X11578229Y-61311131D01*
X11519752Y-61299500D01*
X11519748Y-61299500D01*
X10480252Y-61299500D01*
X10480247Y-61299500D01*
X10421770Y-61311131D01*
X10421769Y-61311132D01*
X10355447Y-61355447D01*
X10311132Y-61421769D01*
X10311131Y-61421770D01*
X10299500Y-61480247D01*
X10299500Y-62519752D01*
X10311131Y-62578229D01*
X10311132Y-62578230D01*
X10355447Y-62644552D01*
X10404824Y-62677545D01*
X10449629Y-62731158D01*
X10458336Y-62800483D01*
X10437983Y-62851087D01*
X10375183Y-62942068D01*
X10375182Y-62942068D01*
X10314860Y-63101125D01*
X10314859Y-63101130D01*
X10294355Y-63270000D01*
X10314859Y-63438869D01*
X10314860Y-63438874D01*
X10375182Y-63597931D01*
X10471818Y-63737930D01*
X10555634Y-63812185D01*
X10592761Y-63871374D01*
X10591993Y-63941240D01*
X10555634Y-63997815D01*
X10471818Y-64072069D01*
X10375182Y-64212068D01*
X10314860Y-64371125D01*
X10314859Y-64371130D01*
X10294355Y-64540000D01*
X10314859Y-64708869D01*
X10314860Y-64708874D01*
X10375182Y-64867931D01*
X10406626Y-64913484D01*
X10470586Y-65006146D01*
X10471818Y-65007930D01*
X10555634Y-65082185D01*
X10592761Y-65141374D01*
X10591993Y-65211240D01*
X10555634Y-65267815D01*
X10471818Y-65342069D01*
X10375182Y-65482068D01*
X10314860Y-65641125D01*
X10314859Y-65641130D01*
X10294355Y-65810000D01*
X6081488Y-65810000D01*
X6174035Y-65677830D01*
X6273903Y-65463663D01*
X6335063Y-65235408D01*
X6355659Y-65000000D01*
X6335063Y-64764592D01*
X6286451Y-64583167D01*
X6273905Y-64536344D01*
X6273904Y-64536343D01*
X6273903Y-64536337D01*
X6174035Y-64322171D01*
X6174034Y-64322169D01*
X6038494Y-64128597D01*
X5871402Y-63961505D01*
X5677830Y-63825965D01*
X5677828Y-63825964D01*
X5570746Y-63776031D01*
X5463663Y-63726097D01*
X5463659Y-63726096D01*
X5463655Y-63726094D01*
X5235413Y-63664938D01*
X5235403Y-63664936D01*
X5058967Y-63649500D01*
X5058966Y-63649500D01*
X4941034Y-63649500D01*
X4941033Y-63649500D01*
X4764596Y-63664936D01*
X4764586Y-63664938D01*
X4536344Y-63726094D01*
X4536335Y-63726098D01*
X4322171Y-63825964D01*
X4322169Y-63825965D01*
X4128597Y-63961505D01*
X3961506Y-64128597D01*
X3961501Y-64128604D01*
X3825967Y-64322165D01*
X3825965Y-64322169D01*
X3726098Y-64536335D01*
X3726094Y-64536344D01*
X3664938Y-64764586D01*
X3664936Y-64764596D01*
X3644341Y-64999999D01*
X3644341Y-65000000D01*
X500500Y-65000000D01*
X500500Y-59897844D01*
X2650000Y-59897844D01*
X2656401Y-59957372D01*
X2656403Y-59957379D01*
X2706645Y-60092086D01*
X2706649Y-60092093D01*
X2792809Y-60207187D01*
X2792812Y-60207190D01*
X2907906Y-60293350D01*
X2907913Y-60293354D01*
X3042620Y-60343596D01*
X3042627Y-60343598D01*
X3102155Y-60349999D01*
X3102172Y-60350000D01*
X3502813Y-60350000D01*
X3569852Y-60369685D01*
X3615607Y-60422489D01*
X3625551Y-60491647D01*
X3596526Y-60555203D01*
X3561267Y-60583357D01*
X3413550Y-60662315D01*
X3413548Y-60662316D01*
X3413547Y-60662317D01*
X3253589Y-60793589D01*
X3122317Y-60953547D01*
X3024769Y-61136043D01*
X2964699Y-61334067D01*
X2944417Y-61540000D01*
X2964699Y-61745932D01*
X2987759Y-61821950D01*
X3024768Y-61943954D01*
X3122315Y-62126450D01*
X3122317Y-62126452D01*
X3253589Y-62286410D01*
X3350209Y-62365702D01*
X3413550Y-62417685D01*
X3596046Y-62515232D01*
X3794066Y-62575300D01*
X3794065Y-62575300D01*
X3812529Y-62577118D01*
X4000000Y-62595583D01*
X4205934Y-62575300D01*
X4403954Y-62515232D01*
X4586450Y-62417685D01*
X4746410Y-62286410D01*
X4877685Y-62126450D01*
X4975232Y-61943954D01*
X5035300Y-61745934D01*
X5055583Y-61540000D01*
X5035300Y-61334066D01*
X4975232Y-61136046D01*
X4877685Y-60953550D01*
X4825702Y-60890209D01*
X4746410Y-60793589D01*
X4586452Y-60662317D01*
X4586453Y-60662317D01*
X4586450Y-60662315D01*
X4438732Y-60583357D01*
X4388889Y-60534395D01*
X4373429Y-60466257D01*
X4397261Y-60400578D01*
X4452819Y-60358209D01*
X4497187Y-60350000D01*
X4897828Y-60350000D01*
X4897844Y-60349999D01*
X4957372Y-60343598D01*
X4957379Y-60343596D01*
X5092086Y-60293354D01*
X5092093Y-60293350D01*
X5207187Y-60207190D01*
X5207190Y-60207187D01*
X5293350Y-60092093D01*
X5293354Y-60092086D01*
X5333032Y-59985702D01*
X20431696Y-59985702D01*
X20452779Y-60118821D01*
X20452780Y-60118824D01*
X20452781Y-60118826D01*
X20497805Y-60207190D01*
X20513973Y-60238921D01*
X20513976Y-60238925D01*
X20609274Y-60334223D01*
X20609278Y-60334226D01*
X20609280Y-60334228D01*
X20729374Y-60395419D01*
X20846460Y-60413963D01*
X20871846Y-60420808D01*
X20879866Y-60423915D01*
X20879867Y-60423916D01*
X20886331Y-60426420D01*
X20911611Y-60439746D01*
X20917319Y-60443656D01*
X20943314Y-60449769D01*
X20959710Y-60454846D01*
X20984627Y-60464500D01*
X20991551Y-60464500D01*
X21019941Y-60467793D01*
X21026681Y-60469379D01*
X21049455Y-60466201D01*
X21053134Y-60465689D01*
X21070264Y-60464500D01*
X31308031Y-60464500D01*
X31375070Y-60484185D01*
X31420825Y-60536989D01*
X31430769Y-60606147D01*
X31401744Y-60669703D01*
X31386695Y-60684354D01*
X31253589Y-60793589D01*
X31122317Y-60953547D01*
X31024769Y-61136043D01*
X30964699Y-61334067D01*
X30944417Y-61540000D01*
X30964699Y-61745932D01*
X30987759Y-61821950D01*
X31024768Y-61943954D01*
X31122315Y-62126450D01*
X31122317Y-62126452D01*
X31253589Y-62286410D01*
X31350209Y-62365702D01*
X31413550Y-62417685D01*
X31596046Y-62515232D01*
X31794066Y-62575300D01*
X31794065Y-62575300D01*
X31812529Y-62577118D01*
X32000000Y-62595583D01*
X32205934Y-62575300D01*
X32403954Y-62515232D01*
X32586450Y-62417685D01*
X32746410Y-62286410D01*
X32877685Y-62126450D01*
X32975232Y-61943954D01*
X33035300Y-61745934D01*
X33039097Y-61707384D01*
X33065258Y-61642597D01*
X33122292Y-61602238D01*
X33192092Y-61599121D01*
X33252497Y-61634236D01*
X33284328Y-61696433D01*
X33286500Y-61719538D01*
X33286500Y-64583167D01*
X33266815Y-64650206D01*
X33250181Y-64670848D01*
X32533980Y-65387048D01*
X32472657Y-65420533D01*
X32402965Y-65415549D01*
X32347032Y-65373677D01*
X32322615Y-65308213D01*
X32326525Y-65267272D01*
X32331784Y-65247645D01*
X32335063Y-65235408D01*
X32355659Y-65000000D01*
X32335063Y-64764592D01*
X32286451Y-64583167D01*
X32273905Y-64536344D01*
X32273904Y-64536343D01*
X32273903Y-64536337D01*
X32174035Y-64322171D01*
X32174034Y-64322169D01*
X32038494Y-64128597D01*
X31871402Y-63961505D01*
X31677830Y-63825965D01*
X31677828Y-63825964D01*
X31570746Y-63776031D01*
X31463663Y-63726097D01*
X31463659Y-63726096D01*
X31463655Y-63726094D01*
X31235413Y-63664938D01*
X31235403Y-63664936D01*
X31058967Y-63649500D01*
X31058966Y-63649500D01*
X30941034Y-63649500D01*
X30941033Y-63649500D01*
X30764596Y-63664936D01*
X30764586Y-63664938D01*
X30536344Y-63726094D01*
X30536335Y-63726098D01*
X30322171Y-63825964D01*
X30322169Y-63825965D01*
X30128597Y-63961505D01*
X29961506Y-64128597D01*
X29961501Y-64128604D01*
X29825967Y-64322165D01*
X29825965Y-64322169D01*
X29726098Y-64536335D01*
X29726094Y-64536344D01*
X29664938Y-64764586D01*
X29664936Y-64764596D01*
X29646650Y-64973597D01*
X29621197Y-65038666D01*
X29564606Y-65079644D01*
X29494844Y-65083522D01*
X29435441Y-65050470D01*
X29216539Y-64831568D01*
X29183054Y-64770245D01*
X29183825Y-64714203D01*
X29185135Y-64708883D01*
X29185140Y-64708872D01*
X29205645Y-64540000D01*
X29185140Y-64371128D01*
X29124818Y-64212070D01*
X29028183Y-64072071D01*
X28944363Y-63997813D01*
X28907238Y-63938626D01*
X28908006Y-63868761D01*
X28944363Y-63812186D01*
X29028183Y-63737929D01*
X29124818Y-63597930D01*
X29185140Y-63438872D01*
X29205645Y-63270000D01*
X29185140Y-63101128D01*
X29124818Y-62942070D01*
X29124817Y-62942068D01*
X29124816Y-62942066D01*
X29062017Y-62851088D01*
X29040133Y-62784733D01*
X29057598Y-62717082D01*
X29095175Y-62677545D01*
X29144552Y-62644552D01*
X29188867Y-62578231D01*
X29188867Y-62578229D01*
X29188868Y-62578229D01*
X29200499Y-62519752D01*
X29200500Y-62519750D01*
X29200500Y-61480249D01*
X29200499Y-61480247D01*
X29188868Y-61421770D01*
X29188867Y-61421769D01*
X29144552Y-61355447D01*
X29078230Y-61311132D01*
X29078229Y-61311131D01*
X29019752Y-61299500D01*
X29019748Y-61299500D01*
X27980252Y-61299500D01*
X27980247Y-61299500D01*
X27921770Y-61311131D01*
X27921769Y-61311132D01*
X27855447Y-61355447D01*
X27811132Y-61421769D01*
X27811131Y-61421770D01*
X27799500Y-61480247D01*
X27799500Y-62519752D01*
X27811131Y-62578229D01*
X27811132Y-62578230D01*
X27855447Y-62644552D01*
X27904824Y-62677545D01*
X27949629Y-62731158D01*
X27958336Y-62800483D01*
X27937983Y-62851087D01*
X27875183Y-62942068D01*
X27875182Y-62942068D01*
X27814860Y-63101125D01*
X27814859Y-63101130D01*
X27794355Y-63270000D01*
X27814859Y-63438869D01*
X27814860Y-63438874D01*
X27875182Y-63597931D01*
X27971818Y-63737930D01*
X28055634Y-63812185D01*
X28092761Y-63871374D01*
X28091993Y-63941240D01*
X28055634Y-63997815D01*
X27971818Y-64072069D01*
X27875182Y-64212068D01*
X27814860Y-64371125D01*
X27814859Y-64371130D01*
X27794355Y-64540000D01*
X27814859Y-64708869D01*
X27814860Y-64708874D01*
X27875182Y-64867931D01*
X27906626Y-64913484D01*
X27970586Y-65006146D01*
X27971818Y-65007930D01*
X28055634Y-65082185D01*
X28092761Y-65141374D01*
X28091993Y-65211240D01*
X28055634Y-65267815D01*
X27971818Y-65342069D01*
X27875182Y-65482068D01*
X27814860Y-65641125D01*
X27814859Y-65641130D01*
X27794355Y-65810000D01*
X27814859Y-65978869D01*
X27814860Y-65978874D01*
X27875182Y-66137931D01*
X27915607Y-66196496D01*
X27971817Y-66277929D01*
X28045280Y-66343011D01*
X28099150Y-66390736D01*
X28249773Y-66469789D01*
X28249775Y-66469790D01*
X28414944Y-66510500D01*
X28585056Y-66510500D01*
X28750225Y-66469790D01*
X28829692Y-66428081D01*
X28900849Y-66390736D01*
X28900850Y-66390734D01*
X28900852Y-66390734D01*
X29028183Y-66277929D01*
X29124818Y-66137930D01*
X29124822Y-66137917D01*
X29125502Y-66136625D01*
X29126258Y-66135842D01*
X29129079Y-66131757D01*
X29129757Y-66132225D01*
X29174080Y-66086407D01*
X29242097Y-66070424D01*
X29307958Y-66093751D01*
X29322986Y-66106557D01*
X30033342Y-66816914D01*
X30044613Y-66829866D01*
X30049339Y-66836125D01*
X30049341Y-66836127D01*
X30049342Y-66836128D01*
X30064161Y-66849637D01*
X30083606Y-66867364D01*
X30087747Y-66871319D01*
X30100501Y-66884073D01*
X30104242Y-66887179D01*
X30112634Y-66893827D01*
X30132362Y-66911812D01*
X30132363Y-66911813D01*
X30132367Y-66911816D01*
X30132370Y-66911817D01*
X30138821Y-66914316D01*
X30164106Y-66927643D01*
X30169820Y-66931557D01*
X30195817Y-66937671D01*
X30212218Y-66942751D01*
X30237124Y-66952400D01*
X30237127Y-66952400D01*
X30244052Y-66952400D01*
X30272440Y-66955693D01*
X30279181Y-66957279D01*
X30305633Y-66953589D01*
X30322764Y-66952400D01*
X31626962Y-66952400D01*
X31644090Y-66953589D01*
X31651861Y-66954672D01*
X31651861Y-66954671D01*
X31651865Y-66954673D01*
X31698180Y-66952532D01*
X31703905Y-66952400D01*
X31721943Y-66952400D01*
X31721944Y-66952400D01*
X31721944Y-66952399D01*
X31726831Y-66951946D01*
X31737418Y-66950717D01*
X31764092Y-66949485D01*
X31770422Y-66946689D01*
X31797729Y-66938232D01*
X31804533Y-66936961D01*
X31804535Y-66936959D01*
X31804537Y-66936959D01*
X31827238Y-66922903D01*
X31842425Y-66914896D01*
X31866865Y-66904106D01*
X31871761Y-66899209D01*
X31894169Y-66881461D01*
X31900052Y-66877819D01*
X31916153Y-66856495D01*
X31927414Y-66843555D01*
X33752011Y-65018958D01*
X33764963Y-65007688D01*
X33771225Y-65002959D01*
X33771228Y-65002958D01*
X33773926Y-64999999D01*
X33776783Y-64996864D01*
X33802488Y-64968666D01*
X33806402Y-64964567D01*
X33819174Y-64951797D01*
X33819175Y-64951796D01*
X33822282Y-64948054D01*
X33828916Y-64939676D01*
X33846916Y-64919933D01*
X33849417Y-64913476D01*
X33862750Y-64888184D01*
X33862766Y-64888159D01*
X33866657Y-64882481D01*
X33872772Y-64856478D01*
X33877854Y-64840071D01*
X33887500Y-64815173D01*
X33887500Y-64808248D01*
X33890794Y-64779856D01*
X33892379Y-64773119D01*
X33888689Y-64746665D01*
X33887500Y-64729535D01*
X33887500Y-47453255D01*
X33907185Y-47386216D01*
X33959989Y-47340461D01*
X34029147Y-47330517D01*
X34092703Y-47359542D01*
X34099181Y-47365574D01*
X34161652Y-47428045D01*
X34161654Y-47428046D01*
X34161658Y-47428050D01*
X34274696Y-47485646D01*
X34274697Y-47485646D01*
X34274699Y-47485647D01*
X34399997Y-47505492D01*
X34400000Y-47505492D01*
X34400003Y-47505492D01*
X34525300Y-47485647D01*
X34525301Y-47485647D01*
X34525302Y-47485646D01*
X34525304Y-47485646D01*
X34638342Y-47428050D01*
X34728050Y-47338342D01*
X34785646Y-47225304D01*
X34785646Y-47225302D01*
X34785647Y-47225301D01*
X34785647Y-47225300D01*
X34805492Y-47100003D01*
X34805492Y-47099996D01*
X34785647Y-46974699D01*
X34785647Y-46974698D01*
X34785646Y-46974696D01*
X34728050Y-46861658D01*
X34728046Y-46861654D01*
X34728045Y-46861652D01*
X34638347Y-46771954D01*
X34638344Y-46771952D01*
X34638342Y-46771950D01*
X34525304Y-46714354D01*
X34525303Y-46714353D01*
X34525300Y-46714352D01*
X34400003Y-46694508D01*
X34399997Y-46694508D01*
X34274699Y-46714352D01*
X34274698Y-46714352D01*
X34211125Y-46746745D01*
X34161658Y-46771950D01*
X34161657Y-46771951D01*
X34161652Y-46771954D01*
X34099181Y-46834426D01*
X34037858Y-46867911D01*
X33968166Y-46862927D01*
X33912233Y-46821055D01*
X33887816Y-46755591D01*
X33887500Y-46746745D01*
X33887500Y-36453255D01*
X33907185Y-36386216D01*
X33959989Y-36340461D01*
X34029147Y-36330517D01*
X34092703Y-36359542D01*
X34099181Y-36365574D01*
X34161652Y-36428045D01*
X34161654Y-36428046D01*
X34161658Y-36428050D01*
X34274696Y-36485646D01*
X34274697Y-36485646D01*
X34274699Y-36485647D01*
X34399997Y-36505492D01*
X34400000Y-36505492D01*
X34400003Y-36505492D01*
X34525300Y-36485647D01*
X34525301Y-36485647D01*
X34525302Y-36485646D01*
X34525304Y-36485646D01*
X34638342Y-36428050D01*
X34728050Y-36338342D01*
X34785646Y-36225304D01*
X34785646Y-36225302D01*
X34785647Y-36225301D01*
X34785647Y-36225300D01*
X34805492Y-36100003D01*
X34805492Y-36099996D01*
X34785647Y-35974699D01*
X34785647Y-35974698D01*
X34779357Y-35962354D01*
X34728050Y-35861658D01*
X34728046Y-35861654D01*
X34728045Y-35861652D01*
X34638347Y-35771954D01*
X34638344Y-35771952D01*
X34638342Y-35771950D01*
X34525304Y-35714354D01*
X34525303Y-35714353D01*
X34525300Y-35714352D01*
X34400003Y-35694508D01*
X34399997Y-35694508D01*
X34274699Y-35714352D01*
X34274698Y-35714352D01*
X34211125Y-35746745D01*
X34161658Y-35771950D01*
X34161657Y-35771951D01*
X34161652Y-35771954D01*
X34099181Y-35834426D01*
X34037858Y-35867911D01*
X33968166Y-35862927D01*
X33912233Y-35821055D01*
X33887816Y-35755591D01*
X33887500Y-35746745D01*
X33887500Y-34766736D01*
X33888689Y-34749605D01*
X33889771Y-34741839D01*
X33889773Y-34741835D01*
X33887632Y-34695520D01*
X33887500Y-34689795D01*
X33887500Y-34671759D01*
X33887046Y-34666866D01*
X33885817Y-34656280D01*
X33884585Y-34629608D01*
X33881788Y-34623275D01*
X33873332Y-34595968D01*
X33872061Y-34589167D01*
X33857999Y-34566456D01*
X33849998Y-34551278D01*
X33839206Y-34526835D01*
X33834309Y-34521938D01*
X33816563Y-34499534D01*
X33812918Y-34493647D01*
X33812917Y-34493646D01*
X33791602Y-34477550D01*
X33778648Y-34466277D01*
X32312374Y-33000003D01*
X33574508Y-33000003D01*
X33594352Y-33125300D01*
X33594352Y-33125301D01*
X33594354Y-33125304D01*
X33651950Y-33238342D01*
X33651952Y-33238344D01*
X33651954Y-33238347D01*
X33741652Y-33328045D01*
X33741654Y-33328046D01*
X33741658Y-33328050D01*
X33854696Y-33385646D01*
X33854697Y-33385646D01*
X33854699Y-33385647D01*
X33979997Y-33405492D01*
X33980000Y-33405492D01*
X33980003Y-33405492D01*
X34105300Y-33385647D01*
X34105301Y-33385647D01*
X34105302Y-33385646D01*
X34105304Y-33385646D01*
X34218342Y-33328050D01*
X34308050Y-33238342D01*
X34365646Y-33125304D01*
X34365646Y-33125302D01*
X34365647Y-33125301D01*
X34365647Y-33125300D01*
X34385492Y-33000003D01*
X34385492Y-32999996D01*
X34365647Y-32874699D01*
X34365647Y-32874698D01*
X34349446Y-32842902D01*
X34308050Y-32761658D01*
X34308046Y-32761654D01*
X34308045Y-32761652D01*
X34218347Y-32671954D01*
X34218344Y-32671952D01*
X34218342Y-32671950D01*
X34105304Y-32614354D01*
X34105303Y-32614353D01*
X34105300Y-32614352D01*
X33980003Y-32594508D01*
X33979997Y-32594508D01*
X33854699Y-32614352D01*
X33854698Y-32614352D01*
X33779337Y-32652751D01*
X33741658Y-32671950D01*
X33741657Y-32671951D01*
X33741652Y-32671954D01*
X33651954Y-32761652D01*
X33651951Y-32761657D01*
X33594352Y-32874698D01*
X33594352Y-32874699D01*
X33574508Y-32999996D01*
X33574508Y-33000003D01*
X32312374Y-33000003D01*
X29766755Y-30454384D01*
X30603493Y-30454384D01*
X30623337Y-30579681D01*
X30623337Y-30579682D01*
X30623339Y-30579685D01*
X30680935Y-30692723D01*
X30680937Y-30692725D01*
X30680939Y-30692728D01*
X30770637Y-30782426D01*
X30770639Y-30782427D01*
X30770643Y-30782431D01*
X30883681Y-30840027D01*
X30883682Y-30840027D01*
X30883684Y-30840028D01*
X31008982Y-30859873D01*
X31008985Y-30859873D01*
X31008988Y-30859873D01*
X31134285Y-30840028D01*
X31134286Y-30840028D01*
X31134287Y-30840027D01*
X31134289Y-30840027D01*
X31247327Y-30782431D01*
X31337035Y-30692723D01*
X31394631Y-30579685D01*
X31394631Y-30579683D01*
X31394632Y-30579682D01*
X31394632Y-30579681D01*
X31414477Y-30454384D01*
X31414477Y-30454377D01*
X31394632Y-30329080D01*
X31394632Y-30329079D01*
X31387204Y-30314501D01*
X31337035Y-30216039D01*
X31337031Y-30216035D01*
X31337030Y-30216033D01*
X31247332Y-30126335D01*
X31247329Y-30126333D01*
X31247327Y-30126331D01*
X31134289Y-30068735D01*
X31134288Y-30068734D01*
X31134285Y-30068733D01*
X31008988Y-30048889D01*
X31008982Y-30048889D01*
X30883684Y-30068733D01*
X30883683Y-30068733D01*
X30814391Y-30104040D01*
X30770643Y-30126331D01*
X30770642Y-30126332D01*
X30770637Y-30126335D01*
X30680939Y-30216033D01*
X30680936Y-30216038D01*
X30623337Y-30329079D01*
X30623337Y-30329080D01*
X30603493Y-30454377D01*
X30603493Y-30454384D01*
X29766755Y-30454384D01*
X26066191Y-26753820D01*
X26032706Y-26692497D01*
X26031399Y-26685536D01*
X26015520Y-26585278D01*
X26015519Y-26585276D01*
X26015519Y-26585274D01*
X25954328Y-26465180D01*
X25954326Y-26465178D01*
X25954323Y-26465174D01*
X25859025Y-26369876D01*
X25859021Y-26369873D01*
X25859020Y-26369872D01*
X25738926Y-26308681D01*
X25738924Y-26308680D01*
X25738921Y-26308679D01*
X25605802Y-26287596D01*
X25605798Y-26287596D01*
X25472678Y-26308679D01*
X25352578Y-26369873D01*
X25352574Y-26369876D01*
X25257276Y-26465174D01*
X25257273Y-26465178D01*
X25196079Y-26585278D01*
X25174996Y-26718397D01*
X25174996Y-26718402D01*
X25196079Y-26851521D01*
X25196080Y-26851524D01*
X25196081Y-26851526D01*
X25250867Y-26959049D01*
X25257273Y-26971621D01*
X25257276Y-26971625D01*
X25352574Y-27066923D01*
X25352578Y-27066926D01*
X25352580Y-27066928D01*
X25472674Y-27128119D01*
X25472676Y-27128119D01*
X25472678Y-27128120D01*
X25572936Y-27143999D01*
X25636071Y-27173928D01*
X25641220Y-27178791D01*
X27585293Y-29122864D01*
X27618778Y-29184187D01*
X27620086Y-29229941D01*
X27615616Y-29258165D01*
X27610361Y-29291352D01*
X27610335Y-29291514D01*
X27610335Y-29291515D01*
X27630179Y-29416812D01*
X27630179Y-29416813D01*
X27630181Y-29416816D01*
X27687777Y-29529854D01*
X27687779Y-29529856D01*
X27687781Y-29529859D01*
X27777479Y-29619557D01*
X27777481Y-29619558D01*
X27777485Y-29619562D01*
X27890523Y-29677158D01*
X27890524Y-29677158D01*
X27890526Y-29677159D01*
X28015824Y-29697004D01*
X28015826Y-29697004D01*
X28015826Y-29697003D01*
X28015827Y-29697004D01*
X28077395Y-29687252D01*
X28146686Y-29696206D01*
X28184473Y-29722044D01*
X33250181Y-34787752D01*
X33283666Y-34849075D01*
X33286500Y-34875433D01*
X33286500Y-57380694D01*
X33266815Y-57447733D01*
X33214011Y-57493488D01*
X33144853Y-57503432D01*
X33086337Y-57477449D01*
X33086122Y-57477764D01*
X33084423Y-57476600D01*
X33083290Y-57476097D01*
X33077682Y-57471441D01*
X33069279Y-57464784D01*
X33049533Y-57446784D01*
X33043070Y-57444280D01*
X33017792Y-57430956D01*
X33012081Y-57427044D01*
X33012078Y-57427043D01*
X33012079Y-57427043D01*
X32986083Y-57420928D01*
X32969689Y-57415851D01*
X32944774Y-57406200D01*
X32944773Y-57406200D01*
X32937849Y-57406200D01*
X32909458Y-57402906D01*
X32902719Y-57401321D01*
X32876266Y-57405011D01*
X32859136Y-57406200D01*
X28007371Y-57406200D01*
X27940332Y-57386515D01*
X27894577Y-57333711D01*
X27884633Y-57264553D01*
X27896886Y-57225906D01*
X27948146Y-57125304D01*
X27948146Y-57125302D01*
X27948147Y-57125300D01*
X27967992Y-57000003D01*
X27967992Y-56999996D01*
X27948147Y-56874699D01*
X27948147Y-56874698D01*
X27948146Y-56874696D01*
X27890550Y-56761658D01*
X27890546Y-56761654D01*
X27890545Y-56761652D01*
X27800847Y-56671954D01*
X27800844Y-56671952D01*
X27800842Y-56671950D01*
X27687804Y-56614354D01*
X27687803Y-56614353D01*
X27687800Y-56614352D01*
X27562503Y-56594508D01*
X27562497Y-56594508D01*
X27437199Y-56614352D01*
X27437198Y-56614352D01*
X27361837Y-56652751D01*
X27324158Y-56671950D01*
X27324157Y-56671951D01*
X27324152Y-56671954D01*
X27234454Y-56761652D01*
X27234451Y-56761657D01*
X27176852Y-56874698D01*
X27176852Y-56874699D01*
X27157008Y-56999996D01*
X27157008Y-57000003D01*
X27176852Y-57125300D01*
X27176853Y-57125303D01*
X27176854Y-57125304D01*
X27228113Y-57225905D01*
X27241010Y-57294574D01*
X27214734Y-57359314D01*
X27157628Y-57399572D01*
X27117629Y-57406200D01*
X24865811Y-57406200D01*
X24798772Y-57386515D01*
X24778130Y-57369881D01*
X24766425Y-57358176D01*
X24766421Y-57358173D01*
X24766420Y-57358172D01*
X24646326Y-57296981D01*
X24646324Y-57296980D01*
X24646321Y-57296979D01*
X24513202Y-57275896D01*
X24513198Y-57275896D01*
X24380078Y-57296979D01*
X24259978Y-57358173D01*
X24259974Y-57358176D01*
X24164676Y-57453474D01*
X24164673Y-57453478D01*
X24103479Y-57573578D01*
X24082396Y-57706697D01*
X24082396Y-57706702D01*
X24103479Y-57839821D01*
X24103480Y-57839824D01*
X24103481Y-57839826D01*
X24164672Y-57959920D01*
X24164673Y-57959921D01*
X24164676Y-57959925D01*
X24259974Y-58055223D01*
X24259978Y-58055226D01*
X24259980Y-58055228D01*
X24380074Y-58116419D01*
X24380076Y-58116419D01*
X24380078Y-58116420D01*
X24513198Y-58137504D01*
X24513200Y-58137504D01*
X24513202Y-58137504D01*
X24646321Y-58116420D01*
X24646321Y-58116419D01*
X24646326Y-58116419D01*
X24766420Y-58055228D01*
X24766425Y-58055223D01*
X24778130Y-58043519D01*
X24839453Y-58010034D01*
X24865811Y-58007200D01*
X30526000Y-58007200D01*
X30593039Y-58026885D01*
X30638794Y-58079689D01*
X30650000Y-58131200D01*
X30650000Y-58750000D01*
X31566314Y-58750000D01*
X31540507Y-58790156D01*
X31500000Y-58928111D01*
X31500000Y-59071889D01*
X31540507Y-59209844D01*
X31566314Y-59250000D01*
X30650000Y-59250000D01*
X30650000Y-59739500D01*
X30630315Y-59806539D01*
X30577511Y-59852294D01*
X30526000Y-59863500D01*
X25376750Y-59863500D01*
X25309711Y-59843815D01*
X25263956Y-59791011D01*
X25254012Y-59721853D01*
X25266265Y-59683205D01*
X25277030Y-59662078D01*
X25277030Y-59662076D01*
X25277031Y-59662075D01*
X25277031Y-59662074D01*
X25296876Y-59536777D01*
X25296876Y-59536770D01*
X25277031Y-59411473D01*
X25277031Y-59411472D01*
X25248044Y-59354583D01*
X25219434Y-59298432D01*
X25219430Y-59298428D01*
X25219429Y-59298426D01*
X25129731Y-59208728D01*
X25129728Y-59208726D01*
X25129726Y-59208724D01*
X25016688Y-59151128D01*
X25016687Y-59151127D01*
X25016684Y-59151126D01*
X24891387Y-59131282D01*
X24891381Y-59131282D01*
X24766083Y-59151126D01*
X24766082Y-59151126D01*
X24690721Y-59189525D01*
X24653042Y-59208724D01*
X24653041Y-59208725D01*
X24653036Y-59208728D01*
X24563338Y-59298426D01*
X24563335Y-59298431D01*
X24505736Y-59411472D01*
X24505736Y-59411473D01*
X24485892Y-59536770D01*
X24485892Y-59536777D01*
X24505736Y-59662074D01*
X24505736Y-59662075D01*
X24516503Y-59683205D01*
X24529399Y-59751875D01*
X24503122Y-59816615D01*
X24446016Y-59856872D01*
X24406018Y-59863500D01*
X21353773Y-59863500D01*
X21286734Y-59843815D01*
X21243289Y-59795796D01*
X21211028Y-59732480D01*
X21211024Y-59732476D01*
X21211023Y-59732474D01*
X21115725Y-59637176D01*
X21115721Y-59637173D01*
X21115720Y-59637172D01*
X20995626Y-59575981D01*
X20995624Y-59575980D01*
X20995621Y-59575979D01*
X20862502Y-59554896D01*
X20862498Y-59554896D01*
X20729378Y-59575979D01*
X20609278Y-59637173D01*
X20609274Y-59637176D01*
X20513976Y-59732474D01*
X20513973Y-59732478D01*
X20452779Y-59852578D01*
X20431696Y-59985697D01*
X20431696Y-59985702D01*
X5333032Y-59985702D01*
X5343596Y-59957379D01*
X5343598Y-59957372D01*
X5349999Y-59897844D01*
X5350000Y-59897827D01*
X5350000Y-59250000D01*
X4433686Y-59250000D01*
X4447001Y-59229282D01*
X8645267Y-59229282D01*
X8665111Y-59354579D01*
X8665111Y-59354580D01*
X8665113Y-59354583D01*
X8722709Y-59467621D01*
X8722711Y-59467623D01*
X8722713Y-59467626D01*
X8812411Y-59557324D01*
X8812413Y-59557325D01*
X8812417Y-59557329D01*
X8925455Y-59614925D01*
X8925456Y-59614925D01*
X8925458Y-59614926D01*
X9050756Y-59634771D01*
X9050759Y-59634771D01*
X9050762Y-59634771D01*
X9176059Y-59614926D01*
X9176060Y-59614926D01*
X9176061Y-59614925D01*
X9176063Y-59614925D01*
X9289101Y-59557329D01*
X9378809Y-59467621D01*
X9436405Y-59354583D01*
X9436405Y-59354581D01*
X9436406Y-59354580D01*
X9436406Y-59354579D01*
X9456251Y-59229282D01*
X9456251Y-59229275D01*
X9436406Y-59103978D01*
X9436406Y-59103977D01*
X9420056Y-59071889D01*
X9378809Y-58990937D01*
X9378805Y-58990933D01*
X9378804Y-58990931D01*
X9289106Y-58901233D01*
X9289103Y-58901231D01*
X9289101Y-58901229D01*
X9176063Y-58843633D01*
X9176062Y-58843632D01*
X9176059Y-58843631D01*
X9050762Y-58823787D01*
X9050756Y-58823787D01*
X8925458Y-58843631D01*
X8925457Y-58843631D01*
X8850096Y-58882030D01*
X8812417Y-58901229D01*
X8812416Y-58901230D01*
X8812411Y-58901233D01*
X8722713Y-58990931D01*
X8722710Y-58990936D01*
X8665111Y-59103977D01*
X8665111Y-59103978D01*
X8645267Y-59229275D01*
X8645267Y-59229282D01*
X4447001Y-59229282D01*
X4459493Y-59209844D01*
X4500000Y-59071889D01*
X4500000Y-58928111D01*
X4459493Y-58790156D01*
X4433686Y-58750000D01*
X5350000Y-58750000D01*
X5350000Y-58102172D01*
X5349999Y-58102155D01*
X5343598Y-58042627D01*
X5343596Y-58042620D01*
X5293354Y-57907913D01*
X5293350Y-57907906D01*
X5207190Y-57792812D01*
X5207187Y-57792809D01*
X5092093Y-57706649D01*
X5092086Y-57706645D01*
X4957379Y-57656403D01*
X4957372Y-57656401D01*
X4897844Y-57650000D01*
X4250000Y-57650000D01*
X4250000Y-58564498D01*
X4142315Y-58515320D01*
X4035763Y-58500000D01*
X3964237Y-58500000D01*
X3857685Y-58515320D01*
X3750000Y-58564498D01*
X3750000Y-57650000D01*
X3102155Y-57650000D01*
X3042627Y-57656401D01*
X3042620Y-57656403D01*
X2907913Y-57706645D01*
X2907906Y-57706649D01*
X2792812Y-57792809D01*
X2792809Y-57792812D01*
X2706649Y-57907906D01*
X2706645Y-57907913D01*
X2656403Y-58042620D01*
X2656401Y-58042627D01*
X2650000Y-58102155D01*
X2650000Y-58750000D01*
X3566314Y-58750000D01*
X3540507Y-58790156D01*
X3500000Y-58928111D01*
X3500000Y-59071889D01*
X3540507Y-59209844D01*
X3566314Y-59250000D01*
X2650000Y-59250000D01*
X2650000Y-59897844D01*
X500500Y-59897844D01*
X500500Y-56848785D01*
X9116687Y-56848785D01*
X9136531Y-56974082D01*
X9136531Y-56974083D01*
X9136533Y-56974086D01*
X9194129Y-57087124D01*
X9194131Y-57087126D01*
X9194133Y-57087129D01*
X9283831Y-57176827D01*
X9283833Y-57176828D01*
X9283837Y-57176832D01*
X9396875Y-57234428D01*
X9396876Y-57234428D01*
X9396878Y-57234429D01*
X9522176Y-57254274D01*
X9522179Y-57254274D01*
X9522182Y-57254274D01*
X9647479Y-57234429D01*
X9647480Y-57234429D01*
X9647481Y-57234428D01*
X9647483Y-57234428D01*
X9760521Y-57176832D01*
X9802350Y-57135003D01*
X11119508Y-57135003D01*
X11139352Y-57260300D01*
X11139352Y-57260301D01*
X11157805Y-57296517D01*
X11196950Y-57373342D01*
X11196952Y-57373344D01*
X11196954Y-57373347D01*
X11286652Y-57463045D01*
X11286654Y-57463046D01*
X11286658Y-57463050D01*
X11399696Y-57520646D01*
X11399697Y-57520646D01*
X11399699Y-57520647D01*
X11524997Y-57540492D01*
X11525000Y-57540492D01*
X11525003Y-57540492D01*
X11650300Y-57520647D01*
X11650301Y-57520647D01*
X11650302Y-57520646D01*
X11650304Y-57520646D01*
X11763342Y-57463050D01*
X11853050Y-57373342D01*
X11910646Y-57260304D01*
X11910646Y-57260302D01*
X11910647Y-57260301D01*
X11910647Y-57260300D01*
X11930492Y-57135003D01*
X11930492Y-57134996D01*
X11910647Y-57009699D01*
X11910647Y-57009698D01*
X11905707Y-57000003D01*
X20457008Y-57000003D01*
X20476852Y-57125300D01*
X20476852Y-57125301D01*
X20476854Y-57125304D01*
X20534450Y-57238342D01*
X20534452Y-57238344D01*
X20534454Y-57238347D01*
X20624152Y-57328045D01*
X20624154Y-57328046D01*
X20624158Y-57328050D01*
X20737196Y-57385646D01*
X20737197Y-57385646D01*
X20737199Y-57385647D01*
X20862497Y-57405492D01*
X20862500Y-57405492D01*
X20862503Y-57405492D01*
X20987800Y-57385647D01*
X20987801Y-57385647D01*
X20987802Y-57385646D01*
X20987804Y-57385646D01*
X21100842Y-57328050D01*
X21190550Y-57238342D01*
X21248146Y-57125304D01*
X21248146Y-57125302D01*
X21248147Y-57125301D01*
X21248147Y-57125300D01*
X21267992Y-57000003D01*
X21267992Y-56999996D01*
X21248147Y-56874699D01*
X21248147Y-56874698D01*
X21248146Y-56874696D01*
X21190550Y-56761658D01*
X21190546Y-56761654D01*
X21190545Y-56761652D01*
X21100847Y-56671954D01*
X21100844Y-56671952D01*
X21100842Y-56671950D01*
X20987804Y-56614354D01*
X20987803Y-56614353D01*
X20987800Y-56614352D01*
X20862503Y-56594508D01*
X20862497Y-56594508D01*
X20737199Y-56614352D01*
X20737198Y-56614352D01*
X20661837Y-56652751D01*
X20624158Y-56671950D01*
X20624157Y-56671951D01*
X20624152Y-56671954D01*
X20534454Y-56761652D01*
X20534451Y-56761657D01*
X20476852Y-56874698D01*
X20476852Y-56874699D01*
X20457008Y-56999996D01*
X20457008Y-57000003D01*
X11905707Y-57000003D01*
X11853050Y-56896658D01*
X11853046Y-56896654D01*
X11853045Y-56896652D01*
X11763347Y-56806954D01*
X11763344Y-56806952D01*
X11763342Y-56806950D01*
X11650304Y-56749354D01*
X11650303Y-56749353D01*
X11650300Y-56749352D01*
X11525003Y-56729508D01*
X11524997Y-56729508D01*
X11399699Y-56749352D01*
X11399698Y-56749352D01*
X11324337Y-56787751D01*
X11286658Y-56806950D01*
X11286657Y-56806951D01*
X11286652Y-56806954D01*
X11196954Y-56896652D01*
X11196951Y-56896657D01*
X11139352Y-57009698D01*
X11139352Y-57009699D01*
X11119508Y-57134996D01*
X11119508Y-57135003D01*
X9802350Y-57135003D01*
X9850229Y-57087124D01*
X9907825Y-56974086D01*
X9907825Y-56974084D01*
X9907826Y-56974083D01*
X9907826Y-56974082D01*
X9927671Y-56848785D01*
X9927671Y-56848778D01*
X9907826Y-56723481D01*
X9907826Y-56723480D01*
X9907825Y-56723478D01*
X9850229Y-56610440D01*
X9850225Y-56610436D01*
X9850224Y-56610434D01*
X9760526Y-56520736D01*
X9760523Y-56520734D01*
X9760521Y-56520732D01*
X9719838Y-56500003D01*
X13594508Y-56500003D01*
X13614352Y-56625300D01*
X13614352Y-56625301D01*
X13614354Y-56625304D01*
X13671950Y-56738342D01*
X13671952Y-56738344D01*
X13671954Y-56738347D01*
X13761652Y-56828045D01*
X13761654Y-56828046D01*
X13761658Y-56828050D01*
X13874696Y-56885646D01*
X13874697Y-56885646D01*
X13874699Y-56885647D01*
X13999997Y-56905492D01*
X14000000Y-56905492D01*
X14000003Y-56905492D01*
X14125300Y-56885647D01*
X14125301Y-56885647D01*
X14125302Y-56885646D01*
X14125304Y-56885646D01*
X14238342Y-56828050D01*
X14328050Y-56738342D01*
X14385646Y-56625304D01*
X14385646Y-56625302D01*
X14385647Y-56625301D01*
X14385647Y-56625300D01*
X14405492Y-56500003D01*
X14405492Y-56499996D01*
X14385647Y-56374699D01*
X14385647Y-56374698D01*
X14385646Y-56374696D01*
X14328050Y-56261658D01*
X14328046Y-56261654D01*
X14328045Y-56261652D01*
X14238347Y-56171954D01*
X14238344Y-56171952D01*
X14238342Y-56171950D01*
X14125304Y-56114354D01*
X14125303Y-56114353D01*
X14125300Y-56114352D01*
X14000003Y-56094508D01*
X13999997Y-56094508D01*
X13874699Y-56114352D01*
X13874698Y-56114352D01*
X13799337Y-56152751D01*
X13761658Y-56171950D01*
X13761657Y-56171951D01*
X13761652Y-56171954D01*
X13671954Y-56261652D01*
X13671951Y-56261657D01*
X13614352Y-56374698D01*
X13614352Y-56374699D01*
X13594508Y-56499996D01*
X13594508Y-56500003D01*
X9719838Y-56500003D01*
X9647483Y-56463136D01*
X9647482Y-56463135D01*
X9647479Y-56463134D01*
X9522182Y-56443290D01*
X9522176Y-56443290D01*
X9396878Y-56463134D01*
X9396877Y-56463134D01*
X9324526Y-56500000D01*
X9283837Y-56520732D01*
X9283836Y-56520733D01*
X9283831Y-56520736D01*
X9194133Y-56610434D01*
X9194130Y-56610439D01*
X9194129Y-56610440D01*
X9174930Y-56648119D01*
X9136531Y-56723480D01*
X9136531Y-56723481D01*
X9116687Y-56848778D01*
X9116687Y-56848785D01*
X500500Y-56848785D01*
X500500Y-54545621D01*
X6633493Y-54545621D01*
X6653337Y-54670918D01*
X6653337Y-54670919D01*
X6671790Y-54707135D01*
X6710935Y-54783960D01*
X6710937Y-54783962D01*
X6710939Y-54783965D01*
X6800637Y-54873663D01*
X6800639Y-54873664D01*
X6800643Y-54873668D01*
X6913681Y-54931264D01*
X6913682Y-54931264D01*
X6913684Y-54931265D01*
X7038982Y-54951110D01*
X7038985Y-54951110D01*
X7038988Y-54951110D01*
X7164285Y-54931265D01*
X7164286Y-54931265D01*
X7164287Y-54931264D01*
X7164289Y-54931264D01*
X7277327Y-54873668D01*
X7367035Y-54783960D01*
X7424631Y-54670922D01*
X7424631Y-54670920D01*
X7424632Y-54670919D01*
X7424632Y-54670918D01*
X7436656Y-54595003D01*
X11119508Y-54595003D01*
X11139352Y-54720300D01*
X11139352Y-54720301D01*
X11139354Y-54720304D01*
X11196950Y-54833342D01*
X11196952Y-54833344D01*
X11196954Y-54833347D01*
X11286652Y-54923045D01*
X11286654Y-54923046D01*
X11286658Y-54923050D01*
X11399696Y-54980646D01*
X11399697Y-54980646D01*
X11399699Y-54980647D01*
X11524997Y-55000492D01*
X11525000Y-55000492D01*
X11525003Y-55000492D01*
X11650300Y-54980647D01*
X11650301Y-54980647D01*
X11650302Y-54980646D01*
X11650304Y-54980646D01*
X11763342Y-54923050D01*
X11853050Y-54833342D01*
X11910646Y-54720304D01*
X11910646Y-54720302D01*
X11910647Y-54720301D01*
X11910647Y-54720300D01*
X11930492Y-54595003D01*
X11930492Y-54594996D01*
X11910647Y-54469699D01*
X11910647Y-54469698D01*
X11895494Y-54439959D01*
X18276274Y-54439959D01*
X18296118Y-54565256D01*
X18296118Y-54565257D01*
X18296120Y-54565260D01*
X18353716Y-54678298D01*
X18353718Y-54678300D01*
X18353720Y-54678303D01*
X18443418Y-54768001D01*
X18443420Y-54768002D01*
X18443424Y-54768006D01*
X18556462Y-54825602D01*
X18556463Y-54825602D01*
X18556465Y-54825603D01*
X18681763Y-54845448D01*
X18681766Y-54845448D01*
X18681769Y-54845448D01*
X18807066Y-54825603D01*
X18807067Y-54825603D01*
X18807068Y-54825602D01*
X18807070Y-54825602D01*
X18920108Y-54768006D01*
X19009816Y-54678298D01*
X19067412Y-54565260D01*
X19067412Y-54565258D01*
X19067413Y-54565257D01*
X19067413Y-54565256D01*
X19070523Y-54545621D01*
X30633493Y-54545621D01*
X30653337Y-54670918D01*
X30653337Y-54670919D01*
X30671790Y-54707135D01*
X30710935Y-54783960D01*
X30710937Y-54783962D01*
X30710939Y-54783965D01*
X30800637Y-54873663D01*
X30800639Y-54873664D01*
X30800643Y-54873668D01*
X30913681Y-54931264D01*
X30913682Y-54931264D01*
X30913684Y-54931265D01*
X31038982Y-54951110D01*
X31038985Y-54951110D01*
X31038988Y-54951110D01*
X31164285Y-54931265D01*
X31164286Y-54931265D01*
X31164287Y-54931264D01*
X31164289Y-54931264D01*
X31277327Y-54873668D01*
X31367035Y-54783960D01*
X31424631Y-54670922D01*
X31424631Y-54670920D01*
X31424632Y-54670919D01*
X31424632Y-54670918D01*
X31444477Y-54545621D01*
X31444477Y-54545614D01*
X31424632Y-54420317D01*
X31424632Y-54420316D01*
X31424631Y-54420314D01*
X31367035Y-54307276D01*
X31367031Y-54307272D01*
X31367030Y-54307270D01*
X31277332Y-54217572D01*
X31277329Y-54217570D01*
X31277327Y-54217568D01*
X31164289Y-54159972D01*
X31164288Y-54159971D01*
X31164285Y-54159970D01*
X31038988Y-54140126D01*
X31038982Y-54140126D01*
X30913684Y-54159970D01*
X30913683Y-54159970D01*
X30838322Y-54198369D01*
X30800643Y-54217568D01*
X30800642Y-54217569D01*
X30800637Y-54217572D01*
X30710939Y-54307270D01*
X30710936Y-54307275D01*
X30710935Y-54307276D01*
X30691736Y-54344955D01*
X30653337Y-54420316D01*
X30653337Y-54420317D01*
X30633493Y-54545614D01*
X30633493Y-54545621D01*
X19070523Y-54545621D01*
X19087258Y-54439959D01*
X19087258Y-54439952D01*
X19067413Y-54314655D01*
X19067413Y-54314654D01*
X19063651Y-54307270D01*
X19009816Y-54201614D01*
X19009812Y-54201610D01*
X19009811Y-54201608D01*
X18920113Y-54111910D01*
X18920110Y-54111908D01*
X18920108Y-54111906D01*
X18807070Y-54054310D01*
X18807069Y-54054309D01*
X18807066Y-54054308D01*
X18681769Y-54034464D01*
X18681763Y-54034464D01*
X18556465Y-54054308D01*
X18556464Y-54054308D01*
X18481103Y-54092707D01*
X18443424Y-54111906D01*
X18443423Y-54111907D01*
X18443418Y-54111910D01*
X18353720Y-54201608D01*
X18353717Y-54201613D01*
X18353716Y-54201614D01*
X18345585Y-54217572D01*
X18296118Y-54314654D01*
X18296118Y-54314655D01*
X18276274Y-54439952D01*
X18276274Y-54439959D01*
X11895494Y-54439959D01*
X11853050Y-54356658D01*
X11853046Y-54356654D01*
X11853045Y-54356652D01*
X11763347Y-54266954D01*
X11763344Y-54266952D01*
X11763342Y-54266950D01*
X11650304Y-54209354D01*
X11650303Y-54209353D01*
X11650300Y-54209352D01*
X11525003Y-54189508D01*
X11524997Y-54189508D01*
X11399699Y-54209352D01*
X11399698Y-54209352D01*
X11324337Y-54247751D01*
X11286658Y-54266950D01*
X11286657Y-54266951D01*
X11286652Y-54266954D01*
X11196954Y-54356652D01*
X11196951Y-54356657D01*
X11139352Y-54469698D01*
X11139352Y-54469699D01*
X11119508Y-54594996D01*
X11119508Y-54595003D01*
X7436656Y-54595003D01*
X7444477Y-54545621D01*
X7444477Y-54545614D01*
X7424632Y-54420317D01*
X7424632Y-54420316D01*
X7424631Y-54420314D01*
X7367035Y-54307276D01*
X7367031Y-54307272D01*
X7367030Y-54307270D01*
X7277332Y-54217572D01*
X7277329Y-54217570D01*
X7277327Y-54217568D01*
X7164289Y-54159972D01*
X7164288Y-54159971D01*
X7164285Y-54159970D01*
X7038988Y-54140126D01*
X7038982Y-54140126D01*
X6913684Y-54159970D01*
X6913683Y-54159970D01*
X6838322Y-54198369D01*
X6800643Y-54217568D01*
X6800642Y-54217569D01*
X6800637Y-54217572D01*
X6710939Y-54307270D01*
X6710936Y-54307275D01*
X6710935Y-54307276D01*
X6691736Y-54344955D01*
X6653337Y-54420316D01*
X6653337Y-54420317D01*
X6633493Y-54545614D01*
X6633493Y-54545621D01*
X500500Y-54545621D01*
X500500Y-52950003D01*
X4657008Y-52950003D01*
X4676852Y-53075300D01*
X4676852Y-53075301D01*
X4676854Y-53075304D01*
X4734450Y-53188342D01*
X4734452Y-53188344D01*
X4734454Y-53188347D01*
X4824152Y-53278045D01*
X4824154Y-53278046D01*
X4824158Y-53278050D01*
X4937196Y-53335646D01*
X4937197Y-53335646D01*
X4937199Y-53335647D01*
X5062497Y-53355492D01*
X5062500Y-53355492D01*
X5062503Y-53355492D01*
X5187800Y-53335647D01*
X5187801Y-53335647D01*
X5187802Y-53335646D01*
X5187804Y-53335646D01*
X5300842Y-53278050D01*
X5390550Y-53188342D01*
X5448146Y-53075304D01*
X5448146Y-53075302D01*
X5448147Y-53075301D01*
X5448147Y-53075300D01*
X5467992Y-52950003D01*
X28657008Y-52950003D01*
X28676852Y-53075300D01*
X28676852Y-53075301D01*
X28676854Y-53075304D01*
X28734450Y-53188342D01*
X28734452Y-53188344D01*
X28734454Y-53188347D01*
X28824152Y-53278045D01*
X28824154Y-53278046D01*
X28824158Y-53278050D01*
X28937196Y-53335646D01*
X28937197Y-53335646D01*
X28937199Y-53335647D01*
X29062497Y-53355492D01*
X29062500Y-53355492D01*
X29062503Y-53355492D01*
X29187800Y-53335647D01*
X29187801Y-53335647D01*
X29187802Y-53335646D01*
X29187804Y-53335646D01*
X29300842Y-53278050D01*
X29390550Y-53188342D01*
X29448146Y-53075304D01*
X29448146Y-53075302D01*
X29448147Y-53075301D01*
X29448147Y-53075300D01*
X29467992Y-52950003D01*
X29467992Y-52949996D01*
X29448147Y-52824699D01*
X29448147Y-52824698D01*
X29448146Y-52824696D01*
X29390550Y-52711658D01*
X29390546Y-52711654D01*
X29390545Y-52711652D01*
X29300847Y-52621954D01*
X29300844Y-52621952D01*
X29300842Y-52621950D01*
X29187804Y-52564354D01*
X29187803Y-52564353D01*
X29187800Y-52564352D01*
X29062503Y-52544508D01*
X29062497Y-52544508D01*
X28937199Y-52564352D01*
X28937198Y-52564352D01*
X28861837Y-52602751D01*
X28824158Y-52621950D01*
X28824157Y-52621951D01*
X28824152Y-52621954D01*
X28734454Y-52711652D01*
X28734451Y-52711657D01*
X28676852Y-52824698D01*
X28676852Y-52824699D01*
X28657008Y-52949996D01*
X28657008Y-52950003D01*
X5467992Y-52950003D01*
X5467992Y-52949996D01*
X5448147Y-52824699D01*
X5448147Y-52824698D01*
X5448146Y-52824696D01*
X5390550Y-52711658D01*
X5390546Y-52711654D01*
X5390545Y-52711652D01*
X5300847Y-52621954D01*
X5300844Y-52621952D01*
X5300842Y-52621950D01*
X5187804Y-52564354D01*
X5187803Y-52564353D01*
X5187800Y-52564352D01*
X5062503Y-52544508D01*
X5062497Y-52544508D01*
X4937199Y-52564352D01*
X4937198Y-52564352D01*
X4861837Y-52602751D01*
X4824158Y-52621950D01*
X4824157Y-52621951D01*
X4824152Y-52621954D01*
X4734454Y-52711652D01*
X4734451Y-52711657D01*
X4676852Y-52824698D01*
X4676852Y-52824699D01*
X4657008Y-52949996D01*
X4657008Y-52950003D01*
X500500Y-52950003D01*
X500500Y-52250003D01*
X18732008Y-52250003D01*
X18751852Y-52375300D01*
X18751852Y-52375301D01*
X18751854Y-52375304D01*
X18809450Y-52488342D01*
X18809452Y-52488344D01*
X18809454Y-52488347D01*
X18899152Y-52578045D01*
X18899154Y-52578046D01*
X18899158Y-52578050D01*
X19012196Y-52635646D01*
X19012197Y-52635646D01*
X19012199Y-52635647D01*
X19137497Y-52655492D01*
X19137500Y-52655492D01*
X19137503Y-52655492D01*
X19262800Y-52635647D01*
X19262801Y-52635647D01*
X19262802Y-52635646D01*
X19262804Y-52635646D01*
X19375842Y-52578050D01*
X19465550Y-52488342D01*
X19523146Y-52375304D01*
X19523146Y-52375302D01*
X19523147Y-52375301D01*
X19523147Y-52375300D01*
X19542992Y-52250003D01*
X19542992Y-52249996D01*
X19523147Y-52124699D01*
X19523147Y-52124698D01*
X19523146Y-52124696D01*
X19465550Y-52011658D01*
X19465546Y-52011654D01*
X19465545Y-52011652D01*
X19375847Y-51921954D01*
X19375844Y-51921952D01*
X19375842Y-51921950D01*
X19262804Y-51864354D01*
X19262803Y-51864353D01*
X19262800Y-51864352D01*
X19137503Y-51844508D01*
X19137497Y-51844508D01*
X19012199Y-51864352D01*
X19012198Y-51864352D01*
X18936837Y-51902751D01*
X18899158Y-51921950D01*
X18899157Y-51921951D01*
X18899152Y-51921954D01*
X18809454Y-52011652D01*
X18809451Y-52011657D01*
X18751852Y-52124698D01*
X18751852Y-52124699D01*
X18732008Y-52249996D01*
X18732008Y-52250003D01*
X500500Y-52250003D01*
X500500Y-34177259D01*
X5835073Y-34177259D01*
X5854917Y-34302556D01*
X5854917Y-34302557D01*
X5854919Y-34302560D01*
X5912515Y-34415598D01*
X5912517Y-34415600D01*
X5912519Y-34415603D01*
X6002217Y-34505301D01*
X6002219Y-34505302D01*
X6002223Y-34505306D01*
X6115261Y-34562902D01*
X6115262Y-34562902D01*
X6115264Y-34562903D01*
X6240562Y-34582748D01*
X6240565Y-34582748D01*
X6240568Y-34582748D01*
X6365865Y-34562903D01*
X6365866Y-34562903D01*
X6365867Y-34562902D01*
X6365869Y-34562902D01*
X6478907Y-34505306D01*
X6568615Y-34415598D01*
X6626211Y-34302560D01*
X6626211Y-34302558D01*
X6626212Y-34302557D01*
X6626212Y-34302556D01*
X6636275Y-34239023D01*
X7681476Y-34239023D01*
X7701320Y-34364320D01*
X7701320Y-34364321D01*
X7701322Y-34364324D01*
X7758918Y-34477362D01*
X7758920Y-34477364D01*
X7758922Y-34477367D01*
X7848620Y-34567065D01*
X7848622Y-34567066D01*
X7848626Y-34567070D01*
X7961664Y-34624666D01*
X7961665Y-34624666D01*
X7961667Y-34624667D01*
X8086965Y-34644512D01*
X8086968Y-34644512D01*
X8086971Y-34644512D01*
X8212268Y-34624667D01*
X8212269Y-34624667D01*
X8212270Y-34624666D01*
X8212272Y-34624666D01*
X8325310Y-34567070D01*
X8415018Y-34477362D01*
X8472614Y-34364324D01*
X8472614Y-34364322D01*
X8472615Y-34364321D01*
X8472615Y-34364320D01*
X8492460Y-34239023D01*
X8492460Y-34239016D01*
X8472615Y-34113719D01*
X8472615Y-34113718D01*
X8472614Y-34113716D01*
X8415018Y-34000678D01*
X8415014Y-34000674D01*
X8415013Y-34000672D01*
X8325315Y-33910974D01*
X8325312Y-33910972D01*
X8325310Y-33910970D01*
X8212272Y-33853374D01*
X8212271Y-33853373D01*
X8212268Y-33853372D01*
X8086971Y-33833528D01*
X8086965Y-33833528D01*
X7961667Y-33853372D01*
X7961666Y-33853372D01*
X7886305Y-33891771D01*
X7848626Y-33910970D01*
X7848625Y-33910971D01*
X7848620Y-33910974D01*
X7758922Y-34000672D01*
X7758919Y-34000677D01*
X7701320Y-34113718D01*
X7701320Y-34113719D01*
X7681476Y-34239016D01*
X7681476Y-34239023D01*
X6636275Y-34239023D01*
X6646057Y-34177259D01*
X6646057Y-34177252D01*
X6626212Y-34051955D01*
X6626212Y-34051954D01*
X6626211Y-34051952D01*
X6568615Y-33938914D01*
X6568611Y-33938910D01*
X6568610Y-33938908D01*
X6478912Y-33849210D01*
X6478909Y-33849208D01*
X6478907Y-33849206D01*
X6365869Y-33791610D01*
X6365868Y-33791609D01*
X6365865Y-33791608D01*
X6240568Y-33771764D01*
X6240562Y-33771764D01*
X6115264Y-33791608D01*
X6115263Y-33791608D01*
X6055170Y-33822228D01*
X6002223Y-33849206D01*
X6002222Y-33849207D01*
X6002217Y-33849210D01*
X5912519Y-33938908D01*
X5912516Y-33938913D01*
X5854917Y-34051954D01*
X5854917Y-34051955D01*
X5835073Y-34177252D01*
X5835073Y-34177259D01*
X500500Y-34177259D01*
X500500Y-31250003D01*
X749508Y-31250003D01*
X769352Y-31375300D01*
X769352Y-31375301D01*
X780472Y-31397124D01*
X826950Y-31488342D01*
X826952Y-31488344D01*
X826954Y-31488347D01*
X916652Y-31578045D01*
X916655Y-31578047D01*
X916658Y-31578050D01*
X959374Y-31599815D01*
X997646Y-31619316D01*
X1048441Y-31667290D01*
X1065236Y-31735111D01*
X1042698Y-31801246D01*
X1034166Y-31812027D01*
X939264Y-31919150D01*
X860210Y-32069773D01*
X819500Y-32234944D01*
X819500Y-32405055D01*
X860210Y-32570226D01*
X939263Y-32720849D01*
X939266Y-32720852D01*
X1052071Y-32848183D01*
X1090486Y-32874699D01*
X1192068Y-32944817D01*
X1192069Y-32944817D01*
X1192070Y-32944818D01*
X1293358Y-32983231D01*
X1337582Y-33000003D01*
X1351128Y-33005140D01*
X1427028Y-33014356D01*
X1477626Y-33020500D01*
X1477628Y-33020500D01*
X2662374Y-33020500D01*
X2704538Y-33015380D01*
X2788872Y-33005140D01*
X2947930Y-32944818D01*
X3087929Y-32848183D01*
X3200734Y-32720852D01*
X3206077Y-32710673D01*
X3279789Y-32570226D01*
X3279790Y-32570225D01*
X3320500Y-32405056D01*
X3320500Y-32405055D01*
X5249500Y-32405055D01*
X5290210Y-32570226D01*
X5369263Y-32720849D01*
X5369266Y-32720852D01*
X5482071Y-32848183D01*
X5520486Y-32874699D01*
X5622068Y-32944817D01*
X5622069Y-32944817D01*
X5622070Y-32944818D01*
X5723358Y-32983231D01*
X5767582Y-33000003D01*
X5781128Y-33005140D01*
X5857028Y-33014356D01*
X5907626Y-33020500D01*
X5907628Y-33020500D01*
X6592374Y-33020500D01*
X6634538Y-33015380D01*
X6718872Y-33005140D01*
X6877930Y-32944818D01*
X7017929Y-32848183D01*
X7130734Y-32720852D01*
X7136077Y-32710673D01*
X7209789Y-32570226D01*
X7209790Y-32570225D01*
X7250500Y-32405056D01*
X7250500Y-32234944D01*
X7209790Y-32069775D01*
X7186132Y-32024698D01*
X7130736Y-31919150D01*
X7111560Y-31897505D01*
X7017929Y-31791817D01*
X6935777Y-31735111D01*
X6877931Y-31695182D01*
X6718874Y-31634860D01*
X6718868Y-31634859D01*
X6592374Y-31619500D01*
X6592372Y-31619500D01*
X5907628Y-31619500D01*
X5907626Y-31619500D01*
X5781131Y-31634859D01*
X5781125Y-31634860D01*
X5622068Y-31695182D01*
X5482072Y-31791816D01*
X5369263Y-31919150D01*
X5290210Y-32069773D01*
X5249500Y-32234944D01*
X5249500Y-32405055D01*
X3320500Y-32405055D01*
X3320500Y-32234944D01*
X3279790Y-32069775D01*
X3256132Y-32024698D01*
X3200736Y-31919150D01*
X3181560Y-31897505D01*
X3087929Y-31791817D01*
X3005777Y-31735111D01*
X2947931Y-31695182D01*
X2828909Y-31650044D01*
X2773206Y-31607866D01*
X2749149Y-31542269D01*
X2764376Y-31474079D01*
X2814051Y-31424945D01*
X2825407Y-31419549D01*
X2890233Y-31392698D01*
X3010451Y-31300451D01*
X3102698Y-31180233D01*
X3160687Y-31040236D01*
X3180466Y-30890000D01*
X3173408Y-30836393D01*
X3160687Y-30739765D01*
X3160687Y-30739764D01*
X3102698Y-30599767D01*
X3010451Y-30479549D01*
X3007327Y-30477152D01*
X3005361Y-30474459D01*
X3004704Y-30473802D01*
X3004806Y-30473699D01*
X2966127Y-30420725D01*
X2961973Y-30350979D01*
X2996187Y-30290059D01*
X3057904Y-30257307D01*
X3102215Y-30256306D01*
X3146398Y-30263304D01*
X3146400Y-30263304D01*
X3146402Y-30263304D01*
X3279521Y-30242220D01*
X3279521Y-30242219D01*
X3279526Y-30242219D01*
X3399620Y-30181028D01*
X3494928Y-30085720D01*
X3556119Y-29965626D01*
X3559604Y-29943621D01*
X3577204Y-29832502D01*
X3577204Y-29832497D01*
X3556120Y-29699378D01*
X3556119Y-29699376D01*
X3556119Y-29699374D01*
X3494928Y-29579280D01*
X3494926Y-29579278D01*
X3494923Y-29579274D01*
X3399625Y-29483976D01*
X3399621Y-29483973D01*
X3399620Y-29483972D01*
X3279526Y-29422781D01*
X3279524Y-29422780D01*
X3279521Y-29422779D01*
X3179262Y-29406900D01*
X3116127Y-29376971D01*
X3110979Y-29372108D01*
X2736119Y-28997248D01*
X2702634Y-28935925D01*
X2699800Y-28909567D01*
X2699800Y-26985410D01*
X2719485Y-26918371D01*
X2736116Y-26897731D01*
X2747828Y-26886020D01*
X2809019Y-26765926D01*
X2809020Y-26765921D01*
X2830104Y-26632802D01*
X2830104Y-26632797D01*
X2809020Y-26499678D01*
X2809019Y-26499676D01*
X2809019Y-26499674D01*
X2747828Y-26379580D01*
X2747826Y-26379578D01*
X2747823Y-26379574D01*
X2652525Y-26284276D01*
X2652521Y-26284273D01*
X2652520Y-26284272D01*
X2532426Y-26223081D01*
X2532424Y-26223080D01*
X2532421Y-26223079D01*
X2399302Y-26201996D01*
X2399298Y-26201996D01*
X2266178Y-26223079D01*
X2146078Y-26284273D01*
X2146074Y-26284276D01*
X2050776Y-26379574D01*
X2050773Y-26379578D01*
X1989579Y-26499678D01*
X1968496Y-26632797D01*
X1968496Y-26632802D01*
X1989579Y-26765921D01*
X1989580Y-26765924D01*
X1989581Y-26765926D01*
X2050772Y-26886020D01*
X2062480Y-26897728D01*
X2095966Y-26959049D01*
X2098800Y-26985410D01*
X2098800Y-29018261D01*
X2097612Y-29035388D01*
X2096527Y-29043165D01*
X2098668Y-29089479D01*
X2098800Y-29095204D01*
X2098800Y-29113242D01*
X2099247Y-29118071D01*
X2100481Y-29128705D01*
X2101715Y-29155392D01*
X2101716Y-29155397D01*
X2104514Y-29161734D01*
X2112964Y-29189020D01*
X2114237Y-29195829D01*
X2114237Y-29195830D01*
X2114239Y-29195833D01*
X2128301Y-29218546D01*
X2136297Y-29233715D01*
X2147094Y-29258165D01*
X2147095Y-29258166D01*
X2147096Y-29258168D01*
X2151989Y-29263061D01*
X2169735Y-29285465D01*
X2173377Y-29291348D01*
X2173379Y-29291350D01*
X2173380Y-29291351D01*
X2173381Y-29291352D01*
X2173596Y-29291514D01*
X2194696Y-29307448D01*
X2207650Y-29318721D01*
X2686008Y-29797079D01*
X2719493Y-29858402D01*
X2720800Y-29865362D01*
X2736679Y-29965621D01*
X2736680Y-29965624D01*
X2736681Y-29965626D01*
X2774609Y-30040063D01*
X2797873Y-30085721D01*
X2797876Y-30085725D01*
X2827317Y-30115166D01*
X2860802Y-30176489D01*
X2855818Y-30246181D01*
X2813946Y-30302114D01*
X2748482Y-30326531D01*
X2723451Y-30325786D01*
X2637730Y-30314501D01*
X2637725Y-30314500D01*
X2637720Y-30314500D01*
X2562280Y-30314500D01*
X2562272Y-30314500D01*
X2449764Y-30329313D01*
X2449763Y-30329313D01*
X2309770Y-30387300D01*
X2309767Y-30387301D01*
X2309767Y-30387302D01*
X2189549Y-30479549D01*
X2134713Y-30551013D01*
X2097300Y-30599770D01*
X2039313Y-30739763D01*
X2039312Y-30739765D01*
X2019534Y-30889999D01*
X2019534Y-30890000D01*
X2039312Y-31040234D01*
X2039313Y-31040236D01*
X2074298Y-31124698D01*
X2097302Y-31180233D01*
X2189549Y-31300451D01*
X2309767Y-31392698D01*
X2309769Y-31392698D01*
X2315536Y-31397124D01*
X2356738Y-31453552D01*
X2360893Y-31523299D01*
X2326680Y-31584219D01*
X2264963Y-31616971D01*
X2240049Y-31619500D01*
X1618571Y-31619500D01*
X1551532Y-31599815D01*
X1505777Y-31547011D01*
X1495833Y-31477853D01*
X1508084Y-31439208D01*
X1540646Y-31375304D01*
X1544248Y-31352564D01*
X1560492Y-31250003D01*
X1560492Y-31249996D01*
X1540647Y-31124699D01*
X1540647Y-31124698D01*
X1540646Y-31124696D01*
X1483050Y-31011658D01*
X1483046Y-31011654D01*
X1483045Y-31011652D01*
X1393347Y-30921954D01*
X1393344Y-30921952D01*
X1393342Y-30921950D01*
X1280304Y-30864354D01*
X1280303Y-30864353D01*
X1280300Y-30864352D01*
X1155003Y-30844508D01*
X1154997Y-30844508D01*
X1029699Y-30864352D01*
X1029698Y-30864352D01*
X960930Y-30899392D01*
X916658Y-30921950D01*
X916657Y-30921951D01*
X916652Y-30921954D01*
X826954Y-31011652D01*
X826951Y-31011657D01*
X826950Y-31011658D01*
X812390Y-31040234D01*
X769352Y-31124698D01*
X769352Y-31124699D01*
X749508Y-31249996D01*
X749508Y-31250003D01*
X500500Y-31250003D01*
X500500Y-24750003D01*
X749508Y-24750003D01*
X769352Y-24875300D01*
X769352Y-24875301D01*
X769354Y-24875304D01*
X826950Y-24988342D01*
X826952Y-24988344D01*
X826954Y-24988347D01*
X916652Y-25078045D01*
X916654Y-25078046D01*
X916658Y-25078050D01*
X1029696Y-25135646D01*
X1029697Y-25135646D01*
X1029699Y-25135647D01*
X1154997Y-25155492D01*
X1155000Y-25155492D01*
X1155003Y-25155492D01*
X1280300Y-25135647D01*
X1280301Y-25135647D01*
X1280302Y-25135646D01*
X1280304Y-25135646D01*
X1393342Y-25078050D01*
X1483050Y-24988342D01*
X1540646Y-24875304D01*
X1540646Y-24875302D01*
X1540647Y-24875301D01*
X1540647Y-24875300D01*
X1560492Y-24750003D01*
X1560492Y-24749996D01*
X1540647Y-24624699D01*
X1540646Y-24624697D01*
X1540646Y-24624696D01*
X1508085Y-24560792D01*
X1495190Y-24492126D01*
X1521466Y-24427386D01*
X1578572Y-24387128D01*
X1618571Y-24380500D01*
X2240049Y-24380500D01*
X2307088Y-24400185D01*
X2352843Y-24452989D01*
X2362787Y-24522147D01*
X2333762Y-24585703D01*
X2315536Y-24602876D01*
X2309768Y-24607301D01*
X2309767Y-24607302D01*
X2189549Y-24699549D01*
X2148647Y-24752854D01*
X2097300Y-24819770D01*
X2039313Y-24959763D01*
X2039312Y-24959765D01*
X2019534Y-25109999D01*
X2019534Y-25110000D01*
X2039312Y-25260234D01*
X2039313Y-25260236D01*
X2097302Y-25400233D01*
X2189549Y-25520451D01*
X2309767Y-25612698D01*
X2449764Y-25670687D01*
X2562280Y-25685500D01*
X2562287Y-25685500D01*
X2637713Y-25685500D01*
X2637720Y-25685500D01*
X2750236Y-25670687D01*
X2890233Y-25612698D01*
X3010451Y-25520451D01*
X3102698Y-25400233D01*
X3160687Y-25260236D01*
X3180466Y-25110000D01*
X3176259Y-25078048D01*
X3160687Y-24959765D01*
X3160687Y-24959764D01*
X3102698Y-24819767D01*
X3010451Y-24699549D01*
X2890233Y-24607302D01*
X2890229Y-24607300D01*
X2825427Y-24580458D01*
X2771024Y-24536617D01*
X2748959Y-24470323D01*
X2766238Y-24402623D01*
X2817376Y-24355013D01*
X2828896Y-24349960D01*
X2947930Y-24304818D01*
X3087929Y-24208183D01*
X3200734Y-24080852D01*
X3207552Y-24067863D01*
X3279789Y-23930226D01*
X3279790Y-23930225D01*
X3320500Y-23765056D01*
X3320500Y-23765055D01*
X5249500Y-23765055D01*
X5290210Y-23930226D01*
X5369263Y-24080849D01*
X5369266Y-24080852D01*
X5482071Y-24208183D01*
X5544399Y-24251205D01*
X5622068Y-24304817D01*
X5622069Y-24304817D01*
X5622070Y-24304818D01*
X5781128Y-24365140D01*
X5857028Y-24374356D01*
X5907626Y-24380500D01*
X5907628Y-24380500D01*
X6592374Y-24380500D01*
X6634538Y-24375380D01*
X6718872Y-24365140D01*
X6877930Y-24304818D01*
X7017929Y-24208183D01*
X7130734Y-24080852D01*
X7137552Y-24067863D01*
X7209789Y-23930226D01*
X7209790Y-23930225D01*
X7250500Y-23765056D01*
X7250500Y-23594944D01*
X7209790Y-23429775D01*
X7166322Y-23346954D01*
X7130736Y-23279150D01*
X7111560Y-23257505D01*
X7017929Y-23151817D01*
X6968177Y-23117475D01*
X6877931Y-23055182D01*
X6718874Y-22994860D01*
X6718868Y-22994859D01*
X6592374Y-22979500D01*
X6592372Y-22979500D01*
X5907628Y-22979500D01*
X5907626Y-22979500D01*
X5781131Y-22994859D01*
X5781125Y-22994860D01*
X5622068Y-23055182D01*
X5482072Y-23151816D01*
X5369263Y-23279150D01*
X5290210Y-23429773D01*
X5249500Y-23594944D01*
X5249500Y-23765055D01*
X3320500Y-23765055D01*
X3320500Y-23594944D01*
X3279790Y-23429775D01*
X3236322Y-23346954D01*
X3200736Y-23279150D01*
X3181560Y-23257505D01*
X3087929Y-23151817D01*
X3038177Y-23117475D01*
X2947931Y-23055182D01*
X2788874Y-22994860D01*
X2788868Y-22994859D01*
X2662374Y-22979500D01*
X2662372Y-22979500D01*
X1477628Y-22979500D01*
X1477626Y-22979500D01*
X1351131Y-22994859D01*
X1351125Y-22994860D01*
X1192068Y-23055182D01*
X1052072Y-23151816D01*
X939263Y-23279150D01*
X860210Y-23429773D01*
X819500Y-23594944D01*
X819500Y-23765055D01*
X860210Y-23930226D01*
X939263Y-24080849D01*
X1034166Y-24187972D01*
X1063887Y-24251205D01*
X1054703Y-24320469D01*
X1009531Y-24373772D01*
X997647Y-24380683D01*
X916657Y-24421950D01*
X916652Y-24421954D01*
X826954Y-24511652D01*
X826951Y-24511657D01*
X826950Y-24511658D01*
X814233Y-24536617D01*
X769352Y-24624698D01*
X769352Y-24624699D01*
X749508Y-24749996D01*
X749508Y-24750003D01*
X500500Y-24750003D01*
X500500Y-9980682D01*
X2530821Y-9980682D01*
X2534511Y-10007133D01*
X2535700Y-10024264D01*
X2535700Y-17072861D01*
X2534512Y-17089988D01*
X2533427Y-17097765D01*
X2535568Y-17144079D01*
X2535700Y-17149804D01*
X2535700Y-17167842D01*
X2536147Y-17172671D01*
X2537381Y-17183305D01*
X2538615Y-17209992D01*
X2538616Y-17209997D01*
X2541414Y-17216334D01*
X2549864Y-17243620D01*
X2551137Y-17250429D01*
X2551137Y-17250430D01*
X2551139Y-17250433D01*
X2565201Y-17273146D01*
X2573197Y-17288315D01*
X2583994Y-17312765D01*
X2583995Y-17312766D01*
X2583996Y-17312768D01*
X2588889Y-17317661D01*
X2606635Y-17340065D01*
X2610277Y-17345948D01*
X2610279Y-17345950D01*
X2610280Y-17345951D01*
X2610281Y-17345952D01*
X2631596Y-17362048D01*
X2644550Y-17373321D01*
X10140081Y-24868852D01*
X10173566Y-24930175D01*
X10176400Y-24956533D01*
X10176400Y-37327484D01*
X10173337Y-37349445D01*
X10172499Y-37358491D01*
X10175871Y-37394882D01*
X10176400Y-37406323D01*
X10176400Y-37959167D01*
X10156715Y-38026206D01*
X10140081Y-38046848D01*
X5132938Y-43053990D01*
X5071615Y-43087475D01*
X5001923Y-43082491D01*
X4945990Y-43040619D01*
X4921573Y-42975155D01*
X4926597Y-42930313D01*
X4969160Y-42790000D01*
X4214483Y-42790000D01*
X4285801Y-42705007D01*
X4325000Y-42597306D01*
X4325000Y-42482694D01*
X4285801Y-42374993D01*
X4214483Y-42290000D01*
X4969160Y-42290000D01*
X4969160Y-42289999D01*
X4928347Y-42155458D01*
X4835496Y-41981746D01*
X4835492Y-41981739D01*
X4710528Y-41829471D01*
X4641990Y-41773223D01*
X4602656Y-41715477D01*
X4600785Y-41645632D01*
X4618607Y-41606928D01*
X4624817Y-41597931D01*
X4624816Y-41597931D01*
X4624818Y-41597930D01*
X4685140Y-41438872D01*
X4705645Y-41270000D01*
X4685140Y-41101128D01*
X4624818Y-40942070D01*
X4624817Y-40942068D01*
X4624816Y-40942066D01*
X4574859Y-40869692D01*
X4562016Y-40851087D01*
X4540133Y-40784733D01*
X4557598Y-40717082D01*
X4595175Y-40677545D01*
X4613446Y-40665337D01*
X4644552Y-40644552D01*
X4688867Y-40578231D01*
X4688867Y-40578229D01*
X4688868Y-40578229D01*
X4700499Y-40519752D01*
X4700500Y-40519750D01*
X4700500Y-39905003D01*
X6119508Y-39905003D01*
X6139352Y-40030300D01*
X6139352Y-40030301D01*
X6139354Y-40030304D01*
X6196950Y-40143342D01*
X6196952Y-40143344D01*
X6196954Y-40143347D01*
X6286652Y-40233045D01*
X6286654Y-40233046D01*
X6286658Y-40233050D01*
X6399696Y-40290646D01*
X6399697Y-40290646D01*
X6399699Y-40290647D01*
X6524997Y-40310492D01*
X6525000Y-40310492D01*
X6525003Y-40310492D01*
X6650300Y-40290647D01*
X6650301Y-40290647D01*
X6650302Y-40290646D01*
X6650304Y-40290646D01*
X6763342Y-40233050D01*
X6853050Y-40143342D01*
X6910646Y-40030304D01*
X6910646Y-40030302D01*
X6910647Y-40030301D01*
X6910647Y-40030300D01*
X6930492Y-39905003D01*
X6930492Y-39904996D01*
X6910647Y-39779699D01*
X6910647Y-39779698D01*
X6895667Y-39750298D01*
X6853050Y-39666658D01*
X6853046Y-39666654D01*
X6853045Y-39666652D01*
X6763347Y-39576954D01*
X6763344Y-39576952D01*
X6763342Y-39576950D01*
X6650304Y-39519354D01*
X6650303Y-39519353D01*
X6650300Y-39519352D01*
X6525003Y-39499508D01*
X6524997Y-39499508D01*
X6399699Y-39519352D01*
X6399698Y-39519352D01*
X6324337Y-39557751D01*
X6286658Y-39576950D01*
X6286657Y-39576951D01*
X6286652Y-39576954D01*
X6196954Y-39666652D01*
X6196951Y-39666657D01*
X6139352Y-39779698D01*
X6139352Y-39779699D01*
X6119508Y-39904996D01*
X6119508Y-39905003D01*
X4700500Y-39905003D01*
X4700500Y-39480249D01*
X4700499Y-39480247D01*
X4688868Y-39421770D01*
X4688867Y-39421769D01*
X4644552Y-39355447D01*
X4578230Y-39311132D01*
X4578229Y-39311131D01*
X4519752Y-39299500D01*
X4519748Y-39299500D01*
X3480252Y-39299500D01*
X3480247Y-39299500D01*
X3421770Y-39311131D01*
X3421769Y-39311132D01*
X3355447Y-39355447D01*
X3311132Y-39421769D01*
X3311131Y-39421770D01*
X3299500Y-39480247D01*
X3299500Y-40519752D01*
X3311131Y-40578229D01*
X3311132Y-40578230D01*
X3355447Y-40644552D01*
X3404824Y-40677545D01*
X3449629Y-40731158D01*
X3458336Y-40800483D01*
X3437983Y-40851087D01*
X3375183Y-40942068D01*
X3375182Y-40942068D01*
X3314860Y-41101125D01*
X3314859Y-41101130D01*
X3294355Y-41270000D01*
X3314859Y-41438869D01*
X3314860Y-41438874D01*
X3375182Y-41597930D01*
X3381395Y-41606931D01*
X3403277Y-41673285D01*
X3385811Y-41740937D01*
X3358010Y-41773222D01*
X3289472Y-41829470D01*
X3164507Y-41981739D01*
X3164503Y-41981746D01*
X3071652Y-42155458D01*
X3030839Y-42289999D01*
X3030840Y-42290000D01*
X3785517Y-42290000D01*
X3714199Y-42374993D01*
X3675000Y-42482694D01*
X3675000Y-42597306D01*
X3714199Y-42705007D01*
X3785517Y-42790000D01*
X3030840Y-42790000D01*
X3071652Y-42924541D01*
X3164503Y-43098253D01*
X3164507Y-43098260D01*
X3289471Y-43250528D01*
X3358009Y-43306776D01*
X3397343Y-43364522D01*
X3399214Y-43434367D01*
X3381397Y-43473065D01*
X3375183Y-43482067D01*
X3375182Y-43482068D01*
X3314860Y-43641125D01*
X3314859Y-43641130D01*
X3294355Y-43810000D01*
X3314859Y-43978869D01*
X3314860Y-43978874D01*
X3375182Y-44137931D01*
X3441885Y-44234566D01*
X3463497Y-44265876D01*
X3471818Y-44277930D01*
X3555634Y-44352185D01*
X3592761Y-44411374D01*
X3591993Y-44481240D01*
X3555634Y-44537815D01*
X3471818Y-44612069D01*
X3375182Y-44752068D01*
X3314860Y-44911125D01*
X3314859Y-44911130D01*
X3294355Y-45080000D01*
X3314859Y-45248869D01*
X3314860Y-45248874D01*
X3375182Y-45407931D01*
X3434243Y-45493494D01*
X3469449Y-45544499D01*
X3471818Y-45547930D01*
X3555634Y-45622185D01*
X3592761Y-45681374D01*
X3591993Y-45751240D01*
X3555634Y-45807815D01*
X3471818Y-45882069D01*
X3375182Y-46022068D01*
X3314860Y-46181125D01*
X3314859Y-46181130D01*
X3294355Y-46350000D01*
X3314859Y-46518869D01*
X3314860Y-46518874D01*
X3375182Y-46677931D01*
X3432975Y-46761657D01*
X3471817Y-46817929D01*
X3576454Y-46910629D01*
X3599150Y-46930736D01*
X3749773Y-47009789D01*
X3749775Y-47009790D01*
X3914944Y-47050500D01*
X4085056Y-47050500D01*
X4250225Y-47009790D01*
X4338508Y-46963455D01*
X4400849Y-46930736D01*
X4400850Y-46930734D01*
X4400852Y-46930734D01*
X4528183Y-46817929D01*
X4624818Y-46677930D01*
X4685140Y-46518872D01*
X4705645Y-46350000D01*
X4685140Y-46181128D01*
X4624818Y-46022070D01*
X4528183Y-45882071D01*
X4444363Y-45807813D01*
X4407238Y-45748626D01*
X4408006Y-45678761D01*
X4444363Y-45622186D01*
X4528183Y-45547929D01*
X4572370Y-45483912D01*
X4626653Y-45439923D01*
X4696101Y-45432263D01*
X4758666Y-45463366D01*
X4762101Y-45466672D01*
X10647639Y-51352210D01*
X10658910Y-51365162D01*
X10663639Y-51371425D01*
X10663641Y-51371427D01*
X10663642Y-51371428D01*
X10678461Y-51384937D01*
X10697917Y-51402674D01*
X10702058Y-51406629D01*
X10714803Y-51419374D01*
X10718531Y-51422470D01*
X10726924Y-51429118D01*
X10735724Y-51437140D01*
X10746664Y-51447114D01*
X10746665Y-51447114D01*
X10746667Y-51447116D01*
X10753130Y-51449619D01*
X10778407Y-51462943D01*
X10784119Y-51466856D01*
X10810114Y-51472969D01*
X10826510Y-51478046D01*
X10851427Y-51487700D01*
X10858351Y-51487700D01*
X10886741Y-51490993D01*
X10893481Y-51492579D01*
X10916255Y-51489401D01*
X10919934Y-51488889D01*
X10937064Y-51487700D01*
X16434475Y-51487700D01*
X16501514Y-51507385D01*
X16527275Y-51531715D01*
X16527549Y-51531442D01*
X16624152Y-51628045D01*
X16624154Y-51628046D01*
X16624158Y-51628050D01*
X16737196Y-51685646D01*
X16737197Y-51685646D01*
X16737199Y-51685647D01*
X16862497Y-51705492D01*
X16862500Y-51705492D01*
X16862503Y-51705492D01*
X16987800Y-51685647D01*
X16987801Y-51685647D01*
X16987802Y-51685646D01*
X16987804Y-51685646D01*
X17100842Y-51628050D01*
X17100847Y-51628045D01*
X17197451Y-51531442D01*
X17198460Y-51532451D01*
X17245536Y-51496149D01*
X17290525Y-51487700D01*
X28771962Y-51487700D01*
X28789090Y-51488889D01*
X28796861Y-51489972D01*
X28796861Y-51489971D01*
X28796865Y-51489973D01*
X28843180Y-51487832D01*
X28848905Y-51487700D01*
X28866943Y-51487700D01*
X28866944Y-51487700D01*
X28866944Y-51487699D01*
X28871831Y-51487246D01*
X28882418Y-51486017D01*
X28909092Y-51484785D01*
X28915422Y-51481989D01*
X28942729Y-51473532D01*
X28949533Y-51472261D01*
X28949535Y-51472259D01*
X28949537Y-51472259D01*
X28972238Y-51458203D01*
X28987425Y-51450196D01*
X29011865Y-51439406D01*
X29016761Y-51434509D01*
X29039169Y-51416761D01*
X29045052Y-51413119D01*
X29061153Y-51391795D01*
X29072414Y-51378855D01*
X30783811Y-49667458D01*
X30796763Y-49656188D01*
X30803023Y-49651460D01*
X30803028Y-49651458D01*
X30834288Y-49617166D01*
X30838202Y-49613067D01*
X30850974Y-49600297D01*
X30850975Y-49600296D01*
X30854082Y-49596554D01*
X30860716Y-49588176D01*
X30878716Y-49568433D01*
X30881217Y-49561976D01*
X30894550Y-49536684D01*
X30894566Y-49536659D01*
X30898457Y-49530981D01*
X30904572Y-49504978D01*
X30909654Y-49488571D01*
X30919300Y-49463673D01*
X30919300Y-49456748D01*
X30922594Y-49428356D01*
X30924179Y-49421619D01*
X30920489Y-49395165D01*
X30919300Y-49378035D01*
X30919300Y-48166210D01*
X30938985Y-48099171D01*
X30955616Y-48078531D01*
X30967328Y-48066820D01*
X31028519Y-47946726D01*
X31047575Y-47826410D01*
X31049604Y-47813602D01*
X31049604Y-47813597D01*
X31028520Y-47680478D01*
X31028519Y-47680476D01*
X31028519Y-47680474D01*
X30967328Y-47560380D01*
X30967326Y-47560378D01*
X30967323Y-47560374D01*
X30872025Y-47465076D01*
X30872022Y-47465074D01*
X30872020Y-47465072D01*
X30790680Y-47423627D01*
X30739885Y-47375653D01*
X30723090Y-47307832D01*
X30743780Y-47247119D01*
X30743619Y-47247037D01*
X30744190Y-47245915D01*
X30745628Y-47241697D01*
X30746657Y-47240258D01*
X30748041Y-47238350D01*
X30748050Y-47238342D01*
X30789516Y-47156958D01*
X30837490Y-47106165D01*
X30905311Y-47089370D01*
X30971445Y-47111907D01*
X31010482Y-47156958D01*
X31051949Y-47238340D01*
X31051951Y-47238343D01*
X31051954Y-47238347D01*
X31141652Y-47328045D01*
X31141654Y-47328046D01*
X31141658Y-47328050D01*
X31254696Y-47385646D01*
X31254697Y-47385646D01*
X31254699Y-47385647D01*
X31379997Y-47405492D01*
X31380000Y-47405492D01*
X31380003Y-47405492D01*
X31505300Y-47385647D01*
X31505301Y-47385647D01*
X31505302Y-47385646D01*
X31505304Y-47385646D01*
X31618342Y-47328050D01*
X31708050Y-47238342D01*
X31765646Y-47125304D01*
X31765646Y-47125302D01*
X31765647Y-47125301D01*
X31765647Y-47125300D01*
X31785492Y-47000003D01*
X31785492Y-46999996D01*
X31765647Y-46874699D01*
X31765647Y-46874698D01*
X31765646Y-46874696D01*
X31708050Y-46761658D01*
X31708046Y-46761654D01*
X31708045Y-46761652D01*
X31618347Y-46671954D01*
X31618344Y-46671952D01*
X31618342Y-46671950D01*
X31505304Y-46614354D01*
X31505303Y-46614353D01*
X31505300Y-46614352D01*
X31380003Y-46594508D01*
X31379997Y-46594508D01*
X31254699Y-46614352D01*
X31254698Y-46614352D01*
X31179337Y-46652751D01*
X31141658Y-46671950D01*
X31141657Y-46671951D01*
X31141652Y-46671954D01*
X31051954Y-46761652D01*
X31051951Y-46761657D01*
X31051950Y-46761658D01*
X31010485Y-46843038D01*
X30962510Y-46893834D01*
X30894689Y-46910629D01*
X30828554Y-46888091D01*
X30789515Y-46843038D01*
X30748050Y-46761658D01*
X30748046Y-46761654D01*
X30748045Y-46761652D01*
X30680062Y-46693669D01*
X30646577Y-46632346D01*
X30651561Y-46562654D01*
X30680060Y-46518309D01*
X32561811Y-44636558D01*
X32574763Y-44625288D01*
X32581023Y-44620560D01*
X32581028Y-44620558D01*
X32612288Y-44586266D01*
X32616202Y-44582167D01*
X32628974Y-44569397D01*
X32628975Y-44569396D01*
X32632082Y-44565654D01*
X32638716Y-44557276D01*
X32656716Y-44537533D01*
X32659216Y-44531078D01*
X32672549Y-44505782D01*
X32676456Y-44500081D01*
X32682570Y-44474081D01*
X32687646Y-44457689D01*
X32697300Y-44432773D01*
X32697300Y-44425848D01*
X32700595Y-44397455D01*
X32702178Y-44390723D01*
X32702179Y-44390719D01*
X32698489Y-44364265D01*
X32697300Y-44347135D01*
X32697300Y-40345610D01*
X32716985Y-40278571D01*
X32733616Y-40257931D01*
X32745328Y-40246220D01*
X32806519Y-40126126D01*
X32806520Y-40126121D01*
X32827604Y-39993002D01*
X32827604Y-39992997D01*
X32806520Y-39859878D01*
X32806519Y-39859876D01*
X32806519Y-39859874D01*
X32745328Y-39739780D01*
X32745326Y-39739778D01*
X32745323Y-39739774D01*
X32650025Y-39644476D01*
X32650021Y-39644473D01*
X32650020Y-39644472D01*
X32529926Y-39583281D01*
X32529924Y-39583280D01*
X32529921Y-39583279D01*
X32396802Y-39562196D01*
X32396798Y-39562196D01*
X32263678Y-39583279D01*
X32143578Y-39644473D01*
X32143574Y-39644476D01*
X32048276Y-39739774D01*
X32048273Y-39739778D01*
X31987079Y-39859878D01*
X31965996Y-39992997D01*
X31965996Y-39993002D01*
X31987079Y-40126121D01*
X31987080Y-40126124D01*
X31987081Y-40126126D01*
X32048272Y-40246220D01*
X32059980Y-40257928D01*
X32093466Y-40319249D01*
X32096300Y-40345610D01*
X32096300Y-40741250D01*
X32076615Y-40808289D01*
X32023811Y-40854044D01*
X31954653Y-40863988D01*
X31891097Y-40834963D01*
X31871980Y-40814132D01*
X31868561Y-40809426D01*
X31778859Y-40719724D01*
X31778856Y-40719722D01*
X31778854Y-40719720D01*
X31665816Y-40662124D01*
X31665815Y-40662123D01*
X31665812Y-40662122D01*
X31540515Y-40642278D01*
X31540509Y-40642278D01*
X31415211Y-40662122D01*
X31415210Y-40662122D01*
X31362722Y-40688867D01*
X31302170Y-40719720D01*
X31302169Y-40719721D01*
X31302164Y-40719724D01*
X31212466Y-40809422D01*
X31212464Y-40809426D01*
X31212462Y-40809428D01*
X31199451Y-40834963D01*
X31154864Y-40922468D01*
X31154864Y-40922469D01*
X31135020Y-41047766D01*
X31135020Y-41047773D01*
X31154864Y-41173070D01*
X31154864Y-41173071D01*
X31156503Y-41176287D01*
X31212462Y-41286112D01*
X31212464Y-41286114D01*
X31212466Y-41286117D01*
X31302164Y-41375815D01*
X31302166Y-41375816D01*
X31302170Y-41375820D01*
X31415208Y-41433416D01*
X31415209Y-41433416D01*
X31415211Y-41433417D01*
X31540509Y-41453262D01*
X31540512Y-41453262D01*
X31540515Y-41453262D01*
X31665812Y-41433417D01*
X31665813Y-41433417D01*
X31665814Y-41433416D01*
X31665816Y-41433416D01*
X31778854Y-41375820D01*
X31868562Y-41286112D01*
X31868563Y-41286108D01*
X31871977Y-41281411D01*
X31927304Y-41238741D01*
X31996917Y-41232757D01*
X32058714Y-41265359D01*
X32093076Y-41326195D01*
X32096300Y-41354289D01*
X32096300Y-44200766D01*
X32076615Y-44267805D01*
X32059981Y-44288447D01*
X29260053Y-47088375D01*
X29198730Y-47121860D01*
X29129038Y-47116876D01*
X29073105Y-47075004D01*
X29048969Y-47012848D01*
X29045212Y-46974699D01*
X29035300Y-46874066D01*
X28975232Y-46676046D01*
X28877685Y-46493550D01*
X28788943Y-46385417D01*
X28746410Y-46333589D01*
X28586452Y-46202317D01*
X28586453Y-46202317D01*
X28586450Y-46202315D01*
X28403954Y-46104768D01*
X28205934Y-46044700D01*
X28205932Y-46044699D01*
X28205934Y-46044699D01*
X28000000Y-46024417D01*
X27794067Y-46044699D01*
X27596043Y-46104769D01*
X27485898Y-46163643D01*
X27413550Y-46202315D01*
X27413548Y-46202316D01*
X27413547Y-46202317D01*
X27253589Y-46333590D01*
X27121348Y-46494727D01*
X27063603Y-46534061D01*
X26993758Y-46535932D01*
X26937814Y-46503743D01*
X26192762Y-45758691D01*
X26181487Y-45745735D01*
X26176755Y-45739468D01*
X26142483Y-45708225D01*
X26138360Y-45704289D01*
X26125597Y-45691526D01*
X26125596Y-45691525D01*
X26125594Y-45691523D01*
X26121877Y-45688437D01*
X26113479Y-45681784D01*
X26093733Y-45663784D01*
X26087270Y-45661280D01*
X26061992Y-45647956D01*
X26056281Y-45644044D01*
X26056280Y-45644043D01*
X26056278Y-45644042D01*
X26051826Y-45642077D01*
X25998449Y-45596991D01*
X25977921Y-45530205D01*
X25996759Y-45462923D01*
X26041452Y-45421159D01*
X26041390Y-45421066D01*
X26041958Y-45420686D01*
X26043460Y-45419283D01*
X26046450Y-45417685D01*
X26206410Y-45286410D01*
X26337685Y-45126450D01*
X26435232Y-44943954D01*
X26495300Y-44745934D01*
X26515583Y-44540000D01*
X26944417Y-44540000D01*
X26964699Y-44745932D01*
X26966561Y-44752070D01*
X27024768Y-44943954D01*
X27122315Y-45126450D01*
X27122317Y-45126452D01*
X27253589Y-45286410D01*
X27294227Y-45319760D01*
X27413550Y-45417685D01*
X27596046Y-45515232D01*
X27794066Y-45575300D01*
X27794065Y-45575300D01*
X27812529Y-45577118D01*
X28000000Y-45595583D01*
X28205934Y-45575300D01*
X28403954Y-45515232D01*
X28586450Y-45417685D01*
X28746410Y-45286410D01*
X28877685Y-45126450D01*
X28975232Y-44943954D01*
X29035300Y-44745934D01*
X29046660Y-44630589D01*
X29072821Y-44565804D01*
X29129855Y-44525445D01*
X29199655Y-44522328D01*
X29257744Y-44555064D01*
X29268712Y-44566032D01*
X29268714Y-44566033D01*
X29268718Y-44566037D01*
X29381756Y-44623633D01*
X29381757Y-44623633D01*
X29381759Y-44623634D01*
X29507057Y-44643479D01*
X29507060Y-44643479D01*
X29507063Y-44643479D01*
X29632360Y-44623634D01*
X29632361Y-44623634D01*
X29632362Y-44623633D01*
X29632364Y-44623633D01*
X29745402Y-44566037D01*
X29835110Y-44476329D01*
X29892706Y-44363291D01*
X29892706Y-44363289D01*
X29892707Y-44363288D01*
X29892707Y-44363287D01*
X29912552Y-44237990D01*
X29912552Y-44237983D01*
X29892707Y-44112686D01*
X29892707Y-44112685D01*
X29892706Y-44112683D01*
X29835110Y-43999645D01*
X29835106Y-43999641D01*
X29835105Y-43999639D01*
X29745407Y-43909941D01*
X29745404Y-43909939D01*
X29745402Y-43909937D01*
X29632364Y-43852341D01*
X29632363Y-43852340D01*
X29632360Y-43852339D01*
X29507063Y-43832495D01*
X29507057Y-43832495D01*
X29381759Y-43852339D01*
X29381758Y-43852339D01*
X29306397Y-43890738D01*
X29268718Y-43909937D01*
X29268717Y-43909938D01*
X29268712Y-43909941D01*
X29179014Y-43999639D01*
X29179010Y-43999644D01*
X29151830Y-44052987D01*
X29103854Y-44103782D01*
X29036033Y-44120576D01*
X28969898Y-44098037D01*
X28931989Y-44055145D01*
X28877685Y-43953550D01*
X28817513Y-43880230D01*
X28746410Y-43793589D01*
X28586452Y-43662317D01*
X28586453Y-43662317D01*
X28586450Y-43662315D01*
X28403954Y-43564768D01*
X28205934Y-43504700D01*
X28205932Y-43504699D01*
X28205934Y-43504699D01*
X28000000Y-43484417D01*
X27794067Y-43504699D01*
X27596043Y-43564769D01*
X27485898Y-43623643D01*
X27413550Y-43662315D01*
X27413548Y-43662316D01*
X27413547Y-43662317D01*
X27253589Y-43793589D01*
X27122317Y-43953547D01*
X27122315Y-43953550D01*
X27096606Y-44001648D01*
X27024769Y-44136043D01*
X26964699Y-44334067D01*
X26944417Y-44540000D01*
X26515583Y-44540000D01*
X26495300Y-44334066D01*
X26435232Y-44136046D01*
X26337685Y-43953550D01*
X26277513Y-43880230D01*
X26206410Y-43793589D01*
X26046452Y-43662317D01*
X26046453Y-43662317D01*
X26046450Y-43662315D01*
X25863954Y-43564768D01*
X25665934Y-43504700D01*
X25665932Y-43504699D01*
X25665934Y-43504699D01*
X25460000Y-43484417D01*
X25254067Y-43504699D01*
X25183720Y-43526039D01*
X25159994Y-43533236D01*
X25090128Y-43533859D01*
X25031015Y-43496611D01*
X25001424Y-43433316D01*
X25000000Y-43414575D01*
X25000000Y-43125424D01*
X25019685Y-43058385D01*
X25072489Y-43012630D01*
X25141647Y-43002686D01*
X25159989Y-43006762D01*
X25254063Y-43035299D01*
X25254065Y-43035300D01*
X25274348Y-43037297D01*
X25460000Y-43055583D01*
X25540425Y-43047661D01*
X25609070Y-43060679D01*
X25652898Y-43098180D01*
X25656027Y-43102487D01*
X25745728Y-43192188D01*
X25745730Y-43192189D01*
X25745734Y-43192193D01*
X25858772Y-43249789D01*
X25858773Y-43249789D01*
X25858775Y-43249790D01*
X25984073Y-43269635D01*
X25984076Y-43269635D01*
X25984079Y-43269635D01*
X26109376Y-43249790D01*
X26109377Y-43249790D01*
X26109378Y-43249789D01*
X26109380Y-43249789D01*
X26222418Y-43192193D01*
X26312126Y-43102485D01*
X26369722Y-42989447D01*
X26369722Y-42989445D01*
X26369723Y-42989444D01*
X26369723Y-42989443D01*
X26389568Y-42864146D01*
X26389568Y-42864139D01*
X26369723Y-42738842D01*
X26369722Y-42738839D01*
X26355549Y-42711023D01*
X26343717Y-42687803D01*
X26330821Y-42619134D01*
X26344842Y-42573059D01*
X26435232Y-42403954D01*
X26495300Y-42205934D01*
X26515583Y-42000000D01*
X26495300Y-41794066D01*
X26452190Y-41651952D01*
X26451568Y-41582088D01*
X26488816Y-41522975D01*
X26552110Y-41493385D01*
X26590250Y-41493487D01*
X26591504Y-41493685D01*
X26591505Y-41493686D01*
X26627519Y-41499390D01*
X26716807Y-41513532D01*
X26716809Y-41513532D01*
X26716811Y-41513532D01*
X26806102Y-41499390D01*
X26875396Y-41508345D01*
X26928848Y-41553341D01*
X26949487Y-41620093D01*
X26949500Y-41621863D01*
X26949500Y-42869752D01*
X26961131Y-42928229D01*
X26961132Y-42928230D01*
X27005447Y-42994552D01*
X27071769Y-43038867D01*
X27071770Y-43038868D01*
X27130247Y-43050499D01*
X27130250Y-43050500D01*
X27130252Y-43050500D01*
X28869750Y-43050500D01*
X28869751Y-43050499D01*
X28884568Y-43047552D01*
X28928229Y-43038868D01*
X28928229Y-43038867D01*
X28928231Y-43038867D01*
X28994552Y-42994552D01*
X29038867Y-42928231D01*
X29038867Y-42928229D01*
X29038868Y-42928229D01*
X29050499Y-42869752D01*
X29050500Y-42869750D01*
X29050500Y-42351652D01*
X29765671Y-42351652D01*
X29785515Y-42476949D01*
X29785515Y-42476950D01*
X29803968Y-42513166D01*
X29843113Y-42589991D01*
X29843115Y-42589993D01*
X29843117Y-42589996D01*
X29932815Y-42679694D01*
X29932817Y-42679695D01*
X29932821Y-42679699D01*
X30045859Y-42737295D01*
X30045860Y-42737295D01*
X30045862Y-42737296D01*
X30171160Y-42757141D01*
X30171163Y-42757141D01*
X30171166Y-42757141D01*
X30296463Y-42737296D01*
X30296464Y-42737296D01*
X30296465Y-42737295D01*
X30296467Y-42737295D01*
X30409505Y-42679699D01*
X30499213Y-42589991D01*
X30556809Y-42476953D01*
X30556809Y-42476951D01*
X30556810Y-42476950D01*
X30556810Y-42476949D01*
X30576655Y-42351652D01*
X30576655Y-42351645D01*
X30556810Y-42226348D01*
X30556810Y-42226347D01*
X30546408Y-42205932D01*
X30499213Y-42113307D01*
X30499209Y-42113303D01*
X30499208Y-42113301D01*
X30409510Y-42023603D01*
X30409507Y-42023601D01*
X30409505Y-42023599D01*
X30296467Y-41966003D01*
X30296466Y-41966002D01*
X30296463Y-41966001D01*
X30171166Y-41946157D01*
X30171160Y-41946157D01*
X30045862Y-41966001D01*
X30045861Y-41966001D01*
X29979136Y-42000000D01*
X29932821Y-42023599D01*
X29932820Y-42023600D01*
X29932815Y-42023603D01*
X29843117Y-42113301D01*
X29843114Y-42113306D01*
X29843113Y-42113307D01*
X29837597Y-42124133D01*
X29785515Y-42226347D01*
X29785515Y-42226348D01*
X29765671Y-42351645D01*
X29765671Y-42351652D01*
X29050500Y-42351652D01*
X29050500Y-41130249D01*
X29050499Y-41130247D01*
X29038868Y-41071770D01*
X29038867Y-41071769D01*
X28994552Y-41005447D01*
X28928230Y-40961132D01*
X28928229Y-40961131D01*
X28869752Y-40949500D01*
X28869748Y-40949500D01*
X27161507Y-40949500D01*
X27094468Y-40929815D01*
X27051023Y-40881796D01*
X27044859Y-40869698D01*
X27044857Y-40869696D01*
X27044854Y-40869692D01*
X26955156Y-40779994D01*
X26955153Y-40779992D01*
X26955151Y-40779990D01*
X26842113Y-40722394D01*
X26842112Y-40722393D01*
X26842109Y-40722392D01*
X26716812Y-40702548D01*
X26716806Y-40702548D01*
X26591508Y-40722392D01*
X26591507Y-40722392D01*
X26516146Y-40760791D01*
X26478467Y-40779990D01*
X26478466Y-40779991D01*
X26478461Y-40779994D01*
X26388763Y-40869692D01*
X26388761Y-40869696D01*
X26388759Y-40869698D01*
X26369560Y-40907377D01*
X26331161Y-40982738D01*
X26312701Y-41099296D01*
X26282772Y-41162431D01*
X26223460Y-41199362D01*
X26153598Y-41198364D01*
X26111564Y-41175752D01*
X26056121Y-41130252D01*
X26046450Y-41122315D01*
X25924786Y-41057283D01*
X25863953Y-41024767D01*
X25849938Y-41020516D01*
X25791500Y-40982219D01*
X25769432Y-40934231D01*
X25767179Y-40934964D01*
X25764163Y-40925682D01*
X25764162Y-40925680D01*
X25764162Y-40925679D01*
X25706566Y-40812641D01*
X25706562Y-40812637D01*
X25706561Y-40812635D01*
X25616863Y-40722937D01*
X25616860Y-40722935D01*
X25616858Y-40722933D01*
X25503820Y-40665337D01*
X25503819Y-40665336D01*
X25503816Y-40665335D01*
X25378519Y-40645491D01*
X25378513Y-40645491D01*
X25253215Y-40665335D01*
X25253211Y-40665336D01*
X25180294Y-40702490D01*
X25111625Y-40715386D01*
X25046885Y-40689109D01*
X25006628Y-40632003D01*
X25000000Y-40592005D01*
X25000000Y-40223848D01*
X25019685Y-40156809D01*
X25072489Y-40111054D01*
X25141647Y-40101110D01*
X25180292Y-40113362D01*
X25224618Y-40135948D01*
X25224621Y-40135949D01*
X25349919Y-40155794D01*
X25349922Y-40155794D01*
X25349925Y-40155794D01*
X25475222Y-40135949D01*
X25475223Y-40135949D01*
X25475224Y-40135948D01*
X25475226Y-40135948D01*
X25588264Y-40078352D01*
X25677972Y-39988644D01*
X25735568Y-39875606D01*
X25735568Y-39875604D01*
X25735569Y-39875603D01*
X25735569Y-39875602D01*
X25755414Y-39750305D01*
X25755414Y-39750298D01*
X25735569Y-39625001D01*
X25735569Y-39625000D01*
X25735568Y-39624998D01*
X25677972Y-39511960D01*
X25677968Y-39511956D01*
X25677967Y-39511954D01*
X25588269Y-39422256D01*
X25588266Y-39422254D01*
X25588264Y-39422252D01*
X25475226Y-39364656D01*
X25475225Y-39364655D01*
X25475222Y-39364654D01*
X25349925Y-39344810D01*
X25349919Y-39344810D01*
X25224621Y-39364654D01*
X25224620Y-39364654D01*
X25180295Y-39387240D01*
X25111626Y-39400136D01*
X25046885Y-39373860D01*
X25006628Y-39316753D01*
X25000000Y-39276755D01*
X25000000Y-39149100D01*
X25019685Y-39082061D01*
X25072489Y-39036306D01*
X25124000Y-39025100D01*
X27381889Y-39025100D01*
X27448928Y-39044785D01*
X27469570Y-39061419D01*
X27481274Y-39073123D01*
X27481278Y-39073126D01*
X27481280Y-39073128D01*
X27601374Y-39134319D01*
X27601376Y-39134319D01*
X27601378Y-39134320D01*
X27734498Y-39155404D01*
X27734500Y-39155404D01*
X27734502Y-39155404D01*
X27867621Y-39134320D01*
X27867621Y-39134319D01*
X27867626Y-39134319D01*
X27987720Y-39073128D01*
X28083028Y-38977820D01*
X28144219Y-38857726D01*
X28144220Y-38857721D01*
X28165304Y-38724602D01*
X28165304Y-38724597D01*
X28144220Y-38591478D01*
X28144219Y-38591476D01*
X28144219Y-38591474D01*
X28083028Y-38471380D01*
X28083026Y-38471378D01*
X28083023Y-38471374D01*
X27987725Y-38376076D01*
X27987721Y-38376073D01*
X27987720Y-38376072D01*
X27867626Y-38314881D01*
X27867624Y-38314880D01*
X27867621Y-38314879D01*
X27734502Y-38293796D01*
X27734498Y-38293796D01*
X27601378Y-38314879D01*
X27601374Y-38314880D01*
X27601374Y-38314881D01*
X27547018Y-38342577D01*
X27481278Y-38376073D01*
X27481274Y-38376076D01*
X27469570Y-38387781D01*
X27408247Y-38421266D01*
X27381889Y-38424100D01*
X25124000Y-38424100D01*
X25056961Y-38404415D01*
X25011206Y-38351611D01*
X25000000Y-38300100D01*
X25000000Y-34723243D01*
X25019685Y-34656204D01*
X25072489Y-34610449D01*
X25141647Y-34600505D01*
X25180292Y-34612757D01*
X25224618Y-34635343D01*
X25224621Y-34635344D01*
X25349919Y-34655189D01*
X25349922Y-34655189D01*
X25349925Y-34655189D01*
X25475222Y-34635344D01*
X25475223Y-34635344D01*
X25475224Y-34635343D01*
X25475226Y-34635343D01*
X25588264Y-34577747D01*
X25588778Y-34577232D01*
X25589555Y-34576808D01*
X25596163Y-34572008D01*
X25596782Y-34572860D01*
X25650095Y-34543740D01*
X25719787Y-34548715D01*
X25764150Y-34577222D01*
X27034642Y-35847714D01*
X27045913Y-35860666D01*
X27050639Y-35866925D01*
X27050641Y-35866927D01*
X27050642Y-35866928D01*
X27084906Y-35898164D01*
X27089047Y-35902119D01*
X27101801Y-35914873D01*
X27105542Y-35917979D01*
X27113934Y-35924627D01*
X27133662Y-35942612D01*
X27133663Y-35942613D01*
X27133667Y-35942616D01*
X27133670Y-35942617D01*
X27140121Y-35945116D01*
X27165406Y-35958443D01*
X27171120Y-35962357D01*
X27197117Y-35968471D01*
X27213518Y-35973551D01*
X27238424Y-35983200D01*
X27238427Y-35983200D01*
X27245352Y-35983200D01*
X27273740Y-35986493D01*
X27280481Y-35988079D01*
X27306933Y-35984389D01*
X27324064Y-35983200D01*
X29405989Y-35983200D01*
X29473028Y-36002885D01*
X29493670Y-36019519D01*
X29505374Y-36031223D01*
X29505378Y-36031226D01*
X29505380Y-36031228D01*
X29625474Y-36092419D01*
X29625476Y-36092419D01*
X29625478Y-36092420D01*
X29758598Y-36113504D01*
X29758600Y-36113504D01*
X29758602Y-36113504D01*
X29891721Y-36092420D01*
X29891721Y-36092419D01*
X29891726Y-36092419D01*
X30011820Y-36031228D01*
X30107128Y-35935920D01*
X30168319Y-35815826D01*
X30177301Y-35759117D01*
X30189404Y-35682702D01*
X30189404Y-35682697D01*
X30168320Y-35549578D01*
X30168319Y-35549576D01*
X30168319Y-35549574D01*
X30107128Y-35429480D01*
X30107126Y-35429478D01*
X30107123Y-35429474D01*
X30011825Y-35334176D01*
X30011821Y-35334173D01*
X30011820Y-35334172D01*
X29891726Y-35272981D01*
X29891724Y-35272980D01*
X29891721Y-35272979D01*
X29758602Y-35251896D01*
X29758598Y-35251896D01*
X29625478Y-35272979D01*
X29505378Y-35334173D01*
X29505374Y-35334176D01*
X29493670Y-35345881D01*
X29432347Y-35379366D01*
X29405989Y-35382200D01*
X27470433Y-35382200D01*
X27403394Y-35362515D01*
X27382752Y-35345881D01*
X25886874Y-33850003D01*
X30694508Y-33850003D01*
X30714352Y-33975300D01*
X30714352Y-33975301D01*
X30714354Y-33975304D01*
X30771950Y-34088342D01*
X30771952Y-34088344D01*
X30771954Y-34088347D01*
X30861652Y-34178045D01*
X30861654Y-34178046D01*
X30861658Y-34178050D01*
X30974696Y-34235646D01*
X30974697Y-34235646D01*
X30974699Y-34235647D01*
X31099997Y-34255492D01*
X31100000Y-34255492D01*
X31100003Y-34255492D01*
X31225300Y-34235647D01*
X31225301Y-34235647D01*
X31225302Y-34235646D01*
X31225304Y-34235646D01*
X31338342Y-34178050D01*
X31428050Y-34088342D01*
X31485646Y-33975304D01*
X31485646Y-33975302D01*
X31485647Y-33975301D01*
X31485647Y-33975300D01*
X31505492Y-33850003D01*
X31505492Y-33849996D01*
X31485647Y-33724699D01*
X31485647Y-33724698D01*
X31485646Y-33724696D01*
X31428050Y-33611658D01*
X31428046Y-33611654D01*
X31428045Y-33611652D01*
X31338347Y-33521954D01*
X31338344Y-33521952D01*
X31338342Y-33521950D01*
X31225304Y-33464354D01*
X31225303Y-33464353D01*
X31225300Y-33464352D01*
X31100003Y-33444508D01*
X31099997Y-33444508D01*
X30974699Y-33464352D01*
X30974698Y-33464352D01*
X30904745Y-33499996D01*
X30861658Y-33521950D01*
X30861657Y-33521951D01*
X30861652Y-33521954D01*
X30771954Y-33611652D01*
X30771951Y-33611657D01*
X30714352Y-33724698D01*
X30714352Y-33724699D01*
X30694508Y-33849996D01*
X30694508Y-33850003D01*
X25886874Y-33850003D01*
X25536867Y-33499996D01*
X25503382Y-33438673D01*
X25508366Y-33368981D01*
X25550238Y-33313048D01*
X25568244Y-33301835D01*
X25616858Y-33277066D01*
X25706566Y-33187358D01*
X25764162Y-33074320D01*
X25764162Y-33074318D01*
X25764163Y-33074317D01*
X25764163Y-33074316D01*
X25784008Y-32949019D01*
X25784008Y-32949012D01*
X25764163Y-32823715D01*
X25764163Y-32823714D01*
X25764162Y-32823712D01*
X25706566Y-32710674D01*
X25706562Y-32710670D01*
X25706561Y-32710668D01*
X25616863Y-32620970D01*
X25616860Y-32620968D01*
X25616858Y-32620966D01*
X25503820Y-32563370D01*
X25503819Y-32563369D01*
X25503816Y-32563368D01*
X25378519Y-32543524D01*
X25378513Y-32543524D01*
X25253215Y-32563368D01*
X25253211Y-32563369D01*
X25180294Y-32600523D01*
X25111625Y-32613419D01*
X25046885Y-32587142D01*
X25006628Y-32530036D01*
X25000000Y-32490038D01*
X25000000Y-32150003D01*
X28494508Y-32150003D01*
X28514352Y-32275300D01*
X28514352Y-32275301D01*
X28514354Y-32275304D01*
X28571950Y-32388342D01*
X28571952Y-32388344D01*
X28571954Y-32388347D01*
X28661652Y-32478045D01*
X28661654Y-32478046D01*
X28661658Y-32478050D01*
X28774696Y-32535646D01*
X28774697Y-32535646D01*
X28774699Y-32535647D01*
X28899997Y-32555492D01*
X28900000Y-32555492D01*
X28900003Y-32555492D01*
X29025300Y-32535647D01*
X29025301Y-32535647D01*
X29025302Y-32535646D01*
X29025304Y-32535646D01*
X29138342Y-32478050D01*
X29228050Y-32388342D01*
X29285646Y-32275304D01*
X29285646Y-32275302D01*
X29285647Y-32275301D01*
X29285647Y-32275300D01*
X29305492Y-32150003D01*
X29305492Y-32149996D01*
X29285647Y-32024699D01*
X29285647Y-32024698D01*
X29285646Y-32024696D01*
X29228050Y-31911658D01*
X29228046Y-31911654D01*
X29228045Y-31911652D01*
X29138347Y-31821954D01*
X29138344Y-31821952D01*
X29138342Y-31821950D01*
X29025304Y-31764354D01*
X29025303Y-31764353D01*
X29025300Y-31764352D01*
X28900003Y-31744508D01*
X28899997Y-31744508D01*
X28774699Y-31764352D01*
X28774698Y-31764352D01*
X28720797Y-31791817D01*
X28661658Y-31821950D01*
X28661657Y-31821951D01*
X28661652Y-31821954D01*
X28571954Y-31911652D01*
X28571951Y-31911657D01*
X28514352Y-32024698D01*
X28514352Y-32024699D01*
X28494508Y-32149996D01*
X28494508Y-32150003D01*
X25000000Y-32150003D01*
X25000000Y-31352564D01*
X25019685Y-31285525D01*
X25072489Y-31239770D01*
X25141647Y-31229826D01*
X25205203Y-31258851D01*
X25234483Y-31296266D01*
X25279650Y-31384911D01*
X25279652Y-31384913D01*
X25279654Y-31384916D01*
X25369352Y-31474614D01*
X25369354Y-31474615D01*
X25369358Y-31474619D01*
X25482396Y-31532215D01*
X25482397Y-31532215D01*
X25482399Y-31532216D01*
X25607697Y-31552061D01*
X25607700Y-31552061D01*
X25607703Y-31552061D01*
X25733000Y-31532216D01*
X25733001Y-31532216D01*
X25733002Y-31532215D01*
X25733004Y-31532215D01*
X25846042Y-31474619D01*
X25935750Y-31384911D01*
X25993346Y-31271873D01*
X25993346Y-31271871D01*
X25993347Y-31271870D01*
X25993347Y-31271869D01*
X26013192Y-31146572D01*
X26013192Y-31146565D01*
X25993347Y-31021268D01*
X25993347Y-31021267D01*
X25988448Y-31011652D01*
X25935750Y-30908227D01*
X25935746Y-30908223D01*
X25935745Y-30908221D01*
X25846047Y-30818523D01*
X25846044Y-30818521D01*
X25846042Y-30818519D01*
X25733004Y-30760923D01*
X25733003Y-30760922D01*
X25733000Y-30760921D01*
X25607703Y-30741077D01*
X25607697Y-30741077D01*
X25482399Y-30760921D01*
X25482398Y-30760921D01*
X25440184Y-30782431D01*
X25369358Y-30818519D01*
X25369357Y-30818520D01*
X25369352Y-30818523D01*
X25279654Y-30908221D01*
X25279649Y-30908228D01*
X25234484Y-30996869D01*
X25186510Y-31047664D01*
X25118689Y-31064459D01*
X25052554Y-31041921D01*
X25009103Y-30987206D01*
X25000000Y-30940573D01*
X25000000Y-30244880D01*
X25019685Y-30177841D01*
X25072489Y-30132086D01*
X25104603Y-30122406D01*
X25112196Y-30121203D01*
X25112200Y-30121204D01*
X25245326Y-30100119D01*
X25365420Y-30038928D01*
X25460728Y-29943620D01*
X25521919Y-29823526D01*
X25528857Y-29779721D01*
X25543004Y-29690402D01*
X25543004Y-29690397D01*
X25521920Y-29557278D01*
X25521919Y-29557276D01*
X25521919Y-29557274D01*
X25460728Y-29437180D01*
X25460726Y-29437178D01*
X25460723Y-29437174D01*
X25365425Y-29341876D01*
X25365421Y-29341873D01*
X25365420Y-29341872D01*
X25245326Y-29280681D01*
X25245324Y-29280680D01*
X25245321Y-29280679D01*
X25104602Y-29258392D01*
X25041467Y-29228463D01*
X25004536Y-29169151D01*
X25000000Y-29135919D01*
X25000000Y-29000000D01*
X23809578Y-29000000D01*
X23742539Y-28980315D01*
X23699093Y-28932294D01*
X23694479Y-28923238D01*
X23690971Y-28916353D01*
X23690968Y-28916350D01*
X23690966Y-28916347D01*
X23601268Y-28826649D01*
X23601265Y-28826647D01*
X23601263Y-28826645D01*
X23488225Y-28769049D01*
X23488224Y-28769048D01*
X23488221Y-28769047D01*
X23362924Y-28749203D01*
X23362918Y-28749203D01*
X23237620Y-28769047D01*
X23237619Y-28769047D01*
X23162258Y-28807446D01*
X23124579Y-28826645D01*
X23124578Y-28826646D01*
X23124573Y-28826649D01*
X23034875Y-28916347D01*
X23034870Y-28916354D01*
X23026749Y-28932294D01*
X22978775Y-28983090D01*
X22916264Y-29000000D01*
X22418033Y-29000000D01*
X22350994Y-28980315D01*
X22330352Y-28963681D01*
X21356291Y-27989620D01*
X21322806Y-27928297D01*
X21321499Y-27921336D01*
X21305620Y-27821078D01*
X21305619Y-27821076D01*
X21305619Y-27821074D01*
X21244428Y-27700980D01*
X21244426Y-27700978D01*
X21244423Y-27700974D01*
X21149125Y-27605676D01*
X21149121Y-27605673D01*
X21149120Y-27605672D01*
X21029026Y-27544481D01*
X21029024Y-27544480D01*
X21029021Y-27544479D01*
X20895902Y-27523396D01*
X20895898Y-27523396D01*
X20762778Y-27544479D01*
X20642678Y-27605673D01*
X20642674Y-27605676D01*
X20547376Y-27700974D01*
X20547373Y-27700978D01*
X20486179Y-27821078D01*
X20465096Y-27954197D01*
X20465096Y-27954202D01*
X20486179Y-28087323D01*
X20506795Y-28127783D01*
X20519691Y-28196452D01*
X20493414Y-28261192D01*
X20436308Y-28301449D01*
X20366502Y-28304441D01*
X20308629Y-28271758D01*
X18686874Y-26650003D01*
X23544508Y-26650003D01*
X23564352Y-26775300D01*
X23564352Y-26775301D01*
X23564354Y-26775304D01*
X23621950Y-26888342D01*
X23621952Y-26888344D01*
X23621954Y-26888347D01*
X23711652Y-26978045D01*
X23711654Y-26978046D01*
X23711658Y-26978050D01*
X23824696Y-27035646D01*
X23824697Y-27035646D01*
X23824699Y-27035647D01*
X23949997Y-27055492D01*
X23950000Y-27055492D01*
X23950003Y-27055492D01*
X24075300Y-27035647D01*
X24075301Y-27035647D01*
X24075302Y-27035646D01*
X24075304Y-27035646D01*
X24188342Y-26978050D01*
X24278050Y-26888342D01*
X24335646Y-26775304D01*
X24335646Y-26775302D01*
X24335647Y-26775301D01*
X24335647Y-26775300D01*
X24355492Y-26650003D01*
X24355492Y-26649996D01*
X24335647Y-26524699D01*
X24335647Y-26524698D01*
X24335646Y-26524696D01*
X24278050Y-26411658D01*
X24278046Y-26411654D01*
X24278045Y-26411652D01*
X24188347Y-26321954D01*
X24188344Y-26321952D01*
X24188342Y-26321950D01*
X24075304Y-26264354D01*
X24075303Y-26264353D01*
X24075300Y-26264352D01*
X23950003Y-26244508D01*
X23949997Y-26244508D01*
X23824699Y-26264352D01*
X23824698Y-26264352D01*
X23749337Y-26302751D01*
X23711658Y-26321950D01*
X23711657Y-26321951D01*
X23711652Y-26321954D01*
X23621954Y-26411652D01*
X23621951Y-26411657D01*
X23564352Y-26524698D01*
X23564352Y-26524699D01*
X23544508Y-26649996D01*
X23544508Y-26650003D01*
X18686874Y-26650003D01*
X16236017Y-24199146D01*
X16202532Y-24137823D01*
X16207516Y-24068131D01*
X16249388Y-24012198D01*
X16258912Y-24006267D01*
X16263335Y-24003053D01*
X16263342Y-24003050D01*
X16353050Y-23913342D01*
X16410646Y-23800304D01*
X16410646Y-23800302D01*
X16410647Y-23800301D01*
X16410647Y-23800300D01*
X16430492Y-23675003D01*
X17594508Y-23675003D01*
X17614352Y-23800300D01*
X17614352Y-23800301D01*
X17614354Y-23800304D01*
X17671950Y-23913342D01*
X17671952Y-23913344D01*
X17671954Y-23913347D01*
X17761652Y-24003045D01*
X17761654Y-24003046D01*
X17761658Y-24003050D01*
X17874696Y-24060646D01*
X17874697Y-24060646D01*
X17874699Y-24060647D01*
X17999997Y-24080492D01*
X18000000Y-24080492D01*
X18000003Y-24080492D01*
X18125300Y-24060647D01*
X18125301Y-24060647D01*
X18125302Y-24060646D01*
X18125304Y-24060646D01*
X18238342Y-24003050D01*
X18328050Y-23913342D01*
X18385646Y-23800304D01*
X18385646Y-23800302D01*
X18385647Y-23800301D01*
X18385647Y-23800300D01*
X18405492Y-23675003D01*
X19569508Y-23675003D01*
X19589352Y-23800300D01*
X19589352Y-23800301D01*
X19589354Y-23800304D01*
X19646950Y-23913342D01*
X19646952Y-23913344D01*
X19646954Y-23913347D01*
X19736652Y-24003045D01*
X19736654Y-24003046D01*
X19736658Y-24003050D01*
X19849696Y-24060646D01*
X19849697Y-24060646D01*
X19849699Y-24060647D01*
X19974997Y-24080492D01*
X19975000Y-24080492D01*
X19975003Y-24080492D01*
X20100300Y-24060647D01*
X20100301Y-24060647D01*
X20100302Y-24060646D01*
X20100304Y-24060646D01*
X20213342Y-24003050D01*
X20303050Y-23913342D01*
X20360646Y-23800304D01*
X20360646Y-23800302D01*
X20360647Y-23800301D01*
X20360647Y-23800300D01*
X20380492Y-23675003D01*
X20380492Y-23674996D01*
X20360647Y-23549699D01*
X20360647Y-23549698D01*
X20326869Y-23483406D01*
X20303050Y-23436658D01*
X20303046Y-23436654D01*
X20303045Y-23436652D01*
X20213347Y-23346954D01*
X20213344Y-23346952D01*
X20213342Y-23346950D01*
X20100304Y-23289354D01*
X20100303Y-23289353D01*
X20100300Y-23289352D01*
X19975003Y-23269508D01*
X19974997Y-23269508D01*
X19849699Y-23289352D01*
X19849698Y-23289352D01*
X19774337Y-23327751D01*
X19736658Y-23346950D01*
X19736657Y-23346951D01*
X19736652Y-23346954D01*
X19646954Y-23436652D01*
X19646951Y-23436657D01*
X19646950Y-23436658D01*
X19642929Y-23444550D01*
X19589352Y-23549698D01*
X19589352Y-23549699D01*
X19569508Y-23674996D01*
X19569508Y-23675003D01*
X18405492Y-23675003D01*
X18405492Y-23674996D01*
X18385647Y-23549699D01*
X18385647Y-23549698D01*
X18351869Y-23483406D01*
X18328050Y-23436658D01*
X18328046Y-23436654D01*
X18328045Y-23436652D01*
X18238347Y-23346954D01*
X18238344Y-23346952D01*
X18238342Y-23346950D01*
X18125304Y-23289354D01*
X18125303Y-23289353D01*
X18125300Y-23289352D01*
X18000003Y-23269508D01*
X17999997Y-23269508D01*
X17874699Y-23289352D01*
X17874698Y-23289352D01*
X17799337Y-23327751D01*
X17761658Y-23346950D01*
X17761657Y-23346951D01*
X17761652Y-23346954D01*
X17671954Y-23436652D01*
X17671951Y-23436657D01*
X17671950Y-23436658D01*
X17667929Y-23444550D01*
X17614352Y-23549698D01*
X17614352Y-23549699D01*
X17594508Y-23674996D01*
X17594508Y-23675003D01*
X16430492Y-23675003D01*
X16430492Y-23674996D01*
X16410647Y-23549699D01*
X16410647Y-23549698D01*
X16376869Y-23483406D01*
X16353050Y-23436658D01*
X16353046Y-23436654D01*
X16353045Y-23436652D01*
X16263347Y-23346954D01*
X16263344Y-23346952D01*
X16263342Y-23346950D01*
X16150304Y-23289354D01*
X16150303Y-23289353D01*
X16150300Y-23289352D01*
X16025003Y-23269508D01*
X16024997Y-23269508D01*
X15899699Y-23289352D01*
X15899698Y-23289352D01*
X15824337Y-23327751D01*
X15786658Y-23346950D01*
X15786657Y-23346951D01*
X15786652Y-23346954D01*
X15696954Y-23436652D01*
X15691217Y-23444550D01*
X15689152Y-23443050D01*
X15651019Y-23483406D01*
X15583194Y-23500186D01*
X15517065Y-23477633D01*
X15500853Y-23463982D01*
X14586874Y-22550003D01*
X29509508Y-22550003D01*
X29529352Y-22675300D01*
X29529352Y-22675301D01*
X29529354Y-22675304D01*
X29586950Y-22788342D01*
X29586952Y-22788344D01*
X29586954Y-22788347D01*
X29676652Y-22878045D01*
X29676654Y-22878046D01*
X29676658Y-22878050D01*
X29789696Y-22935646D01*
X29789697Y-22935646D01*
X29789699Y-22935647D01*
X29914997Y-22955492D01*
X29915000Y-22955492D01*
X29915003Y-22955492D01*
X30040300Y-22935647D01*
X30040301Y-22935647D01*
X30040302Y-22935646D01*
X30040304Y-22935646D01*
X30153342Y-22878050D01*
X30243050Y-22788342D01*
X30300646Y-22675304D01*
X30300646Y-22675302D01*
X30300647Y-22675301D01*
X30300647Y-22675300D01*
X30320492Y-22550003D01*
X30320492Y-22549996D01*
X30300647Y-22424699D01*
X30300647Y-22424698D01*
X30280749Y-22385647D01*
X30243050Y-22311658D01*
X30243046Y-22311654D01*
X30243045Y-22311652D01*
X30153347Y-22221954D01*
X30153344Y-22221952D01*
X30153342Y-22221950D01*
X30040304Y-22164354D01*
X30040303Y-22164353D01*
X30040300Y-22164352D01*
X29915003Y-22144508D01*
X29914997Y-22144508D01*
X29789699Y-22164352D01*
X29789698Y-22164352D01*
X29714337Y-22202751D01*
X29676658Y-22221950D01*
X29676657Y-22221951D01*
X29676652Y-22221954D01*
X29586954Y-22311652D01*
X29586951Y-22311657D01*
X29586950Y-22311658D01*
X29578599Y-22328048D01*
X29529352Y-22424698D01*
X29529352Y-22424699D01*
X29509508Y-22549996D01*
X29509508Y-22550003D01*
X14586874Y-22550003D01*
X13736874Y-21700003D01*
X15619508Y-21700003D01*
X15639352Y-21825300D01*
X15639352Y-21825301D01*
X15639354Y-21825304D01*
X15696950Y-21938342D01*
X15696952Y-21938344D01*
X15696954Y-21938347D01*
X15786652Y-22028045D01*
X15786654Y-22028046D01*
X15786658Y-22028050D01*
X15899696Y-22085646D01*
X15899697Y-22085646D01*
X15899699Y-22085647D01*
X16024997Y-22105492D01*
X16025000Y-22105492D01*
X16025003Y-22105492D01*
X16150300Y-22085647D01*
X16150301Y-22085647D01*
X16150302Y-22085646D01*
X16150304Y-22085646D01*
X16263342Y-22028050D01*
X16353050Y-21938342D01*
X16410646Y-21825304D01*
X16410646Y-21825302D01*
X16410647Y-21825301D01*
X16410647Y-21825300D01*
X16430492Y-21700003D01*
X17594508Y-21700003D01*
X17614352Y-21825300D01*
X17614352Y-21825301D01*
X17614354Y-21825304D01*
X17671950Y-21938342D01*
X17671952Y-21938344D01*
X17671954Y-21938347D01*
X17761652Y-22028045D01*
X17761654Y-22028046D01*
X17761658Y-22028050D01*
X17874696Y-22085646D01*
X17874697Y-22085646D01*
X17874699Y-22085647D01*
X17999997Y-22105492D01*
X18000000Y-22105492D01*
X18000003Y-22105492D01*
X18125300Y-22085647D01*
X18125301Y-22085647D01*
X18125302Y-22085646D01*
X18125304Y-22085646D01*
X18238342Y-22028050D01*
X18328050Y-21938342D01*
X18385646Y-21825304D01*
X18385646Y-21825302D01*
X18385647Y-21825301D01*
X18385647Y-21825300D01*
X18405492Y-21700003D01*
X19569508Y-21700003D01*
X19589352Y-21825300D01*
X19589352Y-21825301D01*
X19589354Y-21825304D01*
X19646950Y-21938342D01*
X19646952Y-21938344D01*
X19646954Y-21938347D01*
X19736652Y-22028045D01*
X19736654Y-22028046D01*
X19736658Y-22028050D01*
X19849696Y-22085646D01*
X19849697Y-22085646D01*
X19849699Y-22085647D01*
X19974997Y-22105492D01*
X19975000Y-22105492D01*
X19975003Y-22105492D01*
X20100300Y-22085647D01*
X20100301Y-22085647D01*
X20100302Y-22085646D01*
X20100304Y-22085646D01*
X20213342Y-22028050D01*
X20241389Y-22000003D01*
X31974508Y-22000003D01*
X31994352Y-22125300D01*
X31994352Y-22125301D01*
X31994354Y-22125304D01*
X32051950Y-22238342D01*
X32051952Y-22238344D01*
X32051954Y-22238347D01*
X32141652Y-22328045D01*
X32141654Y-22328046D01*
X32141658Y-22328050D01*
X32254696Y-22385646D01*
X32254697Y-22385646D01*
X32254699Y-22385647D01*
X32379997Y-22405492D01*
X32380000Y-22405492D01*
X32380003Y-22405492D01*
X32505300Y-22385647D01*
X32505301Y-22385647D01*
X32505302Y-22385646D01*
X32505304Y-22385646D01*
X32618342Y-22328050D01*
X32708050Y-22238342D01*
X32765646Y-22125304D01*
X32765646Y-22125302D01*
X32765647Y-22125301D01*
X32765647Y-22125300D01*
X32785492Y-22000003D01*
X32785492Y-21999996D01*
X32765647Y-21874699D01*
X32765647Y-21874698D01*
X32740479Y-21825304D01*
X32708050Y-21761658D01*
X32708046Y-21761654D01*
X32708045Y-21761652D01*
X32618347Y-21671954D01*
X32618344Y-21671952D01*
X32618342Y-21671950D01*
X32505304Y-21614354D01*
X32505303Y-21614353D01*
X32505300Y-21614352D01*
X32380003Y-21594508D01*
X32379997Y-21594508D01*
X32254699Y-21614352D01*
X32254698Y-21614352D01*
X32179337Y-21652751D01*
X32141658Y-21671950D01*
X32141657Y-21671951D01*
X32141652Y-21671954D01*
X32051954Y-21761652D01*
X32051951Y-21761657D01*
X31994352Y-21874698D01*
X31994352Y-21874699D01*
X31974508Y-21999996D01*
X31974508Y-22000003D01*
X20241389Y-22000003D01*
X20303050Y-21938342D01*
X20360646Y-21825304D01*
X20360646Y-21825302D01*
X20360647Y-21825301D01*
X20360647Y-21825300D01*
X20380492Y-21700003D01*
X20380492Y-21699996D01*
X20360647Y-21574699D01*
X20360647Y-21574698D01*
X20360646Y-21574696D01*
X20303050Y-21461658D01*
X20303046Y-21461654D01*
X20303045Y-21461652D01*
X20213347Y-21371954D01*
X20213344Y-21371952D01*
X20213342Y-21371950D01*
X20100304Y-21314354D01*
X20100303Y-21314353D01*
X20100300Y-21314352D01*
X19975003Y-21294508D01*
X19974997Y-21294508D01*
X19849699Y-21314352D01*
X19849698Y-21314352D01*
X19774337Y-21352751D01*
X19736658Y-21371950D01*
X19736657Y-21371951D01*
X19736652Y-21371954D01*
X19646954Y-21461652D01*
X19646951Y-21461657D01*
X19589352Y-21574698D01*
X19589352Y-21574699D01*
X19569508Y-21699996D01*
X19569508Y-21700003D01*
X18405492Y-21700003D01*
X18405492Y-21699996D01*
X18385647Y-21574699D01*
X18385647Y-21574698D01*
X18385646Y-21574696D01*
X18328050Y-21461658D01*
X18328046Y-21461654D01*
X18328045Y-21461652D01*
X18238347Y-21371954D01*
X18238344Y-21371952D01*
X18238342Y-21371950D01*
X18125304Y-21314354D01*
X18125303Y-21314353D01*
X18125300Y-21314352D01*
X18000003Y-21294508D01*
X17999997Y-21294508D01*
X17874699Y-21314352D01*
X17874698Y-21314352D01*
X17799337Y-21352751D01*
X17761658Y-21371950D01*
X17761657Y-21371951D01*
X17761652Y-21371954D01*
X17671954Y-21461652D01*
X17671951Y-21461657D01*
X17614352Y-21574698D01*
X17614352Y-21574699D01*
X17594508Y-21699996D01*
X17594508Y-21700003D01*
X16430492Y-21700003D01*
X16430492Y-21699996D01*
X16410647Y-21574699D01*
X16410647Y-21574698D01*
X16410646Y-21574696D01*
X16353050Y-21461658D01*
X16353046Y-21461654D01*
X16353045Y-21461652D01*
X16263347Y-21371954D01*
X16263344Y-21371952D01*
X16263342Y-21371950D01*
X16150304Y-21314354D01*
X16150303Y-21314353D01*
X16150300Y-21314352D01*
X16025003Y-21294508D01*
X16024997Y-21294508D01*
X15899699Y-21314352D01*
X15899698Y-21314352D01*
X15824337Y-21352751D01*
X15786658Y-21371950D01*
X15786657Y-21371951D01*
X15786652Y-21371954D01*
X15696954Y-21461652D01*
X15696951Y-21461657D01*
X15639352Y-21574698D01*
X15639352Y-21574699D01*
X15619508Y-21699996D01*
X15619508Y-21700003D01*
X13736874Y-21700003D01*
X6165427Y-14128556D01*
X7131624Y-14128556D01*
X7151468Y-14253853D01*
X7151468Y-14253854D01*
X7151470Y-14253857D01*
X7209066Y-14366895D01*
X7209068Y-14366897D01*
X7209070Y-14366900D01*
X7298768Y-14456598D01*
X7298770Y-14456599D01*
X7298774Y-14456603D01*
X7411812Y-14514199D01*
X7411813Y-14514199D01*
X7411815Y-14514200D01*
X7537113Y-14534045D01*
X7537116Y-14534045D01*
X7537119Y-14534045D01*
X7662416Y-14514200D01*
X7662417Y-14514200D01*
X7662418Y-14514199D01*
X7662420Y-14514199D01*
X7775458Y-14456603D01*
X7865166Y-14366895D01*
X7922762Y-14253857D01*
X7930483Y-14205101D01*
X7960412Y-14141968D01*
X8019723Y-14105037D01*
X8052957Y-14100500D01*
X8575500Y-14100500D01*
X8642539Y-14120185D01*
X8688294Y-14172989D01*
X8699500Y-14224500D01*
X8699500Y-15256203D01*
X8679815Y-15323242D01*
X8631797Y-15366687D01*
X8592378Y-15386772D01*
X8497076Y-15482074D01*
X8497073Y-15482078D01*
X8497072Y-15482080D01*
X8436095Y-15601755D01*
X8435879Y-15602178D01*
X8414796Y-15735297D01*
X8414796Y-15735302D01*
X8435879Y-15868421D01*
X8435880Y-15868424D01*
X8435881Y-15868426D01*
X8459528Y-15914835D01*
X8497073Y-15988521D01*
X8497076Y-15988525D01*
X8592374Y-16083823D01*
X8592378Y-16083826D01*
X8592380Y-16083828D01*
X8712474Y-16145019D01*
X8712476Y-16145019D01*
X8712478Y-16145020D01*
X8845598Y-16166104D01*
X8845600Y-16166104D01*
X8845602Y-16166104D01*
X8978721Y-16145020D01*
X8978721Y-16145019D01*
X8978726Y-16145019D01*
X9098820Y-16083828D01*
X9194128Y-15988520D01*
X9234237Y-15909802D01*
X10346296Y-15909802D01*
X10367379Y-16042921D01*
X10367380Y-16042924D01*
X10367381Y-16042926D01*
X10419401Y-16145020D01*
X10428573Y-16163021D01*
X10428576Y-16163025D01*
X10523874Y-16258323D01*
X10523878Y-16258326D01*
X10523880Y-16258328D01*
X10643974Y-16319519D01*
X10643976Y-16319519D01*
X10643978Y-16319520D01*
X10744236Y-16335399D01*
X10807371Y-16365328D01*
X10812520Y-16370191D01*
X14333839Y-19891510D01*
X14345110Y-19904462D01*
X14349839Y-19910725D01*
X14384117Y-19941974D01*
X14388258Y-19945929D01*
X14401003Y-19958674D01*
X14404731Y-19961770D01*
X14413124Y-19968418D01*
X14421375Y-19975940D01*
X14432865Y-19986415D01*
X14432866Y-19986415D01*
X14432867Y-19986416D01*
X14439321Y-19988916D01*
X14464606Y-20002244D01*
X14470318Y-20006157D01*
X14477543Y-20007856D01*
X14496321Y-20012272D01*
X14512709Y-20017346D01*
X14537627Y-20027000D01*
X14544552Y-20027000D01*
X14572940Y-20030293D01*
X14579681Y-20031879D01*
X14606133Y-20028189D01*
X14623264Y-20027000D01*
X15710513Y-20027000D01*
X15777552Y-20046685D01*
X15783395Y-20050679D01*
X15786653Y-20053045D01*
X15786658Y-20053050D01*
X15899696Y-20110646D01*
X15899697Y-20110646D01*
X15899699Y-20110647D01*
X16024997Y-20130492D01*
X16025000Y-20130492D01*
X16025003Y-20130492D01*
X16150300Y-20110647D01*
X16150301Y-20110647D01*
X16150302Y-20110646D01*
X16150304Y-20110646D01*
X16263342Y-20053050D01*
X16263349Y-20053042D01*
X16266605Y-20050679D01*
X16271237Y-20049026D01*
X16272037Y-20048619D01*
X16272089Y-20048722D01*
X16332412Y-20027202D01*
X16339487Y-20027000D01*
X17685513Y-20027000D01*
X17752552Y-20046685D01*
X17758395Y-20050679D01*
X17761653Y-20053045D01*
X17761658Y-20053050D01*
X17874696Y-20110646D01*
X17874697Y-20110646D01*
X17874699Y-20110647D01*
X17999997Y-20130492D01*
X18000000Y-20130492D01*
X18000003Y-20130492D01*
X18125300Y-20110647D01*
X18125301Y-20110647D01*
X18125302Y-20110646D01*
X18125304Y-20110646D01*
X18238342Y-20053050D01*
X18238349Y-20053042D01*
X18241605Y-20050679D01*
X18246237Y-20049026D01*
X18247037Y-20048619D01*
X18247089Y-20048722D01*
X18307412Y-20027202D01*
X18314487Y-20027000D01*
X19660513Y-20027000D01*
X19727552Y-20046685D01*
X19733395Y-20050679D01*
X19736653Y-20053045D01*
X19736658Y-20053050D01*
X19849696Y-20110646D01*
X19849697Y-20110646D01*
X19849699Y-20110647D01*
X19974997Y-20130492D01*
X19975000Y-20130492D01*
X19975003Y-20130492D01*
X20100300Y-20110647D01*
X20100301Y-20110647D01*
X20100302Y-20110646D01*
X20100304Y-20110646D01*
X20213342Y-20053050D01*
X20213349Y-20053042D01*
X20216605Y-20050679D01*
X20221237Y-20049026D01*
X20222037Y-20048619D01*
X20222089Y-20048722D01*
X20282412Y-20027202D01*
X20289487Y-20027000D01*
X26622789Y-20027000D01*
X26689828Y-20046685D01*
X26710470Y-20063319D01*
X26722174Y-20075023D01*
X26722178Y-20075026D01*
X26722180Y-20075028D01*
X26842274Y-20136219D01*
X26842276Y-20136219D01*
X26842278Y-20136220D01*
X26975398Y-20157304D01*
X26975400Y-20157304D01*
X26975402Y-20157304D01*
X27108521Y-20136220D01*
X27108521Y-20136219D01*
X27108526Y-20136219D01*
X27228620Y-20075028D01*
X27323928Y-19979720D01*
X27385119Y-19859626D01*
X27406204Y-19726500D01*
X27385119Y-19593374D01*
X27323928Y-19473280D01*
X27323926Y-19473278D01*
X27323923Y-19473274D01*
X27228625Y-19377976D01*
X27228621Y-19377973D01*
X27228620Y-19377972D01*
X27108526Y-19316781D01*
X27108524Y-19316780D01*
X27108521Y-19316779D01*
X26975402Y-19295696D01*
X26975398Y-19295696D01*
X26842278Y-19316779D01*
X26722178Y-19377973D01*
X26722174Y-19377976D01*
X26710470Y-19389681D01*
X26649147Y-19423166D01*
X26622789Y-19426000D01*
X20293616Y-19426000D01*
X20226577Y-19406315D01*
X20220733Y-19402320D01*
X20213343Y-19396951D01*
X20213342Y-19396950D01*
X20100304Y-19339354D01*
X20100303Y-19339353D01*
X20100300Y-19339352D01*
X19975003Y-19319508D01*
X19974997Y-19319508D01*
X19849699Y-19339352D01*
X19849698Y-19339352D01*
X19736656Y-19396951D01*
X19729267Y-19402320D01*
X19663460Y-19425798D01*
X19656384Y-19426000D01*
X18318616Y-19426000D01*
X18251577Y-19406315D01*
X18245733Y-19402320D01*
X18238343Y-19396951D01*
X18238342Y-19396950D01*
X18125304Y-19339354D01*
X18125303Y-19339353D01*
X18125300Y-19339352D01*
X18000003Y-19319508D01*
X17999997Y-19319508D01*
X17874699Y-19339352D01*
X17874698Y-19339352D01*
X17761656Y-19396951D01*
X17754267Y-19402320D01*
X17688460Y-19425798D01*
X17681384Y-19426000D01*
X16343616Y-19426000D01*
X16276577Y-19406315D01*
X16270733Y-19402320D01*
X16263343Y-19396951D01*
X16263342Y-19396950D01*
X16150304Y-19339354D01*
X16150303Y-19339353D01*
X16150300Y-19339352D01*
X16025003Y-19319508D01*
X16024997Y-19319508D01*
X15899699Y-19339352D01*
X15899698Y-19339352D01*
X15786656Y-19396951D01*
X15779267Y-19402320D01*
X15713460Y-19425798D01*
X15706384Y-19426000D01*
X14769633Y-19426000D01*
X14702594Y-19406315D01*
X14681952Y-19389681D01*
X14242274Y-18950003D01*
X28657008Y-18950003D01*
X28676852Y-19075300D01*
X28676852Y-19075301D01*
X28676854Y-19075304D01*
X28734450Y-19188342D01*
X28734452Y-19188344D01*
X28734454Y-19188347D01*
X28824152Y-19278045D01*
X28824154Y-19278046D01*
X28824158Y-19278050D01*
X28937196Y-19335646D01*
X28937197Y-19335646D01*
X28937199Y-19335647D01*
X29062497Y-19355492D01*
X29062500Y-19355492D01*
X29062503Y-19355492D01*
X29187800Y-19335647D01*
X29187801Y-19335647D01*
X29187802Y-19335646D01*
X29187804Y-19335646D01*
X29300842Y-19278050D01*
X29390550Y-19188342D01*
X29448146Y-19075304D01*
X29448146Y-19075302D01*
X29448147Y-19075301D01*
X29448147Y-19075300D01*
X29467992Y-18950003D01*
X29467992Y-18949996D01*
X29448147Y-18824699D01*
X29448147Y-18824698D01*
X29448146Y-18824696D01*
X29390550Y-18711658D01*
X29390546Y-18711654D01*
X29390545Y-18711652D01*
X29300847Y-18621954D01*
X29300844Y-18621952D01*
X29300842Y-18621950D01*
X29187804Y-18564354D01*
X29187803Y-18564353D01*
X29187800Y-18564352D01*
X29062503Y-18544508D01*
X29062497Y-18544508D01*
X28937199Y-18564352D01*
X28937198Y-18564352D01*
X28877005Y-18595023D01*
X28824158Y-18621950D01*
X28824157Y-18621951D01*
X28824152Y-18621954D01*
X28734454Y-18711652D01*
X28734451Y-18711657D01*
X28676852Y-18824698D01*
X28676852Y-18824699D01*
X28657008Y-18949996D01*
X28657008Y-18950003D01*
X14242274Y-18950003D01*
X13292274Y-18000003D01*
X33604508Y-18000003D01*
X33624352Y-18125300D01*
X33624352Y-18125301D01*
X33624354Y-18125304D01*
X33681950Y-18238342D01*
X33681952Y-18238344D01*
X33681954Y-18238347D01*
X33771652Y-18328045D01*
X33771654Y-18328046D01*
X33771658Y-18328050D01*
X33884696Y-18385646D01*
X33884697Y-18385646D01*
X33884699Y-18385647D01*
X34009997Y-18405492D01*
X34010000Y-18405492D01*
X34010003Y-18405492D01*
X34135300Y-18385647D01*
X34135301Y-18385647D01*
X34135302Y-18385646D01*
X34135304Y-18385646D01*
X34248342Y-18328050D01*
X34338050Y-18238342D01*
X34395646Y-18125304D01*
X34395646Y-18125302D01*
X34395647Y-18125301D01*
X34395647Y-18125300D01*
X34415492Y-18000003D01*
X34415492Y-17999996D01*
X34395647Y-17874699D01*
X34395647Y-17874698D01*
X34395646Y-17874696D01*
X34338050Y-17761658D01*
X34338046Y-17761654D01*
X34338045Y-17761652D01*
X34248347Y-17671954D01*
X34248344Y-17671952D01*
X34248342Y-17671950D01*
X34135304Y-17614354D01*
X34135303Y-17614353D01*
X34135300Y-17614352D01*
X34010003Y-17594508D01*
X34009997Y-17594508D01*
X33884699Y-17614352D01*
X33884698Y-17614352D01*
X33809337Y-17652751D01*
X33771658Y-17671950D01*
X33771657Y-17671951D01*
X33771652Y-17671954D01*
X33681954Y-17761652D01*
X33681951Y-17761657D01*
X33624352Y-17874698D01*
X33624352Y-17874699D01*
X33604508Y-17999996D01*
X33604508Y-18000003D01*
X13292274Y-18000003D01*
X12408865Y-17116594D01*
X12375380Y-17055271D01*
X12380364Y-16985579D01*
X12386055Y-16972629D01*
X12435646Y-16875304D01*
X12455492Y-16750003D01*
X23544508Y-16750003D01*
X23564352Y-16875300D01*
X23564352Y-16875301D01*
X23564354Y-16875304D01*
X23621950Y-16988342D01*
X23621952Y-16988344D01*
X23621954Y-16988347D01*
X23711652Y-17078045D01*
X23711654Y-17078046D01*
X23711658Y-17078050D01*
X23824696Y-17135646D01*
X23824697Y-17135646D01*
X23824699Y-17135647D01*
X23949997Y-17155492D01*
X23950000Y-17155492D01*
X23950003Y-17155492D01*
X24075300Y-17135647D01*
X24075301Y-17135647D01*
X24075302Y-17135646D01*
X24075304Y-17135646D01*
X24188342Y-17078050D01*
X24278050Y-16988342D01*
X24335646Y-16875304D01*
X24335646Y-16875302D01*
X24335647Y-16875301D01*
X24335647Y-16875300D01*
X24355492Y-16750003D01*
X24355492Y-16749996D01*
X24335647Y-16624699D01*
X24335647Y-16624698D01*
X24335646Y-16624696D01*
X24278050Y-16511658D01*
X24278046Y-16511654D01*
X24278045Y-16511652D01*
X24188347Y-16421954D01*
X24188344Y-16421952D01*
X24188342Y-16421950D01*
X24075304Y-16364354D01*
X24075303Y-16364353D01*
X24075300Y-16364352D01*
X23962410Y-16346473D01*
X23953937Y-16342456D01*
X23953128Y-16342977D01*
X23937590Y-16346473D01*
X23824699Y-16364352D01*
X23824698Y-16364352D01*
X23753644Y-16400557D01*
X23711658Y-16421950D01*
X23711657Y-16421951D01*
X23711652Y-16421954D01*
X23621954Y-16511652D01*
X23621951Y-16511657D01*
X23564352Y-16624698D01*
X23564352Y-16624699D01*
X23544508Y-16749996D01*
X23544508Y-16750003D01*
X12455492Y-16750003D01*
X12455492Y-16750000D01*
X12455492Y-16749996D01*
X12435647Y-16624699D01*
X12435647Y-16624698D01*
X12435646Y-16624696D01*
X12378050Y-16511658D01*
X12378046Y-16511654D01*
X12378045Y-16511652D01*
X12288347Y-16421954D01*
X12288344Y-16421952D01*
X12288342Y-16421950D01*
X12175304Y-16364354D01*
X12175303Y-16364353D01*
X12175300Y-16364352D01*
X12062410Y-16346473D01*
X12053937Y-16342456D01*
X12053128Y-16342977D01*
X12037590Y-16346473D01*
X11924699Y-16364352D01*
X11924695Y-16364353D01*
X11827380Y-16413938D01*
X11758711Y-16426834D01*
X11693971Y-16400557D01*
X11683405Y-16391134D01*
X11603952Y-16311681D01*
X11570467Y-16250358D01*
X11575451Y-16180666D01*
X11617323Y-16124733D01*
X11682787Y-16100316D01*
X11691633Y-16100000D01*
X12018193Y-16100000D01*
X12048196Y-16108810D01*
X12065914Y-16101023D01*
X12081807Y-16100000D01*
X23918193Y-16100000D01*
X23948196Y-16108810D01*
X23965914Y-16101023D01*
X23981807Y-16100000D01*
X24600000Y-16100000D01*
X24600000Y-11897844D01*
X30650000Y-11897844D01*
X30656401Y-11957372D01*
X30656403Y-11957379D01*
X30706645Y-12092086D01*
X30706649Y-12092093D01*
X30792809Y-12207187D01*
X30792812Y-12207190D01*
X30907906Y-12293350D01*
X30907913Y-12293354D01*
X31042620Y-12343596D01*
X31042627Y-12343598D01*
X31102155Y-12349999D01*
X31102172Y-12350000D01*
X31502813Y-12350000D01*
X31569852Y-12369685D01*
X31615607Y-12422489D01*
X31625551Y-12491647D01*
X31596526Y-12555203D01*
X31561267Y-12583357D01*
X31413550Y-12662315D01*
X31413548Y-12662316D01*
X31413547Y-12662317D01*
X31253589Y-12793589D01*
X31122317Y-12953547D01*
X31024769Y-13136043D01*
X30964699Y-13334067D01*
X30944417Y-13540000D01*
X30964699Y-13745932D01*
X30993386Y-13840500D01*
X31024768Y-13943954D01*
X31122315Y-14126450D01*
X31135050Y-14141968D01*
X31253589Y-14286410D01*
X31306605Y-14329918D01*
X31413550Y-14417685D01*
X31596046Y-14515232D01*
X31794066Y-14575300D01*
X31794065Y-14575300D01*
X31812529Y-14577118D01*
X32000000Y-14595583D01*
X32205934Y-14575300D01*
X32403954Y-14515232D01*
X32586450Y-14417685D01*
X32746410Y-14286410D01*
X32877685Y-14126450D01*
X32975232Y-13943954D01*
X33035300Y-13745934D01*
X33055583Y-13540000D01*
X33035300Y-13334066D01*
X32975232Y-13136046D01*
X32877685Y-12953550D01*
X32825702Y-12890209D01*
X32746410Y-12793589D01*
X32586452Y-12662317D01*
X32586453Y-12662317D01*
X32586450Y-12662315D01*
X32438732Y-12583357D01*
X32388889Y-12534395D01*
X32373429Y-12466257D01*
X32397261Y-12400578D01*
X32452819Y-12358209D01*
X32497187Y-12350000D01*
X32897828Y-12350000D01*
X32897844Y-12349999D01*
X32957372Y-12343598D01*
X32957379Y-12343596D01*
X33092086Y-12293354D01*
X33092093Y-12293350D01*
X33207187Y-12207190D01*
X33207190Y-12207187D01*
X33293350Y-12092093D01*
X33293354Y-12092086D01*
X33343596Y-11957379D01*
X33343598Y-11957372D01*
X33349999Y-11897844D01*
X33350000Y-11897827D01*
X33350000Y-11250000D01*
X32433686Y-11250000D01*
X32459493Y-11209844D01*
X32500000Y-11071889D01*
X32500000Y-10928111D01*
X32459493Y-10790156D01*
X32433686Y-10750000D01*
X33350000Y-10750000D01*
X33350000Y-10102172D01*
X33349999Y-10102155D01*
X33343598Y-10042627D01*
X33343596Y-10042620D01*
X33293354Y-9907913D01*
X33293350Y-9907906D01*
X33207190Y-9792812D01*
X33207187Y-9792809D01*
X33092093Y-9706649D01*
X33092086Y-9706645D01*
X32957379Y-9656403D01*
X32957372Y-9656401D01*
X32897844Y-9650000D01*
X32250000Y-9650000D01*
X32250000Y-10564498D01*
X32142315Y-10515320D01*
X32035763Y-10500000D01*
X31964237Y-10500000D01*
X31857685Y-10515320D01*
X31750000Y-10564498D01*
X31750000Y-9650000D01*
X31102155Y-9650000D01*
X31042627Y-9656401D01*
X31042620Y-9656403D01*
X30907913Y-9706645D01*
X30907906Y-9706649D01*
X30792812Y-9792809D01*
X30792809Y-9792812D01*
X30706649Y-9907906D01*
X30706645Y-9907913D01*
X30656403Y-10042620D01*
X30656401Y-10042627D01*
X30650000Y-10102155D01*
X30650000Y-10750000D01*
X31566314Y-10750000D01*
X31540507Y-10790156D01*
X31500000Y-10928111D01*
X31500000Y-11071889D01*
X31540507Y-11209844D01*
X31566314Y-11250000D01*
X30650000Y-11250000D01*
X30650000Y-11897844D01*
X24600000Y-11897844D01*
X24600000Y-10700000D01*
X11400000Y-10700000D01*
X11400000Y-11858945D01*
X11381539Y-11924041D01*
X11315645Y-12030871D01*
X11315641Y-12030880D01*
X11260494Y-12197302D01*
X11260493Y-12197309D01*
X11250000Y-12300013D01*
X11250000Y-12750000D01*
X11276000Y-12750000D01*
X11343039Y-12769685D01*
X11388794Y-12822489D01*
X11400000Y-12874000D01*
X11400000Y-13126000D01*
X11380315Y-13193039D01*
X11327511Y-13238794D01*
X11276000Y-13250000D01*
X11250001Y-13250000D01*
X11250001Y-13699986D01*
X11260494Y-13802697D01*
X11315641Y-13969119D01*
X11315644Y-13969126D01*
X11381538Y-14075954D01*
X11400000Y-14141052D01*
X11400000Y-15678569D01*
X11380315Y-15745608D01*
X11327511Y-15791363D01*
X11258353Y-15801307D01*
X11194797Y-15772282D01*
X11165517Y-15734866D01*
X11125628Y-15656580D01*
X11125626Y-15656578D01*
X11125623Y-15656574D01*
X11030325Y-15561276D01*
X11030321Y-15561273D01*
X11030320Y-15561272D01*
X10910226Y-15500081D01*
X10910224Y-15500080D01*
X10910221Y-15500079D01*
X10777102Y-15478996D01*
X10777098Y-15478996D01*
X10643978Y-15500079D01*
X10523878Y-15561273D01*
X10523874Y-15561276D01*
X10428576Y-15656574D01*
X10428573Y-15656578D01*
X10367379Y-15776678D01*
X10346296Y-15909797D01*
X10346296Y-15909802D01*
X9234237Y-15909802D01*
X9255319Y-15868426D01*
X9267525Y-15791363D01*
X9276404Y-15735302D01*
X9276404Y-15732596D01*
X9279697Y-15704210D01*
X9285770Y-15678385D01*
X9290850Y-15661979D01*
X9300500Y-15637073D01*
X9300500Y-15630147D01*
X9303794Y-15601755D01*
X9305379Y-15595018D01*
X9301689Y-15568562D01*
X9300500Y-15551433D01*
X9300500Y-14224500D01*
X9320185Y-14157461D01*
X9372989Y-14111706D01*
X9424500Y-14100500D01*
X10054270Y-14100500D01*
X10084699Y-14097646D01*
X10084701Y-14097646D01*
X10148790Y-14075219D01*
X10212882Y-14052793D01*
X10322150Y-13972150D01*
X10402793Y-13862882D01*
X10443715Y-13745934D01*
X10447646Y-13734701D01*
X10447646Y-13734699D01*
X10450500Y-13704269D01*
X10450500Y-12295730D01*
X10447646Y-12265300D01*
X10447646Y-12265298D01*
X10402793Y-12137119D01*
X10402792Y-12137117D01*
X10369563Y-12092093D01*
X10322150Y-12027850D01*
X10212882Y-11947207D01*
X10212880Y-11947206D01*
X10084700Y-11902353D01*
X10054270Y-11899500D01*
X10054266Y-11899500D01*
X7945734Y-11899500D01*
X7945730Y-11899500D01*
X7915300Y-11902353D01*
X7915298Y-11902353D01*
X7787119Y-11947206D01*
X7787117Y-11947207D01*
X7677850Y-12027850D01*
X7597207Y-12137117D01*
X7597206Y-12137119D01*
X7552353Y-12265298D01*
X7552353Y-12265300D01*
X7549500Y-12295730D01*
X7549500Y-13615193D01*
X7529815Y-13682232D01*
X7477011Y-13727987D01*
X7444898Y-13737666D01*
X7411814Y-13742905D01*
X7336453Y-13781304D01*
X7298774Y-13800503D01*
X7298773Y-13800504D01*
X7298768Y-13800507D01*
X7209070Y-13890205D01*
X7209067Y-13890210D01*
X7151468Y-14003251D01*
X7151468Y-14003252D01*
X7131624Y-14128549D01*
X7131624Y-14128556D01*
X6165427Y-14128556D01*
X5411862Y-13374991D01*
X5400587Y-13362035D01*
X5395855Y-13355768D01*
X5361583Y-13324525D01*
X5357460Y-13320589D01*
X5344697Y-13307826D01*
X5344696Y-13307825D01*
X5344694Y-13307823D01*
X5340977Y-13304737D01*
X5332579Y-13298084D01*
X5312833Y-13280084D01*
X5306370Y-13277580D01*
X5281092Y-13264256D01*
X5275381Y-13260344D01*
X5275378Y-13260343D01*
X5275379Y-13260343D01*
X5249383Y-13254228D01*
X5232989Y-13249151D01*
X5208074Y-13239500D01*
X5208073Y-13239500D01*
X5201149Y-13239500D01*
X5172758Y-13236206D01*
X5166019Y-13234621D01*
X5139566Y-13238311D01*
X5122436Y-13239500D01*
X5098579Y-13239500D01*
X5031540Y-13219815D01*
X4985785Y-13167011D01*
X4979919Y-13151497D01*
X4979677Y-13150701D01*
X4975232Y-13136046D01*
X4877685Y-12953550D01*
X4825702Y-12890209D01*
X4746410Y-12793589D01*
X4586452Y-12662317D01*
X4586453Y-12662317D01*
X4586450Y-12662315D01*
X4438732Y-12583357D01*
X4388889Y-12534395D01*
X4373429Y-12466257D01*
X4397261Y-12400578D01*
X4452819Y-12358209D01*
X4497187Y-12350000D01*
X4897828Y-12350000D01*
X4897844Y-12349999D01*
X4957372Y-12343598D01*
X4957379Y-12343596D01*
X5092086Y-12293354D01*
X5092093Y-12293350D01*
X5207187Y-12207190D01*
X5207190Y-12207187D01*
X5293350Y-12092093D01*
X5293354Y-12092086D01*
X5343596Y-11957379D01*
X5343598Y-11957372D01*
X5349999Y-11897844D01*
X5350000Y-11897827D01*
X5350000Y-11250000D01*
X4433686Y-11250000D01*
X4459493Y-11209844D01*
X4466074Y-11187432D01*
X9785247Y-11187432D01*
X9805091Y-11312729D01*
X9805091Y-11312730D01*
X9823544Y-11348946D01*
X9862689Y-11425771D01*
X9862691Y-11425773D01*
X9862693Y-11425776D01*
X9952391Y-11515474D01*
X9952393Y-11515475D01*
X9952397Y-11515479D01*
X10065435Y-11573075D01*
X10065436Y-11573075D01*
X10065438Y-11573076D01*
X10190736Y-11592921D01*
X10190739Y-11592921D01*
X10190742Y-11592921D01*
X10316039Y-11573076D01*
X10316040Y-11573076D01*
X10316041Y-11573075D01*
X10316043Y-11573075D01*
X10429081Y-11515479D01*
X10518789Y-11425771D01*
X10576385Y-11312733D01*
X10576385Y-11312731D01*
X10576386Y-11312730D01*
X10576386Y-11312729D01*
X10596231Y-11187432D01*
X10596231Y-11187425D01*
X10576386Y-11062128D01*
X10576386Y-11062127D01*
X10576385Y-11062125D01*
X10518789Y-10949087D01*
X10518785Y-10949083D01*
X10518784Y-10949081D01*
X10429086Y-10859383D01*
X10429083Y-10859381D01*
X10429081Y-10859379D01*
X10316043Y-10801783D01*
X10316042Y-10801782D01*
X10316039Y-10801781D01*
X10190742Y-10781937D01*
X10190736Y-10781937D01*
X10065438Y-10801781D01*
X10065437Y-10801781D01*
X9990076Y-10840180D01*
X9952397Y-10859379D01*
X9952396Y-10859380D01*
X9952391Y-10859383D01*
X9862693Y-10949081D01*
X9862690Y-10949086D01*
X9805091Y-11062127D01*
X9805091Y-11062128D01*
X9785247Y-11187425D01*
X9785247Y-11187432D01*
X4466074Y-11187432D01*
X4500000Y-11071889D01*
X4500000Y-10928111D01*
X4459493Y-10790156D01*
X4433686Y-10750000D01*
X5350000Y-10750000D01*
X5350000Y-10102172D01*
X5349999Y-10102155D01*
X5343598Y-10042627D01*
X5343596Y-10042620D01*
X5293354Y-9907913D01*
X5293350Y-9907906D01*
X5207190Y-9792812D01*
X5207187Y-9792809D01*
X5092093Y-9706649D01*
X5092086Y-9706645D01*
X4957379Y-9656403D01*
X4957372Y-9656401D01*
X4897844Y-9650000D01*
X4250000Y-9650000D01*
X4250000Y-10564498D01*
X4142315Y-10515320D01*
X4035763Y-10500000D01*
X3964237Y-10500000D01*
X3857685Y-10515320D01*
X3750000Y-10564498D01*
X3750000Y-9636975D01*
X3732181Y-9604343D01*
X3736067Y-9550003D01*
X9509508Y-9550003D01*
X9529352Y-9675300D01*
X9529352Y-9675301D01*
X9529354Y-9675304D01*
X9586950Y-9788342D01*
X9586952Y-9788344D01*
X9586954Y-9788347D01*
X9676652Y-9878045D01*
X9676654Y-9878046D01*
X9676658Y-9878050D01*
X9789696Y-9935646D01*
X9789697Y-9935646D01*
X9789699Y-9935647D01*
X9914997Y-9955492D01*
X9915000Y-9955492D01*
X9915003Y-9955492D01*
X10040300Y-9935647D01*
X10040301Y-9935647D01*
X10040302Y-9935646D01*
X10040304Y-9935646D01*
X10153342Y-9878050D01*
X10243050Y-9788342D01*
X10300646Y-9675304D01*
X10300646Y-9675302D01*
X10300647Y-9675301D01*
X10300647Y-9675300D01*
X10320492Y-9550003D01*
X10320492Y-9549996D01*
X10300647Y-9424699D01*
X10300647Y-9424698D01*
X10300646Y-9424696D01*
X10243050Y-9311658D01*
X10243046Y-9311654D01*
X10243045Y-9311652D01*
X10153347Y-9221954D01*
X10153344Y-9221952D01*
X10153342Y-9221950D01*
X10040304Y-9164354D01*
X10040303Y-9164353D01*
X10040300Y-9164352D01*
X9915003Y-9144508D01*
X9914997Y-9144508D01*
X9789699Y-9164352D01*
X9789698Y-9164352D01*
X9714337Y-9202751D01*
X9676658Y-9221950D01*
X9676657Y-9221951D01*
X9676652Y-9221954D01*
X9586954Y-9311652D01*
X9586951Y-9311657D01*
X9529352Y-9424698D01*
X9529352Y-9424699D01*
X9509508Y-9549996D01*
X9509508Y-9550003D01*
X3736067Y-9550003D01*
X3737165Y-9534651D01*
X3765664Y-9490306D01*
X8255968Y-5000003D01*
X25414508Y-5000003D01*
X25434352Y-5125300D01*
X25434352Y-5125301D01*
X25434354Y-5125304D01*
X25491950Y-5238342D01*
X25491952Y-5238344D01*
X25491954Y-5238347D01*
X25581652Y-5328045D01*
X25581654Y-5328046D01*
X25581658Y-5328050D01*
X25694696Y-5385646D01*
X25694697Y-5385646D01*
X25694699Y-5385647D01*
X25819997Y-5405492D01*
X25820000Y-5405492D01*
X25820003Y-5405492D01*
X25945300Y-5385647D01*
X25945301Y-5385647D01*
X25945302Y-5385646D01*
X25945304Y-5385646D01*
X26058342Y-5328050D01*
X26148050Y-5238342D01*
X26189516Y-5156958D01*
X26237490Y-5106165D01*
X26305311Y-5089370D01*
X26371445Y-5111907D01*
X26410482Y-5156958D01*
X26450458Y-5235413D01*
X26451951Y-5238343D01*
X26451954Y-5238347D01*
X26541652Y-5328045D01*
X26541654Y-5328046D01*
X26541658Y-5328050D01*
X26654696Y-5385646D01*
X26654697Y-5385646D01*
X26654699Y-5385647D01*
X26779997Y-5405492D01*
X26780000Y-5405492D01*
X26780003Y-5405492D01*
X26905300Y-5385647D01*
X26905301Y-5385647D01*
X26905302Y-5385646D01*
X26905304Y-5385646D01*
X27018342Y-5328050D01*
X27108050Y-5238342D01*
X27165646Y-5125304D01*
X27165646Y-5125302D01*
X27165647Y-5125301D01*
X27165647Y-5125300D01*
X27185492Y-5000003D01*
X27185492Y-5000000D01*
X29644341Y-5000000D01*
X29664936Y-5235403D01*
X29664938Y-5235413D01*
X29726094Y-5463655D01*
X29726096Y-5463659D01*
X29726097Y-5463663D01*
X29776031Y-5570746D01*
X29825964Y-5677828D01*
X29825965Y-5677830D01*
X29961505Y-5871402D01*
X30128597Y-6038494D01*
X30322169Y-6174034D01*
X30322171Y-6174035D01*
X30536337Y-6273903D01*
X30764592Y-6335063D01*
X30941032Y-6350499D01*
X30941033Y-6350500D01*
X30941034Y-6350500D01*
X31058967Y-6350500D01*
X31058967Y-6350499D01*
X31235408Y-6335063D01*
X31463663Y-6273903D01*
X31677829Y-6174035D01*
X31871401Y-6038495D01*
X32038495Y-5871401D01*
X32174035Y-5677830D01*
X32273903Y-5463663D01*
X32335063Y-5235408D01*
X32355659Y-5000000D01*
X32335063Y-4764592D01*
X32273903Y-4536337D01*
X32174035Y-4322171D01*
X32174034Y-4322169D01*
X32038494Y-4128597D01*
X31871402Y-3961505D01*
X31677830Y-3825965D01*
X31677828Y-3825964D01*
X31570746Y-3776031D01*
X31463663Y-3726097D01*
X31463659Y-3726096D01*
X31463655Y-3726094D01*
X31235413Y-3664938D01*
X31235403Y-3664936D01*
X31058967Y-3649500D01*
X31058966Y-3649500D01*
X30941034Y-3649500D01*
X30941033Y-3649500D01*
X30764596Y-3664936D01*
X30764586Y-3664938D01*
X30536344Y-3726094D01*
X30536335Y-3726098D01*
X30322171Y-3825964D01*
X30322169Y-3825965D01*
X30128597Y-3961505D01*
X29961506Y-4128597D01*
X29961501Y-4128604D01*
X29825967Y-4322165D01*
X29825965Y-4322169D01*
X29726098Y-4536335D01*
X29726094Y-4536344D01*
X29664938Y-4764586D01*
X29664936Y-4764596D01*
X29644341Y-4999999D01*
X29644341Y-5000000D01*
X27185492Y-5000000D01*
X27185492Y-4999996D01*
X27165647Y-4874699D01*
X27165647Y-4874698D01*
X27149515Y-4843038D01*
X27108050Y-4761658D01*
X27108046Y-4761654D01*
X27108045Y-4761652D01*
X27018347Y-4671954D01*
X27018344Y-4671952D01*
X27018342Y-4671950D01*
X26905304Y-4614354D01*
X26905303Y-4614353D01*
X26905300Y-4614352D01*
X26780003Y-4594508D01*
X26779997Y-4594508D01*
X26654699Y-4614352D01*
X26654698Y-4614352D01*
X26579337Y-4652751D01*
X26541658Y-4671950D01*
X26541657Y-4671951D01*
X26541652Y-4671954D01*
X26451954Y-4761652D01*
X26451951Y-4761657D01*
X26451950Y-4761658D01*
X26450453Y-4764596D01*
X26410485Y-4843038D01*
X26362510Y-4893834D01*
X26294689Y-4910629D01*
X26228554Y-4888091D01*
X26189515Y-4843038D01*
X26148050Y-4761658D01*
X26148046Y-4761654D01*
X26148045Y-4761652D01*
X26058347Y-4671954D01*
X26058344Y-4671952D01*
X26058342Y-4671950D01*
X25945304Y-4614354D01*
X25945303Y-4614353D01*
X25945300Y-4614352D01*
X25820003Y-4594508D01*
X25819997Y-4594508D01*
X25694699Y-4614352D01*
X25694698Y-4614352D01*
X25619337Y-4652751D01*
X25581658Y-4671950D01*
X25581657Y-4671951D01*
X25581652Y-4671954D01*
X25491954Y-4761652D01*
X25491951Y-4761657D01*
X25491950Y-4761658D01*
X25490455Y-4764592D01*
X25434352Y-4874698D01*
X25434352Y-4874699D01*
X25414508Y-4999996D01*
X25414508Y-5000003D01*
X8255968Y-5000003D01*
X11449452Y-1806519D01*
X11510775Y-1773034D01*
X11537133Y-1770200D01*
X20647389Y-1770200D01*
X20714428Y-1789885D01*
X20735070Y-1806519D01*
X20746774Y-1818223D01*
X20746778Y-1818226D01*
X20746780Y-1818228D01*
X20866874Y-1879419D01*
X20866876Y-1879419D01*
X20866878Y-1879420D01*
X20999998Y-1900504D01*
X21000000Y-1900504D01*
X21000002Y-1900504D01*
X21133121Y-1879420D01*
X21133121Y-1879419D01*
X21133126Y-1879419D01*
X21253220Y-1818228D01*
X21348528Y-1722920D01*
X21409719Y-1602826D01*
X21421255Y-1529993D01*
X21430804Y-1469702D01*
X21430804Y-1469697D01*
X21409720Y-1336578D01*
X21409719Y-1336576D01*
X21409719Y-1336574D01*
X21348528Y-1216480D01*
X21348526Y-1216478D01*
X21348523Y-1216474D01*
X21253225Y-1121176D01*
X21253221Y-1121173D01*
X21253220Y-1121172D01*
X21133126Y-1059981D01*
X21133124Y-1059980D01*
X21133121Y-1059979D01*
X21000002Y-1038896D01*
X20999998Y-1038896D01*
X20866878Y-1059979D01*
X20746778Y-1121173D01*
X20746774Y-1121176D01*
X20735070Y-1132881D01*
X20673747Y-1166366D01*
X20647389Y-1169200D01*
X11428438Y-1169200D01*
X11411310Y-1168011D01*
X11403538Y-1166927D01*
X11403535Y-1166927D01*
X11363272Y-1168788D01*
X11357220Y-1169068D01*
X11351495Y-1169200D01*
X11333456Y-1169200D01*
X11333451Y-1169200D01*
X11328626Y-1169648D01*
X11317997Y-1170881D01*
X11291308Y-1172115D01*
X11284963Y-1174915D01*
X11257680Y-1183365D01*
X11250868Y-1184638D01*
X11250867Y-1184639D01*
X11228157Y-1198699D01*
X11212978Y-1206700D01*
X11188535Y-1217493D01*
X11183636Y-1222393D01*
X11161242Y-1240131D01*
X11155348Y-1243780D01*
X11139249Y-1265098D01*
X11127979Y-1278048D01*
X2671186Y-9734841D01*
X2658235Y-9746112D01*
X2651967Y-9750844D01*
X2620722Y-9785118D01*
X2616774Y-9789253D01*
X2604027Y-9802000D01*
X2600946Y-9805711D01*
X2594285Y-9814119D01*
X2576283Y-9833866D01*
X2576283Y-9833867D01*
X2573778Y-9840333D01*
X2560459Y-9865602D01*
X2556545Y-9871315D01*
X2556543Y-9871320D01*
X2550428Y-9897317D01*
X2545351Y-9913713D01*
X2535700Y-9938626D01*
X2535700Y-9945551D01*
X2532406Y-9973941D01*
X2530821Y-9980677D01*
X2530821Y-9980682D01*
X500500Y-9980682D01*
X500500Y-5000000D01*
X3644341Y-5000000D01*
X3664936Y-5235403D01*
X3664938Y-5235413D01*
X3726094Y-5463655D01*
X3726096Y-5463659D01*
X3726097Y-5463663D01*
X3776031Y-5570746D01*
X3825964Y-5677828D01*
X3825965Y-5677830D01*
X3961505Y-5871402D01*
X4128597Y-6038494D01*
X4322169Y-6174034D01*
X4322171Y-6174035D01*
X4536337Y-6273903D01*
X4764592Y-6335063D01*
X4941032Y-6350499D01*
X4941033Y-6350500D01*
X4941034Y-6350500D01*
X5058967Y-6350500D01*
X5058967Y-6350499D01*
X5235408Y-6335063D01*
X5463663Y-6273903D01*
X5677829Y-6174035D01*
X5871401Y-6038495D01*
X6038495Y-5871401D01*
X6174035Y-5677830D01*
X6273903Y-5463663D01*
X6335063Y-5235408D01*
X6355659Y-5000000D01*
X6335063Y-4764592D01*
X6273903Y-4536337D01*
X6174035Y-4322171D01*
X6174034Y-4322169D01*
X6038494Y-4128597D01*
X5871402Y-3961505D01*
X5677830Y-3825965D01*
X5677828Y-3825964D01*
X5570746Y-3776031D01*
X5463663Y-3726097D01*
X5463659Y-3726096D01*
X5463655Y-3726094D01*
X5235413Y-3664938D01*
X5235403Y-3664936D01*
X5058967Y-3649500D01*
X5058966Y-3649500D01*
X4941034Y-3649500D01*
X4941033Y-3649500D01*
X4764596Y-3664936D01*
X4764586Y-3664938D01*
X4536344Y-3726094D01*
X4536335Y-3726098D01*
X4322171Y-3825964D01*
X4322169Y-3825965D01*
X4128597Y-3961505D01*
X3961506Y-4128597D01*
X3961501Y-4128604D01*
X3825967Y-4322165D01*
X3825965Y-4322169D01*
X3726098Y-4536335D01*
X3726094Y-4536344D01*
X3664938Y-4764586D01*
X3664936Y-4764596D01*
X3644341Y-4999999D01*
X3644341Y-5000000D01*
X500500Y-5000000D01*
X500500Y-4003051D01*
X500649Y-3996967D01*
X516960Y-3664938D01*
X517052Y-3663068D01*
X518245Y-3650962D01*
X518462Y-3649500D01*
X566849Y-3323296D01*
X569218Y-3311385D01*
X649710Y-2990043D01*
X653240Y-2978411D01*
X764835Y-2666525D01*
X769476Y-2655318D01*
X911124Y-2355828D01*
X916840Y-2345136D01*
X1087145Y-2060998D01*
X1093888Y-2050905D01*
X1291232Y-1784818D01*
X1298935Y-1775433D01*
X1521405Y-1529975D01*
X1529975Y-1521405D01*
X1775433Y-1298935D01*
X1784818Y-1291232D01*
X2050905Y-1093888D01*
X2060998Y-1087145D01*
X2345136Y-916840D01*
X2355828Y-911124D01*
X2655318Y-769476D01*
X2666525Y-764835D01*
X2978412Y-653239D01*
X2990043Y-649710D01*
X3311385Y-569218D01*
X3323296Y-566849D01*
X3650962Y-518244D01*
X3663068Y-517052D01*
X3996967Y-500648D01*
X4003051Y-500500D01*
X4065892Y-500500D01*
X31934108Y-500500D01*
X31996949Y-500500D01*
X32003032Y-500648D01*
G37*
%TD.AperFunction*%
%TD*%
M02*
