M48
; DRILL file {KiCad 7.0.11+dfsg-1build4} date Sat Jun 13 08:25:09 2026
; FORMAT={-:-/ absolute / metric / decimal}
; #@! TF.CreationDate,2026-06-13T08:25:09+00:00
; #@! TF.GenerationSoftware,Kicad,Pcbnew,7.0.11+dfsg-1build4
; #@! TF.FileFunction,Plated,1,4,PTH
FMAT,2
METRIC
; #@! TA.AperFunction,Plated,PTH,ComponentDrill
T1C0.600
; #@! TA.AperFunction,Plated,PTH,ComponentDrill
T2C0.650
; #@! TA.AperFunction,Plated,PTH,ComponentDrill
T3C1.000
%
G90
G05
T2
X39.0Y-19.0
X39.0Y-20.27
X39.0Y-21.54
X39.0Y-22.81
X39.0Y-24.08
X39.0Y-25.0
X39.0Y-25.35
X39.0Y-26.27
X39.0Y-27.54
X39.0Y-28.81
X39.0Y-31.0
X39.0Y-32.27
X39.0Y-33.54
X39.0Y-34.81
T3
X3.5Y-5.5
X3.5Y-8.04
X3.5Y-36.5
X3.5Y-39.04
X7.46Y-18.0
X7.46Y-20.54
X7.46Y-23.08
X7.46Y-25.62
X10.0Y-18.0
X10.0Y-20.54
X10.0Y-23.08
X10.0Y-25.62
X38.5Y-5.5
X38.5Y-8.04
X38.5Y-36.5
X38.5Y-39.04
T1
X16.68Y-35.82G85X16.68Y-36.92
G05
X16.68Y-40.25G85X16.68Y-40.85
G05
X25.32Y-35.82G85X25.32Y-36.92
G05
X25.32Y-40.25G85X25.32Y-40.85
G05
M30
