%TF.GenerationSoftware,KiCad,Pcbnew,7.0.11+dfsg-1build4*%
%TF.CreationDate,2026-06-13T08:25:08+00:00*%
%TF.ProjectId,stratosdrone,73747261-746f-4736-9472-6f6e652e6b69,rev?*%
%TF.SameCoordinates,Original*%
%TF.FileFunction,Copper,L1,Top*%
%TF.FilePolarity,Positive*%
%FSLAX46Y46*%
G04 Gerber Fmt 4.6, Leading zero omitted, Abs format (unit mm)*
G04 Created by KiCad (PCBNEW 7.0.11+dfsg-1build4) date 2026-06-13 08:25:08*
%MOMM*%
%LPD*%
G01*
G04 APERTURE LIST*
G04 Aperture macros list*
%AMRoundRect*
0 Rectangle with rounded corners*
0 $1 Rounding radius*
0 $2 $3 $4 $5 $6 $7 $8 $9 X,Y pos of 4 corners*
0 Add a 4 corners polygon primitive as box body*
4,1,4,$2,$3,$4,$5,$6,$7,$8,$9,$2,$3,0*
0 Add four circle primitives for the rounded corners*
1,1,$1+$1,$2,$3*
1,1,$1+$1,$4,$5*
1,1,$1+$1,$6,$7*
1,1,$1+$1,$8,$9*
0 Add four rect primitives between the rounded corners*
20,1,$1+$1,$2,$3,$4,$5,0*
20,1,$1+$1,$4,$5,$6,$7,0*
20,1,$1+$1,$6,$7,$8,$9,0*
20,1,$1+$1,$8,$9,$2,$3,0*%
%AMFreePoly0*
4,1,6,0.725000,-0.725000,-0.725000,-0.725000,-0.725000,0.125000,-0.125000,0.725000,0.725000,0.725000,0.725000,-0.725000,0.725000,-0.725000,$1*%
G04 Aperture macros list end*
%TA.AperFunction,SMDPad,CuDef*%
%ADD10RoundRect,0.135000X-0.135000X-0.185000X0.135000X-0.185000X0.135000X0.185000X-0.135000X0.185000X0*%
%TD*%
%TA.AperFunction,SMDPad,CuDef*%
%ADD11O,0.650000X0.200000*%
%TD*%
%TA.AperFunction,SMDPad,CuDef*%
%ADD12O,0.200000X0.650000*%
%TD*%
%TA.AperFunction,SMDPad,CuDef*%
%ADD13R,2.100000X2.100000*%
%TD*%
%TA.AperFunction,SMDPad,CuDef*%
%ADD14RoundRect,0.250000X-0.250000X-0.475000X0.250000X-0.475000X0.250000X0.475000X-0.250000X0.475000X0*%
%TD*%
%TA.AperFunction,SMDPad,CuDef*%
%ADD15RoundRect,0.140000X-0.140000X-0.170000X0.140000X-0.170000X0.140000X0.170000X-0.140000X0.170000X0*%
%TD*%
%TA.AperFunction,SMDPad,CuDef*%
%ADD16RoundRect,0.225000X-0.225000X-0.250000X0.225000X-0.250000X0.225000X0.250000X-0.225000X0.250000X0*%
%TD*%
%TA.AperFunction,SMDPad,CuDef*%
%ADD17R,0.600000X1.450000*%
%TD*%
%TA.AperFunction,SMDPad,CuDef*%
%ADD18R,0.300000X1.450000*%
%TD*%
%TA.AperFunction,ComponentPad*%
%ADD19O,1.000000X2.100000*%
%TD*%
%TA.AperFunction,ComponentPad*%
%ADD20O,1.000000X1.600000*%
%TD*%
%TA.AperFunction,SMDPad,CuDef*%
%ADD21R,0.800000X0.400000*%
%TD*%
%TA.AperFunction,SMDPad,CuDef*%
%ADD22R,0.400000X0.800000*%
%TD*%
%TA.AperFunction,SMDPad,CuDef*%
%ADD23FreePoly0,0.000000*%
%TD*%
%TA.AperFunction,SMDPad,CuDef*%
%ADD24R,1.450000X1.450000*%
%TD*%
%TA.AperFunction,SMDPad,CuDef*%
%ADD25R,0.700000X0.700000*%
%TD*%
%TA.AperFunction,SMDPad,CuDef*%
%ADD26RoundRect,0.150000X-0.825000X-0.150000X0.825000X-0.150000X0.825000X0.150000X-0.825000X0.150000X0*%
%TD*%
%TA.AperFunction,SMDPad,CuDef*%
%ADD27RoundRect,0.250000X-1.000000X-0.650000X1.000000X-0.650000X1.000000X0.650000X-1.000000X0.650000X0*%
%TD*%
%TA.AperFunction,ComponentPad*%
%ADD28R,1.000000X1.000000*%
%TD*%
%TA.AperFunction,ComponentPad*%
%ADD29O,1.000000X1.000000*%
%TD*%
%TA.AperFunction,SMDPad,CuDef*%
%ADD30RoundRect,0.218750X-0.218750X-0.381250X0.218750X-0.381250X0.218750X0.381250X-0.218750X0.381250X0*%
%TD*%
%TA.AperFunction,SMDPad,CuDef*%
%ADD31RoundRect,0.150000X-0.587500X-0.150000X0.587500X-0.150000X0.587500X0.150000X-0.587500X0.150000X0*%
%TD*%
%TA.AperFunction,ComponentPad*%
%ADD32R,1.700000X1.700000*%
%TD*%
%TA.AperFunction,ComponentPad*%
%ADD33O,1.700000X1.700000*%
%TD*%
%TA.AperFunction,SMDPad,CuDef*%
%ADD34RoundRect,0.250000X-0.250000X-1.500000X0.250000X-1.500000X0.250000X1.500000X-0.250000X1.500000X0*%
%TD*%
%TA.AperFunction,SMDPad,CuDef*%
%ADD35RoundRect,0.250001X-0.499999X-1.449999X0.499999X-1.449999X0.499999X1.449999X-0.499999X1.449999X0*%
%TD*%
%TA.AperFunction,SMDPad,CuDef*%
%ADD36R,0.300000X1.300000*%
%TD*%
%TA.AperFunction,SMDPad,CuDef*%
%ADD37R,1.800000X2.200000*%
%TD*%
%TA.AperFunction,SMDPad,CuDef*%
%ADD38R,1.500000X1.500000*%
%TD*%
%TA.AperFunction,SMDPad,CuDef*%
%ADD39R,0.350000X0.500000*%
%TD*%
%TA.AperFunction,SMDPad,CuDef*%
%ADD40RoundRect,0.062500X-0.062500X-0.350000X0.062500X-0.350000X0.062500X0.350000X-0.062500X0.350000X0*%
%TD*%
%TA.AperFunction,SMDPad,CuDef*%
%ADD41RoundRect,0.062500X-0.350000X-0.062500X0.350000X-0.062500X0.350000X0.062500X-0.350000X0.062500X0*%
%TD*%
%TA.AperFunction,HeatsinkPad*%
%ADD42R,1.000000X1.500000*%
%TD*%
%TA.AperFunction,HeatsinkPad*%
%ADD43R,2.410000X3.810000*%
%TD*%
%TA.AperFunction,SMDPad,CuDef*%
%ADD44RoundRect,0.218750X-0.218750X-0.256250X0.218750X-0.256250X0.218750X0.256250X-0.218750X0.256250X0*%
%TD*%
%TA.AperFunction,SMDPad,CuDef*%
%ADD45R,1.400000X1.200000*%
%TD*%
%TA.AperFunction,SMDPad,CuDef*%
%ADD46RoundRect,0.150000X-0.150000X0.587500X-0.150000X-0.587500X0.150000X-0.587500X0.150000X0.587500X0*%
%TD*%
%TA.AperFunction,SMDPad,CuDef*%
%ADD47RoundRect,0.150000X-0.512500X-0.150000X0.512500X-0.150000X0.512500X0.150000X-0.512500X0.150000X0*%
%TD*%
G04 APERTURE END LIST*
D10*
%TO.P,R22,1*%
%TO.N,M1_G*%
X8090000Y-20599999D03*
%TO.P,R22,2*%
%TO.N,M1_GATE*%
X9110000Y-20599999D03*
%TD*%
%TO.P,R3,1*%
%TO.N,PROG*%
X8090000Y-14000000D03*
%TO.P,R3,2*%
%TO.N,GND*%
X9110000Y-14000000D03*
%TD*%
%TO.P,R5,1*%
%TO.N,FB3V3*%
X23489999Y-14000000D03*
%TO.P,R5,2*%
%TO.N,GND*%
X24509999Y-14000000D03*
%TD*%
D11*
%TO.P,U1,1*%
%TO.N,N/C*%
X16125000Y-16625000D03*
%TO.P,U1,2*%
X16125000Y-16975000D03*
%TO.P,U1,3*%
X16125000Y-17325000D03*
%TO.P,U1,4*%
X16125000Y-17675000D03*
%TO.P,U1,5*%
X16125000Y-18025000D03*
%TO.P,U1,6*%
X16125000Y-18375000D03*
%TO.P,U1,7*%
%TO.N,I2C_SDA*%
X16125000Y-18725000D03*
%TO.P,U1,8*%
%TO.N,I2C_SCL*%
X16125000Y-19075000D03*
%TO.P,U1,9*%
%TO.N,3V3*%
X16125000Y-19425000D03*
%TO.P,U1,10*%
%TO.N,SPI_SCLK*%
X16125000Y-19775000D03*
%TO.P,U1,11*%
%TO.N,SPI_MOSI*%
X16125000Y-20125000D03*
%TO.P,U1,12*%
%TO.N,SPI_MISO*%
X16125000Y-20475000D03*
%TO.P,U1,13*%
%TO.N,CS_IMU*%
X16125000Y-20825000D03*
%TO.P,U1,14*%
%TO.N,CS_FLOW*%
X16125000Y-21175000D03*
%TO.P,U1,15*%
%TO.N,SDIO_D0*%
X16125000Y-21525000D03*
%TO.P,U1,16*%
%TO.N,SDIO_D1*%
X16125000Y-21875000D03*
%TO.P,U1,17*%
%TO.N,SDIO_D2*%
X16125000Y-22225000D03*
%TO.P,U1,18*%
%TO.N,SDIO_D3*%
X16125000Y-22575000D03*
%TO.P,U1,19*%
%TO.N,SDIO_CLK*%
X16125000Y-22925000D03*
%TO.P,U1,20*%
%TO.N,SDIO_CMD*%
X16125000Y-23275000D03*
%TO.P,U1,21*%
%TO.N,3V3*%
X16125000Y-23625000D03*
%TO.P,U1,22*%
%TO.N,VBAT_SENSE*%
X16125000Y-23975000D03*
%TO.P,U1,23*%
%TO.N,IMU_INT*%
X16125000Y-24325000D03*
%TO.P,U1,24*%
%TO.N,EXP_IO*%
X16125000Y-24675000D03*
%TO.P,U1,25*%
%TO.N,VL53_XSHUT*%
X16125000Y-25025000D03*
%TO.P,U1,26*%
%TO.N,3V3*%
X16125000Y-25375000D03*
D12*
%TO.P,U1,27*%
%TO.N,FLASH_CS*%
X16625000Y-25875000D03*
%TO.P,U1,28*%
%TO.N,FLASH_IO1*%
X16975000Y-25875000D03*
%TO.P,U1,29*%
%TO.N,FLASH_IO2*%
X17325000Y-25875000D03*
%TO.P,U1,30*%
%TO.N,3V3*%
X17675000Y-25875000D03*
%TO.P,U1,31*%
%TO.N,FLASH_IO3*%
X18025000Y-25875000D03*
%TO.P,U1,32*%
%TO.N,FLASH_CK*%
X18375000Y-25875000D03*
%TO.P,U1,33*%
%TO.N,FLASH_IO0*%
X18725000Y-25875000D03*
%TO.P,U1,34*%
%TO.N,DSI_REXT*%
X19075000Y-25875000D03*
%TO.P,U1,35*%
%TO.N,N/C*%
X19425000Y-25875000D03*
%TO.P,U1,36*%
X19775000Y-25875000D03*
%TO.P,U1,37*%
X20125000Y-25875000D03*
%TO.P,U1,38*%
X20475000Y-25875000D03*
%TO.P,U1,39*%
X20825000Y-25875000D03*
%TO.P,U1,40*%
X21175000Y-25875000D03*
%TO.P,U1,41*%
%TO.N,VDD_MIPI*%
X21525000Y-25875000D03*
%TO.P,U1,42*%
%TO.N,CSI_D0N*%
X21875000Y-25875000D03*
%TO.P,U1,43*%
%TO.N,CSI_D0P*%
X22225000Y-25875000D03*
%TO.P,U1,44*%
%TO.N,CSI_CKP*%
X22575000Y-25875000D03*
%TO.P,U1,45*%
%TO.N,CSI_CKN*%
X22925000Y-25875000D03*
%TO.P,U1,46*%
%TO.N,CSI_D1N*%
X23275000Y-25875000D03*
%TO.P,U1,47*%
%TO.N,CSI_D1P*%
X23625000Y-25875000D03*
%TO.P,U1,48*%
%TO.N,CSI_REXT*%
X23975000Y-25875000D03*
%TO.P,U1,49*%
%TO.N,USB_DM_MCU*%
X24325000Y-25875000D03*
%TO.P,U1,50*%
%TO.N,USB_DP_MCU*%
X24675000Y-25875000D03*
%TO.P,U1,51*%
%TO.N,3V3*%
X25025000Y-25875000D03*
%TO.P,U1,52*%
%TO.N,LED_DIN*%
X25375000Y-25875000D03*
D11*
%TO.P,U1,53*%
%TO.N,CAM_PWDN*%
X25875000Y-25375000D03*
%TO.P,U1,54*%
%TO.N,N/C*%
X25875000Y-25025000D03*
%TO.P,U1,55*%
X25875000Y-24675000D03*
%TO.P,U1,56*%
X25875000Y-24325000D03*
%TO.P,U1,57*%
X25875000Y-23975000D03*
%TO.P,U1,58*%
X25875000Y-23625000D03*
%TO.P,U1,59*%
%TO.N,3V3*%
X25875000Y-23275000D03*
%TO.P,U1,60*%
%TO.N,N/C*%
X25875000Y-22925000D03*
%TO.P,U1,61*%
X25875000Y-22575000D03*
%TO.P,U1,62*%
%TO.N,3V3*%
X25875000Y-22225000D03*
%TO.P,U1,63*%
%TO.N,N/C*%
X25875000Y-21875000D03*
%TO.P,U1,64*%
X25875000Y-21525000D03*
%TO.P,U1,65*%
X25875000Y-21175000D03*
%TO.P,U1,66*%
%TO.N,BOOT*%
X25875000Y-20825000D03*
%TO.P,U1,67*%
%TO.N,3V3*%
X25875000Y-20475000D03*
%TO.P,U1,68*%
%TO.N,N/C*%
X25875000Y-20125000D03*
%TO.P,U1,69*%
%TO.N,U0TXD*%
X25875000Y-19775000D03*
%TO.P,U1,70*%
%TO.N,U0RXD*%
X25875000Y-19425000D03*
%TO.P,U1,71*%
%TO.N,3V3*%
X25875000Y-19075000D03*
%TO.P,U1,72*%
X25875000Y-18725000D03*
%TO.P,U1,73*%
X25875000Y-18375000D03*
%TO.P,U1,74*%
X25875000Y-18025000D03*
%TO.P,U1,75*%
X25875000Y-17675000D03*
%TO.P,U1,76*%
X25875000Y-17325000D03*
%TO.P,U1,77*%
%TO.N,VDD_DCDCC*%
X25875000Y-16975000D03*
%TO.P,U1,78*%
%TO.N,VDD_CORE*%
X25875000Y-16625000D03*
D12*
%TO.P,U1,79*%
%TO.N,3V3*%
X25375000Y-16125000D03*
%TO.P,U1,80*%
%TO.N,N/C*%
X25025000Y-16125000D03*
%TO.P,U1,81*%
X24675000Y-16125000D03*
%TO.P,U1,82*%
X24325000Y-16125000D03*
%TO.P,U1,83*%
X23975000Y-16125000D03*
%TO.P,U1,84*%
X23625000Y-16125000D03*
%TO.P,U1,85*%
%TO.N,3V3*%
X23275000Y-16125000D03*
%TO.P,U1,86*%
%TO.N,N/C*%
X22925000Y-16125000D03*
%TO.P,U1,87*%
%TO.N,M1_G*%
X22575000Y-16125000D03*
%TO.P,U1,88*%
%TO.N,M2_G*%
X22225000Y-16125000D03*
%TO.P,U1,89*%
%TO.N,M3_G*%
X21875000Y-16125000D03*
%TO.P,U1,90*%
%TO.N,M4_G*%
X21525000Y-16125000D03*
%TO.P,U1,91*%
%TO.N,3V3*%
X21175000Y-16125000D03*
%TO.P,U1,92*%
%TO.N,N/C*%
X20825000Y-16125000D03*
%TO.P,U1,93*%
X20475000Y-16125000D03*
%TO.P,U1,94*%
X20125000Y-16125000D03*
%TO.P,U1,95*%
X19775000Y-16125000D03*
%TO.P,U1,96*%
%TO.N,3V3*%
X19425000Y-16125000D03*
%TO.P,U1,97*%
%TO.N,N/C*%
X19075000Y-16125000D03*
%TO.P,U1,98*%
%TO.N,C6_EN*%
X18725000Y-16125000D03*
%TO.P,U1,99*%
%TO.N,XTAL_N*%
X18375000Y-16125000D03*
%TO.P,U1,100*%
%TO.N,XTAL_P*%
X18025000Y-16125000D03*
%TO.P,U1,101*%
%TO.N,3V3*%
X17675000Y-16125000D03*
%TO.P,U1,102*%
X17325000Y-16125000D03*
%TO.P,U1,103*%
%TO.N,CHIP_PU*%
X16975000Y-16125000D03*
%TO.P,U1,104*%
%TO.N,GPIO0*%
X16625000Y-16125000D03*
D13*
%TO.P,U1,105*%
%TO.N,GND*%
X18300000Y-18300000D03*
X18300000Y-21000000D03*
X18300000Y-23700000D03*
X21000000Y-18300000D03*
X21000000Y-21000000D03*
X21000000Y-23700000D03*
X23700000Y-18300000D03*
X23700000Y-21000000D03*
X23700000Y-23700000D03*
%TD*%
D14*
%TO.P,C4,1*%
%TO.N,3V3*%
X18649999Y-14000000D03*
%TO.P,C4,2*%
%TO.N,GND*%
X20549999Y-14000000D03*
%TD*%
D15*
%TO.P,C28,1*%
%TO.N,3V3*%
X34520000Y-18400000D03*
%TO.P,C28,2*%
%TO.N,GND*%
X35480000Y-18400000D03*
%TD*%
D10*
%TO.P,R6,1*%
%TO.N,3V3_EN*%
X25689999Y-14000000D03*
%TO.P,R6,2*%
%TO.N,VBAT*%
X26709999Y-14000000D03*
%TD*%
D16*
%TO.P,C26,1*%
%TO.N,3V3*%
X29824999Y-18400000D03*
%TO.P,C26,2*%
%TO.N,GND*%
X31374999Y-18400000D03*
%TD*%
D17*
%TO.P,J2,A1*%
%TO.N,GND*%
X17750000Y-35455000D03*
%TO.P,J2,A4*%
%TO.N,VBUS*%
X18550000Y-35455000D03*
D18*
%TO.P,J2,A5*%
%TO.N,CC1*%
X19750000Y-35455000D03*
%TO.P,J2,A6*%
%TO.N,USB_DP_C*%
X20750000Y-35455000D03*
%TO.P,J2,A7*%
%TO.N,USB_DM_C*%
X21250000Y-35455000D03*
%TO.P,J2,A8*%
%TO.N,N/C*%
X22250000Y-35455000D03*
D17*
%TO.P,J2,A9*%
%TO.N,VBUS*%
X23450000Y-35455000D03*
%TO.P,J2,A12*%
%TO.N,GND*%
X24250000Y-35455000D03*
%TO.P,J2,B1*%
X24250000Y-35455000D03*
%TO.P,J2,B4*%
%TO.N,VBUS*%
X23450000Y-35455000D03*
D18*
%TO.P,J2,B5*%
%TO.N,CC2*%
X22750000Y-35455000D03*
%TO.P,J2,B6*%
%TO.N,USB_DP_C*%
X21750000Y-35455000D03*
%TO.P,J2,B7*%
%TO.N,USB_DM_C*%
X20250000Y-35455000D03*
%TO.P,J2,B8*%
%TO.N,N/C*%
X19250000Y-35455000D03*
D17*
%TO.P,J2,B9*%
%TO.N,VBUS*%
X18550000Y-35455000D03*
%TO.P,J2,B12*%
%TO.N,GND*%
X17750000Y-35455000D03*
D19*
%TO.P,J2,S1*%
X16680000Y-36370000D03*
D20*
X16680000Y-40550000D03*
D19*
X25320000Y-36370000D03*
D20*
X25320000Y-40550000D03*
%TD*%
D15*
%TO.P,C18,1*%
%TO.N,3V3*%
X12520000Y-18400000D03*
%TO.P,C18,2*%
%TO.N,GND*%
X13480000Y-18400000D03*
%TD*%
D10*
%TO.P,R4,1*%
%TO.N,3V3*%
X21289999Y-14000000D03*
%TO.P,R4,2*%
%TO.N,FB3V3*%
X22309999Y-14000000D03*
%TD*%
D15*
%TO.P,C8,1*%
%TO.N,XTAL_P*%
X1520000Y-16200000D03*
%TO.P,C8,2*%
%TO.N,GND*%
X2480000Y-16200000D03*
%TD*%
D21*
%TO.P,U3,1*%
%TO.N,GND*%
X15100000Y-5200000D03*
%TO.P,U3,2*%
X15100000Y-6000000D03*
%TO.P,U3,3*%
%TO.N,3V3*%
X15100000Y-6800000D03*
%TO.P,U3,4*%
%TO.N,N/C*%
X15100000Y-7600000D03*
%TO.P,U3,5*%
X15100000Y-8400000D03*
%TO.P,U3,6*%
X15100000Y-9200000D03*
%TO.P,U3,7*%
X15100000Y-10000000D03*
%TO.P,U3,8*%
%TO.N,C6_EN*%
X15100000Y-10800000D03*
%TO.P,U3,9*%
%TO.N,N/C*%
X15100000Y-11600000D03*
%TO.P,U3,10*%
X15100000Y-12400000D03*
%TO.P,U3,11*%
%TO.N,GND*%
X15100000Y-13200000D03*
D22*
%TO.P,U3,12*%
%TO.N,N/C*%
X16200000Y-14100000D03*
%TO.P,U3,13*%
X17000000Y-14100000D03*
%TO.P,U3,14*%
%TO.N,GND*%
X17800000Y-14100000D03*
%TO.P,U3,15*%
%TO.N,N/C*%
X18600000Y-14100000D03*
%TO.P,U3,16*%
X19400000Y-14100000D03*
%TO.P,U3,17*%
X20200000Y-14100000D03*
%TO.P,U3,18*%
X21000000Y-14100000D03*
%TO.P,U3,19*%
X21800000Y-14100000D03*
%TO.P,U3,20*%
X22600000Y-14100000D03*
%TO.P,U3,21*%
X23400000Y-14100000D03*
%TO.P,U3,22*%
X24200000Y-14100000D03*
%TO.P,U3,23*%
%TO.N,C6_BOOT*%
X25000000Y-14100000D03*
%TO.P,U3,24*%
%TO.N,SDIO_CMD*%
X25800000Y-14100000D03*
D21*
%TO.P,U3,25*%
%TO.N,SDIO_CLK*%
X26900000Y-13200000D03*
%TO.P,U3,26*%
%TO.N,SDIO_D0*%
X26900000Y-12400000D03*
%TO.P,U3,27*%
%TO.N,SDIO_D1*%
X26900000Y-11600000D03*
%TO.P,U3,28*%
%TO.N,SDIO_D2*%
X26900000Y-10800000D03*
%TO.P,U3,29*%
%TO.N,SDIO_D3*%
X26900000Y-10000000D03*
%TO.P,U3,30*%
%TO.N,C6_U0RXD*%
X26900000Y-9200000D03*
%TO.P,U3,31*%
%TO.N,C6_U0TXD*%
X26900000Y-8400000D03*
%TO.P,U3,32*%
%TO.N,N/C*%
X26900000Y-7600000D03*
%TO.P,U3,33*%
X26900000Y-6800000D03*
%TO.P,U3,34*%
X26900000Y-6000000D03*
%TO.P,U3,35*%
X26900000Y-5200000D03*
D22*
%TO.P,U3,36*%
%TO.N,GND*%
X25800000Y-4300000D03*
%TO.P,U3,37*%
X25000000Y-4300000D03*
%TO.P,U3,38*%
X24200000Y-4300000D03*
%TO.P,U3,39*%
X23400000Y-4300000D03*
%TO.P,U3,40*%
X22600000Y-4300000D03*
%TO.P,U3,41*%
X21800000Y-4300000D03*
%TO.P,U3,42*%
X21000000Y-4300000D03*
%TO.P,U3,43*%
X20200000Y-4300000D03*
%TO.P,U3,44*%
X19400000Y-4300000D03*
%TO.P,U3,45*%
X18600000Y-4300000D03*
%TO.P,U3,46*%
X17800000Y-4300000D03*
%TO.P,U3,47*%
X17000000Y-4300000D03*
%TO.P,U3,48*%
X16200000Y-4300000D03*
D23*
%TO.P,U3,49*%
X19025000Y-7225000D03*
D24*
X19025000Y-9200000D03*
X19025000Y-11175000D03*
X21000000Y-7225000D03*
X21000000Y-9200000D03*
X21000000Y-11175000D03*
X22975000Y-7225000D03*
X22975000Y-9200000D03*
X22975000Y-11175000D03*
D25*
%TO.P,U3,50*%
X26950000Y-4250000D03*
%TO.P,U3,51*%
X26950000Y-14150000D03*
%TO.P,U3,52*%
X15050000Y-14150000D03*
%TO.P,U3,53*%
X15050000Y-4250000D03*
%TD*%
D26*
%TO.P,U2,1*%
%TO.N,FLASH_CS*%
X30025000Y-11095000D03*
%TO.P,U2,2*%
%TO.N,FLASH_IO1*%
X30025000Y-12365000D03*
%TO.P,U2,3*%
%TO.N,FLASH_IO2*%
X30025000Y-13635000D03*
%TO.P,U2,4*%
%TO.N,GND*%
X30025000Y-14905000D03*
%TO.P,U2,5*%
%TO.N,FLASH_IO0*%
X34975000Y-14905000D03*
%TO.P,U2,6*%
%TO.N,FLASH_CK*%
X34975000Y-13635000D03*
%TO.P,U2,7*%
%TO.N,FLASH_IO3*%
X34975000Y-12365000D03*
%TO.P,U2,8*%
%TO.N,3V3*%
X34975000Y-11095000D03*
%TD*%
D15*
%TO.P,C10,1*%
%TO.N,CHIP_PU*%
X8120000Y-16200000D03*
%TO.P,C10,2*%
%TO.N,GND*%
X9080000Y-16200000D03*
%TD*%
D10*
%TO.P,R7,1*%
%TO.N,VBAT*%
X32289999Y-14000000D03*
%TO.P,R7,2*%
%TO.N,VBAT_SENSE*%
X33309999Y-14000000D03*
%TD*%
D27*
%TO.P,D4,1*%
%TO.N,VBAT*%
X17599999Y-20599999D03*
%TO.P,D4,2*%
%TO.N,M2_D*%
X21599999Y-20599999D03*
%TD*%
D10*
%TO.P,R8,1*%
%TO.N,VBAT_SENSE*%
X34490000Y-14000000D03*
%TO.P,R8,2*%
%TO.N,GND*%
X35510000Y-14000000D03*
%TD*%
%TO.P,R24,1*%
%TO.N,M3_G*%
X21289999Y-20599999D03*
%TO.P,R24,2*%
%TO.N,M3_GATE*%
X22309999Y-20599999D03*
%TD*%
D28*
%TO.P,J10,1*%
%TO.N,GND*%
X39000000Y-25000000D03*
D29*
%TO.P,J10,2*%
%TO.N,U0TXD*%
X39000000Y-26270000D03*
%TO.P,J10,3*%
%TO.N,U0RXD*%
X39000000Y-27540000D03*
%TO.P,J10,4*%
%TO.N,3V3*%
X39000000Y-28810000D03*
%TD*%
D15*
%TO.P,C24,1*%
%TO.N,3V3*%
X25719999Y-18400000D03*
%TO.P,C24,2*%
%TO.N,GND*%
X26679999Y-18400000D03*
%TD*%
D30*
%TO.P,L1,1*%
%TO.N,SW3V3*%
X16437500Y-34000000D03*
%TO.P,L1,2*%
%TO.N,3V3*%
X18562500Y-34000000D03*
%TD*%
D28*
%TO.P,J9,1*%
%TO.N,3V3*%
X39000000Y-19000000D03*
D29*
%TO.P,J9,2*%
%TO.N,GND*%
X39000000Y-20270000D03*
%TO.P,J9,3*%
%TO.N,VBAT*%
X39000000Y-21540000D03*
%TO.P,J9,4*%
%TO.N,I2C_SDA*%
X39000000Y-22810000D03*
%TO.P,J9,5*%
%TO.N,I2C_SCL*%
X39000000Y-24080000D03*
%TO.P,J9,6*%
%TO.N,EXP_IO*%
X39000000Y-25350000D03*
%TD*%
D10*
%TO.P,R11,1*%
%TO.N,CSI_REXT*%
X12490000Y-16200000D03*
%TO.P,R11,2*%
%TO.N,GND*%
X13510000Y-16200000D03*
%TD*%
D15*
%TO.P,C34,1*%
%TO.N,VBAT*%
X34520000Y-20599999D03*
%TO.P,C34,2*%
%TO.N,GND*%
X35480000Y-20599999D03*
%TD*%
D10*
%TO.P,R15,1*%
%TO.N,3V3*%
X21289999Y-16200000D03*
%TO.P,R15,2*%
%TO.N,FLASH_IO3*%
X22309999Y-16200000D03*
%TD*%
D31*
%TO.P,Q2,1*%
%TO.N,M2_D*%
X34062500Y-32050000D03*
%TO.P,Q2,2*%
%TO.N,GND*%
X34062500Y-33950000D03*
%TO.P,Q2,3*%
%TO.N,M2_GATE*%
X35937500Y-33000000D03*
%TD*%
D10*
%TO.P,R29,1*%
%TO.N,M4_GATE*%
X30089999Y-20599999D03*
%TO.P,R29,2*%
%TO.N,GND*%
X31109999Y-20599999D03*
%TD*%
D15*
%TO.P,C15,1*%
%TO.N,3V3*%
X5920000Y-18400000D03*
%TO.P,C15,2*%
%TO.N,GND*%
X6880000Y-18400000D03*
%TD*%
%TO.P,C22,1*%
%TO.N,3V3*%
X21319999Y-18400000D03*
%TO.P,C22,2*%
%TO.N,GND*%
X22279999Y-18400000D03*
%TD*%
D31*
%TO.P,Q1,1*%
%TO.N,M1_D*%
X34062500Y-8050000D03*
%TO.P,Q1,2*%
%TO.N,GND*%
X34062500Y-9950000D03*
%TO.P,Q1,3*%
%TO.N,M1_GATE*%
X35937500Y-9000000D03*
%TD*%
D10*
%TO.P,R13,1*%
%TO.N,3V3*%
X16890000Y-16200000D03*
%TO.P,R13,2*%
%TO.N,FLASH_CS*%
X17910000Y-16200000D03*
%TD*%
%TO.P,R1,1*%
%TO.N,CC1*%
X1490000Y-14000000D03*
%TO.P,R1,2*%
%TO.N,GND*%
X2510000Y-14000000D03*
%TD*%
D16*
%TO.P,C5,1*%
%TO.N,VDD_CORE*%
X29824999Y-14000000D03*
%TO.P,C5,2*%
%TO.N,GND*%
X31374999Y-14000000D03*
%TD*%
D10*
%TO.P,R16,1*%
%TO.N,3V3*%
X23489999Y-16200000D03*
%TO.P,R16,2*%
%TO.N,SDIO_CMD*%
X24509999Y-16200000D03*
%TD*%
D15*
%TO.P,C35,1*%
%TO.N,VBAT*%
X36720000Y-20599999D03*
%TO.P,C35,2*%
%TO.N,GND*%
X37680000Y-20599999D03*
%TD*%
%TO.P,C12,1*%
%TO.N,3V3*%
X38920000Y-16200000D03*
%TO.P,C12,2*%
%TO.N,GND*%
X39880000Y-16200000D03*
%TD*%
D32*
%TO.P,J6,1*%
%TO.N,VBAT*%
X38500000Y-36500000D03*
D33*
%TO.P,J6,2*%
%TO.N,M2_D*%
X38500000Y-39040000D03*
%TD*%
D15*
%TO.P,C30,1*%
%TO.N,3V3*%
X38920000Y-18400000D03*
%TO.P,C30,2*%
%TO.N,GND*%
X39880000Y-18400000D03*
%TD*%
%TO.P,C23,1*%
%TO.N,3V3*%
X23519999Y-18400000D03*
%TO.P,C23,2*%
%TO.N,GND*%
X24479999Y-18400000D03*
%TD*%
D27*
%TO.P,D6,1*%
%TO.N,VBAT*%
X30799999Y-20599999D03*
%TO.P,D6,2*%
%TO.N,M4_D*%
X34799999Y-20599999D03*
%TD*%
D34*
%TO.P,J1,1*%
%TO.N,VBAT*%
X31000000Y-36150000D03*
%TO.P,J1,2*%
%TO.N,GND*%
X33000000Y-36150000D03*
D35*
%TO.P,J1,MP*%
%TO.N,N/C*%
X28650000Y-41900000D03*
X35350000Y-41900000D03*
%TD*%
D25*
%TO.P,LED2,1*%
%TO.N,VBAT*%
X32085000Y-8450000D03*
%TO.P,LED2,2*%
%TO.N,LED_D12*%
X32085000Y-9550000D03*
%TO.P,LED2,3*%
%TO.N,GND*%
X33915000Y-9550000D03*
%TO.P,LED2,4*%
%TO.N,LED_DOUT*%
X33915000Y-8450000D03*
%TD*%
D36*
%TO.P,J4,1*%
%TO.N,GND*%
X17500000Y-750000D03*
%TO.P,J4,2*%
%TO.N,CSI_D0N*%
X18000000Y-750000D03*
%TO.P,J4,3*%
%TO.N,CSI_D0P*%
X18500000Y-750000D03*
%TO.P,J4,4*%
%TO.N,GND*%
X19000000Y-750000D03*
%TO.P,J4,5*%
%TO.N,CSI_D1N*%
X19500000Y-750000D03*
%TO.P,J4,6*%
%TO.N,CSI_D1P*%
X20000000Y-750000D03*
%TO.P,J4,7*%
%TO.N,GND*%
X20500000Y-750000D03*
%TO.P,J4,8*%
%TO.N,CSI_CKN*%
X21000000Y-750000D03*
%TO.P,J4,9*%
%TO.N,CSI_CKP*%
X21500000Y-750000D03*
%TO.P,J4,10*%
%TO.N,GND*%
X22000000Y-750000D03*
%TO.P,J4,11*%
%TO.N,CAM_PWDN*%
X22500000Y-750000D03*
%TO.P,J4,12*%
%TO.N,CAM_GPIO*%
X23000000Y-750000D03*
%TO.P,J4,13*%
%TO.N,I2C_SCL*%
X23500000Y-750000D03*
%TO.P,J4,14*%
%TO.N,I2C_SDA*%
X24000000Y-750000D03*
%TO.P,J4,15*%
%TO.N,3V3*%
X24500000Y-750000D03*
D37*
%TO.P,J4,MP*%
%TO.N,N/C*%
X15600000Y-4000000D03*
X26400000Y-4000000D03*
%TD*%
D38*
%TO.P,SW2,1*%
%TO.N,BOOT*%
X-400000Y-27000000D03*
%TO.P,SW2,2*%
%TO.N,GND*%
X7400000Y-27000000D03*
%TD*%
D15*
%TO.P,C21,1*%
%TO.N,3V3*%
X19119999Y-18400000D03*
%TO.P,C21,2*%
%TO.N,GND*%
X20079999Y-18400000D03*
%TD*%
D32*
%TO.P,J5,1*%
%TO.N,VBAT*%
X38500000Y-5500000D03*
D33*
%TO.P,J5,2*%
%TO.N,M1_D*%
X38500000Y-8040000D03*
%TD*%
D10*
%TO.P,R10,1*%
%TO.N,3V3*%
X10290000Y-16200000D03*
%TO.P,R10,2*%
%TO.N,BOOT*%
X11310000Y-16200000D03*
%TD*%
%TO.P,R23,1*%
%TO.N,M2_G*%
X14690000Y-20599999D03*
%TO.P,R23,2*%
%TO.N,M2_GATE*%
X15710000Y-20599999D03*
%TD*%
D27*
%TO.P,D3,1*%
%TO.N,VBAT*%
X11000000Y-20599999D03*
%TO.P,D3,2*%
%TO.N,M1_D*%
X15000000Y-20599999D03*
%TD*%
D14*
%TO.P,C2,1*%
%TO.N,VBAT*%
X12050000Y-14000000D03*
%TO.P,C2,2*%
%TO.N,GND*%
X13950000Y-14000000D03*
%TD*%
D15*
%TO.P,C16,1*%
%TO.N,3V3*%
X8120000Y-18400000D03*
%TO.P,C16,2*%
%TO.N,GND*%
X9080000Y-18400000D03*
%TD*%
D14*
%TO.P,C3,1*%
%TO.N,VBAT*%
X16450000Y-14000000D03*
%TO.P,C3,2*%
%TO.N,GND*%
X18350000Y-14000000D03*
%TD*%
D39*
%TO.P,U7,1*%
%TO.N,I2C_SDA*%
X27025000Y-26200000D03*
%TO.P,U7,2*%
%TO.N,GND*%
X27675000Y-26200000D03*
%TO.P,U7,3*%
%TO.N,3V3*%
X28325000Y-26200000D03*
%TO.P,U7,4*%
%TO.N,I2C_SCL*%
X28975000Y-26200000D03*
%TO.P,U7,5*%
%TO.N,3V3*%
X28975000Y-27800000D03*
%TO.P,U7,6*%
%TO.N,GND*%
X28325000Y-27800000D03*
%TO.P,U7,7*%
X27675000Y-27800000D03*
%TO.P,U7,8*%
%TO.N,3V3*%
X27025000Y-27800000D03*
%TD*%
D10*
%TO.P,R19,1*%
%TO.N,3V3*%
X30089999Y-16200000D03*
%TO.P,R19,2*%
%TO.N,SDIO_D2*%
X31109999Y-16200000D03*
%TD*%
%TO.P,R25,1*%
%TO.N,M4_G*%
X27889999Y-20599999D03*
%TO.P,R25,2*%
%TO.N,M4_GATE*%
X28909999Y-20599999D03*
%TD*%
%TO.P,R21,1*%
%TO.N,3V3*%
X34490000Y-16200000D03*
%TO.P,R21,2*%
%TO.N,C6_BOOT*%
X35510000Y-16200000D03*
%TD*%
D27*
%TO.P,D2,1*%
%TO.N,VBAT*%
X13200000Y-14000000D03*
%TO.P,D2,2*%
%TO.N,VBUS*%
X17200000Y-14000000D03*
%TD*%
D10*
%TO.P,R20,1*%
%TO.N,3V3*%
X32289999Y-16200000D03*
%TO.P,R20,2*%
%TO.N,SDIO_D3*%
X33309999Y-16200000D03*
%TD*%
%TO.P,R12,1*%
%TO.N,DSI_REXT*%
X14690000Y-16200000D03*
%TO.P,R12,2*%
%TO.N,GND*%
X15710000Y-16200000D03*
%TD*%
D40*
%TO.P,U6,1*%
%TO.N,CS_IMU*%
X13250000Y-25562500D03*
D41*
%TO.P,U6,2*%
%TO.N,SPI_SCLK*%
X12312500Y-26000000D03*
%TO.P,U6,3*%
%TO.N,SPI_MOSI*%
X12312500Y-26500000D03*
%TO.P,U6,4*%
%TO.N,GND*%
X12312500Y-27000000D03*
%TO.P,U6,5*%
X12312500Y-27500000D03*
%TO.P,U6,6*%
X12312500Y-28000000D03*
D40*
%TO.P,U6,7*%
X13250000Y-28437500D03*
%TO.P,U6,8*%
X13750000Y-28437500D03*
D41*
%TO.P,U6,9*%
%TO.N,IMU_INT*%
X14687500Y-28000000D03*
%TO.P,U6,10*%
%TO.N,SPI_MISO*%
X14687500Y-27500000D03*
%TO.P,U6,11*%
%TO.N,3V3*%
X14687500Y-27000000D03*
%TO.P,U6,12*%
%TO.N,GND*%
X14687500Y-26500000D03*
%TO.P,U6,13*%
%TO.N,3V3*%
X14687500Y-26000000D03*
D40*
%TO.P,U6,14*%
%TO.N,GND*%
X13750000Y-25562500D03*
D42*
%TO.P,U6,15*%
%TO.N,N/C*%
X13500000Y-27000000D03*
%TD*%
D15*
%TO.P,C29,1*%
%TO.N,3V3*%
X36720000Y-18400000D03*
%TO.P,C29,2*%
%TO.N,GND*%
X37680000Y-18400000D03*
%TD*%
D38*
%TO.P,SW1,1*%
%TO.N,CHIP_PU*%
X-400000Y-21000000D03*
%TO.P,SW1,2*%
%TO.N,GND*%
X7400000Y-21000000D03*
%TD*%
D26*
%TO.P,U4,1*%
%TO.N,GND*%
X4525000Y-31095000D03*
%TO.P,U4,2*%
%TO.N,PROG*%
X4525000Y-32365000D03*
%TO.P,U4,3*%
%TO.N,GND*%
X4525000Y-33635000D03*
%TO.P,U4,4*%
%TO.N,VBUS*%
X4525000Y-34905000D03*
%TO.P,U4,5*%
%TO.N,VBAT*%
X9475000Y-34905000D03*
%TO.P,U4,6*%
X9475000Y-33635000D03*
%TO.P,U4,7*%
%TO.N,CHRG_N*%
X9475000Y-32365000D03*
%TO.P,U4,8*%
%TO.N,STDBY_N*%
X9475000Y-31095000D03*
D43*
%TO.P,U4,9*%
%TO.N,GND*%
X7000000Y-33000000D03*
%TD*%
D14*
%TO.P,C1,1*%
%TO.N,VBUS*%
X9850000Y-14000000D03*
%TO.P,C1,2*%
%TO.N,GND*%
X11750000Y-14000000D03*
%TD*%
D15*
%TO.P,C33,1*%
%TO.N,3V3*%
X5920000Y-20599999D03*
%TO.P,C33,2*%
%TO.N,GND*%
X6880000Y-20599999D03*
%TD*%
D10*
%TO.P,R26,1*%
%TO.N,M1_GATE*%
X10290000Y-20599999D03*
%TO.P,R26,2*%
%TO.N,GND*%
X11310000Y-20599999D03*
%TD*%
D44*
%TO.P,L2,1*%
%TO.N,VDD_DCDCC*%
X27612499Y-14000000D03*
%TO.P,L2,2*%
%TO.N,VDD_CORE*%
X29187499Y-14000000D03*
%TD*%
D15*
%TO.P,C17,1*%
%TO.N,3V3*%
X10320000Y-18400000D03*
%TO.P,C17,2*%
%TO.N,GND*%
X11280000Y-18400000D03*
%TD*%
D31*
%TO.P,Q4,1*%
%TO.N,M4_D*%
X8062500Y-12050000D03*
%TO.P,Q4,2*%
%TO.N,GND*%
X8062500Y-13950000D03*
%TO.P,Q4,3*%
%TO.N,M4_GATE*%
X9937500Y-13000000D03*
%TD*%
D25*
%TO.P,LED1,1*%
%TO.N,VBAT*%
X8085000Y-8450000D03*
%TO.P,LED1,2*%
%TO.N,LED_DIN*%
X8085000Y-9550000D03*
%TO.P,LED1,3*%
%TO.N,GND*%
X9915000Y-9550000D03*
%TO.P,LED1,4*%
%TO.N,LED_D12*%
X9915000Y-8450000D03*
%TD*%
D15*
%TO.P,C14,1*%
%TO.N,3V3*%
X3720000Y-18400000D03*
%TO.P,C14,2*%
%TO.N,GND*%
X4680000Y-18400000D03*
%TD*%
%TO.P,C9,1*%
%TO.N,XTAL_N*%
X3720000Y-16200000D03*
%TO.P,C9,2*%
%TO.N,GND*%
X4680000Y-16200000D03*
%TD*%
D16*
%TO.P,C27,1*%
%TO.N,3V3*%
X32024999Y-18400000D03*
%TO.P,C27,2*%
%TO.N,GND*%
X33574999Y-18400000D03*
%TD*%
D15*
%TO.P,C6,1*%
%TO.N,VBAT_SENSE*%
X36720000Y-14000000D03*
%TO.P,C6,2*%
%TO.N,GND*%
X37680000Y-14000000D03*
%TD*%
%TO.P,C11,1*%
%TO.N,VDD_CORE*%
X36720000Y-16200000D03*
%TO.P,C11,2*%
%TO.N,GND*%
X37680000Y-16200000D03*
%TD*%
D10*
%TO.P,R14,1*%
%TO.N,3V3*%
X19089999Y-16200000D03*
%TO.P,R14,2*%
%TO.N,FLASH_IO2*%
X20109999Y-16200000D03*
%TD*%
D15*
%TO.P,C7,1*%
%TO.N,VDD_MIPI*%
X38920000Y-14000000D03*
%TO.P,C7,2*%
%TO.N,GND*%
X39880000Y-14000000D03*
%TD*%
D45*
%TO.P,Y1,1*%
%TO.N,XTAL_P*%
X31400000Y-18850000D03*
%TO.P,Y1,2*%
%TO.N,GND*%
X33600000Y-18850000D03*
%TO.P,Y1,3*%
%TO.N,XTAL_N*%
X33600000Y-17150000D03*
%TO.P,Y1,4*%
%TO.N,GND*%
X31400000Y-17150000D03*
%TD*%
D32*
%TO.P,J8,1*%
%TO.N,VBAT*%
X3500000Y-5500000D03*
D33*
%TO.P,J8,2*%
%TO.N,M4_D*%
X3500000Y-8040000D03*
%TD*%
D10*
%TO.P,R2,1*%
%TO.N,CC2*%
X3690000Y-14000000D03*
%TO.P,R2,2*%
%TO.N,GND*%
X4710000Y-14000000D03*
%TD*%
D15*
%TO.P,C13,1*%
%TO.N,3V3*%
X1520000Y-18400000D03*
%TO.P,C13,2*%
%TO.N,GND*%
X2480000Y-18400000D03*
%TD*%
D46*
%TO.P,Q3,1*%
%TO.N,M3_D*%
X7950000Y-32062500D03*
%TO.P,Q3,2*%
%TO.N,GND*%
X6050000Y-32062500D03*
%TO.P,Q3,3*%
%TO.N,M3_GATE*%
X7000000Y-33937500D03*
%TD*%
D10*
%TO.P,R17,1*%
%TO.N,3V3*%
X25689999Y-16200000D03*
%TO.P,R17,2*%
%TO.N,SDIO_D0*%
X26709999Y-16200000D03*
%TD*%
D27*
%TO.P,D5,1*%
%TO.N,VBAT*%
X24199999Y-20599999D03*
%TO.P,D5,2*%
%TO.N,M3_D*%
X28199999Y-20599999D03*
%TD*%
D10*
%TO.P,R27,1*%
%TO.N,M2_GATE*%
X16890000Y-20599999D03*
%TO.P,R27,2*%
%TO.N,GND*%
X17910000Y-20599999D03*
%TD*%
D15*
%TO.P,C25,1*%
%TO.N,3V3*%
X27919999Y-18400000D03*
%TO.P,C25,2*%
%TO.N,GND*%
X28879999Y-18400000D03*
%TD*%
D10*
%TO.P,R18,1*%
%TO.N,3V3*%
X27889999Y-16200000D03*
%TO.P,R18,2*%
%TO.N,SDIO_D1*%
X28909999Y-16200000D03*
%TD*%
D15*
%TO.P,C19,1*%
%TO.N,3V3*%
X14720000Y-18400000D03*
%TO.P,C19,2*%
%TO.N,GND*%
X15680000Y-18400000D03*
%TD*%
D10*
%TO.P,R9,1*%
%TO.N,3V3*%
X5890000Y-16200000D03*
%TO.P,R9,2*%
%TO.N,CHIP_PU*%
X6910000Y-16200000D03*
%TD*%
D28*
%TO.P,J11,1*%
%TO.N,GND*%
X39000000Y-31000000D03*
D29*
%TO.P,J11,2*%
%TO.N,C6_U0TXD*%
X39000000Y-32270000D03*
%TO.P,J11,3*%
%TO.N,C6_U0RXD*%
X39000000Y-33540000D03*
%TO.P,J11,4*%
%TO.N,C6_BOOT*%
X39000000Y-34810000D03*
%TD*%
D47*
%TO.P,D1,1*%
%TO.N,USB_DP_C*%
X5262500Y-13050000D03*
%TO.P,D1,2*%
%TO.N,GND*%
X5262500Y-14000000D03*
%TO.P,D1,3*%
%TO.N,USB_DM_C*%
X5262500Y-14950000D03*
%TO.P,D1,4*%
%TO.N,USB_DM_MCU*%
X7537500Y-14950000D03*
%TO.P,D1,5*%
%TO.N,VBUS*%
X7537500Y-14000000D03*
%TO.P,D1,6*%
%TO.N,USB_DP_MCU*%
X7537500Y-13050000D03*
%TD*%
D15*
%TO.P,C20,1*%
%TO.N,3V3*%
X16920000Y-18400000D03*
%TO.P,C20,2*%
%TO.N,GND*%
X17880000Y-18400000D03*
%TD*%
D32*
%TO.P,J7,1*%
%TO.N,VBAT*%
X3500000Y-36500000D03*
D33*
%TO.P,J7,2*%
%TO.N,M3_D*%
X3500000Y-39040000D03*
%TD*%
D47*
%TO.P,U5,1*%
%TO.N,3V3_EN*%
X12862500Y-33050000D03*
%TO.P,U5,2*%
%TO.N,GND*%
X12862500Y-34000000D03*
%TO.P,U5,3*%
%TO.N,SW3V3*%
X12862500Y-34950000D03*
%TO.P,U5,4*%
%TO.N,VBAT*%
X15137500Y-34950000D03*
%TO.P,U5,5*%
%TO.N,FB3V3*%
X15137500Y-33050000D03*
%TD*%
D10*
%TO.P,R28,1*%
%TO.N,M3_GATE*%
X23489999Y-20599999D03*
%TO.P,R28,2*%
%TO.N,GND*%
X24509999Y-20599999D03*
%TD*%
D32*
%TO.P,J3,1*%
%TO.N,3V3*%
X10000000Y-18000000D03*
D33*
%TO.P,J3,2*%
%TO.N,CS_FLOW*%
X7460000Y-18000000D03*
%TO.P,J3,3*%
%TO.N,GND*%
X10000000Y-20540000D03*
%TO.P,J3,4*%
%TO.N,SPI_SCLK*%
X7460000Y-20540000D03*
%TO.P,J3,5*%
%TO.N,SPI_MOSI*%
X10000000Y-23080000D03*
%TO.P,J3,6*%
%TO.N,SPI_MISO*%
X7460000Y-23080000D03*
%TO.P,J3,7*%
%TO.N,GND*%
X10000000Y-25620000D03*
%TO.P,J3,8*%
%TO.N,3V3*%
X7460000Y-25620000D03*
%TD*%
M02*
