%TF.GenerationSoftware,KiCad,Pcbnew,7.0.11+dfsg-1build4*%
%TF.CreationDate,2026-06-19T18:54:11+00:00*%
%TF.ProjectId,stratosdrone,73747261-746f-4736-9472-6f6e652e6b69,rev?*%
%TF.SameCoordinates,Original*%
%TF.FileFunction,Legend,Bot*%
%TF.FilePolarity,Positive*%
%FSLAX46Y46*%
G04 Gerber Fmt 4.6, Leading zero omitted, Abs format (unit mm)*
G04 Created by KiCad (PCBNEW 7.0.11+dfsg-1build4) date 2026-06-19 18:54:11*
%MOMM*%
%LPD*%
G01*
G04 APERTURE LIST*
%ADD10C,0.150000*%
%ADD11C,0.120000*%
%ADD12C,0.200000*%
G04 APERTURE END LIST*
D10*
X8329887Y-38346009D02*
X8663220Y-38346009D01*
X8663220Y-38869819D02*
X8663220Y-37869819D01*
X8663220Y-37869819D02*
X8187030Y-37869819D01*
X7329887Y-38869819D02*
X7806077Y-38869819D01*
X7806077Y-38869819D02*
X7806077Y-37869819D01*
X6806077Y-37869819D02*
X6615601Y-37869819D01*
X6615601Y-37869819D02*
X6520363Y-37917438D01*
X6520363Y-37917438D02*
X6425125Y-38012676D01*
X6425125Y-38012676D02*
X6377506Y-38203152D01*
X6377506Y-38203152D02*
X6377506Y-38536485D01*
X6377506Y-38536485D02*
X6425125Y-38726961D01*
X6425125Y-38726961D02*
X6520363Y-38822200D01*
X6520363Y-38822200D02*
X6615601Y-38869819D01*
X6615601Y-38869819D02*
X6806077Y-38869819D01*
X6806077Y-38869819D02*
X6901315Y-38822200D01*
X6901315Y-38822200D02*
X6996553Y-38726961D01*
X6996553Y-38726961D02*
X7044172Y-38536485D01*
X7044172Y-38536485D02*
X7044172Y-38203152D01*
X7044172Y-38203152D02*
X6996553Y-38012676D01*
X6996553Y-38012676D02*
X6901315Y-37917438D01*
X6901315Y-37917438D02*
X6806077Y-37869819D01*
X6044172Y-37869819D02*
X5806077Y-38869819D01*
X5806077Y-38869819D02*
X5615601Y-38155533D01*
X5615601Y-38155533D02*
X5425125Y-38869819D01*
X5425125Y-38869819D02*
X5187030Y-37869819D01*
X4044172Y-38488866D02*
X3282268Y-38488866D01*
X3663220Y-38869819D02*
X3663220Y-38107914D01*
X2187029Y-37869819D02*
X1615601Y-37869819D01*
X1901315Y-38869819D02*
X1901315Y-37869819D01*
X1139410Y-38869819D02*
X1234648Y-38822200D01*
X1234648Y-38822200D02*
X1282267Y-38774580D01*
X1282267Y-38774580D02*
X1329886Y-38679342D01*
X1329886Y-38679342D02*
X1329886Y-38393628D01*
X1329886Y-38393628D02*
X1282267Y-38298390D01*
X1282267Y-38298390D02*
X1234648Y-38250771D01*
X1234648Y-38250771D02*
X1139410Y-38203152D01*
X1139410Y-38203152D02*
X996553Y-38203152D01*
X996553Y-38203152D02*
X901315Y-38250771D01*
X901315Y-38250771D02*
X853696Y-38298390D01*
X853696Y-38298390D02*
X806077Y-38393628D01*
X806077Y-38393628D02*
X806077Y-38679342D01*
X806077Y-38679342D02*
X853696Y-38774580D01*
X853696Y-38774580D02*
X901315Y-38822200D01*
X901315Y-38822200D02*
X996553Y-38869819D01*
X996553Y-38869819D02*
X1139410Y-38869819D01*
X44172Y-38346009D02*
X377505Y-38346009D01*
X377505Y-38869819D02*
X377505Y-37869819D01*
X377505Y-37869819D02*
X-98684Y-37869819D01*
X18465426Y-37793518D02*
X18513045Y-37841138D01*
X18513045Y-37841138D02*
X18655902Y-37888757D01*
X18655902Y-37888757D02*
X18751140Y-37888757D01*
X18751140Y-37888757D02*
X18893997Y-37841138D01*
X18893997Y-37841138D02*
X18989235Y-37745899D01*
X18989235Y-37745899D02*
X19036854Y-37650661D01*
X19036854Y-37650661D02*
X19084473Y-37460185D01*
X19084473Y-37460185D02*
X19084473Y-37317328D01*
X19084473Y-37317328D02*
X19036854Y-37126852D01*
X19036854Y-37126852D02*
X18989235Y-37031614D01*
X18989235Y-37031614D02*
X18893997Y-36936376D01*
X18893997Y-36936376D02*
X18751140Y-36888757D01*
X18751140Y-36888757D02*
X18655902Y-36888757D01*
X18655902Y-36888757D02*
X18513045Y-36936376D01*
X18513045Y-36936376D02*
X18465426Y-36983995D01*
X18132092Y-36888757D02*
X17513045Y-36888757D01*
X17513045Y-36888757D02*
X17846378Y-37269709D01*
X17846378Y-37269709D02*
X17703521Y-37269709D01*
X17703521Y-37269709D02*
X17608283Y-37317328D01*
X17608283Y-37317328D02*
X17560664Y-37364947D01*
X17560664Y-37364947D02*
X17513045Y-37460185D01*
X17513045Y-37460185D02*
X17513045Y-37698280D01*
X17513045Y-37698280D02*
X17560664Y-37793518D01*
X17560664Y-37793518D02*
X17608283Y-37841138D01*
X17608283Y-37841138D02*
X17703521Y-37888757D01*
X17703521Y-37888757D02*
X17989235Y-37888757D01*
X17989235Y-37888757D02*
X18084473Y-37841138D01*
X18084473Y-37841138D02*
X18132092Y-37793518D01*
X16560664Y-37888757D02*
X17132092Y-37888757D01*
X16846378Y-37888757D02*
X16846378Y-36888757D01*
X16846378Y-36888757D02*
X16941616Y-37031614D01*
X16941616Y-37031614D02*
X17036854Y-37126852D01*
X17036854Y-37126852D02*
X17132092Y-37174471D01*
X28063333Y-40124819D02*
X28063333Y-40839104D01*
X28063333Y-40839104D02*
X28110952Y-40981961D01*
X28110952Y-40981961D02*
X28206190Y-41077200D01*
X28206190Y-41077200D02*
X28349047Y-41124819D01*
X28349047Y-41124819D02*
X28444285Y-41124819D01*
X27682380Y-40124819D02*
X27063333Y-40124819D01*
X27063333Y-40124819D02*
X27396666Y-40505771D01*
X27396666Y-40505771D02*
X27253809Y-40505771D01*
X27253809Y-40505771D02*
X27158571Y-40553390D01*
X27158571Y-40553390D02*
X27110952Y-40601009D01*
X27110952Y-40601009D02*
X27063333Y-40696247D01*
X27063333Y-40696247D02*
X27063333Y-40934342D01*
X27063333Y-40934342D02*
X27110952Y-41029580D01*
X27110952Y-41029580D02*
X27158571Y-41077200D01*
X27158571Y-41077200D02*
X27253809Y-41124819D01*
X27253809Y-41124819D02*
X27539523Y-41124819D01*
X27539523Y-41124819D02*
X27634761Y-41077200D01*
X27634761Y-41077200D02*
X27682380Y-41029580D01*
X18761904Y-33254819D02*
X18761904Y-34064342D01*
X18761904Y-34064342D02*
X18714285Y-34159580D01*
X18714285Y-34159580D02*
X18666666Y-34207200D01*
X18666666Y-34207200D02*
X18571428Y-34254819D01*
X18571428Y-34254819D02*
X18380952Y-34254819D01*
X18380952Y-34254819D02*
X18285714Y-34207200D01*
X18285714Y-34207200D02*
X18238095Y-34159580D01*
X18238095Y-34159580D02*
X18190476Y-34064342D01*
X18190476Y-34064342D02*
X18190476Y-33254819D01*
X17571428Y-33683390D02*
X17666666Y-33635771D01*
X17666666Y-33635771D02*
X17714285Y-33588152D01*
X17714285Y-33588152D02*
X17761904Y-33492914D01*
X17761904Y-33492914D02*
X17761904Y-33445295D01*
X17761904Y-33445295D02*
X17714285Y-33350057D01*
X17714285Y-33350057D02*
X17666666Y-33302438D01*
X17666666Y-33302438D02*
X17571428Y-33254819D01*
X17571428Y-33254819D02*
X17380952Y-33254819D01*
X17380952Y-33254819D02*
X17285714Y-33302438D01*
X17285714Y-33302438D02*
X17238095Y-33350057D01*
X17238095Y-33350057D02*
X17190476Y-33445295D01*
X17190476Y-33445295D02*
X17190476Y-33492914D01*
X17190476Y-33492914D02*
X17238095Y-33588152D01*
X17238095Y-33588152D02*
X17285714Y-33635771D01*
X17285714Y-33635771D02*
X17380952Y-33683390D01*
X17380952Y-33683390D02*
X17571428Y-33683390D01*
X17571428Y-33683390D02*
X17666666Y-33731009D01*
X17666666Y-33731009D02*
X17714285Y-33778628D01*
X17714285Y-33778628D02*
X17761904Y-33873866D01*
X17761904Y-33873866D02*
X17761904Y-34064342D01*
X17761904Y-34064342D02*
X17714285Y-34159580D01*
X17714285Y-34159580D02*
X17666666Y-34207200D01*
X17666666Y-34207200D02*
X17571428Y-34254819D01*
X17571428Y-34254819D02*
X17380952Y-34254819D01*
X17380952Y-34254819D02*
X17285714Y-34207200D01*
X17285714Y-34207200D02*
X17238095Y-34159580D01*
X17238095Y-34159580D02*
X17190476Y-34064342D01*
X17190476Y-34064342D02*
X17190476Y-33873866D01*
X17190476Y-33873866D02*
X17238095Y-33778628D01*
X17238095Y-33778628D02*
X17285714Y-33731009D01*
X17285714Y-33731009D02*
X17380952Y-33683390D01*
X18992413Y-46078435D02*
X19040032Y-46126055D01*
X19040032Y-46126055D02*
X19182889Y-46173674D01*
X19182889Y-46173674D02*
X19278127Y-46173674D01*
X19278127Y-46173674D02*
X19420984Y-46126055D01*
X19420984Y-46126055D02*
X19516222Y-46030816D01*
X19516222Y-46030816D02*
X19563841Y-45935578D01*
X19563841Y-45935578D02*
X19611460Y-45745102D01*
X19611460Y-45745102D02*
X19611460Y-45602245D01*
X19611460Y-45602245D02*
X19563841Y-45411769D01*
X19563841Y-45411769D02*
X19516222Y-45316531D01*
X19516222Y-45316531D02*
X19420984Y-45221293D01*
X19420984Y-45221293D02*
X19278127Y-45173674D01*
X19278127Y-45173674D02*
X19182889Y-45173674D01*
X19182889Y-45173674D02*
X19040032Y-45221293D01*
X19040032Y-45221293D02*
X18992413Y-45268912D01*
X18659079Y-45173674D02*
X18040032Y-45173674D01*
X18040032Y-45173674D02*
X18373365Y-45554626D01*
X18373365Y-45554626D02*
X18230508Y-45554626D01*
X18230508Y-45554626D02*
X18135270Y-45602245D01*
X18135270Y-45602245D02*
X18087651Y-45649864D01*
X18087651Y-45649864D02*
X18040032Y-45745102D01*
X18040032Y-45745102D02*
X18040032Y-45983197D01*
X18040032Y-45983197D02*
X18087651Y-46078435D01*
X18087651Y-46078435D02*
X18135270Y-46126055D01*
X18135270Y-46126055D02*
X18230508Y-46173674D01*
X18230508Y-46173674D02*
X18516222Y-46173674D01*
X18516222Y-46173674D02*
X18611460Y-46126055D01*
X18611460Y-46126055D02*
X18659079Y-46078435D01*
X17659079Y-45268912D02*
X17611460Y-45221293D01*
X17611460Y-45221293D02*
X17516222Y-45173674D01*
X17516222Y-45173674D02*
X17278127Y-45173674D01*
X17278127Y-45173674D02*
X17182889Y-45221293D01*
X17182889Y-45221293D02*
X17135270Y-45268912D01*
X17135270Y-45268912D02*
X17087651Y-45364150D01*
X17087651Y-45364150D02*
X17087651Y-45459388D01*
X17087651Y-45459388D02*
X17135270Y-45602245D01*
X17135270Y-45602245D02*
X17706698Y-46173674D01*
X17706698Y-46173674D02*
X17087651Y-46173674D01*
X18761904Y-41254819D02*
X18761904Y-42064342D01*
X18761904Y-42064342D02*
X18714285Y-42159580D01*
X18714285Y-42159580D02*
X18666666Y-42207200D01*
X18666666Y-42207200D02*
X18571428Y-42254819D01*
X18571428Y-42254819D02*
X18380952Y-42254819D01*
X18380952Y-42254819D02*
X18285714Y-42207200D01*
X18285714Y-42207200D02*
X18238095Y-42159580D01*
X18238095Y-42159580D02*
X18190476Y-42064342D01*
X18190476Y-42064342D02*
X18190476Y-41254819D01*
X17666666Y-42254819D02*
X17476190Y-42254819D01*
X17476190Y-42254819D02*
X17380952Y-42207200D01*
X17380952Y-42207200D02*
X17333333Y-42159580D01*
X17333333Y-42159580D02*
X17238095Y-42016723D01*
X17238095Y-42016723D02*
X17190476Y-41826247D01*
X17190476Y-41826247D02*
X17190476Y-41445295D01*
X17190476Y-41445295D02*
X17238095Y-41350057D01*
X17238095Y-41350057D02*
X17285714Y-41302438D01*
X17285714Y-41302438D02*
X17380952Y-41254819D01*
X17380952Y-41254819D02*
X17571428Y-41254819D01*
X17571428Y-41254819D02*
X17666666Y-41302438D01*
X17666666Y-41302438D02*
X17714285Y-41350057D01*
X17714285Y-41350057D02*
X17761904Y-41445295D01*
X17761904Y-41445295D02*
X17761904Y-41683390D01*
X17761904Y-41683390D02*
X17714285Y-41778628D01*
X17714285Y-41778628D02*
X17666666Y-41826247D01*
X17666666Y-41826247D02*
X17571428Y-41873866D01*
X17571428Y-41873866D02*
X17380952Y-41873866D01*
X17380952Y-41873866D02*
X17285714Y-41826247D01*
X17285714Y-41826247D02*
X17238095Y-41778628D01*
X17238095Y-41778628D02*
X17190476Y-41683390D01*
D11*
%TO.C,C31*%
X17930405Y-38953938D02*
X17714733Y-38953938D01*
X17930405Y-38233938D02*
X17714733Y-38233938D01*
%TO.C,J3*%
X30330000Y-51950000D02*
X25130000Y-51950000D01*
X30330000Y-44270000D02*
X30330000Y-51950000D01*
X30330000Y-44270000D02*
X27730000Y-44270000D01*
X30330000Y-43000000D02*
X30330000Y-41670000D01*
X30330000Y-41670000D02*
X29000000Y-41670000D01*
X27730000Y-44270000D02*
X27730000Y-41670000D01*
X27730000Y-41670000D02*
X25130000Y-41670000D01*
X25130000Y-41670000D02*
X25130000Y-51950000D01*
%TO.C,U8*%
X20550000Y-37350000D02*
X15450000Y-37350000D01*
X20550000Y-34950000D02*
X20550000Y-37350000D01*
X15450000Y-37350000D02*
X15450000Y-34650000D01*
X15450000Y-34650000D02*
X20250000Y-34650000D01*
X20830000Y-34650000D02*
X20550000Y-34650000D01*
X20550000Y-34370000D01*
X20830000Y-34650000D01*
G36*
X20830000Y-34650000D02*
G01*
X20550000Y-34650000D01*
X20550000Y-34370000D01*
X20830000Y-34650000D01*
G37*
%TO.C,C32*%
X18457392Y-47238855D02*
X18241720Y-47238855D01*
X18457392Y-46518855D02*
X18241720Y-46518855D01*
%TO.C,U9*%
X19800000Y-45500000D02*
X16200000Y-45500000D01*
X19800000Y-42500000D02*
X19800000Y-45500000D01*
X19800000Y-42500000D02*
X16200000Y-42500000D01*
X16200000Y-42500000D02*
X16200000Y-45500000D01*
D12*
X19750000Y-45200000D02*
G75*
G03*
X19450000Y-45200000I-150000J0D01*
G01*
X19450000Y-45200000D02*
G75*
G03*
X19750000Y-45200000I150000J0D01*
G01*
%TD*%
M02*
