%TF.GenerationSoftware,KiCad,Pcbnew,7.0.11+dfsg-1build4*%
%TF.CreationDate,2026-06-14T01:38:49+00:00*%
%TF.ProjectId,stratosdrone,73747261-746f-4736-9472-6f6e652e6b69,rev?*%
%TF.SameCoordinates,Original*%
%TF.FileFunction,Copper,L1,Top*%
%TF.FilePolarity,Positive*%
%FSLAX46Y46*%
G04 Gerber Fmt 4.6, Leading zero omitted, Abs format (unit mm)*
G04 Created by KiCad (PCBNEW 7.0.11+dfsg-1build4) date 2026-06-14 01:38:49*
%MOMM*%
%LPD*%
G01*
G04 APERTURE LIST*
G04 Aperture macros list*
%AMRoundRect*
0 Rectangle with rounded corners*
0 $1 Rounding radius*
0 $2 $3 $4 $5 $6 $7 $8 $9 X,Y pos of 4 corners*
0 Add a 4 corners polygon primitive as box body*
4,1,4,$2,$3,$4,$5,$6,$7,$8,$9,$2,$3,0*
0 Add four circle primitives for the rounded corners*
1,1,$1+$1,$2,$3*
1,1,$1+$1,$4,$5*
1,1,$1+$1,$6,$7*
1,1,$1+$1,$8,$9*
0 Add four rect primitives between the rounded corners*
20,1,$1+$1,$2,$3,$4,$5,0*
20,1,$1+$1,$4,$5,$6,$7,0*
20,1,$1+$1,$6,$7,$8,$9,0*
20,1,$1+$1,$8,$9,$2,$3,0*%
%AMFreePoly0*
4,1,6,0.725000,-0.725000,-0.725000,-0.725000,-0.725000,0.125000,-0.125000,0.725000,0.725000,0.725000,0.725000,-0.725000,0.725000,-0.725000,$1*%
G04 Aperture macros list end*
%TA.AperFunction,SMDPad,CuDef*%
%ADD10RoundRect,0.140000X-0.140000X-0.170000X0.140000X-0.170000X0.140000X0.170000X-0.140000X0.170000X0*%
%TD*%
%TA.AperFunction,SMDPad,CuDef*%
%ADD11R,0.350000X0.500000*%
%TD*%
%TA.AperFunction,SMDPad,CuDef*%
%ADD12RoundRect,0.135000X-0.135000X-0.185000X0.135000X-0.185000X0.135000X0.185000X-0.135000X0.185000X0*%
%TD*%
%TA.AperFunction,SMDPad,CuDef*%
%ADD13R,0.800000X0.400000*%
%TD*%
%TA.AperFunction,SMDPad,CuDef*%
%ADD14R,0.400000X0.800000*%
%TD*%
%TA.AperFunction,SMDPad,CuDef*%
%ADD15FreePoly0,0.000000*%
%TD*%
%TA.AperFunction,SMDPad,CuDef*%
%ADD16R,1.450000X1.450000*%
%TD*%
%TA.AperFunction,SMDPad,CuDef*%
%ADD17R,0.700000X0.700000*%
%TD*%
%TA.AperFunction,SMDPad,CuDef*%
%ADD18RoundRect,0.250000X-0.250000X-0.475000X0.250000X-0.475000X0.250000X0.475000X-0.250000X0.475000X0*%
%TD*%
%TA.AperFunction,SMDPad,CuDef*%
%ADD19RoundRect,0.250000X-1.000000X-0.650000X1.000000X-0.650000X1.000000X0.650000X-1.000000X0.650000X0*%
%TD*%
%TA.AperFunction,SMDPad,CuDef*%
%ADD20R,1.500000X1.500000*%
%TD*%
%TA.AperFunction,SMDPad,CuDef*%
%ADD21RoundRect,0.150000X-0.825000X-0.150000X0.825000X-0.150000X0.825000X0.150000X-0.825000X0.150000X0*%
%TD*%
%TA.AperFunction,SMDPad,CuDef*%
%ADD22RoundRect,0.150000X-0.512500X-0.150000X0.512500X-0.150000X0.512500X0.150000X-0.512500X0.150000X0*%
%TD*%
%TA.AperFunction,SMDPad,CuDef*%
%ADD23RoundRect,0.225000X-0.225000X-0.250000X0.225000X-0.250000X0.225000X0.250000X-0.225000X0.250000X0*%
%TD*%
%TA.AperFunction,SMDPad,CuDef*%
%ADD24R,0.300000X1.300000*%
%TD*%
%TA.AperFunction,SMDPad,CuDef*%
%ADD25R,1.800000X2.200000*%
%TD*%
%TA.AperFunction,SMDPad,CuDef*%
%ADD26R,1.450000X0.600000*%
%TD*%
%TA.AperFunction,SMDPad,CuDef*%
%ADD27R,1.450000X0.300000*%
%TD*%
%TA.AperFunction,ComponentPad*%
%ADD28O,2.100000X1.000000*%
%TD*%
%TA.AperFunction,ComponentPad*%
%ADD29O,1.600000X1.000000*%
%TD*%
%TA.AperFunction,ComponentPad*%
%ADD30R,1.000000X1.000000*%
%TD*%
%TA.AperFunction,ComponentPad*%
%ADD31O,1.000000X1.000000*%
%TD*%
%TA.AperFunction,ComponentPad*%
%ADD32R,1.700000X1.700000*%
%TD*%
%TA.AperFunction,ComponentPad*%
%ADD33O,1.700000X1.700000*%
%TD*%
%TA.AperFunction,SMDPad,CuDef*%
%ADD34RoundRect,0.250000X-0.250000X-1.500000X0.250000X-1.500000X0.250000X1.500000X-0.250000X1.500000X0*%
%TD*%
%TA.AperFunction,SMDPad,CuDef*%
%ADD35RoundRect,0.250001X-0.499999X-1.449999X0.499999X-1.449999X0.499999X1.449999X-0.499999X1.449999X0*%
%TD*%
%TA.AperFunction,HeatsinkPad*%
%ADD36R,2.410000X3.810000*%
%TD*%
%TA.AperFunction,SMDPad,CuDef*%
%ADD37RoundRect,0.218750X-0.218750X-0.381250X0.218750X-0.381250X0.218750X0.381250X-0.218750X0.381250X0*%
%TD*%
%TA.AperFunction,SMDPad,CuDef*%
%ADD38RoundRect,0.062500X-0.062500X-0.350000X0.062500X-0.350000X0.062500X0.350000X-0.062500X0.350000X0*%
%TD*%
%TA.AperFunction,SMDPad,CuDef*%
%ADD39RoundRect,0.062500X-0.350000X-0.062500X0.350000X-0.062500X0.350000X0.062500X-0.350000X0.062500X0*%
%TD*%
%TA.AperFunction,HeatsinkPad*%
%ADD40R,1.000000X1.500000*%
%TD*%
%TA.AperFunction,SMDPad,CuDef*%
%ADD41O,0.650000X0.200000*%
%TD*%
%TA.AperFunction,SMDPad,CuDef*%
%ADD42O,0.200000X0.650000*%
%TD*%
%TA.AperFunction,SMDPad,CuDef*%
%ADD43R,2.100000X2.100000*%
%TD*%
%TA.AperFunction,SMDPad,CuDef*%
%ADD44RoundRect,0.150000X-0.587500X-0.150000X0.587500X-0.150000X0.587500X0.150000X-0.587500X0.150000X0*%
%TD*%
%TA.AperFunction,SMDPad,CuDef*%
%ADD45R,1.400000X1.200000*%
%TD*%
%TA.AperFunction,SMDPad,CuDef*%
%ADD46RoundRect,0.218750X-0.218750X-0.256250X0.218750X-0.256250X0.218750X0.256250X-0.218750X0.256250X0*%
%TD*%
G04 APERTURE END LIST*
D10*
%TO.P,C30,1*%
%TO.N,3V3*%
X33365969Y-52592546D03*
%TO.P,C30,2*%
%TO.N,GND*%
X34325969Y-52592546D03*
%TD*%
D11*
%TO.P,U7,1*%
%TO.N,I2C_SDA*%
X28025000Y-46200000D03*
%TO.P,U7,2*%
%TO.N,GND*%
X28675000Y-46200000D03*
%TO.P,U7,3*%
%TO.N,3V3*%
X29325000Y-46200000D03*
%TO.P,U7,4*%
%TO.N,I2C_SCL*%
X29975000Y-46200000D03*
%TO.P,U7,5*%
%TO.N,3V3*%
X29975000Y-47800000D03*
%TO.P,U7,6*%
%TO.N,GND*%
X29325000Y-47800000D03*
%TO.P,U7,7*%
X28675000Y-47800000D03*
%TO.P,U7,8*%
%TO.N,3V3*%
X28025000Y-47800000D03*
%TD*%
D12*
%TO.P,R13,1*%
%TO.N,3V3*%
X14890201Y-46137343D03*
%TO.P,R13,2*%
%TO.N,FLASH_CS*%
X15910201Y-46137343D03*
%TD*%
%TO.P,R3,1*%
%TO.N,PROG*%
X13139380Y-54216210D03*
%TO.P,R3,2*%
%TO.N,GND*%
X14159380Y-54216210D03*
%TD*%
D10*
%TO.P,C33,1*%
%TO.N,3V3*%
X18231957Y-8537711D03*
%TO.P,C33,2*%
%TO.N,GND*%
X19191957Y-8537711D03*
%TD*%
D13*
%TO.P,U3,1*%
%TO.N,GND*%
X12100000Y-14700000D03*
%TO.P,U3,2*%
X12100000Y-15500000D03*
%TO.P,U3,3*%
%TO.N,3V3*%
X12100000Y-16300000D03*
%TO.P,U3,4*%
%TO.N,N/C*%
X12100000Y-17100000D03*
%TO.P,U3,5*%
X12100000Y-17900000D03*
%TO.P,U3,6*%
X12100000Y-18700000D03*
%TO.P,U3,7*%
X12100000Y-19500000D03*
%TO.P,U3,8*%
%TO.N,C6_EN*%
X12100000Y-20300000D03*
%TO.P,U3,9*%
%TO.N,N/C*%
X12100000Y-21100000D03*
%TO.P,U3,10*%
X12100000Y-21900000D03*
%TO.P,U3,11*%
%TO.N,GND*%
X12100000Y-22700000D03*
D14*
%TO.P,U3,12*%
%TO.N,N/C*%
X13200000Y-23600000D03*
%TO.P,U3,13*%
X14000000Y-23600000D03*
%TO.P,U3,14*%
%TO.N,GND*%
X14800000Y-23600000D03*
%TO.P,U3,15*%
%TO.N,N/C*%
X15600000Y-23600000D03*
%TO.P,U3,16*%
X16400000Y-23600000D03*
%TO.P,U3,17*%
X17200000Y-23600000D03*
%TO.P,U3,18*%
X18000000Y-23600000D03*
%TO.P,U3,19*%
X18800000Y-23600000D03*
%TO.P,U3,20*%
X19600000Y-23600000D03*
%TO.P,U3,21*%
X20400000Y-23600000D03*
%TO.P,U3,22*%
X21200000Y-23600000D03*
%TO.P,U3,23*%
%TO.N,C6_BOOT*%
X22000000Y-23600000D03*
%TO.P,U3,24*%
%TO.N,SDIO_CMD*%
X22800000Y-23600000D03*
D13*
%TO.P,U3,25*%
%TO.N,SDIO_CLK*%
X23900000Y-22700000D03*
%TO.P,U3,26*%
%TO.N,SDIO_D0*%
X23900000Y-21900000D03*
%TO.P,U3,27*%
%TO.N,SDIO_D1*%
X23900000Y-21100000D03*
%TO.P,U3,28*%
%TO.N,SDIO_D2*%
X23900000Y-20300000D03*
%TO.P,U3,29*%
%TO.N,SDIO_D3*%
X23900000Y-19500000D03*
%TO.P,U3,30*%
%TO.N,C6_U0RXD*%
X23900000Y-18700000D03*
%TO.P,U3,31*%
%TO.N,C6_U0TXD*%
X23900000Y-17900000D03*
%TO.P,U3,32*%
%TO.N,N/C*%
X23900000Y-17100000D03*
%TO.P,U3,33*%
X23900000Y-16300000D03*
%TO.P,U3,34*%
X23900000Y-15500000D03*
%TO.P,U3,35*%
X23900000Y-14700000D03*
D14*
%TO.P,U3,36*%
%TO.N,GND*%
X22800000Y-13800000D03*
%TO.P,U3,37*%
X22000000Y-13800000D03*
%TO.P,U3,38*%
X21200000Y-13800000D03*
%TO.P,U3,39*%
X20400000Y-13800000D03*
%TO.P,U3,40*%
X19600000Y-13800000D03*
%TO.P,U3,41*%
X18800000Y-13800000D03*
%TO.P,U3,42*%
X18000000Y-13800000D03*
%TO.P,U3,43*%
X17200000Y-13800000D03*
%TO.P,U3,44*%
X16400000Y-13800000D03*
%TO.P,U3,45*%
X15600000Y-13800000D03*
%TO.P,U3,46*%
X14800000Y-13800000D03*
%TO.P,U3,47*%
X14000000Y-13800000D03*
%TO.P,U3,48*%
X13200000Y-13800000D03*
D15*
%TO.P,U3,49*%
X16025000Y-16725000D03*
D16*
X16025000Y-18700000D03*
X16025000Y-20675000D03*
X18000000Y-16725000D03*
X18000000Y-18700000D03*
X18000000Y-20675000D03*
X19975000Y-16725000D03*
X19975000Y-18700000D03*
X19975000Y-20675000D03*
D17*
%TO.P,U3,50*%
X23950000Y-13750000D03*
%TO.P,U3,51*%
X23950000Y-23650000D03*
%TO.P,U3,52*%
X12050000Y-23650000D03*
%TO.P,U3,53*%
X12050000Y-13750000D03*
%TD*%
D18*
%TO.P,C2,1*%
%TO.N,VBAT*%
X8482204Y-62192284D03*
%TO.P,C2,2*%
%TO.N,GND*%
X10382204Y-62192284D03*
%TD*%
D19*
%TO.P,D5,1*%
%TO.N,VBAT*%
X2874567Y-51349827D03*
%TO.P,D5,2*%
%TO.N,M3_D*%
X6874567Y-51349827D03*
%TD*%
D12*
%TO.P,R22,1*%
%TO.N,M1_G*%
X7154593Y-34230636D03*
%TO.P,R22,2*%
%TO.N,M1_GATE*%
X8174593Y-34230636D03*
%TD*%
D20*
%TO.P,SW1,1*%
%TO.N,CHIP_PU*%
X29100000Y-40000000D03*
%TO.P,SW1,2*%
%TO.N,GND*%
X36900000Y-40000000D03*
%TD*%
D19*
%TO.P,D4,1*%
%TO.N,VBAT*%
X21434714Y-53647815D03*
%TO.P,D4,2*%
%TO.N,M2_D*%
X25434714Y-53647815D03*
%TD*%
D21*
%TO.P,U2,1*%
%TO.N,FLASH_CS*%
X6525000Y-36095000D03*
%TO.P,U2,2*%
%TO.N,FLASH_IO1*%
X6525000Y-37365000D03*
%TO.P,U2,3*%
%TO.N,FLASH_IO2*%
X6525000Y-38635000D03*
%TO.P,U2,4*%
%TO.N,GND*%
X6525000Y-39905000D03*
%TO.P,U2,5*%
%TO.N,FLASH_IO0*%
X11475000Y-39905000D03*
%TO.P,U2,6*%
%TO.N,FLASH_CK*%
X11475000Y-38635000D03*
%TO.P,U2,7*%
%TO.N,FLASH_IO3*%
X11475000Y-37365000D03*
%TO.P,U2,8*%
%TO.N,3V3*%
X11475000Y-36095000D03*
%TD*%
D22*
%TO.P,U5,1*%
%TO.N,3V3_EN*%
X21862500Y-56050000D03*
%TO.P,U5,2*%
%TO.N,GND*%
X21862500Y-57000000D03*
%TO.P,U5,3*%
%TO.N,SW3V3*%
X21862500Y-57950000D03*
%TO.P,U5,4*%
%TO.N,VBAT*%
X24137500Y-57950000D03*
%TO.P,U5,5*%
%TO.N,FB3V3*%
X24137500Y-56050000D03*
%TD*%
D17*
%TO.P,LED2,1*%
%TO.N,VBAT*%
X28085000Y-21450000D03*
%TO.P,LED2,2*%
%TO.N,LED_D12*%
X28085000Y-22550000D03*
%TO.P,LED2,3*%
%TO.N,GND*%
X29915000Y-22550000D03*
%TO.P,LED2,4*%
%TO.N,LED_DOUT*%
X29915000Y-21450000D03*
%TD*%
D23*
%TO.P,C5,1*%
%TO.N,VDD_CORE*%
X21819251Y-26022620D03*
%TO.P,C5,2*%
%TO.N,GND*%
X23369251Y-26022620D03*
%TD*%
D12*
%TO.P,R11,1*%
%TO.N,CSI_REXT*%
X18188285Y-28127435D03*
%TO.P,R11,2*%
%TO.N,GND*%
X19208285Y-28127435D03*
%TD*%
%TO.P,R26,1*%
%TO.N,M1_GATE*%
X30878427Y-18883100D03*
%TO.P,R26,2*%
%TO.N,GND*%
X31898427Y-18883100D03*
%TD*%
D19*
%TO.P,D6,1*%
%TO.N,VBAT*%
X3028354Y-8288452D03*
%TO.P,D6,2*%
%TO.N,M4_D*%
X7028354Y-8288452D03*
%TD*%
D24*
%TO.P,J4,1*%
%TO.N,GND*%
X14500000Y-2650000D03*
%TO.P,J4,2*%
%TO.N,CSI_D0N*%
X15000000Y-2650000D03*
%TO.P,J4,3*%
%TO.N,CSI_D0P*%
X15500000Y-2650000D03*
%TO.P,J4,4*%
%TO.N,GND*%
X16000000Y-2650000D03*
%TO.P,J4,5*%
%TO.N,CSI_D1N*%
X16500000Y-2650000D03*
%TO.P,J4,6*%
%TO.N,CSI_D1P*%
X17000000Y-2650000D03*
%TO.P,J4,7*%
%TO.N,GND*%
X17500000Y-2650000D03*
%TO.P,J4,8*%
%TO.N,CSI_CKN*%
X18000000Y-2650000D03*
%TO.P,J4,9*%
%TO.N,CSI_CKP*%
X18500000Y-2650000D03*
%TO.P,J4,10*%
%TO.N,GND*%
X19000000Y-2650000D03*
%TO.P,J4,11*%
%TO.N,CAM_PWDN*%
X19500000Y-2650000D03*
%TO.P,J4,12*%
%TO.N,CAM_GPIO*%
X20000000Y-2650000D03*
%TO.P,J4,13*%
%TO.N,I2C_SCL*%
X20500000Y-2650000D03*
%TO.P,J4,14*%
%TO.N,I2C_SDA*%
X21000000Y-2650000D03*
%TO.P,J4,15*%
%TO.N,3V3*%
X21500000Y-2650000D03*
D25*
%TO.P,J4,MP*%
%TO.N,N/C*%
X12600000Y-5900000D03*
X23400000Y-5900000D03*
%TD*%
D10*
%TO.P,C21,1*%
%TO.N,3V3*%
X12436702Y-43936864D03*
%TO.P,C21,2*%
%TO.N,GND*%
X13396702Y-43936864D03*
%TD*%
%TO.P,C18,1*%
%TO.N,3V3*%
X10146009Y-33897699D03*
%TO.P,C18,2*%
%TO.N,GND*%
X11106009Y-33897699D03*
%TD*%
D26*
%TO.P,J2,A1*%
%TO.N,GND*%
X-545000Y-31250000D03*
%TO.P,J2,A4*%
%TO.N,VBUS*%
X-545000Y-30450000D03*
D27*
%TO.P,J2,A5*%
%TO.N,CC1*%
X-545000Y-29250000D03*
%TO.P,J2,A6*%
%TO.N,USB_DP_C*%
X-545000Y-28250000D03*
%TO.P,J2,A7*%
%TO.N,USB_DM_C*%
X-545000Y-27750000D03*
%TO.P,J2,A8*%
%TO.N,N/C*%
X-545000Y-26750000D03*
D26*
%TO.P,J2,A9*%
%TO.N,VBUS*%
X-545000Y-25550000D03*
%TO.P,J2,A12*%
%TO.N,GND*%
X-545000Y-24750000D03*
%TO.P,J2,B1*%
X-545000Y-24750000D03*
%TO.P,J2,B4*%
%TO.N,VBUS*%
X-545000Y-25550000D03*
D27*
%TO.P,J2,B5*%
%TO.N,CC2*%
X-545000Y-26250000D03*
%TO.P,J2,B6*%
%TO.N,USB_DP_C*%
X-545000Y-27250000D03*
%TO.P,J2,B7*%
%TO.N,USB_DM_C*%
X-545000Y-28750000D03*
%TO.P,J2,B8*%
%TO.N,N/C*%
X-545000Y-29750000D03*
D26*
%TO.P,J2,B9*%
%TO.N,VBUS*%
X-545000Y-30450000D03*
%TO.P,J2,B12*%
%TO.N,GND*%
X-545000Y-31250000D03*
D28*
%TO.P,J2,S1*%
X370000Y-32320000D03*
D29*
X4550000Y-32320000D03*
D28*
X370000Y-23680000D03*
D29*
X4550000Y-23680000D03*
%TD*%
D12*
%TO.P,R12,1*%
%TO.N,DSI_REXT*%
X20425661Y-46035036D03*
%TO.P,R12,2*%
%TO.N,GND*%
X21445661Y-46035036D03*
%TD*%
D30*
%TO.P,J11,1*%
%TO.N,GND*%
X25000000Y-64000000D03*
D31*
%TO.P,J11,2*%
%TO.N,C6_U0TXD*%
X25000000Y-65270000D03*
%TO.P,J11,3*%
%TO.N,C6_U0RXD*%
X25000000Y-66540000D03*
%TO.P,J11,4*%
%TO.N,C6_BOOT*%
X25000000Y-67810000D03*
%TD*%
D30*
%TO.P,J9,1*%
%TO.N,3V3*%
X4000000Y-40000000D03*
D31*
%TO.P,J9,2*%
%TO.N,GND*%
X4000000Y-41270000D03*
%TO.P,J9,3*%
%TO.N,VBAT*%
X4000000Y-42540000D03*
%TO.P,J9,4*%
%TO.N,I2C_SDA*%
X4000000Y-43810000D03*
%TO.P,J9,5*%
%TO.N,I2C_SCL*%
X4000000Y-45080000D03*
%TO.P,J9,6*%
%TO.N,EXP_IO*%
X4000000Y-46350000D03*
%TD*%
D10*
%TO.P,C11,1*%
%TO.N,VDD_CORE*%
X16995206Y-30220280D03*
%TO.P,C11,2*%
%TO.N,GND*%
X17955206Y-30220280D03*
%TD*%
%TO.P,C10,1*%
%TO.N,CHIP_PU*%
X32520000Y-42300000D03*
%TO.P,C10,2*%
%TO.N,GND*%
X33480000Y-42300000D03*
%TD*%
%TO.P,C8,1*%
%TO.N,XTAL_P*%
X28807933Y-29880230D03*
%TO.P,C8,2*%
%TO.N,GND*%
X29767933Y-29880230D03*
%TD*%
D23*
%TO.P,C27,1*%
%TO.N,3V3*%
X28150598Y-42428748D03*
%TO.P,C27,2*%
%TO.N,GND*%
X29700598Y-42428748D03*
%TD*%
D12*
%TO.P,R20,1*%
%TO.N,3V3*%
X11545398Y-45896724D03*
%TO.P,R20,2*%
%TO.N,SDIO_D3*%
X12565398Y-45896724D03*
%TD*%
D10*
%TO.P,C35,1*%
%TO.N,VBAT*%
X27649313Y-19550121D03*
%TO.P,C35,2*%
%TO.N,GND*%
X28609313Y-19550121D03*
%TD*%
%TO.P,C15,1*%
%TO.N,3V3*%
X24934463Y-39077435D03*
%TO.P,C15,2*%
%TO.N,GND*%
X25894463Y-39077435D03*
%TD*%
D12*
%TO.P,R10,1*%
%TO.N,3V3*%
X32490000Y-47700000D03*
%TO.P,R10,2*%
%TO.N,BOOT*%
X33510000Y-47700000D03*
%TD*%
%TO.P,R2,1*%
%TO.N,CC2*%
X6540704Y-30050000D03*
%TO.P,R2,2*%
%TO.N,GND*%
X7560704Y-30050000D03*
%TD*%
%TO.P,R16,1*%
%TO.N,3V3*%
X21561067Y-28085606D03*
%TO.P,R16,2*%
%TO.N,SDIO_CMD*%
X22581067Y-28085606D03*
%TD*%
D32*
%TO.P,J7,1*%
%TO.N,VBAT*%
X4000000Y-59000000D03*
D33*
%TO.P,J7,2*%
%TO.N,M3_D*%
X4000000Y-61540000D03*
%TD*%
D12*
%TO.P,R18,1*%
%TO.N,3V3*%
X25605377Y-30496105D03*
%TO.P,R18,2*%
%TO.N,SDIO_D1*%
X26625377Y-30496105D03*
%TD*%
D10*
%TO.P,C28,1*%
%TO.N,3V3*%
X6642716Y-43611730D03*
%TO.P,C28,2*%
%TO.N,GND*%
X7602716Y-43611730D03*
%TD*%
D23*
%TO.P,C26,1*%
%TO.N,3V3*%
X25325151Y-28282343D03*
%TO.P,C26,2*%
%TO.N,GND*%
X26875151Y-28282343D03*
%TD*%
D10*
%TO.P,C16,1*%
%TO.N,3V3*%
X24714832Y-34256938D03*
%TO.P,C16,2*%
%TO.N,GND*%
X25674832Y-34256938D03*
%TD*%
D12*
%TO.P,R24,1*%
%TO.N,M3_G*%
X18709220Y-47932223D03*
%TO.P,R24,2*%
%TO.N,M3_GATE*%
X19729220Y-47932223D03*
%TD*%
D19*
%TO.P,D2,1*%
%TO.N,VBAT*%
X19961074Y-50409130D03*
%TO.P,D2,2*%
%TO.N,VBUS*%
X23961074Y-50409130D03*
%TD*%
%TO.P,D3,1*%
%TO.N,VBAT*%
X29298332Y-25282775D03*
%TO.P,D3,2*%
%TO.N,M1_D*%
X33298332Y-25282775D03*
%TD*%
D12*
%TO.P,R23,1*%
%TO.N,M2_G*%
X15402533Y-26505597D03*
%TO.P,R23,2*%
%TO.N,M2_GATE*%
X16422533Y-26505597D03*
%TD*%
D10*
%TO.P,C7,1*%
%TO.N,VDD_MIPI*%
X18393108Y-43743714D03*
%TO.P,C7,2*%
%TO.N,GND*%
X19353108Y-43743714D03*
%TD*%
D34*
%TO.P,J1,1*%
%TO.N,VBAT*%
X17000000Y-64150000D03*
%TO.P,J1,2*%
%TO.N,GND*%
X19000000Y-64150000D03*
D35*
%TO.P,J1,MP*%
%TO.N,N/C*%
X14650000Y-69900000D03*
X21350000Y-69900000D03*
%TD*%
D21*
%TO.P,U4,1*%
%TO.N,GND*%
X11525000Y-56095000D03*
%TO.P,U4,2*%
%TO.N,PROG*%
X11525000Y-57365000D03*
%TO.P,U4,3*%
%TO.N,GND*%
X11525000Y-58635000D03*
%TO.P,U4,4*%
%TO.N,VBUS*%
X11525000Y-59905000D03*
%TO.P,U4,5*%
%TO.N,VBAT*%
X16475000Y-59905000D03*
%TO.P,U4,6*%
X16475000Y-58635000D03*
%TO.P,U4,7*%
%TO.N,CHRG_N*%
X16475000Y-57365000D03*
%TO.P,U4,8*%
%TO.N,STDBY_N*%
X16475000Y-56095000D03*
D36*
%TO.P,U4,9*%
%TO.N,GND*%
X14000000Y-58000000D03*
%TD*%
D18*
%TO.P,C4,1*%
%TO.N,3V3*%
X32176251Y-45265050D03*
%TO.P,C4,2*%
%TO.N,GND*%
X34076251Y-45265050D03*
%TD*%
D12*
%TO.P,R14,1*%
%TO.N,3V3*%
X9412937Y-42001105D03*
%TO.P,R14,2*%
%TO.N,FLASH_IO2*%
X10432937Y-42001105D03*
%TD*%
D37*
%TO.P,L1,1*%
%TO.N,SW3V3*%
X25937500Y-57000000D03*
%TO.P,L1,2*%
%TO.N,3V3*%
X28062500Y-57000000D03*
%TD*%
D32*
%TO.P,J6,1*%
%TO.N,VBAT*%
X32000000Y-59000000D03*
D33*
%TO.P,J6,2*%
%TO.N,M2_D*%
X32000000Y-61540000D03*
%TD*%
D22*
%TO.P,D1,1*%
%TO.N,USB_DP_C*%
X10362500Y-27050000D03*
%TO.P,D1,2*%
%TO.N,GND*%
X10362500Y-28000000D03*
%TO.P,D1,3*%
%TO.N,USB_DM_C*%
X10362500Y-28950000D03*
%TO.P,D1,4*%
%TO.N,USB_DM_MCU*%
X12637500Y-28950000D03*
%TO.P,D1,5*%
%TO.N,VBUS*%
X12637500Y-28000000D03*
%TO.P,D1,6*%
%TO.N,USB_DP_MCU*%
X12637500Y-27050000D03*
%TD*%
D32*
%TO.P,J8,1*%
%TO.N,VBAT*%
X4000000Y-11000000D03*
D33*
%TO.P,J8,2*%
%TO.N,M4_D*%
X4000000Y-13540000D03*
%TD*%
D10*
%TO.P,C14,1*%
%TO.N,3V3*%
X19940302Y-30006993D03*
%TO.P,C14,2*%
%TO.N,GND*%
X20900302Y-30006993D03*
%TD*%
D30*
%TO.P,J10,1*%
%TO.N,GND*%
X13000000Y-64000000D03*
D31*
%TO.P,J10,2*%
%TO.N,U0TXD*%
X13000000Y-65270000D03*
%TO.P,J10,3*%
%TO.N,U0RXD*%
X13000000Y-66540000D03*
%TO.P,J10,4*%
%TO.N,3V3*%
X13000000Y-67810000D03*
%TD*%
D38*
%TO.P,U6,1*%
%TO.N,CS_IMU*%
X7750000Y-45562500D03*
D39*
%TO.P,U6,2*%
%TO.N,SPI_SCLK*%
X6812500Y-46000000D03*
%TO.P,U6,3*%
%TO.N,SPI_MOSI*%
X6812500Y-46500000D03*
%TO.P,U6,4*%
%TO.N,GND*%
X6812500Y-47000000D03*
%TO.P,U6,5*%
X6812500Y-47500000D03*
%TO.P,U6,6*%
X6812500Y-48000000D03*
D38*
%TO.P,U6,7*%
X7750000Y-48437500D03*
%TO.P,U6,8*%
X8250000Y-48437500D03*
D39*
%TO.P,U6,9*%
%TO.N,IMU_INT*%
X9187500Y-48000000D03*
%TO.P,U6,10*%
%TO.N,SPI_MISO*%
X9187500Y-47500000D03*
%TO.P,U6,11*%
%TO.N,3V3*%
X9187500Y-47000000D03*
%TO.P,U6,12*%
%TO.N,GND*%
X9187500Y-46500000D03*
%TO.P,U6,13*%
%TO.N,3V3*%
X9187500Y-46000000D03*
D38*
%TO.P,U6,14*%
%TO.N,GND*%
X8250000Y-45562500D03*
D40*
%TO.P,U6,15*%
%TO.N,N/C*%
X8000000Y-47000000D03*
%TD*%
D41*
%TO.P,U1,1*%
%TO.N,N/C*%
X13125000Y-32625000D03*
%TO.P,U1,2*%
X13125000Y-32975000D03*
%TO.P,U1,3*%
X13125000Y-33325000D03*
%TO.P,U1,4*%
X13125000Y-33675000D03*
%TO.P,U1,5*%
X13125000Y-34025000D03*
%TO.P,U1,6*%
X13125000Y-34375000D03*
%TO.P,U1,7*%
%TO.N,I2C_SDA*%
X13125000Y-34725000D03*
%TO.P,U1,8*%
%TO.N,I2C_SCL*%
X13125000Y-35075000D03*
%TO.P,U1,9*%
%TO.N,3V3*%
X13125000Y-35425000D03*
%TO.P,U1,10*%
%TO.N,SPI_SCLK*%
X13125000Y-35775000D03*
%TO.P,U1,11*%
%TO.N,SPI_MOSI*%
X13125000Y-36125000D03*
%TO.P,U1,12*%
%TO.N,SPI_MISO*%
X13125000Y-36475000D03*
%TO.P,U1,13*%
%TO.N,CS_IMU*%
X13125000Y-36825000D03*
%TO.P,U1,14*%
%TO.N,CS_FLOW*%
X13125000Y-37175000D03*
%TO.P,U1,15*%
%TO.N,SDIO_D0*%
X13125000Y-37525000D03*
%TO.P,U1,16*%
%TO.N,SDIO_D1*%
X13125000Y-37875000D03*
%TO.P,U1,17*%
%TO.N,SDIO_D2*%
X13125000Y-38225000D03*
%TO.P,U1,18*%
%TO.N,SDIO_D3*%
X13125000Y-38575000D03*
%TO.P,U1,19*%
%TO.N,SDIO_CLK*%
X13125000Y-38925000D03*
%TO.P,U1,20*%
%TO.N,SDIO_CMD*%
X13125000Y-39275000D03*
%TO.P,U1,21*%
%TO.N,3V3*%
X13125000Y-39625000D03*
%TO.P,U1,22*%
%TO.N,VBAT_SENSE*%
X13125000Y-39975000D03*
%TO.P,U1,23*%
%TO.N,IMU_INT*%
X13125000Y-40325000D03*
%TO.P,U1,24*%
%TO.N,EXP_IO*%
X13125000Y-40675000D03*
%TO.P,U1,25*%
%TO.N,VL53_XSHUT*%
X13125000Y-41025000D03*
%TO.P,U1,26*%
%TO.N,3V3*%
X13125000Y-41375000D03*
D42*
%TO.P,U1,27*%
%TO.N,FLASH_CS*%
X13625000Y-41875000D03*
%TO.P,U1,28*%
%TO.N,FLASH_IO1*%
X13975000Y-41875000D03*
%TO.P,U1,29*%
%TO.N,FLASH_IO2*%
X14325000Y-41875000D03*
%TO.P,U1,30*%
%TO.N,3V3*%
X14675000Y-41875000D03*
%TO.P,U1,31*%
%TO.N,FLASH_IO3*%
X15025000Y-41875000D03*
%TO.P,U1,32*%
%TO.N,FLASH_CK*%
X15375000Y-41875000D03*
%TO.P,U1,33*%
%TO.N,FLASH_IO0*%
X15725000Y-41875000D03*
%TO.P,U1,34*%
%TO.N,DSI_REXT*%
X16075000Y-41875000D03*
%TO.P,U1,35*%
%TO.N,N/C*%
X16425000Y-41875000D03*
%TO.P,U1,36*%
X16775000Y-41875000D03*
%TO.P,U1,37*%
X17125000Y-41875000D03*
%TO.P,U1,38*%
X17475000Y-41875000D03*
%TO.P,U1,39*%
X17825000Y-41875000D03*
%TO.P,U1,40*%
X18175000Y-41875000D03*
%TO.P,U1,41*%
%TO.N,VDD_MIPI*%
X18525000Y-41875000D03*
%TO.P,U1,42*%
%TO.N,CSI_D0N*%
X18875000Y-41875000D03*
%TO.P,U1,43*%
%TO.N,CSI_D0P*%
X19225000Y-41875000D03*
%TO.P,U1,44*%
%TO.N,CSI_CKP*%
X19575000Y-41875000D03*
%TO.P,U1,45*%
%TO.N,CSI_CKN*%
X19925000Y-41875000D03*
%TO.P,U1,46*%
%TO.N,CSI_D1N*%
X20275000Y-41875000D03*
%TO.P,U1,47*%
%TO.N,CSI_D1P*%
X20625000Y-41875000D03*
%TO.P,U1,48*%
%TO.N,CSI_REXT*%
X20975000Y-41875000D03*
%TO.P,U1,49*%
%TO.N,USB_DM_MCU*%
X21325000Y-41875000D03*
%TO.P,U1,50*%
%TO.N,USB_DP_MCU*%
X21675000Y-41875000D03*
%TO.P,U1,51*%
%TO.N,3V3*%
X22025000Y-41875000D03*
%TO.P,U1,52*%
%TO.N,LED_DIN*%
X22375000Y-41875000D03*
D41*
%TO.P,U1,53*%
%TO.N,CAM_PWDN*%
X22875000Y-41375000D03*
%TO.P,U1,54*%
%TO.N,N/C*%
X22875000Y-41025000D03*
%TO.P,U1,55*%
X22875000Y-40675000D03*
%TO.P,U1,56*%
X22875000Y-40325000D03*
%TO.P,U1,57*%
X22875000Y-39975000D03*
%TO.P,U1,58*%
X22875000Y-39625000D03*
%TO.P,U1,59*%
%TO.N,3V3*%
X22875000Y-39275000D03*
%TO.P,U1,60*%
%TO.N,N/C*%
X22875000Y-38925000D03*
%TO.P,U1,61*%
X22875000Y-38575000D03*
%TO.P,U1,62*%
%TO.N,3V3*%
X22875000Y-38225000D03*
%TO.P,U1,63*%
%TO.N,N/C*%
X22875000Y-37875000D03*
%TO.P,U1,64*%
X22875000Y-37525000D03*
%TO.P,U1,65*%
X22875000Y-37175000D03*
%TO.P,U1,66*%
%TO.N,BOOT*%
X22875000Y-36825000D03*
%TO.P,U1,67*%
%TO.N,3V3*%
X22875000Y-36475000D03*
%TO.P,U1,68*%
%TO.N,N/C*%
X22875000Y-36125000D03*
%TO.P,U1,69*%
%TO.N,U0TXD*%
X22875000Y-35775000D03*
%TO.P,U1,70*%
%TO.N,U0RXD*%
X22875000Y-35425000D03*
%TO.P,U1,71*%
%TO.N,3V3*%
X22875000Y-35075000D03*
%TO.P,U1,72*%
X22875000Y-34725000D03*
%TO.P,U1,73*%
X22875000Y-34375000D03*
%TO.P,U1,74*%
X22875000Y-34025000D03*
%TO.P,U1,75*%
X22875000Y-33675000D03*
%TO.P,U1,76*%
X22875000Y-33325000D03*
%TO.P,U1,77*%
%TO.N,VDD_DCDCC*%
X22875000Y-32975000D03*
%TO.P,U1,78*%
%TO.N,VDD_CORE*%
X22875000Y-32625000D03*
D42*
%TO.P,U1,79*%
%TO.N,3V3*%
X22375000Y-32125000D03*
%TO.P,U1,80*%
%TO.N,N/C*%
X22025000Y-32125000D03*
%TO.P,U1,81*%
X21675000Y-32125000D03*
%TO.P,U1,82*%
X21325000Y-32125000D03*
%TO.P,U1,83*%
X20975000Y-32125000D03*
%TO.P,U1,84*%
X20625000Y-32125000D03*
%TO.P,U1,85*%
%TO.N,3V3*%
X20275000Y-32125000D03*
%TO.P,U1,86*%
%TO.N,N/C*%
X19925000Y-32125000D03*
%TO.P,U1,87*%
%TO.N,M1_G*%
X19575000Y-32125000D03*
%TO.P,U1,88*%
%TO.N,M2_G*%
X19225000Y-32125000D03*
%TO.P,U1,89*%
%TO.N,M3_G*%
X18875000Y-32125000D03*
%TO.P,U1,90*%
%TO.N,M4_G*%
X18525000Y-32125000D03*
%TO.P,U1,91*%
%TO.N,3V3*%
X18175000Y-32125000D03*
%TO.P,U1,92*%
%TO.N,N/C*%
X17825000Y-32125000D03*
%TO.P,U1,93*%
X17475000Y-32125000D03*
%TO.P,U1,94*%
X17125000Y-32125000D03*
%TO.P,U1,95*%
X16775000Y-32125000D03*
%TO.P,U1,96*%
%TO.N,3V3*%
X16425000Y-32125000D03*
%TO.P,U1,97*%
%TO.N,N/C*%
X16075000Y-32125000D03*
%TO.P,U1,98*%
%TO.N,C6_EN*%
X15725000Y-32125000D03*
%TO.P,U1,99*%
%TO.N,XTAL_N*%
X15375000Y-32125000D03*
%TO.P,U1,100*%
%TO.N,XTAL_P*%
X15025000Y-32125000D03*
%TO.P,U1,101*%
%TO.N,3V3*%
X14675000Y-32125000D03*
%TO.P,U1,102*%
X14325000Y-32125000D03*
%TO.P,U1,103*%
%TO.N,CHIP_PU*%
X13975000Y-32125000D03*
%TO.P,U1,104*%
%TO.N,GPIO0*%
X13625000Y-32125000D03*
D43*
%TO.P,U1,105*%
%TO.N,GND*%
X15300000Y-34300000D03*
X15300000Y-37000000D03*
X15300000Y-39700000D03*
X18000000Y-34300000D03*
X18000000Y-37000000D03*
X18000000Y-39700000D03*
X20700000Y-34300000D03*
X20700000Y-37000000D03*
X20700000Y-39700000D03*
%TD*%
D12*
%TO.P,R5,1*%
%TO.N,FB3V3*%
X26373322Y-59647604D03*
%TO.P,R5,2*%
%TO.N,GND*%
X27393322Y-59647604D03*
%TD*%
%TO.P,R17,1*%
%TO.N,3V3*%
X27890000Y-37000000D03*
%TO.P,R17,2*%
%TO.N,SDIO_D0*%
X28910000Y-37000000D03*
%TD*%
D20*
%TO.P,SW2,1*%
%TO.N,BOOT*%
X29100000Y-50000000D03*
%TO.P,SW2,2*%
%TO.N,GND*%
X36900000Y-50000000D03*
%TD*%
D18*
%TO.P,C3,1*%
%TO.N,VBAT*%
X11778710Y-51609211D03*
%TO.P,C3,2*%
%TO.N,GND*%
X13678710Y-51609211D03*
%TD*%
D10*
%TO.P,C24,1*%
%TO.N,3V3*%
X10319748Y-31768711D03*
%TO.P,C24,2*%
%TO.N,GND*%
X11279748Y-31768711D03*
%TD*%
D12*
%TO.P,R4,1*%
%TO.N,3V3*%
X19854570Y-60140782D03*
%TO.P,R4,2*%
%TO.N,FB3V3*%
X20874570Y-60140782D03*
%TD*%
D10*
%TO.P,C23,1*%
%TO.N,3V3*%
X24754780Y-32350488D03*
%TO.P,C23,2*%
%TO.N,GND*%
X25714780Y-32350488D03*
%TD*%
%TO.P,C6,1*%
%TO.N,VBAT_SENSE*%
X22869556Y-59878855D03*
%TO.P,C6,2*%
%TO.N,GND*%
X23829556Y-59878855D03*
%TD*%
D17*
%TO.P,LED1,1*%
%TO.N,VBAT*%
X6085000Y-21450000D03*
%TO.P,LED1,2*%
%TO.N,LED_DIN*%
X6085000Y-22550000D03*
%TO.P,LED1,3*%
%TO.N,GND*%
X7915000Y-22550000D03*
%TO.P,LED1,4*%
%TO.N,LED_D12*%
X7915000Y-21450000D03*
%TD*%
D12*
%TO.P,R1,1*%
%TO.N,CC1*%
X6490000Y-28000000D03*
%TO.P,R1,2*%
%TO.N,GND*%
X7510000Y-28000000D03*
%TD*%
D32*
%TO.P,J5,1*%
%TO.N,VBAT*%
X32000000Y-11000000D03*
D33*
%TO.P,J5,2*%
%TO.N,M1_D*%
X32000000Y-13540000D03*
%TD*%
D44*
%TO.P,Q3,1*%
%TO.N,M3_D*%
X5062500Y-54050000D03*
%TO.P,Q3,2*%
%TO.N,GND*%
X5062500Y-55950000D03*
%TO.P,Q3,3*%
%TO.N,M3_GATE*%
X6937500Y-55000000D03*
%TD*%
D10*
%TO.P,C25,1*%
%TO.N,3V3*%
X15442336Y-28345907D03*
%TO.P,C25,2*%
%TO.N,GND*%
X16402336Y-28345907D03*
%TD*%
D12*
%TO.P,R25,1*%
%TO.N,M4_G*%
X18709220Y-26067776D03*
%TO.P,R25,2*%
%TO.N,M4_GATE*%
X19729220Y-26067776D03*
%TD*%
%TO.P,R21,1*%
%TO.N,3V3*%
X27090000Y-64000000D03*
%TO.P,R21,2*%
%TO.N,C6_BOOT*%
X28110000Y-64000000D03*
%TD*%
D10*
%TO.P,C29,1*%
%TO.N,3V3*%
X3784702Y-47698248D03*
%TO.P,C29,2*%
%TO.N,GND*%
X4744702Y-47698248D03*
%TD*%
%TO.P,C17,1*%
%TO.N,3V3*%
X21417382Y-43986444D03*
%TO.P,C17,2*%
%TO.N,GND*%
X22377382Y-43986444D03*
%TD*%
D12*
%TO.P,R6,1*%
%TO.N,3V3_EN*%
X27597697Y-61489034D03*
%TO.P,R6,2*%
%TO.N,VBAT*%
X28617697Y-61489034D03*
%TD*%
%TO.P,R28,1*%
%TO.N,M3_GATE*%
X6878427Y-57883100D03*
%TO.P,R28,2*%
%TO.N,GND*%
X7898427Y-57883100D03*
%TD*%
D18*
%TO.P,C1,1*%
%TO.N,VBUS*%
X16193852Y-53733128D03*
%TO.P,C1,2*%
%TO.N,GND*%
X18093852Y-53733128D03*
%TD*%
D12*
%TO.P,R29,1*%
%TO.N,M4_GATE*%
X6878427Y-13116899D03*
%TO.P,R29,2*%
%TO.N,GND*%
X7898427Y-13116899D03*
%TD*%
%TO.P,R27,1*%
%TO.N,M2_GATE*%
X33290000Y-55000000D03*
%TO.P,R27,2*%
%TO.N,GND*%
X34310000Y-55000000D03*
%TD*%
D10*
%TO.P,C13,1*%
%TO.N,3V3*%
X24920000Y-37000000D03*
%TO.P,C13,2*%
%TO.N,GND*%
X25880000Y-37000000D03*
%TD*%
%TO.P,C19,1*%
%TO.N,3V3*%
X24766017Y-41047868D03*
%TO.P,C19,2*%
%TO.N,GND*%
X25726017Y-41047868D03*
%TD*%
D12*
%TO.P,R7,1*%
%TO.N,VBAT*%
X15722386Y-51219912D03*
%TO.P,R7,2*%
%TO.N,VBAT_SENSE*%
X16742386Y-51219912D03*
%TD*%
D10*
%TO.P,C22,1*%
%TO.N,3V3*%
X22882012Y-30276249D03*
%TO.P,C22,2*%
%TO.N,GND*%
X23842012Y-30276249D03*
%TD*%
D12*
%TO.P,R9,1*%
%TO.N,3V3*%
X32490000Y-37700000D03*
%TO.P,R9,2*%
%TO.N,CHIP_PU*%
X33510000Y-37700000D03*
%TD*%
%TO.P,R19,1*%
%TO.N,3V3*%
X23434601Y-45896724D03*
%TO.P,R19,2*%
%TO.N,SDIO_D2*%
X24454601Y-45896724D03*
%TD*%
D10*
%TO.P,C12,1*%
%TO.N,3V3*%
X15258744Y-43730284D03*
%TO.P,C12,2*%
%TO.N,GND*%
X16218744Y-43730284D03*
%TD*%
D44*
%TO.P,Q4,1*%
%TO.N,M4_D*%
X5062500Y-15050000D03*
%TO.P,Q4,2*%
%TO.N,GND*%
X5062500Y-16950000D03*
%TO.P,Q4,3*%
%TO.N,M4_GATE*%
X6937500Y-16000000D03*
%TD*%
D45*
%TO.P,Y1,1*%
%TO.N,XTAL_P*%
X28900000Y-33850000D03*
%TO.P,Y1,2*%
%TO.N,GND*%
X31100000Y-33850000D03*
%TO.P,Y1,3*%
%TO.N,XTAL_N*%
X31100000Y-32150000D03*
%TO.P,Y1,4*%
%TO.N,GND*%
X28900000Y-32150000D03*
%TD*%
D12*
%TO.P,R8,1*%
%TO.N,VBAT_SENSE*%
X23545087Y-47860700D03*
%TO.P,R8,2*%
%TO.N,GND*%
X24565087Y-47860700D03*
%TD*%
D10*
%TO.P,C9,1*%
%TO.N,XTAL_N*%
X33320000Y-33000000D03*
%TO.P,C9,2*%
%TO.N,GND*%
X34280000Y-33000000D03*
%TD*%
D44*
%TO.P,Q1,1*%
%TO.N,M1_D*%
X29062500Y-15050000D03*
%TO.P,Q1,2*%
%TO.N,GND*%
X29062500Y-16950000D03*
%TO.P,Q1,3*%
%TO.N,M1_GATE*%
X30937500Y-16000000D03*
%TD*%
D10*
%TO.P,C34,1*%
%TO.N,VBAT*%
X5649313Y-19550121D03*
%TO.P,C34,2*%
%TO.N,GND*%
X6609313Y-19550121D03*
%TD*%
D46*
%TO.P,L2,1*%
%TO.N,VDD_DCDCC*%
X15121541Y-48409990D03*
%TO.P,L2,2*%
%TO.N,VDD_CORE*%
X16696541Y-48409990D03*
%TD*%
D12*
%TO.P,R15,1*%
%TO.N,3V3*%
X24896345Y-43417635D03*
%TO.P,R15,2*%
%TO.N,FLASH_IO3*%
X25916345Y-43417635D03*
%TD*%
D10*
%TO.P,C20,1*%
%TO.N,3V3*%
X17695427Y-45598210D03*
%TO.P,C20,2*%
%TO.N,GND*%
X18655427Y-45598210D03*
%TD*%
D44*
%TO.P,Q2,1*%
%TO.N,M2_D*%
X29062500Y-54050000D03*
%TO.P,Q2,2*%
%TO.N,GND*%
X29062500Y-55950000D03*
%TO.P,Q2,3*%
%TO.N,M2_GATE*%
X30937500Y-55000000D03*
%TD*%
D32*
%TO.P,J3,1*%
%TO.N,3V3*%
X29000000Y-43000000D03*
D33*
%TO.P,J3,2*%
%TO.N,CS_FLOW*%
X26460000Y-43000000D03*
%TO.P,J3,3*%
%TO.N,GND*%
X29000000Y-45540000D03*
%TO.P,J3,4*%
%TO.N,SPI_SCLK*%
X26460000Y-45540000D03*
%TO.P,J3,5*%
%TO.N,SPI_MOSI*%
X29000000Y-48080000D03*
%TO.P,J3,6*%
%TO.N,SPI_MISO*%
X26460000Y-48080000D03*
%TO.P,J3,7*%
%TO.N,GND*%
X29000000Y-50620000D03*
%TO.P,J3,8*%
%TO.N,3V3*%
X26460000Y-50620000D03*
%TD*%
M02*
