%TF.GenerationSoftware,KiCad,Pcbnew,7.0.11+dfsg-1build4*%
%TF.CreationDate,2026-06-14T01:38:49+00:00*%
%TF.ProjectId,stratosdrone,73747261-746f-4736-9472-6f6e652e6b69,rev?*%
%TF.SameCoordinates,Original*%
%TF.FileFunction,Copper,L4,Bot*%
%TF.FilePolarity,Positive*%
%FSLAX46Y46*%
G04 Gerber Fmt 4.6, Leading zero omitted, Abs format (unit mm)*
G04 Created by KiCad (PCBNEW 7.0.11+dfsg-1build4) date 2026-06-14 01:38:49*
%MOMM*%
%LPD*%
G01*
G04 APERTURE LIST*
G04 Aperture macros list*
%AMRoundRect*
0 Rectangle with rounded corners*
0 $1 Rounding radius*
0 $2 $3 $4 $5 $6 $7 $8 $9 X,Y pos of 4 corners*
0 Add a 4 corners polygon primitive as box body*
4,1,4,$2,$3,$4,$5,$6,$7,$8,$9,$2,$3,0*
0 Add four circle primitives for the rounded corners*
1,1,$1+$1,$2,$3*
1,1,$1+$1,$4,$5*
1,1,$1+$1,$6,$7*
1,1,$1+$1,$8,$9*
0 Add four rect primitives between the rounded corners*
20,1,$1+$1,$2,$3,$4,$5,0*
20,1,$1+$1,$4,$5,$6,$7,0*
20,1,$1+$1,$6,$7,$8,$9,0*
20,1,$1+$1,$8,$9,$2,$3,0*%
G04 Aperture macros list end*
%TA.AperFunction,ComponentPad*%
%ADD10O,2.100000X1.000000*%
%TD*%
%TA.AperFunction,ComponentPad*%
%ADD11O,1.600000X1.000000*%
%TD*%
%TA.AperFunction,ComponentPad*%
%ADD12R,1.000000X1.000000*%
%TD*%
%TA.AperFunction,ComponentPad*%
%ADD13O,1.000000X1.000000*%
%TD*%
%TA.AperFunction,ComponentPad*%
%ADD14R,1.700000X1.700000*%
%TD*%
%TA.AperFunction,ComponentPad*%
%ADD15O,1.700000X1.700000*%
%TD*%
%TA.AperFunction,SMDPad,CuDef*%
%ADD16RoundRect,0.140000X0.140000X0.170000X-0.140000X0.170000X-0.140000X-0.170000X0.140000X-0.170000X0*%
%TD*%
%TA.AperFunction,SMDPad,CuDef*%
%ADD17R,0.500000X0.500000*%
%TD*%
%TA.AperFunction,SMDPad,CuDef*%
%ADD18RoundRect,0.137500X0.137500X0.287500X-0.137500X0.287500X-0.137500X-0.287500X0.137500X-0.287500X0*%
%TD*%
G04 APERTURE END LIST*
D10*
%TO.P,J2,S1*%
%TO.N,GND*%
X370000Y-32320000D03*
D11*
X4550000Y-32320000D03*
D10*
X370000Y-23680000D03*
D11*
X4550000Y-23680000D03*
%TD*%
D12*
%TO.P,J11,1*%
%TO.N,GND*%
X25000000Y-64000000D03*
D13*
%TO.P,J11,2*%
%TO.N,C6_U0TXD*%
X25000000Y-65270000D03*
%TO.P,J11,3*%
%TO.N,C6_U0RXD*%
X25000000Y-66540000D03*
%TO.P,J11,4*%
%TO.N,C6_BOOT*%
X25000000Y-67810000D03*
%TD*%
D12*
%TO.P,J9,1*%
%TO.N,3V3*%
X4000000Y-40000000D03*
D13*
%TO.P,J9,2*%
%TO.N,GND*%
X4000000Y-41270000D03*
%TO.P,J9,3*%
%TO.N,VBAT*%
X4000000Y-42540000D03*
%TO.P,J9,4*%
%TO.N,I2C_SDA*%
X4000000Y-43810000D03*
%TO.P,J9,5*%
%TO.N,I2C_SCL*%
X4000000Y-45080000D03*
%TO.P,J9,6*%
%TO.N,EXP_IO*%
X4000000Y-46350000D03*
%TD*%
D14*
%TO.P,J7,1*%
%TO.N,VBAT*%
X4000000Y-59000000D03*
D15*
%TO.P,J7,2*%
%TO.N,M3_D*%
X4000000Y-61540000D03*
%TD*%
D14*
%TO.P,J6,1*%
%TO.N,VBAT*%
X32000000Y-59000000D03*
D15*
%TO.P,J6,2*%
%TO.N,M2_D*%
X32000000Y-61540000D03*
%TD*%
D14*
%TO.P,J8,1*%
%TO.N,VBAT*%
X4000000Y-11000000D03*
D15*
%TO.P,J8,2*%
%TO.N,M4_D*%
X4000000Y-13540000D03*
%TD*%
D12*
%TO.P,J10,1*%
%TO.N,GND*%
X13000000Y-64000000D03*
D13*
%TO.P,J10,2*%
%TO.N,U0TXD*%
X13000000Y-65270000D03*
%TO.P,J10,3*%
%TO.N,U0RXD*%
X13000000Y-66540000D03*
%TO.P,J10,4*%
%TO.N,3V3*%
X13000000Y-67810000D03*
%TD*%
D14*
%TO.P,J5,1*%
%TO.N,VBAT*%
X32000000Y-11000000D03*
D15*
%TO.P,J5,2*%
%TO.N,M1_D*%
X32000000Y-13540000D03*
%TD*%
D14*
%TO.P,J3,1*%
%TO.N,3V3*%
X29000000Y-43000000D03*
D15*
%TO.P,J3,2*%
%TO.N,CS_FLOW*%
X26460000Y-43000000D03*
%TO.P,J3,3*%
%TO.N,GND*%
X29000000Y-45540000D03*
%TO.P,J3,4*%
%TO.N,SPI_SCLK*%
X26460000Y-45540000D03*
%TO.P,J3,5*%
%TO.N,SPI_MOSI*%
X29000000Y-48080000D03*
%TO.P,J3,6*%
%TO.N,SPI_MISO*%
X26460000Y-48080000D03*
%TO.P,J3,7*%
%TO.N,GND*%
X29000000Y-50620000D03*
%TO.P,J3,8*%
%TO.N,3V3*%
X26460000Y-50620000D03*
%TD*%
D16*
%TO.P,C31,1*%
%TO.N,3V3*%
X18302569Y-38593938D03*
%TO.P,C31,2*%
%TO.N,GND*%
X17342569Y-38593938D03*
%TD*%
D17*
%TO.P,U8,1*%
%TO.N,GND*%
X19600000Y-35200000D03*
%TO.P,U8,2*%
%TO.N,N/C*%
X18800000Y-35210000D03*
%TO.P,U8,3*%
X18000000Y-35200000D03*
%TO.P,U8,4*%
%TO.N,VL53_XSHUT*%
X17200000Y-35200000D03*
%TO.P,U8,5*%
%TO.N,3V3*%
X16400000Y-35200000D03*
%TO.P,U8,6*%
X16400000Y-36000000D03*
%TO.P,U8,7*%
%TO.N,TOF_INT*%
X16400000Y-36800000D03*
%TO.P,U8,8*%
%TO.N,I2C_SCL*%
X17200000Y-36800000D03*
%TO.P,U8,9*%
%TO.N,N/C*%
X18000000Y-36800000D03*
%TO.P,U8,10*%
%TO.N,I2C_SDA*%
X18800000Y-36800000D03*
%TO.P,U8,11*%
%TO.N,N/C*%
X19600000Y-36800000D03*
%TO.P,U8,12*%
X19600000Y-36000000D03*
%TD*%
D16*
%TO.P,C32,1*%
%TO.N,3V3*%
X18827296Y-45969615D03*
%TO.P,C32,2*%
%TO.N,GND*%
X17867296Y-45969615D03*
%TD*%
D18*
%TO.P,U9,1*%
%TO.N,3V3*%
X18000000Y-44000000D03*
%TO.P,U9,2*%
%TO.N,GND*%
X18000000Y-44000000D03*
%TO.P,U9,3*%
%TO.N,SPI_SCLK*%
X18000000Y-44000000D03*
%TO.P,U9,4*%
%TO.N,SPI_MOSI*%
X18000000Y-44000000D03*
%TO.P,U9,5*%
%TO.N,SPI_MISO*%
X18000000Y-44000000D03*
%TO.P,U9,6*%
%TO.N,CS_FLOW*%
X18000000Y-44000000D03*
%TO.P,U9,7*%
%TO.N,GND*%
X18000000Y-44000000D03*
%TO.P,U9,8*%
%TO.N,3V3*%
X18000000Y-44000000D03*
%TD*%
M02*
