%TF.GenerationSoftware,KiCad,Pcbnew,7.0.11+dfsg-1build4*%
%TF.CreationDate,2026-06-14T01:09:49+00:00*%
%TF.ProjectId,stratosdrone,73747261-746f-4736-9472-6f6e652e6b69,rev?*%
%TF.SameCoordinates,Original*%
%TF.FileFunction,Legend,Bot*%
%TF.FilePolarity,Positive*%
%FSLAX46Y46*%
G04 Gerber Fmt 4.6, Leading zero omitted, Abs format (unit mm)*
G04 Created by KiCad (PCBNEW 7.0.11+dfsg-1build4) date 2026-06-14 01:09:49*
%MOMM*%
%LPD*%
G01*
G04 APERTURE LIST*
%ADD10C,0.150000*%
%ADD11C,0.120000*%
G04 APERTURE END LIST*
D10*
X8329887Y-38346009D02*
X8663220Y-38346009D01*
X8663220Y-38869819D02*
X8663220Y-37869819D01*
X8663220Y-37869819D02*
X8187030Y-37869819D01*
X7329887Y-38869819D02*
X7806077Y-38869819D01*
X7806077Y-38869819D02*
X7806077Y-37869819D01*
X6806077Y-37869819D02*
X6615601Y-37869819D01*
X6615601Y-37869819D02*
X6520363Y-37917438D01*
X6520363Y-37917438D02*
X6425125Y-38012676D01*
X6425125Y-38012676D02*
X6377506Y-38203152D01*
X6377506Y-38203152D02*
X6377506Y-38536485D01*
X6377506Y-38536485D02*
X6425125Y-38726961D01*
X6425125Y-38726961D02*
X6520363Y-38822200D01*
X6520363Y-38822200D02*
X6615601Y-38869819D01*
X6615601Y-38869819D02*
X6806077Y-38869819D01*
X6806077Y-38869819D02*
X6901315Y-38822200D01*
X6901315Y-38822200D02*
X6996553Y-38726961D01*
X6996553Y-38726961D02*
X7044172Y-38536485D01*
X7044172Y-38536485D02*
X7044172Y-38203152D01*
X7044172Y-38203152D02*
X6996553Y-38012676D01*
X6996553Y-38012676D02*
X6901315Y-37917438D01*
X6901315Y-37917438D02*
X6806077Y-37869819D01*
X6044172Y-37869819D02*
X5806077Y-38869819D01*
X5806077Y-38869819D02*
X5615601Y-38155533D01*
X5615601Y-38155533D02*
X5425125Y-38869819D01*
X5425125Y-38869819D02*
X5187030Y-37869819D01*
X4044172Y-38488866D02*
X3282268Y-38488866D01*
X3663220Y-38869819D02*
X3663220Y-38107914D01*
X2187029Y-37869819D02*
X1615601Y-37869819D01*
X1901315Y-38869819D02*
X1901315Y-37869819D01*
X1139410Y-38869819D02*
X1234648Y-38822200D01*
X1234648Y-38822200D02*
X1282267Y-38774580D01*
X1282267Y-38774580D02*
X1329886Y-38679342D01*
X1329886Y-38679342D02*
X1329886Y-38393628D01*
X1329886Y-38393628D02*
X1282267Y-38298390D01*
X1282267Y-38298390D02*
X1234648Y-38250771D01*
X1234648Y-38250771D02*
X1139410Y-38203152D01*
X1139410Y-38203152D02*
X996553Y-38203152D01*
X996553Y-38203152D02*
X901315Y-38250771D01*
X901315Y-38250771D02*
X853696Y-38298390D01*
X853696Y-38298390D02*
X806077Y-38393628D01*
X806077Y-38393628D02*
X806077Y-38679342D01*
X806077Y-38679342D02*
X853696Y-38774580D01*
X853696Y-38774580D02*
X901315Y-38822200D01*
X901315Y-38822200D02*
X996553Y-38869819D01*
X996553Y-38869819D02*
X1139410Y-38869819D01*
X44172Y-38346009D02*
X377505Y-38346009D01*
X377505Y-38869819D02*
X377505Y-37869819D01*
X377505Y-37869819D02*
X-98684Y-37869819D01*
X23063333Y-41124819D02*
X23063333Y-41839104D01*
X23063333Y-41839104D02*
X23110952Y-41981961D01*
X23110952Y-41981961D02*
X23206190Y-42077200D01*
X23206190Y-42077200D02*
X23349047Y-42124819D01*
X23349047Y-42124819D02*
X23444285Y-42124819D01*
X22682380Y-41124819D02*
X22063333Y-41124819D01*
X22063333Y-41124819D02*
X22396666Y-41505771D01*
X22396666Y-41505771D02*
X22253809Y-41505771D01*
X22253809Y-41505771D02*
X22158571Y-41553390D01*
X22158571Y-41553390D02*
X22110952Y-41601009D01*
X22110952Y-41601009D02*
X22063333Y-41696247D01*
X22063333Y-41696247D02*
X22063333Y-41934342D01*
X22063333Y-41934342D02*
X22110952Y-42029580D01*
X22110952Y-42029580D02*
X22158571Y-42077200D01*
X22158571Y-42077200D02*
X22253809Y-42124819D01*
X22253809Y-42124819D02*
X22539523Y-42124819D01*
X22539523Y-42124819D02*
X22634761Y-42077200D01*
X22634761Y-42077200D02*
X22682380Y-42029580D01*
X9742857Y-52999580D02*
X9790476Y-53047200D01*
X9790476Y-53047200D02*
X9933333Y-53094819D01*
X9933333Y-53094819D02*
X10028571Y-53094819D01*
X10028571Y-53094819D02*
X10171428Y-53047200D01*
X10171428Y-53047200D02*
X10266666Y-52951961D01*
X10266666Y-52951961D02*
X10314285Y-52856723D01*
X10314285Y-52856723D02*
X10361904Y-52666247D01*
X10361904Y-52666247D02*
X10361904Y-52523390D01*
X10361904Y-52523390D02*
X10314285Y-52332914D01*
X10314285Y-52332914D02*
X10266666Y-52237676D01*
X10266666Y-52237676D02*
X10171428Y-52142438D01*
X10171428Y-52142438D02*
X10028571Y-52094819D01*
X10028571Y-52094819D02*
X9933333Y-52094819D01*
X9933333Y-52094819D02*
X9790476Y-52142438D01*
X9790476Y-52142438D02*
X9742857Y-52190057D01*
X9409523Y-52094819D02*
X8790476Y-52094819D01*
X8790476Y-52094819D02*
X9123809Y-52475771D01*
X9123809Y-52475771D02*
X8980952Y-52475771D01*
X8980952Y-52475771D02*
X8885714Y-52523390D01*
X8885714Y-52523390D02*
X8838095Y-52571009D01*
X8838095Y-52571009D02*
X8790476Y-52666247D01*
X8790476Y-52666247D02*
X8790476Y-52904342D01*
X8790476Y-52904342D02*
X8838095Y-52999580D01*
X8838095Y-52999580D02*
X8885714Y-53047200D01*
X8885714Y-53047200D02*
X8980952Y-53094819D01*
X8980952Y-53094819D02*
X9266666Y-53094819D01*
X9266666Y-53094819D02*
X9361904Y-53047200D01*
X9361904Y-53047200D02*
X9409523Y-52999580D01*
X8409523Y-52190057D02*
X8361904Y-52142438D01*
X8361904Y-52142438D02*
X8266666Y-52094819D01*
X8266666Y-52094819D02*
X8028571Y-52094819D01*
X8028571Y-52094819D02*
X7933333Y-52142438D01*
X7933333Y-52142438D02*
X7885714Y-52190057D01*
X7885714Y-52190057D02*
X7838095Y-52285295D01*
X7838095Y-52285295D02*
X7838095Y-52380533D01*
X7838095Y-52380533D02*
X7885714Y-52523390D01*
X7885714Y-52523390D02*
X8457142Y-53094819D01*
X8457142Y-53094819D02*
X7838095Y-53094819D01*
X16967619Y-41309726D02*
X16967619Y-42337821D01*
X16967619Y-42337821D02*
X16907142Y-42458773D01*
X16907142Y-42458773D02*
X16846666Y-42519250D01*
X16846666Y-42519250D02*
X16725714Y-42579726D01*
X16725714Y-42579726D02*
X16483809Y-42579726D01*
X16483809Y-42579726D02*
X16362857Y-42519250D01*
X16362857Y-42519250D02*
X16302380Y-42458773D01*
X16302380Y-42458773D02*
X16241904Y-42337821D01*
X16241904Y-42337821D02*
X16241904Y-41309726D01*
X15576666Y-42579726D02*
X15334762Y-42579726D01*
X15334762Y-42579726D02*
X15213809Y-42519250D01*
X15213809Y-42519250D02*
X15153333Y-42458773D01*
X15153333Y-42458773D02*
X15032381Y-42277345D01*
X15032381Y-42277345D02*
X14971904Y-42035440D01*
X14971904Y-42035440D02*
X14971904Y-41551630D01*
X14971904Y-41551630D02*
X15032381Y-41430678D01*
X15032381Y-41430678D02*
X15092857Y-41370202D01*
X15092857Y-41370202D02*
X15213809Y-41309726D01*
X15213809Y-41309726D02*
X15455714Y-41309726D01*
X15455714Y-41309726D02*
X15576666Y-41370202D01*
X15576666Y-41370202D02*
X15637143Y-41430678D01*
X15637143Y-41430678D02*
X15697619Y-41551630D01*
X15697619Y-41551630D02*
X15697619Y-41854011D01*
X15697619Y-41854011D02*
X15637143Y-41974964D01*
X15637143Y-41974964D02*
X15576666Y-42035440D01*
X15576666Y-42035440D02*
X15455714Y-42095916D01*
X15455714Y-42095916D02*
X15213809Y-42095916D01*
X15213809Y-42095916D02*
X15092857Y-42035440D01*
X15092857Y-42035440D02*
X15032381Y-41974964D01*
X15032381Y-41974964D02*
X14971904Y-41854011D01*
X21563810Y-42579726D02*
X21563810Y-41309726D01*
X21563810Y-41309726D02*
X21080000Y-41309726D01*
X21080000Y-41309726D02*
X20959048Y-41370202D01*
X20959048Y-41370202D02*
X20898571Y-41430678D01*
X20898571Y-41430678D02*
X20838095Y-41551630D01*
X20838095Y-41551630D02*
X20838095Y-41733059D01*
X20838095Y-41733059D02*
X20898571Y-41854011D01*
X20898571Y-41854011D02*
X20959048Y-41914488D01*
X20959048Y-41914488D02*
X21080000Y-41974964D01*
X21080000Y-41974964D02*
X21563810Y-41974964D01*
X20293810Y-42579726D02*
X20293810Y-41309726D01*
X20293810Y-41309726D02*
X19870476Y-42216869D01*
X19870476Y-42216869D02*
X19447143Y-41309726D01*
X19447143Y-41309726D02*
X19447143Y-42579726D01*
X18963333Y-41309726D02*
X18660952Y-42579726D01*
X18660952Y-42579726D02*
X18419047Y-41672583D01*
X18419047Y-41672583D02*
X18177142Y-42579726D01*
X18177142Y-42579726D02*
X17874762Y-41309726D01*
X17511904Y-41309726D02*
X16725713Y-41309726D01*
X16725713Y-41309726D02*
X17149047Y-41793535D01*
X17149047Y-41793535D02*
X16967618Y-41793535D01*
X16967618Y-41793535D02*
X16846666Y-41854011D01*
X16846666Y-41854011D02*
X16786190Y-41914488D01*
X16786190Y-41914488D02*
X16725713Y-42035440D01*
X16725713Y-42035440D02*
X16725713Y-42337821D01*
X16725713Y-42337821D02*
X16786190Y-42458773D01*
X16786190Y-42458773D02*
X16846666Y-42519250D01*
X16846666Y-42519250D02*
X16967618Y-42579726D01*
X16967618Y-42579726D02*
X17330475Y-42579726D01*
X17330475Y-42579726D02*
X17451428Y-42519250D01*
X17451428Y-42519250D02*
X17511904Y-42458773D01*
X16120951Y-42579726D02*
X15879047Y-42579726D01*
X15879047Y-42579726D02*
X15758094Y-42519250D01*
X15758094Y-42519250D02*
X15697618Y-42458773D01*
X15697618Y-42458773D02*
X15576666Y-42277345D01*
X15576666Y-42277345D02*
X15516189Y-42035440D01*
X15516189Y-42035440D02*
X15516189Y-41551630D01*
X15516189Y-41551630D02*
X15576666Y-41430678D01*
X15576666Y-41430678D02*
X15637142Y-41370202D01*
X15637142Y-41370202D02*
X15758094Y-41309726D01*
X15758094Y-41309726D02*
X15999999Y-41309726D01*
X15999999Y-41309726D02*
X16120951Y-41370202D01*
X16120951Y-41370202D02*
X16181428Y-41430678D01*
X16181428Y-41430678D02*
X16241904Y-41551630D01*
X16241904Y-41551630D02*
X16241904Y-41854011D01*
X16241904Y-41854011D02*
X16181428Y-41974964D01*
X16181428Y-41974964D02*
X16120951Y-42035440D01*
X16120951Y-42035440D02*
X15999999Y-42095916D01*
X15999999Y-42095916D02*
X15758094Y-42095916D01*
X15758094Y-42095916D02*
X15637142Y-42035440D01*
X15637142Y-42035440D02*
X15576666Y-41974964D01*
X15576666Y-41974964D02*
X15516189Y-41854011D01*
X14729999Y-41309726D02*
X14609046Y-41309726D01*
X14609046Y-41309726D02*
X14488094Y-41370202D01*
X14488094Y-41370202D02*
X14427618Y-41430678D01*
X14427618Y-41430678D02*
X14367142Y-41551630D01*
X14367142Y-41551630D02*
X14306665Y-41793535D01*
X14306665Y-41793535D02*
X14306665Y-42095916D01*
X14306665Y-42095916D02*
X14367142Y-42337821D01*
X14367142Y-42337821D02*
X14427618Y-42458773D01*
X14427618Y-42458773D02*
X14488094Y-42519250D01*
X14488094Y-42519250D02*
X14609046Y-42579726D01*
X14609046Y-42579726D02*
X14729999Y-42579726D01*
X14729999Y-42579726D02*
X14850951Y-42519250D01*
X14850951Y-42519250D02*
X14911427Y-42458773D01*
X14911427Y-42458773D02*
X14971904Y-42337821D01*
X14971904Y-42337821D02*
X15032380Y-42095916D01*
X15032380Y-42095916D02*
X15032380Y-41793535D01*
X15032380Y-41793535D02*
X14971904Y-41551630D01*
X14971904Y-41551630D02*
X14911427Y-41430678D01*
X14911427Y-41430678D02*
X14850951Y-41370202D01*
X14850951Y-41370202D02*
X14729999Y-41309726D01*
X13097141Y-42579726D02*
X13822856Y-42579726D01*
X13459999Y-42579726D02*
X13459999Y-41309726D01*
X13459999Y-41309726D02*
X13580951Y-41491154D01*
X13580951Y-41491154D02*
X13701903Y-41612107D01*
X13701903Y-41612107D02*
X13822856Y-41672583D01*
X12552856Y-42579726D02*
X12552856Y-41309726D01*
X12552856Y-41309726D02*
X12129522Y-42216869D01*
X12129522Y-42216869D02*
X11706189Y-41309726D01*
X11706189Y-41309726D02*
X11706189Y-42579726D01*
X10678093Y-41914488D02*
X10496665Y-41974964D01*
X10496665Y-41974964D02*
X10436188Y-42035440D01*
X10436188Y-42035440D02*
X10375712Y-42156392D01*
X10375712Y-42156392D02*
X10375712Y-42337821D01*
X10375712Y-42337821D02*
X10436188Y-42458773D01*
X10436188Y-42458773D02*
X10496665Y-42519250D01*
X10496665Y-42519250D02*
X10617617Y-42579726D01*
X10617617Y-42579726D02*
X11101427Y-42579726D01*
X11101427Y-42579726D02*
X11101427Y-41309726D01*
X11101427Y-41309726D02*
X10678093Y-41309726D01*
X10678093Y-41309726D02*
X10557141Y-41370202D01*
X10557141Y-41370202D02*
X10496665Y-41430678D01*
X10496665Y-41430678D02*
X10436188Y-41551630D01*
X10436188Y-41551630D02*
X10436188Y-41672583D01*
X10436188Y-41672583D02*
X10496665Y-41793535D01*
X10496665Y-41793535D02*
X10557141Y-41854011D01*
X10557141Y-41854011D02*
X10678093Y-41914488D01*
X10678093Y-41914488D02*
X11101427Y-41914488D01*
X16761904Y-32254819D02*
X16761904Y-33064342D01*
X16761904Y-33064342D02*
X16714285Y-33159580D01*
X16714285Y-33159580D02*
X16666666Y-33207200D01*
X16666666Y-33207200D02*
X16571428Y-33254819D01*
X16571428Y-33254819D02*
X16380952Y-33254819D01*
X16380952Y-33254819D02*
X16285714Y-33207200D01*
X16285714Y-33207200D02*
X16238095Y-33159580D01*
X16238095Y-33159580D02*
X16190476Y-33064342D01*
X16190476Y-33064342D02*
X16190476Y-32254819D01*
X15571428Y-32683390D02*
X15666666Y-32635771D01*
X15666666Y-32635771D02*
X15714285Y-32588152D01*
X15714285Y-32588152D02*
X15761904Y-32492914D01*
X15761904Y-32492914D02*
X15761904Y-32445295D01*
X15761904Y-32445295D02*
X15714285Y-32350057D01*
X15714285Y-32350057D02*
X15666666Y-32302438D01*
X15666666Y-32302438D02*
X15571428Y-32254819D01*
X15571428Y-32254819D02*
X15380952Y-32254819D01*
X15380952Y-32254819D02*
X15285714Y-32302438D01*
X15285714Y-32302438D02*
X15238095Y-32350057D01*
X15238095Y-32350057D02*
X15190476Y-32445295D01*
X15190476Y-32445295D02*
X15190476Y-32492914D01*
X15190476Y-32492914D02*
X15238095Y-32588152D01*
X15238095Y-32588152D02*
X15285714Y-32635771D01*
X15285714Y-32635771D02*
X15380952Y-32683390D01*
X15380952Y-32683390D02*
X15571428Y-32683390D01*
X15571428Y-32683390D02*
X15666666Y-32731009D01*
X15666666Y-32731009D02*
X15714285Y-32778628D01*
X15714285Y-32778628D02*
X15761904Y-32873866D01*
X15761904Y-32873866D02*
X15761904Y-33064342D01*
X15761904Y-33064342D02*
X15714285Y-33159580D01*
X15714285Y-33159580D02*
X15666666Y-33207200D01*
X15666666Y-33207200D02*
X15571428Y-33254819D01*
X15571428Y-33254819D02*
X15380952Y-33254819D01*
X15380952Y-33254819D02*
X15285714Y-33207200D01*
X15285714Y-33207200D02*
X15238095Y-33159580D01*
X15238095Y-33159580D02*
X15190476Y-33064342D01*
X15190476Y-33064342D02*
X15190476Y-32873866D01*
X15190476Y-32873866D02*
X15238095Y-32778628D01*
X15238095Y-32778628D02*
X15285714Y-32731009D01*
X15285714Y-32731009D02*
X15380952Y-32683390D01*
X7542857Y-52999580D02*
X7590476Y-53047200D01*
X7590476Y-53047200D02*
X7733333Y-53094819D01*
X7733333Y-53094819D02*
X7828571Y-53094819D01*
X7828571Y-53094819D02*
X7971428Y-53047200D01*
X7971428Y-53047200D02*
X8066666Y-52951961D01*
X8066666Y-52951961D02*
X8114285Y-52856723D01*
X8114285Y-52856723D02*
X8161904Y-52666247D01*
X8161904Y-52666247D02*
X8161904Y-52523390D01*
X8161904Y-52523390D02*
X8114285Y-52332914D01*
X8114285Y-52332914D02*
X8066666Y-52237676D01*
X8066666Y-52237676D02*
X7971428Y-52142438D01*
X7971428Y-52142438D02*
X7828571Y-52094819D01*
X7828571Y-52094819D02*
X7733333Y-52094819D01*
X7733333Y-52094819D02*
X7590476Y-52142438D01*
X7590476Y-52142438D02*
X7542857Y-52190057D01*
X7209523Y-52094819D02*
X6590476Y-52094819D01*
X6590476Y-52094819D02*
X6923809Y-52475771D01*
X6923809Y-52475771D02*
X6780952Y-52475771D01*
X6780952Y-52475771D02*
X6685714Y-52523390D01*
X6685714Y-52523390D02*
X6638095Y-52571009D01*
X6638095Y-52571009D02*
X6590476Y-52666247D01*
X6590476Y-52666247D02*
X6590476Y-52904342D01*
X6590476Y-52904342D02*
X6638095Y-52999580D01*
X6638095Y-52999580D02*
X6685714Y-53047200D01*
X6685714Y-53047200D02*
X6780952Y-53094819D01*
X6780952Y-53094819D02*
X7066666Y-53094819D01*
X7066666Y-53094819D02*
X7161904Y-53047200D01*
X7161904Y-53047200D02*
X7209523Y-52999580D01*
X5638095Y-53094819D02*
X6209523Y-53094819D01*
X5923809Y-53094819D02*
X5923809Y-52094819D01*
X5923809Y-52094819D02*
X6019047Y-52237676D01*
X6019047Y-52237676D02*
X6114285Y-52332914D01*
X6114285Y-52332914D02*
X6209523Y-52380533D01*
D11*
%TO.C,J3*%
X25330000Y-52950000D02*
X20130000Y-52950000D01*
X25330000Y-45270000D02*
X25330000Y-52950000D01*
X25330000Y-45270000D02*
X22730000Y-45270000D01*
X25330000Y-44000000D02*
X25330000Y-42670000D01*
X25330000Y-42670000D02*
X24000000Y-42670000D01*
X22730000Y-45270000D02*
X22730000Y-42670000D01*
X22730000Y-42670000D02*
X20130000Y-42670000D01*
X20130000Y-42670000D02*
X20130000Y-52950000D01*
%TO.C,C32*%
X9207836Y-54160000D02*
X8992164Y-54160000D01*
X9207836Y-53440000D02*
X8992164Y-53440000D01*
%TO.C,U8*%
X18350000Y-36360000D02*
X18350000Y-35760000D01*
X18350000Y-34060000D02*
X18350000Y-34660000D01*
X17870000Y-33660000D02*
X17550000Y-33660000D01*
X17750000Y-36360000D02*
X18350000Y-36360000D01*
X14250000Y-33660000D02*
X13650000Y-33660000D01*
X13650000Y-36360000D02*
X14250000Y-36360000D01*
X13650000Y-35760000D02*
X13650000Y-36360000D01*
X13650000Y-33660000D02*
X13650000Y-34260000D01*
X18510000Y-33760000D02*
X18230000Y-33760000D01*
X18230000Y-33480000D01*
X18510000Y-33760000D01*
G36*
X18510000Y-33760000D02*
G01*
X18230000Y-33760000D01*
X18230000Y-33480000D01*
X18510000Y-33760000D01*
G37*
%TO.C,C31*%
X7007836Y-54160000D02*
X6792164Y-54160000D01*
X7007836Y-53440000D02*
X6792164Y-53440000D01*
%TD*%
M02*
