%TF.GenerationSoftware,KiCad,Pcbnew,7.0.11+dfsg-1build4*%
%TF.CreationDate,2026-06-17T00:40:04+00:00*%
%TF.ProjectId,stratosdrone,73747261-746f-4736-9472-6f6e652e6b69,rev?*%
%TF.SameCoordinates,Original*%
%TF.FileFunction,Legend,Top*%
%TF.FilePolarity,Positive*%
%FSLAX46Y46*%
G04 Gerber Fmt 4.6, Leading zero omitted, Abs format (unit mm)*
G04 Created by KiCad (PCBNEW 7.0.11+dfsg-1build4) date 2026-06-17 00:40:04*
%MOMM*%
%LPD*%
G01*
G04 APERTURE LIST*
%ADD10C,0.150000*%
%ADD11C,0.210000*%
%ADD12C,0.140000*%
%ADD13C,0.120000*%
%ADD14C,0.100000*%
%ADD15C,0.300000*%
G04 APERTURE END LIST*
D10*
X2500000Y-2000000D02*
X33500000Y-2000000D01*
X33500000Y-2000000D02*
X33500000Y-9500000D01*
X33500000Y-9500000D02*
X2500000Y-9500000D01*
X2500000Y-9500000D02*
X2500000Y-2000000D01*
X3000000Y-10500000D02*
X33000000Y-10500000D01*
X33000000Y-10500000D02*
X33000000Y-20000000D01*
X33000000Y-20000000D02*
X3000000Y-20000000D01*
X3000000Y-20000000D02*
X3000000Y-10500000D01*
X2500000Y-21500000D02*
X33500000Y-21500000D01*
X33500000Y-21500000D02*
X33500000Y-40000000D01*
X33500000Y-40000000D02*
X2500000Y-40000000D01*
X2500000Y-40000000D02*
X2500000Y-21500000D01*
D11*
X4904823Y-1351080D02*
X5104823Y-1417746D01*
X5104823Y-1417746D02*
X5438157Y-1417746D01*
X5438157Y-1417746D02*
X5571490Y-1351080D01*
X5571490Y-1351080D02*
X5638157Y-1284413D01*
X5638157Y-1284413D02*
X5704823Y-1151080D01*
X5704823Y-1151080D02*
X5704823Y-1017746D01*
X5704823Y-1017746D02*
X5638157Y-884413D01*
X5638157Y-884413D02*
X5571490Y-817746D01*
X5571490Y-817746D02*
X5438157Y-751080D01*
X5438157Y-751080D02*
X5171490Y-684413D01*
X5171490Y-684413D02*
X5038157Y-617746D01*
X5038157Y-617746D02*
X4971490Y-551080D01*
X4971490Y-551080D02*
X4904823Y-417746D01*
X4904823Y-417746D02*
X4904823Y-284413D01*
X4904823Y-284413D02*
X4971490Y-151080D01*
X4971490Y-151080D02*
X5038157Y-84413D01*
X5038157Y-84413D02*
X5171490Y-17746D01*
X5171490Y-17746D02*
X5504823Y-17746D01*
X5504823Y-17746D02*
X5704823Y-84413D01*
X6104823Y-17746D02*
X6904823Y-17746D01*
X6504823Y-1417746D02*
X6504823Y-17746D01*
X8171490Y-1417746D02*
X7704823Y-751080D01*
X7371490Y-1417746D02*
X7371490Y-17746D01*
X7371490Y-17746D02*
X7904823Y-17746D01*
X7904823Y-17746D02*
X8038157Y-84413D01*
X8038157Y-84413D02*
X8104823Y-151080D01*
X8104823Y-151080D02*
X8171490Y-284413D01*
X8171490Y-284413D02*
X8171490Y-484413D01*
X8171490Y-484413D02*
X8104823Y-617746D01*
X8104823Y-617746D02*
X8038157Y-684413D01*
X8038157Y-684413D02*
X7904823Y-751080D01*
X7904823Y-751080D02*
X7371490Y-751080D01*
X8704823Y-1017746D02*
X9371490Y-1017746D01*
X8571490Y-1417746D02*
X9038157Y-17746D01*
X9038157Y-17746D02*
X9504823Y-1417746D01*
X9771490Y-17746D02*
X10571490Y-17746D01*
X10171490Y-1417746D02*
X10171490Y-17746D01*
X11304824Y-17746D02*
X11571490Y-17746D01*
X11571490Y-17746D02*
X11704824Y-84413D01*
X11704824Y-84413D02*
X11838157Y-217746D01*
X11838157Y-217746D02*
X11904824Y-484413D01*
X11904824Y-484413D02*
X11904824Y-951080D01*
X11904824Y-951080D02*
X11838157Y-1217746D01*
X11838157Y-1217746D02*
X11704824Y-1351080D01*
X11704824Y-1351080D02*
X11571490Y-1417746D01*
X11571490Y-1417746D02*
X11304824Y-1417746D01*
X11304824Y-1417746D02*
X11171490Y-1351080D01*
X11171490Y-1351080D02*
X11038157Y-1217746D01*
X11038157Y-1217746D02*
X10971490Y-951080D01*
X10971490Y-951080D02*
X10971490Y-484413D01*
X10971490Y-484413D02*
X11038157Y-217746D01*
X11038157Y-217746D02*
X11171490Y-84413D01*
X11171490Y-84413D02*
X11304824Y-17746D01*
X12438157Y-1351080D02*
X12638157Y-1417746D01*
X12638157Y-1417746D02*
X12971491Y-1417746D01*
X12971491Y-1417746D02*
X13104824Y-1351080D01*
X13104824Y-1351080D02*
X13171491Y-1284413D01*
X13171491Y-1284413D02*
X13238157Y-1151080D01*
X13238157Y-1151080D02*
X13238157Y-1017746D01*
X13238157Y-1017746D02*
X13171491Y-884413D01*
X13171491Y-884413D02*
X13104824Y-817746D01*
X13104824Y-817746D02*
X12971491Y-751080D01*
X12971491Y-751080D02*
X12704824Y-684413D01*
X12704824Y-684413D02*
X12571491Y-617746D01*
X12571491Y-617746D02*
X12504824Y-551080D01*
X12504824Y-551080D02*
X12438157Y-417746D01*
X12438157Y-417746D02*
X12438157Y-284413D01*
X12438157Y-284413D02*
X12504824Y-151080D01*
X12504824Y-151080D02*
X12571491Y-84413D01*
X12571491Y-84413D02*
X12704824Y-17746D01*
X12704824Y-17746D02*
X13038157Y-17746D01*
X13038157Y-17746D02*
X13238157Y-84413D01*
X13838157Y-1417746D02*
X13838157Y-17746D01*
X13838157Y-17746D02*
X14171490Y-17746D01*
X14171490Y-17746D02*
X14371490Y-84413D01*
X14371490Y-84413D02*
X14504824Y-217746D01*
X14504824Y-217746D02*
X14571490Y-351080D01*
X14571490Y-351080D02*
X14638157Y-617746D01*
X14638157Y-617746D02*
X14638157Y-817746D01*
X14638157Y-817746D02*
X14571490Y-1084413D01*
X14571490Y-1084413D02*
X14504824Y-1217746D01*
X14504824Y-1217746D02*
X14371490Y-1351080D01*
X14371490Y-1351080D02*
X14171490Y-1417746D01*
X14171490Y-1417746D02*
X13838157Y-1417746D01*
X16038157Y-1417746D02*
X15571490Y-751080D01*
X15238157Y-1417746D02*
X15238157Y-17746D01*
X15238157Y-17746D02*
X15771490Y-17746D01*
X15771490Y-17746D02*
X15904824Y-84413D01*
X15904824Y-84413D02*
X15971490Y-151080D01*
X15971490Y-151080D02*
X16038157Y-284413D01*
X16038157Y-284413D02*
X16038157Y-484413D01*
X16038157Y-484413D02*
X15971490Y-617746D01*
X15971490Y-617746D02*
X15904824Y-684413D01*
X15904824Y-684413D02*
X15771490Y-751080D01*
X15771490Y-751080D02*
X15238157Y-751080D01*
X16904824Y-17746D02*
X17171490Y-17746D01*
X17171490Y-17746D02*
X17304824Y-84413D01*
X17304824Y-84413D02*
X17438157Y-217746D01*
X17438157Y-217746D02*
X17504824Y-484413D01*
X17504824Y-484413D02*
X17504824Y-951080D01*
X17504824Y-951080D02*
X17438157Y-1217746D01*
X17438157Y-1217746D02*
X17304824Y-1351080D01*
X17304824Y-1351080D02*
X17171490Y-1417746D01*
X17171490Y-1417746D02*
X16904824Y-1417746D01*
X16904824Y-1417746D02*
X16771490Y-1351080D01*
X16771490Y-1351080D02*
X16638157Y-1217746D01*
X16638157Y-1217746D02*
X16571490Y-951080D01*
X16571490Y-951080D02*
X16571490Y-484413D01*
X16571490Y-484413D02*
X16638157Y-217746D01*
X16638157Y-217746D02*
X16771490Y-84413D01*
X16771490Y-84413D02*
X16904824Y-17746D01*
X18104824Y-1417746D02*
X18104824Y-17746D01*
X18104824Y-17746D02*
X18904824Y-1417746D01*
X18904824Y-1417746D02*
X18904824Y-17746D01*
X19571491Y-684413D02*
X20038158Y-684413D01*
X20238158Y-1417746D02*
X19571491Y-1417746D01*
X19571491Y-1417746D02*
X19571491Y-17746D01*
X19571491Y-17746D02*
X20238158Y-17746D01*
D10*
X13908207Y-8574580D02*
X13860588Y-8622200D01*
X13860588Y-8622200D02*
X13717731Y-8669819D01*
X13717731Y-8669819D02*
X13622493Y-8669819D01*
X13622493Y-8669819D02*
X13479636Y-8622200D01*
X13479636Y-8622200D02*
X13384398Y-8526961D01*
X13384398Y-8526961D02*
X13336779Y-8431723D01*
X13336779Y-8431723D02*
X13289160Y-8241247D01*
X13289160Y-8241247D02*
X13289160Y-8098390D01*
X13289160Y-8098390D02*
X13336779Y-7907914D01*
X13336779Y-7907914D02*
X13384398Y-7812676D01*
X13384398Y-7812676D02*
X13479636Y-7717438D01*
X13479636Y-7717438D02*
X13622493Y-7669819D01*
X13622493Y-7669819D02*
X13717731Y-7669819D01*
X13717731Y-7669819D02*
X13860588Y-7717438D01*
X13860588Y-7717438D02*
X13908207Y-7765057D01*
X14289160Y-8384104D02*
X14765350Y-8384104D01*
X14193922Y-8669819D02*
X14527255Y-7669819D01*
X14527255Y-7669819D02*
X14860588Y-8669819D01*
X15193922Y-8669819D02*
X15193922Y-7669819D01*
X15193922Y-7669819D02*
X15527255Y-8384104D01*
X15527255Y-8384104D02*
X15860588Y-7669819D01*
X15860588Y-7669819D02*
X15860588Y-8669819D01*
X14908207Y-19069819D02*
X14574874Y-18593628D01*
X14336779Y-19069819D02*
X14336779Y-18069819D01*
X14336779Y-18069819D02*
X14717731Y-18069819D01*
X14717731Y-18069819D02*
X14812969Y-18117438D01*
X14812969Y-18117438D02*
X14860588Y-18165057D01*
X14860588Y-18165057D02*
X14908207Y-18260295D01*
X14908207Y-18260295D02*
X14908207Y-18403152D01*
X14908207Y-18403152D02*
X14860588Y-18498390D01*
X14860588Y-18498390D02*
X14812969Y-18546009D01*
X14812969Y-18546009D02*
X14717731Y-18593628D01*
X14717731Y-18593628D02*
X14336779Y-18593628D01*
X15670112Y-18546009D02*
X15336779Y-18546009D01*
X15336779Y-19069819D02*
X15336779Y-18069819D01*
X15336779Y-18069819D02*
X15812969Y-18069819D01*
X14408207Y-38974580D02*
X14360588Y-39022200D01*
X14360588Y-39022200D02*
X14217731Y-39069819D01*
X14217731Y-39069819D02*
X14122493Y-39069819D01*
X14122493Y-39069819D02*
X13979636Y-39022200D01*
X13979636Y-39022200D02*
X13884398Y-38926961D01*
X13884398Y-38926961D02*
X13836779Y-38831723D01*
X13836779Y-38831723D02*
X13789160Y-38641247D01*
X13789160Y-38641247D02*
X13789160Y-38498390D01*
X13789160Y-38498390D02*
X13836779Y-38307914D01*
X13836779Y-38307914D02*
X13884398Y-38212676D01*
X13884398Y-38212676D02*
X13979636Y-38117438D01*
X13979636Y-38117438D02*
X14122493Y-38069819D01*
X14122493Y-38069819D02*
X14217731Y-38069819D01*
X14217731Y-38069819D02*
X14360588Y-38117438D01*
X14360588Y-38117438D02*
X14408207Y-38165057D01*
X14836779Y-39069819D02*
X14836779Y-38069819D01*
X14836779Y-38069819D02*
X15217731Y-38069819D01*
X15217731Y-38069819D02*
X15312969Y-38117438D01*
X15312969Y-38117438D02*
X15360588Y-38165057D01*
X15360588Y-38165057D02*
X15408207Y-38260295D01*
X15408207Y-38260295D02*
X15408207Y-38403152D01*
X15408207Y-38403152D02*
X15360588Y-38498390D01*
X15360588Y-38498390D02*
X15312969Y-38546009D01*
X15312969Y-38546009D02*
X15217731Y-38593628D01*
X15217731Y-38593628D02*
X14836779Y-38593628D01*
X15836779Y-38069819D02*
X15836779Y-38879342D01*
X15836779Y-38879342D02*
X15884398Y-38974580D01*
X15884398Y-38974580D02*
X15932017Y-39022200D01*
X15932017Y-39022200D02*
X16027255Y-39069819D01*
X16027255Y-39069819D02*
X16217731Y-39069819D01*
X16217731Y-39069819D02*
X16312969Y-39022200D01*
X16312969Y-39022200D02*
X16360588Y-38974580D01*
X16360588Y-38974580D02*
X16408207Y-38879342D01*
X16408207Y-38879342D02*
X16408207Y-38069819D01*
X11670112Y-3546009D02*
X11336779Y-3546009D01*
X11336779Y-4069819D02*
X11336779Y-3069819D01*
X11336779Y-3069819D02*
X11812969Y-3069819D01*
X12765350Y-4069819D02*
X12432017Y-3593628D01*
X12193922Y-4069819D02*
X12193922Y-3069819D01*
X12193922Y-3069819D02*
X12574874Y-3069819D01*
X12574874Y-3069819D02*
X12670112Y-3117438D01*
X12670112Y-3117438D02*
X12717731Y-3165057D01*
X12717731Y-3165057D02*
X12765350Y-3260295D01*
X12765350Y-3260295D02*
X12765350Y-3403152D01*
X12765350Y-3403152D02*
X12717731Y-3498390D01*
X12717731Y-3498390D02*
X12670112Y-3546009D01*
X12670112Y-3546009D02*
X12574874Y-3593628D01*
X12574874Y-3593628D02*
X12193922Y-3593628D01*
X13384398Y-3069819D02*
X13574874Y-3069819D01*
X13574874Y-3069819D02*
X13670112Y-3117438D01*
X13670112Y-3117438D02*
X13765350Y-3212676D01*
X13765350Y-3212676D02*
X13812969Y-3403152D01*
X13812969Y-3403152D02*
X13812969Y-3736485D01*
X13812969Y-3736485D02*
X13765350Y-3926961D01*
X13765350Y-3926961D02*
X13670112Y-4022200D01*
X13670112Y-4022200D02*
X13574874Y-4069819D01*
X13574874Y-4069819D02*
X13384398Y-4069819D01*
X13384398Y-4069819D02*
X13289160Y-4022200D01*
X13289160Y-4022200D02*
X13193922Y-3926961D01*
X13193922Y-3926961D02*
X13146303Y-3736485D01*
X13146303Y-3736485D02*
X13146303Y-3403152D01*
X13146303Y-3403152D02*
X13193922Y-3212676D01*
X13193922Y-3212676D02*
X13289160Y-3117438D01*
X13289160Y-3117438D02*
X13384398Y-3069819D01*
X14241541Y-4069819D02*
X14241541Y-3069819D01*
X14241541Y-3069819D02*
X14812969Y-4069819D01*
X14812969Y-4069819D02*
X14812969Y-3069819D01*
X15146303Y-3069819D02*
X15717731Y-3069819D01*
X15432017Y-4069819D02*
X15432017Y-3069819D01*
X16670113Y-3165057D02*
X16860589Y-3022200D01*
X16860589Y-3022200D02*
X17051065Y-3165057D01*
D12*
X25306390Y-2882577D02*
X25306390Y-1982577D01*
X25306390Y-1982577D02*
X25606390Y-2625434D01*
X25606390Y-2625434D02*
X25906390Y-1982577D01*
X25906390Y-1982577D02*
X25906390Y-2882577D01*
X26806390Y-2882577D02*
X26292104Y-2882577D01*
X26549247Y-2882577D02*
X26549247Y-1982577D01*
X26549247Y-1982577D02*
X26463533Y-2111148D01*
X26463533Y-2111148D02*
X26377818Y-2196862D01*
X26377818Y-2196862D02*
X26292104Y-2239720D01*
X25306390Y-63382577D02*
X25306390Y-62482577D01*
X25306390Y-62482577D02*
X25606390Y-63125434D01*
X25606390Y-63125434D02*
X25906390Y-62482577D01*
X25906390Y-62482577D02*
X25906390Y-63382577D01*
X26292104Y-62568291D02*
X26334961Y-62525434D01*
X26334961Y-62525434D02*
X26420676Y-62482577D01*
X26420676Y-62482577D02*
X26634961Y-62482577D01*
X26634961Y-62482577D02*
X26720676Y-62525434D01*
X26720676Y-62525434D02*
X26763533Y-62568291D01*
X26763533Y-62568291D02*
X26806390Y-62654005D01*
X26806390Y-62654005D02*
X26806390Y-62739720D01*
X26806390Y-62739720D02*
X26763533Y-62868291D01*
X26763533Y-62868291D02*
X26249247Y-63382577D01*
X26249247Y-63382577D02*
X26806390Y-63382577D01*
X1306390Y-63382577D02*
X1306390Y-62482577D01*
X1306390Y-62482577D02*
X1606390Y-63125434D01*
X1606390Y-63125434D02*
X1906390Y-62482577D01*
X1906390Y-62482577D02*
X1906390Y-63382577D01*
X2249247Y-62482577D02*
X2806390Y-62482577D01*
X2806390Y-62482577D02*
X2506390Y-62825434D01*
X2506390Y-62825434D02*
X2634961Y-62825434D01*
X2634961Y-62825434D02*
X2720676Y-62868291D01*
X2720676Y-62868291D02*
X2763533Y-62911148D01*
X2763533Y-62911148D02*
X2806390Y-62996862D01*
X2806390Y-62996862D02*
X2806390Y-63211148D01*
X2806390Y-63211148D02*
X2763533Y-63296862D01*
X2763533Y-63296862D02*
X2720676Y-63339720D01*
X2720676Y-63339720D02*
X2634961Y-63382577D01*
X2634961Y-63382577D02*
X2377818Y-63382577D01*
X2377818Y-63382577D02*
X2292104Y-63339720D01*
X2292104Y-63339720D02*
X2249247Y-63296862D01*
X1306390Y-2882577D02*
X1306390Y-1982577D01*
X1306390Y-1982577D02*
X1606390Y-2625434D01*
X1606390Y-2625434D02*
X1906390Y-1982577D01*
X1906390Y-1982577D02*
X1906390Y-2882577D01*
X2720676Y-2282577D02*
X2720676Y-2882577D01*
X2506390Y-1939720D02*
X2292104Y-2582577D01*
X2292104Y-2582577D02*
X2849247Y-2582577D01*
D10*
X9265537Y-60871864D02*
X9217918Y-60919484D01*
X9217918Y-60919484D02*
X9075061Y-60967103D01*
X9075061Y-60967103D02*
X8979823Y-60967103D01*
X8979823Y-60967103D02*
X8836966Y-60919484D01*
X8836966Y-60919484D02*
X8741728Y-60824245D01*
X8741728Y-60824245D02*
X8694109Y-60729007D01*
X8694109Y-60729007D02*
X8646490Y-60538531D01*
X8646490Y-60538531D02*
X8646490Y-60395674D01*
X8646490Y-60395674D02*
X8694109Y-60205198D01*
X8694109Y-60205198D02*
X8741728Y-60109960D01*
X8741728Y-60109960D02*
X8836966Y-60014722D01*
X8836966Y-60014722D02*
X8979823Y-59967103D01*
X8979823Y-59967103D02*
X9075061Y-59967103D01*
X9075061Y-59967103D02*
X9217918Y-60014722D01*
X9217918Y-60014722D02*
X9265537Y-60062341D01*
X9646490Y-60062341D02*
X9694109Y-60014722D01*
X9694109Y-60014722D02*
X9789347Y-59967103D01*
X9789347Y-59967103D02*
X10027442Y-59967103D01*
X10027442Y-59967103D02*
X10122680Y-60014722D01*
X10122680Y-60014722D02*
X10170299Y-60062341D01*
X10170299Y-60062341D02*
X10217918Y-60157579D01*
X10217918Y-60157579D02*
X10217918Y-60252817D01*
X10217918Y-60252817D02*
X10170299Y-60395674D01*
X10170299Y-60395674D02*
X9598871Y-60967103D01*
X9598871Y-60967103D02*
X10217918Y-60967103D01*
X12936122Y-8337832D02*
X12936122Y-9147355D01*
X12936122Y-9147355D02*
X12983741Y-9242593D01*
X12983741Y-9242593D02*
X13031360Y-9290213D01*
X13031360Y-9290213D02*
X13126598Y-9337832D01*
X13126598Y-9337832D02*
X13317074Y-9337832D01*
X13317074Y-9337832D02*
X13412312Y-9290213D01*
X13412312Y-9290213D02*
X13459931Y-9242593D01*
X13459931Y-9242593D02*
X13507550Y-9147355D01*
X13507550Y-9147355D02*
X13507550Y-8337832D01*
X14507550Y-9337832D02*
X13936122Y-9337832D01*
X14221836Y-9337832D02*
X14221836Y-8337832D01*
X14221836Y-8337832D02*
X14126598Y-8480689D01*
X14126598Y-8480689D02*
X14031360Y-8575927D01*
X14031360Y-8575927D02*
X13936122Y-8623546D01*
X15126598Y-8337832D02*
X15221836Y-8337832D01*
X15221836Y-8337832D02*
X15317074Y-8385451D01*
X15317074Y-8385451D02*
X15364693Y-8433070D01*
X15364693Y-8433070D02*
X15412312Y-8528308D01*
X15412312Y-8528308D02*
X15459931Y-8718784D01*
X15459931Y-8718784D02*
X15459931Y-8956879D01*
X15459931Y-8956879D02*
X15412312Y-9147355D01*
X15412312Y-9147355D02*
X15364693Y-9242593D01*
X15364693Y-9242593D02*
X15317074Y-9290213D01*
X15317074Y-9290213D02*
X15221836Y-9337832D01*
X15221836Y-9337832D02*
X15126598Y-9337832D01*
X15126598Y-9337832D02*
X15031360Y-9290213D01*
X15031360Y-9290213D02*
X14983741Y-9242593D01*
X14983741Y-9242593D02*
X14936122Y-9147355D01*
X14936122Y-9147355D02*
X14888503Y-8956879D01*
X14888503Y-8956879D02*
X14888503Y-8718784D01*
X14888503Y-8718784D02*
X14936122Y-8528308D01*
X14936122Y-8528308D02*
X14983741Y-8433070D01*
X14983741Y-8433070D02*
X15031360Y-8385451D01*
X15031360Y-8385451D02*
X15126598Y-8337832D01*
X6279636Y-41396459D02*
X5946303Y-40920268D01*
X5708208Y-41396459D02*
X5708208Y-40396459D01*
X5708208Y-40396459D02*
X6089160Y-40396459D01*
X6089160Y-40396459D02*
X6184398Y-40444078D01*
X6184398Y-40444078D02*
X6232017Y-40491697D01*
X6232017Y-40491697D02*
X6279636Y-40586935D01*
X6279636Y-40586935D02*
X6279636Y-40729792D01*
X6279636Y-40729792D02*
X6232017Y-40825030D01*
X6232017Y-40825030D02*
X6184398Y-40872649D01*
X6184398Y-40872649D02*
X6089160Y-40920268D01*
X6089160Y-40920268D02*
X5708208Y-40920268D01*
X6660589Y-40491697D02*
X6708208Y-40444078D01*
X6708208Y-40444078D02*
X6803446Y-40396459D01*
X6803446Y-40396459D02*
X7041541Y-40396459D01*
X7041541Y-40396459D02*
X7136779Y-40444078D01*
X7136779Y-40444078D02*
X7184398Y-40491697D01*
X7184398Y-40491697D02*
X7232017Y-40586935D01*
X7232017Y-40586935D02*
X7232017Y-40682173D01*
X7232017Y-40682173D02*
X7184398Y-40825030D01*
X7184398Y-40825030D02*
X6612970Y-41396459D01*
X6612970Y-41396459D02*
X7232017Y-41396459D01*
X7565351Y-40396459D02*
X8184398Y-40396459D01*
X8184398Y-40396459D02*
X7851065Y-40777411D01*
X7851065Y-40777411D02*
X7993922Y-40777411D01*
X7993922Y-40777411D02*
X8089160Y-40825030D01*
X8089160Y-40825030D02*
X8136779Y-40872649D01*
X8136779Y-40872649D02*
X8184398Y-40967887D01*
X8184398Y-40967887D02*
X8184398Y-41205982D01*
X8184398Y-41205982D02*
X8136779Y-41301220D01*
X8136779Y-41301220D02*
X8089160Y-41348840D01*
X8089160Y-41348840D02*
X7993922Y-41396459D01*
X7993922Y-41396459D02*
X7708208Y-41396459D01*
X7708208Y-41396459D02*
X7612970Y-41348840D01*
X7612970Y-41348840D02*
X7565351Y-41301220D01*
X17666666Y-254819D02*
X17666666Y-969104D01*
X17666666Y-969104D02*
X17619047Y-1111961D01*
X17619047Y-1111961D02*
X17523809Y-1207200D01*
X17523809Y-1207200D02*
X17380952Y-1254819D01*
X17380952Y-1254819D02*
X17285714Y-1254819D01*
X18571428Y-588152D02*
X18571428Y-1254819D01*
X18333333Y-207200D02*
X18095238Y-921485D01*
X18095238Y-921485D02*
X18714285Y-921485D01*
X17238095Y-5954819D02*
X17238095Y-6764342D01*
X17238095Y-6764342D02*
X17285714Y-6859580D01*
X17285714Y-6859580D02*
X17333333Y-6907200D01*
X17333333Y-6907200D02*
X17428571Y-6954819D01*
X17428571Y-6954819D02*
X17619047Y-6954819D01*
X17619047Y-6954819D02*
X17714285Y-6907200D01*
X17714285Y-6907200D02*
X17761904Y-6859580D01*
X17761904Y-6859580D02*
X17809523Y-6764342D01*
X17809523Y-6764342D02*
X17809523Y-5954819D01*
X18190476Y-5954819D02*
X18809523Y-5954819D01*
X18809523Y-5954819D02*
X18476190Y-6335771D01*
X18476190Y-6335771D02*
X18619047Y-6335771D01*
X18619047Y-6335771D02*
X18714285Y-6383390D01*
X18714285Y-6383390D02*
X18761904Y-6431009D01*
X18761904Y-6431009D02*
X18809523Y-6526247D01*
X18809523Y-6526247D02*
X18809523Y-6764342D01*
X18809523Y-6764342D02*
X18761904Y-6859580D01*
X18761904Y-6859580D02*
X18714285Y-6907200D01*
X18714285Y-6907200D02*
X18619047Y-6954819D01*
X18619047Y-6954819D02*
X18333333Y-6954819D01*
X18333333Y-6954819D02*
X18238095Y-6907200D01*
X18238095Y-6907200D02*
X18190476Y-6859580D01*
X13238094Y-10319104D02*
X13714284Y-10319104D01*
X13142856Y-10604819D02*
X13476189Y-9604819D01*
X13476189Y-9604819D02*
X13809522Y-10604819D01*
X14142856Y-9938152D02*
X14142856Y-10604819D01*
X14142856Y-10033390D02*
X14190475Y-9985771D01*
X14190475Y-9985771D02*
X14285713Y-9938152D01*
X14285713Y-9938152D02*
X14428570Y-9938152D01*
X14428570Y-9938152D02*
X14523808Y-9985771D01*
X14523808Y-9985771D02*
X14571427Y-10081009D01*
X14571427Y-10081009D02*
X14571427Y-10604819D01*
X14904761Y-9938152D02*
X15285713Y-9938152D01*
X15047618Y-9604819D02*
X15047618Y-10461961D01*
X15047618Y-10461961D02*
X15095237Y-10557200D01*
X15095237Y-10557200D02*
X15190475Y-10604819D01*
X15190475Y-10604819D02*
X15285713Y-10604819D01*
X15999999Y-10557200D02*
X15904761Y-10604819D01*
X15904761Y-10604819D02*
X15714285Y-10604819D01*
X15714285Y-10604819D02*
X15619047Y-10557200D01*
X15619047Y-10557200D02*
X15571428Y-10461961D01*
X15571428Y-10461961D02*
X15571428Y-10081009D01*
X15571428Y-10081009D02*
X15619047Y-9985771D01*
X15619047Y-9985771D02*
X15714285Y-9938152D01*
X15714285Y-9938152D02*
X15904761Y-9938152D01*
X15904761Y-9938152D02*
X15999999Y-9985771D01*
X15999999Y-9985771D02*
X16047618Y-10081009D01*
X16047618Y-10081009D02*
X16047618Y-10176247D01*
X16047618Y-10176247D02*
X15571428Y-10271485D01*
X16476190Y-9938152D02*
X16476190Y-10604819D01*
X16476190Y-10033390D02*
X16523809Y-9985771D01*
X16523809Y-9985771D02*
X16619047Y-9938152D01*
X16619047Y-9938152D02*
X16761904Y-9938152D01*
X16761904Y-9938152D02*
X16857142Y-9985771D01*
X16857142Y-9985771D02*
X16904761Y-10081009D01*
X16904761Y-10081009D02*
X16904761Y-10604819D01*
X17380952Y-9938152D02*
X17380952Y-10604819D01*
X17380952Y-10033390D02*
X17428571Y-9985771D01*
X17428571Y-9985771D02*
X17523809Y-9938152D01*
X17523809Y-9938152D02*
X17666666Y-9938152D01*
X17666666Y-9938152D02*
X17761904Y-9985771D01*
X17761904Y-9985771D02*
X17809523Y-10081009D01*
X17809523Y-10081009D02*
X17809523Y-10604819D01*
X18714285Y-10604819D02*
X18714285Y-10081009D01*
X18714285Y-10081009D02*
X18666666Y-9985771D01*
X18666666Y-9985771D02*
X18571428Y-9938152D01*
X18571428Y-9938152D02*
X18380952Y-9938152D01*
X18380952Y-9938152D02*
X18285714Y-9985771D01*
X18714285Y-10557200D02*
X18619047Y-10604819D01*
X18619047Y-10604819D02*
X18380952Y-10604819D01*
X18380952Y-10604819D02*
X18285714Y-10557200D01*
X18285714Y-10557200D02*
X18238095Y-10461961D01*
X18238095Y-10461961D02*
X18238095Y-10366723D01*
X18238095Y-10366723D02*
X18285714Y-10271485D01*
X18285714Y-10271485D02*
X18380952Y-10223866D01*
X18380952Y-10223866D02*
X18619047Y-10223866D01*
X18619047Y-10223866D02*
X18714285Y-10176247D01*
X19904762Y-10319104D02*
X20380952Y-10319104D01*
X19809524Y-10604819D02*
X20142857Y-9604819D01*
X20142857Y-9604819D02*
X20476190Y-10604819D01*
X20809524Y-10604819D02*
X20809524Y-9938152D01*
X20809524Y-10128628D02*
X20857143Y-10033390D01*
X20857143Y-10033390D02*
X20904762Y-9985771D01*
X20904762Y-9985771D02*
X21000000Y-9938152D01*
X21000000Y-9938152D02*
X21095238Y-9938152D01*
X21809524Y-10557200D02*
X21714286Y-10604819D01*
X21714286Y-10604819D02*
X21523810Y-10604819D01*
X21523810Y-10604819D02*
X21428572Y-10557200D01*
X21428572Y-10557200D02*
X21380953Y-10461961D01*
X21380953Y-10461961D02*
X21380953Y-10081009D01*
X21380953Y-10081009D02*
X21428572Y-9985771D01*
X21428572Y-9985771D02*
X21523810Y-9938152D01*
X21523810Y-9938152D02*
X21714286Y-9938152D01*
X21714286Y-9938152D02*
X21809524Y-9985771D01*
X21809524Y-9985771D02*
X21857143Y-10081009D01*
X21857143Y-10081009D02*
X21857143Y-10176247D01*
X21857143Y-10176247D02*
X21380953Y-10271485D01*
X22714286Y-10604819D02*
X22714286Y-10081009D01*
X22714286Y-10081009D02*
X22666667Y-9985771D01*
X22666667Y-9985771D02*
X22571429Y-9938152D01*
X22571429Y-9938152D02*
X22380953Y-9938152D01*
X22380953Y-9938152D02*
X22285715Y-9985771D01*
X22714286Y-10557200D02*
X22619048Y-10604819D01*
X22619048Y-10604819D02*
X22380953Y-10604819D01*
X22380953Y-10604819D02*
X22285715Y-10557200D01*
X22285715Y-10557200D02*
X22238096Y-10461961D01*
X22238096Y-10461961D02*
X22238096Y-10366723D01*
X22238096Y-10366723D02*
X22285715Y-10271485D01*
X22285715Y-10271485D02*
X22380953Y-10223866D01*
X22380953Y-10223866D02*
X22619048Y-10223866D01*
X22619048Y-10223866D02*
X22714286Y-10176247D01*
X5904761Y-14150057D02*
X5809523Y-14102438D01*
X5809523Y-14102438D02*
X5714285Y-14007200D01*
X5714285Y-14007200D02*
X5571428Y-13864342D01*
X5571428Y-13864342D02*
X5476190Y-13816723D01*
X5476190Y-13816723D02*
X5380952Y-13816723D01*
X5428571Y-14054819D02*
X5333333Y-14007200D01*
X5333333Y-14007200D02*
X5238095Y-13911961D01*
X5238095Y-13911961D02*
X5190476Y-13721485D01*
X5190476Y-13721485D02*
X5190476Y-13388152D01*
X5190476Y-13388152D02*
X5238095Y-13197676D01*
X5238095Y-13197676D02*
X5333333Y-13102438D01*
X5333333Y-13102438D02*
X5428571Y-13054819D01*
X5428571Y-13054819D02*
X5619047Y-13054819D01*
X5619047Y-13054819D02*
X5714285Y-13102438D01*
X5714285Y-13102438D02*
X5809523Y-13197676D01*
X5809523Y-13197676D02*
X5857142Y-13388152D01*
X5857142Y-13388152D02*
X5857142Y-13721485D01*
X5857142Y-13721485D02*
X5809523Y-13911961D01*
X5809523Y-13911961D02*
X5714285Y-14007200D01*
X5714285Y-14007200D02*
X5619047Y-14054819D01*
X5619047Y-14054819D02*
X5428571Y-14054819D01*
X6714285Y-13388152D02*
X6714285Y-14054819D01*
X6476190Y-13007200D02*
X6238095Y-13721485D01*
X6238095Y-13721485D02*
X6857142Y-13721485D01*
X30745569Y-18167919D02*
X30412236Y-17691728D01*
X30174141Y-18167919D02*
X30174141Y-17167919D01*
X30174141Y-17167919D02*
X30555093Y-17167919D01*
X30555093Y-17167919D02*
X30650331Y-17215538D01*
X30650331Y-17215538D02*
X30697950Y-17263157D01*
X30697950Y-17263157D02*
X30745569Y-17358395D01*
X30745569Y-17358395D02*
X30745569Y-17501252D01*
X30745569Y-17501252D02*
X30697950Y-17596490D01*
X30697950Y-17596490D02*
X30650331Y-17644109D01*
X30650331Y-17644109D02*
X30555093Y-17691728D01*
X30555093Y-17691728D02*
X30174141Y-17691728D01*
X31126522Y-17263157D02*
X31174141Y-17215538D01*
X31174141Y-17215538D02*
X31269379Y-17167919D01*
X31269379Y-17167919D02*
X31507474Y-17167919D01*
X31507474Y-17167919D02*
X31602712Y-17215538D01*
X31602712Y-17215538D02*
X31650331Y-17263157D01*
X31650331Y-17263157D02*
X31697950Y-17358395D01*
X31697950Y-17358395D02*
X31697950Y-17453633D01*
X31697950Y-17453633D02*
X31650331Y-17596490D01*
X31650331Y-17596490D02*
X31078903Y-18167919D01*
X31078903Y-18167919D02*
X31697950Y-18167919D01*
X32555093Y-17167919D02*
X32364617Y-17167919D01*
X32364617Y-17167919D02*
X32269379Y-17215538D01*
X32269379Y-17215538D02*
X32221760Y-17263157D01*
X32221760Y-17263157D02*
X32126522Y-17406014D01*
X32126522Y-17406014D02*
X32078903Y-17596490D01*
X32078903Y-17596490D02*
X32078903Y-17977442D01*
X32078903Y-17977442D02*
X32126522Y-18072680D01*
X32126522Y-18072680D02*
X32174141Y-18120300D01*
X32174141Y-18120300D02*
X32269379Y-18167919D01*
X32269379Y-18167919D02*
X32459855Y-18167919D01*
X32459855Y-18167919D02*
X32555093Y-18120300D01*
X32555093Y-18120300D02*
X32602712Y-18072680D01*
X32602712Y-18072680D02*
X32650331Y-17977442D01*
X32650331Y-17977442D02*
X32650331Y-17739347D01*
X32650331Y-17739347D02*
X32602712Y-17644109D01*
X32602712Y-17644109D02*
X32555093Y-17596490D01*
X32555093Y-17596490D02*
X32459855Y-17548871D01*
X32459855Y-17548871D02*
X32269379Y-17548871D01*
X32269379Y-17548871D02*
X32174141Y-17596490D01*
X32174141Y-17596490D02*
X32126522Y-17644109D01*
X32126522Y-17644109D02*
X32078903Y-17739347D01*
X26833333Y-55904819D02*
X26357143Y-55904819D01*
X26357143Y-55904819D02*
X26357143Y-54904819D01*
X27690476Y-55904819D02*
X27119048Y-55904819D01*
X27404762Y-55904819D02*
X27404762Y-54904819D01*
X27404762Y-54904819D02*
X27309524Y-55047676D01*
X27309524Y-55047676D02*
X27214286Y-55142914D01*
X27214286Y-55142914D02*
X27119048Y-55190533D01*
X21485630Y-48083360D02*
X21152297Y-47607169D01*
X20914202Y-48083360D02*
X20914202Y-47083360D01*
X20914202Y-47083360D02*
X21295154Y-47083360D01*
X21295154Y-47083360D02*
X21390392Y-47130979D01*
X21390392Y-47130979D02*
X21438011Y-47178598D01*
X21438011Y-47178598D02*
X21485630Y-47273836D01*
X21485630Y-47273836D02*
X21485630Y-47416693D01*
X21485630Y-47416693D02*
X21438011Y-47511931D01*
X21438011Y-47511931D02*
X21390392Y-47559550D01*
X21390392Y-47559550D02*
X21295154Y-47607169D01*
X21295154Y-47607169D02*
X20914202Y-47607169D01*
X21866583Y-47178598D02*
X21914202Y-47130979D01*
X21914202Y-47130979D02*
X22009440Y-47083360D01*
X22009440Y-47083360D02*
X22247535Y-47083360D01*
X22247535Y-47083360D02*
X22342773Y-47130979D01*
X22342773Y-47130979D02*
X22390392Y-47178598D01*
X22390392Y-47178598D02*
X22438011Y-47273836D01*
X22438011Y-47273836D02*
X22438011Y-47369074D01*
X22438011Y-47369074D02*
X22390392Y-47511931D01*
X22390392Y-47511931D02*
X21818964Y-48083360D01*
X21818964Y-48083360D02*
X22438011Y-48083360D01*
X23295154Y-47416693D02*
X23295154Y-48083360D01*
X23057059Y-47035741D02*
X22818964Y-47750026D01*
X22818964Y-47750026D02*
X23438011Y-47750026D01*
X5904761Y-53150057D02*
X5809523Y-53102438D01*
X5809523Y-53102438D02*
X5714285Y-53007200D01*
X5714285Y-53007200D02*
X5571428Y-52864342D01*
X5571428Y-52864342D02*
X5476190Y-52816723D01*
X5476190Y-52816723D02*
X5380952Y-52816723D01*
X5428571Y-53054819D02*
X5333333Y-53007200D01*
X5333333Y-53007200D02*
X5238095Y-52911961D01*
X5238095Y-52911961D02*
X5190476Y-52721485D01*
X5190476Y-52721485D02*
X5190476Y-52388152D01*
X5190476Y-52388152D02*
X5238095Y-52197676D01*
X5238095Y-52197676D02*
X5333333Y-52102438D01*
X5333333Y-52102438D02*
X5428571Y-52054819D01*
X5428571Y-52054819D02*
X5619047Y-52054819D01*
X5619047Y-52054819D02*
X5714285Y-52102438D01*
X5714285Y-52102438D02*
X5809523Y-52197676D01*
X5809523Y-52197676D02*
X5857142Y-52388152D01*
X5857142Y-52388152D02*
X5857142Y-52721485D01*
X5857142Y-52721485D02*
X5809523Y-52911961D01*
X5809523Y-52911961D02*
X5714285Y-53007200D01*
X5714285Y-53007200D02*
X5619047Y-53054819D01*
X5619047Y-53054819D02*
X5428571Y-53054819D01*
X6190476Y-52054819D02*
X6809523Y-52054819D01*
X6809523Y-52054819D02*
X6476190Y-52435771D01*
X6476190Y-52435771D02*
X6619047Y-52435771D01*
X6619047Y-52435771D02*
X6714285Y-52483390D01*
X6714285Y-52483390D02*
X6761904Y-52531009D01*
X6761904Y-52531009D02*
X6809523Y-52626247D01*
X6809523Y-52626247D02*
X6809523Y-52864342D01*
X6809523Y-52864342D02*
X6761904Y-52959580D01*
X6761904Y-52959580D02*
X6714285Y-53007200D01*
X6714285Y-53007200D02*
X6619047Y-53054819D01*
X6619047Y-53054819D02*
X6333333Y-53054819D01*
X6333333Y-53054819D02*
X6238095Y-53007200D01*
X6238095Y-53007200D02*
X6190476Y-52959580D01*
X6745569Y-12401718D02*
X6412236Y-11925527D01*
X6174141Y-12401718D02*
X6174141Y-11401718D01*
X6174141Y-11401718D02*
X6555093Y-11401718D01*
X6555093Y-11401718D02*
X6650331Y-11449337D01*
X6650331Y-11449337D02*
X6697950Y-11496956D01*
X6697950Y-11496956D02*
X6745569Y-11592194D01*
X6745569Y-11592194D02*
X6745569Y-11735051D01*
X6745569Y-11735051D02*
X6697950Y-11830289D01*
X6697950Y-11830289D02*
X6650331Y-11877908D01*
X6650331Y-11877908D02*
X6555093Y-11925527D01*
X6555093Y-11925527D02*
X6174141Y-11925527D01*
X7126522Y-11496956D02*
X7174141Y-11449337D01*
X7174141Y-11449337D02*
X7269379Y-11401718D01*
X7269379Y-11401718D02*
X7507474Y-11401718D01*
X7507474Y-11401718D02*
X7602712Y-11449337D01*
X7602712Y-11449337D02*
X7650331Y-11496956D01*
X7650331Y-11496956D02*
X7697950Y-11592194D01*
X7697950Y-11592194D02*
X7697950Y-11687432D01*
X7697950Y-11687432D02*
X7650331Y-11830289D01*
X7650331Y-11830289D02*
X7078903Y-12401718D01*
X7078903Y-12401718D02*
X7697950Y-12401718D01*
X8174141Y-12401718D02*
X8364617Y-12401718D01*
X8364617Y-12401718D02*
X8459855Y-12354099D01*
X8459855Y-12354099D02*
X8507474Y-12306479D01*
X8507474Y-12306479D02*
X8602712Y-12163622D01*
X8602712Y-12163622D02*
X8650331Y-11973146D01*
X8650331Y-11973146D02*
X8650331Y-11592194D01*
X8650331Y-11592194D02*
X8602712Y-11496956D01*
X8602712Y-11496956D02*
X8555093Y-11449337D01*
X8555093Y-11449337D02*
X8459855Y-11401718D01*
X8459855Y-11401718D02*
X8269379Y-11401718D01*
X8269379Y-11401718D02*
X8174141Y-11449337D01*
X8174141Y-11449337D02*
X8126522Y-11496956D01*
X8126522Y-11496956D02*
X8078903Y-11592194D01*
X8078903Y-11592194D02*
X8078903Y-11830289D01*
X8078903Y-11830289D02*
X8126522Y-11925527D01*
X8126522Y-11925527D02*
X8174141Y-11973146D01*
X8174141Y-11973146D02*
X8269379Y-12020765D01*
X8269379Y-12020765D02*
X8459855Y-12020765D01*
X8459855Y-12020765D02*
X8555093Y-11973146D01*
X8555093Y-11973146D02*
X8602712Y-11925527D01*
X8602712Y-11925527D02*
X8650331Y-11830289D01*
X23182889Y-59078435D02*
X23135270Y-59126055D01*
X23135270Y-59126055D02*
X22992413Y-59173674D01*
X22992413Y-59173674D02*
X22897175Y-59173674D01*
X22897175Y-59173674D02*
X22754318Y-59126055D01*
X22754318Y-59126055D02*
X22659080Y-59030816D01*
X22659080Y-59030816D02*
X22611461Y-58935578D01*
X22611461Y-58935578D02*
X22563842Y-58745102D01*
X22563842Y-58745102D02*
X22563842Y-58602245D01*
X22563842Y-58602245D02*
X22611461Y-58411769D01*
X22611461Y-58411769D02*
X22659080Y-58316531D01*
X22659080Y-58316531D02*
X22754318Y-58221293D01*
X22754318Y-58221293D02*
X22897175Y-58173674D01*
X22897175Y-58173674D02*
X22992413Y-58173674D01*
X22992413Y-58173674D02*
X23135270Y-58221293D01*
X23135270Y-58221293D02*
X23182889Y-58268912D01*
X24040032Y-58173674D02*
X23849556Y-58173674D01*
X23849556Y-58173674D02*
X23754318Y-58221293D01*
X23754318Y-58221293D02*
X23706699Y-58268912D01*
X23706699Y-58268912D02*
X23611461Y-58411769D01*
X23611461Y-58411769D02*
X23563842Y-58602245D01*
X23563842Y-58602245D02*
X23563842Y-58983197D01*
X23563842Y-58983197D02*
X23611461Y-59078435D01*
X23611461Y-59078435D02*
X23659080Y-59126055D01*
X23659080Y-59126055D02*
X23754318Y-59173674D01*
X23754318Y-59173674D02*
X23944794Y-59173674D01*
X23944794Y-59173674D02*
X24040032Y-59126055D01*
X24040032Y-59126055D02*
X24087651Y-59078435D01*
X24087651Y-59078435D02*
X24135270Y-58983197D01*
X24135270Y-58983197D02*
X24135270Y-58745102D01*
X24135270Y-58745102D02*
X24087651Y-58649864D01*
X24087651Y-58649864D02*
X24040032Y-58602245D01*
X24040032Y-58602245D02*
X23944794Y-58554626D01*
X23944794Y-58554626D02*
X23754318Y-58554626D01*
X23754318Y-58554626D02*
X23659080Y-58602245D01*
X23659080Y-58602245D02*
X23611461Y-58649864D01*
X23611461Y-58649864D02*
X23563842Y-58745102D01*
X33157142Y-54284819D02*
X32823809Y-53808628D01*
X32585714Y-54284819D02*
X32585714Y-53284819D01*
X32585714Y-53284819D02*
X32966666Y-53284819D01*
X32966666Y-53284819D02*
X33061904Y-53332438D01*
X33061904Y-53332438D02*
X33109523Y-53380057D01*
X33109523Y-53380057D02*
X33157142Y-53475295D01*
X33157142Y-53475295D02*
X33157142Y-53618152D01*
X33157142Y-53618152D02*
X33109523Y-53713390D01*
X33109523Y-53713390D02*
X33061904Y-53761009D01*
X33061904Y-53761009D02*
X32966666Y-53808628D01*
X32966666Y-53808628D02*
X32585714Y-53808628D01*
X33538095Y-53380057D02*
X33585714Y-53332438D01*
X33585714Y-53332438D02*
X33680952Y-53284819D01*
X33680952Y-53284819D02*
X33919047Y-53284819D01*
X33919047Y-53284819D02*
X34014285Y-53332438D01*
X34014285Y-53332438D02*
X34061904Y-53380057D01*
X34061904Y-53380057D02*
X34109523Y-53475295D01*
X34109523Y-53475295D02*
X34109523Y-53570533D01*
X34109523Y-53570533D02*
X34061904Y-53713390D01*
X34061904Y-53713390D02*
X33490476Y-54284819D01*
X33490476Y-54284819D02*
X34109523Y-54284819D01*
X34442857Y-53284819D02*
X35109523Y-53284819D01*
X35109523Y-53284819D02*
X34680952Y-54284819D01*
X32959584Y-43944630D02*
X32911965Y-43992250D01*
X32911965Y-43992250D02*
X32769108Y-44039869D01*
X32769108Y-44039869D02*
X32673870Y-44039869D01*
X32673870Y-44039869D02*
X32531013Y-43992250D01*
X32531013Y-43992250D02*
X32435775Y-43897011D01*
X32435775Y-43897011D02*
X32388156Y-43801773D01*
X32388156Y-43801773D02*
X32340537Y-43611297D01*
X32340537Y-43611297D02*
X32340537Y-43468440D01*
X32340537Y-43468440D02*
X32388156Y-43277964D01*
X32388156Y-43277964D02*
X32435775Y-43182726D01*
X32435775Y-43182726D02*
X32531013Y-43087488D01*
X32531013Y-43087488D02*
X32673870Y-43039869D01*
X32673870Y-43039869D02*
X32769108Y-43039869D01*
X32769108Y-43039869D02*
X32911965Y-43087488D01*
X32911965Y-43087488D02*
X32959584Y-43135107D01*
X33292918Y-43039869D02*
X33911965Y-43039869D01*
X33911965Y-43039869D02*
X33578632Y-43420821D01*
X33578632Y-43420821D02*
X33721489Y-43420821D01*
X33721489Y-43420821D02*
X33816727Y-43468440D01*
X33816727Y-43468440D02*
X33864346Y-43516059D01*
X33864346Y-43516059D02*
X33911965Y-43611297D01*
X33911965Y-43611297D02*
X33911965Y-43849392D01*
X33911965Y-43849392D02*
X33864346Y-43944630D01*
X33864346Y-43944630D02*
X33816727Y-43992250D01*
X33816727Y-43992250D02*
X33721489Y-44039869D01*
X33721489Y-44039869D02*
X33435775Y-44039869D01*
X33435775Y-44039869D02*
X33340537Y-43992250D01*
X33340537Y-43992250D02*
X33292918Y-43944630D01*
X31666666Y-56124819D02*
X31666666Y-56839104D01*
X31666666Y-56839104D02*
X31619047Y-56981961D01*
X31619047Y-56981961D02*
X31523809Y-57077200D01*
X31523809Y-57077200D02*
X31380952Y-57124819D01*
X31380952Y-57124819D02*
X31285714Y-57124819D01*
X32571428Y-56124819D02*
X32380952Y-56124819D01*
X32380952Y-56124819D02*
X32285714Y-56172438D01*
X32285714Y-56172438D02*
X32238095Y-56220057D01*
X32238095Y-56220057D02*
X32142857Y-56362914D01*
X32142857Y-56362914D02*
X32095238Y-56553390D01*
X32095238Y-56553390D02*
X32095238Y-56934342D01*
X32095238Y-56934342D02*
X32142857Y-57029580D01*
X32142857Y-57029580D02*
X32190476Y-57077200D01*
X32190476Y-57077200D02*
X32285714Y-57124819D01*
X32285714Y-57124819D02*
X32476190Y-57124819D01*
X32476190Y-57124819D02*
X32571428Y-57077200D01*
X32571428Y-57077200D02*
X32619047Y-57029580D01*
X32619047Y-57029580D02*
X32666666Y-56934342D01*
X32666666Y-56934342D02*
X32666666Y-56696247D01*
X32666666Y-56696247D02*
X32619047Y-56601009D01*
X32619047Y-56601009D02*
X32571428Y-56553390D01*
X32571428Y-56553390D02*
X32476190Y-56505771D01*
X32476190Y-56505771D02*
X32285714Y-56505771D01*
X32285714Y-56505771D02*
X32190476Y-56553390D01*
X32190476Y-56553390D02*
X32142857Y-56601009D01*
X32142857Y-56601009D02*
X32095238Y-56696247D01*
X9983151Y-33097279D02*
X9935532Y-33144899D01*
X9935532Y-33144899D02*
X9792675Y-33192518D01*
X9792675Y-33192518D02*
X9697437Y-33192518D01*
X9697437Y-33192518D02*
X9554580Y-33144899D01*
X9554580Y-33144899D02*
X9459342Y-33049660D01*
X9459342Y-33049660D02*
X9411723Y-32954422D01*
X9411723Y-32954422D02*
X9364104Y-32763946D01*
X9364104Y-32763946D02*
X9364104Y-32621089D01*
X9364104Y-32621089D02*
X9411723Y-32430613D01*
X9411723Y-32430613D02*
X9459342Y-32335375D01*
X9459342Y-32335375D02*
X9554580Y-32240137D01*
X9554580Y-32240137D02*
X9697437Y-32192518D01*
X9697437Y-32192518D02*
X9792675Y-32192518D01*
X9792675Y-32192518D02*
X9935532Y-32240137D01*
X9935532Y-32240137D02*
X9983151Y-32287756D01*
X10935532Y-33192518D02*
X10364104Y-33192518D01*
X10649818Y-33192518D02*
X10649818Y-32192518D01*
X10649818Y-32192518D02*
X10554580Y-32335375D01*
X10554580Y-32335375D02*
X10459342Y-32430613D01*
X10459342Y-32430613D02*
X10364104Y-32478232D01*
X11316485Y-32287756D02*
X11364104Y-32240137D01*
X11364104Y-32240137D02*
X11459342Y-32192518D01*
X11459342Y-32192518D02*
X11697437Y-32192518D01*
X11697437Y-32192518D02*
X11792675Y-32240137D01*
X11792675Y-32240137D02*
X11840294Y-32287756D01*
X11840294Y-32287756D02*
X11887913Y-32382994D01*
X11887913Y-32382994D02*
X11887913Y-32478232D01*
X11887913Y-32478232D02*
X11840294Y-32621089D01*
X11840294Y-32621089D02*
X11268866Y-33192518D01*
X11268866Y-33192518D02*
X11887913Y-33192518D01*
X4136472Y-49304646D02*
X4136472Y-48304646D01*
X4136472Y-48304646D02*
X4374567Y-48304646D01*
X4374567Y-48304646D02*
X4517424Y-48352265D01*
X4517424Y-48352265D02*
X4612662Y-48447503D01*
X4612662Y-48447503D02*
X4660281Y-48542741D01*
X4660281Y-48542741D02*
X4707900Y-48733217D01*
X4707900Y-48733217D02*
X4707900Y-48876074D01*
X4707900Y-48876074D02*
X4660281Y-49066550D01*
X4660281Y-49066550D02*
X4612662Y-49161788D01*
X4612662Y-49161788D02*
X4517424Y-49257027D01*
X4517424Y-49257027D02*
X4374567Y-49304646D01*
X4374567Y-49304646D02*
X4136472Y-49304646D01*
X5612662Y-48304646D02*
X5136472Y-48304646D01*
X5136472Y-48304646D02*
X5088853Y-48780836D01*
X5088853Y-48780836D02*
X5136472Y-48733217D01*
X5136472Y-48733217D02*
X5231710Y-48685598D01*
X5231710Y-48685598D02*
X5469805Y-48685598D01*
X5469805Y-48685598D02*
X5565043Y-48733217D01*
X5565043Y-48733217D02*
X5612662Y-48780836D01*
X5612662Y-48780836D02*
X5660281Y-48876074D01*
X5660281Y-48876074D02*
X5660281Y-49114169D01*
X5660281Y-49114169D02*
X5612662Y-49209407D01*
X5612662Y-49209407D02*
X5565043Y-49257027D01*
X5565043Y-49257027D02*
X5469805Y-49304646D01*
X5469805Y-49304646D02*
X5231710Y-49304646D01*
X5231710Y-49304646D02*
X5136472Y-49257027D01*
X5136472Y-49257027D02*
X5088853Y-49209407D01*
X12573599Y-47833313D02*
X12240266Y-47357122D01*
X12002171Y-47833313D02*
X12002171Y-46833313D01*
X12002171Y-46833313D02*
X12383123Y-46833313D01*
X12383123Y-46833313D02*
X12478361Y-46880932D01*
X12478361Y-46880932D02*
X12525980Y-46928551D01*
X12525980Y-46928551D02*
X12573599Y-47023789D01*
X12573599Y-47023789D02*
X12573599Y-47166646D01*
X12573599Y-47166646D02*
X12525980Y-47261884D01*
X12525980Y-47261884D02*
X12478361Y-47309503D01*
X12478361Y-47309503D02*
X12383123Y-47357122D01*
X12383123Y-47357122D02*
X12002171Y-47357122D01*
X12954552Y-46928551D02*
X13002171Y-46880932D01*
X13002171Y-46880932D02*
X13097409Y-46833313D01*
X13097409Y-46833313D02*
X13335504Y-46833313D01*
X13335504Y-46833313D02*
X13430742Y-46880932D01*
X13430742Y-46880932D02*
X13478361Y-46928551D01*
X13478361Y-46928551D02*
X13525980Y-47023789D01*
X13525980Y-47023789D02*
X13525980Y-47119027D01*
X13525980Y-47119027D02*
X13478361Y-47261884D01*
X13478361Y-47261884D02*
X12906933Y-47833313D01*
X12906933Y-47833313D02*
X13525980Y-47833313D01*
X14430742Y-46833313D02*
X13954552Y-46833313D01*
X13954552Y-46833313D02*
X13906933Y-47309503D01*
X13906933Y-47309503D02*
X13954552Y-47261884D01*
X13954552Y-47261884D02*
X14049790Y-47214265D01*
X14049790Y-47214265D02*
X14287885Y-47214265D01*
X14287885Y-47214265D02*
X14383123Y-47261884D01*
X14383123Y-47261884D02*
X14430742Y-47309503D01*
X14430742Y-47309503D02*
X14478361Y-47404741D01*
X14478361Y-47404741D02*
X14478361Y-47642836D01*
X14478361Y-47642836D02*
X14430742Y-47738074D01*
X14430742Y-47738074D02*
X14383123Y-47785694D01*
X14383123Y-47785694D02*
X14287885Y-47833313D01*
X14287885Y-47833313D02*
X14049790Y-47833313D01*
X14049790Y-47833313D02*
X13954552Y-47785694D01*
X13954552Y-47785694D02*
X13906933Y-47738074D01*
X23997173Y-44289191D02*
X23663840Y-43813000D01*
X23425745Y-44289191D02*
X23425745Y-43289191D01*
X23425745Y-43289191D02*
X23806697Y-43289191D01*
X23806697Y-43289191D02*
X23901935Y-43336810D01*
X23901935Y-43336810D02*
X23949554Y-43384429D01*
X23949554Y-43384429D02*
X23997173Y-43479667D01*
X23997173Y-43479667D02*
X23997173Y-43622524D01*
X23997173Y-43622524D02*
X23949554Y-43717762D01*
X23949554Y-43717762D02*
X23901935Y-43765381D01*
X23901935Y-43765381D02*
X23806697Y-43813000D01*
X23806697Y-43813000D02*
X23425745Y-43813000D01*
X24330507Y-43289191D02*
X24949554Y-43289191D01*
X24949554Y-43289191D02*
X24616221Y-43670143D01*
X24616221Y-43670143D02*
X24759078Y-43670143D01*
X24759078Y-43670143D02*
X24854316Y-43717762D01*
X24854316Y-43717762D02*
X24901935Y-43765381D01*
X24901935Y-43765381D02*
X24949554Y-43860619D01*
X24949554Y-43860619D02*
X24949554Y-44098714D01*
X24949554Y-44098714D02*
X24901935Y-44193952D01*
X24901935Y-44193952D02*
X24854316Y-44241572D01*
X24854316Y-44241572D02*
X24759078Y-44289191D01*
X24759078Y-44289191D02*
X24473364Y-44289191D01*
X24473364Y-44289191D02*
X24378126Y-44241572D01*
X24378126Y-44241572D02*
X24330507Y-44193952D01*
X25901935Y-44289191D02*
X25330507Y-44289191D01*
X25616221Y-44289191D02*
X25616221Y-43289191D01*
X25616221Y-43289191D02*
X25520983Y-43432048D01*
X25520983Y-43432048D02*
X25425745Y-43527286D01*
X25425745Y-43527286D02*
X25330507Y-43574905D01*
X28238095Y-43354819D02*
X28238095Y-44164342D01*
X28238095Y-44164342D02*
X28285714Y-44259580D01*
X28285714Y-44259580D02*
X28333333Y-44307200D01*
X28333333Y-44307200D02*
X28428571Y-44354819D01*
X28428571Y-44354819D02*
X28619047Y-44354819D01*
X28619047Y-44354819D02*
X28714285Y-44307200D01*
X28714285Y-44307200D02*
X28761904Y-44259580D01*
X28761904Y-44259580D02*
X28809523Y-44164342D01*
X28809523Y-44164342D02*
X28809523Y-43354819D01*
X29190476Y-43354819D02*
X29857142Y-43354819D01*
X29857142Y-43354819D02*
X29428571Y-44354819D01*
X33633333Y-32199580D02*
X33585714Y-32247200D01*
X33585714Y-32247200D02*
X33442857Y-32294819D01*
X33442857Y-32294819D02*
X33347619Y-32294819D01*
X33347619Y-32294819D02*
X33204762Y-32247200D01*
X33204762Y-32247200D02*
X33109524Y-32151961D01*
X33109524Y-32151961D02*
X33061905Y-32056723D01*
X33061905Y-32056723D02*
X33014286Y-31866247D01*
X33014286Y-31866247D02*
X33014286Y-31723390D01*
X33014286Y-31723390D02*
X33061905Y-31532914D01*
X33061905Y-31532914D02*
X33109524Y-31437676D01*
X33109524Y-31437676D02*
X33204762Y-31342438D01*
X33204762Y-31342438D02*
X33347619Y-31294819D01*
X33347619Y-31294819D02*
X33442857Y-31294819D01*
X33442857Y-31294819D02*
X33585714Y-31342438D01*
X33585714Y-31342438D02*
X33633333Y-31390057D01*
X34204762Y-31723390D02*
X34109524Y-31675771D01*
X34109524Y-31675771D02*
X34061905Y-31628152D01*
X34061905Y-31628152D02*
X34014286Y-31532914D01*
X34014286Y-31532914D02*
X34014286Y-31485295D01*
X34014286Y-31485295D02*
X34061905Y-31390057D01*
X34061905Y-31390057D02*
X34109524Y-31342438D01*
X34109524Y-31342438D02*
X34204762Y-31294819D01*
X34204762Y-31294819D02*
X34395238Y-31294819D01*
X34395238Y-31294819D02*
X34490476Y-31342438D01*
X34490476Y-31342438D02*
X34538095Y-31390057D01*
X34538095Y-31390057D02*
X34585714Y-31485295D01*
X34585714Y-31485295D02*
X34585714Y-31532914D01*
X34585714Y-31532914D02*
X34538095Y-31628152D01*
X34538095Y-31628152D02*
X34490476Y-31675771D01*
X34490476Y-31675771D02*
X34395238Y-31723390D01*
X34395238Y-31723390D02*
X34204762Y-31723390D01*
X34204762Y-31723390D02*
X34109524Y-31771009D01*
X34109524Y-31771009D02*
X34061905Y-31818628D01*
X34061905Y-31818628D02*
X34014286Y-31913866D01*
X34014286Y-31913866D02*
X34014286Y-32104342D01*
X34014286Y-32104342D02*
X34061905Y-32199580D01*
X34061905Y-32199580D02*
X34109524Y-32247200D01*
X34109524Y-32247200D02*
X34204762Y-32294819D01*
X34204762Y-32294819D02*
X34395238Y-32294819D01*
X34395238Y-32294819D02*
X34490476Y-32247200D01*
X34490476Y-32247200D02*
X34538095Y-32199580D01*
X34538095Y-32199580D02*
X34585714Y-32104342D01*
X34585714Y-32104342D02*
X34585714Y-31913866D01*
X34585714Y-31913866D02*
X34538095Y-31818628D01*
X34538095Y-31818628D02*
X34490476Y-31771009D01*
X34490476Y-31771009D02*
X34395238Y-31723390D01*
X12273844Y-43136444D02*
X12226225Y-43184064D01*
X12226225Y-43184064D02*
X12083368Y-43231683D01*
X12083368Y-43231683D02*
X11988130Y-43231683D01*
X11988130Y-43231683D02*
X11845273Y-43184064D01*
X11845273Y-43184064D02*
X11750035Y-43088825D01*
X11750035Y-43088825D02*
X11702416Y-42993587D01*
X11702416Y-42993587D02*
X11654797Y-42803111D01*
X11654797Y-42803111D02*
X11654797Y-42660254D01*
X11654797Y-42660254D02*
X11702416Y-42469778D01*
X11702416Y-42469778D02*
X11750035Y-42374540D01*
X11750035Y-42374540D02*
X11845273Y-42279302D01*
X11845273Y-42279302D02*
X11988130Y-42231683D01*
X11988130Y-42231683D02*
X12083368Y-42231683D01*
X12083368Y-42231683D02*
X12226225Y-42279302D01*
X12226225Y-42279302D02*
X12273844Y-42326921D01*
X13226225Y-43231683D02*
X12654797Y-43231683D01*
X12940511Y-43231683D02*
X12940511Y-42231683D01*
X12940511Y-42231683D02*
X12845273Y-42374540D01*
X12845273Y-42374540D02*
X12750035Y-42469778D01*
X12750035Y-42469778D02*
X12654797Y-42517397D01*
X14130987Y-42231683D02*
X13654797Y-42231683D01*
X13654797Y-42231683D02*
X13607178Y-42707873D01*
X13607178Y-42707873D02*
X13654797Y-42660254D01*
X13654797Y-42660254D02*
X13750035Y-42612635D01*
X13750035Y-42612635D02*
X13988130Y-42612635D01*
X13988130Y-42612635D02*
X14083368Y-42660254D01*
X14083368Y-42660254D02*
X14130987Y-42707873D01*
X14130987Y-42707873D02*
X14178606Y-42803111D01*
X14178606Y-42803111D02*
X14178606Y-43041206D01*
X14178606Y-43041206D02*
X14130987Y-43136444D01*
X14130987Y-43136444D02*
X14083368Y-43184064D01*
X14083368Y-43184064D02*
X13988130Y-43231683D01*
X13988130Y-43231683D02*
X13750035Y-43231683D01*
X13750035Y-43231683D02*
X13654797Y-43184064D01*
X13654797Y-43184064D02*
X13607178Y-43136444D01*
X7238095Y-43654819D02*
X7238095Y-44464342D01*
X7238095Y-44464342D02*
X7285714Y-44559580D01*
X7285714Y-44559580D02*
X7333333Y-44607200D01*
X7333333Y-44607200D02*
X7428571Y-44654819D01*
X7428571Y-44654819D02*
X7619047Y-44654819D01*
X7619047Y-44654819D02*
X7714285Y-44607200D01*
X7714285Y-44607200D02*
X7761904Y-44559580D01*
X7761904Y-44559580D02*
X7809523Y-44464342D01*
X7809523Y-44464342D02*
X7809523Y-43654819D01*
X8714285Y-43654819D02*
X8523809Y-43654819D01*
X8523809Y-43654819D02*
X8428571Y-43702438D01*
X8428571Y-43702438D02*
X8380952Y-43750057D01*
X8380952Y-43750057D02*
X8285714Y-43892914D01*
X8285714Y-43892914D02*
X8238095Y-44083390D01*
X8238095Y-44083390D02*
X8238095Y-44464342D01*
X8238095Y-44464342D02*
X8285714Y-44559580D01*
X8285714Y-44559580D02*
X8333333Y-44607200D01*
X8333333Y-44607200D02*
X8428571Y-44654819D01*
X8428571Y-44654819D02*
X8619047Y-44654819D01*
X8619047Y-44654819D02*
X8714285Y-44607200D01*
X8714285Y-44607200D02*
X8761904Y-44559580D01*
X8761904Y-44559580D02*
X8809523Y-44464342D01*
X8809523Y-44464342D02*
X8809523Y-44226247D01*
X8809523Y-44226247D02*
X8761904Y-44131009D01*
X8761904Y-44131009D02*
X8714285Y-44083390D01*
X8714285Y-44083390D02*
X8619047Y-44035771D01*
X8619047Y-44035771D02*
X8428571Y-44035771D01*
X8428571Y-44035771D02*
X8333333Y-44083390D01*
X8333333Y-44083390D02*
X8285714Y-44131009D01*
X8285714Y-44131009D02*
X8238095Y-44226247D01*
X18055427Y-27327015D02*
X18007808Y-27374635D01*
X18007808Y-27374635D02*
X17864951Y-27422254D01*
X17864951Y-27422254D02*
X17769713Y-27422254D01*
X17769713Y-27422254D02*
X17626856Y-27374635D01*
X17626856Y-27374635D02*
X17531618Y-27279396D01*
X17531618Y-27279396D02*
X17483999Y-27184158D01*
X17483999Y-27184158D02*
X17436380Y-26993682D01*
X17436380Y-26993682D02*
X17436380Y-26850825D01*
X17436380Y-26850825D02*
X17483999Y-26660349D01*
X17483999Y-26660349D02*
X17531618Y-26565111D01*
X17531618Y-26565111D02*
X17626856Y-26469873D01*
X17626856Y-26469873D02*
X17769713Y-26422254D01*
X17769713Y-26422254D02*
X17864951Y-26422254D01*
X17864951Y-26422254D02*
X18007808Y-26469873D01*
X18007808Y-26469873D02*
X18055427Y-26517492D01*
X18436380Y-26517492D02*
X18483999Y-26469873D01*
X18483999Y-26469873D02*
X18579237Y-26422254D01*
X18579237Y-26422254D02*
X18817332Y-26422254D01*
X18817332Y-26422254D02*
X18912570Y-26469873D01*
X18912570Y-26469873D02*
X18960189Y-26517492D01*
X18960189Y-26517492D02*
X19007808Y-26612730D01*
X19007808Y-26612730D02*
X19007808Y-26707968D01*
X19007808Y-26707968D02*
X18960189Y-26850825D01*
X18960189Y-26850825D02*
X18388761Y-27422254D01*
X18388761Y-27422254D02*
X19007808Y-27422254D01*
X19626856Y-26422254D02*
X19722094Y-26422254D01*
X19722094Y-26422254D02*
X19817332Y-26469873D01*
X19817332Y-26469873D02*
X19864951Y-26517492D01*
X19864951Y-26517492D02*
X19912570Y-26612730D01*
X19912570Y-26612730D02*
X19960189Y-26803206D01*
X19960189Y-26803206D02*
X19960189Y-27041301D01*
X19960189Y-27041301D02*
X19912570Y-27231777D01*
X19912570Y-27231777D02*
X19864951Y-27327015D01*
X19864951Y-27327015D02*
X19817332Y-27374635D01*
X19817332Y-27374635D02*
X19722094Y-27422254D01*
X19722094Y-27422254D02*
X19626856Y-27422254D01*
X19626856Y-27422254D02*
X19531618Y-27374635D01*
X19531618Y-27374635D02*
X19483999Y-27327015D01*
X19483999Y-27327015D02*
X19436380Y-27231777D01*
X19436380Y-27231777D02*
X19388761Y-27041301D01*
X19388761Y-27041301D02*
X19388761Y-26803206D01*
X19388761Y-26803206D02*
X19436380Y-26612730D01*
X19436380Y-26612730D02*
X19483999Y-26517492D01*
X19483999Y-26517492D02*
X19531618Y-26469873D01*
X19531618Y-26469873D02*
X19626856Y-26422254D01*
X24591922Y-31550068D02*
X24544303Y-31597688D01*
X24544303Y-31597688D02*
X24401446Y-31645307D01*
X24401446Y-31645307D02*
X24306208Y-31645307D01*
X24306208Y-31645307D02*
X24163351Y-31597688D01*
X24163351Y-31597688D02*
X24068113Y-31502449D01*
X24068113Y-31502449D02*
X24020494Y-31407211D01*
X24020494Y-31407211D02*
X23972875Y-31216735D01*
X23972875Y-31216735D02*
X23972875Y-31073878D01*
X23972875Y-31073878D02*
X24020494Y-30883402D01*
X24020494Y-30883402D02*
X24068113Y-30788164D01*
X24068113Y-30788164D02*
X24163351Y-30692926D01*
X24163351Y-30692926D02*
X24306208Y-30645307D01*
X24306208Y-30645307D02*
X24401446Y-30645307D01*
X24401446Y-30645307D02*
X24544303Y-30692926D01*
X24544303Y-30692926D02*
X24591922Y-30740545D01*
X25544303Y-31645307D02*
X24972875Y-31645307D01*
X25258589Y-31645307D02*
X25258589Y-30645307D01*
X25258589Y-30645307D02*
X25163351Y-30788164D01*
X25163351Y-30788164D02*
X25068113Y-30883402D01*
X25068113Y-30883402D02*
X24972875Y-30931021D01*
X25877637Y-30645307D02*
X26544303Y-30645307D01*
X26544303Y-30645307D02*
X26115732Y-31645307D01*
X27880952Y-20454819D02*
X27404762Y-20454819D01*
X27404762Y-20454819D02*
X27404762Y-19454819D01*
X28214286Y-19931009D02*
X28547619Y-19931009D01*
X28690476Y-20454819D02*
X28214286Y-20454819D01*
X28214286Y-20454819D02*
X28214286Y-19454819D01*
X28214286Y-19454819D02*
X28690476Y-19454819D01*
X29119048Y-20454819D02*
X29119048Y-19454819D01*
X29119048Y-19454819D02*
X29357143Y-19454819D01*
X29357143Y-19454819D02*
X29500000Y-19502438D01*
X29500000Y-19502438D02*
X29595238Y-19597676D01*
X29595238Y-19597676D02*
X29642857Y-19692914D01*
X29642857Y-19692914D02*
X29690476Y-19883390D01*
X29690476Y-19883390D02*
X29690476Y-20026247D01*
X29690476Y-20026247D02*
X29642857Y-20216723D01*
X29642857Y-20216723D02*
X29595238Y-20311961D01*
X29595238Y-20311961D02*
X29500000Y-20407200D01*
X29500000Y-20407200D02*
X29357143Y-20454819D01*
X29357143Y-20454819D02*
X29119048Y-20454819D01*
X30071429Y-19550057D02*
X30119048Y-19502438D01*
X30119048Y-19502438D02*
X30214286Y-19454819D01*
X30214286Y-19454819D02*
X30452381Y-19454819D01*
X30452381Y-19454819D02*
X30547619Y-19502438D01*
X30547619Y-19502438D02*
X30595238Y-19550057D01*
X30595238Y-19550057D02*
X30642857Y-19645295D01*
X30642857Y-19645295D02*
X30642857Y-19740533D01*
X30642857Y-19740533D02*
X30595238Y-19883390D01*
X30595238Y-19883390D02*
X30023810Y-20454819D01*
X30023810Y-20454819D02*
X30642857Y-20454819D01*
X27486455Y-18749701D02*
X27438836Y-18797321D01*
X27438836Y-18797321D02*
X27295979Y-18844940D01*
X27295979Y-18844940D02*
X27200741Y-18844940D01*
X27200741Y-18844940D02*
X27057884Y-18797321D01*
X27057884Y-18797321D02*
X26962646Y-18702082D01*
X26962646Y-18702082D02*
X26915027Y-18606844D01*
X26915027Y-18606844D02*
X26867408Y-18416368D01*
X26867408Y-18416368D02*
X26867408Y-18273511D01*
X26867408Y-18273511D02*
X26915027Y-18083035D01*
X26915027Y-18083035D02*
X26962646Y-17987797D01*
X26962646Y-17987797D02*
X27057884Y-17892559D01*
X27057884Y-17892559D02*
X27200741Y-17844940D01*
X27200741Y-17844940D02*
X27295979Y-17844940D01*
X27295979Y-17844940D02*
X27438836Y-17892559D01*
X27438836Y-17892559D02*
X27486455Y-17940178D01*
X27819789Y-17844940D02*
X28438836Y-17844940D01*
X28438836Y-17844940D02*
X28105503Y-18225892D01*
X28105503Y-18225892D02*
X28248360Y-18225892D01*
X28248360Y-18225892D02*
X28343598Y-18273511D01*
X28343598Y-18273511D02*
X28391217Y-18321130D01*
X28391217Y-18321130D02*
X28438836Y-18416368D01*
X28438836Y-18416368D02*
X28438836Y-18654463D01*
X28438836Y-18654463D02*
X28391217Y-18749701D01*
X28391217Y-18749701D02*
X28343598Y-18797321D01*
X28343598Y-18797321D02*
X28248360Y-18844940D01*
X28248360Y-18844940D02*
X27962646Y-18844940D01*
X27962646Y-18844940D02*
X27867408Y-18797321D01*
X27867408Y-18797321D02*
X27819789Y-18749701D01*
X29343598Y-17844940D02*
X28867408Y-17844940D01*
X28867408Y-17844940D02*
X28819789Y-18321130D01*
X28819789Y-18321130D02*
X28867408Y-18273511D01*
X28867408Y-18273511D02*
X28962646Y-18225892D01*
X28962646Y-18225892D02*
X29200741Y-18225892D01*
X29200741Y-18225892D02*
X29295979Y-18273511D01*
X29295979Y-18273511D02*
X29343598Y-18321130D01*
X29343598Y-18321130D02*
X29391217Y-18416368D01*
X29391217Y-18416368D02*
X29391217Y-18654463D01*
X29391217Y-18654463D02*
X29343598Y-18749701D01*
X29343598Y-18749701D02*
X29295979Y-18797321D01*
X29295979Y-18797321D02*
X29200741Y-18844940D01*
X29200741Y-18844940D02*
X28962646Y-18844940D01*
X28962646Y-18844940D02*
X28867408Y-18797321D01*
X28867408Y-18797321D02*
X28819789Y-18749701D01*
X22309437Y-50408124D02*
X21976104Y-49931933D01*
X21738009Y-50408124D02*
X21738009Y-49408124D01*
X21738009Y-49408124D02*
X22118961Y-49408124D01*
X22118961Y-49408124D02*
X22214199Y-49455743D01*
X22214199Y-49455743D02*
X22261818Y-49503362D01*
X22261818Y-49503362D02*
X22309437Y-49598600D01*
X22309437Y-49598600D02*
X22309437Y-49741457D01*
X22309437Y-49741457D02*
X22261818Y-49836695D01*
X22261818Y-49836695D02*
X22214199Y-49884314D01*
X22214199Y-49884314D02*
X22118961Y-49931933D01*
X22118961Y-49931933D02*
X21738009Y-49931933D01*
X23166580Y-49408124D02*
X22976104Y-49408124D01*
X22976104Y-49408124D02*
X22880866Y-49455743D01*
X22880866Y-49455743D02*
X22833247Y-49503362D01*
X22833247Y-49503362D02*
X22738009Y-49646219D01*
X22738009Y-49646219D02*
X22690390Y-49836695D01*
X22690390Y-49836695D02*
X22690390Y-50217647D01*
X22690390Y-50217647D02*
X22738009Y-50312885D01*
X22738009Y-50312885D02*
X22785628Y-50360505D01*
X22785628Y-50360505D02*
X22880866Y-50408124D01*
X22880866Y-50408124D02*
X23071342Y-50408124D01*
X23071342Y-50408124D02*
X23166580Y-50360505D01*
X23166580Y-50360505D02*
X23214199Y-50312885D01*
X23214199Y-50312885D02*
X23261818Y-50217647D01*
X23261818Y-50217647D02*
X23261818Y-49979552D01*
X23261818Y-49979552D02*
X23214199Y-49884314D01*
X23214199Y-49884314D02*
X23166580Y-49836695D01*
X23166580Y-49836695D02*
X23071342Y-49789076D01*
X23071342Y-49789076D02*
X22880866Y-49789076D01*
X22880866Y-49789076D02*
X22785628Y-49836695D01*
X22785628Y-49836695D02*
X22738009Y-49884314D01*
X22738009Y-49884314D02*
X22690390Y-49979552D01*
X18576362Y-47217042D02*
X18243029Y-46740851D01*
X18004934Y-47217042D02*
X18004934Y-46217042D01*
X18004934Y-46217042D02*
X18385886Y-46217042D01*
X18385886Y-46217042D02*
X18481124Y-46264661D01*
X18481124Y-46264661D02*
X18528743Y-46312280D01*
X18528743Y-46312280D02*
X18576362Y-46407518D01*
X18576362Y-46407518D02*
X18576362Y-46550375D01*
X18576362Y-46550375D02*
X18528743Y-46645613D01*
X18528743Y-46645613D02*
X18481124Y-46693232D01*
X18481124Y-46693232D02*
X18385886Y-46740851D01*
X18385886Y-46740851D02*
X18004934Y-46740851D01*
X19528743Y-47217042D02*
X18957315Y-47217042D01*
X19243029Y-47217042D02*
X19243029Y-46217042D01*
X19243029Y-46217042D02*
X19147791Y-46359899D01*
X19147791Y-46359899D02*
X19052553Y-46455137D01*
X19052553Y-46455137D02*
X18957315Y-46502756D01*
X20433505Y-46217042D02*
X19957315Y-46217042D01*
X19957315Y-46217042D02*
X19909696Y-46693232D01*
X19909696Y-46693232D02*
X19957315Y-46645613D01*
X19957315Y-46645613D02*
X20052553Y-46597994D01*
X20052553Y-46597994D02*
X20290648Y-46597994D01*
X20290648Y-46597994D02*
X20385886Y-46645613D01*
X20385886Y-46645613D02*
X20433505Y-46693232D01*
X20433505Y-46693232D02*
X20481124Y-46788470D01*
X20481124Y-46788470D02*
X20481124Y-47026565D01*
X20481124Y-47026565D02*
X20433505Y-47121803D01*
X20433505Y-47121803D02*
X20385886Y-47169423D01*
X20385886Y-47169423D02*
X20290648Y-47217042D01*
X20290648Y-47217042D02*
X20052553Y-47217042D01*
X20052553Y-47217042D02*
X19957315Y-47169423D01*
X19957315Y-47169423D02*
X19909696Y-47121803D01*
X24757142Y-36199580D02*
X24709523Y-36247200D01*
X24709523Y-36247200D02*
X24566666Y-36294819D01*
X24566666Y-36294819D02*
X24471428Y-36294819D01*
X24471428Y-36294819D02*
X24328571Y-36247200D01*
X24328571Y-36247200D02*
X24233333Y-36151961D01*
X24233333Y-36151961D02*
X24185714Y-36056723D01*
X24185714Y-36056723D02*
X24138095Y-35866247D01*
X24138095Y-35866247D02*
X24138095Y-35723390D01*
X24138095Y-35723390D02*
X24185714Y-35532914D01*
X24185714Y-35532914D02*
X24233333Y-35437676D01*
X24233333Y-35437676D02*
X24328571Y-35342438D01*
X24328571Y-35342438D02*
X24471428Y-35294819D01*
X24471428Y-35294819D02*
X24566666Y-35294819D01*
X24566666Y-35294819D02*
X24709523Y-35342438D01*
X24709523Y-35342438D02*
X24757142Y-35390057D01*
X25090476Y-35294819D02*
X25709523Y-35294819D01*
X25709523Y-35294819D02*
X25376190Y-35675771D01*
X25376190Y-35675771D02*
X25519047Y-35675771D01*
X25519047Y-35675771D02*
X25614285Y-35723390D01*
X25614285Y-35723390D02*
X25661904Y-35771009D01*
X25661904Y-35771009D02*
X25709523Y-35866247D01*
X25709523Y-35866247D02*
X25709523Y-36104342D01*
X25709523Y-36104342D02*
X25661904Y-36199580D01*
X25661904Y-36199580D02*
X25614285Y-36247200D01*
X25614285Y-36247200D02*
X25519047Y-36294819D01*
X25519047Y-36294819D02*
X25233333Y-36294819D01*
X25233333Y-36294819D02*
X25138095Y-36247200D01*
X25138095Y-36247200D02*
X25090476Y-36199580D01*
X26280952Y-35723390D02*
X26185714Y-35675771D01*
X26185714Y-35675771D02*
X26138095Y-35628152D01*
X26138095Y-35628152D02*
X26090476Y-35532914D01*
X26090476Y-35532914D02*
X26090476Y-35485295D01*
X26090476Y-35485295D02*
X26138095Y-35390057D01*
X26138095Y-35390057D02*
X26185714Y-35342438D01*
X26185714Y-35342438D02*
X26280952Y-35294819D01*
X26280952Y-35294819D02*
X26471428Y-35294819D01*
X26471428Y-35294819D02*
X26566666Y-35342438D01*
X26566666Y-35342438D02*
X26614285Y-35390057D01*
X26614285Y-35390057D02*
X26661904Y-35485295D01*
X26661904Y-35485295D02*
X26661904Y-35532914D01*
X26661904Y-35532914D02*
X26614285Y-35628152D01*
X26614285Y-35628152D02*
X26566666Y-35675771D01*
X26566666Y-35675771D02*
X26471428Y-35723390D01*
X26471428Y-35723390D02*
X26280952Y-35723390D01*
X26280952Y-35723390D02*
X26185714Y-35771009D01*
X26185714Y-35771009D02*
X26138095Y-35818628D01*
X26138095Y-35818628D02*
X26090476Y-35913866D01*
X26090476Y-35913866D02*
X26090476Y-36104342D01*
X26090476Y-36104342D02*
X26138095Y-36199580D01*
X26138095Y-36199580D02*
X26185714Y-36247200D01*
X26185714Y-36247200D02*
X26280952Y-36294819D01*
X26280952Y-36294819D02*
X26471428Y-36294819D01*
X26471428Y-36294819D02*
X26566666Y-36247200D01*
X26566666Y-36247200D02*
X26614285Y-36199580D01*
X26614285Y-36199580D02*
X26661904Y-36104342D01*
X26661904Y-36104342D02*
X26661904Y-35913866D01*
X26661904Y-35913866D02*
X26614285Y-35818628D01*
X26614285Y-35818628D02*
X26566666Y-35771009D01*
X26566666Y-35771009D02*
X26471428Y-35723390D01*
X31666667Y-37807200D02*
X31809524Y-37854819D01*
X31809524Y-37854819D02*
X32047619Y-37854819D01*
X32047619Y-37854819D02*
X32142857Y-37807200D01*
X32142857Y-37807200D02*
X32190476Y-37759580D01*
X32190476Y-37759580D02*
X32238095Y-37664342D01*
X32238095Y-37664342D02*
X32238095Y-37569104D01*
X32238095Y-37569104D02*
X32190476Y-37473866D01*
X32190476Y-37473866D02*
X32142857Y-37426247D01*
X32142857Y-37426247D02*
X32047619Y-37378628D01*
X32047619Y-37378628D02*
X31857143Y-37331009D01*
X31857143Y-37331009D02*
X31761905Y-37283390D01*
X31761905Y-37283390D02*
X31714286Y-37235771D01*
X31714286Y-37235771D02*
X31666667Y-37140533D01*
X31666667Y-37140533D02*
X31666667Y-37045295D01*
X31666667Y-37045295D02*
X31714286Y-36950057D01*
X31714286Y-36950057D02*
X31761905Y-36902438D01*
X31761905Y-36902438D02*
X31857143Y-36854819D01*
X31857143Y-36854819D02*
X32095238Y-36854819D01*
X32095238Y-36854819D02*
X32238095Y-36902438D01*
X32571429Y-36854819D02*
X32809524Y-37854819D01*
X32809524Y-37854819D02*
X33000000Y-37140533D01*
X33000000Y-37140533D02*
X33190476Y-37854819D01*
X33190476Y-37854819D02*
X33428572Y-36854819D01*
X34333333Y-37854819D02*
X33761905Y-37854819D01*
X34047619Y-37854819D02*
X34047619Y-36854819D01*
X34047619Y-36854819D02*
X33952381Y-36997676D01*
X33952381Y-36997676D02*
X33857143Y-37092914D01*
X33857143Y-37092914D02*
X33761905Y-37140533D01*
X10156890Y-30968291D02*
X10109271Y-31015911D01*
X10109271Y-31015911D02*
X9966414Y-31063530D01*
X9966414Y-31063530D02*
X9871176Y-31063530D01*
X9871176Y-31063530D02*
X9728319Y-31015911D01*
X9728319Y-31015911D02*
X9633081Y-30920672D01*
X9633081Y-30920672D02*
X9585462Y-30825434D01*
X9585462Y-30825434D02*
X9537843Y-30634958D01*
X9537843Y-30634958D02*
X9537843Y-30492101D01*
X9537843Y-30492101D02*
X9585462Y-30301625D01*
X9585462Y-30301625D02*
X9633081Y-30206387D01*
X9633081Y-30206387D02*
X9728319Y-30111149D01*
X9728319Y-30111149D02*
X9871176Y-30063530D01*
X9871176Y-30063530D02*
X9966414Y-30063530D01*
X9966414Y-30063530D02*
X10109271Y-30111149D01*
X10109271Y-30111149D02*
X10156890Y-30158768D01*
X11109271Y-31063530D02*
X10537843Y-31063530D01*
X10823557Y-31063530D02*
X10823557Y-30063530D01*
X10823557Y-30063530D02*
X10728319Y-30206387D01*
X10728319Y-30206387D02*
X10633081Y-30301625D01*
X10633081Y-30301625D02*
X10537843Y-30349244D01*
X11680700Y-30492101D02*
X11585462Y-30444482D01*
X11585462Y-30444482D02*
X11537843Y-30396863D01*
X11537843Y-30396863D02*
X11490224Y-30301625D01*
X11490224Y-30301625D02*
X11490224Y-30254006D01*
X11490224Y-30254006D02*
X11537843Y-30158768D01*
X11537843Y-30158768D02*
X11585462Y-30111149D01*
X11585462Y-30111149D02*
X11680700Y-30063530D01*
X11680700Y-30063530D02*
X11871176Y-30063530D01*
X11871176Y-30063530D02*
X11966414Y-30111149D01*
X11966414Y-30111149D02*
X12014033Y-30158768D01*
X12014033Y-30158768D02*
X12061652Y-30254006D01*
X12061652Y-30254006D02*
X12061652Y-30301625D01*
X12061652Y-30301625D02*
X12014033Y-30396863D01*
X12014033Y-30396863D02*
X11966414Y-30444482D01*
X11966414Y-30444482D02*
X11871176Y-30492101D01*
X11871176Y-30492101D02*
X11680700Y-30492101D01*
X11680700Y-30492101D02*
X11585462Y-30539720D01*
X11585462Y-30539720D02*
X11537843Y-30587339D01*
X11537843Y-30587339D02*
X11490224Y-30682577D01*
X11490224Y-30682577D02*
X11490224Y-30873053D01*
X11490224Y-30873053D02*
X11537843Y-30968291D01*
X11537843Y-30968291D02*
X11585462Y-31015911D01*
X11585462Y-31015911D02*
X11680700Y-31063530D01*
X11680700Y-31063530D02*
X11871176Y-31063530D01*
X11871176Y-31063530D02*
X11966414Y-31015911D01*
X11966414Y-31015911D02*
X12014033Y-30968291D01*
X12014033Y-30968291D02*
X12061652Y-30873053D01*
X12061652Y-30873053D02*
X12061652Y-30682577D01*
X12061652Y-30682577D02*
X12014033Y-30587339D01*
X12014033Y-30587339D02*
X11966414Y-30539720D01*
X11966414Y-30539720D02*
X11871176Y-30492101D01*
X32357142Y-41499580D02*
X32309523Y-41547200D01*
X32309523Y-41547200D02*
X32166666Y-41594819D01*
X32166666Y-41594819D02*
X32071428Y-41594819D01*
X32071428Y-41594819D02*
X31928571Y-41547200D01*
X31928571Y-41547200D02*
X31833333Y-41451961D01*
X31833333Y-41451961D02*
X31785714Y-41356723D01*
X31785714Y-41356723D02*
X31738095Y-41166247D01*
X31738095Y-41166247D02*
X31738095Y-41023390D01*
X31738095Y-41023390D02*
X31785714Y-40832914D01*
X31785714Y-40832914D02*
X31833333Y-40737676D01*
X31833333Y-40737676D02*
X31928571Y-40642438D01*
X31928571Y-40642438D02*
X32071428Y-40594819D01*
X32071428Y-40594819D02*
X32166666Y-40594819D01*
X32166666Y-40594819D02*
X32309523Y-40642438D01*
X32309523Y-40642438D02*
X32357142Y-40690057D01*
X33309523Y-41594819D02*
X32738095Y-41594819D01*
X33023809Y-41594819D02*
X33023809Y-40594819D01*
X33023809Y-40594819D02*
X32928571Y-40737676D01*
X32928571Y-40737676D02*
X32833333Y-40832914D01*
X32833333Y-40832914D02*
X32738095Y-40880533D01*
X33928571Y-40594819D02*
X34023809Y-40594819D01*
X34023809Y-40594819D02*
X34119047Y-40642438D01*
X34119047Y-40642438D02*
X34166666Y-40690057D01*
X34166666Y-40690057D02*
X34214285Y-40785295D01*
X34214285Y-40785295D02*
X34261904Y-40975771D01*
X34261904Y-40975771D02*
X34261904Y-41213866D01*
X34261904Y-41213866D02*
X34214285Y-41404342D01*
X34214285Y-41404342D02*
X34166666Y-41499580D01*
X34166666Y-41499580D02*
X34119047Y-41547200D01*
X34119047Y-41547200D02*
X34023809Y-41594819D01*
X34023809Y-41594819D02*
X33928571Y-41594819D01*
X33928571Y-41594819D02*
X33833333Y-41547200D01*
X33833333Y-41547200D02*
X33785714Y-41499580D01*
X33785714Y-41499580D02*
X33738095Y-41404342D01*
X33738095Y-41404342D02*
X33690476Y-41213866D01*
X33690476Y-41213866D02*
X33690476Y-40975771D01*
X33690476Y-40975771D02*
X33738095Y-40785295D01*
X33738095Y-40785295D02*
X33785714Y-40690057D01*
X33785714Y-40690057D02*
X33833333Y-40642438D01*
X33833333Y-40642438D02*
X33928571Y-40594819D01*
X17666666Y-60654819D02*
X17666666Y-61369104D01*
X17666666Y-61369104D02*
X17619047Y-61511961D01*
X17619047Y-61511961D02*
X17523809Y-61607200D01*
X17523809Y-61607200D02*
X17380952Y-61654819D01*
X17380952Y-61654819D02*
X17285714Y-61654819D01*
X18666666Y-61654819D02*
X18095238Y-61654819D01*
X18380952Y-61654819D02*
X18380952Y-60654819D01*
X18380952Y-60654819D02*
X18285714Y-60797676D01*
X18285714Y-60797676D02*
X18190476Y-60892914D01*
X18190476Y-60892914D02*
X18095238Y-60940533D01*
X22719154Y-29475829D02*
X22671535Y-29523449D01*
X22671535Y-29523449D02*
X22528678Y-29571068D01*
X22528678Y-29571068D02*
X22433440Y-29571068D01*
X22433440Y-29571068D02*
X22290583Y-29523449D01*
X22290583Y-29523449D02*
X22195345Y-29428210D01*
X22195345Y-29428210D02*
X22147726Y-29332972D01*
X22147726Y-29332972D02*
X22100107Y-29142496D01*
X22100107Y-29142496D02*
X22100107Y-28999639D01*
X22100107Y-28999639D02*
X22147726Y-28809163D01*
X22147726Y-28809163D02*
X22195345Y-28713925D01*
X22195345Y-28713925D02*
X22290583Y-28618687D01*
X22290583Y-28618687D02*
X22433440Y-28571068D01*
X22433440Y-28571068D02*
X22528678Y-28571068D01*
X22528678Y-28571068D02*
X22671535Y-28618687D01*
X22671535Y-28618687D02*
X22719154Y-28666306D01*
X23671535Y-29571068D02*
X23100107Y-29571068D01*
X23385821Y-29571068D02*
X23385821Y-28571068D01*
X23385821Y-28571068D02*
X23290583Y-28713925D01*
X23290583Y-28713925D02*
X23195345Y-28809163D01*
X23195345Y-28809163D02*
X23100107Y-28856782D01*
X24528678Y-28571068D02*
X24338202Y-28571068D01*
X24338202Y-28571068D02*
X24242964Y-28618687D01*
X24242964Y-28618687D02*
X24195345Y-28666306D01*
X24195345Y-28666306D02*
X24100107Y-28809163D01*
X24100107Y-28809163D02*
X24052488Y-28999639D01*
X24052488Y-28999639D02*
X24052488Y-29380591D01*
X24052488Y-29380591D02*
X24100107Y-29475829D01*
X24100107Y-29475829D02*
X24147726Y-29523449D01*
X24147726Y-29523449D02*
X24242964Y-29571068D01*
X24242964Y-29571068D02*
X24433440Y-29571068D01*
X24433440Y-29571068D02*
X24528678Y-29523449D01*
X24528678Y-29523449D02*
X24576297Y-29475829D01*
X24576297Y-29475829D02*
X24623916Y-29380591D01*
X24623916Y-29380591D02*
X24623916Y-29142496D01*
X24623916Y-29142496D02*
X24576297Y-29047258D01*
X24576297Y-29047258D02*
X24528678Y-28999639D01*
X24528678Y-28999639D02*
X24433440Y-28952020D01*
X24433440Y-28952020D02*
X24242964Y-28952020D01*
X24242964Y-28952020D02*
X24147726Y-28999639D01*
X24147726Y-28999639D02*
X24100107Y-29047258D01*
X24100107Y-29047258D02*
X24052488Y-29142496D01*
X15269675Y-25790416D02*
X14936342Y-25314225D01*
X14698247Y-25790416D02*
X14698247Y-24790416D01*
X14698247Y-24790416D02*
X15079199Y-24790416D01*
X15079199Y-24790416D02*
X15174437Y-24838035D01*
X15174437Y-24838035D02*
X15222056Y-24885654D01*
X15222056Y-24885654D02*
X15269675Y-24980892D01*
X15269675Y-24980892D02*
X15269675Y-25123749D01*
X15269675Y-25123749D02*
X15222056Y-25218987D01*
X15222056Y-25218987D02*
X15174437Y-25266606D01*
X15174437Y-25266606D02*
X15079199Y-25314225D01*
X15079199Y-25314225D02*
X14698247Y-25314225D01*
X16222056Y-25790416D02*
X15650628Y-25790416D01*
X15936342Y-25790416D02*
X15936342Y-24790416D01*
X15936342Y-24790416D02*
X15841104Y-24933273D01*
X15841104Y-24933273D02*
X15745866Y-25028511D01*
X15745866Y-25028511D02*
X15650628Y-25076130D01*
X17079199Y-25123749D02*
X17079199Y-25790416D01*
X16841104Y-24742797D02*
X16603009Y-25457082D01*
X16603009Y-25457082D02*
X17222056Y-25457082D01*
X26716655Y-58932423D02*
X26383322Y-58456232D01*
X26145227Y-58932423D02*
X26145227Y-57932423D01*
X26145227Y-57932423D02*
X26526179Y-57932423D01*
X26526179Y-57932423D02*
X26621417Y-57980042D01*
X26621417Y-57980042D02*
X26669036Y-58027661D01*
X26669036Y-58027661D02*
X26716655Y-58122899D01*
X26716655Y-58122899D02*
X26716655Y-58265756D01*
X26716655Y-58265756D02*
X26669036Y-58360994D01*
X26669036Y-58360994D02*
X26621417Y-58408613D01*
X26621417Y-58408613D02*
X26526179Y-58456232D01*
X26526179Y-58456232D02*
X26145227Y-58456232D01*
X27621417Y-57932423D02*
X27145227Y-57932423D01*
X27145227Y-57932423D02*
X27097608Y-58408613D01*
X27097608Y-58408613D02*
X27145227Y-58360994D01*
X27145227Y-58360994D02*
X27240465Y-58313375D01*
X27240465Y-58313375D02*
X27478560Y-58313375D01*
X27478560Y-58313375D02*
X27573798Y-58360994D01*
X27573798Y-58360994D02*
X27621417Y-58408613D01*
X27621417Y-58408613D02*
X27669036Y-58503851D01*
X27669036Y-58503851D02*
X27669036Y-58741946D01*
X27669036Y-58741946D02*
X27621417Y-58837184D01*
X27621417Y-58837184D02*
X27573798Y-58884804D01*
X27573798Y-58884804D02*
X27478560Y-58932423D01*
X27478560Y-58932423D02*
X27240465Y-58932423D01*
X27240465Y-58932423D02*
X27145227Y-58884804D01*
X27145227Y-58884804D02*
X27097608Y-58837184D01*
X19361904Y-8954819D02*
X19361904Y-7954819D01*
X19361904Y-7954819D02*
X19599999Y-7954819D01*
X19599999Y-7954819D02*
X19742856Y-8002438D01*
X19742856Y-8002438D02*
X19838094Y-8097676D01*
X19838094Y-8097676D02*
X19885713Y-8192914D01*
X19885713Y-8192914D02*
X19933332Y-8383390D01*
X19933332Y-8383390D02*
X19933332Y-8526247D01*
X19933332Y-8526247D02*
X19885713Y-8716723D01*
X19885713Y-8716723D02*
X19838094Y-8811961D01*
X19838094Y-8811961D02*
X19742856Y-8907200D01*
X19742856Y-8907200D02*
X19599999Y-8954819D01*
X19599999Y-8954819D02*
X19361904Y-8954819D01*
X20790475Y-7954819D02*
X20599999Y-7954819D01*
X20599999Y-7954819D02*
X20504761Y-8002438D01*
X20504761Y-8002438D02*
X20457142Y-8050057D01*
X20457142Y-8050057D02*
X20361904Y-8192914D01*
X20361904Y-8192914D02*
X20314285Y-8383390D01*
X20314285Y-8383390D02*
X20314285Y-8764342D01*
X20314285Y-8764342D02*
X20361904Y-8859580D01*
X20361904Y-8859580D02*
X20409523Y-8907200D01*
X20409523Y-8907200D02*
X20504761Y-8954819D01*
X20504761Y-8954819D02*
X20695237Y-8954819D01*
X20695237Y-8954819D02*
X20790475Y-8907200D01*
X20790475Y-8907200D02*
X20838094Y-8859580D01*
X20838094Y-8859580D02*
X20885713Y-8764342D01*
X20885713Y-8764342D02*
X20885713Y-8526247D01*
X20885713Y-8526247D02*
X20838094Y-8431009D01*
X20838094Y-8431009D02*
X20790475Y-8383390D01*
X20790475Y-8383390D02*
X20695237Y-8335771D01*
X20695237Y-8335771D02*
X20504761Y-8335771D01*
X20504761Y-8335771D02*
X20409523Y-8383390D01*
X20409523Y-8383390D02*
X20361904Y-8431009D01*
X20361904Y-8431009D02*
X20314285Y-8526247D01*
X32881320Y-29026289D02*
X32833701Y-29073909D01*
X32833701Y-29073909D02*
X32690844Y-29121528D01*
X32690844Y-29121528D02*
X32595606Y-29121528D01*
X32595606Y-29121528D02*
X32452749Y-29073909D01*
X32452749Y-29073909D02*
X32357511Y-28978670D01*
X32357511Y-28978670D02*
X32309892Y-28883432D01*
X32309892Y-28883432D02*
X32262273Y-28692956D01*
X32262273Y-28692956D02*
X32262273Y-28550099D01*
X32262273Y-28550099D02*
X32309892Y-28359623D01*
X32309892Y-28359623D02*
X32357511Y-28264385D01*
X32357511Y-28264385D02*
X32452749Y-28169147D01*
X32452749Y-28169147D02*
X32595606Y-28121528D01*
X32595606Y-28121528D02*
X32690844Y-28121528D01*
X32690844Y-28121528D02*
X32833701Y-28169147D01*
X32833701Y-28169147D02*
X32881320Y-28216766D01*
X33357511Y-29121528D02*
X33547987Y-29121528D01*
X33547987Y-29121528D02*
X33643225Y-29073909D01*
X33643225Y-29073909D02*
X33690844Y-29026289D01*
X33690844Y-29026289D02*
X33786082Y-28883432D01*
X33786082Y-28883432D02*
X33833701Y-28692956D01*
X33833701Y-28692956D02*
X33833701Y-28312004D01*
X33833701Y-28312004D02*
X33786082Y-28216766D01*
X33786082Y-28216766D02*
X33738463Y-28169147D01*
X33738463Y-28169147D02*
X33643225Y-28121528D01*
X33643225Y-28121528D02*
X33452749Y-28121528D01*
X33452749Y-28121528D02*
X33357511Y-28169147D01*
X33357511Y-28169147D02*
X33309892Y-28216766D01*
X33309892Y-28216766D02*
X33262273Y-28312004D01*
X33262273Y-28312004D02*
X33262273Y-28550099D01*
X33262273Y-28550099D02*
X33309892Y-28645337D01*
X33309892Y-28645337D02*
X33357511Y-28692956D01*
X33357511Y-28692956D02*
X33452749Y-28740575D01*
X33452749Y-28740575D02*
X33643225Y-28740575D01*
X33643225Y-28740575D02*
X33738463Y-28692956D01*
X33738463Y-28692956D02*
X33786082Y-28645337D01*
X33786082Y-28645337D02*
X33833701Y-28550099D01*
X6745569Y-57167919D02*
X6412236Y-56691728D01*
X6174141Y-57167919D02*
X6174141Y-56167919D01*
X6174141Y-56167919D02*
X6555093Y-56167919D01*
X6555093Y-56167919D02*
X6650331Y-56215538D01*
X6650331Y-56215538D02*
X6697950Y-56263157D01*
X6697950Y-56263157D02*
X6745569Y-56358395D01*
X6745569Y-56358395D02*
X6745569Y-56501252D01*
X6745569Y-56501252D02*
X6697950Y-56596490D01*
X6697950Y-56596490D02*
X6650331Y-56644109D01*
X6650331Y-56644109D02*
X6555093Y-56691728D01*
X6555093Y-56691728D02*
X6174141Y-56691728D01*
X7126522Y-56263157D02*
X7174141Y-56215538D01*
X7174141Y-56215538D02*
X7269379Y-56167919D01*
X7269379Y-56167919D02*
X7507474Y-56167919D01*
X7507474Y-56167919D02*
X7602712Y-56215538D01*
X7602712Y-56215538D02*
X7650331Y-56263157D01*
X7650331Y-56263157D02*
X7697950Y-56358395D01*
X7697950Y-56358395D02*
X7697950Y-56453633D01*
X7697950Y-56453633D02*
X7650331Y-56596490D01*
X7650331Y-56596490D02*
X7078903Y-57167919D01*
X7078903Y-57167919D02*
X7697950Y-57167919D01*
X8269379Y-56596490D02*
X8174141Y-56548871D01*
X8174141Y-56548871D02*
X8126522Y-56501252D01*
X8126522Y-56501252D02*
X8078903Y-56406014D01*
X8078903Y-56406014D02*
X8078903Y-56358395D01*
X8078903Y-56358395D02*
X8126522Y-56263157D01*
X8126522Y-56263157D02*
X8174141Y-56215538D01*
X8174141Y-56215538D02*
X8269379Y-56167919D01*
X8269379Y-56167919D02*
X8459855Y-56167919D01*
X8459855Y-56167919D02*
X8555093Y-56215538D01*
X8555093Y-56215538D02*
X8602712Y-56263157D01*
X8602712Y-56263157D02*
X8650331Y-56358395D01*
X8650331Y-56358395D02*
X8650331Y-56406014D01*
X8650331Y-56406014D02*
X8602712Y-56501252D01*
X8602712Y-56501252D02*
X8555093Y-56548871D01*
X8555093Y-56548871D02*
X8459855Y-56596490D01*
X8459855Y-56596490D02*
X8269379Y-56596490D01*
X8269379Y-56596490D02*
X8174141Y-56644109D01*
X8174141Y-56644109D02*
X8126522Y-56691728D01*
X8126522Y-56691728D02*
X8078903Y-56786966D01*
X8078903Y-56786966D02*
X8078903Y-56977442D01*
X8078903Y-56977442D02*
X8126522Y-57072680D01*
X8126522Y-57072680D02*
X8174141Y-57120300D01*
X8174141Y-57120300D02*
X8269379Y-57167919D01*
X8269379Y-57167919D02*
X8459855Y-57167919D01*
X8459855Y-57167919D02*
X8555093Y-57120300D01*
X8555093Y-57120300D02*
X8602712Y-57072680D01*
X8602712Y-57072680D02*
X8650331Y-56977442D01*
X8650331Y-56977442D02*
X8650331Y-56786966D01*
X8650331Y-56786966D02*
X8602712Y-56691728D01*
X8602712Y-56691728D02*
X8555093Y-56644109D01*
X8555093Y-56644109D02*
X8459855Y-56596490D01*
X29904761Y-53150057D02*
X29809523Y-53102438D01*
X29809523Y-53102438D02*
X29714285Y-53007200D01*
X29714285Y-53007200D02*
X29571428Y-52864342D01*
X29571428Y-52864342D02*
X29476190Y-52816723D01*
X29476190Y-52816723D02*
X29380952Y-52816723D01*
X29428571Y-53054819D02*
X29333333Y-53007200D01*
X29333333Y-53007200D02*
X29238095Y-52911961D01*
X29238095Y-52911961D02*
X29190476Y-52721485D01*
X29190476Y-52721485D02*
X29190476Y-52388152D01*
X29190476Y-52388152D02*
X29238095Y-52197676D01*
X29238095Y-52197676D02*
X29333333Y-52102438D01*
X29333333Y-52102438D02*
X29428571Y-52054819D01*
X29428571Y-52054819D02*
X29619047Y-52054819D01*
X29619047Y-52054819D02*
X29714285Y-52102438D01*
X29714285Y-52102438D02*
X29809523Y-52197676D01*
X29809523Y-52197676D02*
X29857142Y-52388152D01*
X29857142Y-52388152D02*
X29857142Y-52721485D01*
X29857142Y-52721485D02*
X29809523Y-52911961D01*
X29809523Y-52911961D02*
X29714285Y-53007200D01*
X29714285Y-53007200D02*
X29619047Y-53054819D01*
X29619047Y-53054819D02*
X29428571Y-53054819D01*
X30238095Y-52150057D02*
X30285714Y-52102438D01*
X30285714Y-52102438D02*
X30380952Y-52054819D01*
X30380952Y-52054819D02*
X30619047Y-52054819D01*
X30619047Y-52054819D02*
X30714285Y-52102438D01*
X30714285Y-52102438D02*
X30761904Y-52150057D01*
X30761904Y-52150057D02*
X30809523Y-52245295D01*
X30809523Y-52245295D02*
X30809523Y-52340533D01*
X30809523Y-52340533D02*
X30761904Y-52483390D01*
X30761904Y-52483390D02*
X30190476Y-53054819D01*
X30190476Y-53054819D02*
X30809523Y-53054819D01*
X14757343Y-45336923D02*
X14709724Y-45384543D01*
X14709724Y-45384543D02*
X14566867Y-45432162D01*
X14566867Y-45432162D02*
X14471629Y-45432162D01*
X14471629Y-45432162D02*
X14328772Y-45384543D01*
X14328772Y-45384543D02*
X14233534Y-45289304D01*
X14233534Y-45289304D02*
X14185915Y-45194066D01*
X14185915Y-45194066D02*
X14138296Y-45003590D01*
X14138296Y-45003590D02*
X14138296Y-44860733D01*
X14138296Y-44860733D02*
X14185915Y-44670257D01*
X14185915Y-44670257D02*
X14233534Y-44575019D01*
X14233534Y-44575019D02*
X14328772Y-44479781D01*
X14328772Y-44479781D02*
X14471629Y-44432162D01*
X14471629Y-44432162D02*
X14566867Y-44432162D01*
X14566867Y-44432162D02*
X14709724Y-44479781D01*
X14709724Y-44479781D02*
X14757343Y-44527400D01*
X15138296Y-44527400D02*
X15185915Y-44479781D01*
X15185915Y-44479781D02*
X15281153Y-44432162D01*
X15281153Y-44432162D02*
X15519248Y-44432162D01*
X15519248Y-44432162D02*
X15614486Y-44479781D01*
X15614486Y-44479781D02*
X15662105Y-44527400D01*
X15662105Y-44527400D02*
X15709724Y-44622638D01*
X15709724Y-44622638D02*
X15709724Y-44717876D01*
X15709724Y-44717876D02*
X15662105Y-44860733D01*
X15662105Y-44860733D02*
X15090677Y-45432162D01*
X15090677Y-45432162D02*
X15709724Y-45432162D01*
X16090677Y-44527400D02*
X16138296Y-44479781D01*
X16138296Y-44479781D02*
X16233534Y-44432162D01*
X16233534Y-44432162D02*
X16471629Y-44432162D01*
X16471629Y-44432162D02*
X16566867Y-44479781D01*
X16566867Y-44479781D02*
X16614486Y-44527400D01*
X16614486Y-44527400D02*
X16662105Y-44622638D01*
X16662105Y-44622638D02*
X16662105Y-44717876D01*
X16662105Y-44717876D02*
X16614486Y-44860733D01*
X16614486Y-44860733D02*
X16043058Y-45432162D01*
X16043058Y-45432162D02*
X16662105Y-45432162D01*
X32357142Y-46984819D02*
X32023809Y-46508628D01*
X31785714Y-46984819D02*
X31785714Y-45984819D01*
X31785714Y-45984819D02*
X32166666Y-45984819D01*
X32166666Y-45984819D02*
X32261904Y-46032438D01*
X32261904Y-46032438D02*
X32309523Y-46080057D01*
X32309523Y-46080057D02*
X32357142Y-46175295D01*
X32357142Y-46175295D02*
X32357142Y-46318152D01*
X32357142Y-46318152D02*
X32309523Y-46413390D01*
X32309523Y-46413390D02*
X32261904Y-46461009D01*
X32261904Y-46461009D02*
X32166666Y-46508628D01*
X32166666Y-46508628D02*
X31785714Y-46508628D01*
X33309523Y-46984819D02*
X32738095Y-46984819D01*
X33023809Y-46984819D02*
X33023809Y-45984819D01*
X33023809Y-45984819D02*
X32928571Y-46127676D01*
X32928571Y-46127676D02*
X32833333Y-46222914D01*
X32833333Y-46222914D02*
X32738095Y-46270533D01*
X33928571Y-45984819D02*
X34023809Y-45984819D01*
X34023809Y-45984819D02*
X34119047Y-46032438D01*
X34119047Y-46032438D02*
X34166666Y-46080057D01*
X34166666Y-46080057D02*
X34214285Y-46175295D01*
X34214285Y-46175295D02*
X34261904Y-46365771D01*
X34261904Y-46365771D02*
X34261904Y-46603866D01*
X34261904Y-46603866D02*
X34214285Y-46794342D01*
X34214285Y-46794342D02*
X34166666Y-46889580D01*
X34166666Y-46889580D02*
X34119047Y-46937200D01*
X34119047Y-46937200D02*
X34023809Y-46984819D01*
X34023809Y-46984819D02*
X33928571Y-46984819D01*
X33928571Y-46984819D02*
X33833333Y-46937200D01*
X33833333Y-46937200D02*
X33785714Y-46889580D01*
X33785714Y-46889580D02*
X33738095Y-46794342D01*
X33738095Y-46794342D02*
X33690476Y-46603866D01*
X33690476Y-46603866D02*
X33690476Y-46365771D01*
X33690476Y-46365771D02*
X33738095Y-46175295D01*
X33738095Y-46175295D02*
X33785714Y-46080057D01*
X33785714Y-46080057D02*
X33833333Y-46032438D01*
X33833333Y-46032438D02*
X33928571Y-45984819D01*
X12190476Y-61759819D02*
X12190476Y-62474104D01*
X12190476Y-62474104D02*
X12142857Y-62616961D01*
X12142857Y-62616961D02*
X12047619Y-62712200D01*
X12047619Y-62712200D02*
X11904762Y-62759819D01*
X11904762Y-62759819D02*
X11809524Y-62759819D01*
X13190476Y-62759819D02*
X12619048Y-62759819D01*
X12904762Y-62759819D02*
X12904762Y-61759819D01*
X12904762Y-61759819D02*
X12809524Y-61902676D01*
X12809524Y-61902676D02*
X12714286Y-61997914D01*
X12714286Y-61997914D02*
X12619048Y-62045533D01*
X13809524Y-61759819D02*
X13904762Y-61759819D01*
X13904762Y-61759819D02*
X14000000Y-61807438D01*
X14000000Y-61807438D02*
X14047619Y-61855057D01*
X14047619Y-61855057D02*
X14095238Y-61950295D01*
X14095238Y-61950295D02*
X14142857Y-62140771D01*
X14142857Y-62140771D02*
X14142857Y-62378866D01*
X14142857Y-62378866D02*
X14095238Y-62569342D01*
X14095238Y-62569342D02*
X14047619Y-62664580D01*
X14047619Y-62664580D02*
X14000000Y-62712200D01*
X14000000Y-62712200D02*
X13904762Y-62759819D01*
X13904762Y-62759819D02*
X13809524Y-62759819D01*
X13809524Y-62759819D02*
X13714286Y-62712200D01*
X13714286Y-62712200D02*
X13666667Y-62664580D01*
X13666667Y-62664580D02*
X13619048Y-62569342D01*
X13619048Y-62569342D02*
X13571429Y-62378866D01*
X13571429Y-62378866D02*
X13571429Y-62140771D01*
X13571429Y-62140771D02*
X13619048Y-61950295D01*
X13619048Y-61950295D02*
X13666667Y-61855057D01*
X13666667Y-61855057D02*
X13714286Y-61807438D01*
X13714286Y-61807438D02*
X13809524Y-61759819D01*
X3861905Y-6204819D02*
X3861905Y-5204819D01*
X3861905Y-5204819D02*
X4100000Y-5204819D01*
X4100000Y-5204819D02*
X4242857Y-5252438D01*
X4242857Y-5252438D02*
X4338095Y-5347676D01*
X4338095Y-5347676D02*
X4385714Y-5442914D01*
X4385714Y-5442914D02*
X4433333Y-5633390D01*
X4433333Y-5633390D02*
X4433333Y-5776247D01*
X4433333Y-5776247D02*
X4385714Y-5966723D01*
X4385714Y-5966723D02*
X4338095Y-6061961D01*
X4338095Y-6061961D02*
X4242857Y-6157200D01*
X4242857Y-6157200D02*
X4100000Y-6204819D01*
X4100000Y-6204819D02*
X3861905Y-6204819D01*
X4814286Y-5300057D02*
X4861905Y-5252438D01*
X4861905Y-5252438D02*
X4957143Y-5204819D01*
X4957143Y-5204819D02*
X5195238Y-5204819D01*
X5195238Y-5204819D02*
X5290476Y-5252438D01*
X5290476Y-5252438D02*
X5338095Y-5300057D01*
X5338095Y-5300057D02*
X5385714Y-5395295D01*
X5385714Y-5395295D02*
X5385714Y-5490533D01*
X5385714Y-5490533D02*
X5338095Y-5633390D01*
X5338095Y-5633390D02*
X4766667Y-6204819D01*
X4766667Y-6204819D02*
X5385714Y-6204819D01*
X15433389Y-47419861D02*
X15100056Y-46943670D01*
X14861961Y-47419861D02*
X14861961Y-46419861D01*
X14861961Y-46419861D02*
X15242913Y-46419861D01*
X15242913Y-46419861D02*
X15338151Y-46467480D01*
X15338151Y-46467480D02*
X15385770Y-46515099D01*
X15385770Y-46515099D02*
X15433389Y-46610337D01*
X15433389Y-46610337D02*
X15433389Y-46753194D01*
X15433389Y-46753194D02*
X15385770Y-46848432D01*
X15385770Y-46848432D02*
X15338151Y-46896051D01*
X15338151Y-46896051D02*
X15242913Y-46943670D01*
X15242913Y-46943670D02*
X14861961Y-46943670D01*
X16385770Y-47419861D02*
X15814342Y-47419861D01*
X16100056Y-47419861D02*
X16100056Y-46419861D01*
X16100056Y-46419861D02*
X16004818Y-46562718D01*
X16004818Y-46562718D02*
X15909580Y-46657956D01*
X15909580Y-46657956D02*
X15814342Y-46705575D01*
X16719104Y-46419861D02*
X17385770Y-46419861D01*
X17385770Y-46419861D02*
X16957199Y-47419861D01*
X20197903Y-59425601D02*
X19864570Y-58949410D01*
X19626475Y-59425601D02*
X19626475Y-58425601D01*
X19626475Y-58425601D02*
X20007427Y-58425601D01*
X20007427Y-58425601D02*
X20102665Y-58473220D01*
X20102665Y-58473220D02*
X20150284Y-58520839D01*
X20150284Y-58520839D02*
X20197903Y-58616077D01*
X20197903Y-58616077D02*
X20197903Y-58758934D01*
X20197903Y-58758934D02*
X20150284Y-58854172D01*
X20150284Y-58854172D02*
X20102665Y-58901791D01*
X20102665Y-58901791D02*
X20007427Y-58949410D01*
X20007427Y-58949410D02*
X19626475Y-58949410D01*
X21055046Y-58758934D02*
X21055046Y-59425601D01*
X20816951Y-58377982D02*
X20578856Y-59092267D01*
X20578856Y-59092267D02*
X21197903Y-59092267D01*
X7021735Y-33515455D02*
X6688402Y-33039264D01*
X6450307Y-33515455D02*
X6450307Y-32515455D01*
X6450307Y-32515455D02*
X6831259Y-32515455D01*
X6831259Y-32515455D02*
X6926497Y-32563074D01*
X6926497Y-32563074D02*
X6974116Y-32610693D01*
X6974116Y-32610693D02*
X7021735Y-32705931D01*
X7021735Y-32705931D02*
X7021735Y-32848788D01*
X7021735Y-32848788D02*
X6974116Y-32944026D01*
X6974116Y-32944026D02*
X6926497Y-32991645D01*
X6926497Y-32991645D02*
X6831259Y-33039264D01*
X6831259Y-33039264D02*
X6450307Y-33039264D01*
X7974116Y-33515455D02*
X7402688Y-33515455D01*
X7688402Y-33515455D02*
X7688402Y-32515455D01*
X7688402Y-32515455D02*
X7593164Y-32658312D01*
X7593164Y-32658312D02*
X7497926Y-32753550D01*
X7497926Y-32753550D02*
X7402688Y-32801169D01*
X8307450Y-32515455D02*
X8926497Y-32515455D01*
X8926497Y-32515455D02*
X8593164Y-32896407D01*
X8593164Y-32896407D02*
X8736021Y-32896407D01*
X8736021Y-32896407D02*
X8831259Y-32944026D01*
X8831259Y-32944026D02*
X8878878Y-32991645D01*
X8878878Y-32991645D02*
X8926497Y-33086883D01*
X8926497Y-33086883D02*
X8926497Y-33324978D01*
X8926497Y-33324978D02*
X8878878Y-33420216D01*
X8878878Y-33420216D02*
X8831259Y-33467836D01*
X8831259Y-33467836D02*
X8736021Y-33515455D01*
X8736021Y-33515455D02*
X8450307Y-33515455D01*
X8450307Y-33515455D02*
X8355069Y-33467836D01*
X8355069Y-33467836D02*
X8307450Y-33420216D01*
X3666666Y-37759819D02*
X3666666Y-38474104D01*
X3666666Y-38474104D02*
X3619047Y-38616961D01*
X3619047Y-38616961D02*
X3523809Y-38712200D01*
X3523809Y-38712200D02*
X3380952Y-38759819D01*
X3380952Y-38759819D02*
X3285714Y-38759819D01*
X4190476Y-38759819D02*
X4380952Y-38759819D01*
X4380952Y-38759819D02*
X4476190Y-38712200D01*
X4476190Y-38712200D02*
X4523809Y-38664580D01*
X4523809Y-38664580D02*
X4619047Y-38521723D01*
X4619047Y-38521723D02*
X4666666Y-38331247D01*
X4666666Y-38331247D02*
X4666666Y-37950295D01*
X4666666Y-37950295D02*
X4619047Y-37855057D01*
X4619047Y-37855057D02*
X4571428Y-37807438D01*
X4571428Y-37807438D02*
X4476190Y-37759819D01*
X4476190Y-37759819D02*
X4285714Y-37759819D01*
X4285714Y-37759819D02*
X4190476Y-37807438D01*
X4190476Y-37807438D02*
X4142857Y-37855057D01*
X4142857Y-37855057D02*
X4095238Y-37950295D01*
X4095238Y-37950295D02*
X4095238Y-38188390D01*
X4095238Y-38188390D02*
X4142857Y-38283628D01*
X4142857Y-38283628D02*
X4190476Y-38331247D01*
X4190476Y-38331247D02*
X4285714Y-38378866D01*
X4285714Y-38378866D02*
X4476190Y-38378866D01*
X4476190Y-38378866D02*
X4571428Y-38331247D01*
X4571428Y-38331247D02*
X4619047Y-38283628D01*
X4619047Y-38283628D02*
X4666666Y-38188390D01*
X9575995Y-64275102D02*
X9528376Y-64322722D01*
X9528376Y-64322722D02*
X9385519Y-64370341D01*
X9385519Y-64370341D02*
X9290281Y-64370341D01*
X9290281Y-64370341D02*
X9147424Y-64322722D01*
X9147424Y-64322722D02*
X9052186Y-64227483D01*
X9052186Y-64227483D02*
X9004567Y-64132245D01*
X9004567Y-64132245D02*
X8956948Y-63941769D01*
X8956948Y-63941769D02*
X8956948Y-63798912D01*
X8956948Y-63798912D02*
X9004567Y-63608436D01*
X9004567Y-63608436D02*
X9052186Y-63513198D01*
X9052186Y-63513198D02*
X9147424Y-63417960D01*
X9147424Y-63417960D02*
X9290281Y-63370341D01*
X9290281Y-63370341D02*
X9385519Y-63370341D01*
X9385519Y-63370341D02*
X9528376Y-63417960D01*
X9528376Y-63417960D02*
X9575995Y-63465579D01*
X10433138Y-63703674D02*
X10433138Y-64370341D01*
X10195043Y-63322722D02*
X9956948Y-64037007D01*
X9956948Y-64037007D02*
X10575995Y-64037007D01*
X25472519Y-29780924D02*
X25139186Y-29304733D01*
X24901091Y-29780924D02*
X24901091Y-28780924D01*
X24901091Y-28780924D02*
X25282043Y-28780924D01*
X25282043Y-28780924D02*
X25377281Y-28828543D01*
X25377281Y-28828543D02*
X25424900Y-28876162D01*
X25424900Y-28876162D02*
X25472519Y-28971400D01*
X25472519Y-28971400D02*
X25472519Y-29114257D01*
X25472519Y-29114257D02*
X25424900Y-29209495D01*
X25424900Y-29209495D02*
X25377281Y-29257114D01*
X25377281Y-29257114D02*
X25282043Y-29304733D01*
X25282043Y-29304733D02*
X24901091Y-29304733D01*
X26424900Y-29780924D02*
X25853472Y-29780924D01*
X26139186Y-29780924D02*
X26139186Y-28780924D01*
X26139186Y-28780924D02*
X26043948Y-28923781D01*
X26043948Y-28923781D02*
X25948710Y-29019019D01*
X25948710Y-29019019D02*
X25853472Y-29066638D01*
X27377281Y-29780924D02*
X26805853Y-29780924D01*
X27091567Y-29780924D02*
X27091567Y-28780924D01*
X27091567Y-28780924D02*
X26996329Y-28923781D01*
X26996329Y-28923781D02*
X26901091Y-29019019D01*
X26901091Y-29019019D02*
X26805853Y-29066638D01*
X29904761Y-14150057D02*
X29809523Y-14102438D01*
X29809523Y-14102438D02*
X29714285Y-14007200D01*
X29714285Y-14007200D02*
X29571428Y-13864342D01*
X29571428Y-13864342D02*
X29476190Y-13816723D01*
X29476190Y-13816723D02*
X29380952Y-13816723D01*
X29428571Y-14054819D02*
X29333333Y-14007200D01*
X29333333Y-14007200D02*
X29238095Y-13911961D01*
X29238095Y-13911961D02*
X29190476Y-13721485D01*
X29190476Y-13721485D02*
X29190476Y-13388152D01*
X29190476Y-13388152D02*
X29238095Y-13197676D01*
X29238095Y-13197676D02*
X29333333Y-13102438D01*
X29333333Y-13102438D02*
X29428571Y-13054819D01*
X29428571Y-13054819D02*
X29619047Y-13054819D01*
X29619047Y-13054819D02*
X29714285Y-13102438D01*
X29714285Y-13102438D02*
X29809523Y-13197676D01*
X29809523Y-13197676D02*
X29857142Y-13388152D01*
X29857142Y-13388152D02*
X29857142Y-13721485D01*
X29857142Y-13721485D02*
X29809523Y-13911961D01*
X29809523Y-13911961D02*
X29714285Y-14007200D01*
X29714285Y-14007200D02*
X29619047Y-14054819D01*
X29619047Y-14054819D02*
X29428571Y-14054819D01*
X30809523Y-14054819D02*
X30238095Y-14054819D01*
X30523809Y-14054819D02*
X30523809Y-13054819D01*
X30523809Y-13054819D02*
X30428571Y-13197676D01*
X30428571Y-13197676D02*
X30333333Y-13292914D01*
X30333333Y-13292914D02*
X30238095Y-13340533D01*
X6884037Y-29334819D02*
X6550704Y-28858628D01*
X6312609Y-29334819D02*
X6312609Y-28334819D01*
X6312609Y-28334819D02*
X6693561Y-28334819D01*
X6693561Y-28334819D02*
X6788799Y-28382438D01*
X6788799Y-28382438D02*
X6836418Y-28430057D01*
X6836418Y-28430057D02*
X6884037Y-28525295D01*
X6884037Y-28525295D02*
X6884037Y-28668152D01*
X6884037Y-28668152D02*
X6836418Y-28763390D01*
X6836418Y-28763390D02*
X6788799Y-28811009D01*
X6788799Y-28811009D02*
X6693561Y-28858628D01*
X6693561Y-28858628D02*
X6312609Y-28858628D01*
X7264990Y-28430057D02*
X7312609Y-28382438D01*
X7312609Y-28382438D02*
X7407847Y-28334819D01*
X7407847Y-28334819D02*
X7645942Y-28334819D01*
X7645942Y-28334819D02*
X7741180Y-28382438D01*
X7741180Y-28382438D02*
X7788799Y-28430057D01*
X7788799Y-28430057D02*
X7836418Y-28525295D01*
X7836418Y-28525295D02*
X7836418Y-28620533D01*
X7836418Y-28620533D02*
X7788799Y-28763390D01*
X7788799Y-28763390D02*
X7217371Y-29334819D01*
X7217371Y-29334819D02*
X7836418Y-29334819D01*
X17532569Y-44797790D02*
X17484950Y-44845410D01*
X17484950Y-44845410D02*
X17342093Y-44893029D01*
X17342093Y-44893029D02*
X17246855Y-44893029D01*
X17246855Y-44893029D02*
X17103998Y-44845410D01*
X17103998Y-44845410D02*
X17008760Y-44750171D01*
X17008760Y-44750171D02*
X16961141Y-44654933D01*
X16961141Y-44654933D02*
X16913522Y-44464457D01*
X16913522Y-44464457D02*
X16913522Y-44321600D01*
X16913522Y-44321600D02*
X16961141Y-44131124D01*
X16961141Y-44131124D02*
X17008760Y-44035886D01*
X17008760Y-44035886D02*
X17103998Y-43940648D01*
X17103998Y-43940648D02*
X17246855Y-43893029D01*
X17246855Y-43893029D02*
X17342093Y-43893029D01*
X17342093Y-43893029D02*
X17484950Y-43940648D01*
X17484950Y-43940648D02*
X17532569Y-43988267D01*
X18484950Y-44893029D02*
X17913522Y-44893029D01*
X18199236Y-44893029D02*
X18199236Y-43893029D01*
X18199236Y-43893029D02*
X18103998Y-44035886D01*
X18103998Y-44035886D02*
X18008760Y-44131124D01*
X18008760Y-44131124D02*
X17913522Y-44178743D01*
X19342093Y-44226362D02*
X19342093Y-44893029D01*
X19103998Y-43845410D02*
X18865903Y-44559695D01*
X18865903Y-44559695D02*
X19484950Y-44559695D01*
X18069099Y-7737291D02*
X18021480Y-7784911D01*
X18021480Y-7784911D02*
X17878623Y-7832530D01*
X17878623Y-7832530D02*
X17783385Y-7832530D01*
X17783385Y-7832530D02*
X17640528Y-7784911D01*
X17640528Y-7784911D02*
X17545290Y-7689672D01*
X17545290Y-7689672D02*
X17497671Y-7594434D01*
X17497671Y-7594434D02*
X17450052Y-7403958D01*
X17450052Y-7403958D02*
X17450052Y-7261101D01*
X17450052Y-7261101D02*
X17497671Y-7070625D01*
X17497671Y-7070625D02*
X17545290Y-6975387D01*
X17545290Y-6975387D02*
X17640528Y-6880149D01*
X17640528Y-6880149D02*
X17783385Y-6832530D01*
X17783385Y-6832530D02*
X17878623Y-6832530D01*
X17878623Y-6832530D02*
X18021480Y-6880149D01*
X18021480Y-6880149D02*
X18069099Y-6927768D01*
X18402433Y-6832530D02*
X19021480Y-6832530D01*
X19021480Y-6832530D02*
X18688147Y-7213482D01*
X18688147Y-7213482D02*
X18831004Y-7213482D01*
X18831004Y-7213482D02*
X18926242Y-7261101D01*
X18926242Y-7261101D02*
X18973861Y-7308720D01*
X18973861Y-7308720D02*
X19021480Y-7403958D01*
X19021480Y-7403958D02*
X19021480Y-7642053D01*
X19021480Y-7642053D02*
X18973861Y-7737291D01*
X18973861Y-7737291D02*
X18926242Y-7784911D01*
X18926242Y-7784911D02*
X18831004Y-7832530D01*
X18831004Y-7832530D02*
X18545290Y-7832530D01*
X18545290Y-7832530D02*
X18450052Y-7784911D01*
X18450052Y-7784911D02*
X18402433Y-7737291D01*
X19354814Y-6832530D02*
X19973861Y-6832530D01*
X19973861Y-6832530D02*
X19640528Y-7213482D01*
X19640528Y-7213482D02*
X19783385Y-7213482D01*
X19783385Y-7213482D02*
X19878623Y-7261101D01*
X19878623Y-7261101D02*
X19926242Y-7308720D01*
X19926242Y-7308720D02*
X19973861Y-7403958D01*
X19973861Y-7403958D02*
X19973861Y-7642053D01*
X19973861Y-7642053D02*
X19926242Y-7737291D01*
X19926242Y-7737291D02*
X19878623Y-7784911D01*
X19878623Y-7784911D02*
X19783385Y-7832530D01*
X19783385Y-7832530D02*
X19497671Y-7832530D01*
X19497671Y-7832530D02*
X19402433Y-7784911D01*
X19402433Y-7784911D02*
X19354814Y-7737291D01*
X21299238Y-25056734D02*
X20965905Y-24580543D01*
X20727810Y-25056734D02*
X20727810Y-24056734D01*
X20727810Y-24056734D02*
X21108762Y-24056734D01*
X21108762Y-24056734D02*
X21204000Y-24104353D01*
X21204000Y-24104353D02*
X21251619Y-24151972D01*
X21251619Y-24151972D02*
X21299238Y-24247210D01*
X21299238Y-24247210D02*
X21299238Y-24390067D01*
X21299238Y-24390067D02*
X21251619Y-24485305D01*
X21251619Y-24485305D02*
X21204000Y-24532924D01*
X21204000Y-24532924D02*
X21108762Y-24580543D01*
X21108762Y-24580543D02*
X20727810Y-24580543D01*
X21680191Y-24151972D02*
X21727810Y-24104353D01*
X21727810Y-24104353D02*
X21823048Y-24056734D01*
X21823048Y-24056734D02*
X22061143Y-24056734D01*
X22061143Y-24056734D02*
X22156381Y-24104353D01*
X22156381Y-24104353D02*
X22204000Y-24151972D01*
X22204000Y-24151972D02*
X22251619Y-24247210D01*
X22251619Y-24247210D02*
X22251619Y-24342448D01*
X22251619Y-24342448D02*
X22204000Y-24485305D01*
X22204000Y-24485305D02*
X21632572Y-25056734D01*
X21632572Y-25056734D02*
X22251619Y-25056734D01*
X22632572Y-24151972D02*
X22680191Y-24104353D01*
X22680191Y-24104353D02*
X22775429Y-24056734D01*
X22775429Y-24056734D02*
X23013524Y-24056734D01*
X23013524Y-24056734D02*
X23108762Y-24104353D01*
X23108762Y-24104353D02*
X23156381Y-24151972D01*
X23156381Y-24151972D02*
X23204000Y-24247210D01*
X23204000Y-24247210D02*
X23204000Y-24342448D01*
X23204000Y-24342448D02*
X23156381Y-24485305D01*
X23156381Y-24485305D02*
X22584953Y-25056734D01*
X22584953Y-25056734D02*
X23204000Y-25056734D01*
X6833333Y-27284819D02*
X6500000Y-26808628D01*
X6261905Y-27284819D02*
X6261905Y-26284819D01*
X6261905Y-26284819D02*
X6642857Y-26284819D01*
X6642857Y-26284819D02*
X6738095Y-26332438D01*
X6738095Y-26332438D02*
X6785714Y-26380057D01*
X6785714Y-26380057D02*
X6833333Y-26475295D01*
X6833333Y-26475295D02*
X6833333Y-26618152D01*
X6833333Y-26618152D02*
X6785714Y-26713390D01*
X6785714Y-26713390D02*
X6738095Y-26761009D01*
X6738095Y-26761009D02*
X6642857Y-26808628D01*
X6642857Y-26808628D02*
X6261905Y-26808628D01*
X7785714Y-27284819D02*
X7214286Y-27284819D01*
X7500000Y-27284819D02*
X7500000Y-26284819D01*
X7500000Y-26284819D02*
X7404762Y-26427676D01*
X7404762Y-26427676D02*
X7309524Y-26522914D01*
X7309524Y-26522914D02*
X7214286Y-26570533D01*
X12007142Y-45551290D02*
X11673809Y-45075099D01*
X11435714Y-45551290D02*
X11435714Y-44551290D01*
X11435714Y-44551290D02*
X11816666Y-44551290D01*
X11816666Y-44551290D02*
X11911904Y-44598909D01*
X11911904Y-44598909D02*
X11959523Y-44646528D01*
X11959523Y-44646528D02*
X12007142Y-44741766D01*
X12007142Y-44741766D02*
X12007142Y-44884623D01*
X12007142Y-44884623D02*
X11959523Y-44979861D01*
X11959523Y-44979861D02*
X11911904Y-45027480D01*
X11911904Y-45027480D02*
X11816666Y-45075099D01*
X11816666Y-45075099D02*
X11435714Y-45075099D01*
X12959523Y-45551290D02*
X12388095Y-45551290D01*
X12673809Y-45551290D02*
X12673809Y-44551290D01*
X12673809Y-44551290D02*
X12578571Y-44694147D01*
X12578571Y-44694147D02*
X12483333Y-44789385D01*
X12483333Y-44789385D02*
X12388095Y-44837004D01*
X13340476Y-44646528D02*
X13388095Y-44598909D01*
X13388095Y-44598909D02*
X13483333Y-44551290D01*
X13483333Y-44551290D02*
X13721428Y-44551290D01*
X13721428Y-44551290D02*
X13816666Y-44598909D01*
X13816666Y-44598909D02*
X13864285Y-44646528D01*
X13864285Y-44646528D02*
X13911904Y-44741766D01*
X13911904Y-44741766D02*
X13911904Y-44837004D01*
X13911904Y-44837004D02*
X13864285Y-44979861D01*
X13864285Y-44979861D02*
X13292857Y-45551290D01*
X13292857Y-45551290D02*
X13911904Y-45551290D01*
X27968039Y-41671734D02*
X27634706Y-41195543D01*
X27396611Y-41671734D02*
X27396611Y-40671734D01*
X27396611Y-40671734D02*
X27777563Y-40671734D01*
X27777563Y-40671734D02*
X27872801Y-40719353D01*
X27872801Y-40719353D02*
X27920420Y-40766972D01*
X27920420Y-40766972D02*
X27968039Y-40862210D01*
X27968039Y-40862210D02*
X27968039Y-41005067D01*
X27968039Y-41005067D02*
X27920420Y-41100305D01*
X27920420Y-41100305D02*
X27872801Y-41147924D01*
X27872801Y-41147924D02*
X27777563Y-41195543D01*
X27777563Y-41195543D02*
X27396611Y-41195543D01*
X28348992Y-40766972D02*
X28396611Y-40719353D01*
X28396611Y-40719353D02*
X28491849Y-40671734D01*
X28491849Y-40671734D02*
X28729944Y-40671734D01*
X28729944Y-40671734D02*
X28825182Y-40719353D01*
X28825182Y-40719353D02*
X28872801Y-40766972D01*
X28872801Y-40766972D02*
X28920420Y-40862210D01*
X28920420Y-40862210D02*
X28920420Y-40957448D01*
X28920420Y-40957448D02*
X28872801Y-41100305D01*
X28872801Y-41100305D02*
X28301373Y-41671734D01*
X28301373Y-41671734D02*
X28920420Y-41671734D01*
X29539468Y-40671734D02*
X29634706Y-40671734D01*
X29634706Y-40671734D02*
X29729944Y-40719353D01*
X29729944Y-40719353D02*
X29777563Y-40766972D01*
X29777563Y-40766972D02*
X29825182Y-40862210D01*
X29825182Y-40862210D02*
X29872801Y-41052686D01*
X29872801Y-41052686D02*
X29872801Y-41290781D01*
X29872801Y-41290781D02*
X29825182Y-41481257D01*
X29825182Y-41481257D02*
X29777563Y-41576495D01*
X29777563Y-41576495D02*
X29729944Y-41624115D01*
X29729944Y-41624115D02*
X29634706Y-41671734D01*
X29634706Y-41671734D02*
X29539468Y-41671734D01*
X29539468Y-41671734D02*
X29444230Y-41624115D01*
X29444230Y-41624115D02*
X29396611Y-41576495D01*
X29396611Y-41576495D02*
X29348992Y-41481257D01*
X29348992Y-41481257D02*
X29301373Y-41290781D01*
X29301373Y-41290781D02*
X29301373Y-41052686D01*
X29301373Y-41052686D02*
X29348992Y-40862210D01*
X29348992Y-40862210D02*
X29396611Y-40766972D01*
X29396611Y-40766972D02*
X29444230Y-40719353D01*
X29444230Y-40719353D02*
X29539468Y-40671734D01*
X17238095Y-29854819D02*
X17238095Y-30664342D01*
X17238095Y-30664342D02*
X17285714Y-30759580D01*
X17285714Y-30759580D02*
X17333333Y-30807200D01*
X17333333Y-30807200D02*
X17428571Y-30854819D01*
X17428571Y-30854819D02*
X17619047Y-30854819D01*
X17619047Y-30854819D02*
X17714285Y-30807200D01*
X17714285Y-30807200D02*
X17761904Y-30759580D01*
X17761904Y-30759580D02*
X17809523Y-30664342D01*
X17809523Y-30664342D02*
X17809523Y-29854819D01*
X18809523Y-30854819D02*
X18238095Y-30854819D01*
X18523809Y-30854819D02*
X18523809Y-29854819D01*
X18523809Y-29854819D02*
X18428571Y-29997676D01*
X18428571Y-29997676D02*
X18333333Y-30092914D01*
X18333333Y-30092914D02*
X18238095Y-30140533D01*
X27240669Y-10073862D02*
X26764479Y-10073862D01*
X26764479Y-10073862D02*
X26764479Y-9073862D01*
X27526384Y-9169100D02*
X27574003Y-9121481D01*
X27574003Y-9121481D02*
X27669241Y-9073862D01*
X27669241Y-9073862D02*
X27907336Y-9073862D01*
X27907336Y-9073862D02*
X28002574Y-9121481D01*
X28002574Y-9121481D02*
X28050193Y-9169100D01*
X28050193Y-9169100D02*
X28097812Y-9264338D01*
X28097812Y-9264338D02*
X28097812Y-9359576D01*
X28097812Y-9359576D02*
X28050193Y-9502433D01*
X28050193Y-9502433D02*
X27478765Y-10073862D01*
X27478765Y-10073862D02*
X28097812Y-10073862D01*
X18230250Y-42943294D02*
X18182631Y-42990914D01*
X18182631Y-42990914D02*
X18039774Y-43038533D01*
X18039774Y-43038533D02*
X17944536Y-43038533D01*
X17944536Y-43038533D02*
X17801679Y-42990914D01*
X17801679Y-42990914D02*
X17706441Y-42895675D01*
X17706441Y-42895675D02*
X17658822Y-42800437D01*
X17658822Y-42800437D02*
X17611203Y-42609961D01*
X17611203Y-42609961D02*
X17611203Y-42467104D01*
X17611203Y-42467104D02*
X17658822Y-42276628D01*
X17658822Y-42276628D02*
X17706441Y-42181390D01*
X17706441Y-42181390D02*
X17801679Y-42086152D01*
X17801679Y-42086152D02*
X17944536Y-42038533D01*
X17944536Y-42038533D02*
X18039774Y-42038533D01*
X18039774Y-42038533D02*
X18182631Y-42086152D01*
X18182631Y-42086152D02*
X18230250Y-42133771D01*
X18563584Y-42038533D02*
X19182631Y-42038533D01*
X19182631Y-42038533D02*
X18849298Y-42419485D01*
X18849298Y-42419485D02*
X18992155Y-42419485D01*
X18992155Y-42419485D02*
X19087393Y-42467104D01*
X19087393Y-42467104D02*
X19135012Y-42514723D01*
X19135012Y-42514723D02*
X19182631Y-42609961D01*
X19182631Y-42609961D02*
X19182631Y-42848056D01*
X19182631Y-42848056D02*
X19135012Y-42943294D01*
X19135012Y-42943294D02*
X19087393Y-42990914D01*
X19087393Y-42990914D02*
X18992155Y-43038533D01*
X18992155Y-43038533D02*
X18706441Y-43038533D01*
X18706441Y-43038533D02*
X18611203Y-42990914D01*
X18611203Y-42990914D02*
X18563584Y-42943294D01*
X19515965Y-42038533D02*
X20182631Y-42038533D01*
X20182631Y-42038533D02*
X19754060Y-43038533D01*
X24551974Y-33456518D02*
X24504355Y-33504138D01*
X24504355Y-33504138D02*
X24361498Y-33551757D01*
X24361498Y-33551757D02*
X24266260Y-33551757D01*
X24266260Y-33551757D02*
X24123403Y-33504138D01*
X24123403Y-33504138D02*
X24028165Y-33408899D01*
X24028165Y-33408899D02*
X23980546Y-33313661D01*
X23980546Y-33313661D02*
X23932927Y-33123185D01*
X23932927Y-33123185D02*
X23932927Y-32980328D01*
X23932927Y-32980328D02*
X23980546Y-32789852D01*
X23980546Y-32789852D02*
X24028165Y-32694614D01*
X24028165Y-32694614D02*
X24123403Y-32599376D01*
X24123403Y-32599376D02*
X24266260Y-32551757D01*
X24266260Y-32551757D02*
X24361498Y-32551757D01*
X24361498Y-32551757D02*
X24504355Y-32599376D01*
X24504355Y-32599376D02*
X24551974Y-32646995D01*
X25409117Y-32885090D02*
X25409117Y-33551757D01*
X25171022Y-32504138D02*
X24932927Y-33218423D01*
X24932927Y-33218423D02*
X25551974Y-33218423D01*
X26456736Y-33551757D02*
X25885308Y-33551757D01*
X26171022Y-33551757D02*
X26171022Y-32551757D01*
X26171022Y-32551757D02*
X26075784Y-32694614D01*
X26075784Y-32694614D02*
X25980546Y-32789852D01*
X25980546Y-32789852D02*
X25885308Y-32837471D01*
X13882525Y-49551026D02*
X13834906Y-49598646D01*
X13834906Y-49598646D02*
X13692049Y-49646265D01*
X13692049Y-49646265D02*
X13596811Y-49646265D01*
X13596811Y-49646265D02*
X13453954Y-49598646D01*
X13453954Y-49598646D02*
X13358716Y-49503407D01*
X13358716Y-49503407D02*
X13311097Y-49408169D01*
X13311097Y-49408169D02*
X13263478Y-49217693D01*
X13263478Y-49217693D02*
X13263478Y-49074836D01*
X13263478Y-49074836D02*
X13311097Y-48884360D01*
X13311097Y-48884360D02*
X13358716Y-48789122D01*
X13358716Y-48789122D02*
X13453954Y-48693884D01*
X13453954Y-48693884D02*
X13596811Y-48646265D01*
X13596811Y-48646265D02*
X13692049Y-48646265D01*
X13692049Y-48646265D02*
X13834906Y-48693884D01*
X13834906Y-48693884D02*
X13882525Y-48741503D01*
X14215859Y-48646265D02*
X14834906Y-48646265D01*
X14834906Y-48646265D02*
X14501573Y-49027217D01*
X14501573Y-49027217D02*
X14644430Y-49027217D01*
X14644430Y-49027217D02*
X14739668Y-49074836D01*
X14739668Y-49074836D02*
X14787287Y-49122455D01*
X14787287Y-49122455D02*
X14834906Y-49217693D01*
X14834906Y-49217693D02*
X14834906Y-49455788D01*
X14834906Y-49455788D02*
X14787287Y-49551026D01*
X14787287Y-49551026D02*
X14739668Y-49598646D01*
X14739668Y-49598646D02*
X14644430Y-49646265D01*
X14644430Y-49646265D02*
X14358716Y-49646265D01*
X14358716Y-49646265D02*
X14263478Y-49598646D01*
X14263478Y-49598646D02*
X14215859Y-49551026D01*
X15692049Y-48646265D02*
X15501573Y-48646265D01*
X15501573Y-48646265D02*
X15406335Y-48693884D01*
X15406335Y-48693884D02*
X15358716Y-48741503D01*
X15358716Y-48741503D02*
X15263478Y-48884360D01*
X15263478Y-48884360D02*
X15215859Y-49074836D01*
X15215859Y-49074836D02*
X15215859Y-49455788D01*
X15215859Y-49455788D02*
X15263478Y-49551026D01*
X15263478Y-49551026D02*
X15311097Y-49598646D01*
X15311097Y-49598646D02*
X15406335Y-49646265D01*
X15406335Y-49646265D02*
X15596811Y-49646265D01*
X15596811Y-49646265D02*
X15692049Y-49598646D01*
X15692049Y-49598646D02*
X15739668Y-49551026D01*
X15739668Y-49551026D02*
X15787287Y-49455788D01*
X15787287Y-49455788D02*
X15787287Y-49217693D01*
X15787287Y-49217693D02*
X15739668Y-49122455D01*
X15739668Y-49122455D02*
X15692049Y-49074836D01*
X15692049Y-49074836D02*
X15596811Y-49027217D01*
X15596811Y-49027217D02*
X15406335Y-49027217D01*
X15406335Y-49027217D02*
X15311097Y-49074836D01*
X15311097Y-49074836D02*
X15263478Y-49122455D01*
X15263478Y-49122455D02*
X15215859Y-49217693D01*
X15095886Y-42929864D02*
X15048267Y-42977484D01*
X15048267Y-42977484D02*
X14905410Y-43025103D01*
X14905410Y-43025103D02*
X14810172Y-43025103D01*
X14810172Y-43025103D02*
X14667315Y-42977484D01*
X14667315Y-42977484D02*
X14572077Y-42882245D01*
X14572077Y-42882245D02*
X14524458Y-42787007D01*
X14524458Y-42787007D02*
X14476839Y-42596531D01*
X14476839Y-42596531D02*
X14476839Y-42453674D01*
X14476839Y-42453674D02*
X14524458Y-42263198D01*
X14524458Y-42263198D02*
X14572077Y-42167960D01*
X14572077Y-42167960D02*
X14667315Y-42072722D01*
X14667315Y-42072722D02*
X14810172Y-42025103D01*
X14810172Y-42025103D02*
X14905410Y-42025103D01*
X14905410Y-42025103D02*
X15048267Y-42072722D01*
X15048267Y-42072722D02*
X15095886Y-42120341D01*
X15953029Y-42358436D02*
X15953029Y-43025103D01*
X15714934Y-41977484D02*
X15476839Y-42691769D01*
X15476839Y-42691769D02*
X16095886Y-42691769D01*
X16429220Y-42120341D02*
X16476839Y-42072722D01*
X16476839Y-42072722D02*
X16572077Y-42025103D01*
X16572077Y-42025103D02*
X16810172Y-42025103D01*
X16810172Y-42025103D02*
X16905410Y-42072722D01*
X16905410Y-42072722D02*
X16953029Y-42120341D01*
X16953029Y-42120341D02*
X17000648Y-42215579D01*
X17000648Y-42215579D02*
X17000648Y-42310817D01*
X17000648Y-42310817D02*
X16953029Y-42453674D01*
X16953029Y-42453674D02*
X16381601Y-43025103D01*
X16381601Y-43025103D02*
X17000648Y-43025103D01*
X5880952Y-20454819D02*
X5404762Y-20454819D01*
X5404762Y-20454819D02*
X5404762Y-19454819D01*
X6214286Y-19931009D02*
X6547619Y-19931009D01*
X6690476Y-20454819D02*
X6214286Y-20454819D01*
X6214286Y-20454819D02*
X6214286Y-19454819D01*
X6214286Y-19454819D02*
X6690476Y-19454819D01*
X7119048Y-20454819D02*
X7119048Y-19454819D01*
X7119048Y-19454819D02*
X7357143Y-19454819D01*
X7357143Y-19454819D02*
X7500000Y-19502438D01*
X7500000Y-19502438D02*
X7595238Y-19597676D01*
X7595238Y-19597676D02*
X7642857Y-19692914D01*
X7642857Y-19692914D02*
X7690476Y-19883390D01*
X7690476Y-19883390D02*
X7690476Y-20026247D01*
X7690476Y-20026247D02*
X7642857Y-20216723D01*
X7642857Y-20216723D02*
X7595238Y-20311961D01*
X7595238Y-20311961D02*
X7500000Y-20407200D01*
X7500000Y-20407200D02*
X7357143Y-20454819D01*
X7357143Y-20454819D02*
X7119048Y-20454819D01*
X8642857Y-20454819D02*
X8071429Y-20454819D01*
X8357143Y-20454819D02*
X8357143Y-19454819D01*
X8357143Y-19454819D02*
X8261905Y-19597676D01*
X8261905Y-19597676D02*
X8166667Y-19692914D01*
X8166667Y-19692914D02*
X8071429Y-19740533D01*
X23737768Y-27324483D02*
X23404435Y-26848292D01*
X23166340Y-27324483D02*
X23166340Y-26324483D01*
X23166340Y-26324483D02*
X23547292Y-26324483D01*
X23547292Y-26324483D02*
X23642530Y-26372102D01*
X23642530Y-26372102D02*
X23690149Y-26419721D01*
X23690149Y-26419721D02*
X23737768Y-26514959D01*
X23737768Y-26514959D02*
X23737768Y-26657816D01*
X23737768Y-26657816D02*
X23690149Y-26753054D01*
X23690149Y-26753054D02*
X23642530Y-26800673D01*
X23642530Y-26800673D02*
X23547292Y-26848292D01*
X23547292Y-26848292D02*
X23166340Y-26848292D01*
X24690149Y-27324483D02*
X24118721Y-27324483D01*
X24404435Y-27324483D02*
X24404435Y-26324483D01*
X24404435Y-26324483D02*
X24309197Y-26467340D01*
X24309197Y-26467340D02*
X24213959Y-26562578D01*
X24213959Y-26562578D02*
X24118721Y-26610197D01*
X25547292Y-26324483D02*
X25356816Y-26324483D01*
X25356816Y-26324483D02*
X25261578Y-26372102D01*
X25261578Y-26372102D02*
X25213959Y-26419721D01*
X25213959Y-26419721D02*
X25118721Y-26562578D01*
X25118721Y-26562578D02*
X25071102Y-26753054D01*
X25071102Y-26753054D02*
X25071102Y-27134006D01*
X25071102Y-27134006D02*
X25118721Y-27229244D01*
X25118721Y-27229244D02*
X25166340Y-27276864D01*
X25166340Y-27276864D02*
X25261578Y-27324483D01*
X25261578Y-27324483D02*
X25452054Y-27324483D01*
X25452054Y-27324483D02*
X25547292Y-27276864D01*
X25547292Y-27276864D02*
X25594911Y-27229244D01*
X25594911Y-27229244D02*
X25642530Y-27134006D01*
X25642530Y-27134006D02*
X25642530Y-26895911D01*
X25642530Y-26895911D02*
X25594911Y-26800673D01*
X25594911Y-26800673D02*
X25547292Y-26753054D01*
X25547292Y-26753054D02*
X25452054Y-26705435D01*
X25452054Y-26705435D02*
X25261578Y-26705435D01*
X25261578Y-26705435D02*
X25166340Y-26753054D01*
X25166340Y-26753054D02*
X25118721Y-26800673D01*
X25118721Y-26800673D02*
X25071102Y-26895911D01*
X29523809Y-30528628D02*
X29523809Y-31004819D01*
X29190476Y-30004819D02*
X29523809Y-30528628D01*
X29523809Y-30528628D02*
X29857142Y-30004819D01*
X30714285Y-31004819D02*
X30142857Y-31004819D01*
X30428571Y-31004819D02*
X30428571Y-30004819D01*
X30428571Y-30004819D02*
X30333333Y-30147676D01*
X30333333Y-30147676D02*
X30238095Y-30242914D01*
X30238095Y-30242914D02*
X30142857Y-30290533D01*
X30560237Y-23237594D02*
X30560237Y-22237594D01*
X30560237Y-22237594D02*
X30798332Y-22237594D01*
X30798332Y-22237594D02*
X30941189Y-22285213D01*
X30941189Y-22285213D02*
X31036427Y-22380451D01*
X31036427Y-22380451D02*
X31084046Y-22475689D01*
X31084046Y-22475689D02*
X31131665Y-22666165D01*
X31131665Y-22666165D02*
X31131665Y-22809022D01*
X31131665Y-22809022D02*
X31084046Y-22999498D01*
X31084046Y-22999498D02*
X31036427Y-23094736D01*
X31036427Y-23094736D02*
X30941189Y-23189975D01*
X30941189Y-23189975D02*
X30798332Y-23237594D01*
X30798332Y-23237594D02*
X30560237Y-23237594D01*
X31464999Y-22237594D02*
X32084046Y-22237594D01*
X32084046Y-22237594D02*
X31750713Y-22618546D01*
X31750713Y-22618546D02*
X31893570Y-22618546D01*
X31893570Y-22618546D02*
X31988808Y-22666165D01*
X31988808Y-22666165D02*
X32036427Y-22713784D01*
X32036427Y-22713784D02*
X32084046Y-22809022D01*
X32084046Y-22809022D02*
X32084046Y-23047117D01*
X32084046Y-23047117D02*
X32036427Y-23142355D01*
X32036427Y-23142355D02*
X31988808Y-23189975D01*
X31988808Y-23189975D02*
X31893570Y-23237594D01*
X31893570Y-23237594D02*
X31607856Y-23237594D01*
X31607856Y-23237594D02*
X31512618Y-23189975D01*
X31512618Y-23189975D02*
X31464999Y-23142355D01*
X26957142Y-63284819D02*
X26623809Y-62808628D01*
X26385714Y-63284819D02*
X26385714Y-62284819D01*
X26385714Y-62284819D02*
X26766666Y-62284819D01*
X26766666Y-62284819D02*
X26861904Y-62332438D01*
X26861904Y-62332438D02*
X26909523Y-62380057D01*
X26909523Y-62380057D02*
X26957142Y-62475295D01*
X26957142Y-62475295D02*
X26957142Y-62618152D01*
X26957142Y-62618152D02*
X26909523Y-62713390D01*
X26909523Y-62713390D02*
X26861904Y-62761009D01*
X26861904Y-62761009D02*
X26766666Y-62808628D01*
X26766666Y-62808628D02*
X26385714Y-62808628D01*
X27338095Y-62380057D02*
X27385714Y-62332438D01*
X27385714Y-62332438D02*
X27480952Y-62284819D01*
X27480952Y-62284819D02*
X27719047Y-62284819D01*
X27719047Y-62284819D02*
X27814285Y-62332438D01*
X27814285Y-62332438D02*
X27861904Y-62380057D01*
X27861904Y-62380057D02*
X27909523Y-62475295D01*
X27909523Y-62475295D02*
X27909523Y-62570533D01*
X27909523Y-62570533D02*
X27861904Y-62713390D01*
X27861904Y-62713390D02*
X27290476Y-63284819D01*
X27290476Y-63284819D02*
X27909523Y-63284819D01*
X28861904Y-63284819D02*
X28290476Y-63284819D01*
X28576190Y-63284819D02*
X28576190Y-62284819D01*
X28576190Y-62284819D02*
X28480952Y-62427676D01*
X28480952Y-62427676D02*
X28385714Y-62522914D01*
X28385714Y-62522914D02*
X28290476Y-62570533D01*
X-2690180Y-28333333D02*
X-1975895Y-28333333D01*
X-1975895Y-28333333D02*
X-1833038Y-28380952D01*
X-1833038Y-28380952D02*
X-1737800Y-28476190D01*
X-1737800Y-28476190D02*
X-1690180Y-28619047D01*
X-1690180Y-28619047D02*
X-1690180Y-28714285D01*
X-2594942Y-27904761D02*
X-2642561Y-27857142D01*
X-2642561Y-27857142D02*
X-2690180Y-27761904D01*
X-2690180Y-27761904D02*
X-2690180Y-27523809D01*
X-2690180Y-27523809D02*
X-2642561Y-27428571D01*
X-2642561Y-27428571D02*
X-2594942Y-27380952D01*
X-2594942Y-27380952D02*
X-2499704Y-27333333D01*
X-2499704Y-27333333D02*
X-2404466Y-27333333D01*
X-2404466Y-27333333D02*
X-2261609Y-27380952D01*
X-2261609Y-27380952D02*
X-1690180Y-27952380D01*
X-1690180Y-27952380D02*
X-1690180Y-27333333D01*
X22238095Y-54054819D02*
X22238095Y-54864342D01*
X22238095Y-54864342D02*
X22285714Y-54959580D01*
X22285714Y-54959580D02*
X22333333Y-55007200D01*
X22333333Y-55007200D02*
X22428571Y-55054819D01*
X22428571Y-55054819D02*
X22619047Y-55054819D01*
X22619047Y-55054819D02*
X22714285Y-55007200D01*
X22714285Y-55007200D02*
X22761904Y-54959580D01*
X22761904Y-54959580D02*
X22809523Y-54864342D01*
X22809523Y-54864342D02*
X22809523Y-54054819D01*
X23761904Y-54054819D02*
X23285714Y-54054819D01*
X23285714Y-54054819D02*
X23238095Y-54531009D01*
X23238095Y-54531009D02*
X23285714Y-54483390D01*
X23285714Y-54483390D02*
X23380952Y-54435771D01*
X23380952Y-54435771D02*
X23619047Y-54435771D01*
X23619047Y-54435771D02*
X23714285Y-54483390D01*
X23714285Y-54483390D02*
X23761904Y-54531009D01*
X23761904Y-54531009D02*
X23809523Y-54626247D01*
X23809523Y-54626247D02*
X23809523Y-54864342D01*
X23809523Y-54864342D02*
X23761904Y-54959580D01*
X23761904Y-54959580D02*
X23714285Y-55007200D01*
X23714285Y-55007200D02*
X23619047Y-55054819D01*
X23619047Y-55054819D02*
X23380952Y-55054819D01*
X23380952Y-55054819D02*
X23285714Y-55007200D01*
X23285714Y-55007200D02*
X23238095Y-54959580D01*
X23358260Y-46211881D02*
X23024927Y-45735690D01*
X22786832Y-46211881D02*
X22786832Y-45211881D01*
X22786832Y-45211881D02*
X23167784Y-45211881D01*
X23167784Y-45211881D02*
X23263022Y-45259500D01*
X23263022Y-45259500D02*
X23310641Y-45307119D01*
X23310641Y-45307119D02*
X23358260Y-45402357D01*
X23358260Y-45402357D02*
X23358260Y-45545214D01*
X23358260Y-45545214D02*
X23310641Y-45640452D01*
X23310641Y-45640452D02*
X23263022Y-45688071D01*
X23263022Y-45688071D02*
X23167784Y-45735690D01*
X23167784Y-45735690D02*
X22786832Y-45735690D01*
X24310641Y-46211881D02*
X23739213Y-46211881D01*
X24024927Y-46211881D02*
X24024927Y-45211881D01*
X24024927Y-45211881D02*
X23929689Y-45354738D01*
X23929689Y-45354738D02*
X23834451Y-45449976D01*
X23834451Y-45449976D02*
X23739213Y-45497595D01*
X24786832Y-46211881D02*
X24977308Y-46211881D01*
X24977308Y-46211881D02*
X25072546Y-46164262D01*
X25072546Y-46164262D02*
X25120165Y-46116642D01*
X25120165Y-46116642D02*
X25215403Y-45973785D01*
X25215403Y-45973785D02*
X25263022Y-45783309D01*
X25263022Y-45783309D02*
X25263022Y-45402357D01*
X25263022Y-45402357D02*
X25215403Y-45307119D01*
X25215403Y-45307119D02*
X25167784Y-45259500D01*
X25167784Y-45259500D02*
X25072546Y-45211881D01*
X25072546Y-45211881D02*
X24882070Y-45211881D01*
X24882070Y-45211881D02*
X24786832Y-45259500D01*
X24786832Y-45259500D02*
X24739213Y-45307119D01*
X24739213Y-45307119D02*
X24691594Y-45402357D01*
X24691594Y-45402357D02*
X24691594Y-45640452D01*
X24691594Y-45640452D02*
X24739213Y-45735690D01*
X24739213Y-45735690D02*
X24786832Y-45783309D01*
X24786832Y-45783309D02*
X24882070Y-45830928D01*
X24882070Y-45830928D02*
X25072546Y-45830928D01*
X25072546Y-45830928D02*
X25167784Y-45783309D01*
X25167784Y-45783309D02*
X25215403Y-45735690D01*
X25215403Y-45735690D02*
X25263022Y-45640452D01*
X3666666Y-8124819D02*
X3666666Y-8839104D01*
X3666666Y-8839104D02*
X3619047Y-8981961D01*
X3619047Y-8981961D02*
X3523809Y-9077200D01*
X3523809Y-9077200D02*
X3380952Y-9124819D01*
X3380952Y-9124819D02*
X3285714Y-9124819D01*
X4285714Y-8553390D02*
X4190476Y-8505771D01*
X4190476Y-8505771D02*
X4142857Y-8458152D01*
X4142857Y-8458152D02*
X4095238Y-8362914D01*
X4095238Y-8362914D02*
X4095238Y-8315295D01*
X4095238Y-8315295D02*
X4142857Y-8220057D01*
X4142857Y-8220057D02*
X4190476Y-8172438D01*
X4190476Y-8172438D02*
X4285714Y-8124819D01*
X4285714Y-8124819D02*
X4476190Y-8124819D01*
X4476190Y-8124819D02*
X4571428Y-8172438D01*
X4571428Y-8172438D02*
X4619047Y-8220057D01*
X4619047Y-8220057D02*
X4666666Y-8315295D01*
X4666666Y-8315295D02*
X4666666Y-8362914D01*
X4666666Y-8362914D02*
X4619047Y-8458152D01*
X4619047Y-8458152D02*
X4571428Y-8505771D01*
X4571428Y-8505771D02*
X4476190Y-8553390D01*
X4476190Y-8553390D02*
X4285714Y-8553390D01*
X4285714Y-8553390D02*
X4190476Y-8601009D01*
X4190476Y-8601009D02*
X4142857Y-8648628D01*
X4142857Y-8648628D02*
X4095238Y-8743866D01*
X4095238Y-8743866D02*
X4095238Y-8934342D01*
X4095238Y-8934342D02*
X4142857Y-9029580D01*
X4142857Y-9029580D02*
X4190476Y-9077200D01*
X4190476Y-9077200D02*
X4285714Y-9124819D01*
X4285714Y-9124819D02*
X4476190Y-9124819D01*
X4476190Y-9124819D02*
X4571428Y-9077200D01*
X4571428Y-9077200D02*
X4619047Y-9029580D01*
X4619047Y-9029580D02*
X4666666Y-8934342D01*
X4666666Y-8934342D02*
X4666666Y-8743866D01*
X4666666Y-8743866D02*
X4619047Y-8648628D01*
X4619047Y-8648628D02*
X4571428Y-8601009D01*
X4571428Y-8601009D02*
X4476190Y-8553390D01*
X13482713Y-53501029D02*
X13149380Y-53024838D01*
X12911285Y-53501029D02*
X12911285Y-52501029D01*
X12911285Y-52501029D02*
X13292237Y-52501029D01*
X13292237Y-52501029D02*
X13387475Y-52548648D01*
X13387475Y-52548648D02*
X13435094Y-52596267D01*
X13435094Y-52596267D02*
X13482713Y-52691505D01*
X13482713Y-52691505D02*
X13482713Y-52834362D01*
X13482713Y-52834362D02*
X13435094Y-52929600D01*
X13435094Y-52929600D02*
X13387475Y-52977219D01*
X13387475Y-52977219D02*
X13292237Y-53024838D01*
X13292237Y-53024838D02*
X12911285Y-53024838D01*
X13816047Y-52501029D02*
X14435094Y-52501029D01*
X14435094Y-52501029D02*
X14101761Y-52881981D01*
X14101761Y-52881981D02*
X14244618Y-52881981D01*
X14244618Y-52881981D02*
X14339856Y-52929600D01*
X14339856Y-52929600D02*
X14387475Y-52977219D01*
X14387475Y-52977219D02*
X14435094Y-53072457D01*
X14435094Y-53072457D02*
X14435094Y-53310552D01*
X14435094Y-53310552D02*
X14387475Y-53405790D01*
X14387475Y-53405790D02*
X14339856Y-53453410D01*
X14339856Y-53453410D02*
X14244618Y-53501029D01*
X14244618Y-53501029D02*
X13958904Y-53501029D01*
X13958904Y-53501029D02*
X13863666Y-53453410D01*
X13863666Y-53453410D02*
X13816047Y-53405790D01*
X16977185Y-52412708D02*
X16929566Y-52460328D01*
X16929566Y-52460328D02*
X16786709Y-52507947D01*
X16786709Y-52507947D02*
X16691471Y-52507947D01*
X16691471Y-52507947D02*
X16548614Y-52460328D01*
X16548614Y-52460328D02*
X16453376Y-52365089D01*
X16453376Y-52365089D02*
X16405757Y-52269851D01*
X16405757Y-52269851D02*
X16358138Y-52079375D01*
X16358138Y-52079375D02*
X16358138Y-51936518D01*
X16358138Y-51936518D02*
X16405757Y-51746042D01*
X16405757Y-51746042D02*
X16453376Y-51650804D01*
X16453376Y-51650804D02*
X16548614Y-51555566D01*
X16548614Y-51555566D02*
X16691471Y-51507947D01*
X16691471Y-51507947D02*
X16786709Y-51507947D01*
X16786709Y-51507947D02*
X16929566Y-51555566D01*
X16929566Y-51555566D02*
X16977185Y-51603185D01*
X17929566Y-52507947D02*
X17358138Y-52507947D01*
X17643852Y-52507947D02*
X17643852Y-51507947D01*
X17643852Y-51507947D02*
X17548614Y-51650804D01*
X17548614Y-51650804D02*
X17453376Y-51746042D01*
X17453376Y-51746042D02*
X17358138Y-51793661D01*
X22696619Y-51602634D02*
X22696619Y-50602634D01*
X22696619Y-50602634D02*
X22934714Y-50602634D01*
X22934714Y-50602634D02*
X23077571Y-50650253D01*
X23077571Y-50650253D02*
X23172809Y-50745491D01*
X23172809Y-50745491D02*
X23220428Y-50840729D01*
X23220428Y-50840729D02*
X23268047Y-51031205D01*
X23268047Y-51031205D02*
X23268047Y-51174062D01*
X23268047Y-51174062D02*
X23220428Y-51364538D01*
X23220428Y-51364538D02*
X23172809Y-51459776D01*
X23172809Y-51459776D02*
X23077571Y-51555015D01*
X23077571Y-51555015D02*
X22934714Y-51602634D01*
X22934714Y-51602634D02*
X22696619Y-51602634D01*
X24125190Y-50935967D02*
X24125190Y-51602634D01*
X23887095Y-50555015D02*
X23649000Y-51269300D01*
X23649000Y-51269300D02*
X24268047Y-51269300D01*
X20781890Y-27017472D02*
X20734271Y-27065092D01*
X20734271Y-27065092D02*
X20591414Y-27112711D01*
X20591414Y-27112711D02*
X20496176Y-27112711D01*
X20496176Y-27112711D02*
X20353319Y-27065092D01*
X20353319Y-27065092D02*
X20258081Y-26969853D01*
X20258081Y-26969853D02*
X20210462Y-26874615D01*
X20210462Y-26874615D02*
X20162843Y-26684139D01*
X20162843Y-26684139D02*
X20162843Y-26541282D01*
X20162843Y-26541282D02*
X20210462Y-26350806D01*
X20210462Y-26350806D02*
X20258081Y-26255568D01*
X20258081Y-26255568D02*
X20353319Y-26160330D01*
X20353319Y-26160330D02*
X20496176Y-26112711D01*
X20496176Y-26112711D02*
X20591414Y-26112711D01*
X20591414Y-26112711D02*
X20734271Y-26160330D01*
X20734271Y-26160330D02*
X20781890Y-26207949D01*
X21162843Y-26207949D02*
X21210462Y-26160330D01*
X21210462Y-26160330D02*
X21305700Y-26112711D01*
X21305700Y-26112711D02*
X21543795Y-26112711D01*
X21543795Y-26112711D02*
X21639033Y-26160330D01*
X21639033Y-26160330D02*
X21686652Y-26207949D01*
X21686652Y-26207949D02*
X21734271Y-26303187D01*
X21734271Y-26303187D02*
X21734271Y-26398425D01*
X21734271Y-26398425D02*
X21686652Y-26541282D01*
X21686652Y-26541282D02*
X21115224Y-27112711D01*
X21115224Y-27112711D02*
X21734271Y-27112711D01*
X22639033Y-26112711D02*
X22162843Y-26112711D01*
X22162843Y-26112711D02*
X22115224Y-26588901D01*
X22115224Y-26588901D02*
X22162843Y-26541282D01*
X22162843Y-26541282D02*
X22258081Y-26493663D01*
X22258081Y-26493663D02*
X22496176Y-26493663D01*
X22496176Y-26493663D02*
X22591414Y-26541282D01*
X22591414Y-26541282D02*
X22639033Y-26588901D01*
X22639033Y-26588901D02*
X22686652Y-26684139D01*
X22686652Y-26684139D02*
X22686652Y-26922234D01*
X22686652Y-26922234D02*
X22639033Y-27017472D01*
X22639033Y-27017472D02*
X22591414Y-27065092D01*
X22591414Y-27065092D02*
X22496176Y-27112711D01*
X22496176Y-27112711D02*
X22258081Y-27112711D01*
X22258081Y-27112711D02*
X22162843Y-27065092D01*
X22162843Y-27065092D02*
X22115224Y-27017472D01*
X27757142Y-36284819D02*
X27423809Y-35808628D01*
X27185714Y-36284819D02*
X27185714Y-35284819D01*
X27185714Y-35284819D02*
X27566666Y-35284819D01*
X27566666Y-35284819D02*
X27661904Y-35332438D01*
X27661904Y-35332438D02*
X27709523Y-35380057D01*
X27709523Y-35380057D02*
X27757142Y-35475295D01*
X27757142Y-35475295D02*
X27757142Y-35618152D01*
X27757142Y-35618152D02*
X27709523Y-35713390D01*
X27709523Y-35713390D02*
X27661904Y-35761009D01*
X27661904Y-35761009D02*
X27566666Y-35808628D01*
X27566666Y-35808628D02*
X27185714Y-35808628D01*
X28090476Y-35284819D02*
X28709523Y-35284819D01*
X28709523Y-35284819D02*
X28376190Y-35665771D01*
X28376190Y-35665771D02*
X28519047Y-35665771D01*
X28519047Y-35665771D02*
X28614285Y-35713390D01*
X28614285Y-35713390D02*
X28661904Y-35761009D01*
X28661904Y-35761009D02*
X28709523Y-35856247D01*
X28709523Y-35856247D02*
X28709523Y-36094342D01*
X28709523Y-36094342D02*
X28661904Y-36189580D01*
X28661904Y-36189580D02*
X28614285Y-36237200D01*
X28614285Y-36237200D02*
X28519047Y-36284819D01*
X28519047Y-36284819D02*
X28233333Y-36284819D01*
X28233333Y-36284819D02*
X28138095Y-36237200D01*
X28138095Y-36237200D02*
X28090476Y-36189580D01*
X29328571Y-35284819D02*
X29423809Y-35284819D01*
X29423809Y-35284819D02*
X29519047Y-35332438D01*
X29519047Y-35332438D02*
X29566666Y-35380057D01*
X29566666Y-35380057D02*
X29614285Y-35475295D01*
X29614285Y-35475295D02*
X29661904Y-35665771D01*
X29661904Y-35665771D02*
X29661904Y-35903866D01*
X29661904Y-35903866D02*
X29614285Y-36094342D01*
X29614285Y-36094342D02*
X29566666Y-36189580D01*
X29566666Y-36189580D02*
X29519047Y-36237200D01*
X29519047Y-36237200D02*
X29423809Y-36284819D01*
X29423809Y-36284819D02*
X29328571Y-36284819D01*
X29328571Y-36284819D02*
X29233333Y-36237200D01*
X29233333Y-36237200D02*
X29185714Y-36189580D01*
X29185714Y-36189580D02*
X29138095Y-36094342D01*
X29138095Y-36094342D02*
X29090476Y-35903866D01*
X29090476Y-35903866D02*
X29090476Y-35665771D01*
X29090476Y-35665771D02*
X29138095Y-35475295D01*
X29138095Y-35475295D02*
X29185714Y-35380057D01*
X29185714Y-35380057D02*
X29233333Y-35332438D01*
X29233333Y-35332438D02*
X29328571Y-35284819D01*
X9280079Y-41200685D02*
X9232460Y-41248305D01*
X9232460Y-41248305D02*
X9089603Y-41295924D01*
X9089603Y-41295924D02*
X8994365Y-41295924D01*
X8994365Y-41295924D02*
X8851508Y-41248305D01*
X8851508Y-41248305D02*
X8756270Y-41153066D01*
X8756270Y-41153066D02*
X8708651Y-41057828D01*
X8708651Y-41057828D02*
X8661032Y-40867352D01*
X8661032Y-40867352D02*
X8661032Y-40724495D01*
X8661032Y-40724495D02*
X8708651Y-40534019D01*
X8708651Y-40534019D02*
X8756270Y-40438781D01*
X8756270Y-40438781D02*
X8851508Y-40343543D01*
X8851508Y-40343543D02*
X8994365Y-40295924D01*
X8994365Y-40295924D02*
X9089603Y-40295924D01*
X9089603Y-40295924D02*
X9232460Y-40343543D01*
X9232460Y-40343543D02*
X9280079Y-40391162D01*
X9661032Y-40391162D02*
X9708651Y-40343543D01*
X9708651Y-40343543D02*
X9803889Y-40295924D01*
X9803889Y-40295924D02*
X10041984Y-40295924D01*
X10041984Y-40295924D02*
X10137222Y-40343543D01*
X10137222Y-40343543D02*
X10184841Y-40391162D01*
X10184841Y-40391162D02*
X10232460Y-40486400D01*
X10232460Y-40486400D02*
X10232460Y-40581638D01*
X10232460Y-40581638D02*
X10184841Y-40724495D01*
X10184841Y-40724495D02*
X9613413Y-41295924D01*
X9613413Y-41295924D02*
X10232460Y-41295924D01*
X10565794Y-40295924D02*
X11184841Y-40295924D01*
X11184841Y-40295924D02*
X10851508Y-40676876D01*
X10851508Y-40676876D02*
X10994365Y-40676876D01*
X10994365Y-40676876D02*
X11089603Y-40724495D01*
X11089603Y-40724495D02*
X11137222Y-40772114D01*
X11137222Y-40772114D02*
X11184841Y-40867352D01*
X11184841Y-40867352D02*
X11184841Y-41105447D01*
X11184841Y-41105447D02*
X11137222Y-41200685D01*
X11137222Y-41200685D02*
X11089603Y-41248305D01*
X11089603Y-41248305D02*
X10994365Y-41295924D01*
X10994365Y-41295924D02*
X10708651Y-41295924D01*
X10708651Y-41295924D02*
X10613413Y-41248305D01*
X10613413Y-41248305D02*
X10565794Y-41200685D01*
X32833333Y-36984819D02*
X32500000Y-36508628D01*
X32261905Y-36984819D02*
X32261905Y-35984819D01*
X32261905Y-35984819D02*
X32642857Y-35984819D01*
X32642857Y-35984819D02*
X32738095Y-36032438D01*
X32738095Y-36032438D02*
X32785714Y-36080057D01*
X32785714Y-36080057D02*
X32833333Y-36175295D01*
X32833333Y-36175295D02*
X32833333Y-36318152D01*
X32833333Y-36318152D02*
X32785714Y-36413390D01*
X32785714Y-36413390D02*
X32738095Y-36461009D01*
X32738095Y-36461009D02*
X32642857Y-36508628D01*
X32642857Y-36508628D02*
X32261905Y-36508628D01*
X33309524Y-36984819D02*
X33500000Y-36984819D01*
X33500000Y-36984819D02*
X33595238Y-36937200D01*
X33595238Y-36937200D02*
X33642857Y-36889580D01*
X33642857Y-36889580D02*
X33738095Y-36746723D01*
X33738095Y-36746723D02*
X33785714Y-36556247D01*
X33785714Y-36556247D02*
X33785714Y-36175295D01*
X33785714Y-36175295D02*
X33738095Y-36080057D01*
X33738095Y-36080057D02*
X33690476Y-36032438D01*
X33690476Y-36032438D02*
X33595238Y-35984819D01*
X33595238Y-35984819D02*
X33404762Y-35984819D01*
X33404762Y-35984819D02*
X33309524Y-36032438D01*
X33309524Y-36032438D02*
X33261905Y-36080057D01*
X33261905Y-36080057D02*
X33214286Y-36175295D01*
X33214286Y-36175295D02*
X33214286Y-36413390D01*
X33214286Y-36413390D02*
X33261905Y-36508628D01*
X33261905Y-36508628D02*
X33309524Y-36556247D01*
X33309524Y-36556247D02*
X33404762Y-36603866D01*
X33404762Y-36603866D02*
X33595238Y-36603866D01*
X33595238Y-36603866D02*
X33690476Y-36556247D01*
X33690476Y-36556247D02*
X33738095Y-36508628D01*
X33738095Y-36508628D02*
X33785714Y-36413390D01*
X24771605Y-38277015D02*
X24723986Y-38324635D01*
X24723986Y-38324635D02*
X24581129Y-38372254D01*
X24581129Y-38372254D02*
X24485891Y-38372254D01*
X24485891Y-38372254D02*
X24343034Y-38324635D01*
X24343034Y-38324635D02*
X24247796Y-38229396D01*
X24247796Y-38229396D02*
X24200177Y-38134158D01*
X24200177Y-38134158D02*
X24152558Y-37943682D01*
X24152558Y-37943682D02*
X24152558Y-37800825D01*
X24152558Y-37800825D02*
X24200177Y-37610349D01*
X24200177Y-37610349D02*
X24247796Y-37515111D01*
X24247796Y-37515111D02*
X24343034Y-37419873D01*
X24343034Y-37419873D02*
X24485891Y-37372254D01*
X24485891Y-37372254D02*
X24581129Y-37372254D01*
X24581129Y-37372254D02*
X24723986Y-37419873D01*
X24723986Y-37419873D02*
X24771605Y-37467492D01*
X25628748Y-37705587D02*
X25628748Y-38372254D01*
X25390653Y-37324635D02*
X25152558Y-38038920D01*
X25152558Y-38038920D02*
X25771605Y-38038920D01*
X26343034Y-37372254D02*
X26438272Y-37372254D01*
X26438272Y-37372254D02*
X26533510Y-37419873D01*
X26533510Y-37419873D02*
X26581129Y-37467492D01*
X26581129Y-37467492D02*
X26628748Y-37562730D01*
X26628748Y-37562730D02*
X26676367Y-37753206D01*
X26676367Y-37753206D02*
X26676367Y-37991301D01*
X26676367Y-37991301D02*
X26628748Y-38181777D01*
X26628748Y-38181777D02*
X26581129Y-38277015D01*
X26581129Y-38277015D02*
X26533510Y-38324635D01*
X26533510Y-38324635D02*
X26438272Y-38372254D01*
X26438272Y-38372254D02*
X26343034Y-38372254D01*
X26343034Y-38372254D02*
X26247796Y-38324635D01*
X26247796Y-38324635D02*
X26200177Y-38277015D01*
X26200177Y-38277015D02*
X26152558Y-38181777D01*
X26152558Y-38181777D02*
X26104939Y-37991301D01*
X26104939Y-37991301D02*
X26104939Y-37753206D01*
X26104939Y-37753206D02*
X26152558Y-37562730D01*
X26152558Y-37562730D02*
X26200177Y-37467492D01*
X26200177Y-37467492D02*
X26247796Y-37419873D01*
X26247796Y-37419873D02*
X26343034Y-37372254D01*
X10761905Y-26054819D02*
X10761905Y-25054819D01*
X10761905Y-25054819D02*
X11000000Y-25054819D01*
X11000000Y-25054819D02*
X11142857Y-25102438D01*
X11142857Y-25102438D02*
X11238095Y-25197676D01*
X11238095Y-25197676D02*
X11285714Y-25292914D01*
X11285714Y-25292914D02*
X11333333Y-25483390D01*
X11333333Y-25483390D02*
X11333333Y-25626247D01*
X11333333Y-25626247D02*
X11285714Y-25816723D01*
X11285714Y-25816723D02*
X11238095Y-25911961D01*
X11238095Y-25911961D02*
X11142857Y-26007200D01*
X11142857Y-26007200D02*
X11000000Y-26054819D01*
X11000000Y-26054819D02*
X10761905Y-26054819D01*
X12285714Y-26054819D02*
X11714286Y-26054819D01*
X12000000Y-26054819D02*
X12000000Y-25054819D01*
X12000000Y-25054819D02*
X11904762Y-25197676D01*
X11904762Y-25197676D02*
X11809524Y-25292914D01*
X11809524Y-25292914D02*
X11714286Y-25340533D01*
X13238095Y-54054819D02*
X13238095Y-54864342D01*
X13238095Y-54864342D02*
X13285714Y-54959580D01*
X13285714Y-54959580D02*
X13333333Y-55007200D01*
X13333333Y-55007200D02*
X13428571Y-55054819D01*
X13428571Y-55054819D02*
X13619047Y-55054819D01*
X13619047Y-55054819D02*
X13714285Y-55007200D01*
X13714285Y-55007200D02*
X13761904Y-54959580D01*
X13761904Y-54959580D02*
X13809523Y-54864342D01*
X13809523Y-54864342D02*
X13809523Y-54054819D01*
X14714285Y-54388152D02*
X14714285Y-55054819D01*
X14476190Y-54007200D02*
X14238095Y-54721485D01*
X14238095Y-54721485D02*
X14857142Y-54721485D01*
X8238095Y-34054819D02*
X8238095Y-34864342D01*
X8238095Y-34864342D02*
X8285714Y-34959580D01*
X8285714Y-34959580D02*
X8333333Y-35007200D01*
X8333333Y-35007200D02*
X8428571Y-35054819D01*
X8428571Y-35054819D02*
X8619047Y-35054819D01*
X8619047Y-35054819D02*
X8714285Y-35007200D01*
X8714285Y-35007200D02*
X8761904Y-34959580D01*
X8761904Y-34959580D02*
X8809523Y-34864342D01*
X8809523Y-34864342D02*
X8809523Y-34054819D01*
X9238095Y-34150057D02*
X9285714Y-34102438D01*
X9285714Y-34102438D02*
X9380952Y-34054819D01*
X9380952Y-34054819D02*
X9619047Y-34054819D01*
X9619047Y-34054819D02*
X9714285Y-34102438D01*
X9714285Y-34102438D02*
X9761904Y-34150057D01*
X9761904Y-34150057D02*
X9809523Y-34245295D01*
X9809523Y-34245295D02*
X9809523Y-34340533D01*
X9809523Y-34340533D02*
X9761904Y-34483390D01*
X9761904Y-34483390D02*
X9190476Y-35054819D01*
X9190476Y-35054819D02*
X9809523Y-35054819D01*
X15279478Y-27545487D02*
X15231859Y-27593107D01*
X15231859Y-27593107D02*
X15089002Y-27640726D01*
X15089002Y-27640726D02*
X14993764Y-27640726D01*
X14993764Y-27640726D02*
X14850907Y-27593107D01*
X14850907Y-27593107D02*
X14755669Y-27497868D01*
X14755669Y-27497868D02*
X14708050Y-27402630D01*
X14708050Y-27402630D02*
X14660431Y-27212154D01*
X14660431Y-27212154D02*
X14660431Y-27069297D01*
X14660431Y-27069297D02*
X14708050Y-26878821D01*
X14708050Y-26878821D02*
X14755669Y-26783583D01*
X14755669Y-26783583D02*
X14850907Y-26688345D01*
X14850907Y-26688345D02*
X14993764Y-26640726D01*
X14993764Y-26640726D02*
X15089002Y-26640726D01*
X15089002Y-26640726D02*
X15231859Y-26688345D01*
X15231859Y-26688345D02*
X15279478Y-26735964D01*
X16231859Y-27640726D02*
X15660431Y-27640726D01*
X15946145Y-27640726D02*
X15946145Y-26640726D01*
X15946145Y-26640726D02*
X15850907Y-26783583D01*
X15850907Y-26783583D02*
X15755669Y-26878821D01*
X15755669Y-26878821D02*
X15660431Y-26926440D01*
X16708050Y-27640726D02*
X16898526Y-27640726D01*
X16898526Y-27640726D02*
X16993764Y-27593107D01*
X16993764Y-27593107D02*
X17041383Y-27545487D01*
X17041383Y-27545487D02*
X17136621Y-27402630D01*
X17136621Y-27402630D02*
X17184240Y-27212154D01*
X17184240Y-27212154D02*
X17184240Y-26831202D01*
X17184240Y-26831202D02*
X17136621Y-26735964D01*
X17136621Y-26735964D02*
X17089002Y-26688345D01*
X17089002Y-26688345D02*
X16993764Y-26640726D01*
X16993764Y-26640726D02*
X16803288Y-26640726D01*
X16803288Y-26640726D02*
X16708050Y-26688345D01*
X16708050Y-26688345D02*
X16660431Y-26735964D01*
X16660431Y-26735964D02*
X16612812Y-26831202D01*
X16612812Y-26831202D02*
X16612812Y-27069297D01*
X16612812Y-27069297D02*
X16660431Y-27164535D01*
X16660431Y-27164535D02*
X16708050Y-27212154D01*
X16708050Y-27212154D02*
X16803288Y-27259773D01*
X16803288Y-27259773D02*
X16993764Y-27259773D01*
X16993764Y-27259773D02*
X17089002Y-27212154D01*
X17089002Y-27212154D02*
X17136621Y-27164535D01*
X17136621Y-27164535D02*
X17184240Y-27069297D01*
X9574524Y-51667048D02*
X9526905Y-51714668D01*
X9526905Y-51714668D02*
X9384048Y-51762287D01*
X9384048Y-51762287D02*
X9288810Y-51762287D01*
X9288810Y-51762287D02*
X9145953Y-51714668D01*
X9145953Y-51714668D02*
X9050715Y-51619429D01*
X9050715Y-51619429D02*
X9003096Y-51524191D01*
X9003096Y-51524191D02*
X8955477Y-51333715D01*
X8955477Y-51333715D02*
X8955477Y-51190858D01*
X8955477Y-51190858D02*
X9003096Y-51000382D01*
X9003096Y-51000382D02*
X9050715Y-50905144D01*
X9050715Y-50905144D02*
X9145953Y-50809906D01*
X9145953Y-50809906D02*
X9288810Y-50762287D01*
X9288810Y-50762287D02*
X9384048Y-50762287D01*
X9384048Y-50762287D02*
X9526905Y-50809906D01*
X9526905Y-50809906D02*
X9574524Y-50857525D01*
X9955477Y-50857525D02*
X10003096Y-50809906D01*
X10003096Y-50809906D02*
X10098334Y-50762287D01*
X10098334Y-50762287D02*
X10336429Y-50762287D01*
X10336429Y-50762287D02*
X10431667Y-50809906D01*
X10431667Y-50809906D02*
X10479286Y-50857525D01*
X10479286Y-50857525D02*
X10526905Y-50952763D01*
X10526905Y-50952763D02*
X10526905Y-51048001D01*
X10526905Y-51048001D02*
X10479286Y-51190858D01*
X10479286Y-51190858D02*
X9907858Y-51762287D01*
X9907858Y-51762287D02*
X10526905Y-51762287D01*
X11003096Y-51762287D02*
X11193572Y-51762287D01*
X11193572Y-51762287D02*
X11288810Y-51714668D01*
X11288810Y-51714668D02*
X11336429Y-51667048D01*
X11336429Y-51667048D02*
X11431667Y-51524191D01*
X11431667Y-51524191D02*
X11479286Y-51333715D01*
X11479286Y-51333715D02*
X11479286Y-50952763D01*
X11479286Y-50952763D02*
X11431667Y-50857525D01*
X11431667Y-50857525D02*
X11384048Y-50809906D01*
X11384048Y-50809906D02*
X11288810Y-50762287D01*
X11288810Y-50762287D02*
X11098334Y-50762287D01*
X11098334Y-50762287D02*
X11003096Y-50809906D01*
X11003096Y-50809906D02*
X10955477Y-50857525D01*
X10955477Y-50857525D02*
X10907858Y-50952763D01*
X10907858Y-50952763D02*
X10907858Y-51190858D01*
X10907858Y-51190858D02*
X10955477Y-51286096D01*
X10955477Y-51286096D02*
X11003096Y-51333715D01*
X11003096Y-51333715D02*
X11098334Y-51381334D01*
X11098334Y-51381334D02*
X11288810Y-51381334D01*
X11288810Y-51381334D02*
X11384048Y-51333715D01*
X11384048Y-51333715D02*
X11431667Y-51286096D01*
X11431667Y-51286096D02*
X11479286Y-51190858D01*
X25202446Y-42072501D02*
X25154827Y-42120121D01*
X25154827Y-42120121D02*
X25011970Y-42167740D01*
X25011970Y-42167740D02*
X24916732Y-42167740D01*
X24916732Y-42167740D02*
X24773875Y-42120121D01*
X24773875Y-42120121D02*
X24678637Y-42024882D01*
X24678637Y-42024882D02*
X24631018Y-41929644D01*
X24631018Y-41929644D02*
X24583399Y-41739168D01*
X24583399Y-41739168D02*
X24583399Y-41596311D01*
X24583399Y-41596311D02*
X24631018Y-41405835D01*
X24631018Y-41405835D02*
X24678637Y-41310597D01*
X24678637Y-41310597D02*
X24773875Y-41215359D01*
X24773875Y-41215359D02*
X24916732Y-41167740D01*
X24916732Y-41167740D02*
X25011970Y-41167740D01*
X25011970Y-41167740D02*
X25154827Y-41215359D01*
X25154827Y-41215359D02*
X25202446Y-41262978D01*
X25583399Y-41262978D02*
X25631018Y-41215359D01*
X25631018Y-41215359D02*
X25726256Y-41167740D01*
X25726256Y-41167740D02*
X25964351Y-41167740D01*
X25964351Y-41167740D02*
X26059589Y-41215359D01*
X26059589Y-41215359D02*
X26107208Y-41262978D01*
X26107208Y-41262978D02*
X26154827Y-41358216D01*
X26154827Y-41358216D02*
X26154827Y-41453454D01*
X26154827Y-41453454D02*
X26107208Y-41596311D01*
X26107208Y-41596311D02*
X25535780Y-42167740D01*
X25535780Y-42167740D02*
X26154827Y-42167740D01*
X27011970Y-41501073D02*
X27011970Y-42167740D01*
X26773875Y-41120121D02*
X26535780Y-41834406D01*
X26535780Y-41834406D02*
X27154827Y-41834406D01*
X5486455Y-18749701D02*
X5438836Y-18797321D01*
X5438836Y-18797321D02*
X5295979Y-18844940D01*
X5295979Y-18844940D02*
X5200741Y-18844940D01*
X5200741Y-18844940D02*
X5057884Y-18797321D01*
X5057884Y-18797321D02*
X4962646Y-18702082D01*
X4962646Y-18702082D02*
X4915027Y-18606844D01*
X4915027Y-18606844D02*
X4867408Y-18416368D01*
X4867408Y-18416368D02*
X4867408Y-18273511D01*
X4867408Y-18273511D02*
X4915027Y-18083035D01*
X4915027Y-18083035D02*
X4962646Y-17987797D01*
X4962646Y-17987797D02*
X5057884Y-17892559D01*
X5057884Y-17892559D02*
X5200741Y-17844940D01*
X5200741Y-17844940D02*
X5295979Y-17844940D01*
X5295979Y-17844940D02*
X5438836Y-17892559D01*
X5438836Y-17892559D02*
X5486455Y-17940178D01*
X5819789Y-17844940D02*
X6438836Y-17844940D01*
X6438836Y-17844940D02*
X6105503Y-18225892D01*
X6105503Y-18225892D02*
X6248360Y-18225892D01*
X6248360Y-18225892D02*
X6343598Y-18273511D01*
X6343598Y-18273511D02*
X6391217Y-18321130D01*
X6391217Y-18321130D02*
X6438836Y-18416368D01*
X6438836Y-18416368D02*
X6438836Y-18654463D01*
X6438836Y-18654463D02*
X6391217Y-18749701D01*
X6391217Y-18749701D02*
X6343598Y-18797321D01*
X6343598Y-18797321D02*
X6248360Y-18844940D01*
X6248360Y-18844940D02*
X5962646Y-18844940D01*
X5962646Y-18844940D02*
X5867408Y-18797321D01*
X5867408Y-18797321D02*
X5819789Y-18749701D01*
X7295979Y-18178273D02*
X7295979Y-18844940D01*
X7057884Y-17797321D02*
X6819789Y-18511606D01*
X6819789Y-18511606D02*
X7438836Y-18511606D01*
X17308539Y-29419860D02*
X17260920Y-29467480D01*
X17260920Y-29467480D02*
X17118063Y-29515099D01*
X17118063Y-29515099D02*
X17022825Y-29515099D01*
X17022825Y-29515099D02*
X16879968Y-29467480D01*
X16879968Y-29467480D02*
X16784730Y-29372241D01*
X16784730Y-29372241D02*
X16737111Y-29277003D01*
X16737111Y-29277003D02*
X16689492Y-29086527D01*
X16689492Y-29086527D02*
X16689492Y-28943670D01*
X16689492Y-28943670D02*
X16737111Y-28753194D01*
X16737111Y-28753194D02*
X16784730Y-28657956D01*
X16784730Y-28657956D02*
X16879968Y-28562718D01*
X16879968Y-28562718D02*
X17022825Y-28515099D01*
X17022825Y-28515099D02*
X17118063Y-28515099D01*
X17118063Y-28515099D02*
X17260920Y-28562718D01*
X17260920Y-28562718D02*
X17308539Y-28610337D01*
X17641873Y-28515099D02*
X18308539Y-28515099D01*
X18308539Y-28515099D02*
X17879968Y-29515099D01*
X18234969Y-25018967D02*
X17901636Y-24542776D01*
X17663541Y-25018967D02*
X17663541Y-24018967D01*
X17663541Y-24018967D02*
X18044493Y-24018967D01*
X18044493Y-24018967D02*
X18139731Y-24066586D01*
X18139731Y-24066586D02*
X18187350Y-24114205D01*
X18187350Y-24114205D02*
X18234969Y-24209443D01*
X18234969Y-24209443D02*
X18234969Y-24352300D01*
X18234969Y-24352300D02*
X18187350Y-24447538D01*
X18187350Y-24447538D02*
X18139731Y-24495157D01*
X18139731Y-24495157D02*
X18044493Y-24542776D01*
X18044493Y-24542776D02*
X17663541Y-24542776D01*
X19187350Y-25018967D02*
X18615922Y-25018967D01*
X18901636Y-25018967D02*
X18901636Y-24018967D01*
X18901636Y-24018967D02*
X18806398Y-24161824D01*
X18806398Y-24161824D02*
X18711160Y-24257062D01*
X18711160Y-24257062D02*
X18615922Y-24304681D01*
X19758779Y-24447538D02*
X19663541Y-24399919D01*
X19663541Y-24399919D02*
X19615922Y-24352300D01*
X19615922Y-24352300D02*
X19568303Y-24257062D01*
X19568303Y-24257062D02*
X19568303Y-24209443D01*
X19568303Y-24209443D02*
X19615922Y-24114205D01*
X19615922Y-24114205D02*
X19663541Y-24066586D01*
X19663541Y-24066586D02*
X19758779Y-24018967D01*
X19758779Y-24018967D02*
X19949255Y-24018967D01*
X19949255Y-24018967D02*
X20044493Y-24066586D01*
X20044493Y-24066586D02*
X20092112Y-24114205D01*
X20092112Y-24114205D02*
X20139731Y-24209443D01*
X20139731Y-24209443D02*
X20139731Y-24257062D01*
X20139731Y-24257062D02*
X20092112Y-24352300D01*
X20092112Y-24352300D02*
X20044493Y-24399919D01*
X20044493Y-24399919D02*
X19949255Y-24447538D01*
X19949255Y-24447538D02*
X19758779Y-24447538D01*
X19758779Y-24447538D02*
X19663541Y-24495157D01*
X19663541Y-24495157D02*
X19615922Y-24542776D01*
X19615922Y-24542776D02*
X19568303Y-24638014D01*
X19568303Y-24638014D02*
X19568303Y-24828490D01*
X19568303Y-24828490D02*
X19615922Y-24923728D01*
X19615922Y-24923728D02*
X19663541Y-24971348D01*
X19663541Y-24971348D02*
X19758779Y-25018967D01*
X19758779Y-25018967D02*
X19949255Y-25018967D01*
X19949255Y-25018967D02*
X20044493Y-24971348D01*
X20044493Y-24971348D02*
X20092112Y-24923728D01*
X20092112Y-24923728D02*
X20139731Y-24828490D01*
X20139731Y-24828490D02*
X20139731Y-24638014D01*
X20139731Y-24638014D02*
X20092112Y-24542776D01*
X20092112Y-24542776D02*
X20044493Y-24495157D01*
X20044493Y-24495157D02*
X19949255Y-24447538D01*
X29400675Y-27793099D02*
X29353056Y-27840719D01*
X29353056Y-27840719D02*
X29210199Y-27888338D01*
X29210199Y-27888338D02*
X29114961Y-27888338D01*
X29114961Y-27888338D02*
X28972104Y-27840719D01*
X28972104Y-27840719D02*
X28876866Y-27745480D01*
X28876866Y-27745480D02*
X28829247Y-27650242D01*
X28829247Y-27650242D02*
X28781628Y-27459766D01*
X28781628Y-27459766D02*
X28781628Y-27316909D01*
X28781628Y-27316909D02*
X28829247Y-27126433D01*
X28829247Y-27126433D02*
X28876866Y-27031195D01*
X28876866Y-27031195D02*
X28972104Y-26935957D01*
X28972104Y-26935957D02*
X29114961Y-26888338D01*
X29114961Y-26888338D02*
X29210199Y-26888338D01*
X29210199Y-26888338D02*
X29353056Y-26935957D01*
X29353056Y-26935957D02*
X29400675Y-26983576D01*
X30305437Y-26888338D02*
X29829247Y-26888338D01*
X29829247Y-26888338D02*
X29781628Y-27364528D01*
X29781628Y-27364528D02*
X29829247Y-27316909D01*
X29829247Y-27316909D02*
X29924485Y-27269290D01*
X29924485Y-27269290D02*
X30162580Y-27269290D01*
X30162580Y-27269290D02*
X30257818Y-27316909D01*
X30257818Y-27316909D02*
X30305437Y-27364528D01*
X30305437Y-27364528D02*
X30353056Y-27459766D01*
X30353056Y-27459766D02*
X30353056Y-27697861D01*
X30353056Y-27697861D02*
X30305437Y-27793099D01*
X30305437Y-27793099D02*
X30257818Y-27840719D01*
X30257818Y-27840719D02*
X30162580Y-27888338D01*
X30162580Y-27888338D02*
X29924485Y-27888338D01*
X29924485Y-27888338D02*
X29829247Y-27840719D01*
X29829247Y-27840719D02*
X29781628Y-27793099D01*
X18058443Y-49311215D02*
X18010824Y-49358835D01*
X18010824Y-49358835D02*
X17867967Y-49406454D01*
X17867967Y-49406454D02*
X17772729Y-49406454D01*
X17772729Y-49406454D02*
X17629872Y-49358835D01*
X17629872Y-49358835D02*
X17534634Y-49263596D01*
X17534634Y-49263596D02*
X17487015Y-49168358D01*
X17487015Y-49168358D02*
X17439396Y-48977882D01*
X17439396Y-48977882D02*
X17439396Y-48835025D01*
X17439396Y-48835025D02*
X17487015Y-48644549D01*
X17487015Y-48644549D02*
X17534634Y-48549311D01*
X17534634Y-48549311D02*
X17629872Y-48454073D01*
X17629872Y-48454073D02*
X17772729Y-48406454D01*
X17772729Y-48406454D02*
X17867967Y-48406454D01*
X17867967Y-48406454D02*
X18010824Y-48454073D01*
X18010824Y-48454073D02*
X18058443Y-48501692D01*
X18439396Y-48501692D02*
X18487015Y-48454073D01*
X18487015Y-48454073D02*
X18582253Y-48406454D01*
X18582253Y-48406454D02*
X18820348Y-48406454D01*
X18820348Y-48406454D02*
X18915586Y-48454073D01*
X18915586Y-48454073D02*
X18963205Y-48501692D01*
X18963205Y-48501692D02*
X19010824Y-48596930D01*
X19010824Y-48596930D02*
X19010824Y-48692168D01*
X19010824Y-48692168D02*
X18963205Y-48835025D01*
X18963205Y-48835025D02*
X18391777Y-49406454D01*
X18391777Y-49406454D02*
X19010824Y-49406454D01*
X19867967Y-48406454D02*
X19677491Y-48406454D01*
X19677491Y-48406454D02*
X19582253Y-48454073D01*
X19582253Y-48454073D02*
X19534634Y-48501692D01*
X19534634Y-48501692D02*
X19439396Y-48644549D01*
X19439396Y-48644549D02*
X19391777Y-48835025D01*
X19391777Y-48835025D02*
X19391777Y-49215977D01*
X19391777Y-49215977D02*
X19439396Y-49311215D01*
X19439396Y-49311215D02*
X19487015Y-49358835D01*
X19487015Y-49358835D02*
X19582253Y-49406454D01*
X19582253Y-49406454D02*
X19772729Y-49406454D01*
X19772729Y-49406454D02*
X19867967Y-49358835D01*
X19867967Y-49358835D02*
X19915586Y-49311215D01*
X19915586Y-49311215D02*
X19963205Y-49215977D01*
X19963205Y-49215977D02*
X19963205Y-48977882D01*
X19963205Y-48977882D02*
X19915586Y-48882644D01*
X19915586Y-48882644D02*
X19867967Y-48835025D01*
X19867967Y-48835025D02*
X19772729Y-48787406D01*
X19772729Y-48787406D02*
X19582253Y-48787406D01*
X19582253Y-48787406D02*
X19487015Y-48835025D01*
X19487015Y-48835025D02*
X19439396Y-48882644D01*
X19439396Y-48882644D02*
X19391777Y-48977882D01*
X19777444Y-29206573D02*
X19729825Y-29254193D01*
X19729825Y-29254193D02*
X19586968Y-29301812D01*
X19586968Y-29301812D02*
X19491730Y-29301812D01*
X19491730Y-29301812D02*
X19348873Y-29254193D01*
X19348873Y-29254193D02*
X19253635Y-29158954D01*
X19253635Y-29158954D02*
X19206016Y-29063716D01*
X19206016Y-29063716D02*
X19158397Y-28873240D01*
X19158397Y-28873240D02*
X19158397Y-28730383D01*
X19158397Y-28730383D02*
X19206016Y-28539907D01*
X19206016Y-28539907D02*
X19253635Y-28444669D01*
X19253635Y-28444669D02*
X19348873Y-28349431D01*
X19348873Y-28349431D02*
X19491730Y-28301812D01*
X19491730Y-28301812D02*
X19586968Y-28301812D01*
X19586968Y-28301812D02*
X19729825Y-28349431D01*
X19729825Y-28349431D02*
X19777444Y-28397050D01*
X20110778Y-28301812D02*
X20729825Y-28301812D01*
X20729825Y-28301812D02*
X20396492Y-28682764D01*
X20396492Y-28682764D02*
X20539349Y-28682764D01*
X20539349Y-28682764D02*
X20634587Y-28730383D01*
X20634587Y-28730383D02*
X20682206Y-28778002D01*
X20682206Y-28778002D02*
X20729825Y-28873240D01*
X20729825Y-28873240D02*
X20729825Y-29111335D01*
X20729825Y-29111335D02*
X20682206Y-29206573D01*
X20682206Y-29206573D02*
X20634587Y-29254193D01*
X20634587Y-29254193D02*
X20539349Y-29301812D01*
X20539349Y-29301812D02*
X20253635Y-29301812D01*
X20253635Y-29301812D02*
X20158397Y-29254193D01*
X20158397Y-29254193D02*
X20110778Y-29206573D01*
X21206016Y-29301812D02*
X21396492Y-29301812D01*
X21396492Y-29301812D02*
X21491730Y-29254193D01*
X21491730Y-29254193D02*
X21539349Y-29206573D01*
X21539349Y-29206573D02*
X21634587Y-29063716D01*
X21634587Y-29063716D02*
X21682206Y-28873240D01*
X21682206Y-28873240D02*
X21682206Y-28492288D01*
X21682206Y-28492288D02*
X21634587Y-28397050D01*
X21634587Y-28397050D02*
X21586968Y-28349431D01*
X21586968Y-28349431D02*
X21491730Y-28301812D01*
X21491730Y-28301812D02*
X21301254Y-28301812D01*
X21301254Y-28301812D02*
X21206016Y-28349431D01*
X21206016Y-28349431D02*
X21158397Y-28397050D01*
X21158397Y-28397050D02*
X21110778Y-28492288D01*
X21110778Y-28492288D02*
X21110778Y-28730383D01*
X21110778Y-28730383D02*
X21158397Y-28825621D01*
X21158397Y-28825621D02*
X21206016Y-28873240D01*
X21206016Y-28873240D02*
X21301254Y-28920859D01*
X21301254Y-28920859D02*
X21491730Y-28920859D01*
X21491730Y-28920859D02*
X21586968Y-28873240D01*
X21586968Y-28873240D02*
X21634587Y-28825621D01*
X21634587Y-28825621D02*
X21682206Y-28730383D01*
X27941030Y-60773853D02*
X27607697Y-60297662D01*
X27369602Y-60773853D02*
X27369602Y-59773853D01*
X27369602Y-59773853D02*
X27750554Y-59773853D01*
X27750554Y-59773853D02*
X27845792Y-59821472D01*
X27845792Y-59821472D02*
X27893411Y-59869091D01*
X27893411Y-59869091D02*
X27941030Y-59964329D01*
X27941030Y-59964329D02*
X27941030Y-60107186D01*
X27941030Y-60107186D02*
X27893411Y-60202424D01*
X27893411Y-60202424D02*
X27845792Y-60250043D01*
X27845792Y-60250043D02*
X27750554Y-60297662D01*
X27750554Y-60297662D02*
X27369602Y-60297662D01*
X28512459Y-60202424D02*
X28417221Y-60154805D01*
X28417221Y-60154805D02*
X28369602Y-60107186D01*
X28369602Y-60107186D02*
X28321983Y-60011948D01*
X28321983Y-60011948D02*
X28321983Y-59964329D01*
X28321983Y-59964329D02*
X28369602Y-59869091D01*
X28369602Y-59869091D02*
X28417221Y-59821472D01*
X28417221Y-59821472D02*
X28512459Y-59773853D01*
X28512459Y-59773853D02*
X28702935Y-59773853D01*
X28702935Y-59773853D02*
X28798173Y-59821472D01*
X28798173Y-59821472D02*
X28845792Y-59869091D01*
X28845792Y-59869091D02*
X28893411Y-59964329D01*
X28893411Y-59964329D02*
X28893411Y-60011948D01*
X28893411Y-60011948D02*
X28845792Y-60107186D01*
X28845792Y-60107186D02*
X28798173Y-60154805D01*
X28798173Y-60154805D02*
X28702935Y-60202424D01*
X28702935Y-60202424D02*
X28512459Y-60202424D01*
X28512459Y-60202424D02*
X28417221Y-60250043D01*
X28417221Y-60250043D02*
X28369602Y-60297662D01*
X28369602Y-60297662D02*
X28321983Y-60392900D01*
X28321983Y-60392900D02*
X28321983Y-60583376D01*
X28321983Y-60583376D02*
X28369602Y-60678614D01*
X28369602Y-60678614D02*
X28417221Y-60726234D01*
X28417221Y-60726234D02*
X28512459Y-60773853D01*
X28512459Y-60773853D02*
X28702935Y-60773853D01*
X28702935Y-60773853D02*
X28798173Y-60726234D01*
X28798173Y-60726234D02*
X28845792Y-60678614D01*
X28845792Y-60678614D02*
X28893411Y-60583376D01*
X28893411Y-60583376D02*
X28893411Y-60392900D01*
X28893411Y-60392900D02*
X28845792Y-60297662D01*
X28845792Y-60297662D02*
X28798173Y-60250043D01*
X28798173Y-60250043D02*
X28702935Y-60202424D01*
X24190476Y-61759819D02*
X24190476Y-62474104D01*
X24190476Y-62474104D02*
X24142857Y-62616961D01*
X24142857Y-62616961D02*
X24047619Y-62712200D01*
X24047619Y-62712200D02*
X23904762Y-62759819D01*
X23904762Y-62759819D02*
X23809524Y-62759819D01*
X25190476Y-62759819D02*
X24619048Y-62759819D01*
X24904762Y-62759819D02*
X24904762Y-61759819D01*
X24904762Y-61759819D02*
X24809524Y-61902676D01*
X24809524Y-61902676D02*
X24714286Y-61997914D01*
X24714286Y-61997914D02*
X24619048Y-62045533D01*
X26142857Y-62759819D02*
X25571429Y-62759819D01*
X25857143Y-62759819D02*
X25857143Y-61759819D01*
X25857143Y-61759819D02*
X25761905Y-61902676D01*
X25761905Y-61902676D02*
X25666667Y-61997914D01*
X25666667Y-61997914D02*
X25571429Y-62045533D01*
X3666666Y-56124819D02*
X3666666Y-56839104D01*
X3666666Y-56839104D02*
X3619047Y-56981961D01*
X3619047Y-56981961D02*
X3523809Y-57077200D01*
X3523809Y-57077200D02*
X3380952Y-57124819D01*
X3380952Y-57124819D02*
X3285714Y-57124819D01*
X4047619Y-56124819D02*
X4714285Y-56124819D01*
X4714285Y-56124819D02*
X4285714Y-57124819D01*
X20292803Y-45234616D02*
X20245184Y-45282236D01*
X20245184Y-45282236D02*
X20102327Y-45329855D01*
X20102327Y-45329855D02*
X20007089Y-45329855D01*
X20007089Y-45329855D02*
X19864232Y-45282236D01*
X19864232Y-45282236D02*
X19768994Y-45186997D01*
X19768994Y-45186997D02*
X19721375Y-45091759D01*
X19721375Y-45091759D02*
X19673756Y-44901283D01*
X19673756Y-44901283D02*
X19673756Y-44758426D01*
X19673756Y-44758426D02*
X19721375Y-44567950D01*
X19721375Y-44567950D02*
X19768994Y-44472712D01*
X19768994Y-44472712D02*
X19864232Y-44377474D01*
X19864232Y-44377474D02*
X20007089Y-44329855D01*
X20007089Y-44329855D02*
X20102327Y-44329855D01*
X20102327Y-44329855D02*
X20245184Y-44377474D01*
X20245184Y-44377474D02*
X20292803Y-44425093D01*
X20673756Y-44425093D02*
X20721375Y-44377474D01*
X20721375Y-44377474D02*
X20816613Y-44329855D01*
X20816613Y-44329855D02*
X21054708Y-44329855D01*
X21054708Y-44329855D02*
X21149946Y-44377474D01*
X21149946Y-44377474D02*
X21197565Y-44425093D01*
X21197565Y-44425093D02*
X21245184Y-44520331D01*
X21245184Y-44520331D02*
X21245184Y-44615569D01*
X21245184Y-44615569D02*
X21197565Y-44758426D01*
X21197565Y-44758426D02*
X20626137Y-45329855D01*
X20626137Y-45329855D02*
X21245184Y-45329855D01*
X22197565Y-45329855D02*
X21626137Y-45329855D01*
X21911851Y-45329855D02*
X21911851Y-44329855D01*
X21911851Y-44329855D02*
X21816613Y-44472712D01*
X21816613Y-44472712D02*
X21721375Y-44567950D01*
X21721375Y-44567950D02*
X21626137Y-44615569D01*
X28179711Y-43605641D02*
X28132092Y-43653261D01*
X28132092Y-43653261D02*
X27989235Y-43700880D01*
X27989235Y-43700880D02*
X27893997Y-43700880D01*
X27893997Y-43700880D02*
X27751140Y-43653261D01*
X27751140Y-43653261D02*
X27655902Y-43558022D01*
X27655902Y-43558022D02*
X27608283Y-43462784D01*
X27608283Y-43462784D02*
X27560664Y-43272308D01*
X27560664Y-43272308D02*
X27560664Y-43129451D01*
X27560664Y-43129451D02*
X27608283Y-42938975D01*
X27608283Y-42938975D02*
X27655902Y-42843737D01*
X27655902Y-42843737D02*
X27751140Y-42748499D01*
X27751140Y-42748499D02*
X27893997Y-42700880D01*
X27893997Y-42700880D02*
X27989235Y-42700880D01*
X27989235Y-42700880D02*
X28132092Y-42748499D01*
X28132092Y-42748499D02*
X28179711Y-42796118D01*
X28513045Y-42700880D02*
X29132092Y-42700880D01*
X29132092Y-42700880D02*
X28798759Y-43081832D01*
X28798759Y-43081832D02*
X28941616Y-43081832D01*
X28941616Y-43081832D02*
X29036854Y-43129451D01*
X29036854Y-43129451D02*
X29084473Y-43177070D01*
X29084473Y-43177070D02*
X29132092Y-43272308D01*
X29132092Y-43272308D02*
X29132092Y-43510403D01*
X29132092Y-43510403D02*
X29084473Y-43605641D01*
X29084473Y-43605641D02*
X29036854Y-43653261D01*
X29036854Y-43653261D02*
X28941616Y-43700880D01*
X28941616Y-43700880D02*
X28655902Y-43700880D01*
X28655902Y-43700880D02*
X28560664Y-43653261D01*
X28560664Y-43653261D02*
X28513045Y-43605641D01*
X29751140Y-42700880D02*
X29846378Y-42700880D01*
X29846378Y-42700880D02*
X29941616Y-42748499D01*
X29941616Y-42748499D02*
X29989235Y-42796118D01*
X29989235Y-42796118D02*
X30036854Y-42891356D01*
X30036854Y-42891356D02*
X30084473Y-43081832D01*
X30084473Y-43081832D02*
X30084473Y-43319927D01*
X30084473Y-43319927D02*
X30036854Y-43510403D01*
X30036854Y-43510403D02*
X29989235Y-43605641D01*
X29989235Y-43605641D02*
X29941616Y-43653261D01*
X29941616Y-43653261D02*
X29846378Y-43700880D01*
X29846378Y-43700880D02*
X29751140Y-43700880D01*
X29751140Y-43700880D02*
X29655902Y-43653261D01*
X29655902Y-43653261D02*
X29608283Y-43605641D01*
X29608283Y-43605641D02*
X29560664Y-43510403D01*
X29560664Y-43510403D02*
X29513045Y-43319927D01*
X29513045Y-43319927D02*
X29513045Y-43081832D01*
X29513045Y-43081832D02*
X29560664Y-42891356D01*
X29560664Y-42891356D02*
X29608283Y-42796118D01*
X29608283Y-42796118D02*
X29655902Y-42748499D01*
X29655902Y-42748499D02*
X29751140Y-42700880D01*
X31666667Y-47807200D02*
X31809524Y-47854819D01*
X31809524Y-47854819D02*
X32047619Y-47854819D01*
X32047619Y-47854819D02*
X32142857Y-47807200D01*
X32142857Y-47807200D02*
X32190476Y-47759580D01*
X32190476Y-47759580D02*
X32238095Y-47664342D01*
X32238095Y-47664342D02*
X32238095Y-47569104D01*
X32238095Y-47569104D02*
X32190476Y-47473866D01*
X32190476Y-47473866D02*
X32142857Y-47426247D01*
X32142857Y-47426247D02*
X32047619Y-47378628D01*
X32047619Y-47378628D02*
X31857143Y-47331009D01*
X31857143Y-47331009D02*
X31761905Y-47283390D01*
X31761905Y-47283390D02*
X31714286Y-47235771D01*
X31714286Y-47235771D02*
X31666667Y-47140533D01*
X31666667Y-47140533D02*
X31666667Y-47045295D01*
X31666667Y-47045295D02*
X31714286Y-46950057D01*
X31714286Y-46950057D02*
X31761905Y-46902438D01*
X31761905Y-46902438D02*
X31857143Y-46854819D01*
X31857143Y-46854819D02*
X32095238Y-46854819D01*
X32095238Y-46854819D02*
X32238095Y-46902438D01*
X32571429Y-46854819D02*
X32809524Y-47854819D01*
X32809524Y-47854819D02*
X33000000Y-47140533D01*
X33000000Y-47140533D02*
X33190476Y-47854819D01*
X33190476Y-47854819D02*
X33428572Y-46854819D01*
X33761905Y-46950057D02*
X33809524Y-46902438D01*
X33809524Y-46902438D02*
X33904762Y-46854819D01*
X33904762Y-46854819D02*
X34142857Y-46854819D01*
X34142857Y-46854819D02*
X34238095Y-46902438D01*
X34238095Y-46902438D02*
X34285714Y-46950057D01*
X34285714Y-46950057D02*
X34333333Y-47045295D01*
X34333333Y-47045295D02*
X34333333Y-47140533D01*
X34333333Y-47140533D02*
X34285714Y-47283390D01*
X34285714Y-47283390D02*
X33714286Y-47854819D01*
X33714286Y-47854819D02*
X34333333Y-47854819D01*
X31666666Y-8124819D02*
X31666666Y-8839104D01*
X31666666Y-8839104D02*
X31619047Y-8981961D01*
X31619047Y-8981961D02*
X31523809Y-9077200D01*
X31523809Y-9077200D02*
X31380952Y-9124819D01*
X31380952Y-9124819D02*
X31285714Y-9124819D01*
X32619047Y-8124819D02*
X32142857Y-8124819D01*
X32142857Y-8124819D02*
X32095238Y-8601009D01*
X32095238Y-8601009D02*
X32142857Y-8553390D01*
X32142857Y-8553390D02*
X32238095Y-8505771D01*
X32238095Y-8505771D02*
X32476190Y-8505771D01*
X32476190Y-8505771D02*
X32571428Y-8553390D01*
X32571428Y-8553390D02*
X32619047Y-8601009D01*
X32619047Y-8601009D02*
X32666666Y-8696247D01*
X32666666Y-8696247D02*
X32666666Y-8934342D01*
X32666666Y-8934342D02*
X32619047Y-9029580D01*
X32619047Y-9029580D02*
X32571428Y-9077200D01*
X32571428Y-9077200D02*
X32476190Y-9124819D01*
X32476190Y-9124819D02*
X32238095Y-9124819D01*
X32238095Y-9124819D02*
X32142857Y-9077200D01*
X32142857Y-9077200D02*
X32095238Y-9029580D01*
X21254524Y-43186024D02*
X21206905Y-43233644D01*
X21206905Y-43233644D02*
X21064048Y-43281263D01*
X21064048Y-43281263D02*
X20968810Y-43281263D01*
X20968810Y-43281263D02*
X20825953Y-43233644D01*
X20825953Y-43233644D02*
X20730715Y-43138405D01*
X20730715Y-43138405D02*
X20683096Y-43043167D01*
X20683096Y-43043167D02*
X20635477Y-42852691D01*
X20635477Y-42852691D02*
X20635477Y-42709834D01*
X20635477Y-42709834D02*
X20683096Y-42519358D01*
X20683096Y-42519358D02*
X20730715Y-42424120D01*
X20730715Y-42424120D02*
X20825953Y-42328882D01*
X20825953Y-42328882D02*
X20968810Y-42281263D01*
X20968810Y-42281263D02*
X21064048Y-42281263D01*
X21064048Y-42281263D02*
X21206905Y-42328882D01*
X21206905Y-42328882D02*
X21254524Y-42376501D01*
X22206905Y-43281263D02*
X21635477Y-43281263D01*
X21921191Y-43281263D02*
X21921191Y-42281263D01*
X21921191Y-42281263D02*
X21825953Y-42424120D01*
X21825953Y-42424120D02*
X21730715Y-42519358D01*
X21730715Y-42519358D02*
X21635477Y-42566977D01*
X23159286Y-43281263D02*
X22587858Y-43281263D01*
X22873572Y-43281263D02*
X22873572Y-42281263D01*
X22873572Y-42281263D02*
X22778334Y-42424120D01*
X22778334Y-42424120D02*
X22683096Y-42519358D01*
X22683096Y-42519358D02*
X22587858Y-42566977D01*
X9856626Y-49820709D02*
X9809007Y-49868329D01*
X9809007Y-49868329D02*
X9666150Y-49915948D01*
X9666150Y-49915948D02*
X9570912Y-49915948D01*
X9570912Y-49915948D02*
X9428055Y-49868329D01*
X9428055Y-49868329D02*
X9332817Y-49773090D01*
X9332817Y-49773090D02*
X9285198Y-49677852D01*
X9285198Y-49677852D02*
X9237579Y-49487376D01*
X9237579Y-49487376D02*
X9237579Y-49344519D01*
X9237579Y-49344519D02*
X9285198Y-49154043D01*
X9285198Y-49154043D02*
X9332817Y-49058805D01*
X9332817Y-49058805D02*
X9428055Y-48963567D01*
X9428055Y-48963567D02*
X9570912Y-48915948D01*
X9570912Y-48915948D02*
X9666150Y-48915948D01*
X9666150Y-48915948D02*
X9809007Y-48963567D01*
X9809007Y-48963567D02*
X9856626Y-49011186D01*
X10237579Y-49011186D02*
X10285198Y-48963567D01*
X10285198Y-48963567D02*
X10380436Y-48915948D01*
X10380436Y-48915948D02*
X10618531Y-48915948D01*
X10618531Y-48915948D02*
X10713769Y-48963567D01*
X10713769Y-48963567D02*
X10761388Y-49011186D01*
X10761388Y-49011186D02*
X10809007Y-49106424D01*
X10809007Y-49106424D02*
X10809007Y-49201662D01*
X10809007Y-49201662D02*
X10761388Y-49344519D01*
X10761388Y-49344519D02*
X10189960Y-49915948D01*
X10189960Y-49915948D02*
X10809007Y-49915948D01*
X11380436Y-49344519D02*
X11285198Y-49296900D01*
X11285198Y-49296900D02*
X11237579Y-49249281D01*
X11237579Y-49249281D02*
X11189960Y-49154043D01*
X11189960Y-49154043D02*
X11189960Y-49106424D01*
X11189960Y-49106424D02*
X11237579Y-49011186D01*
X11237579Y-49011186D02*
X11285198Y-48963567D01*
X11285198Y-48963567D02*
X11380436Y-48915948D01*
X11380436Y-48915948D02*
X11570912Y-48915948D01*
X11570912Y-48915948D02*
X11666150Y-48963567D01*
X11666150Y-48963567D02*
X11713769Y-49011186D01*
X11713769Y-49011186D02*
X11761388Y-49106424D01*
X11761388Y-49106424D02*
X11761388Y-49154043D01*
X11761388Y-49154043D02*
X11713769Y-49249281D01*
X11713769Y-49249281D02*
X11666150Y-49296900D01*
X11666150Y-49296900D02*
X11570912Y-49344519D01*
X11570912Y-49344519D02*
X11380436Y-49344519D01*
X11380436Y-49344519D02*
X11285198Y-49392138D01*
X11285198Y-49392138D02*
X11237579Y-49439757D01*
X11237579Y-49439757D02*
X11189960Y-49534995D01*
X11189960Y-49534995D02*
X11189960Y-49725471D01*
X11189960Y-49725471D02*
X11237579Y-49820709D01*
X11237579Y-49820709D02*
X11285198Y-49868329D01*
X11285198Y-49868329D02*
X11380436Y-49915948D01*
X11380436Y-49915948D02*
X11570912Y-49915948D01*
X11570912Y-49915948D02*
X11666150Y-49868329D01*
X11666150Y-49868329D02*
X11713769Y-49820709D01*
X11713769Y-49820709D02*
X11761388Y-49725471D01*
X11761388Y-49725471D02*
X11761388Y-49534995D01*
X11761388Y-49534995D02*
X11713769Y-49439757D01*
X11713769Y-49439757D02*
X11666150Y-49392138D01*
X11666150Y-49392138D02*
X11570912Y-49344519D01*
X24603159Y-40247448D02*
X24555540Y-40295068D01*
X24555540Y-40295068D02*
X24412683Y-40342687D01*
X24412683Y-40342687D02*
X24317445Y-40342687D01*
X24317445Y-40342687D02*
X24174588Y-40295068D01*
X24174588Y-40295068D02*
X24079350Y-40199829D01*
X24079350Y-40199829D02*
X24031731Y-40104591D01*
X24031731Y-40104591D02*
X23984112Y-39914115D01*
X23984112Y-39914115D02*
X23984112Y-39771258D01*
X23984112Y-39771258D02*
X24031731Y-39580782D01*
X24031731Y-39580782D02*
X24079350Y-39485544D01*
X24079350Y-39485544D02*
X24174588Y-39390306D01*
X24174588Y-39390306D02*
X24317445Y-39342687D01*
X24317445Y-39342687D02*
X24412683Y-39342687D01*
X24412683Y-39342687D02*
X24555540Y-39390306D01*
X24555540Y-39390306D02*
X24603159Y-39437925D01*
X25555540Y-40342687D02*
X24984112Y-40342687D01*
X25269826Y-40342687D02*
X25269826Y-39342687D01*
X25269826Y-39342687D02*
X25174588Y-39485544D01*
X25174588Y-39485544D02*
X25079350Y-39580782D01*
X25079350Y-39580782D02*
X24984112Y-39628401D01*
X25888874Y-39342687D02*
X26507921Y-39342687D01*
X26507921Y-39342687D02*
X26174588Y-39723639D01*
X26174588Y-39723639D02*
X26317445Y-39723639D01*
X26317445Y-39723639D02*
X26412683Y-39771258D01*
X26412683Y-39771258D02*
X26460302Y-39818877D01*
X26460302Y-39818877D02*
X26507921Y-39914115D01*
X26507921Y-39914115D02*
X26507921Y-40152210D01*
X26507921Y-40152210D02*
X26460302Y-40247448D01*
X26460302Y-40247448D02*
X26412683Y-40295068D01*
X26412683Y-40295068D02*
X26317445Y-40342687D01*
X26317445Y-40342687D02*
X26031731Y-40342687D01*
X26031731Y-40342687D02*
X25936493Y-40295068D01*
X25936493Y-40295068D02*
X25888874Y-40247448D01*
X8710557Y-42729328D02*
X8662938Y-42776948D01*
X8662938Y-42776948D02*
X8520081Y-42824567D01*
X8520081Y-42824567D02*
X8424843Y-42824567D01*
X8424843Y-42824567D02*
X8281986Y-42776948D01*
X8281986Y-42776948D02*
X8186748Y-42681709D01*
X8186748Y-42681709D02*
X8139129Y-42586471D01*
X8139129Y-42586471D02*
X8091510Y-42395995D01*
X8091510Y-42395995D02*
X8091510Y-42253138D01*
X8091510Y-42253138D02*
X8139129Y-42062662D01*
X8139129Y-42062662D02*
X8186748Y-41967424D01*
X8186748Y-41967424D02*
X8281986Y-41872186D01*
X8281986Y-41872186D02*
X8424843Y-41824567D01*
X8424843Y-41824567D02*
X8520081Y-41824567D01*
X8520081Y-41824567D02*
X8662938Y-41872186D01*
X8662938Y-41872186D02*
X8710557Y-41919805D01*
X9091510Y-41919805D02*
X9139129Y-41872186D01*
X9139129Y-41872186D02*
X9234367Y-41824567D01*
X9234367Y-41824567D02*
X9472462Y-41824567D01*
X9472462Y-41824567D02*
X9567700Y-41872186D01*
X9567700Y-41872186D02*
X9615319Y-41919805D01*
X9615319Y-41919805D02*
X9662938Y-42015043D01*
X9662938Y-42015043D02*
X9662938Y-42110281D01*
X9662938Y-42110281D02*
X9615319Y-42253138D01*
X9615319Y-42253138D02*
X9043891Y-42824567D01*
X9043891Y-42824567D02*
X9662938Y-42824567D01*
X9996272Y-41824567D02*
X10662938Y-41824567D01*
X10662938Y-41824567D02*
X10234367Y-42824567D01*
X25239231Y-50246470D02*
X24905898Y-49770279D01*
X24667803Y-50246470D02*
X24667803Y-49246470D01*
X24667803Y-49246470D02*
X25048755Y-49246470D01*
X25048755Y-49246470D02*
X25143993Y-49294089D01*
X25143993Y-49294089D02*
X25191612Y-49341708D01*
X25191612Y-49341708D02*
X25239231Y-49436946D01*
X25239231Y-49436946D02*
X25239231Y-49579803D01*
X25239231Y-49579803D02*
X25191612Y-49675041D01*
X25191612Y-49675041D02*
X25143993Y-49722660D01*
X25143993Y-49722660D02*
X25048755Y-49770279D01*
X25048755Y-49770279D02*
X24667803Y-49770279D01*
X25572565Y-49246470D02*
X26239231Y-49246470D01*
X26239231Y-49246470D02*
X25810660Y-50246470D01*
D13*
%TO.C,C2*%
X9170952Y-61457284D02*
X9693456Y-61457284D01*
X9170952Y-62927284D02*
X9693456Y-62927284D01*
%TO.C,U10*%
X14174217Y-9723013D02*
X13374217Y-9723013D01*
X14174217Y-9723013D02*
X14974217Y-9723013D01*
X14174217Y-12843013D02*
X13374217Y-12843013D01*
X14174217Y-12843013D02*
X14974217Y-12843013D01*
X12874217Y-9773013D02*
X12634217Y-9443013D01*
X13114217Y-9443013D01*
X12874217Y-9773013D01*
G36*
X12874217Y-9773013D02*
G01*
X12634217Y-9443013D01*
X13114217Y-9443013D01*
X12874217Y-9773013D01*
G37*
%TO.C,R23*%
X6768853Y-41731640D02*
X7076135Y-41731640D01*
X6768853Y-42491640D02*
X7076135Y-42491640D01*
%TO.C,J4*%
X12600000Y-3200000D02*
X12600000Y-4540000D01*
X12600000Y-7260000D02*
X12600000Y-9000000D01*
X12600000Y-9000000D02*
X23400000Y-9000000D01*
X14090000Y-3200000D02*
X12600000Y-3200000D01*
X14090000Y-3200000D02*
X14090000Y-2000000D01*
X21910000Y-3200000D02*
X23400000Y-3200000D01*
X23400000Y-3200000D02*
X23400000Y-4540000D01*
X23400000Y-9000000D02*
X23400000Y-7260000D01*
%TO.C,U3*%
X11200000Y-23700000D02*
X11200000Y-24500000D01*
X11200000Y-24500000D02*
X12000000Y-24500000D01*
X11400000Y-7700000D02*
X24600000Y-7700000D01*
X11400000Y-13100000D02*
X24600000Y-13100000D01*
X11400000Y-24300000D02*
X11400000Y-7700000D01*
X12075000Y-7500000D02*
X11225000Y-7500000D01*
X24050000Y-7500000D02*
X24800000Y-7500000D01*
X24600000Y-7700000D02*
X24600000Y-24300000D01*
X24600000Y-24300000D02*
X11400000Y-24300000D01*
X24800000Y-7500000D02*
X24800000Y-8100000D01*
X24800000Y-23700000D02*
X24800000Y-24500000D01*
X24800000Y-24500000D02*
X24000000Y-24500000D01*
%TO.C,Q4*%
X6000000Y-14440000D02*
X5350000Y-14440000D01*
X6000000Y-14440000D02*
X6650000Y-14440000D01*
X6000000Y-17560000D02*
X5350000Y-17560000D01*
X6000000Y-17560000D02*
X6650000Y-17560000D01*
X4837500Y-14490000D02*
X4597500Y-14160000D01*
X5077500Y-14160000D01*
X4837500Y-14490000D01*
G36*
X4837500Y-14490000D02*
G01*
X4597500Y-14160000D01*
X5077500Y-14160000D01*
X4837500Y-14490000D01*
G37*
%TO.C,R26*%
X31234786Y-18503100D02*
X31542068Y-18503100D01*
X31234786Y-19263100D02*
X31542068Y-19263100D01*
%TO.C,L1*%
X26600378Y-56440000D02*
X27399622Y-56440000D01*
X26600378Y-57560000D02*
X27399622Y-57560000D01*
%TO.C,R24*%
X21974847Y-48418541D02*
X22282129Y-48418541D01*
X21974847Y-49178541D02*
X22282129Y-49178541D01*
%TO.C,Q3*%
X6000000Y-53440000D02*
X5350000Y-53440000D01*
X6000000Y-53440000D02*
X6650000Y-53440000D01*
X6000000Y-56560000D02*
X5350000Y-56560000D01*
X6000000Y-56560000D02*
X6650000Y-56560000D01*
X4837500Y-53490000D02*
X4597500Y-53160000D01*
X5077500Y-53160000D01*
X4837500Y-53490000D01*
G36*
X4837500Y-53490000D02*
G01*
X4597500Y-53160000D01*
X5077500Y-53160000D01*
X4837500Y-53490000D01*
G37*
%TO.C,R29*%
X7234786Y-12736899D02*
X7542068Y-12736899D01*
X7234786Y-13496899D02*
X7542068Y-13496899D01*
%TO.C,C6*%
X23241720Y-59518855D02*
X23457392Y-59518855D01*
X23241720Y-60238855D02*
X23457392Y-60238855D01*
%TO.C,R27*%
X33646359Y-54620000D02*
X33953641Y-54620000D01*
X33646359Y-55380000D02*
X33953641Y-55380000D01*
%TO.C,C3*%
X32864999Y-44530050D02*
X33387503Y-44530050D01*
X32864999Y-46000050D02*
X33387503Y-46000050D01*
%TO.C,J6*%
X30670000Y-57670000D02*
X32000000Y-57670000D01*
X30670000Y-59000000D02*
X30670000Y-57670000D01*
X30670000Y-60270000D02*
X30670000Y-62870000D01*
X30670000Y-60270000D02*
X33330000Y-60270000D01*
X30670000Y-62870000D02*
X33330000Y-62870000D01*
X33330000Y-60270000D02*
X33330000Y-62870000D01*
%TO.C,C12*%
X10518173Y-33537699D02*
X10733845Y-33537699D01*
X10518173Y-34257699D02*
X10733845Y-34257699D01*
%TO.C,D5*%
X1364567Y-49699827D02*
X1364567Y-52999827D01*
X1364567Y-49699827D02*
X6874567Y-49699827D01*
X1364567Y-52999827D02*
X6874567Y-52999827D01*
%TO.C,R25*%
X13062816Y-48168494D02*
X13370098Y-48168494D01*
X13062816Y-48928494D02*
X13370098Y-48928494D01*
%TO.C,R31*%
X24486390Y-44624372D02*
X24793672Y-44624372D01*
X24486390Y-45384372D02*
X24793672Y-45384372D01*
D14*
%TO.C,U7*%
X27650000Y-46540000D02*
X27650000Y-46100000D01*
X27650000Y-48100000D02*
X27650000Y-47460000D01*
X27650000Y-48100000D02*
X27800000Y-48100000D01*
X30075000Y-48075000D02*
X30225000Y-48075000D01*
X30200000Y-45900000D02*
X30350000Y-45900000D01*
X30350000Y-46540000D02*
X30350000Y-45900000D01*
X30350000Y-48100000D02*
X30350000Y-47460000D01*
X27650000Y-45900000D02*
X27290000Y-45900000D01*
X27650000Y-45540000D01*
X27650000Y-45900000D01*
G36*
X27650000Y-45900000D02*
G01*
X27290000Y-45900000D01*
X27650000Y-45540000D01*
X27650000Y-45900000D01*
G37*
D13*
%TO.C,C8*%
X33692164Y-32640000D02*
X33907836Y-32640000D01*
X33692164Y-33360000D02*
X33907836Y-33360000D01*
%TO.C,C15*%
X12808866Y-43576864D02*
X13024538Y-43576864D01*
X12808866Y-44296864D02*
X13024538Y-44296864D01*
%TO.C,U6*%
X6640000Y-48610000D02*
X6640000Y-48385000D01*
X7365000Y-45390000D02*
X6940000Y-45390000D01*
X7365000Y-48610000D02*
X6640000Y-48610000D01*
X8635000Y-45390000D02*
X9360000Y-45390000D01*
X8635000Y-48610000D02*
X9360000Y-48610000D01*
X9360000Y-45390000D02*
X9360000Y-45615000D01*
X9360000Y-48610000D02*
X9360000Y-48385000D01*
X6640000Y-45390000D02*
X6400000Y-45060000D01*
X6880000Y-45060000D01*
X6640000Y-45390000D01*
G36*
X6640000Y-45390000D02*
G01*
X6400000Y-45060000D01*
X6880000Y-45060000D01*
X6640000Y-45390000D01*
G37*
%TO.C,C20*%
X18590449Y-27767435D02*
X18806121Y-27767435D01*
X18590449Y-28487435D02*
X18806121Y-28487435D01*
%TO.C,C17*%
X25126944Y-31990488D02*
X25342616Y-31990488D01*
X25126944Y-32710488D02*
X25342616Y-32710488D01*
%TO.C,LED2*%
X27580000Y-20850000D02*
X27580000Y-21500000D01*
X27580000Y-20850000D02*
X30420000Y-20850000D01*
X27580000Y-23150000D02*
X30420000Y-23150000D01*
%TO.C,C35*%
X28021477Y-19190121D02*
X28237149Y-19190121D01*
X28021477Y-19910121D02*
X28237149Y-19910121D01*
%TO.C,R6*%
X22322463Y-50743305D02*
X22629745Y-50743305D01*
X22322463Y-51503305D02*
X22629745Y-51503305D01*
%TO.C,R15*%
X19065579Y-47552223D02*
X19372861Y-47552223D01*
X19065579Y-48312223D02*
X19372861Y-48312223D01*
%TO.C,C38*%
X25292164Y-36640000D02*
X25507836Y-36640000D01*
X25292164Y-37360000D02*
X25507836Y-37360000D01*
%TO.C,SW1*%
X29940000Y-38150000D02*
X36060000Y-38150000D01*
X29940000Y-41850000D02*
X29940000Y-38150000D01*
X36060000Y-38150000D02*
X36060000Y-41850000D01*
X36060000Y-41850000D02*
X29940000Y-41850000D01*
%TO.C,C18*%
X10691912Y-31408711D02*
X10907584Y-31408711D01*
X10691912Y-32128711D02*
X10907584Y-32128711D01*
%TO.C,C10*%
X32892164Y-41940000D02*
X33107836Y-41940000D01*
X32892164Y-42660000D02*
X33107836Y-42660000D01*
%TO.C,J1*%
X13940000Y-63690000D02*
X14960000Y-63690000D01*
X13940000Y-67940000D02*
X13940000Y-63690000D01*
X14960000Y-63690000D02*
X14960000Y-65290000D01*
X14960000Y-65290000D02*
X16240000Y-65290000D01*
X15660000Y-71510000D02*
X20340000Y-71510000D01*
X16240000Y-65290000D02*
X16240000Y-62400000D01*
X21040000Y-63690000D02*
X21040000Y-65290000D01*
X21040000Y-65290000D02*
X19760000Y-65290000D01*
X22060000Y-63690000D02*
X21040000Y-63690000D01*
X22060000Y-67940000D02*
X22060000Y-63690000D01*
%TO.C,C16*%
X23254176Y-29916249D02*
X23469848Y-29916249D01*
X23254176Y-30636249D02*
X23469848Y-30636249D01*
%TO.C,R14*%
X15758892Y-26125597D02*
X16066174Y-26125597D01*
X15758892Y-26885597D02*
X16066174Y-26885597D01*
%TO.C,R5*%
X26729681Y-59267604D02*
X27036963Y-59267604D01*
X26729681Y-60027604D02*
X27036963Y-60027604D01*
%TO.C,D6*%
X16589999Y-9350000D02*
X16589999Y-12650000D01*
X16589999Y-9350000D02*
X22099999Y-9350000D01*
X16589999Y-12650000D02*
X22099999Y-12650000D01*
%TO.C,C9*%
X32940151Y-29466709D02*
X33155823Y-29466709D01*
X32940151Y-30186709D02*
X33155823Y-30186709D01*
%TO.C,R28*%
X7234786Y-57503100D02*
X7542068Y-57503100D01*
X7234786Y-58263100D02*
X7542068Y-58263100D01*
%TO.C,Q2*%
X30000000Y-53440000D02*
X29350000Y-53440000D01*
X30000000Y-53440000D02*
X30650000Y-53440000D01*
X30000000Y-56560000D02*
X29350000Y-56560000D01*
X30000000Y-56560000D02*
X30650000Y-56560000D01*
X28837500Y-53490000D02*
X28597500Y-53160000D01*
X29077500Y-53160000D01*
X28837500Y-53490000D01*
G36*
X28837500Y-53490000D02*
G01*
X28597500Y-53160000D01*
X29077500Y-53160000D01*
X28837500Y-53490000D01*
G37*
%TO.C,C22*%
X15292365Y-45777343D02*
X15508037Y-45777343D01*
X15292365Y-46497343D02*
X15508037Y-46497343D01*
%TO.C,R10*%
X32846359Y-47320000D02*
X33153641Y-47320000D01*
X32846359Y-48080000D02*
X33153641Y-48080000D01*
%TO.C,J10*%
X11890000Y-63240000D02*
X13000000Y-63240000D01*
X11890000Y-64000000D02*
X11890000Y-63240000D01*
X11890000Y-64760000D02*
X11890000Y-68505000D01*
X11890000Y-64760000D02*
X12436529Y-64760000D01*
X11890000Y-68505000D02*
X12692470Y-68505000D01*
X13307530Y-68505000D02*
X14110000Y-68505000D01*
X13563471Y-64760000D02*
X14110000Y-64760000D01*
X14110000Y-64760000D02*
X14110000Y-68505000D01*
%TO.C,D2*%
X1090000Y-6600000D02*
X1090000Y-9900000D01*
X1090000Y-6600000D02*
X6600000Y-6600000D01*
X1090000Y-9900000D02*
X6600000Y-9900000D01*
%TO.C,R17*%
X15922606Y-47755042D02*
X16229888Y-47755042D01*
X15922606Y-48515042D02*
X16229888Y-48515042D01*
%TO.C,R4*%
X20210929Y-59760782D02*
X20518211Y-59760782D01*
X20210929Y-60520782D02*
X20518211Y-60520782D01*
%TO.C,R13*%
X7510952Y-33850636D02*
X7818234Y-33850636D01*
X7510952Y-34610636D02*
X7818234Y-34610636D01*
%TO.C,J9*%
X2890000Y-39240000D02*
X4000000Y-39240000D01*
X2890000Y-40000000D02*
X2890000Y-39240000D01*
X2890000Y-40760000D02*
X2890000Y-47045000D01*
X2890000Y-40760000D02*
X3436529Y-40760000D01*
X2890000Y-47045000D02*
X3692470Y-47045000D01*
X4307530Y-47045000D02*
X5110000Y-47045000D01*
X4563471Y-40760000D02*
X5110000Y-40760000D01*
X5110000Y-40760000D02*
X5110000Y-47045000D01*
%TO.C,C4*%
X9481410Y-64860522D02*
X10003914Y-64860522D01*
X9481410Y-66330522D02*
X10003914Y-66330522D01*
%TO.C,R11*%
X25961736Y-30116105D02*
X26269018Y-30116105D01*
X25961736Y-30876105D02*
X26269018Y-30876105D01*
%TO.C,Q1*%
X30000000Y-14440000D02*
X29350000Y-14440000D01*
X30000000Y-14440000D02*
X30650000Y-14440000D01*
X30000000Y-17560000D02*
X29350000Y-17560000D01*
X30000000Y-17560000D02*
X30650000Y-17560000D01*
X28837500Y-14490000D02*
X28597500Y-14160000D01*
X29077500Y-14160000D01*
X28837500Y-14490000D01*
G36*
X28837500Y-14490000D02*
G01*
X28597500Y-14160000D01*
X29077500Y-14160000D01*
X28837500Y-14490000D01*
G37*
%TO.C,R2*%
X6897063Y-29670000D02*
X7204345Y-29670000D01*
X6897063Y-30430000D02*
X7204345Y-30430000D01*
%TO.C,C14*%
X18067591Y-45238210D02*
X18283263Y-45238210D01*
X18067591Y-45958210D02*
X18283263Y-45958210D01*
%TO.C,C33*%
X18604121Y-8177711D02*
X18819793Y-8177711D01*
X18604121Y-8897711D02*
X18819793Y-8897711D01*
%TO.C,R22*%
X21788455Y-25391915D02*
X22095737Y-25391915D01*
X21788455Y-26151915D02*
X22095737Y-26151915D01*
%TO.C,R1*%
X6846359Y-27620000D02*
X7153641Y-27620000D01*
X6846359Y-28380000D02*
X7153641Y-28380000D01*
%TO.C,R12*%
X12496359Y-45886471D02*
X12803641Y-45886471D01*
X12496359Y-46646471D02*
X12803641Y-46646471D01*
%TO.C,R20*%
X28457256Y-42006915D02*
X28764538Y-42006915D01*
X28457256Y-42766915D02*
X28764538Y-42766915D01*
%TO.C,U1*%
X12850000Y-42150000D02*
X12850000Y-41725000D01*
X13275000Y-31850000D02*
X12675000Y-31850000D01*
X13275000Y-42150000D02*
X12850000Y-42150000D01*
X22725000Y-31850000D02*
X23150000Y-31850000D01*
X22725000Y-42150000D02*
X23150000Y-42150000D01*
X23150000Y-31850000D02*
X23150000Y-32275000D01*
X23150000Y-42150000D02*
X23150000Y-41725000D01*
D15*
X12050000Y-32300000D02*
G75*
G03*
X11750000Y-32300000I-150000J0D01*
G01*
X11750000Y-32300000D02*
G75*
G03*
X12050000Y-32300000I150000J0D01*
G01*
D13*
%TO.C,L2*%
X25647336Y-10359043D02*
X25647336Y-10509043D01*
X25647336Y-10359043D02*
X29167336Y-10359043D01*
X25647336Y-13879043D02*
X25647336Y-13729043D01*
X25647336Y-13879043D02*
X29167336Y-13879043D01*
X29167336Y-10359043D02*
X29167336Y-10509043D01*
X29167336Y-13879043D02*
X29167336Y-13729043D01*
%TO.C,C37*%
X18765272Y-43383714D02*
X18980944Y-43383714D01*
X18765272Y-44103714D02*
X18980944Y-44103714D01*
%TO.C,C41*%
X25086996Y-33896938D02*
X25302668Y-33896938D01*
X25086996Y-34616938D02*
X25302668Y-34616938D01*
%TO.C,C36*%
X14264131Y-50136446D02*
X14786635Y-50136446D01*
X14264131Y-51606446D02*
X14786635Y-51606446D01*
%TO.C,C42*%
X15630908Y-43370284D02*
X15846580Y-43370284D01*
X15630908Y-44090284D02*
X15846580Y-44090284D01*
%TO.C,LED1*%
X5580000Y-20850000D02*
X5580000Y-21500000D01*
X5580000Y-20850000D02*
X8420000Y-20850000D01*
X5580000Y-23150000D02*
X8420000Y-23150000D01*
%TO.C,R16*%
X24226985Y-27659664D02*
X24534267Y-27659664D01*
X24226985Y-28419664D02*
X24534267Y-28419664D01*
%TO.C,Y1*%
X28000000Y-31350000D02*
X28000000Y-34650000D01*
X28000000Y-34650000D02*
X32000000Y-34650000D01*
%TO.C,D3*%
X27788332Y-23632775D02*
X27788332Y-26932775D01*
X27788332Y-23632775D02*
X33298332Y-23632775D01*
X27788332Y-26932775D02*
X33298332Y-26932775D01*
%TO.C,R21*%
X27446359Y-63620000D02*
X27753641Y-63620000D01*
X27446359Y-64380000D02*
X27753641Y-64380000D01*
%TO.C,J2*%
X1600000Y-32700000D02*
X3600000Y-32700000D01*
X5500000Y-32700000D02*
X7400000Y-32700000D01*
X7400000Y-32700000D02*
X7400000Y-23300000D01*
X1600000Y-23300000D02*
X3600000Y-23300000D01*
X5500000Y-23300000D02*
X7400000Y-23300000D01*
%TO.C,U5*%
X23000000Y-55440000D02*
X22200000Y-55440000D01*
X23000000Y-55440000D02*
X23800000Y-55440000D01*
X23000000Y-58560000D02*
X22200000Y-58560000D01*
X23000000Y-58560000D02*
X23800000Y-58560000D01*
X21700000Y-55490000D02*
X21460000Y-55160000D01*
X21940000Y-55160000D01*
X21700000Y-55490000D01*
G36*
X21700000Y-55490000D02*
G01*
X21460000Y-55160000D01*
X21940000Y-55160000D01*
X21700000Y-55490000D01*
G37*
%TO.C,R19*%
X23847477Y-46547062D02*
X24154759Y-46547062D01*
X23847477Y-47307062D02*
X24154759Y-47307062D01*
%TO.C,J8*%
X2670000Y-9670000D02*
X4000000Y-9670000D01*
X2670000Y-11000000D02*
X2670000Y-9670000D01*
X2670000Y-12270000D02*
X2670000Y-14870000D01*
X2670000Y-12270000D02*
X5330000Y-12270000D01*
X2670000Y-14870000D02*
X5330000Y-14870000D01*
X5330000Y-12270000D02*
X5330000Y-14870000D01*
%TO.C,R3*%
X13495739Y-53836210D02*
X13803021Y-53836210D01*
X13495739Y-54596210D02*
X13803021Y-54596210D01*
%TO.C,C1*%
X16882600Y-52998128D02*
X17405104Y-52998128D01*
X16882600Y-54468128D02*
X17405104Y-54468128D01*
%TO.C,D4*%
X19924714Y-51997815D02*
X19924714Y-55297815D01*
X19924714Y-51997815D02*
X25434714Y-51997815D01*
X19924714Y-55297815D02*
X25434714Y-55297815D01*
%TO.C,C25*%
X21316912Y-27457892D02*
X21532584Y-27457892D01*
X21316912Y-28177892D02*
X21532584Y-28177892D01*
%TO.C,R30*%
X28246359Y-36620000D02*
X28553641Y-36620000D01*
X28246359Y-37380000D02*
X28553641Y-37380000D01*
%TO.C,C23*%
X9815101Y-41641105D02*
X10030773Y-41641105D01*
X9815101Y-42361105D02*
X10030773Y-42361105D01*
%TO.C,R9*%
X32846359Y-37320000D02*
X33153641Y-37320000D01*
X32846359Y-38080000D02*
X33153641Y-38080000D01*
%TO.C,C40*%
X25306627Y-38717435D02*
X25522299Y-38717435D01*
X25306627Y-39437435D02*
X25522299Y-39437435D01*
%TO.C,D1*%
X11500000Y-26440000D02*
X10700000Y-26440000D01*
X11500000Y-26440000D02*
X12300000Y-26440000D01*
X11500000Y-29560000D02*
X10700000Y-29560000D01*
X11500000Y-29560000D02*
X12300000Y-29560000D01*
X10200000Y-26490000D02*
X9960000Y-26160000D01*
X10440000Y-26160000D01*
X10200000Y-26490000D01*
G36*
X10200000Y-26490000D02*
G01*
X9960000Y-26160000D01*
X10440000Y-26160000D01*
X10200000Y-26490000D01*
G37*
%TO.C,U4*%
X14000000Y-55440000D02*
X12050000Y-55440000D01*
X14000000Y-55440000D02*
X15950000Y-55440000D01*
X14000000Y-60560000D02*
X12050000Y-60560000D01*
X14000000Y-60560000D02*
X15950000Y-60560000D01*
X11300000Y-55535000D02*
X11060000Y-55205000D01*
X11540000Y-55205000D01*
X11300000Y-55535000D01*
G36*
X11300000Y-55535000D02*
G01*
X11060000Y-55205000D01*
X11540000Y-55205000D01*
X11300000Y-55535000D01*
G37*
%TO.C,U2*%
X9000000Y-35440000D02*
X7050000Y-35440000D01*
X9000000Y-35440000D02*
X10950000Y-35440000D01*
X9000000Y-40560000D02*
X7050000Y-40560000D01*
X9000000Y-40560000D02*
X10950000Y-40560000D01*
X6300000Y-35535000D02*
X6060000Y-35205000D01*
X6540000Y-35205000D01*
X6300000Y-35535000D01*
G36*
X6300000Y-35535000D02*
G01*
X6060000Y-35205000D01*
X6540000Y-35205000D01*
X6300000Y-35535000D01*
G37*
%TO.C,C19*%
X15814500Y-27985907D02*
X16030172Y-27985907D01*
X15814500Y-28705907D02*
X16030172Y-28705907D01*
%TO.C,C29*%
X10109546Y-52107468D02*
X10325218Y-52107468D01*
X10109546Y-52827468D02*
X10325218Y-52827468D01*
%TO.C,C24*%
X25737468Y-42512921D02*
X25953140Y-42512921D01*
X25737468Y-43232921D02*
X25953140Y-43232921D01*
%TO.C,C34*%
X6021477Y-19190121D02*
X6237149Y-19190121D01*
X6021477Y-19910121D02*
X6237149Y-19910121D01*
%TO.C,C7*%
X17367370Y-29860280D02*
X17583042Y-29860280D01*
X17367370Y-30580280D02*
X17583042Y-30580280D01*
%TO.C,R18*%
X18724186Y-25354148D02*
X19031468Y-25354148D01*
X18724186Y-26114148D02*
X19031468Y-26114148D01*
%TO.C,C5*%
X29306090Y-28378519D02*
X29828594Y-28378519D01*
X29306090Y-29848519D02*
X29828594Y-29848519D01*
%TO.C,C26*%
X18560721Y-49871635D02*
X18841881Y-49871635D01*
X18560721Y-50891635D02*
X18841881Y-50891635D01*
%TO.C,C39*%
X20312466Y-29646993D02*
X20528138Y-29646993D01*
X20312466Y-30366993D02*
X20528138Y-30366993D01*
%TO.C,R8*%
X27954056Y-61109034D02*
X28261338Y-61109034D01*
X27954056Y-61869034D02*
X28261338Y-61869034D01*
%TO.C,J11*%
X23890000Y-63240000D02*
X25000000Y-63240000D01*
X23890000Y-64000000D02*
X23890000Y-63240000D01*
X23890000Y-64760000D02*
X23890000Y-68505000D01*
X23890000Y-64760000D02*
X24436529Y-64760000D01*
X23890000Y-68505000D02*
X24692470Y-68505000D01*
X25307530Y-68505000D02*
X26110000Y-68505000D01*
X25563471Y-64760000D02*
X26110000Y-64760000D01*
X26110000Y-64760000D02*
X26110000Y-68505000D01*
%TO.C,J7*%
X2670000Y-57670000D02*
X4000000Y-57670000D01*
X2670000Y-59000000D02*
X2670000Y-57670000D01*
X2670000Y-60270000D02*
X2670000Y-62870000D01*
X2670000Y-60270000D02*
X5330000Y-60270000D01*
X2670000Y-62870000D02*
X5330000Y-62870000D01*
X5330000Y-60270000D02*
X5330000Y-62870000D01*
%TO.C,C21*%
X20827825Y-45675036D02*
X21043497Y-45675036D01*
X20827825Y-46395036D02*
X21043497Y-46395036D01*
%TO.C,C30*%
X28714733Y-44046061D02*
X28930405Y-44046061D01*
X28714733Y-44766061D02*
X28930405Y-44766061D01*
%TO.C,SW2*%
X29940000Y-48150000D02*
X36060000Y-48150000D01*
X29940000Y-51850000D02*
X29940000Y-48150000D01*
X36060000Y-48150000D02*
X36060000Y-51850000D01*
X36060000Y-51850000D02*
X29940000Y-51850000D01*
%TO.C,J5*%
X30670000Y-9670000D02*
X32000000Y-9670000D01*
X30670000Y-11000000D02*
X30670000Y-9670000D01*
X30670000Y-12270000D02*
X30670000Y-14870000D01*
X30670000Y-12270000D02*
X33330000Y-12270000D01*
X30670000Y-14870000D02*
X33330000Y-14870000D01*
X33330000Y-12270000D02*
X33330000Y-14870000D01*
%TO.C,C11*%
X21789546Y-43626444D02*
X22005218Y-43626444D01*
X21789546Y-44346444D02*
X22005218Y-44346444D01*
%TO.C,C28*%
X10391648Y-50261129D02*
X10607320Y-50261129D01*
X10391648Y-50981129D02*
X10607320Y-50981129D01*
%TO.C,C13*%
X25138181Y-40687868D02*
X25353853Y-40687868D01*
X25138181Y-41407868D02*
X25353853Y-41407868D01*
%TO.C,C27*%
X9212835Y-43289748D02*
X9493995Y-43289748D01*
X9212835Y-44309748D02*
X9493995Y-44309748D01*
%TO.C,R7*%
X25252257Y-50581651D02*
X25559539Y-50581651D01*
X25252257Y-51341651D02*
X25559539Y-51341651D01*
%TD*%
M02*
