%TF.GenerationSoftware,KiCad,Pcbnew,7.0.11+dfsg-1build4*%
%TF.CreationDate,2026-06-19T18:54:11+00:00*%
%TF.ProjectId,stratosdrone,73747261-746f-4736-9472-6f6e652e6b69,rev?*%
%TF.SameCoordinates,Original*%
%TF.FileFunction,Copper,L3,Inr*%
%TF.FilePolarity,Positive*%
%FSLAX46Y46*%
G04 Gerber Fmt 4.6, Leading zero omitted, Abs format (unit mm)*
G04 Created by KiCad (PCBNEW 7.0.11+dfsg-1build4) date 2026-06-19 18:54:11*
%MOMM*%
%LPD*%
G01*
G04 APERTURE LIST*
%TA.AperFunction,ComponentPad*%
%ADD10R,1.000000X1.000000*%
%TD*%
%TA.AperFunction,ComponentPad*%
%ADD11O,1.000000X1.000000*%
%TD*%
%TA.AperFunction,ComponentPad*%
%ADD12R,1.700000X1.700000*%
%TD*%
%TA.AperFunction,ComponentPad*%
%ADD13O,1.700000X1.700000*%
%TD*%
%TA.AperFunction,ComponentPad*%
%ADD14O,2.100000X1.000000*%
%TD*%
%TA.AperFunction,ComponentPad*%
%ADD15O,1.600000X1.000000*%
%TD*%
%TA.AperFunction,ViaPad*%
%ADD16C,0.450000*%
%TD*%
G04 APERTURE END LIST*
D10*
%TO.N,3V3*%
%TO.C,J9*%
X4000000Y-40000000D03*
D11*
%TO.N,GND*%
X4000000Y-41270000D03*
%TO.N,VBAT*%
X4000000Y-42540000D03*
%TO.N,I2C_SDA*%
X4000000Y-43810000D03*
%TO.N,I2C_SCL*%
X4000000Y-45080000D03*
%TO.N,EXP_IO*%
X4000000Y-46350000D03*
%TD*%
D12*
%TO.N,VBAT*%
%TO.C,J6*%
X32000000Y-59000000D03*
D13*
%TO.N,M2_D*%
X32000000Y-61540000D03*
%TD*%
D10*
%TO.N,GND*%
%TO.C,J11*%
X25000000Y-64000000D03*
D11*
%TO.N,C6_U0TXD*%
X25000000Y-65270000D03*
%TO.N,C6_U0RXD*%
X25000000Y-66540000D03*
%TO.N,C6_BOOT*%
X25000000Y-67810000D03*
%TD*%
D10*
%TO.N,GND*%
%TO.C,J10*%
X13000000Y-64000000D03*
D11*
%TO.N,U0TXD*%
X13000000Y-65270000D03*
%TO.N,U0RXD*%
X13000000Y-66540000D03*
%TO.N,3V3*%
X13000000Y-67810000D03*
%TD*%
D12*
%TO.N,VBAT*%
%TO.C,J7*%
X4000000Y-59000000D03*
D13*
%TO.N,M3_D*%
X4000000Y-61540000D03*
%TD*%
D12*
%TO.N,VBAT*%
%TO.C,J8*%
X4000000Y-11000000D03*
D13*
%TO.N,M4_D*%
X4000000Y-13540000D03*
%TD*%
D12*
%TO.N,VBAT*%
%TO.C,J5*%
X32000000Y-11000000D03*
D13*
%TO.N,M1_D*%
X32000000Y-13540000D03*
%TD*%
D14*
%TO.N,GND*%
%TO.C,J2*%
X370000Y-32320000D03*
D15*
X4550000Y-32320000D03*
D14*
X370000Y-23680000D03*
D15*
X4550000Y-23680000D03*
%TD*%
D12*
%TO.N,3V3*%
%TO.C,J3*%
X29000000Y-43000000D03*
D13*
%TO.N,CS_FLOW*%
X26460000Y-43000000D03*
%TO.N,GND*%
X29000000Y-45540000D03*
%TO.N,SPI_SCLK*%
X26460000Y-45540000D03*
%TO.N,SPI_MOSI*%
X29000000Y-48080000D03*
%TO.N,SPI_MISO*%
X26460000Y-48080000D03*
%TO.N,GND*%
X29000000Y-50620000D03*
%TO.N,3V3*%
X26460000Y-50620000D03*
%TD*%
D16*
%TO.N,SPI_SCLK*%
X10077700Y-44906100D03*
%TO.N,SPI_MOSI*%
X8902200Y-45299000D03*
%TO.N,SPI_MISO*%
X7750000Y-44623200D03*
%TO.N,LED_D12*%
X8784900Y-21668000D03*
X28085000Y-23403300D03*
%TD*%
%TA.AperFunction,Conductor*%
%TO.N,3V3*%
G36*
X32003032Y-500648D02*
G01*
X32336929Y-517052D01*
X32349037Y-518245D01*
X32452146Y-533539D01*
X32676699Y-566849D01*
X32688617Y-569219D01*
X33009951Y-649709D01*
X33021588Y-653240D01*
X33092806Y-678722D01*
X33333467Y-764832D01*
X33344688Y-769479D01*
X33644163Y-911120D01*
X33654871Y-916844D01*
X33938988Y-1087137D01*
X33949106Y-1093897D01*
X34215170Y-1291224D01*
X34224576Y-1298944D01*
X34470013Y-1521395D01*
X34478604Y-1529986D01*
X34665755Y-1736475D01*
X34701055Y-1775423D01*
X34708775Y-1784829D01*
X34906102Y-2050893D01*
X34912862Y-2061011D01*
X35041776Y-2276092D01*
X35083148Y-2345116D01*
X35088885Y-2355848D01*
X35230514Y-2655297D01*
X35235170Y-2666540D01*
X35346759Y-2978411D01*
X35350292Y-2990055D01*
X35430777Y-3311369D01*
X35433151Y-3323305D01*
X35481754Y-3650962D01*
X35482947Y-3663071D01*
X35499351Y-3996966D01*
X35499500Y-4003051D01*
X35499500Y-65996948D01*
X35499351Y-66003033D01*
X35482947Y-66336928D01*
X35481754Y-66349037D01*
X35433151Y-66676694D01*
X35430777Y-66688630D01*
X35350292Y-67009944D01*
X35346759Y-67021588D01*
X35235170Y-67333459D01*
X35230514Y-67344702D01*
X35088885Y-67644151D01*
X35083148Y-67654883D01*
X34912862Y-67938988D01*
X34906102Y-67949106D01*
X34708775Y-68215170D01*
X34701055Y-68224576D01*
X34478611Y-68470006D01*
X34470006Y-68478611D01*
X34224576Y-68701055D01*
X34215170Y-68708775D01*
X33949106Y-68906102D01*
X33938988Y-68912862D01*
X33654883Y-69083148D01*
X33644151Y-69088885D01*
X33344702Y-69230514D01*
X33333459Y-69235170D01*
X33021588Y-69346759D01*
X33009944Y-69350292D01*
X32688630Y-69430777D01*
X32676694Y-69433151D01*
X32349037Y-69481754D01*
X32336928Y-69482947D01*
X32021989Y-69498419D01*
X32003031Y-69499351D01*
X31996949Y-69499500D01*
X4003051Y-69499500D01*
X3996968Y-69499351D01*
X3976900Y-69498365D01*
X3663071Y-69482947D01*
X3650962Y-69481754D01*
X3323305Y-69433151D01*
X3311369Y-69430777D01*
X2990055Y-69350292D01*
X2978411Y-69346759D01*
X2666540Y-69235170D01*
X2655301Y-69230515D01*
X2355844Y-69088883D01*
X2345121Y-69083150D01*
X2061011Y-68912862D01*
X2050893Y-68906102D01*
X1784829Y-68708775D01*
X1775423Y-68701055D01*
X1714117Y-68645491D01*
X1529986Y-68478604D01*
X1521395Y-68470013D01*
X1298944Y-68224576D01*
X1291224Y-68215170D01*
X1176142Y-68060000D01*
X12030840Y-68060000D01*
X12071652Y-68194541D01*
X12164503Y-68368253D01*
X12164507Y-68368260D01*
X12289471Y-68520528D01*
X12441739Y-68645491D01*
X12615465Y-68738349D01*
X12750000Y-68779159D01*
X12750000Y-68060000D01*
X12030840Y-68060000D01*
X1176142Y-68060000D01*
X1093895Y-67949103D01*
X1087137Y-67938988D01*
X916844Y-67654871D01*
X911120Y-67644163D01*
X871313Y-67559999D01*
X12030839Y-67559999D01*
X12030840Y-67560000D01*
X12785517Y-67560000D01*
X12714199Y-67644993D01*
X12675000Y-67752694D01*
X12675000Y-67867306D01*
X12714199Y-67975007D01*
X12787871Y-68062805D01*
X12887129Y-68120112D01*
X12971564Y-68135000D01*
X13028436Y-68135000D01*
X13112871Y-68120112D01*
X13212129Y-68062805D01*
X13214483Y-68060000D01*
X13250000Y-68060000D01*
X13250000Y-68779159D01*
X13384534Y-68738349D01*
X13558260Y-68645491D01*
X13710528Y-68520528D01*
X13835492Y-68368260D01*
X13835496Y-68368253D01*
X13928347Y-68194541D01*
X13969160Y-68060000D01*
X13250000Y-68060000D01*
X13214483Y-68060000D01*
X13285801Y-67975007D01*
X13325000Y-67867306D01*
X13325000Y-67810000D01*
X24294355Y-67810000D01*
X24314859Y-67978869D01*
X24314860Y-67978874D01*
X24375182Y-68137931D01*
X24414258Y-68194541D01*
X24471817Y-68277929D01*
X24573772Y-68368253D01*
X24599150Y-68390736D01*
X24749773Y-68469789D01*
X24749775Y-68469790D01*
X24914944Y-68510500D01*
X25085056Y-68510500D01*
X25250225Y-68469790D01*
X25344289Y-68420421D01*
X25400849Y-68390736D01*
X25400850Y-68390734D01*
X25400852Y-68390734D01*
X25528183Y-68277929D01*
X25624818Y-68137930D01*
X25685140Y-67978872D01*
X25705645Y-67810000D01*
X25685140Y-67641128D01*
X25624818Y-67482070D01*
X25528183Y-67342071D01*
X25444363Y-67267813D01*
X25407238Y-67208626D01*
X25408006Y-67138761D01*
X25444363Y-67082186D01*
X25528183Y-67007929D01*
X25624818Y-66867930D01*
X25685140Y-66708872D01*
X25705645Y-66540000D01*
X25685140Y-66371128D01*
X25624818Y-66212070D01*
X25598563Y-66174034D01*
X25590476Y-66162318D01*
X25528183Y-66072071D01*
X25444363Y-65997813D01*
X25407238Y-65938626D01*
X25408006Y-65868761D01*
X25444363Y-65812186D01*
X25528183Y-65737929D01*
X25624818Y-65597930D01*
X25685140Y-65438872D01*
X25705645Y-65270000D01*
X25685140Y-65101128D01*
X25646788Y-65000000D01*
X29644341Y-65000000D01*
X29664936Y-65235403D01*
X29664938Y-65235413D01*
X29726094Y-65463655D01*
X29726096Y-65463659D01*
X29726097Y-65463663D01*
X29776031Y-65570746D01*
X29825964Y-65677828D01*
X29825965Y-65677830D01*
X29961505Y-65871402D01*
X30128597Y-66038494D01*
X30322169Y-66174034D01*
X30322171Y-66174035D01*
X30536337Y-66273903D01*
X30764592Y-66335063D01*
X30941032Y-66350499D01*
X30941033Y-66350500D01*
X30941034Y-66350500D01*
X31058967Y-66350500D01*
X31058967Y-66350499D01*
X31235408Y-66335063D01*
X31463663Y-66273903D01*
X31677829Y-66174035D01*
X31871401Y-66038495D01*
X32038495Y-65871401D01*
X32174035Y-65677830D01*
X32273903Y-65463663D01*
X32335063Y-65235408D01*
X32355659Y-65000000D01*
X32335063Y-64764592D01*
X32273903Y-64536337D01*
X32174035Y-64322171D01*
X32174034Y-64322169D01*
X32038494Y-64128597D01*
X31871402Y-63961505D01*
X31677830Y-63825965D01*
X31677828Y-63825964D01*
X31570746Y-63776031D01*
X31463663Y-63726097D01*
X31463659Y-63726096D01*
X31463655Y-63726094D01*
X31235413Y-63664938D01*
X31235403Y-63664936D01*
X31058967Y-63649500D01*
X31058966Y-63649500D01*
X30941034Y-63649500D01*
X30941033Y-63649500D01*
X30764596Y-63664936D01*
X30764586Y-63664938D01*
X30536344Y-63726094D01*
X30536335Y-63726098D01*
X30322171Y-63825964D01*
X30322169Y-63825965D01*
X30128597Y-63961505D01*
X29961506Y-64128597D01*
X29961501Y-64128604D01*
X29825967Y-64322165D01*
X29825965Y-64322169D01*
X29726098Y-64536335D01*
X29726094Y-64536344D01*
X29664938Y-64764586D01*
X29664936Y-64764596D01*
X29644341Y-64999999D01*
X29644341Y-65000000D01*
X25646788Y-65000000D01*
X25624818Y-64942070D01*
X25624817Y-64942068D01*
X25624816Y-64942066D01*
X25562017Y-64851088D01*
X25540133Y-64784733D01*
X25557598Y-64717082D01*
X25595175Y-64677545D01*
X25644552Y-64644552D01*
X25688867Y-64578231D01*
X25688867Y-64578229D01*
X25688868Y-64578229D01*
X25700499Y-64519752D01*
X25700500Y-64519750D01*
X25700500Y-63480249D01*
X25700499Y-63480247D01*
X25688868Y-63421770D01*
X25688867Y-63421769D01*
X25644552Y-63355447D01*
X25578230Y-63311132D01*
X25578229Y-63311131D01*
X25519752Y-63299500D01*
X25519748Y-63299500D01*
X24480252Y-63299500D01*
X24480247Y-63299500D01*
X24421770Y-63311131D01*
X24421769Y-63311132D01*
X24355447Y-63355447D01*
X24311132Y-63421769D01*
X24311131Y-63421770D01*
X24299500Y-63480247D01*
X24299500Y-64519752D01*
X24311131Y-64578229D01*
X24311132Y-64578230D01*
X24355447Y-64644552D01*
X24404824Y-64677545D01*
X24449629Y-64731158D01*
X24458336Y-64800483D01*
X24437983Y-64851087D01*
X24375183Y-64942068D01*
X24375182Y-64942068D01*
X24314860Y-65101125D01*
X24314859Y-65101130D01*
X24294355Y-65270000D01*
X24314859Y-65438869D01*
X24314860Y-65438874D01*
X24375182Y-65597931D01*
X24471818Y-65737930D01*
X24555634Y-65812185D01*
X24592761Y-65871374D01*
X24591993Y-65941240D01*
X24555634Y-65997815D01*
X24471818Y-66072069D01*
X24375182Y-66212068D01*
X24314860Y-66371125D01*
X24314859Y-66371130D01*
X24294355Y-66540000D01*
X24314859Y-66708869D01*
X24314860Y-66708874D01*
X24375182Y-66867931D01*
X24427196Y-66943285D01*
X24456319Y-66985477D01*
X24471818Y-67007930D01*
X24555634Y-67082185D01*
X24592761Y-67141374D01*
X24591993Y-67211240D01*
X24555634Y-67267815D01*
X24471818Y-67342069D01*
X24375182Y-67482068D01*
X24314860Y-67641125D01*
X24314859Y-67641130D01*
X24294355Y-67810000D01*
X13325000Y-67810000D01*
X13325000Y-67752694D01*
X13285801Y-67644993D01*
X13214483Y-67560000D01*
X13969160Y-67560000D01*
X13969160Y-67559999D01*
X13928347Y-67425458D01*
X13835496Y-67251746D01*
X13835492Y-67251739D01*
X13710528Y-67099471D01*
X13641990Y-67043223D01*
X13602656Y-66985477D01*
X13600785Y-66915632D01*
X13618607Y-66876928D01*
X13624817Y-66867931D01*
X13624816Y-66867931D01*
X13624818Y-66867930D01*
X13685140Y-66708872D01*
X13705645Y-66540000D01*
X13685140Y-66371128D01*
X13624818Y-66212070D01*
X13598563Y-66174034D01*
X13590476Y-66162318D01*
X13528183Y-66072071D01*
X13444363Y-65997813D01*
X13407238Y-65938626D01*
X13408006Y-65868761D01*
X13444363Y-65812186D01*
X13528183Y-65737929D01*
X13624818Y-65597930D01*
X13685140Y-65438872D01*
X13705645Y-65270000D01*
X13685140Y-65101128D01*
X13624818Y-64942070D01*
X13624817Y-64942068D01*
X13624816Y-64942066D01*
X13562017Y-64851088D01*
X13540133Y-64784733D01*
X13557598Y-64717082D01*
X13595175Y-64677545D01*
X13644552Y-64644552D01*
X13688867Y-64578231D01*
X13688867Y-64578229D01*
X13688868Y-64578229D01*
X13700499Y-64519752D01*
X13700500Y-64519750D01*
X13700500Y-63480249D01*
X13700499Y-63480247D01*
X13688868Y-63421770D01*
X13688867Y-63421769D01*
X13644552Y-63355447D01*
X13578230Y-63311132D01*
X13578229Y-63311131D01*
X13519752Y-63299500D01*
X13519748Y-63299500D01*
X12480252Y-63299500D01*
X12480247Y-63299500D01*
X12421770Y-63311131D01*
X12421769Y-63311132D01*
X12355447Y-63355447D01*
X12311132Y-63421769D01*
X12311131Y-63421770D01*
X12299500Y-63480247D01*
X12299500Y-64519752D01*
X12311131Y-64578229D01*
X12311132Y-64578230D01*
X12355447Y-64644552D01*
X12404824Y-64677545D01*
X12449629Y-64731158D01*
X12458336Y-64800483D01*
X12437983Y-64851087D01*
X12375183Y-64942068D01*
X12375182Y-64942068D01*
X12314860Y-65101125D01*
X12314859Y-65101130D01*
X12294355Y-65270000D01*
X12314859Y-65438869D01*
X12314860Y-65438874D01*
X12375182Y-65597931D01*
X12471818Y-65737930D01*
X12555634Y-65812185D01*
X12592761Y-65871374D01*
X12591993Y-65941240D01*
X12555634Y-65997815D01*
X12471818Y-66072069D01*
X12375182Y-66212068D01*
X12314860Y-66371125D01*
X12314859Y-66371130D01*
X12294355Y-66540000D01*
X12314859Y-66708869D01*
X12314860Y-66708874D01*
X12375182Y-66867930D01*
X12381395Y-66876931D01*
X12403277Y-66943285D01*
X12385811Y-67010937D01*
X12358010Y-67043222D01*
X12289472Y-67099470D01*
X12164507Y-67251739D01*
X12164503Y-67251746D01*
X12071652Y-67425458D01*
X12030839Y-67559999D01*
X871313Y-67559999D01*
X769479Y-67344688D01*
X764829Y-67333459D01*
X741341Y-67267815D01*
X681107Y-67099471D01*
X653240Y-67021588D01*
X649707Y-67009944D01*
X649203Y-67007930D01*
X569219Y-66688617D01*
X566848Y-66676694D01*
X546571Y-66540000D01*
X518245Y-66349037D01*
X517052Y-66336927D01*
X516960Y-66335063D01*
X500649Y-66003032D01*
X500500Y-65996948D01*
X500500Y-65000000D01*
X3644341Y-65000000D01*
X3664936Y-65235403D01*
X3664938Y-65235413D01*
X3726094Y-65463655D01*
X3726096Y-65463659D01*
X3726097Y-65463663D01*
X3776031Y-65570746D01*
X3825964Y-65677828D01*
X3825965Y-65677830D01*
X3961505Y-65871402D01*
X4128597Y-66038494D01*
X4322169Y-66174034D01*
X4322171Y-66174035D01*
X4536337Y-66273903D01*
X4764592Y-66335063D01*
X4941032Y-66350499D01*
X4941033Y-66350500D01*
X4941034Y-66350500D01*
X5058967Y-66350500D01*
X5058967Y-66350499D01*
X5235408Y-66335063D01*
X5463663Y-66273903D01*
X5677829Y-66174035D01*
X5871401Y-66038495D01*
X6038495Y-65871401D01*
X6174035Y-65677830D01*
X6273903Y-65463663D01*
X6335063Y-65235408D01*
X6355659Y-65000000D01*
X6335063Y-64764592D01*
X6273903Y-64536337D01*
X6174035Y-64322171D01*
X6174034Y-64322169D01*
X6038494Y-64128597D01*
X5871402Y-63961505D01*
X5677830Y-63825965D01*
X5677828Y-63825964D01*
X5570746Y-63776031D01*
X5463663Y-63726097D01*
X5463659Y-63726096D01*
X5463655Y-63726094D01*
X5235413Y-63664938D01*
X5235403Y-63664936D01*
X5058967Y-63649500D01*
X5058966Y-63649500D01*
X4941034Y-63649500D01*
X4941033Y-63649500D01*
X4764596Y-63664936D01*
X4764586Y-63664938D01*
X4536344Y-63726094D01*
X4536335Y-63726098D01*
X4322171Y-63825964D01*
X4322169Y-63825965D01*
X4128597Y-63961505D01*
X3961506Y-64128597D01*
X3961501Y-64128604D01*
X3825967Y-64322165D01*
X3825965Y-64322169D01*
X3726098Y-64536335D01*
X3726094Y-64536344D01*
X3664938Y-64764586D01*
X3664936Y-64764596D01*
X3644341Y-64999999D01*
X3644341Y-65000000D01*
X500500Y-65000000D01*
X500500Y-61540000D01*
X2944417Y-61540000D01*
X2964699Y-61745932D01*
X2964700Y-61745934D01*
X3024768Y-61943954D01*
X3122315Y-62126450D01*
X3122317Y-62126452D01*
X3253589Y-62286410D01*
X3350209Y-62365702D01*
X3413550Y-62417685D01*
X3596046Y-62515232D01*
X3794066Y-62575300D01*
X3794065Y-62575300D01*
X3812529Y-62577118D01*
X4000000Y-62595583D01*
X4205934Y-62575300D01*
X4403954Y-62515232D01*
X4586450Y-62417685D01*
X4746410Y-62286410D01*
X4877685Y-62126450D01*
X4975232Y-61943954D01*
X5035300Y-61745934D01*
X5055583Y-61540000D01*
X30944417Y-61540000D01*
X30964699Y-61745932D01*
X30964700Y-61745934D01*
X31024768Y-61943954D01*
X31122315Y-62126450D01*
X31122317Y-62126452D01*
X31253589Y-62286410D01*
X31350209Y-62365702D01*
X31413550Y-62417685D01*
X31596046Y-62515232D01*
X31794066Y-62575300D01*
X31794065Y-62575300D01*
X31812529Y-62577118D01*
X32000000Y-62595583D01*
X32205934Y-62575300D01*
X32403954Y-62515232D01*
X32586450Y-62417685D01*
X32746410Y-62286410D01*
X32877685Y-62126450D01*
X32975232Y-61943954D01*
X33035300Y-61745934D01*
X33055583Y-61540000D01*
X33035300Y-61334066D01*
X32975232Y-61136046D01*
X32877685Y-60953550D01*
X32825702Y-60890209D01*
X32746410Y-60793589D01*
X32586452Y-60662317D01*
X32586453Y-60662317D01*
X32586450Y-60662315D01*
X32403954Y-60564768D01*
X32205934Y-60504700D01*
X32205932Y-60504699D01*
X32205934Y-60504699D01*
X32000000Y-60484417D01*
X31794067Y-60504699D01*
X31596043Y-60564769D01*
X31485898Y-60623643D01*
X31413550Y-60662315D01*
X31413548Y-60662316D01*
X31413547Y-60662317D01*
X31253589Y-60793589D01*
X31122317Y-60953547D01*
X31024769Y-61136043D01*
X30964699Y-61334067D01*
X30944417Y-61540000D01*
X5055583Y-61540000D01*
X5035300Y-61334066D01*
X4975232Y-61136046D01*
X4877685Y-60953550D01*
X4825702Y-60890209D01*
X4746410Y-60793589D01*
X4586452Y-60662317D01*
X4586453Y-60662317D01*
X4586450Y-60662315D01*
X4403954Y-60564768D01*
X4205934Y-60504700D01*
X4205932Y-60504699D01*
X4205934Y-60504699D01*
X4000000Y-60484417D01*
X3794067Y-60504699D01*
X3596043Y-60564769D01*
X3485898Y-60623643D01*
X3413550Y-60662315D01*
X3413548Y-60662316D01*
X3413547Y-60662317D01*
X3253589Y-60793589D01*
X3122317Y-60953547D01*
X3024769Y-61136043D01*
X2964699Y-61334067D01*
X2944417Y-61540000D01*
X500500Y-61540000D01*
X500500Y-59869752D01*
X2949500Y-59869752D01*
X2961131Y-59928229D01*
X2961132Y-59928230D01*
X3005447Y-59994552D01*
X3071769Y-60038867D01*
X3071770Y-60038868D01*
X3130247Y-60050499D01*
X3130250Y-60050500D01*
X3130252Y-60050500D01*
X4869750Y-60050500D01*
X4869751Y-60050499D01*
X4884568Y-60047552D01*
X4928229Y-60038868D01*
X4928229Y-60038867D01*
X4928231Y-60038867D01*
X4994552Y-59994552D01*
X5038867Y-59928231D01*
X5038867Y-59928229D01*
X5038868Y-59928229D01*
X5050499Y-59869752D01*
X30949500Y-59869752D01*
X30961131Y-59928229D01*
X30961132Y-59928230D01*
X31005447Y-59994552D01*
X31071769Y-60038867D01*
X31071770Y-60038868D01*
X31130247Y-60050499D01*
X31130250Y-60050500D01*
X31130252Y-60050500D01*
X32869750Y-60050500D01*
X32869751Y-60050499D01*
X32884568Y-60047552D01*
X32928229Y-60038868D01*
X32928229Y-60038867D01*
X32928231Y-60038867D01*
X32994552Y-59994552D01*
X33038867Y-59928231D01*
X33038867Y-59928229D01*
X33038868Y-59928229D01*
X33050499Y-59869752D01*
X33050500Y-59869750D01*
X33050500Y-58130249D01*
X33050499Y-58130247D01*
X33038868Y-58071770D01*
X33038867Y-58071769D01*
X32994552Y-58005447D01*
X32928230Y-57961132D01*
X32928229Y-57961131D01*
X32869752Y-57949500D01*
X32869748Y-57949500D01*
X31130252Y-57949500D01*
X31130247Y-57949500D01*
X31071770Y-57961131D01*
X31071769Y-57961132D01*
X31005447Y-58005447D01*
X30961132Y-58071769D01*
X30961131Y-58071770D01*
X30949500Y-58130247D01*
X30949500Y-59869752D01*
X5050499Y-59869752D01*
X5050500Y-59869750D01*
X5050500Y-58130249D01*
X5050499Y-58130247D01*
X5038868Y-58071770D01*
X5038867Y-58071769D01*
X4994552Y-58005447D01*
X4928230Y-57961132D01*
X4928229Y-57961131D01*
X4869752Y-57949500D01*
X4869748Y-57949500D01*
X3130252Y-57949500D01*
X3130247Y-57949500D01*
X3071770Y-57961131D01*
X3071769Y-57961132D01*
X3005447Y-58005447D01*
X2961132Y-58071769D01*
X2961131Y-58071770D01*
X2949500Y-58130247D01*
X2949500Y-59869752D01*
X500500Y-59869752D01*
X500500Y-50870000D01*
X25129364Y-50870000D01*
X25186567Y-51083486D01*
X25186570Y-51083492D01*
X25286399Y-51297578D01*
X25421894Y-51491082D01*
X25588917Y-51658105D01*
X25782421Y-51793600D01*
X25996507Y-51893429D01*
X25996516Y-51893433D01*
X26210000Y-51950634D01*
X26210000Y-51055501D01*
X26317685Y-51104680D01*
X26424237Y-51120000D01*
X26495763Y-51120000D01*
X26602315Y-51104680D01*
X26710000Y-51055501D01*
X26710000Y-51950633D01*
X26923483Y-51893433D01*
X26923492Y-51893429D01*
X27137578Y-51793600D01*
X27331082Y-51658105D01*
X27498105Y-51491082D01*
X27633600Y-51297578D01*
X27733429Y-51083492D01*
X27733433Y-51083483D01*
X27766158Y-50961350D01*
X27802522Y-50901690D01*
X27865369Y-50871160D01*
X27934745Y-50879454D01*
X27988623Y-50923939D01*
X28004593Y-50957447D01*
X28024768Y-51023954D01*
X28122315Y-51206450D01*
X28122317Y-51206452D01*
X28253589Y-51366410D01*
X28350209Y-51445702D01*
X28413550Y-51497685D01*
X28596046Y-51595232D01*
X28794066Y-51655300D01*
X28794065Y-51655300D01*
X28812529Y-51657118D01*
X29000000Y-51675583D01*
X29205934Y-51655300D01*
X29403954Y-51595232D01*
X29586450Y-51497685D01*
X29746410Y-51366410D01*
X29877685Y-51206450D01*
X29975232Y-51023954D01*
X30035300Y-50825934D01*
X30055583Y-50620000D01*
X30035300Y-50414066D01*
X29975232Y-50216046D01*
X29877685Y-50033550D01*
X29802897Y-49942420D01*
X29746410Y-49873589D01*
X29628677Y-49776969D01*
X29586450Y-49742315D01*
X29403954Y-49644768D01*
X29205934Y-49584700D01*
X29205932Y-49584699D01*
X29205934Y-49584699D01*
X29000000Y-49564417D01*
X28794067Y-49584699D01*
X28596043Y-49644769D01*
X28485898Y-49703643D01*
X28413550Y-49742315D01*
X28413548Y-49742316D01*
X28413547Y-49742317D01*
X28253589Y-49873589D01*
X28122317Y-50033547D01*
X28024767Y-50216046D01*
X28004593Y-50282552D01*
X27966296Y-50340990D01*
X27902483Y-50369447D01*
X27833416Y-50358886D01*
X27781023Y-50312661D01*
X27766158Y-50278649D01*
X27733433Y-50156516D01*
X27733429Y-50156507D01*
X27633600Y-49942422D01*
X27633599Y-49942420D01*
X27498113Y-49748926D01*
X27498108Y-49748920D01*
X27331082Y-49581894D01*
X27137578Y-49446399D01*
X26923492Y-49346570D01*
X26923486Y-49346567D01*
X26801349Y-49313841D01*
X26741689Y-49277476D01*
X26711160Y-49214629D01*
X26719455Y-49145253D01*
X26763940Y-49091375D01*
X26797444Y-49075407D01*
X26863954Y-49055232D01*
X27046450Y-48957685D01*
X27206410Y-48826410D01*
X27337685Y-48666450D01*
X27435232Y-48483954D01*
X27495300Y-48285934D01*
X27515583Y-48080000D01*
X27944417Y-48080000D01*
X27964699Y-48285932D01*
X27964700Y-48285934D01*
X28024768Y-48483954D01*
X28122315Y-48666450D01*
X28122317Y-48666452D01*
X28253589Y-48826410D01*
X28350209Y-48905702D01*
X28413550Y-48957685D01*
X28596046Y-49055232D01*
X28794066Y-49115300D01*
X28794065Y-49115300D01*
X28812529Y-49117118D01*
X29000000Y-49135583D01*
X29205934Y-49115300D01*
X29403954Y-49055232D01*
X29586450Y-48957685D01*
X29746410Y-48826410D01*
X29877685Y-48666450D01*
X29975232Y-48483954D01*
X30035300Y-48285934D01*
X30055583Y-48080000D01*
X30035300Y-47874066D01*
X29975232Y-47676046D01*
X29877685Y-47493550D01*
X29825702Y-47430209D01*
X29746410Y-47333589D01*
X29586452Y-47202317D01*
X29586453Y-47202317D01*
X29586450Y-47202315D01*
X29403954Y-47104768D01*
X29205934Y-47044700D01*
X29205932Y-47044699D01*
X29205934Y-47044699D01*
X29000000Y-47024417D01*
X28794067Y-47044699D01*
X28596043Y-47104769D01*
X28485898Y-47163643D01*
X28413550Y-47202315D01*
X28413548Y-47202316D01*
X28413547Y-47202317D01*
X28253589Y-47333589D01*
X28122317Y-47493547D01*
X28024769Y-47676043D01*
X27964699Y-47874067D01*
X27944417Y-48080000D01*
X27515583Y-48080000D01*
X27495300Y-47874066D01*
X27435232Y-47676046D01*
X27337685Y-47493550D01*
X27285702Y-47430209D01*
X27206410Y-47333589D01*
X27046452Y-47202317D01*
X27046453Y-47202317D01*
X27046450Y-47202315D01*
X26863954Y-47104768D01*
X26665934Y-47044700D01*
X26665932Y-47044699D01*
X26665934Y-47044699D01*
X26460000Y-47024417D01*
X26254067Y-47044699D01*
X26056043Y-47104769D01*
X25945898Y-47163643D01*
X25873550Y-47202315D01*
X25873548Y-47202316D01*
X25873547Y-47202317D01*
X25713589Y-47333589D01*
X25582317Y-47493547D01*
X25484769Y-47676043D01*
X25424699Y-47874067D01*
X25404417Y-48080000D01*
X25424699Y-48285932D01*
X25424700Y-48285934D01*
X25484768Y-48483954D01*
X25582315Y-48666450D01*
X25582317Y-48666452D01*
X25713589Y-48826410D01*
X25810209Y-48905702D01*
X25873550Y-48957685D01*
X26056046Y-49055232D01*
X26122551Y-49075405D01*
X26180989Y-49113702D01*
X26209446Y-49177514D01*
X26198887Y-49246581D01*
X26152663Y-49298975D01*
X26118650Y-49313841D01*
X25996514Y-49346567D01*
X25996507Y-49346570D01*
X25782422Y-49446399D01*
X25782420Y-49446400D01*
X25588926Y-49581886D01*
X25588920Y-49581891D01*
X25421891Y-49748920D01*
X25421886Y-49748926D01*
X25286400Y-49942420D01*
X25286399Y-49942422D01*
X25186570Y-50156507D01*
X25186567Y-50156513D01*
X25129364Y-50369999D01*
X25129364Y-50370000D01*
X26026314Y-50370000D01*
X26000507Y-50410156D01*
X25960000Y-50548111D01*
X25960000Y-50691889D01*
X26000507Y-50829844D01*
X26026314Y-50870000D01*
X25129364Y-50870000D01*
X500500Y-50870000D01*
X500500Y-40547844D01*
X3000000Y-40547844D01*
X3006401Y-40607372D01*
X3006403Y-40607379D01*
X3056645Y-40742086D01*
X3056649Y-40742093D01*
X3142809Y-40857187D01*
X3142812Y-40857190D01*
X3257905Y-40943349D01*
X3259829Y-40944400D01*
X3261379Y-40945950D01*
X3265011Y-40948669D01*
X3264620Y-40949190D01*
X3309236Y-40993804D01*
X3324089Y-41062077D01*
X3316350Y-41097197D01*
X3314862Y-41101121D01*
X3314859Y-41101130D01*
X3294355Y-41270000D01*
X3314859Y-41438869D01*
X3314860Y-41438874D01*
X3375182Y-41597931D01*
X3471818Y-41737930D01*
X3555634Y-41812185D01*
X3592761Y-41871374D01*
X3591993Y-41941240D01*
X3555634Y-41997815D01*
X3471818Y-42072069D01*
X3375182Y-42212068D01*
X3314860Y-42371125D01*
X3314859Y-42371130D01*
X3294355Y-42540000D01*
X3314859Y-42708869D01*
X3314860Y-42708874D01*
X3375182Y-42867931D01*
X3471818Y-43007930D01*
X3555634Y-43082185D01*
X3592761Y-43141374D01*
X3591993Y-43211240D01*
X3555634Y-43267815D01*
X3471818Y-43342069D01*
X3375182Y-43482068D01*
X3314860Y-43641125D01*
X3314859Y-43641130D01*
X3294355Y-43810000D01*
X3314859Y-43978869D01*
X3314860Y-43978874D01*
X3375182Y-44137931D01*
X3471818Y-44277930D01*
X3555634Y-44352185D01*
X3592761Y-44411374D01*
X3591993Y-44481240D01*
X3555634Y-44537815D01*
X3471818Y-44612069D01*
X3375182Y-44752068D01*
X3314860Y-44911125D01*
X3314859Y-44911130D01*
X3294355Y-45080000D01*
X3314859Y-45248869D01*
X3314860Y-45248874D01*
X3375182Y-45407931D01*
X3471818Y-45547930D01*
X3555634Y-45622185D01*
X3592761Y-45681374D01*
X3591993Y-45751240D01*
X3555634Y-45807815D01*
X3471818Y-45882069D01*
X3375182Y-46022068D01*
X3314860Y-46181125D01*
X3314859Y-46181130D01*
X3294355Y-46350000D01*
X3314859Y-46518869D01*
X3314860Y-46518874D01*
X3375182Y-46677931D01*
X3437475Y-46768177D01*
X3471817Y-46817929D01*
X3577505Y-46911560D01*
X3599150Y-46930736D01*
X3749773Y-47009789D01*
X3749775Y-47009790D01*
X3914944Y-47050500D01*
X4085056Y-47050500D01*
X4250225Y-47009790D01*
X4329692Y-46968081D01*
X4400849Y-46930736D01*
X4400850Y-46930734D01*
X4400852Y-46930734D01*
X4528183Y-46817929D01*
X4624818Y-46677930D01*
X4685140Y-46518872D01*
X4705645Y-46350000D01*
X4685140Y-46181128D01*
X4624818Y-46022070D01*
X4528183Y-45882071D01*
X4444363Y-45807813D01*
X4407238Y-45748626D01*
X4408006Y-45678761D01*
X4444363Y-45622186D01*
X4528183Y-45547929D01*
X4624818Y-45407930D01*
X4666128Y-45299002D01*
X8471396Y-45299002D01*
X8492479Y-45432121D01*
X8492480Y-45432124D01*
X8492481Y-45432126D01*
X8553672Y-45552220D01*
X8553673Y-45552221D01*
X8553676Y-45552225D01*
X8648974Y-45647523D01*
X8648978Y-45647526D01*
X8648980Y-45647528D01*
X8769074Y-45708719D01*
X8769076Y-45708719D01*
X8769078Y-45708720D01*
X8902198Y-45729804D01*
X8902200Y-45729804D01*
X8902202Y-45729804D01*
X9035321Y-45708720D01*
X9035321Y-45708719D01*
X9035326Y-45708719D01*
X9155420Y-45647528D01*
X9250728Y-45552220D01*
X9256954Y-45540000D01*
X25404417Y-45540000D01*
X25424699Y-45745932D01*
X25443471Y-45807815D01*
X25484768Y-45943954D01*
X25582315Y-46126450D01*
X25582317Y-46126452D01*
X25713589Y-46286410D01*
X25791075Y-46350000D01*
X25873550Y-46417685D01*
X26056046Y-46515232D01*
X26254066Y-46575300D01*
X26254065Y-46575300D01*
X26272529Y-46577118D01*
X26460000Y-46595583D01*
X26665934Y-46575300D01*
X26863954Y-46515232D01*
X27046450Y-46417685D01*
X27206410Y-46286410D01*
X27337685Y-46126450D01*
X27435232Y-45943954D01*
X27495300Y-45745934D01*
X27515583Y-45540000D01*
X27495300Y-45334066D01*
X27435232Y-45136046D01*
X27337685Y-44953550D01*
X27274387Y-44876421D01*
X27206410Y-44793589D01*
X27046452Y-44662317D01*
X27046453Y-44662317D01*
X27046450Y-44662315D01*
X26863954Y-44564768D01*
X26665934Y-44504700D01*
X26665932Y-44504699D01*
X26665934Y-44504699D01*
X26460000Y-44484417D01*
X26254067Y-44504699D01*
X26056043Y-44564769D01*
X25967553Y-44612069D01*
X25873550Y-44662315D01*
X25873548Y-44662316D01*
X25873547Y-44662317D01*
X25713589Y-44793589D01*
X25582317Y-44953547D01*
X25582315Y-44953550D01*
X25572600Y-44971726D01*
X25484769Y-45136043D01*
X25424699Y-45334067D01*
X25404417Y-45540000D01*
X9256954Y-45540000D01*
X9311919Y-45432126D01*
X9333004Y-45299000D01*
X9325976Y-45254628D01*
X9311920Y-45165878D01*
X9311919Y-45165876D01*
X9311919Y-45165874D01*
X9250728Y-45045780D01*
X9250726Y-45045778D01*
X9250723Y-45045774D01*
X9155425Y-44950476D01*
X9155421Y-44950473D01*
X9155420Y-44950472D01*
X9068339Y-44906102D01*
X9646896Y-44906102D01*
X9667979Y-45039221D01*
X9667980Y-45039224D01*
X9667981Y-45039226D01*
X9729172Y-45159320D01*
X9729173Y-45159321D01*
X9729176Y-45159325D01*
X9824474Y-45254623D01*
X9824478Y-45254626D01*
X9824480Y-45254628D01*
X9944574Y-45315819D01*
X9944576Y-45315819D01*
X9944578Y-45315820D01*
X10077698Y-45336904D01*
X10077700Y-45336904D01*
X10077702Y-45336904D01*
X10210821Y-45315820D01*
X10210821Y-45315819D01*
X10210826Y-45315819D01*
X10330920Y-45254628D01*
X10426228Y-45159320D01*
X10487419Y-45039226D01*
X10498110Y-44971726D01*
X10508504Y-44906102D01*
X10508504Y-44906097D01*
X10487420Y-44772978D01*
X10487419Y-44772976D01*
X10487419Y-44772974D01*
X10426228Y-44652880D01*
X10426226Y-44652878D01*
X10426223Y-44652874D01*
X10330925Y-44557576D01*
X10330921Y-44557573D01*
X10330920Y-44557572D01*
X10210826Y-44496381D01*
X10210824Y-44496380D01*
X10210821Y-44496379D01*
X10077702Y-44475296D01*
X10077698Y-44475296D01*
X9944578Y-44496379D01*
X9824478Y-44557573D01*
X9824474Y-44557576D01*
X9729176Y-44652874D01*
X9729173Y-44652878D01*
X9667979Y-44772978D01*
X9646896Y-44906097D01*
X9646896Y-44906102D01*
X9068339Y-44906102D01*
X9035326Y-44889281D01*
X9035324Y-44889280D01*
X9035321Y-44889279D01*
X8902202Y-44868196D01*
X8902198Y-44868196D01*
X8769078Y-44889279D01*
X8648978Y-44950473D01*
X8648974Y-44950476D01*
X8553676Y-45045774D01*
X8553673Y-45045778D01*
X8492479Y-45165878D01*
X8471396Y-45298997D01*
X8471396Y-45299002D01*
X4666128Y-45299002D01*
X4685140Y-45248872D01*
X4705645Y-45080000D01*
X4685140Y-44911128D01*
X4624818Y-44752070D01*
X4535866Y-44623202D01*
X7319196Y-44623202D01*
X7340279Y-44756321D01*
X7340280Y-44756324D01*
X7340281Y-44756326D01*
X7397282Y-44868196D01*
X7401473Y-44876421D01*
X7401476Y-44876425D01*
X7496774Y-44971723D01*
X7496778Y-44971726D01*
X7496780Y-44971728D01*
X7616874Y-45032919D01*
X7616876Y-45032919D01*
X7616878Y-45032920D01*
X7749998Y-45054004D01*
X7750000Y-45054004D01*
X7750002Y-45054004D01*
X7883121Y-45032920D01*
X7883121Y-45032919D01*
X7883126Y-45032919D01*
X8003220Y-44971728D01*
X8098528Y-44876420D01*
X8159719Y-44756326D01*
X8160393Y-44752070D01*
X8180804Y-44623202D01*
X8180804Y-44623197D01*
X8159720Y-44490078D01*
X8159719Y-44490076D01*
X8159719Y-44490074D01*
X8098528Y-44369980D01*
X8098526Y-44369978D01*
X8098523Y-44369974D01*
X8003225Y-44274676D01*
X8003221Y-44274673D01*
X8003220Y-44274672D01*
X7883126Y-44213481D01*
X7883124Y-44213480D01*
X7883121Y-44213479D01*
X7750002Y-44192396D01*
X7749998Y-44192396D01*
X7616878Y-44213479D01*
X7496778Y-44274673D01*
X7496774Y-44274676D01*
X7401476Y-44369974D01*
X7401473Y-44369978D01*
X7340279Y-44490078D01*
X7319196Y-44623197D01*
X7319196Y-44623202D01*
X4535866Y-44623202D01*
X4528183Y-44612071D01*
X4444363Y-44537813D01*
X4407238Y-44478626D01*
X4408006Y-44408761D01*
X4444363Y-44352186D01*
X4528183Y-44277929D01*
X4624818Y-44137930D01*
X4685140Y-43978872D01*
X4705645Y-43810000D01*
X4685140Y-43641128D01*
X4624818Y-43482070D01*
X4528183Y-43342071D01*
X4444363Y-43267813D01*
X4407238Y-43208626D01*
X4408006Y-43138761D01*
X4444363Y-43082186D01*
X4528183Y-43007929D01*
X4533656Y-43000000D01*
X25404417Y-43000000D01*
X25424699Y-43205932D01*
X25432096Y-43230315D01*
X25484768Y-43403954D01*
X25582315Y-43586450D01*
X25582317Y-43586452D01*
X25713589Y-43746410D01*
X25791075Y-43810000D01*
X25873550Y-43877685D01*
X26056046Y-43975232D01*
X26254066Y-44035300D01*
X26254065Y-44035300D01*
X26272529Y-44037118D01*
X26460000Y-44055583D01*
X26665934Y-44035300D01*
X26863954Y-43975232D01*
X27046450Y-43877685D01*
X27206410Y-43746410D01*
X27337685Y-43586450D01*
X27416643Y-43438730D01*
X27465605Y-43388888D01*
X27533742Y-43373428D01*
X27599422Y-43397260D01*
X27641791Y-43452818D01*
X27650000Y-43497186D01*
X27650000Y-43897844D01*
X27656401Y-43957372D01*
X27656403Y-43957379D01*
X27706645Y-44092086D01*
X27706649Y-44092093D01*
X27792809Y-44207187D01*
X27792812Y-44207190D01*
X27907906Y-44293350D01*
X27907913Y-44293354D01*
X28042620Y-44343596D01*
X28042627Y-44343598D01*
X28102155Y-44349999D01*
X28102172Y-44350000D01*
X28502813Y-44350000D01*
X28569852Y-44369685D01*
X28615607Y-44422489D01*
X28625551Y-44491647D01*
X28596526Y-44555203D01*
X28561267Y-44583357D01*
X28413550Y-44662315D01*
X28413548Y-44662316D01*
X28413547Y-44662317D01*
X28253589Y-44793589D01*
X28122317Y-44953547D01*
X28122315Y-44953550D01*
X28112600Y-44971726D01*
X28024769Y-45136043D01*
X27964699Y-45334067D01*
X27944417Y-45540000D01*
X27964699Y-45745932D01*
X27983471Y-45807815D01*
X28024768Y-45943954D01*
X28122315Y-46126450D01*
X28122317Y-46126452D01*
X28253589Y-46286410D01*
X28331075Y-46350000D01*
X28413550Y-46417685D01*
X28596046Y-46515232D01*
X28794066Y-46575300D01*
X28794065Y-46575300D01*
X28812529Y-46577118D01*
X29000000Y-46595583D01*
X29205934Y-46575300D01*
X29403954Y-46515232D01*
X29586450Y-46417685D01*
X29746410Y-46286410D01*
X29877685Y-46126450D01*
X29975232Y-45943954D01*
X30035300Y-45745934D01*
X30055583Y-45540000D01*
X30035300Y-45334066D01*
X29975232Y-45136046D01*
X29877685Y-44953550D01*
X29814387Y-44876421D01*
X29746410Y-44793589D01*
X29586452Y-44662317D01*
X29586453Y-44662317D01*
X29586450Y-44662315D01*
X29438732Y-44583357D01*
X29388889Y-44534395D01*
X29373429Y-44466257D01*
X29397261Y-44400578D01*
X29452819Y-44358209D01*
X29497187Y-44350000D01*
X29897828Y-44350000D01*
X29897844Y-44349999D01*
X29957372Y-44343598D01*
X29957379Y-44343596D01*
X30092086Y-44293354D01*
X30092093Y-44293350D01*
X30207187Y-44207190D01*
X30207190Y-44207187D01*
X30293350Y-44092093D01*
X30293354Y-44092086D01*
X30343596Y-43957379D01*
X30343598Y-43957372D01*
X30349999Y-43897844D01*
X30350000Y-43897827D01*
X30350000Y-43250000D01*
X29433686Y-43250000D01*
X29459493Y-43209844D01*
X29500000Y-43071889D01*
X29500000Y-42928111D01*
X29459493Y-42790156D01*
X29433686Y-42750000D01*
X30350000Y-42750000D01*
X30350000Y-42102172D01*
X30349999Y-42102155D01*
X30343598Y-42042627D01*
X30343596Y-42042620D01*
X30293354Y-41907913D01*
X30293350Y-41907906D01*
X30207190Y-41792812D01*
X30207187Y-41792809D01*
X30092093Y-41706649D01*
X30092086Y-41706645D01*
X29957379Y-41656403D01*
X29957372Y-41656401D01*
X29897844Y-41650000D01*
X29250000Y-41650000D01*
X29250000Y-42564498D01*
X29142315Y-42515320D01*
X29035763Y-42500000D01*
X28964237Y-42500000D01*
X28857685Y-42515320D01*
X28750000Y-42564498D01*
X28750000Y-41650000D01*
X28102155Y-41650000D01*
X28042627Y-41656401D01*
X28042620Y-41656403D01*
X27907913Y-41706645D01*
X27907906Y-41706649D01*
X27792812Y-41792809D01*
X27792809Y-41792812D01*
X27706649Y-41907906D01*
X27706645Y-41907913D01*
X27656403Y-42042620D01*
X27656401Y-42042627D01*
X27650000Y-42102155D01*
X27650000Y-42502813D01*
X27630315Y-42569852D01*
X27577511Y-42615607D01*
X27508353Y-42625551D01*
X27444797Y-42596526D01*
X27416642Y-42561267D01*
X27337685Y-42413550D01*
X27285702Y-42350209D01*
X27206410Y-42253589D01*
X27046452Y-42122317D01*
X27046453Y-42122317D01*
X27046450Y-42122315D01*
X26863954Y-42024768D01*
X26665934Y-41964700D01*
X26665932Y-41964699D01*
X26665934Y-41964699D01*
X26460000Y-41944417D01*
X26254067Y-41964699D01*
X26056043Y-42024769D01*
X26022634Y-42042627D01*
X25873550Y-42122315D01*
X25873548Y-42122316D01*
X25873547Y-42122317D01*
X25713589Y-42253589D01*
X25582317Y-42413547D01*
X25484769Y-42596043D01*
X25424699Y-42794067D01*
X25404417Y-43000000D01*
X4533656Y-43000000D01*
X4624818Y-42867930D01*
X4685140Y-42708872D01*
X4705645Y-42540000D01*
X4685140Y-42371128D01*
X4624818Y-42212070D01*
X4528183Y-42072071D01*
X4444363Y-41997813D01*
X4407238Y-41938626D01*
X4408006Y-41868761D01*
X4444363Y-41812186D01*
X4528183Y-41737929D01*
X4624818Y-41597930D01*
X4685140Y-41438872D01*
X4705645Y-41270000D01*
X4685140Y-41101128D01*
X4683653Y-41097209D01*
X4683417Y-41094139D01*
X4683345Y-41093846D01*
X4683393Y-41093833D01*
X4678284Y-41027547D01*
X4711429Y-40966039D01*
X4740175Y-40944398D01*
X4742093Y-40943350D01*
X4857187Y-40857190D01*
X4857190Y-40857187D01*
X4943350Y-40742093D01*
X4943354Y-40742086D01*
X4993596Y-40607379D01*
X4993598Y-40607372D01*
X4999999Y-40547844D01*
X5000000Y-40547827D01*
X5000000Y-40250000D01*
X4214483Y-40250000D01*
X4285801Y-40165007D01*
X4325000Y-40057306D01*
X4325000Y-39942694D01*
X4285801Y-39834993D01*
X4212129Y-39747195D01*
X4112871Y-39689888D01*
X4028436Y-39675000D01*
X3971564Y-39675000D01*
X3887129Y-39689888D01*
X3787871Y-39747195D01*
X3714199Y-39834993D01*
X3675000Y-39942694D01*
X3675000Y-40057306D01*
X3714199Y-40165007D01*
X3785517Y-40250000D01*
X3000000Y-40250000D01*
X3000000Y-40547844D01*
X500500Y-40547844D01*
X500500Y-39750000D01*
X3000000Y-39750000D01*
X3750000Y-39750000D01*
X3750000Y-39000000D01*
X4250000Y-39000000D01*
X4250000Y-39750000D01*
X5000000Y-39750000D01*
X5000000Y-39452172D01*
X4999999Y-39452155D01*
X4993598Y-39392627D01*
X4993596Y-39392620D01*
X4943354Y-39257913D01*
X4943350Y-39257906D01*
X4857190Y-39142812D01*
X4857187Y-39142809D01*
X4742093Y-39056649D01*
X4742086Y-39056645D01*
X4607379Y-39006403D01*
X4607372Y-39006401D01*
X4547844Y-39000000D01*
X4250000Y-39000000D01*
X3750000Y-39000000D01*
X3452155Y-39000000D01*
X3392627Y-39006401D01*
X3392620Y-39006403D01*
X3257913Y-39056645D01*
X3257906Y-39056649D01*
X3142812Y-39142809D01*
X3142809Y-39142812D01*
X3056649Y-39257906D01*
X3056645Y-39257913D01*
X3006403Y-39392620D01*
X3006401Y-39392627D01*
X3000000Y-39452155D01*
X3000000Y-39750000D01*
X500500Y-39750000D01*
X500500Y-33144500D01*
X520185Y-33077461D01*
X572989Y-33031706D01*
X624500Y-33020500D01*
X962374Y-33020500D01*
X1004538Y-33015380D01*
X1088872Y-33005140D01*
X1247930Y-32944818D01*
X1387929Y-32848183D01*
X1500734Y-32720852D01*
X1579790Y-32570225D01*
X1620500Y-32405056D01*
X1620500Y-32405055D01*
X3549500Y-32405055D01*
X3590210Y-32570226D01*
X3669263Y-32720849D01*
X3669266Y-32720852D01*
X3782071Y-32848183D01*
X3872318Y-32910476D01*
X3922068Y-32944817D01*
X3922069Y-32944817D01*
X3922070Y-32944818D01*
X4081128Y-33005140D01*
X4157028Y-33014356D01*
X4207626Y-33020500D01*
X4207628Y-33020500D01*
X4892374Y-33020500D01*
X4934538Y-33015380D01*
X5018872Y-33005140D01*
X5177930Y-32944818D01*
X5317929Y-32848183D01*
X5430734Y-32720852D01*
X5509790Y-32570225D01*
X5550500Y-32405056D01*
X5550500Y-32234944D01*
X5509790Y-32069775D01*
X5509789Y-32069773D01*
X5430736Y-31919150D01*
X5411560Y-31897505D01*
X5317929Y-31791817D01*
X5268177Y-31757475D01*
X5177931Y-31695182D01*
X5018874Y-31634860D01*
X5018868Y-31634859D01*
X4892374Y-31619500D01*
X4892372Y-31619500D01*
X4207628Y-31619500D01*
X4207626Y-31619500D01*
X4081131Y-31634859D01*
X4081125Y-31634860D01*
X3922068Y-31695182D01*
X3782072Y-31791816D01*
X3669263Y-31919150D01*
X3590210Y-32069773D01*
X3549500Y-32234944D01*
X3549500Y-32405055D01*
X1620500Y-32405055D01*
X1620500Y-32234944D01*
X1579790Y-32069775D01*
X1579789Y-32069773D01*
X1500736Y-31919150D01*
X1481560Y-31897505D01*
X1387929Y-31791817D01*
X1338177Y-31757475D01*
X1247931Y-31695182D01*
X1128909Y-31650044D01*
X1073206Y-31607866D01*
X1049149Y-31542269D01*
X1064376Y-31474079D01*
X1114051Y-31424945D01*
X1125407Y-31419549D01*
X1190233Y-31392698D01*
X1310451Y-31300451D01*
X1402698Y-31180233D01*
X1460687Y-31040236D01*
X1480466Y-30890000D01*
X1460687Y-30739764D01*
X1402698Y-30599767D01*
X1310451Y-30479549D01*
X1190233Y-30387302D01*
X1190229Y-30387300D01*
X1126801Y-30361027D01*
X1050236Y-30329313D01*
X1036171Y-30327461D01*
X937727Y-30314500D01*
X937720Y-30314500D01*
X862280Y-30314500D01*
X862272Y-30314500D01*
X749764Y-30329313D01*
X749760Y-30329314D01*
X671952Y-30361543D01*
X602483Y-30369012D01*
X540004Y-30337736D01*
X504352Y-30277647D01*
X500500Y-30246982D01*
X500500Y-25753017D01*
X520185Y-25685978D01*
X572989Y-25640223D01*
X642147Y-25630279D01*
X671949Y-25638455D01*
X749764Y-25670687D01*
X862280Y-25685500D01*
X862287Y-25685500D01*
X937713Y-25685500D01*
X937720Y-25685500D01*
X1050236Y-25670687D01*
X1190233Y-25612698D01*
X1310451Y-25520451D01*
X1402698Y-25400233D01*
X1460687Y-25260236D01*
X1480466Y-25110000D01*
X1460687Y-24959764D01*
X1402698Y-24819767D01*
X1310451Y-24699549D01*
X1190233Y-24607302D01*
X1190229Y-24607300D01*
X1125427Y-24580458D01*
X1071024Y-24536617D01*
X1048959Y-24470323D01*
X1066238Y-24402623D01*
X1117376Y-24355013D01*
X1128896Y-24349960D01*
X1247930Y-24304818D01*
X1387929Y-24208183D01*
X1500734Y-24080852D01*
X1579790Y-23930225D01*
X1620500Y-23765056D01*
X1620500Y-23765055D01*
X3549500Y-23765055D01*
X3590210Y-23930226D01*
X3669263Y-24080849D01*
X3669266Y-24080852D01*
X3782071Y-24208183D01*
X3872318Y-24270476D01*
X3922068Y-24304817D01*
X3922069Y-24304817D01*
X3922070Y-24304818D01*
X4081128Y-24365140D01*
X4157028Y-24374356D01*
X4207626Y-24380500D01*
X4207628Y-24380500D01*
X4892374Y-24380500D01*
X4934538Y-24375380D01*
X5018872Y-24365140D01*
X5177930Y-24304818D01*
X5317929Y-24208183D01*
X5430734Y-24080852D01*
X5509790Y-23930225D01*
X5550500Y-23765056D01*
X5550500Y-23594944D01*
X5509790Y-23429775D01*
X5495896Y-23403302D01*
X27654196Y-23403302D01*
X27675279Y-23536421D01*
X27675280Y-23536424D01*
X27675281Y-23536426D01*
X27736472Y-23656520D01*
X27736473Y-23656521D01*
X27736476Y-23656525D01*
X27831774Y-23751823D01*
X27831778Y-23751826D01*
X27831780Y-23751828D01*
X27951874Y-23813019D01*
X27951876Y-23813019D01*
X27951878Y-23813020D01*
X28084998Y-23834104D01*
X28085000Y-23834104D01*
X28085002Y-23834104D01*
X28218121Y-23813020D01*
X28218121Y-23813019D01*
X28218126Y-23813019D01*
X28338220Y-23751828D01*
X28433528Y-23656520D01*
X28494719Y-23536426D01*
X28515804Y-23403300D01*
X28496140Y-23279148D01*
X28494720Y-23270178D01*
X28494719Y-23270176D01*
X28494719Y-23270174D01*
X28433528Y-23150080D01*
X28433526Y-23150078D01*
X28433523Y-23150074D01*
X28338225Y-23054776D01*
X28338221Y-23054773D01*
X28338220Y-23054772D01*
X28218126Y-22993581D01*
X28218124Y-22993580D01*
X28218121Y-22993579D01*
X28085002Y-22972496D01*
X28084998Y-22972496D01*
X27951878Y-22993579D01*
X27831778Y-23054773D01*
X27831774Y-23054776D01*
X27736476Y-23150074D01*
X27736473Y-23150078D01*
X27675279Y-23270178D01*
X27654196Y-23403297D01*
X27654196Y-23403302D01*
X5495896Y-23403302D01*
X5495893Y-23403297D01*
X5430736Y-23279150D01*
X5411560Y-23257505D01*
X5317929Y-23151817D01*
X5268177Y-23117475D01*
X5177931Y-23055182D01*
X5018874Y-22994860D01*
X5018868Y-22994859D01*
X4892374Y-22979500D01*
X4892372Y-22979500D01*
X4207628Y-22979500D01*
X4207626Y-22979500D01*
X4081131Y-22994859D01*
X4081125Y-22994860D01*
X3922068Y-23055182D01*
X3782072Y-23151816D01*
X3669263Y-23279150D01*
X3590210Y-23429773D01*
X3549500Y-23594944D01*
X3549500Y-23765055D01*
X1620500Y-23765055D01*
X1620500Y-23594944D01*
X1579790Y-23429775D01*
X1565893Y-23403297D01*
X1500736Y-23279150D01*
X1481560Y-23257505D01*
X1387929Y-23151817D01*
X1338177Y-23117475D01*
X1247931Y-23055182D01*
X1088874Y-22994860D01*
X1088868Y-22994859D01*
X962374Y-22979500D01*
X962372Y-22979500D01*
X624500Y-22979500D01*
X557461Y-22959815D01*
X511706Y-22907011D01*
X500500Y-22855500D01*
X500500Y-21668002D01*
X8354096Y-21668002D01*
X8375179Y-21801121D01*
X8375180Y-21801124D01*
X8375181Y-21801126D01*
X8436372Y-21921220D01*
X8436373Y-21921221D01*
X8436376Y-21921225D01*
X8531674Y-22016523D01*
X8531678Y-22016526D01*
X8531680Y-22016528D01*
X8651774Y-22077719D01*
X8651776Y-22077719D01*
X8651778Y-22077720D01*
X8784898Y-22098804D01*
X8784900Y-22098804D01*
X8784902Y-22098804D01*
X8918021Y-22077720D01*
X8918021Y-22077719D01*
X8918026Y-22077719D01*
X9038120Y-22016528D01*
X9133428Y-21921220D01*
X9194619Y-21801126D01*
X9215704Y-21668000D01*
X9194619Y-21534874D01*
X9133428Y-21414780D01*
X9133426Y-21414778D01*
X9133423Y-21414774D01*
X9038125Y-21319476D01*
X9038121Y-21319473D01*
X9038120Y-21319472D01*
X8918026Y-21258281D01*
X8918024Y-21258280D01*
X8918021Y-21258279D01*
X8784902Y-21237196D01*
X8784898Y-21237196D01*
X8651778Y-21258279D01*
X8531678Y-21319473D01*
X8531674Y-21319476D01*
X8436376Y-21414774D01*
X8436373Y-21414778D01*
X8375179Y-21534878D01*
X8354096Y-21667997D01*
X8354096Y-21668002D01*
X500500Y-21668002D01*
X500500Y-13540000D01*
X2944417Y-13540000D01*
X2964699Y-13745932D01*
X2964700Y-13745934D01*
X3024768Y-13943954D01*
X3122315Y-14126450D01*
X3122317Y-14126452D01*
X3253589Y-14286410D01*
X3350209Y-14365702D01*
X3413550Y-14417685D01*
X3596046Y-14515232D01*
X3794066Y-14575300D01*
X3794065Y-14575300D01*
X3812529Y-14577118D01*
X4000000Y-14595583D01*
X4205934Y-14575300D01*
X4403954Y-14515232D01*
X4586450Y-14417685D01*
X4746410Y-14286410D01*
X4877685Y-14126450D01*
X4975232Y-13943954D01*
X5035300Y-13745934D01*
X5055583Y-13540000D01*
X30944417Y-13540000D01*
X30964699Y-13745932D01*
X30964700Y-13745934D01*
X31024768Y-13943954D01*
X31122315Y-14126450D01*
X31122317Y-14126452D01*
X31253589Y-14286410D01*
X31350209Y-14365702D01*
X31413550Y-14417685D01*
X31596046Y-14515232D01*
X31794066Y-14575300D01*
X31794065Y-14575300D01*
X31812529Y-14577118D01*
X32000000Y-14595583D01*
X32205934Y-14575300D01*
X32403954Y-14515232D01*
X32586450Y-14417685D01*
X32746410Y-14286410D01*
X32877685Y-14126450D01*
X32975232Y-13943954D01*
X33035300Y-13745934D01*
X33055583Y-13540000D01*
X33035300Y-13334066D01*
X32975232Y-13136046D01*
X32877685Y-12953550D01*
X32825702Y-12890209D01*
X32746410Y-12793589D01*
X32586452Y-12662317D01*
X32586453Y-12662317D01*
X32586450Y-12662315D01*
X32403954Y-12564768D01*
X32205934Y-12504700D01*
X32205932Y-12504699D01*
X32205934Y-12504699D01*
X32000000Y-12484417D01*
X31794067Y-12504699D01*
X31596043Y-12564769D01*
X31485898Y-12623643D01*
X31413550Y-12662315D01*
X31413548Y-12662316D01*
X31413547Y-12662317D01*
X31253589Y-12793589D01*
X31122317Y-12953547D01*
X31024769Y-13136043D01*
X30964699Y-13334067D01*
X30944417Y-13540000D01*
X5055583Y-13540000D01*
X5035300Y-13334066D01*
X4975232Y-13136046D01*
X4877685Y-12953550D01*
X4825702Y-12890209D01*
X4746410Y-12793589D01*
X4586452Y-12662317D01*
X4586453Y-12662317D01*
X4586450Y-12662315D01*
X4403954Y-12564768D01*
X4205934Y-12504700D01*
X4205932Y-12504699D01*
X4205934Y-12504699D01*
X4000000Y-12484417D01*
X3794067Y-12504699D01*
X3596043Y-12564769D01*
X3485898Y-12623643D01*
X3413550Y-12662315D01*
X3413548Y-12662316D01*
X3413547Y-12662317D01*
X3253589Y-12793589D01*
X3122317Y-12953547D01*
X3024769Y-13136043D01*
X2964699Y-13334067D01*
X2944417Y-13540000D01*
X500500Y-13540000D01*
X500500Y-11869752D01*
X2949500Y-11869752D01*
X2961131Y-11928229D01*
X2961132Y-11928230D01*
X3005447Y-11994552D01*
X3071769Y-12038867D01*
X3071770Y-12038868D01*
X3130247Y-12050499D01*
X3130250Y-12050500D01*
X3130252Y-12050500D01*
X4869750Y-12050500D01*
X4869751Y-12050499D01*
X4884568Y-12047552D01*
X4928229Y-12038868D01*
X4928229Y-12038867D01*
X4928231Y-12038867D01*
X4994552Y-11994552D01*
X5038867Y-11928231D01*
X5038867Y-11928229D01*
X5038868Y-11928229D01*
X5050499Y-11869752D01*
X5050500Y-11869750D01*
X5050500Y-10130249D01*
X5050499Y-10130247D01*
X5038868Y-10071770D01*
X5038867Y-10071769D01*
X4994552Y-10005447D01*
X4928230Y-9961132D01*
X4928229Y-9961131D01*
X4869752Y-9949500D01*
X4869748Y-9949500D01*
X3130252Y-9949500D01*
X3130247Y-9949500D01*
X3071770Y-9961131D01*
X3071769Y-9961132D01*
X3005447Y-10005447D01*
X2961132Y-10071769D01*
X2961131Y-10071770D01*
X2949500Y-10130247D01*
X2949500Y-11869752D01*
X500500Y-11869752D01*
X500500Y-7700000D01*
X11400000Y-7700000D01*
X11400000Y-13100000D01*
X24600000Y-13100000D01*
X24600000Y-11869752D01*
X30949500Y-11869752D01*
X30961131Y-11928229D01*
X30961132Y-11928230D01*
X31005447Y-11994552D01*
X31071769Y-12038867D01*
X31071770Y-12038868D01*
X31130247Y-12050499D01*
X31130250Y-12050500D01*
X31130252Y-12050500D01*
X32869750Y-12050500D01*
X32869751Y-12050499D01*
X32884568Y-12047552D01*
X32928229Y-12038868D01*
X32928229Y-12038867D01*
X32928231Y-12038867D01*
X32994552Y-11994552D01*
X33038867Y-11928231D01*
X33038867Y-11928229D01*
X33038868Y-11928229D01*
X33050499Y-11869752D01*
X33050500Y-11869750D01*
X33050500Y-10130249D01*
X33050499Y-10130247D01*
X33038868Y-10071770D01*
X33038867Y-10071769D01*
X32994552Y-10005447D01*
X32928230Y-9961132D01*
X32928229Y-9961131D01*
X32869752Y-9949500D01*
X32869748Y-9949500D01*
X31130252Y-9949500D01*
X31130247Y-9949500D01*
X31071770Y-9961131D01*
X31071769Y-9961132D01*
X31005447Y-10005447D01*
X30961132Y-10071769D01*
X30961131Y-10071770D01*
X30949500Y-10130247D01*
X30949500Y-11869752D01*
X24600000Y-11869752D01*
X24600000Y-7700000D01*
X11400000Y-7700000D01*
X500500Y-7700000D01*
X500500Y-5000000D01*
X3644341Y-5000000D01*
X3664936Y-5235403D01*
X3664938Y-5235413D01*
X3726094Y-5463655D01*
X3726096Y-5463659D01*
X3726097Y-5463663D01*
X3776031Y-5570746D01*
X3825964Y-5677828D01*
X3825965Y-5677830D01*
X3961505Y-5871402D01*
X4128597Y-6038494D01*
X4322169Y-6174034D01*
X4322171Y-6174035D01*
X4536337Y-6273903D01*
X4764592Y-6335063D01*
X4941032Y-6350499D01*
X4941033Y-6350500D01*
X4941034Y-6350500D01*
X5058967Y-6350500D01*
X5058967Y-6350499D01*
X5235408Y-6335063D01*
X5463663Y-6273903D01*
X5677829Y-6174035D01*
X5871401Y-6038495D01*
X6038495Y-5871401D01*
X6174035Y-5677830D01*
X6273903Y-5463663D01*
X6335063Y-5235408D01*
X6355659Y-5000000D01*
X29644341Y-5000000D01*
X29664936Y-5235403D01*
X29664938Y-5235413D01*
X29726094Y-5463655D01*
X29726096Y-5463659D01*
X29726097Y-5463663D01*
X29776031Y-5570746D01*
X29825964Y-5677828D01*
X29825965Y-5677830D01*
X29961505Y-5871402D01*
X30128597Y-6038494D01*
X30322169Y-6174034D01*
X30322171Y-6174035D01*
X30536337Y-6273903D01*
X30764592Y-6335063D01*
X30941032Y-6350499D01*
X30941033Y-6350500D01*
X30941034Y-6350500D01*
X31058967Y-6350500D01*
X31058967Y-6350499D01*
X31235408Y-6335063D01*
X31463663Y-6273903D01*
X31677829Y-6174035D01*
X31871401Y-6038495D01*
X32038495Y-5871401D01*
X32174035Y-5677830D01*
X32273903Y-5463663D01*
X32335063Y-5235408D01*
X32355659Y-5000000D01*
X32335063Y-4764592D01*
X32273903Y-4536337D01*
X32174035Y-4322171D01*
X32174034Y-4322169D01*
X32038494Y-4128597D01*
X31871402Y-3961505D01*
X31677830Y-3825965D01*
X31677828Y-3825964D01*
X31570746Y-3776031D01*
X31463663Y-3726097D01*
X31463659Y-3726096D01*
X31463655Y-3726094D01*
X31235413Y-3664938D01*
X31235403Y-3664936D01*
X31058967Y-3649500D01*
X31058966Y-3649500D01*
X30941034Y-3649500D01*
X30941033Y-3649500D01*
X30764596Y-3664936D01*
X30764586Y-3664938D01*
X30536344Y-3726094D01*
X30536335Y-3726098D01*
X30322171Y-3825964D01*
X30322169Y-3825965D01*
X30128597Y-3961505D01*
X29961506Y-4128597D01*
X29961501Y-4128604D01*
X29825967Y-4322165D01*
X29825965Y-4322169D01*
X29726098Y-4536335D01*
X29726094Y-4536344D01*
X29664938Y-4764586D01*
X29664936Y-4764596D01*
X29644341Y-4999999D01*
X29644341Y-5000000D01*
X6355659Y-5000000D01*
X6335063Y-4764592D01*
X6273903Y-4536337D01*
X6174035Y-4322171D01*
X6174034Y-4322169D01*
X6038494Y-4128597D01*
X5871402Y-3961505D01*
X5677830Y-3825965D01*
X5677828Y-3825964D01*
X5570746Y-3776031D01*
X5463663Y-3726097D01*
X5463659Y-3726096D01*
X5463655Y-3726094D01*
X5235413Y-3664938D01*
X5235403Y-3664936D01*
X5058967Y-3649500D01*
X5058966Y-3649500D01*
X4941034Y-3649500D01*
X4941033Y-3649500D01*
X4764596Y-3664936D01*
X4764586Y-3664938D01*
X4536344Y-3726094D01*
X4536335Y-3726098D01*
X4322171Y-3825964D01*
X4322169Y-3825965D01*
X4128597Y-3961505D01*
X3961506Y-4128597D01*
X3961501Y-4128604D01*
X3825967Y-4322165D01*
X3825965Y-4322169D01*
X3726098Y-4536335D01*
X3726094Y-4536344D01*
X3664938Y-4764586D01*
X3664936Y-4764596D01*
X3644341Y-4999999D01*
X3644341Y-5000000D01*
X500500Y-5000000D01*
X500500Y-4003051D01*
X500649Y-3996967D01*
X516960Y-3664938D01*
X517052Y-3663068D01*
X518245Y-3650962D01*
X518462Y-3649500D01*
X566849Y-3323296D01*
X569218Y-3311385D01*
X649710Y-2990043D01*
X653240Y-2978411D01*
X764835Y-2666525D01*
X769476Y-2655318D01*
X911124Y-2355828D01*
X916840Y-2345136D01*
X1087145Y-2060998D01*
X1093888Y-2050905D01*
X1291232Y-1784818D01*
X1298935Y-1775433D01*
X1521405Y-1529975D01*
X1529975Y-1521405D01*
X1775433Y-1298935D01*
X1784818Y-1291232D01*
X2050905Y-1093888D01*
X2060998Y-1087145D01*
X2345136Y-916840D01*
X2355828Y-911124D01*
X2655318Y-769476D01*
X2666525Y-764835D01*
X2978412Y-653239D01*
X2990043Y-649710D01*
X3311385Y-569218D01*
X3323296Y-566849D01*
X3650962Y-518244D01*
X3663068Y-517052D01*
X3996967Y-500648D01*
X4003051Y-500500D01*
X4065892Y-500500D01*
X31934108Y-500500D01*
X31996949Y-500500D01*
X32003032Y-500648D01*
G37*
%TD.AperFunction*%
%TD*%
M02*
