%TF.GenerationSoftware,KiCad,Pcbnew,7.0.11+dfsg-1build4*%
%TF.CreationDate,2026-06-27T10:55:31+00:00*%
%TF.ProjectId,stratosdrone,73747261-746f-4736-9472-6f6e652e6b69,rev?*%
%TF.SameCoordinates,Original*%
%TF.FileFunction,Legend,Bot*%
%TF.FilePolarity,Positive*%
%FSLAX46Y46*%
G04 Gerber Fmt 4.6, Leading zero omitted, Abs format (unit mm)*
G04 Created by KiCad (PCBNEW 7.0.11+dfsg-1build4) date 2026-06-27 10:55:31*
%MOMM*%
%LPD*%
G01*
G04 APERTURE LIST*
%ADD10C,0.150000*%
%ADD11C,0.120000*%
%ADD12C,0.200000*%
G04 APERTURE END LIST*
D10*
X8329887Y-38346009D02*
X8663220Y-38346009D01*
X8663220Y-38869819D02*
X8663220Y-37869819D01*
X8663220Y-37869819D02*
X8187030Y-37869819D01*
X7329887Y-38869819D02*
X7806077Y-38869819D01*
X7806077Y-38869819D02*
X7806077Y-37869819D01*
X6806077Y-37869819D02*
X6615601Y-37869819D01*
X6615601Y-37869819D02*
X6520363Y-37917438D01*
X6520363Y-37917438D02*
X6425125Y-38012676D01*
X6425125Y-38012676D02*
X6377506Y-38203152D01*
X6377506Y-38203152D02*
X6377506Y-38536485D01*
X6377506Y-38536485D02*
X6425125Y-38726961D01*
X6425125Y-38726961D02*
X6520363Y-38822200D01*
X6520363Y-38822200D02*
X6615601Y-38869819D01*
X6615601Y-38869819D02*
X6806077Y-38869819D01*
X6806077Y-38869819D02*
X6901315Y-38822200D01*
X6901315Y-38822200D02*
X6996553Y-38726961D01*
X6996553Y-38726961D02*
X7044172Y-38536485D01*
X7044172Y-38536485D02*
X7044172Y-38203152D01*
X7044172Y-38203152D02*
X6996553Y-38012676D01*
X6996553Y-38012676D02*
X6901315Y-37917438D01*
X6901315Y-37917438D02*
X6806077Y-37869819D01*
X6044172Y-37869819D02*
X5806077Y-38869819D01*
X5806077Y-38869819D02*
X5615601Y-38155533D01*
X5615601Y-38155533D02*
X5425125Y-38869819D01*
X5425125Y-38869819D02*
X5187030Y-37869819D01*
X4044172Y-38488866D02*
X3282268Y-38488866D01*
X3663220Y-38869819D02*
X3663220Y-38107914D01*
X2187029Y-37869819D02*
X1615601Y-37869819D01*
X1901315Y-38869819D02*
X1901315Y-37869819D01*
X1139410Y-38869819D02*
X1234648Y-38822200D01*
X1234648Y-38822200D02*
X1282267Y-38774580D01*
X1282267Y-38774580D02*
X1329886Y-38679342D01*
X1329886Y-38679342D02*
X1329886Y-38393628D01*
X1329886Y-38393628D02*
X1282267Y-38298390D01*
X1282267Y-38298390D02*
X1234648Y-38250771D01*
X1234648Y-38250771D02*
X1139410Y-38203152D01*
X1139410Y-38203152D02*
X996553Y-38203152D01*
X996553Y-38203152D02*
X901315Y-38250771D01*
X901315Y-38250771D02*
X853696Y-38298390D01*
X853696Y-38298390D02*
X806077Y-38393628D01*
X806077Y-38393628D02*
X806077Y-38679342D01*
X806077Y-38679342D02*
X853696Y-38774580D01*
X853696Y-38774580D02*
X901315Y-38822200D01*
X901315Y-38822200D02*
X996553Y-38869819D01*
X996553Y-38869819D02*
X1139410Y-38869819D01*
X44172Y-38346009D02*
X377505Y-38346009D01*
X377505Y-38869819D02*
X377505Y-37869819D01*
X377505Y-37869819D02*
X-98684Y-37869819D01*
X17749051Y-41201200D02*
X17796670Y-41248820D01*
X17796670Y-41248820D02*
X17939527Y-41296439D01*
X17939527Y-41296439D02*
X18034765Y-41296439D01*
X18034765Y-41296439D02*
X18177622Y-41248820D01*
X18177622Y-41248820D02*
X18272860Y-41153581D01*
X18272860Y-41153581D02*
X18320479Y-41058343D01*
X18320479Y-41058343D02*
X18368098Y-40867867D01*
X18368098Y-40867867D02*
X18368098Y-40725010D01*
X18368098Y-40725010D02*
X18320479Y-40534534D01*
X18320479Y-40534534D02*
X18272860Y-40439296D01*
X18272860Y-40439296D02*
X18177622Y-40344058D01*
X18177622Y-40344058D02*
X18034765Y-40296439D01*
X18034765Y-40296439D02*
X17939527Y-40296439D01*
X17939527Y-40296439D02*
X17796670Y-40344058D01*
X17796670Y-40344058D02*
X17749051Y-40391677D01*
X16796670Y-41296439D02*
X17368098Y-41296439D01*
X17082384Y-41296439D02*
X17082384Y-40296439D01*
X17082384Y-40296439D02*
X17177622Y-40439296D01*
X17177622Y-40439296D02*
X17272860Y-40534534D01*
X17272860Y-40534534D02*
X17368098Y-40582153D01*
X15939527Y-40296439D02*
X16130003Y-40296439D01*
X16130003Y-40296439D02*
X16225241Y-40344058D01*
X16225241Y-40344058D02*
X16272860Y-40391677D01*
X16272860Y-40391677D02*
X16368098Y-40534534D01*
X16368098Y-40534534D02*
X16415717Y-40725010D01*
X16415717Y-40725010D02*
X16415717Y-41105962D01*
X16415717Y-41105962D02*
X16368098Y-41201200D01*
X16368098Y-41201200D02*
X16320479Y-41248820D01*
X16320479Y-41248820D02*
X16225241Y-41296439D01*
X16225241Y-41296439D02*
X16034765Y-41296439D01*
X16034765Y-41296439D02*
X15939527Y-41248820D01*
X15939527Y-41248820D02*
X15891908Y-41201200D01*
X15891908Y-41201200D02*
X15844289Y-41105962D01*
X15844289Y-41105962D02*
X15844289Y-40867867D01*
X15844289Y-40867867D02*
X15891908Y-40772629D01*
X15891908Y-40772629D02*
X15939527Y-40725010D01*
X15939527Y-40725010D02*
X16034765Y-40677391D01*
X16034765Y-40677391D02*
X16225241Y-40677391D01*
X16225241Y-40677391D02*
X16320479Y-40725010D01*
X16320479Y-40725010D02*
X16368098Y-40772629D01*
X16368098Y-40772629D02*
X16415717Y-40867867D01*
X14951664Y-39184929D02*
X14999283Y-39232549D01*
X14999283Y-39232549D02*
X15142140Y-39280168D01*
X15142140Y-39280168D02*
X15237378Y-39280168D01*
X15237378Y-39280168D02*
X15380235Y-39232549D01*
X15380235Y-39232549D02*
X15475473Y-39137310D01*
X15475473Y-39137310D02*
X15523092Y-39042072D01*
X15523092Y-39042072D02*
X15570711Y-38851596D01*
X15570711Y-38851596D02*
X15570711Y-38708739D01*
X15570711Y-38708739D02*
X15523092Y-38518263D01*
X15523092Y-38518263D02*
X15475473Y-38423025D01*
X15475473Y-38423025D02*
X15380235Y-38327787D01*
X15380235Y-38327787D02*
X15237378Y-38280168D01*
X15237378Y-38280168D02*
X15142140Y-38280168D01*
X15142140Y-38280168D02*
X14999283Y-38327787D01*
X14999283Y-38327787D02*
X14951664Y-38375406D01*
X14570711Y-38375406D02*
X14523092Y-38327787D01*
X14523092Y-38327787D02*
X14427854Y-38280168D01*
X14427854Y-38280168D02*
X14189759Y-38280168D01*
X14189759Y-38280168D02*
X14094521Y-38327787D01*
X14094521Y-38327787D02*
X14046902Y-38375406D01*
X14046902Y-38375406D02*
X13999283Y-38470644D01*
X13999283Y-38470644D02*
X13999283Y-38565882D01*
X13999283Y-38565882D02*
X14046902Y-38708739D01*
X14046902Y-38708739D02*
X14618330Y-39280168D01*
X14618330Y-39280168D02*
X13999283Y-39280168D01*
X13618330Y-38375406D02*
X13570711Y-38327787D01*
X13570711Y-38327787D02*
X13475473Y-38280168D01*
X13475473Y-38280168D02*
X13237378Y-38280168D01*
X13237378Y-38280168D02*
X13142140Y-38327787D01*
X13142140Y-38327787D02*
X13094521Y-38375406D01*
X13094521Y-38375406D02*
X13046902Y-38470644D01*
X13046902Y-38470644D02*
X13046902Y-38565882D01*
X13046902Y-38565882D02*
X13094521Y-38708739D01*
X13094521Y-38708739D02*
X13665949Y-39280168D01*
X13665949Y-39280168D02*
X13046902Y-39280168D01*
X9842857Y-48799580D02*
X9890476Y-48847200D01*
X9890476Y-48847200D02*
X10033333Y-48894819D01*
X10033333Y-48894819D02*
X10128571Y-48894819D01*
X10128571Y-48894819D02*
X10271428Y-48847200D01*
X10271428Y-48847200D02*
X10366666Y-48751961D01*
X10366666Y-48751961D02*
X10414285Y-48656723D01*
X10414285Y-48656723D02*
X10461904Y-48466247D01*
X10461904Y-48466247D02*
X10461904Y-48323390D01*
X10461904Y-48323390D02*
X10414285Y-48132914D01*
X10414285Y-48132914D02*
X10366666Y-48037676D01*
X10366666Y-48037676D02*
X10271428Y-47942438D01*
X10271428Y-47942438D02*
X10128571Y-47894819D01*
X10128571Y-47894819D02*
X10033333Y-47894819D01*
X10033333Y-47894819D02*
X9890476Y-47942438D01*
X9890476Y-47942438D02*
X9842857Y-47990057D01*
X9461904Y-47990057D02*
X9414285Y-47942438D01*
X9414285Y-47942438D02*
X9319047Y-47894819D01*
X9319047Y-47894819D02*
X9080952Y-47894819D01*
X9080952Y-47894819D02*
X8985714Y-47942438D01*
X8985714Y-47942438D02*
X8938095Y-47990057D01*
X8938095Y-47990057D02*
X8890476Y-48085295D01*
X8890476Y-48085295D02*
X8890476Y-48180533D01*
X8890476Y-48180533D02*
X8938095Y-48323390D01*
X8938095Y-48323390D02*
X9509523Y-48894819D01*
X9509523Y-48894819D02*
X8890476Y-48894819D01*
X8319047Y-48323390D02*
X8414285Y-48275771D01*
X8414285Y-48275771D02*
X8461904Y-48228152D01*
X8461904Y-48228152D02*
X8509523Y-48132914D01*
X8509523Y-48132914D02*
X8509523Y-48085295D01*
X8509523Y-48085295D02*
X8461904Y-47990057D01*
X8461904Y-47990057D02*
X8414285Y-47942438D01*
X8414285Y-47942438D02*
X8319047Y-47894819D01*
X8319047Y-47894819D02*
X8128571Y-47894819D01*
X8128571Y-47894819D02*
X8033333Y-47942438D01*
X8033333Y-47942438D02*
X7985714Y-47990057D01*
X7985714Y-47990057D02*
X7938095Y-48085295D01*
X7938095Y-48085295D02*
X7938095Y-48132914D01*
X7938095Y-48132914D02*
X7985714Y-48228152D01*
X7985714Y-48228152D02*
X8033333Y-48275771D01*
X8033333Y-48275771D02*
X8128571Y-48323390D01*
X8128571Y-48323390D02*
X8319047Y-48323390D01*
X8319047Y-48323390D02*
X8414285Y-48371009D01*
X8414285Y-48371009D02*
X8461904Y-48418628D01*
X8461904Y-48418628D02*
X8509523Y-48513866D01*
X8509523Y-48513866D02*
X8509523Y-48704342D01*
X8509523Y-48704342D02*
X8461904Y-48799580D01*
X8461904Y-48799580D02*
X8414285Y-48847200D01*
X8414285Y-48847200D02*
X8319047Y-48894819D01*
X8319047Y-48894819D02*
X8128571Y-48894819D01*
X8128571Y-48894819D02*
X8033333Y-48847200D01*
X8033333Y-48847200D02*
X7985714Y-48799580D01*
X7985714Y-48799580D02*
X7938095Y-48704342D01*
X7938095Y-48704342D02*
X7938095Y-48513866D01*
X7938095Y-48513866D02*
X7985714Y-48418628D01*
X7985714Y-48418628D02*
X8033333Y-48371009D01*
X8033333Y-48371009D02*
X8128571Y-48323390D01*
X19761904Y-30354819D02*
X19761904Y-31164342D01*
X19761904Y-31164342D02*
X19714285Y-31259580D01*
X19714285Y-31259580D02*
X19666666Y-31307200D01*
X19666666Y-31307200D02*
X19571428Y-31354819D01*
X19571428Y-31354819D02*
X19380952Y-31354819D01*
X19380952Y-31354819D02*
X19285714Y-31307200D01*
X19285714Y-31307200D02*
X19238095Y-31259580D01*
X19238095Y-31259580D02*
X19190476Y-31164342D01*
X19190476Y-31164342D02*
X19190476Y-30354819D01*
X18571428Y-30783390D02*
X18666666Y-30735771D01*
X18666666Y-30735771D02*
X18714285Y-30688152D01*
X18714285Y-30688152D02*
X18761904Y-30592914D01*
X18761904Y-30592914D02*
X18761904Y-30545295D01*
X18761904Y-30545295D02*
X18714285Y-30450057D01*
X18714285Y-30450057D02*
X18666666Y-30402438D01*
X18666666Y-30402438D02*
X18571428Y-30354819D01*
X18571428Y-30354819D02*
X18380952Y-30354819D01*
X18380952Y-30354819D02*
X18285714Y-30402438D01*
X18285714Y-30402438D02*
X18238095Y-30450057D01*
X18238095Y-30450057D02*
X18190476Y-30545295D01*
X18190476Y-30545295D02*
X18190476Y-30592914D01*
X18190476Y-30592914D02*
X18238095Y-30688152D01*
X18238095Y-30688152D02*
X18285714Y-30735771D01*
X18285714Y-30735771D02*
X18380952Y-30783390D01*
X18380952Y-30783390D02*
X18571428Y-30783390D01*
X18571428Y-30783390D02*
X18666666Y-30831009D01*
X18666666Y-30831009D02*
X18714285Y-30878628D01*
X18714285Y-30878628D02*
X18761904Y-30973866D01*
X18761904Y-30973866D02*
X18761904Y-31164342D01*
X18761904Y-31164342D02*
X18714285Y-31259580D01*
X18714285Y-31259580D02*
X18666666Y-31307200D01*
X18666666Y-31307200D02*
X18571428Y-31354819D01*
X18571428Y-31354819D02*
X18380952Y-31354819D01*
X18380952Y-31354819D02*
X18285714Y-31307200D01*
X18285714Y-31307200D02*
X18238095Y-31259580D01*
X18238095Y-31259580D02*
X18190476Y-31164342D01*
X18190476Y-31164342D02*
X18190476Y-30973866D01*
X18190476Y-30973866D02*
X18238095Y-30878628D01*
X18238095Y-30878628D02*
X18285714Y-30831009D01*
X18285714Y-30831009D02*
X18380952Y-30783390D01*
X23228873Y-42439373D02*
X23276492Y-42486993D01*
X23276492Y-42486993D02*
X23419349Y-42534612D01*
X23419349Y-42534612D02*
X23514587Y-42534612D01*
X23514587Y-42534612D02*
X23657444Y-42486993D01*
X23657444Y-42486993D02*
X23752682Y-42391754D01*
X23752682Y-42391754D02*
X23800301Y-42296516D01*
X23800301Y-42296516D02*
X23847920Y-42106040D01*
X23847920Y-42106040D02*
X23847920Y-41963183D01*
X23847920Y-41963183D02*
X23800301Y-41772707D01*
X23800301Y-41772707D02*
X23752682Y-41677469D01*
X23752682Y-41677469D02*
X23657444Y-41582231D01*
X23657444Y-41582231D02*
X23514587Y-41534612D01*
X23514587Y-41534612D02*
X23419349Y-41534612D01*
X23419349Y-41534612D02*
X23276492Y-41582231D01*
X23276492Y-41582231D02*
X23228873Y-41629850D01*
X22847920Y-41629850D02*
X22800301Y-41582231D01*
X22800301Y-41582231D02*
X22705063Y-41534612D01*
X22705063Y-41534612D02*
X22466968Y-41534612D01*
X22466968Y-41534612D02*
X22371730Y-41582231D01*
X22371730Y-41582231D02*
X22324111Y-41629850D01*
X22324111Y-41629850D02*
X22276492Y-41725088D01*
X22276492Y-41725088D02*
X22276492Y-41820326D01*
X22276492Y-41820326D02*
X22324111Y-41963183D01*
X22324111Y-41963183D02*
X22895539Y-42534612D01*
X22895539Y-42534612D02*
X22276492Y-42534612D01*
X21419349Y-41534612D02*
X21609825Y-41534612D01*
X21609825Y-41534612D02*
X21705063Y-41582231D01*
X21705063Y-41582231D02*
X21752682Y-41629850D01*
X21752682Y-41629850D02*
X21847920Y-41772707D01*
X21847920Y-41772707D02*
X21895539Y-41963183D01*
X21895539Y-41963183D02*
X21895539Y-42344135D01*
X21895539Y-42344135D02*
X21847920Y-42439373D01*
X21847920Y-42439373D02*
X21800301Y-42486993D01*
X21800301Y-42486993D02*
X21705063Y-42534612D01*
X21705063Y-42534612D02*
X21514587Y-42534612D01*
X21514587Y-42534612D02*
X21419349Y-42486993D01*
X21419349Y-42486993D02*
X21371730Y-42439373D01*
X21371730Y-42439373D02*
X21324111Y-42344135D01*
X21324111Y-42344135D02*
X21324111Y-42106040D01*
X21324111Y-42106040D02*
X21371730Y-42010802D01*
X21371730Y-42010802D02*
X21419349Y-41963183D01*
X21419349Y-41963183D02*
X21514587Y-41915564D01*
X21514587Y-41915564D02*
X21705063Y-41915564D01*
X21705063Y-41915564D02*
X21800301Y-41963183D01*
X21800301Y-41963183D02*
X21847920Y-42010802D01*
X21847920Y-42010802D02*
X21895539Y-42106040D01*
X14195651Y-62125198D02*
X14243270Y-62172818D01*
X14243270Y-62172818D02*
X14386127Y-62220437D01*
X14386127Y-62220437D02*
X14481365Y-62220437D01*
X14481365Y-62220437D02*
X14624222Y-62172818D01*
X14624222Y-62172818D02*
X14719460Y-62077579D01*
X14719460Y-62077579D02*
X14767079Y-61982341D01*
X14767079Y-61982341D02*
X14814698Y-61791865D01*
X14814698Y-61791865D02*
X14814698Y-61649008D01*
X14814698Y-61649008D02*
X14767079Y-61458532D01*
X14767079Y-61458532D02*
X14719460Y-61363294D01*
X14719460Y-61363294D02*
X14624222Y-61268056D01*
X14624222Y-61268056D02*
X14481365Y-61220437D01*
X14481365Y-61220437D02*
X14386127Y-61220437D01*
X14386127Y-61220437D02*
X14243270Y-61268056D01*
X14243270Y-61268056D02*
X14195651Y-61315675D01*
X13814698Y-61315675D02*
X13767079Y-61268056D01*
X13767079Y-61268056D02*
X13671841Y-61220437D01*
X13671841Y-61220437D02*
X13433746Y-61220437D01*
X13433746Y-61220437D02*
X13338508Y-61268056D01*
X13338508Y-61268056D02*
X13290889Y-61315675D01*
X13290889Y-61315675D02*
X13243270Y-61410913D01*
X13243270Y-61410913D02*
X13243270Y-61506151D01*
X13243270Y-61506151D02*
X13290889Y-61649008D01*
X13290889Y-61649008D02*
X13862317Y-62220437D01*
X13862317Y-62220437D02*
X13243270Y-62220437D01*
X24002985Y-35098611D02*
X24050604Y-35146231D01*
X24050604Y-35146231D02*
X24193461Y-35193850D01*
X24193461Y-35193850D02*
X24288699Y-35193850D01*
X24288699Y-35193850D02*
X24431556Y-35146231D01*
X24431556Y-35146231D02*
X24526794Y-35050992D01*
X24526794Y-35050992D02*
X24574413Y-34955754D01*
X24574413Y-34955754D02*
X24622032Y-34765278D01*
X24622032Y-34765278D02*
X24622032Y-34622421D01*
X24622032Y-34622421D02*
X24574413Y-34431945D01*
X24574413Y-34431945D02*
X24526794Y-34336707D01*
X24526794Y-34336707D02*
X24431556Y-34241469D01*
X24431556Y-34241469D02*
X24288699Y-34193850D01*
X24288699Y-34193850D02*
X24193461Y-34193850D01*
X24193461Y-34193850D02*
X24050604Y-34241469D01*
X24050604Y-34241469D02*
X24002985Y-34289088D01*
X23622032Y-34289088D02*
X23574413Y-34241469D01*
X23574413Y-34241469D02*
X23479175Y-34193850D01*
X23479175Y-34193850D02*
X23241080Y-34193850D01*
X23241080Y-34193850D02*
X23145842Y-34241469D01*
X23145842Y-34241469D02*
X23098223Y-34289088D01*
X23098223Y-34289088D02*
X23050604Y-34384326D01*
X23050604Y-34384326D02*
X23050604Y-34479564D01*
X23050604Y-34479564D02*
X23098223Y-34622421D01*
X23098223Y-34622421D02*
X23669651Y-35193850D01*
X23669651Y-35193850D02*
X23050604Y-35193850D01*
X22145842Y-34193850D02*
X22622032Y-34193850D01*
X22622032Y-34193850D02*
X22669651Y-34670040D01*
X22669651Y-34670040D02*
X22622032Y-34622421D01*
X22622032Y-34622421D02*
X22526794Y-34574802D01*
X22526794Y-34574802D02*
X22288699Y-34574802D01*
X22288699Y-34574802D02*
X22193461Y-34622421D01*
X22193461Y-34622421D02*
X22145842Y-34670040D01*
X22145842Y-34670040D02*
X22098223Y-34765278D01*
X22098223Y-34765278D02*
X22098223Y-35003373D01*
X22098223Y-35003373D02*
X22145842Y-35098611D01*
X22145842Y-35098611D02*
X22193461Y-35146231D01*
X22193461Y-35146231D02*
X22288699Y-35193850D01*
X22288699Y-35193850D02*
X22526794Y-35193850D01*
X22526794Y-35193850D02*
X22622032Y-35146231D01*
X22622032Y-35146231D02*
X22669651Y-35098611D01*
X20831284Y-34916479D02*
X20878903Y-34964099D01*
X20878903Y-34964099D02*
X21021760Y-35011718D01*
X21021760Y-35011718D02*
X21116998Y-35011718D01*
X21116998Y-35011718D02*
X21259855Y-34964099D01*
X21259855Y-34964099D02*
X21355093Y-34868860D01*
X21355093Y-34868860D02*
X21402712Y-34773622D01*
X21402712Y-34773622D02*
X21450331Y-34583146D01*
X21450331Y-34583146D02*
X21450331Y-34440289D01*
X21450331Y-34440289D02*
X21402712Y-34249813D01*
X21402712Y-34249813D02*
X21355093Y-34154575D01*
X21355093Y-34154575D02*
X21259855Y-34059337D01*
X21259855Y-34059337D02*
X21116998Y-34011718D01*
X21116998Y-34011718D02*
X21021760Y-34011718D01*
X21021760Y-34011718D02*
X20878903Y-34059337D01*
X20878903Y-34059337D02*
X20831284Y-34106956D01*
X19878903Y-35011718D02*
X20450331Y-35011718D01*
X20164617Y-35011718D02*
X20164617Y-34011718D01*
X20164617Y-34011718D02*
X20259855Y-34154575D01*
X20259855Y-34154575D02*
X20355093Y-34249813D01*
X20355093Y-34249813D02*
X20450331Y-34297432D01*
X18974141Y-34011718D02*
X19450331Y-34011718D01*
X19450331Y-34011718D02*
X19497950Y-34487908D01*
X19497950Y-34487908D02*
X19450331Y-34440289D01*
X19450331Y-34440289D02*
X19355093Y-34392670D01*
X19355093Y-34392670D02*
X19116998Y-34392670D01*
X19116998Y-34392670D02*
X19021760Y-34440289D01*
X19021760Y-34440289D02*
X18974141Y-34487908D01*
X18974141Y-34487908D02*
X18926522Y-34583146D01*
X18926522Y-34583146D02*
X18926522Y-34821241D01*
X18926522Y-34821241D02*
X18974141Y-34916479D01*
X18974141Y-34916479D02*
X19021760Y-34964099D01*
X19021760Y-34964099D02*
X19116998Y-35011718D01*
X19116998Y-35011718D02*
X19355093Y-35011718D01*
X19355093Y-35011718D02*
X19450331Y-34964099D01*
X19450331Y-34964099D02*
X19497950Y-34916479D01*
X22513962Y-61549195D02*
X22561581Y-61596815D01*
X22561581Y-61596815D02*
X22704438Y-61644434D01*
X22704438Y-61644434D02*
X22799676Y-61644434D01*
X22799676Y-61644434D02*
X22942533Y-61596815D01*
X22942533Y-61596815D02*
X23037771Y-61501576D01*
X23037771Y-61501576D02*
X23085390Y-61406338D01*
X23085390Y-61406338D02*
X23133009Y-61215862D01*
X23133009Y-61215862D02*
X23133009Y-61073005D01*
X23133009Y-61073005D02*
X23085390Y-60882529D01*
X23085390Y-60882529D02*
X23037771Y-60787291D01*
X23037771Y-60787291D02*
X22942533Y-60692053D01*
X22942533Y-60692053D02*
X22799676Y-60644434D01*
X22799676Y-60644434D02*
X22704438Y-60644434D01*
X22704438Y-60644434D02*
X22561581Y-60692053D01*
X22561581Y-60692053D02*
X22513962Y-60739672D01*
X22180628Y-60644434D02*
X21561581Y-60644434D01*
X21561581Y-60644434D02*
X21894914Y-61025386D01*
X21894914Y-61025386D02*
X21752057Y-61025386D01*
X21752057Y-61025386D02*
X21656819Y-61073005D01*
X21656819Y-61073005D02*
X21609200Y-61120624D01*
X21609200Y-61120624D02*
X21561581Y-61215862D01*
X21561581Y-61215862D02*
X21561581Y-61453957D01*
X21561581Y-61453957D02*
X21609200Y-61549195D01*
X21609200Y-61549195D02*
X21656819Y-61596815D01*
X21656819Y-61596815D02*
X21752057Y-61644434D01*
X21752057Y-61644434D02*
X22037771Y-61644434D01*
X22037771Y-61644434D02*
X22133009Y-61596815D01*
X22133009Y-61596815D02*
X22180628Y-61549195D01*
X30142857Y-22699580D02*
X30190476Y-22747200D01*
X30190476Y-22747200D02*
X30333333Y-22794819D01*
X30333333Y-22794819D02*
X30428571Y-22794819D01*
X30428571Y-22794819D02*
X30571428Y-22747200D01*
X30571428Y-22747200D02*
X30666666Y-22651961D01*
X30666666Y-22651961D02*
X30714285Y-22556723D01*
X30714285Y-22556723D02*
X30761904Y-22366247D01*
X30761904Y-22366247D02*
X30761904Y-22223390D01*
X30761904Y-22223390D02*
X30714285Y-22032914D01*
X30714285Y-22032914D02*
X30666666Y-21937676D01*
X30666666Y-21937676D02*
X30571428Y-21842438D01*
X30571428Y-21842438D02*
X30428571Y-21794819D01*
X30428571Y-21794819D02*
X30333333Y-21794819D01*
X30333333Y-21794819D02*
X30190476Y-21842438D01*
X30190476Y-21842438D02*
X30142857Y-21890057D01*
X29809523Y-21794819D02*
X29190476Y-21794819D01*
X29190476Y-21794819D02*
X29523809Y-22175771D01*
X29523809Y-22175771D02*
X29380952Y-22175771D01*
X29380952Y-22175771D02*
X29285714Y-22223390D01*
X29285714Y-22223390D02*
X29238095Y-22271009D01*
X29238095Y-22271009D02*
X29190476Y-22366247D01*
X29190476Y-22366247D02*
X29190476Y-22604342D01*
X29190476Y-22604342D02*
X29238095Y-22699580D01*
X29238095Y-22699580D02*
X29285714Y-22747200D01*
X29285714Y-22747200D02*
X29380952Y-22794819D01*
X29380952Y-22794819D02*
X29666666Y-22794819D01*
X29666666Y-22794819D02*
X29761904Y-22747200D01*
X29761904Y-22747200D02*
X29809523Y-22699580D01*
X28285714Y-21794819D02*
X28761904Y-21794819D01*
X28761904Y-21794819D02*
X28809523Y-22271009D01*
X28809523Y-22271009D02*
X28761904Y-22223390D01*
X28761904Y-22223390D02*
X28666666Y-22175771D01*
X28666666Y-22175771D02*
X28428571Y-22175771D01*
X28428571Y-22175771D02*
X28333333Y-22223390D01*
X28333333Y-22223390D02*
X28285714Y-22271009D01*
X28285714Y-22271009D02*
X28238095Y-22366247D01*
X28238095Y-22366247D02*
X28238095Y-22604342D01*
X28238095Y-22604342D02*
X28285714Y-22699580D01*
X28285714Y-22699580D02*
X28333333Y-22747200D01*
X28333333Y-22747200D02*
X28428571Y-22794819D01*
X28428571Y-22794819D02*
X28666666Y-22794819D01*
X28666666Y-22794819D02*
X28761904Y-22747200D01*
X28761904Y-22747200D02*
X28809523Y-22699580D01*
X17272175Y-39722635D02*
X17319794Y-39770255D01*
X17319794Y-39770255D02*
X17462651Y-39817874D01*
X17462651Y-39817874D02*
X17557889Y-39817874D01*
X17557889Y-39817874D02*
X17700746Y-39770255D01*
X17700746Y-39770255D02*
X17795984Y-39675016D01*
X17795984Y-39675016D02*
X17843603Y-39579778D01*
X17843603Y-39579778D02*
X17891222Y-39389302D01*
X17891222Y-39389302D02*
X17891222Y-39246445D01*
X17891222Y-39246445D02*
X17843603Y-39055969D01*
X17843603Y-39055969D02*
X17795984Y-38960731D01*
X17795984Y-38960731D02*
X17700746Y-38865493D01*
X17700746Y-38865493D02*
X17557889Y-38817874D01*
X17557889Y-38817874D02*
X17462651Y-38817874D01*
X17462651Y-38817874D02*
X17319794Y-38865493D01*
X17319794Y-38865493D02*
X17272175Y-38913112D01*
X16319794Y-39817874D02*
X16891222Y-39817874D01*
X16605508Y-39817874D02*
X16605508Y-38817874D01*
X16605508Y-38817874D02*
X16700746Y-38960731D01*
X16700746Y-38960731D02*
X16795984Y-39055969D01*
X16795984Y-39055969D02*
X16891222Y-39103588D01*
X15367413Y-39817874D02*
X15938841Y-39817874D01*
X15653127Y-39817874D02*
X15653127Y-38817874D01*
X15653127Y-38817874D02*
X15748365Y-38960731D01*
X15748365Y-38960731D02*
X15843603Y-39055969D01*
X15843603Y-39055969D02*
X15938841Y-39103588D01*
X36549003Y-41738683D02*
X36596622Y-41786303D01*
X36596622Y-41786303D02*
X36739479Y-41833922D01*
X36739479Y-41833922D02*
X36834717Y-41833922D01*
X36834717Y-41833922D02*
X36977574Y-41786303D01*
X36977574Y-41786303D02*
X37072812Y-41691064D01*
X37072812Y-41691064D02*
X37120431Y-41595826D01*
X37120431Y-41595826D02*
X37168050Y-41405350D01*
X37168050Y-41405350D02*
X37168050Y-41262493D01*
X37168050Y-41262493D02*
X37120431Y-41072017D01*
X37120431Y-41072017D02*
X37072812Y-40976779D01*
X37072812Y-40976779D02*
X36977574Y-40881541D01*
X36977574Y-40881541D02*
X36834717Y-40833922D01*
X36834717Y-40833922D02*
X36739479Y-40833922D01*
X36739479Y-40833922D02*
X36596622Y-40881541D01*
X36596622Y-40881541D02*
X36549003Y-40929160D01*
X35596622Y-41833922D02*
X36168050Y-41833922D01*
X35882336Y-41833922D02*
X35882336Y-40833922D01*
X35882336Y-40833922D02*
X35977574Y-40976779D01*
X35977574Y-40976779D02*
X36072812Y-41072017D01*
X36072812Y-41072017D02*
X36168050Y-41119636D01*
X34977574Y-40833922D02*
X34882336Y-40833922D01*
X34882336Y-40833922D02*
X34787098Y-40881541D01*
X34787098Y-40881541D02*
X34739479Y-40929160D01*
X34739479Y-40929160D02*
X34691860Y-41024398D01*
X34691860Y-41024398D02*
X34644241Y-41214874D01*
X34644241Y-41214874D02*
X34644241Y-41452969D01*
X34644241Y-41452969D02*
X34691860Y-41643445D01*
X34691860Y-41643445D02*
X34739479Y-41738683D01*
X34739479Y-41738683D02*
X34787098Y-41786303D01*
X34787098Y-41786303D02*
X34882336Y-41833922D01*
X34882336Y-41833922D02*
X34977574Y-41833922D01*
X34977574Y-41833922D02*
X35072812Y-41786303D01*
X35072812Y-41786303D02*
X35120431Y-41738683D01*
X35120431Y-41738683D02*
X35168050Y-41643445D01*
X35168050Y-41643445D02*
X35215669Y-41452969D01*
X35215669Y-41452969D02*
X35215669Y-41214874D01*
X35215669Y-41214874D02*
X35168050Y-41024398D01*
X35168050Y-41024398D02*
X35120431Y-40929160D01*
X35120431Y-40929160D02*
X35072812Y-40881541D01*
X35072812Y-40881541D02*
X34977574Y-40833922D01*
X19761904Y-42554819D02*
X19761904Y-43364342D01*
X19761904Y-43364342D02*
X19714285Y-43459580D01*
X19714285Y-43459580D02*
X19666666Y-43507200D01*
X19666666Y-43507200D02*
X19571428Y-43554819D01*
X19571428Y-43554819D02*
X19380952Y-43554819D01*
X19380952Y-43554819D02*
X19285714Y-43507200D01*
X19285714Y-43507200D02*
X19238095Y-43459580D01*
X19238095Y-43459580D02*
X19190476Y-43364342D01*
X19190476Y-43364342D02*
X19190476Y-42554819D01*
X18666666Y-43554819D02*
X18476190Y-43554819D01*
X18476190Y-43554819D02*
X18380952Y-43507200D01*
X18380952Y-43507200D02*
X18333333Y-43459580D01*
X18333333Y-43459580D02*
X18238095Y-43316723D01*
X18238095Y-43316723D02*
X18190476Y-43126247D01*
X18190476Y-43126247D02*
X18190476Y-42745295D01*
X18190476Y-42745295D02*
X18238095Y-42650057D01*
X18238095Y-42650057D02*
X18285714Y-42602438D01*
X18285714Y-42602438D02*
X18380952Y-42554819D01*
X18380952Y-42554819D02*
X18571428Y-42554819D01*
X18571428Y-42554819D02*
X18666666Y-42602438D01*
X18666666Y-42602438D02*
X18714285Y-42650057D01*
X18714285Y-42650057D02*
X18761904Y-42745295D01*
X18761904Y-42745295D02*
X18761904Y-42983390D01*
X18761904Y-42983390D02*
X18714285Y-43078628D01*
X18714285Y-43078628D02*
X18666666Y-43126247D01*
X18666666Y-43126247D02*
X18571428Y-43173866D01*
X18571428Y-43173866D02*
X18380952Y-43173866D01*
X18380952Y-43173866D02*
X18285714Y-43126247D01*
X18285714Y-43126247D02*
X18238095Y-43078628D01*
X18238095Y-43078628D02*
X18190476Y-42983390D01*
X12603791Y-34880865D02*
X12651410Y-34928485D01*
X12651410Y-34928485D02*
X12794267Y-34976104D01*
X12794267Y-34976104D02*
X12889505Y-34976104D01*
X12889505Y-34976104D02*
X13032362Y-34928485D01*
X13032362Y-34928485D02*
X13127600Y-34833246D01*
X13127600Y-34833246D02*
X13175219Y-34738008D01*
X13175219Y-34738008D02*
X13222838Y-34547532D01*
X13222838Y-34547532D02*
X13222838Y-34404675D01*
X13222838Y-34404675D02*
X13175219Y-34214199D01*
X13175219Y-34214199D02*
X13127600Y-34118961D01*
X13127600Y-34118961D02*
X13032362Y-34023723D01*
X13032362Y-34023723D02*
X12889505Y-33976104D01*
X12889505Y-33976104D02*
X12794267Y-33976104D01*
X12794267Y-33976104D02*
X12651410Y-34023723D01*
X12651410Y-34023723D02*
X12603791Y-34071342D01*
X11699029Y-33976104D02*
X12175219Y-33976104D01*
X12175219Y-33976104D02*
X12222838Y-34452294D01*
X12222838Y-34452294D02*
X12175219Y-34404675D01*
X12175219Y-34404675D02*
X12079981Y-34357056D01*
X12079981Y-34357056D02*
X11841886Y-34357056D01*
X11841886Y-34357056D02*
X11746648Y-34404675D01*
X11746648Y-34404675D02*
X11699029Y-34452294D01*
X11699029Y-34452294D02*
X11651410Y-34547532D01*
X11651410Y-34547532D02*
X11651410Y-34785627D01*
X11651410Y-34785627D02*
X11699029Y-34880865D01*
X11699029Y-34880865D02*
X11746648Y-34928485D01*
X11746648Y-34928485D02*
X11841886Y-34976104D01*
X11841886Y-34976104D02*
X12079981Y-34976104D01*
X12079981Y-34976104D02*
X12175219Y-34928485D01*
X12175219Y-34928485D02*
X12222838Y-34880865D01*
X10742857Y-6999580D02*
X10790476Y-7047200D01*
X10790476Y-7047200D02*
X10933333Y-7094819D01*
X10933333Y-7094819D02*
X11028571Y-7094819D01*
X11028571Y-7094819D02*
X11171428Y-7047200D01*
X11171428Y-7047200D02*
X11266666Y-6951961D01*
X11266666Y-6951961D02*
X11314285Y-6856723D01*
X11314285Y-6856723D02*
X11361904Y-6666247D01*
X11361904Y-6666247D02*
X11361904Y-6523390D01*
X11361904Y-6523390D02*
X11314285Y-6332914D01*
X11314285Y-6332914D02*
X11266666Y-6237676D01*
X11266666Y-6237676D02*
X11171428Y-6142438D01*
X11171428Y-6142438D02*
X11028571Y-6094819D01*
X11028571Y-6094819D02*
X10933333Y-6094819D01*
X10933333Y-6094819D02*
X10790476Y-6142438D01*
X10790476Y-6142438D02*
X10742857Y-6190057D01*
X10409523Y-6094819D02*
X9790476Y-6094819D01*
X9790476Y-6094819D02*
X10123809Y-6475771D01*
X10123809Y-6475771D02*
X9980952Y-6475771D01*
X9980952Y-6475771D02*
X9885714Y-6523390D01*
X9885714Y-6523390D02*
X9838095Y-6571009D01*
X9838095Y-6571009D02*
X9790476Y-6666247D01*
X9790476Y-6666247D02*
X9790476Y-6904342D01*
X9790476Y-6904342D02*
X9838095Y-6999580D01*
X9838095Y-6999580D02*
X9885714Y-7047200D01*
X9885714Y-7047200D02*
X9980952Y-7094819D01*
X9980952Y-7094819D02*
X10266666Y-7094819D01*
X10266666Y-7094819D02*
X10361904Y-7047200D01*
X10361904Y-7047200D02*
X10409523Y-6999580D01*
X8933333Y-6428152D02*
X8933333Y-7094819D01*
X9171428Y-6047200D02*
X9409523Y-6761485D01*
X9409523Y-6761485D02*
X8790476Y-6761485D01*
X21664347Y-39150498D02*
X21711966Y-39198118D01*
X21711966Y-39198118D02*
X21854823Y-39245737D01*
X21854823Y-39245737D02*
X21950061Y-39245737D01*
X21950061Y-39245737D02*
X22092918Y-39198118D01*
X22092918Y-39198118D02*
X22188156Y-39102879D01*
X22188156Y-39102879D02*
X22235775Y-39007641D01*
X22235775Y-39007641D02*
X22283394Y-38817165D01*
X22283394Y-38817165D02*
X22283394Y-38674308D01*
X22283394Y-38674308D02*
X22235775Y-38483832D01*
X22235775Y-38483832D02*
X22188156Y-38388594D01*
X22188156Y-38388594D02*
X22092918Y-38293356D01*
X22092918Y-38293356D02*
X21950061Y-38245737D01*
X21950061Y-38245737D02*
X21854823Y-38245737D01*
X21854823Y-38245737D02*
X21711966Y-38293356D01*
X21711966Y-38293356D02*
X21664347Y-38340975D01*
X21331013Y-38245737D02*
X20711966Y-38245737D01*
X20711966Y-38245737D02*
X21045299Y-38626689D01*
X21045299Y-38626689D02*
X20902442Y-38626689D01*
X20902442Y-38626689D02*
X20807204Y-38674308D01*
X20807204Y-38674308D02*
X20759585Y-38721927D01*
X20759585Y-38721927D02*
X20711966Y-38817165D01*
X20711966Y-38817165D02*
X20711966Y-39055260D01*
X20711966Y-39055260D02*
X20759585Y-39150498D01*
X20759585Y-39150498D02*
X20807204Y-39198118D01*
X20807204Y-39198118D02*
X20902442Y-39245737D01*
X20902442Y-39245737D02*
X21188156Y-39245737D01*
X21188156Y-39245737D02*
X21283394Y-39198118D01*
X21283394Y-39198118D02*
X21331013Y-39150498D01*
X20235775Y-39245737D02*
X20045299Y-39245737D01*
X20045299Y-39245737D02*
X19950061Y-39198118D01*
X19950061Y-39198118D02*
X19902442Y-39150498D01*
X19902442Y-39150498D02*
X19807204Y-39007641D01*
X19807204Y-39007641D02*
X19759585Y-38817165D01*
X19759585Y-38817165D02*
X19759585Y-38436213D01*
X19759585Y-38436213D02*
X19807204Y-38340975D01*
X19807204Y-38340975D02*
X19854823Y-38293356D01*
X19854823Y-38293356D02*
X19950061Y-38245737D01*
X19950061Y-38245737D02*
X20140537Y-38245737D01*
X20140537Y-38245737D02*
X20235775Y-38293356D01*
X20235775Y-38293356D02*
X20283394Y-38340975D01*
X20283394Y-38340975D02*
X20331013Y-38436213D01*
X20331013Y-38436213D02*
X20331013Y-38674308D01*
X20331013Y-38674308D02*
X20283394Y-38769546D01*
X20283394Y-38769546D02*
X20235775Y-38817165D01*
X20235775Y-38817165D02*
X20140537Y-38864784D01*
X20140537Y-38864784D02*
X19950061Y-38864784D01*
X19950061Y-38864784D02*
X19854823Y-38817165D01*
X19854823Y-38817165D02*
X19807204Y-38769546D01*
X19807204Y-38769546D02*
X19759585Y-38674308D01*
X15943309Y-42647505D02*
X15990928Y-42695125D01*
X15990928Y-42695125D02*
X16133785Y-42742744D01*
X16133785Y-42742744D02*
X16229023Y-42742744D01*
X16229023Y-42742744D02*
X16371880Y-42695125D01*
X16371880Y-42695125D02*
X16467118Y-42599886D01*
X16467118Y-42599886D02*
X16514737Y-42504648D01*
X16514737Y-42504648D02*
X16562356Y-42314172D01*
X16562356Y-42314172D02*
X16562356Y-42171315D01*
X16562356Y-42171315D02*
X16514737Y-41980839D01*
X16514737Y-41980839D02*
X16467118Y-41885601D01*
X16467118Y-41885601D02*
X16371880Y-41790363D01*
X16371880Y-41790363D02*
X16229023Y-41742744D01*
X16229023Y-41742744D02*
X16133785Y-41742744D01*
X16133785Y-41742744D02*
X15990928Y-41790363D01*
X15990928Y-41790363D02*
X15943309Y-41837982D01*
X15562356Y-41837982D02*
X15514737Y-41790363D01*
X15514737Y-41790363D02*
X15419499Y-41742744D01*
X15419499Y-41742744D02*
X15181404Y-41742744D01*
X15181404Y-41742744D02*
X15086166Y-41790363D01*
X15086166Y-41790363D02*
X15038547Y-41837982D01*
X15038547Y-41837982D02*
X14990928Y-41933220D01*
X14990928Y-41933220D02*
X14990928Y-42028458D01*
X14990928Y-42028458D02*
X15038547Y-42171315D01*
X15038547Y-42171315D02*
X15609975Y-42742744D01*
X15609975Y-42742744D02*
X14990928Y-42742744D01*
X14657594Y-41742744D02*
X13990928Y-41742744D01*
X13990928Y-41742744D02*
X14419499Y-42742744D01*
X14573022Y-32533559D02*
X14620641Y-32581179D01*
X14620641Y-32581179D02*
X14763498Y-32628798D01*
X14763498Y-32628798D02*
X14858736Y-32628798D01*
X14858736Y-32628798D02*
X15001593Y-32581179D01*
X15001593Y-32581179D02*
X15096831Y-32485940D01*
X15096831Y-32485940D02*
X15144450Y-32390702D01*
X15144450Y-32390702D02*
X15192069Y-32200226D01*
X15192069Y-32200226D02*
X15192069Y-32057369D01*
X15192069Y-32057369D02*
X15144450Y-31866893D01*
X15144450Y-31866893D02*
X15096831Y-31771655D01*
X15096831Y-31771655D02*
X15001593Y-31676417D01*
X15001593Y-31676417D02*
X14858736Y-31628798D01*
X14858736Y-31628798D02*
X14763498Y-31628798D01*
X14763498Y-31628798D02*
X14620641Y-31676417D01*
X14620641Y-31676417D02*
X14573022Y-31724036D01*
X14239688Y-31628798D02*
X13620641Y-31628798D01*
X13620641Y-31628798D02*
X13953974Y-32009750D01*
X13953974Y-32009750D02*
X13811117Y-32009750D01*
X13811117Y-32009750D02*
X13715879Y-32057369D01*
X13715879Y-32057369D02*
X13668260Y-32104988D01*
X13668260Y-32104988D02*
X13620641Y-32200226D01*
X13620641Y-32200226D02*
X13620641Y-32438321D01*
X13620641Y-32438321D02*
X13668260Y-32533559D01*
X13668260Y-32533559D02*
X13715879Y-32581179D01*
X13715879Y-32581179D02*
X13811117Y-32628798D01*
X13811117Y-32628798D02*
X14096831Y-32628798D01*
X14096831Y-32628798D02*
X14192069Y-32581179D01*
X14192069Y-32581179D02*
X14239688Y-32533559D01*
X12763498Y-31628798D02*
X12953974Y-31628798D01*
X12953974Y-31628798D02*
X13049212Y-31676417D01*
X13049212Y-31676417D02*
X13096831Y-31724036D01*
X13096831Y-31724036D02*
X13192069Y-31866893D01*
X13192069Y-31866893D02*
X13239688Y-32057369D01*
X13239688Y-32057369D02*
X13239688Y-32438321D01*
X13239688Y-32438321D02*
X13192069Y-32533559D01*
X13192069Y-32533559D02*
X13144450Y-32581179D01*
X13144450Y-32581179D02*
X13049212Y-32628798D01*
X13049212Y-32628798D02*
X12858736Y-32628798D01*
X12858736Y-32628798D02*
X12763498Y-32581179D01*
X12763498Y-32581179D02*
X12715879Y-32533559D01*
X12715879Y-32533559D02*
X12668260Y-32438321D01*
X12668260Y-32438321D02*
X12668260Y-32200226D01*
X12668260Y-32200226D02*
X12715879Y-32104988D01*
X12715879Y-32104988D02*
X12763498Y-32057369D01*
X12763498Y-32057369D02*
X12858736Y-32009750D01*
X12858736Y-32009750D02*
X13049212Y-32009750D01*
X13049212Y-32009750D02*
X13144450Y-32057369D01*
X13144450Y-32057369D02*
X13192069Y-32104988D01*
X13192069Y-32104988D02*
X13239688Y-32200226D01*
X18414502Y-35088032D02*
X18462121Y-35135652D01*
X18462121Y-35135652D02*
X18604978Y-35183271D01*
X18604978Y-35183271D02*
X18700216Y-35183271D01*
X18700216Y-35183271D02*
X18843073Y-35135652D01*
X18843073Y-35135652D02*
X18938311Y-35040413D01*
X18938311Y-35040413D02*
X18985930Y-34945175D01*
X18985930Y-34945175D02*
X19033549Y-34754699D01*
X19033549Y-34754699D02*
X19033549Y-34611842D01*
X19033549Y-34611842D02*
X18985930Y-34421366D01*
X18985930Y-34421366D02*
X18938311Y-34326128D01*
X18938311Y-34326128D02*
X18843073Y-34230890D01*
X18843073Y-34230890D02*
X18700216Y-34183271D01*
X18700216Y-34183271D02*
X18604978Y-34183271D01*
X18604978Y-34183271D02*
X18462121Y-34230890D01*
X18462121Y-34230890D02*
X18414502Y-34278509D01*
X17462121Y-35183271D02*
X18033549Y-35183271D01*
X17747835Y-35183271D02*
X17747835Y-34183271D01*
X17747835Y-34183271D02*
X17843073Y-34326128D01*
X17843073Y-34326128D02*
X17938311Y-34421366D01*
X17938311Y-34421366D02*
X18033549Y-34468985D01*
X17128787Y-34183271D02*
X16509740Y-34183271D01*
X16509740Y-34183271D02*
X16843073Y-34564223D01*
X16843073Y-34564223D02*
X16700216Y-34564223D01*
X16700216Y-34564223D02*
X16604978Y-34611842D01*
X16604978Y-34611842D02*
X16557359Y-34659461D01*
X16557359Y-34659461D02*
X16509740Y-34754699D01*
X16509740Y-34754699D02*
X16509740Y-34992794D01*
X16509740Y-34992794D02*
X16557359Y-35088032D01*
X16557359Y-35088032D02*
X16604978Y-35135652D01*
X16604978Y-35135652D02*
X16700216Y-35183271D01*
X16700216Y-35183271D02*
X16985930Y-35183271D01*
X16985930Y-35183271D02*
X17081168Y-35135652D01*
X17081168Y-35135652D02*
X17128787Y-35088032D01*
X9042857Y-50199580D02*
X9090476Y-50247200D01*
X9090476Y-50247200D02*
X9233333Y-50294819D01*
X9233333Y-50294819D02*
X9328571Y-50294819D01*
X9328571Y-50294819D02*
X9471428Y-50247200D01*
X9471428Y-50247200D02*
X9566666Y-50151961D01*
X9566666Y-50151961D02*
X9614285Y-50056723D01*
X9614285Y-50056723D02*
X9661904Y-49866247D01*
X9661904Y-49866247D02*
X9661904Y-49723390D01*
X9661904Y-49723390D02*
X9614285Y-49532914D01*
X9614285Y-49532914D02*
X9566666Y-49437676D01*
X9566666Y-49437676D02*
X9471428Y-49342438D01*
X9471428Y-49342438D02*
X9328571Y-49294819D01*
X9328571Y-49294819D02*
X9233333Y-49294819D01*
X9233333Y-49294819D02*
X9090476Y-49342438D01*
X9090476Y-49342438D02*
X9042857Y-49390057D01*
X8661904Y-49390057D02*
X8614285Y-49342438D01*
X8614285Y-49342438D02*
X8519047Y-49294819D01*
X8519047Y-49294819D02*
X8280952Y-49294819D01*
X8280952Y-49294819D02*
X8185714Y-49342438D01*
X8185714Y-49342438D02*
X8138095Y-49390057D01*
X8138095Y-49390057D02*
X8090476Y-49485295D01*
X8090476Y-49485295D02*
X8090476Y-49580533D01*
X8090476Y-49580533D02*
X8138095Y-49723390D01*
X8138095Y-49723390D02*
X8709523Y-50294819D01*
X8709523Y-50294819D02*
X8090476Y-50294819D01*
X7614285Y-50294819D02*
X7423809Y-50294819D01*
X7423809Y-50294819D02*
X7328571Y-50247200D01*
X7328571Y-50247200D02*
X7280952Y-50199580D01*
X7280952Y-50199580D02*
X7185714Y-50056723D01*
X7185714Y-50056723D02*
X7138095Y-49866247D01*
X7138095Y-49866247D02*
X7138095Y-49485295D01*
X7138095Y-49485295D02*
X7185714Y-49390057D01*
X7185714Y-49390057D02*
X7233333Y-49342438D01*
X7233333Y-49342438D02*
X7328571Y-49294819D01*
X7328571Y-49294819D02*
X7519047Y-49294819D01*
X7519047Y-49294819D02*
X7614285Y-49342438D01*
X7614285Y-49342438D02*
X7661904Y-49390057D01*
X7661904Y-49390057D02*
X7709523Y-49485295D01*
X7709523Y-49485295D02*
X7709523Y-49723390D01*
X7709523Y-49723390D02*
X7661904Y-49818628D01*
X7661904Y-49818628D02*
X7614285Y-49866247D01*
X7614285Y-49866247D02*
X7519047Y-49913866D01*
X7519047Y-49913866D02*
X7328571Y-49913866D01*
X7328571Y-49913866D02*
X7233333Y-49866247D01*
X7233333Y-49866247D02*
X7185714Y-49818628D01*
X7185714Y-49818628D02*
X7138095Y-49723390D01*
X23934049Y-36414230D02*
X23981668Y-36461850D01*
X23981668Y-36461850D02*
X24124525Y-36509469D01*
X24124525Y-36509469D02*
X24219763Y-36509469D01*
X24219763Y-36509469D02*
X24362620Y-36461850D01*
X24362620Y-36461850D02*
X24457858Y-36366611D01*
X24457858Y-36366611D02*
X24505477Y-36271373D01*
X24505477Y-36271373D02*
X24553096Y-36080897D01*
X24553096Y-36080897D02*
X24553096Y-35938040D01*
X24553096Y-35938040D02*
X24505477Y-35747564D01*
X24505477Y-35747564D02*
X24457858Y-35652326D01*
X24457858Y-35652326D02*
X24362620Y-35557088D01*
X24362620Y-35557088D02*
X24219763Y-35509469D01*
X24219763Y-35509469D02*
X24124525Y-35509469D01*
X24124525Y-35509469D02*
X23981668Y-35557088D01*
X23981668Y-35557088D02*
X23934049Y-35604707D01*
X23553096Y-35604707D02*
X23505477Y-35557088D01*
X23505477Y-35557088D02*
X23410239Y-35509469D01*
X23410239Y-35509469D02*
X23172144Y-35509469D01*
X23172144Y-35509469D02*
X23076906Y-35557088D01*
X23076906Y-35557088D02*
X23029287Y-35604707D01*
X23029287Y-35604707D02*
X22981668Y-35699945D01*
X22981668Y-35699945D02*
X22981668Y-35795183D01*
X22981668Y-35795183D02*
X23029287Y-35938040D01*
X23029287Y-35938040D02*
X23600715Y-36509469D01*
X23600715Y-36509469D02*
X22981668Y-36509469D01*
X22648334Y-35509469D02*
X22029287Y-35509469D01*
X22029287Y-35509469D02*
X22362620Y-35890421D01*
X22362620Y-35890421D02*
X22219763Y-35890421D01*
X22219763Y-35890421D02*
X22124525Y-35938040D01*
X22124525Y-35938040D02*
X22076906Y-35985659D01*
X22076906Y-35985659D02*
X22029287Y-36080897D01*
X22029287Y-36080897D02*
X22029287Y-36318992D01*
X22029287Y-36318992D02*
X22076906Y-36414230D01*
X22076906Y-36414230D02*
X22124525Y-36461850D01*
X22124525Y-36461850D02*
X22219763Y-36509469D01*
X22219763Y-36509469D02*
X22505477Y-36509469D01*
X22505477Y-36509469D02*
X22600715Y-36461850D01*
X22600715Y-36461850D02*
X22648334Y-36414230D01*
X20242857Y-37799580D02*
X20290476Y-37847200D01*
X20290476Y-37847200D02*
X20433333Y-37894819D01*
X20433333Y-37894819D02*
X20528571Y-37894819D01*
X20528571Y-37894819D02*
X20671428Y-37847200D01*
X20671428Y-37847200D02*
X20766666Y-37751961D01*
X20766666Y-37751961D02*
X20814285Y-37656723D01*
X20814285Y-37656723D02*
X20861904Y-37466247D01*
X20861904Y-37466247D02*
X20861904Y-37323390D01*
X20861904Y-37323390D02*
X20814285Y-37132914D01*
X20814285Y-37132914D02*
X20766666Y-37037676D01*
X20766666Y-37037676D02*
X20671428Y-36942438D01*
X20671428Y-36942438D02*
X20528571Y-36894819D01*
X20528571Y-36894819D02*
X20433333Y-36894819D01*
X20433333Y-36894819D02*
X20290476Y-36942438D01*
X20290476Y-36942438D02*
X20242857Y-36990057D01*
X19909523Y-36894819D02*
X19290476Y-36894819D01*
X19290476Y-36894819D02*
X19623809Y-37275771D01*
X19623809Y-37275771D02*
X19480952Y-37275771D01*
X19480952Y-37275771D02*
X19385714Y-37323390D01*
X19385714Y-37323390D02*
X19338095Y-37371009D01*
X19338095Y-37371009D02*
X19290476Y-37466247D01*
X19290476Y-37466247D02*
X19290476Y-37704342D01*
X19290476Y-37704342D02*
X19338095Y-37799580D01*
X19338095Y-37799580D02*
X19385714Y-37847200D01*
X19385714Y-37847200D02*
X19480952Y-37894819D01*
X19480952Y-37894819D02*
X19766666Y-37894819D01*
X19766666Y-37894819D02*
X19861904Y-37847200D01*
X19861904Y-37847200D02*
X19909523Y-37799580D01*
X18957142Y-36894819D02*
X18290476Y-36894819D01*
X18290476Y-36894819D02*
X18719047Y-37894819D01*
X21664347Y-36448661D02*
X21711966Y-36496281D01*
X21711966Y-36496281D02*
X21854823Y-36543900D01*
X21854823Y-36543900D02*
X21950061Y-36543900D01*
X21950061Y-36543900D02*
X22092918Y-36496281D01*
X22092918Y-36496281D02*
X22188156Y-36401042D01*
X22188156Y-36401042D02*
X22235775Y-36305804D01*
X22235775Y-36305804D02*
X22283394Y-36115328D01*
X22283394Y-36115328D02*
X22283394Y-35972471D01*
X22283394Y-35972471D02*
X22235775Y-35781995D01*
X22235775Y-35781995D02*
X22188156Y-35686757D01*
X22188156Y-35686757D02*
X22092918Y-35591519D01*
X22092918Y-35591519D02*
X21950061Y-35543900D01*
X21950061Y-35543900D02*
X21854823Y-35543900D01*
X21854823Y-35543900D02*
X21711966Y-35591519D01*
X21711966Y-35591519D02*
X21664347Y-35639138D01*
X20807204Y-35877233D02*
X20807204Y-36543900D01*
X21045299Y-35496281D02*
X21283394Y-36210566D01*
X21283394Y-36210566D02*
X20664347Y-36210566D01*
X20092918Y-35543900D02*
X19997680Y-35543900D01*
X19997680Y-35543900D02*
X19902442Y-35591519D01*
X19902442Y-35591519D02*
X19854823Y-35639138D01*
X19854823Y-35639138D02*
X19807204Y-35734376D01*
X19807204Y-35734376D02*
X19759585Y-35924852D01*
X19759585Y-35924852D02*
X19759585Y-36162947D01*
X19759585Y-36162947D02*
X19807204Y-36353423D01*
X19807204Y-36353423D02*
X19854823Y-36448661D01*
X19854823Y-36448661D02*
X19902442Y-36496281D01*
X19902442Y-36496281D02*
X19997680Y-36543900D01*
X19997680Y-36543900D02*
X20092918Y-36543900D01*
X20092918Y-36543900D02*
X20188156Y-36496281D01*
X20188156Y-36496281D02*
X20235775Y-36448661D01*
X20235775Y-36448661D02*
X20283394Y-36353423D01*
X20283394Y-36353423D02*
X20331013Y-36162947D01*
X20331013Y-36162947D02*
X20331013Y-35924852D01*
X20331013Y-35924852D02*
X20283394Y-35734376D01*
X20283394Y-35734376D02*
X20235775Y-35639138D01*
X20235775Y-35639138D02*
X20188156Y-35591519D01*
X20188156Y-35591519D02*
X20092918Y-35543900D01*
X20171842Y-47045198D02*
X20219461Y-47092818D01*
X20219461Y-47092818D02*
X20362318Y-47140437D01*
X20362318Y-47140437D02*
X20457556Y-47140437D01*
X20457556Y-47140437D02*
X20600413Y-47092818D01*
X20600413Y-47092818D02*
X20695651Y-46997579D01*
X20695651Y-46997579D02*
X20743270Y-46902341D01*
X20743270Y-46902341D02*
X20790889Y-46711865D01*
X20790889Y-46711865D02*
X20790889Y-46569008D01*
X20790889Y-46569008D02*
X20743270Y-46378532D01*
X20743270Y-46378532D02*
X20695651Y-46283294D01*
X20695651Y-46283294D02*
X20600413Y-46188056D01*
X20600413Y-46188056D02*
X20457556Y-46140437D01*
X20457556Y-46140437D02*
X20362318Y-46140437D01*
X20362318Y-46140437D02*
X20219461Y-46188056D01*
X20219461Y-46188056D02*
X20171842Y-46235675D01*
X19838508Y-46140437D02*
X19219461Y-46140437D01*
X19219461Y-46140437D02*
X19552794Y-46521389D01*
X19552794Y-46521389D02*
X19409937Y-46521389D01*
X19409937Y-46521389D02*
X19314699Y-46569008D01*
X19314699Y-46569008D02*
X19267080Y-46616627D01*
X19267080Y-46616627D02*
X19219461Y-46711865D01*
X19219461Y-46711865D02*
X19219461Y-46949960D01*
X19219461Y-46949960D02*
X19267080Y-47045198D01*
X19267080Y-47045198D02*
X19314699Y-47092818D01*
X19314699Y-47092818D02*
X19409937Y-47140437D01*
X19409937Y-47140437D02*
X19695651Y-47140437D01*
X19695651Y-47140437D02*
X19790889Y-47092818D01*
X19790889Y-47092818D02*
X19838508Y-47045198D01*
X18838508Y-46235675D02*
X18790889Y-46188056D01*
X18790889Y-46188056D02*
X18695651Y-46140437D01*
X18695651Y-46140437D02*
X18457556Y-46140437D01*
X18457556Y-46140437D02*
X18362318Y-46188056D01*
X18362318Y-46188056D02*
X18314699Y-46235675D01*
X18314699Y-46235675D02*
X18267080Y-46330913D01*
X18267080Y-46330913D02*
X18267080Y-46426151D01*
X18267080Y-46426151D02*
X18314699Y-46569008D01*
X18314699Y-46569008D02*
X18886127Y-47140437D01*
X18886127Y-47140437D02*
X18267080Y-47140437D01*
X11738094Y-9254819D02*
X11738094Y-8254819D01*
X11738094Y-8254819D02*
X11499999Y-8254819D01*
X11499999Y-8254819D02*
X11357142Y-8302438D01*
X11357142Y-8302438D02*
X11261904Y-8397676D01*
X11261904Y-8397676D02*
X11214285Y-8492914D01*
X11214285Y-8492914D02*
X11166666Y-8683390D01*
X11166666Y-8683390D02*
X11166666Y-8826247D01*
X11166666Y-8826247D02*
X11214285Y-9016723D01*
X11214285Y-9016723D02*
X11261904Y-9111961D01*
X11261904Y-9111961D02*
X11357142Y-9207200D01*
X11357142Y-9207200D02*
X11499999Y-9254819D01*
X11499999Y-9254819D02*
X11738094Y-9254819D01*
X10785713Y-8350057D02*
X10738094Y-8302438D01*
X10738094Y-8302438D02*
X10642856Y-8254819D01*
X10642856Y-8254819D02*
X10404761Y-8254819D01*
X10404761Y-8254819D02*
X10309523Y-8302438D01*
X10309523Y-8302438D02*
X10261904Y-8350057D01*
X10261904Y-8350057D02*
X10214285Y-8445295D01*
X10214285Y-8445295D02*
X10214285Y-8540533D01*
X10214285Y-8540533D02*
X10261904Y-8683390D01*
X10261904Y-8683390D02*
X10833332Y-9254819D01*
X10833332Y-9254819D02*
X10214285Y-9254819D01*
X33442856Y-48499580D02*
X33490475Y-48547200D01*
X33490475Y-48547200D02*
X33633332Y-48594819D01*
X33633332Y-48594819D02*
X33728570Y-48594819D01*
X33728570Y-48594819D02*
X33871427Y-48547200D01*
X33871427Y-48547200D02*
X33966665Y-48451961D01*
X33966665Y-48451961D02*
X34014284Y-48356723D01*
X34014284Y-48356723D02*
X34061903Y-48166247D01*
X34061903Y-48166247D02*
X34061903Y-48023390D01*
X34061903Y-48023390D02*
X34014284Y-47832914D01*
X34014284Y-47832914D02*
X33966665Y-47737676D01*
X33966665Y-47737676D02*
X33871427Y-47642438D01*
X33871427Y-47642438D02*
X33728570Y-47594819D01*
X33728570Y-47594819D02*
X33633332Y-47594819D01*
X33633332Y-47594819D02*
X33490475Y-47642438D01*
X33490475Y-47642438D02*
X33442856Y-47690057D01*
X33109522Y-47594819D02*
X32490475Y-47594819D01*
X32490475Y-47594819D02*
X32823808Y-47975771D01*
X32823808Y-47975771D02*
X32680951Y-47975771D01*
X32680951Y-47975771D02*
X32585713Y-48023390D01*
X32585713Y-48023390D02*
X32538094Y-48071009D01*
X32538094Y-48071009D02*
X32490475Y-48166247D01*
X32490475Y-48166247D02*
X32490475Y-48404342D01*
X32490475Y-48404342D02*
X32538094Y-48499580D01*
X32538094Y-48499580D02*
X32585713Y-48547200D01*
X32585713Y-48547200D02*
X32680951Y-48594819D01*
X32680951Y-48594819D02*
X32966665Y-48594819D01*
X32966665Y-48594819D02*
X33061903Y-48547200D01*
X33061903Y-48547200D02*
X33109522Y-48499580D01*
X31871427Y-47594819D02*
X31776189Y-47594819D01*
X31776189Y-47594819D02*
X31680951Y-47642438D01*
X31680951Y-47642438D02*
X31633332Y-47690057D01*
X31633332Y-47690057D02*
X31585713Y-47785295D01*
X31585713Y-47785295D02*
X31538094Y-47975771D01*
X31538094Y-47975771D02*
X31538094Y-48213866D01*
X31538094Y-48213866D02*
X31585713Y-48404342D01*
X31585713Y-48404342D02*
X31633332Y-48499580D01*
X31633332Y-48499580D02*
X31680951Y-48547200D01*
X31680951Y-48547200D02*
X31776189Y-48594819D01*
X31776189Y-48594819D02*
X31871427Y-48594819D01*
X31871427Y-48594819D02*
X31966665Y-48547200D01*
X31966665Y-48547200D02*
X32014284Y-48499580D01*
X32014284Y-48499580D02*
X32061903Y-48404342D01*
X32061903Y-48404342D02*
X32109522Y-48213866D01*
X32109522Y-48213866D02*
X32109522Y-47975771D01*
X32109522Y-47975771D02*
X32061903Y-47785295D01*
X32061903Y-47785295D02*
X32014284Y-47690057D01*
X32014284Y-47690057D02*
X31966665Y-47642438D01*
X31966665Y-47642438D02*
X31871427Y-47594819D01*
X21819369Y-57609964D02*
X21866988Y-57657584D01*
X21866988Y-57657584D02*
X22009845Y-57705203D01*
X22009845Y-57705203D02*
X22105083Y-57705203D01*
X22105083Y-57705203D02*
X22247940Y-57657584D01*
X22247940Y-57657584D02*
X22343178Y-57562345D01*
X22343178Y-57562345D02*
X22390797Y-57467107D01*
X22390797Y-57467107D02*
X22438416Y-57276631D01*
X22438416Y-57276631D02*
X22438416Y-57133774D01*
X22438416Y-57133774D02*
X22390797Y-56943298D01*
X22390797Y-56943298D02*
X22343178Y-56848060D01*
X22343178Y-56848060D02*
X22247940Y-56752822D01*
X22247940Y-56752822D02*
X22105083Y-56705203D01*
X22105083Y-56705203D02*
X22009845Y-56705203D01*
X22009845Y-56705203D02*
X21866988Y-56752822D01*
X21866988Y-56752822D02*
X21819369Y-56800441D01*
X20962226Y-57038536D02*
X20962226Y-57705203D01*
X21200321Y-56657584D02*
X21438416Y-57371869D01*
X21438416Y-57371869D02*
X20819369Y-57371869D01*
X16875034Y-36451882D02*
X16922653Y-36499502D01*
X16922653Y-36499502D02*
X17065510Y-36547121D01*
X17065510Y-36547121D02*
X17160748Y-36547121D01*
X17160748Y-36547121D02*
X17303605Y-36499502D01*
X17303605Y-36499502D02*
X17398843Y-36404263D01*
X17398843Y-36404263D02*
X17446462Y-36309025D01*
X17446462Y-36309025D02*
X17494081Y-36118549D01*
X17494081Y-36118549D02*
X17494081Y-35975692D01*
X17494081Y-35975692D02*
X17446462Y-35785216D01*
X17446462Y-35785216D02*
X17398843Y-35689978D01*
X17398843Y-35689978D02*
X17303605Y-35594740D01*
X17303605Y-35594740D02*
X17160748Y-35547121D01*
X17160748Y-35547121D02*
X17065510Y-35547121D01*
X17065510Y-35547121D02*
X16922653Y-35594740D01*
X16922653Y-35594740D02*
X16875034Y-35642359D01*
X15922653Y-36547121D02*
X16494081Y-36547121D01*
X16208367Y-36547121D02*
X16208367Y-35547121D01*
X16208367Y-35547121D02*
X16303605Y-35689978D01*
X16303605Y-35689978D02*
X16398843Y-35785216D01*
X16398843Y-35785216D02*
X16494081Y-35832835D01*
X15541700Y-35642359D02*
X15494081Y-35594740D01*
X15494081Y-35594740D02*
X15398843Y-35547121D01*
X15398843Y-35547121D02*
X15160748Y-35547121D01*
X15160748Y-35547121D02*
X15065510Y-35594740D01*
X15065510Y-35594740D02*
X15017891Y-35642359D01*
X15017891Y-35642359D02*
X14970272Y-35737597D01*
X14970272Y-35737597D02*
X14970272Y-35832835D01*
X14970272Y-35832835D02*
X15017891Y-35975692D01*
X15017891Y-35975692D02*
X15589319Y-36547121D01*
X15589319Y-36547121D02*
X14970272Y-36547121D01*
X18966666Y-39199580D02*
X19014285Y-39247200D01*
X19014285Y-39247200D02*
X19157142Y-39294819D01*
X19157142Y-39294819D02*
X19252380Y-39294819D01*
X19252380Y-39294819D02*
X19395237Y-39247200D01*
X19395237Y-39247200D02*
X19490475Y-39151961D01*
X19490475Y-39151961D02*
X19538094Y-39056723D01*
X19538094Y-39056723D02*
X19585713Y-38866247D01*
X19585713Y-38866247D02*
X19585713Y-38723390D01*
X19585713Y-38723390D02*
X19538094Y-38532914D01*
X19538094Y-38532914D02*
X19490475Y-38437676D01*
X19490475Y-38437676D02*
X19395237Y-38342438D01*
X19395237Y-38342438D02*
X19252380Y-38294819D01*
X19252380Y-38294819D02*
X19157142Y-38294819D01*
X19157142Y-38294819D02*
X19014285Y-38342438D01*
X19014285Y-38342438D02*
X18966666Y-38390057D01*
X18633332Y-38294819D02*
X17966666Y-38294819D01*
X17966666Y-38294819D02*
X18395237Y-39294819D01*
X22888200Y-40996391D02*
X22935819Y-41044011D01*
X22935819Y-41044011D02*
X23078676Y-41091630D01*
X23078676Y-41091630D02*
X23173914Y-41091630D01*
X23173914Y-41091630D02*
X23316771Y-41044011D01*
X23316771Y-41044011D02*
X23412009Y-40948772D01*
X23412009Y-40948772D02*
X23459628Y-40853534D01*
X23459628Y-40853534D02*
X23507247Y-40663058D01*
X23507247Y-40663058D02*
X23507247Y-40520201D01*
X23507247Y-40520201D02*
X23459628Y-40329725D01*
X23459628Y-40329725D02*
X23412009Y-40234487D01*
X23412009Y-40234487D02*
X23316771Y-40139249D01*
X23316771Y-40139249D02*
X23173914Y-40091630D01*
X23173914Y-40091630D02*
X23078676Y-40091630D01*
X23078676Y-40091630D02*
X22935819Y-40139249D01*
X22935819Y-40139249D02*
X22888200Y-40186868D01*
X22507247Y-40186868D02*
X22459628Y-40139249D01*
X22459628Y-40139249D02*
X22364390Y-40091630D01*
X22364390Y-40091630D02*
X22126295Y-40091630D01*
X22126295Y-40091630D02*
X22031057Y-40139249D01*
X22031057Y-40139249D02*
X21983438Y-40186868D01*
X21983438Y-40186868D02*
X21935819Y-40282106D01*
X21935819Y-40282106D02*
X21935819Y-40377344D01*
X21935819Y-40377344D02*
X21983438Y-40520201D01*
X21983438Y-40520201D02*
X22554866Y-41091630D01*
X22554866Y-41091630D02*
X21935819Y-41091630D01*
X20983438Y-41091630D02*
X21554866Y-41091630D01*
X21269152Y-41091630D02*
X21269152Y-40091630D01*
X21269152Y-40091630D02*
X21364390Y-40234487D01*
X21364390Y-40234487D02*
X21459628Y-40329725D01*
X21459628Y-40329725D02*
X21554866Y-40377344D01*
X14466666Y-59579580D02*
X14514285Y-59627200D01*
X14514285Y-59627200D02*
X14657142Y-59674819D01*
X14657142Y-59674819D02*
X14752380Y-59674819D01*
X14752380Y-59674819D02*
X14895237Y-59627200D01*
X14895237Y-59627200D02*
X14990475Y-59531961D01*
X14990475Y-59531961D02*
X15038094Y-59436723D01*
X15038094Y-59436723D02*
X15085713Y-59246247D01*
X15085713Y-59246247D02*
X15085713Y-59103390D01*
X15085713Y-59103390D02*
X15038094Y-58912914D01*
X15038094Y-58912914D02*
X14990475Y-58817676D01*
X14990475Y-58817676D02*
X14895237Y-58722438D01*
X14895237Y-58722438D02*
X14752380Y-58674819D01*
X14752380Y-58674819D02*
X14657142Y-58674819D01*
X14657142Y-58674819D02*
X14514285Y-58722438D01*
X14514285Y-58722438D02*
X14466666Y-58770057D01*
X13514285Y-59674819D02*
X14085713Y-59674819D01*
X13799999Y-59674819D02*
X13799999Y-58674819D01*
X13799999Y-58674819D02*
X13895237Y-58817676D01*
X13895237Y-58817676D02*
X13990475Y-58912914D01*
X13990475Y-58912914D02*
X14085713Y-58960533D01*
X22966666Y-60099580D02*
X23014285Y-60147200D01*
X23014285Y-60147200D02*
X23157142Y-60194819D01*
X23157142Y-60194819D02*
X23252380Y-60194819D01*
X23252380Y-60194819D02*
X23395237Y-60147200D01*
X23395237Y-60147200D02*
X23490475Y-60051961D01*
X23490475Y-60051961D02*
X23538094Y-59956723D01*
X23538094Y-59956723D02*
X23585713Y-59766247D01*
X23585713Y-59766247D02*
X23585713Y-59623390D01*
X23585713Y-59623390D02*
X23538094Y-59432914D01*
X23538094Y-59432914D02*
X23490475Y-59337676D01*
X23490475Y-59337676D02*
X23395237Y-59242438D01*
X23395237Y-59242438D02*
X23252380Y-59194819D01*
X23252380Y-59194819D02*
X23157142Y-59194819D01*
X23157142Y-59194819D02*
X23014285Y-59242438D01*
X23014285Y-59242438D02*
X22966666Y-59290057D01*
X22109523Y-59194819D02*
X22299999Y-59194819D01*
X22299999Y-59194819D02*
X22395237Y-59242438D01*
X22395237Y-59242438D02*
X22442856Y-59290057D01*
X22442856Y-59290057D02*
X22538094Y-59432914D01*
X22538094Y-59432914D02*
X22585713Y-59623390D01*
X22585713Y-59623390D02*
X22585713Y-60004342D01*
X22585713Y-60004342D02*
X22538094Y-60099580D01*
X22538094Y-60099580D02*
X22490475Y-60147200D01*
X22490475Y-60147200D02*
X22395237Y-60194819D01*
X22395237Y-60194819D02*
X22204761Y-60194819D01*
X22204761Y-60194819D02*
X22109523Y-60147200D01*
X22109523Y-60147200D02*
X22061904Y-60099580D01*
X22061904Y-60099580D02*
X22014285Y-60004342D01*
X22014285Y-60004342D02*
X22014285Y-59766247D01*
X22014285Y-59766247D02*
X22061904Y-59671009D01*
X22061904Y-59671009D02*
X22109523Y-59623390D01*
X22109523Y-59623390D02*
X22204761Y-59575771D01*
X22204761Y-59575771D02*
X22395237Y-59575771D01*
X22395237Y-59575771D02*
X22490475Y-59623390D01*
X22490475Y-59623390D02*
X22538094Y-59671009D01*
X22538094Y-59671009D02*
X22585713Y-59766247D01*
X28663333Y-40624819D02*
X28663333Y-41339104D01*
X28663333Y-41339104D02*
X28710952Y-41481961D01*
X28710952Y-41481961D02*
X28806190Y-41577200D01*
X28806190Y-41577200D02*
X28949047Y-41624819D01*
X28949047Y-41624819D02*
X29044285Y-41624819D01*
X28282380Y-40624819D02*
X27663333Y-40624819D01*
X27663333Y-40624819D02*
X27996666Y-41005771D01*
X27996666Y-41005771D02*
X27853809Y-41005771D01*
X27853809Y-41005771D02*
X27758571Y-41053390D01*
X27758571Y-41053390D02*
X27710952Y-41101009D01*
X27710952Y-41101009D02*
X27663333Y-41196247D01*
X27663333Y-41196247D02*
X27663333Y-41434342D01*
X27663333Y-41434342D02*
X27710952Y-41529580D01*
X27710952Y-41529580D02*
X27758571Y-41577200D01*
X27758571Y-41577200D02*
X27853809Y-41624819D01*
X27853809Y-41624819D02*
X28139523Y-41624819D01*
X28139523Y-41624819D02*
X28234761Y-41577200D01*
X28234761Y-41577200D02*
X28282380Y-41529580D01*
X18042857Y-37799580D02*
X18090476Y-37847200D01*
X18090476Y-37847200D02*
X18233333Y-37894819D01*
X18233333Y-37894819D02*
X18328571Y-37894819D01*
X18328571Y-37894819D02*
X18471428Y-37847200D01*
X18471428Y-37847200D02*
X18566666Y-37751961D01*
X18566666Y-37751961D02*
X18614285Y-37656723D01*
X18614285Y-37656723D02*
X18661904Y-37466247D01*
X18661904Y-37466247D02*
X18661904Y-37323390D01*
X18661904Y-37323390D02*
X18614285Y-37132914D01*
X18614285Y-37132914D02*
X18566666Y-37037676D01*
X18566666Y-37037676D02*
X18471428Y-36942438D01*
X18471428Y-36942438D02*
X18328571Y-36894819D01*
X18328571Y-36894819D02*
X18233333Y-36894819D01*
X18233333Y-36894819D02*
X18090476Y-36942438D01*
X18090476Y-36942438D02*
X18042857Y-36990057D01*
X17185714Y-37228152D02*
X17185714Y-37894819D01*
X17423809Y-36847200D02*
X17661904Y-37561485D01*
X17661904Y-37561485D02*
X17042857Y-37561485D01*
X16709523Y-36990057D02*
X16661904Y-36942438D01*
X16661904Y-36942438D02*
X16566666Y-36894819D01*
X16566666Y-36894819D02*
X16328571Y-36894819D01*
X16328571Y-36894819D02*
X16233333Y-36942438D01*
X16233333Y-36942438D02*
X16185714Y-36990057D01*
X16185714Y-36990057D02*
X16138095Y-37085295D01*
X16138095Y-37085295D02*
X16138095Y-37180533D01*
X16138095Y-37180533D02*
X16185714Y-37323390D01*
X16185714Y-37323390D02*
X16757142Y-37894819D01*
X16757142Y-37894819D02*
X16138095Y-37894819D01*
X15642857Y-37799580D02*
X15690476Y-37847200D01*
X15690476Y-37847200D02*
X15833333Y-37894819D01*
X15833333Y-37894819D02*
X15928571Y-37894819D01*
X15928571Y-37894819D02*
X16071428Y-37847200D01*
X16071428Y-37847200D02*
X16166666Y-37751961D01*
X16166666Y-37751961D02*
X16214285Y-37656723D01*
X16214285Y-37656723D02*
X16261904Y-37466247D01*
X16261904Y-37466247D02*
X16261904Y-37323390D01*
X16261904Y-37323390D02*
X16214285Y-37132914D01*
X16214285Y-37132914D02*
X16166666Y-37037676D01*
X16166666Y-37037676D02*
X16071428Y-36942438D01*
X16071428Y-36942438D02*
X15928571Y-36894819D01*
X15928571Y-36894819D02*
X15833333Y-36894819D01*
X15833333Y-36894819D02*
X15690476Y-36942438D01*
X15690476Y-36942438D02*
X15642857Y-36990057D01*
X14690476Y-37894819D02*
X15261904Y-37894819D01*
X14976190Y-37894819D02*
X14976190Y-36894819D01*
X14976190Y-36894819D02*
X15071428Y-37037676D01*
X15071428Y-37037676D02*
X15166666Y-37132914D01*
X15166666Y-37132914D02*
X15261904Y-37180533D01*
X14357142Y-36894819D02*
X13690476Y-36894819D01*
X13690476Y-36894819D02*
X14119047Y-37894819D01*
X23934049Y-39184929D02*
X23981668Y-39232549D01*
X23981668Y-39232549D02*
X24124525Y-39280168D01*
X24124525Y-39280168D02*
X24219763Y-39280168D01*
X24219763Y-39280168D02*
X24362620Y-39232549D01*
X24362620Y-39232549D02*
X24457858Y-39137310D01*
X24457858Y-39137310D02*
X24505477Y-39042072D01*
X24505477Y-39042072D02*
X24553096Y-38851596D01*
X24553096Y-38851596D02*
X24553096Y-38708739D01*
X24553096Y-38708739D02*
X24505477Y-38518263D01*
X24505477Y-38518263D02*
X24457858Y-38423025D01*
X24457858Y-38423025D02*
X24362620Y-38327787D01*
X24362620Y-38327787D02*
X24219763Y-38280168D01*
X24219763Y-38280168D02*
X24124525Y-38280168D01*
X24124525Y-38280168D02*
X23981668Y-38327787D01*
X23981668Y-38327787D02*
X23934049Y-38375406D01*
X23553096Y-38375406D02*
X23505477Y-38327787D01*
X23505477Y-38327787D02*
X23410239Y-38280168D01*
X23410239Y-38280168D02*
X23172144Y-38280168D01*
X23172144Y-38280168D02*
X23076906Y-38327787D01*
X23076906Y-38327787D02*
X23029287Y-38375406D01*
X23029287Y-38375406D02*
X22981668Y-38470644D01*
X22981668Y-38470644D02*
X22981668Y-38565882D01*
X22981668Y-38565882D02*
X23029287Y-38708739D01*
X23029287Y-38708739D02*
X23600715Y-39280168D01*
X23600715Y-39280168D02*
X22981668Y-39280168D01*
X22362620Y-38280168D02*
X22267382Y-38280168D01*
X22267382Y-38280168D02*
X22172144Y-38327787D01*
X22172144Y-38327787D02*
X22124525Y-38375406D01*
X22124525Y-38375406D02*
X22076906Y-38470644D01*
X22076906Y-38470644D02*
X22029287Y-38661120D01*
X22029287Y-38661120D02*
X22029287Y-38899215D01*
X22029287Y-38899215D02*
X22076906Y-39089691D01*
X22076906Y-39089691D02*
X22124525Y-39184929D01*
X22124525Y-39184929D02*
X22172144Y-39232549D01*
X22172144Y-39232549D02*
X22267382Y-39280168D01*
X22267382Y-39280168D02*
X22362620Y-39280168D01*
X22362620Y-39280168D02*
X22457858Y-39232549D01*
X22457858Y-39232549D02*
X22505477Y-39184929D01*
X22505477Y-39184929D02*
X22553096Y-39089691D01*
X22553096Y-39089691D02*
X22600715Y-38899215D01*
X22600715Y-38899215D02*
X22600715Y-38661120D01*
X22600715Y-38661120D02*
X22553096Y-38470644D01*
X22553096Y-38470644D02*
X22505477Y-38375406D01*
X22505477Y-38375406D02*
X22457858Y-38327787D01*
X22457858Y-38327787D02*
X22362620Y-38280168D01*
X22642857Y-37799580D02*
X22690476Y-37847200D01*
X22690476Y-37847200D02*
X22833333Y-37894819D01*
X22833333Y-37894819D02*
X22928571Y-37894819D01*
X22928571Y-37894819D02*
X23071428Y-37847200D01*
X23071428Y-37847200D02*
X23166666Y-37751961D01*
X23166666Y-37751961D02*
X23214285Y-37656723D01*
X23214285Y-37656723D02*
X23261904Y-37466247D01*
X23261904Y-37466247D02*
X23261904Y-37323390D01*
X23261904Y-37323390D02*
X23214285Y-37132914D01*
X23214285Y-37132914D02*
X23166666Y-37037676D01*
X23166666Y-37037676D02*
X23071428Y-36942438D01*
X23071428Y-36942438D02*
X22928571Y-36894819D01*
X22928571Y-36894819D02*
X22833333Y-36894819D01*
X22833333Y-36894819D02*
X22690476Y-36942438D01*
X22690476Y-36942438D02*
X22642857Y-36990057D01*
X21690476Y-37894819D02*
X22261904Y-37894819D01*
X21976190Y-37894819D02*
X21976190Y-36894819D01*
X21976190Y-36894819D02*
X22071428Y-37037676D01*
X22071428Y-37037676D02*
X22166666Y-37132914D01*
X22166666Y-37132914D02*
X22261904Y-37180533D01*
X20833333Y-37228152D02*
X20833333Y-37894819D01*
X21071428Y-36847200D02*
X21309523Y-37561485D01*
X21309523Y-37561485D02*
X20690476Y-37561485D01*
X20154814Y-41837291D02*
X20202433Y-41884911D01*
X20202433Y-41884911D02*
X20345290Y-41932530D01*
X20345290Y-41932530D02*
X20440528Y-41932530D01*
X20440528Y-41932530D02*
X20583385Y-41884911D01*
X20583385Y-41884911D02*
X20678623Y-41789672D01*
X20678623Y-41789672D02*
X20726242Y-41694434D01*
X20726242Y-41694434D02*
X20773861Y-41503958D01*
X20773861Y-41503958D02*
X20773861Y-41361101D01*
X20773861Y-41361101D02*
X20726242Y-41170625D01*
X20726242Y-41170625D02*
X20678623Y-41075387D01*
X20678623Y-41075387D02*
X20583385Y-40980149D01*
X20583385Y-40980149D02*
X20440528Y-40932530D01*
X20440528Y-40932530D02*
X20345290Y-40932530D01*
X20345290Y-40932530D02*
X20202433Y-40980149D01*
X20202433Y-40980149D02*
X20154814Y-41027768D01*
X19202433Y-41932530D02*
X19773861Y-41932530D01*
X19488147Y-41932530D02*
X19488147Y-40932530D01*
X19488147Y-40932530D02*
X19583385Y-41075387D01*
X19583385Y-41075387D02*
X19678623Y-41170625D01*
X19678623Y-41170625D02*
X19773861Y-41218244D01*
X18631004Y-41361101D02*
X18726242Y-41313482D01*
X18726242Y-41313482D02*
X18773861Y-41265863D01*
X18773861Y-41265863D02*
X18821480Y-41170625D01*
X18821480Y-41170625D02*
X18821480Y-41123006D01*
X18821480Y-41123006D02*
X18773861Y-41027768D01*
X18773861Y-41027768D02*
X18726242Y-40980149D01*
X18726242Y-40980149D02*
X18631004Y-40932530D01*
X18631004Y-40932530D02*
X18440528Y-40932530D01*
X18440528Y-40932530D02*
X18345290Y-40980149D01*
X18345290Y-40980149D02*
X18297671Y-41027768D01*
X18297671Y-41027768D02*
X18250052Y-41123006D01*
X18250052Y-41123006D02*
X18250052Y-41170625D01*
X18250052Y-41170625D02*
X18297671Y-41265863D01*
X18297671Y-41265863D02*
X18345290Y-41313482D01*
X18345290Y-41313482D02*
X18440528Y-41361101D01*
X18440528Y-41361101D02*
X18631004Y-41361101D01*
X18631004Y-41361101D02*
X18726242Y-41408720D01*
X18726242Y-41408720D02*
X18773861Y-41456339D01*
X18773861Y-41456339D02*
X18821480Y-41551577D01*
X18821480Y-41551577D02*
X18821480Y-41742053D01*
X18821480Y-41742053D02*
X18773861Y-41837291D01*
X18773861Y-41837291D02*
X18726242Y-41884911D01*
X18726242Y-41884911D02*
X18631004Y-41932530D01*
X18631004Y-41932530D02*
X18440528Y-41932530D01*
X18440528Y-41932530D02*
X18345290Y-41884911D01*
X18345290Y-41884911D02*
X18297671Y-41837291D01*
X18297671Y-41837291D02*
X18250052Y-41742053D01*
X18250052Y-41742053D02*
X18250052Y-41551577D01*
X18250052Y-41551577D02*
X18297671Y-41456339D01*
X18297671Y-41456339D02*
X18345290Y-41408720D01*
X18345290Y-41408720D02*
X18440528Y-41361101D01*
X20442857Y-4399580D02*
X20490476Y-4447200D01*
X20490476Y-4447200D02*
X20633333Y-4494819D01*
X20633333Y-4494819D02*
X20728571Y-4494819D01*
X20728571Y-4494819D02*
X20871428Y-4447200D01*
X20871428Y-4447200D02*
X20966666Y-4351961D01*
X20966666Y-4351961D02*
X21014285Y-4256723D01*
X21014285Y-4256723D02*
X21061904Y-4066247D01*
X21061904Y-4066247D02*
X21061904Y-3923390D01*
X21061904Y-3923390D02*
X21014285Y-3732914D01*
X21014285Y-3732914D02*
X20966666Y-3637676D01*
X20966666Y-3637676D02*
X20871428Y-3542438D01*
X20871428Y-3542438D02*
X20728571Y-3494819D01*
X20728571Y-3494819D02*
X20633333Y-3494819D01*
X20633333Y-3494819D02*
X20490476Y-3542438D01*
X20490476Y-3542438D02*
X20442857Y-3590057D01*
X20109523Y-3494819D02*
X19490476Y-3494819D01*
X19490476Y-3494819D02*
X19823809Y-3875771D01*
X19823809Y-3875771D02*
X19680952Y-3875771D01*
X19680952Y-3875771D02*
X19585714Y-3923390D01*
X19585714Y-3923390D02*
X19538095Y-3971009D01*
X19538095Y-3971009D02*
X19490476Y-4066247D01*
X19490476Y-4066247D02*
X19490476Y-4304342D01*
X19490476Y-4304342D02*
X19538095Y-4399580D01*
X19538095Y-4399580D02*
X19585714Y-4447200D01*
X19585714Y-4447200D02*
X19680952Y-4494819D01*
X19680952Y-4494819D02*
X19966666Y-4494819D01*
X19966666Y-4494819D02*
X20061904Y-4447200D01*
X20061904Y-4447200D02*
X20109523Y-4399580D01*
X19157142Y-3494819D02*
X18538095Y-3494819D01*
X18538095Y-3494819D02*
X18871428Y-3875771D01*
X18871428Y-3875771D02*
X18728571Y-3875771D01*
X18728571Y-3875771D02*
X18633333Y-3923390D01*
X18633333Y-3923390D02*
X18585714Y-3971009D01*
X18585714Y-3971009D02*
X18538095Y-4066247D01*
X18538095Y-4066247D02*
X18538095Y-4304342D01*
X18538095Y-4304342D02*
X18585714Y-4399580D01*
X18585714Y-4399580D02*
X18633333Y-4447200D01*
X18633333Y-4447200D02*
X18728571Y-4494819D01*
X18728571Y-4494819D02*
X19014285Y-4494819D01*
X19014285Y-4494819D02*
X19109523Y-4447200D01*
X19109523Y-4447200D02*
X19157142Y-4399580D01*
X18772170Y-29849701D02*
X18819789Y-29897321D01*
X18819789Y-29897321D02*
X18962646Y-29944940D01*
X18962646Y-29944940D02*
X19057884Y-29944940D01*
X19057884Y-29944940D02*
X19200741Y-29897321D01*
X19200741Y-29897321D02*
X19295979Y-29802082D01*
X19295979Y-29802082D02*
X19343598Y-29706844D01*
X19343598Y-29706844D02*
X19391217Y-29516368D01*
X19391217Y-29516368D02*
X19391217Y-29373511D01*
X19391217Y-29373511D02*
X19343598Y-29183035D01*
X19343598Y-29183035D02*
X19295979Y-29087797D01*
X19295979Y-29087797D02*
X19200741Y-28992559D01*
X19200741Y-28992559D02*
X19057884Y-28944940D01*
X19057884Y-28944940D02*
X18962646Y-28944940D01*
X18962646Y-28944940D02*
X18819789Y-28992559D01*
X18819789Y-28992559D02*
X18772170Y-29040178D01*
X18438836Y-28944940D02*
X17819789Y-28944940D01*
X17819789Y-28944940D02*
X18153122Y-29325892D01*
X18153122Y-29325892D02*
X18010265Y-29325892D01*
X18010265Y-29325892D02*
X17915027Y-29373511D01*
X17915027Y-29373511D02*
X17867408Y-29421130D01*
X17867408Y-29421130D02*
X17819789Y-29516368D01*
X17819789Y-29516368D02*
X17819789Y-29754463D01*
X17819789Y-29754463D02*
X17867408Y-29849701D01*
X17867408Y-29849701D02*
X17915027Y-29897321D01*
X17915027Y-29897321D02*
X18010265Y-29944940D01*
X18010265Y-29944940D02*
X18295979Y-29944940D01*
X18295979Y-29944940D02*
X18391217Y-29897321D01*
X18391217Y-29897321D02*
X18438836Y-29849701D01*
X16867408Y-29944940D02*
X17438836Y-29944940D01*
X17153122Y-29944940D02*
X17153122Y-28944940D01*
X17153122Y-28944940D02*
X17248360Y-29087797D01*
X17248360Y-29087797D02*
X17343598Y-29183035D01*
X17343598Y-29183035D02*
X17438836Y-29230654D01*
X15512100Y-41354739D02*
X15559719Y-41402359D01*
X15559719Y-41402359D02*
X15702576Y-41449978D01*
X15702576Y-41449978D02*
X15797814Y-41449978D01*
X15797814Y-41449978D02*
X15940671Y-41402359D01*
X15940671Y-41402359D02*
X16035909Y-41307120D01*
X16035909Y-41307120D02*
X16083528Y-41211882D01*
X16083528Y-41211882D02*
X16131147Y-41021406D01*
X16131147Y-41021406D02*
X16131147Y-40878549D01*
X16131147Y-40878549D02*
X16083528Y-40688073D01*
X16083528Y-40688073D02*
X16035909Y-40592835D01*
X16035909Y-40592835D02*
X15940671Y-40497597D01*
X15940671Y-40497597D02*
X15797814Y-40449978D01*
X15797814Y-40449978D02*
X15702576Y-40449978D01*
X15702576Y-40449978D02*
X15559719Y-40497597D01*
X15559719Y-40497597D02*
X15512100Y-40545216D01*
X15131147Y-40545216D02*
X15083528Y-40497597D01*
X15083528Y-40497597D02*
X14988290Y-40449978D01*
X14988290Y-40449978D02*
X14750195Y-40449978D01*
X14750195Y-40449978D02*
X14654957Y-40497597D01*
X14654957Y-40497597D02*
X14607338Y-40545216D01*
X14607338Y-40545216D02*
X14559719Y-40640454D01*
X14559719Y-40640454D02*
X14559719Y-40735692D01*
X14559719Y-40735692D02*
X14607338Y-40878549D01*
X14607338Y-40878549D02*
X15178766Y-41449978D01*
X15178766Y-41449978D02*
X14559719Y-41449978D01*
X13702576Y-40783311D02*
X13702576Y-41449978D01*
X13940671Y-40402359D02*
X14178766Y-41116644D01*
X14178766Y-41116644D02*
X13559719Y-41116644D01*
X20471211Y-40511127D02*
X20518830Y-40558747D01*
X20518830Y-40558747D02*
X20661687Y-40606366D01*
X20661687Y-40606366D02*
X20756925Y-40606366D01*
X20756925Y-40606366D02*
X20899782Y-40558747D01*
X20899782Y-40558747D02*
X20995020Y-40463508D01*
X20995020Y-40463508D02*
X21042639Y-40368270D01*
X21042639Y-40368270D02*
X21090258Y-40177794D01*
X21090258Y-40177794D02*
X21090258Y-40034937D01*
X21090258Y-40034937D02*
X21042639Y-39844461D01*
X21042639Y-39844461D02*
X20995020Y-39749223D01*
X20995020Y-39749223D02*
X20899782Y-39653985D01*
X20899782Y-39653985D02*
X20756925Y-39606366D01*
X20756925Y-39606366D02*
X20661687Y-39606366D01*
X20661687Y-39606366D02*
X20518830Y-39653985D01*
X20518830Y-39653985D02*
X20471211Y-39701604D01*
X19614068Y-39939699D02*
X19614068Y-40606366D01*
X19852163Y-39558747D02*
X20090258Y-40273032D01*
X20090258Y-40273032D02*
X19471211Y-40273032D01*
X18566449Y-40606366D02*
X19137877Y-40606366D01*
X18852163Y-40606366D02*
X18852163Y-39606366D01*
X18852163Y-39606366D02*
X18947401Y-39749223D01*
X18947401Y-39749223D02*
X19042639Y-39844461D01*
X19042639Y-39844461D02*
X19137877Y-39892080D01*
X16149409Y-34881840D02*
X16197028Y-34929460D01*
X16197028Y-34929460D02*
X16339885Y-34977079D01*
X16339885Y-34977079D02*
X16435123Y-34977079D01*
X16435123Y-34977079D02*
X16577980Y-34929460D01*
X16577980Y-34929460D02*
X16673218Y-34834221D01*
X16673218Y-34834221D02*
X16720837Y-34738983D01*
X16720837Y-34738983D02*
X16768456Y-34548507D01*
X16768456Y-34548507D02*
X16768456Y-34405650D01*
X16768456Y-34405650D02*
X16720837Y-34215174D01*
X16720837Y-34215174D02*
X16673218Y-34119936D01*
X16673218Y-34119936D02*
X16577980Y-34024698D01*
X16577980Y-34024698D02*
X16435123Y-33977079D01*
X16435123Y-33977079D02*
X16339885Y-33977079D01*
X16339885Y-33977079D02*
X16197028Y-34024698D01*
X16197028Y-34024698D02*
X16149409Y-34072317D01*
X15197028Y-34977079D02*
X15768456Y-34977079D01*
X15482742Y-34977079D02*
X15482742Y-33977079D01*
X15482742Y-33977079D02*
X15577980Y-34119936D01*
X15577980Y-34119936D02*
X15673218Y-34215174D01*
X15673218Y-34215174D02*
X15768456Y-34262793D01*
X14720837Y-34977079D02*
X14530361Y-34977079D01*
X14530361Y-34977079D02*
X14435123Y-34929460D01*
X14435123Y-34929460D02*
X14387504Y-34881840D01*
X14387504Y-34881840D02*
X14292266Y-34738983D01*
X14292266Y-34738983D02*
X14244647Y-34548507D01*
X14244647Y-34548507D02*
X14244647Y-34167555D01*
X14244647Y-34167555D02*
X14292266Y-34072317D01*
X14292266Y-34072317D02*
X14339885Y-34024698D01*
X14339885Y-34024698D02*
X14435123Y-33977079D01*
X14435123Y-33977079D02*
X14625599Y-33977079D01*
X14625599Y-33977079D02*
X14720837Y-34024698D01*
X14720837Y-34024698D02*
X14768456Y-34072317D01*
X14768456Y-34072317D02*
X14816075Y-34167555D01*
X14816075Y-34167555D02*
X14816075Y-34405650D01*
X14816075Y-34405650D02*
X14768456Y-34500888D01*
X14768456Y-34500888D02*
X14720837Y-34548507D01*
X14720837Y-34548507D02*
X14625599Y-34596126D01*
X14625599Y-34596126D02*
X14435123Y-34596126D01*
X14435123Y-34596126D02*
X14339885Y-34548507D01*
X14339885Y-34548507D02*
X14292266Y-34500888D01*
X14292266Y-34500888D02*
X14244647Y-34405650D01*
X19442857Y-36399580D02*
X19490476Y-36447200D01*
X19490476Y-36447200D02*
X19633333Y-36494819D01*
X19633333Y-36494819D02*
X19728571Y-36494819D01*
X19728571Y-36494819D02*
X19871428Y-36447200D01*
X19871428Y-36447200D02*
X19966666Y-36351961D01*
X19966666Y-36351961D02*
X20014285Y-36256723D01*
X20014285Y-36256723D02*
X20061904Y-36066247D01*
X20061904Y-36066247D02*
X20061904Y-35923390D01*
X20061904Y-35923390D02*
X20014285Y-35732914D01*
X20014285Y-35732914D02*
X19966666Y-35637676D01*
X19966666Y-35637676D02*
X19871428Y-35542438D01*
X19871428Y-35542438D02*
X19728571Y-35494819D01*
X19728571Y-35494819D02*
X19633333Y-35494819D01*
X19633333Y-35494819D02*
X19490476Y-35542438D01*
X19490476Y-35542438D02*
X19442857Y-35590057D01*
X19109523Y-35494819D02*
X18490476Y-35494819D01*
X18490476Y-35494819D02*
X18823809Y-35875771D01*
X18823809Y-35875771D02*
X18680952Y-35875771D01*
X18680952Y-35875771D02*
X18585714Y-35923390D01*
X18585714Y-35923390D02*
X18538095Y-35971009D01*
X18538095Y-35971009D02*
X18490476Y-36066247D01*
X18490476Y-36066247D02*
X18490476Y-36304342D01*
X18490476Y-36304342D02*
X18538095Y-36399580D01*
X18538095Y-36399580D02*
X18585714Y-36447200D01*
X18585714Y-36447200D02*
X18680952Y-36494819D01*
X18680952Y-36494819D02*
X18966666Y-36494819D01*
X18966666Y-36494819D02*
X19061904Y-36447200D01*
X19061904Y-36447200D02*
X19109523Y-36399580D01*
X17919047Y-35923390D02*
X18014285Y-35875771D01*
X18014285Y-35875771D02*
X18061904Y-35828152D01*
X18061904Y-35828152D02*
X18109523Y-35732914D01*
X18109523Y-35732914D02*
X18109523Y-35685295D01*
X18109523Y-35685295D02*
X18061904Y-35590057D01*
X18061904Y-35590057D02*
X18014285Y-35542438D01*
X18014285Y-35542438D02*
X17919047Y-35494819D01*
X17919047Y-35494819D02*
X17728571Y-35494819D01*
X17728571Y-35494819D02*
X17633333Y-35542438D01*
X17633333Y-35542438D02*
X17585714Y-35590057D01*
X17585714Y-35590057D02*
X17538095Y-35685295D01*
X17538095Y-35685295D02*
X17538095Y-35732914D01*
X17538095Y-35732914D02*
X17585714Y-35828152D01*
X17585714Y-35828152D02*
X17633333Y-35875771D01*
X17633333Y-35875771D02*
X17728571Y-35923390D01*
X17728571Y-35923390D02*
X17919047Y-35923390D01*
X17919047Y-35923390D02*
X18014285Y-35971009D01*
X18014285Y-35971009D02*
X18061904Y-36018628D01*
X18061904Y-36018628D02*
X18109523Y-36113866D01*
X18109523Y-36113866D02*
X18109523Y-36304342D01*
X18109523Y-36304342D02*
X18061904Y-36399580D01*
X18061904Y-36399580D02*
X18014285Y-36447200D01*
X18014285Y-36447200D02*
X17919047Y-36494819D01*
X17919047Y-36494819D02*
X17728571Y-36494819D01*
X17728571Y-36494819D02*
X17633333Y-36447200D01*
X17633333Y-36447200D02*
X17585714Y-36399580D01*
X17585714Y-36399580D02*
X17538095Y-36304342D01*
X17538095Y-36304342D02*
X17538095Y-36113866D01*
X17538095Y-36113866D02*
X17585714Y-36018628D01*
X17585714Y-36018628D02*
X17633333Y-35971009D01*
X17633333Y-35971009D02*
X17728571Y-35923390D01*
D11*
%TO.C,C16*%
X17214030Y-42361620D02*
X16998358Y-42361620D01*
X17214030Y-41641620D02*
X16998358Y-41641620D01*
%TO.C,C22*%
X14416643Y-40345349D02*
X14200971Y-40345349D01*
X14416643Y-39625349D02*
X14200971Y-39625349D01*
%TO.C,C28*%
X9307836Y-49960000D02*
X9092164Y-49960000D01*
X9307836Y-49240000D02*
X9092164Y-49240000D01*
%TO.C,U8*%
X21550000Y-34450000D02*
X16450000Y-34450000D01*
X21550000Y-32050000D02*
X21550000Y-34450000D01*
X16450000Y-34450000D02*
X16450000Y-31750000D01*
X16450000Y-31750000D02*
X21250000Y-31750000D01*
X21830000Y-31750000D02*
X21550000Y-31750000D01*
X21550000Y-31470000D01*
X21830000Y-31750000D01*
G36*
X21830000Y-31750000D02*
G01*
X21550000Y-31750000D01*
X21550000Y-31470000D01*
X21830000Y-31750000D01*
G37*
%TO.C,C26*%
X22726596Y-44019793D02*
X22445436Y-44019793D01*
X22726596Y-42999793D02*
X22445436Y-42999793D01*
%TO.C,C2*%
X14290237Y-64180618D02*
X13767733Y-64180618D01*
X14290237Y-62710618D02*
X13767733Y-62710618D01*
%TO.C,C25*%
X23467964Y-36259031D02*
X23252292Y-36259031D01*
X23467964Y-35539031D02*
X23252292Y-35539031D01*
%TO.C,C15*%
X20296263Y-36076899D02*
X20080591Y-36076899D01*
X20296263Y-35356899D02*
X20080591Y-35356899D01*
%TO.C,C3*%
X22608548Y-63604615D02*
X22086044Y-63604615D01*
X22608548Y-62134615D02*
X22086044Y-62134615D01*
%TO.C,C35*%
X29607836Y-23860000D02*
X29392164Y-23860000D01*
X29607836Y-23140000D02*
X29392164Y-23140000D01*
%TO.C,C11*%
X16737154Y-40883055D02*
X16521482Y-40883055D01*
X16737154Y-40163055D02*
X16521482Y-40163055D01*
%TO.C,C10*%
X36013982Y-42899103D02*
X35798310Y-42899103D01*
X36013982Y-42179103D02*
X35798310Y-42179103D01*
%TO.C,U9*%
X20800000Y-46800000D02*
X17200000Y-46800000D01*
X20800000Y-43800000D02*
X20800000Y-46800000D01*
X20800000Y-43800000D02*
X17200000Y-43800000D01*
X17200000Y-43800000D02*
X17200000Y-46800000D01*
D12*
X20750000Y-46500000D02*
G75*
G03*
X20450000Y-46500000I-150000J0D01*
G01*
X20450000Y-46500000D02*
G75*
G03*
X20750000Y-46500000I150000J0D01*
G01*
D11*
%TO.C,C5*%
X12698377Y-36936285D02*
X12175873Y-36936285D01*
X12698377Y-35466285D02*
X12175873Y-35466285D01*
%TO.C,C34*%
X10207836Y-8160000D02*
X9992164Y-8160000D01*
X10207836Y-7440000D02*
X9992164Y-7440000D01*
%TO.C,C39*%
X21129326Y-40310918D02*
X20913654Y-40310918D01*
X21129326Y-39590918D02*
X20913654Y-39590918D01*
%TO.C,C27*%
X15441032Y-44227925D02*
X15159872Y-44227925D01*
X15441032Y-43207925D02*
X15159872Y-43207925D01*
%TO.C,C36*%
X14191417Y-34588979D02*
X13668913Y-34588979D01*
X14191417Y-33118979D02*
X13668913Y-33118979D01*
%TO.C,C13*%
X17879481Y-36248452D02*
X17663809Y-36248452D01*
X17879481Y-35528452D02*
X17663809Y-35528452D01*
%TO.C,C29*%
X8507836Y-51360000D02*
X8292164Y-51360000D01*
X8507836Y-50640000D02*
X8292164Y-50640000D01*
%TO.C,C23*%
X23399028Y-37574650D02*
X23183356Y-37574650D01*
X23399028Y-36854650D02*
X23183356Y-36854650D01*
%TO.C,C37*%
X19707836Y-38960000D02*
X19492164Y-38960000D01*
X19707836Y-38240000D02*
X19492164Y-38240000D01*
%TO.C,C40*%
X21129326Y-37609081D02*
X20913654Y-37609081D01*
X21129326Y-36889081D02*
X20913654Y-36889081D01*
%TO.C,C32*%
X19636821Y-48205618D02*
X19421149Y-48205618D01*
X19636821Y-47485618D02*
X19421149Y-47485618D01*
%TO.C,D2*%
X14510000Y-12950000D02*
X9000000Y-12950000D01*
X14510000Y-9650000D02*
X14510000Y-12950000D01*
X14510000Y-9650000D02*
X9000000Y-9650000D01*
%TO.C,C30*%
X32907835Y-49660000D02*
X32692163Y-49660000D01*
X32907835Y-48940000D02*
X32692163Y-48940000D01*
%TO.C,C4*%
X21913955Y-59665384D02*
X21391451Y-59665384D01*
X21913955Y-58195384D02*
X21391451Y-58195384D01*
%TO.C,C12*%
X16340013Y-37612302D02*
X16124341Y-37612302D01*
X16340013Y-36892302D02*
X16124341Y-36892302D01*
%TO.C,C7*%
X18907836Y-40360000D02*
X18692164Y-40360000D01*
X18907836Y-39640000D02*
X18692164Y-39640000D01*
%TO.C,C21*%
X22353179Y-42156811D02*
X22137507Y-42156811D01*
X22353179Y-41436811D02*
X22137507Y-41436811D01*
%TO.C,C1*%
X14561252Y-61635000D02*
X14038748Y-61635000D01*
X14561252Y-60165000D02*
X14038748Y-60165000D01*
%TO.C,C6*%
X22907836Y-61260000D02*
X22692164Y-61260000D01*
X22907836Y-60540000D02*
X22692164Y-60540000D01*
%TO.C,J3*%
X30930000Y-52450000D02*
X25730000Y-52450000D01*
X30930000Y-44770000D02*
X30930000Y-52450000D01*
X30930000Y-44770000D02*
X28330000Y-44770000D01*
X30930000Y-43500000D02*
X30930000Y-42170000D01*
X30930000Y-42170000D02*
X29600000Y-42170000D01*
X28330000Y-44770000D02*
X28330000Y-42170000D01*
X28330000Y-42170000D02*
X25730000Y-42170000D01*
X25730000Y-42170000D02*
X25730000Y-52450000D01*
%TO.C,C42*%
X17507836Y-38960000D02*
X17292164Y-38960000D01*
X17507836Y-38240000D02*
X17292164Y-38240000D01*
%TO.C,C17*%
X15107836Y-38960000D02*
X14892164Y-38960000D01*
X15107836Y-38240000D02*
X14892164Y-38240000D01*
%TO.C,C20*%
X23399028Y-40345349D02*
X23183356Y-40345349D01*
X23399028Y-39625349D02*
X23183356Y-39625349D01*
%TO.C,C14*%
X22107836Y-38960000D02*
X21892164Y-38960000D01*
X22107836Y-38240000D02*
X21892164Y-38240000D01*
%TO.C,C18*%
X19619793Y-42997711D02*
X19404121Y-42997711D01*
X19619793Y-42277711D02*
X19404121Y-42277711D01*
%TO.C,C33*%
X19907836Y-5560000D02*
X19692164Y-5560000D01*
X19907836Y-4840000D02*
X19692164Y-4840000D01*
%TO.C,C31*%
X18237149Y-31010121D02*
X18021477Y-31010121D01*
X18237149Y-30290121D02*
X18021477Y-30290121D01*
%TO.C,C24*%
X14977079Y-42515159D02*
X14761407Y-42515159D01*
X14977079Y-41795159D02*
X14761407Y-41795159D01*
%TO.C,C41*%
X19936190Y-41671547D02*
X19720518Y-41671547D01*
X19936190Y-40951547D02*
X19720518Y-40951547D01*
%TO.C,C19*%
X15614388Y-36042260D02*
X15398716Y-36042260D01*
X15614388Y-35322260D02*
X15398716Y-35322260D01*
%TO.C,C38*%
X18907836Y-37560000D02*
X18692164Y-37560000D01*
X18907836Y-36840000D02*
X18692164Y-36840000D01*
%TD*%
M02*
