%TF.GenerationSoftware,KiCad,Pcbnew,7.0.11+dfsg-1build4*%
%TF.CreationDate,2026-06-14T01:09:49+00:00*%
%TF.ProjectId,stratosdrone,73747261-746f-4736-9472-6f6e652e6b69,rev?*%
%TF.SameCoordinates,Original*%
%TF.FileFunction,Copper,L1,Top*%
%TF.FilePolarity,Positive*%
%FSLAX46Y46*%
G04 Gerber Fmt 4.6, Leading zero omitted, Abs format (unit mm)*
G04 Created by KiCad (PCBNEW 7.0.11+dfsg-1build4) date 2026-06-14 01:09:49*
%MOMM*%
%LPD*%
G01*
G04 APERTURE LIST*
G04 Aperture macros list*
%AMRoundRect*
0 Rectangle with rounded corners*
0 $1 Rounding radius*
0 $2 $3 $4 $5 $6 $7 $8 $9 X,Y pos of 4 corners*
0 Add a 4 corners polygon primitive as box body*
4,1,4,$2,$3,$4,$5,$6,$7,$8,$9,$2,$3,0*
0 Add four circle primitives for the rounded corners*
1,1,$1+$1,$2,$3*
1,1,$1+$1,$4,$5*
1,1,$1+$1,$6,$7*
1,1,$1+$1,$8,$9*
0 Add four rect primitives between the rounded corners*
20,1,$1+$1,$2,$3,$4,$5,0*
20,1,$1+$1,$4,$5,$6,$7,0*
20,1,$1+$1,$6,$7,$8,$9,0*
20,1,$1+$1,$8,$9,$2,$3,0*%
%AMFreePoly0*
4,1,6,0.725000,-0.725000,-0.725000,-0.725000,-0.725000,0.125000,-0.125000,0.725000,0.725000,0.725000,0.725000,-0.725000,0.725000,-0.725000,$1*%
G04 Aperture macros list end*
%TA.AperFunction,SMDPad,CuDef*%
%ADD10RoundRect,0.140000X-0.140000X-0.170000X0.140000X-0.170000X0.140000X0.170000X-0.140000X0.170000X0*%
%TD*%
%TA.AperFunction,SMDPad,CuDef*%
%ADD11RoundRect,0.225000X-0.225000X-0.250000X0.225000X-0.250000X0.225000X0.250000X-0.225000X0.250000X0*%
%TD*%
%TA.AperFunction,SMDPad,CuDef*%
%ADD12RoundRect,0.135000X-0.135000X-0.185000X0.135000X-0.185000X0.135000X0.185000X-0.135000X0.185000X0*%
%TD*%
%TA.AperFunction,SMDPad,CuDef*%
%ADD13RoundRect,0.250000X-0.250000X-0.475000X0.250000X-0.475000X0.250000X0.475000X-0.250000X0.475000X0*%
%TD*%
%TA.AperFunction,SMDPad,CuDef*%
%ADD14RoundRect,0.150000X-0.825000X-0.150000X0.825000X-0.150000X0.825000X0.150000X-0.825000X0.150000X0*%
%TD*%
%TA.AperFunction,SMDPad,CuDef*%
%ADD15RoundRect,0.250000X-1.000000X-0.650000X1.000000X-0.650000X1.000000X0.650000X-1.000000X0.650000X0*%
%TD*%
%TA.AperFunction,ComponentPad*%
%ADD16R,1.700000X1.700000*%
%TD*%
%TA.AperFunction,ComponentPad*%
%ADD17O,1.700000X1.700000*%
%TD*%
%TA.AperFunction,SMDPad,CuDef*%
%ADD18RoundRect,0.218750X-0.218750X-0.381250X0.218750X-0.381250X0.218750X0.381250X-0.218750X0.381250X0*%
%TD*%
%TA.AperFunction,SMDPad,CuDef*%
%ADD19RoundRect,0.150000X-0.587500X-0.150000X0.587500X-0.150000X0.587500X0.150000X-0.587500X0.150000X0*%
%TD*%
%TA.AperFunction,ComponentPad*%
%ADD20R,1.000000X1.000000*%
%TD*%
%TA.AperFunction,ComponentPad*%
%ADD21O,1.000000X1.000000*%
%TD*%
%TA.AperFunction,SMDPad,CuDef*%
%ADD22R,0.800000X0.400000*%
%TD*%
%TA.AperFunction,SMDPad,CuDef*%
%ADD23R,0.400000X0.800000*%
%TD*%
%TA.AperFunction,SMDPad,CuDef*%
%ADD24FreePoly0,0.000000*%
%TD*%
%TA.AperFunction,SMDPad,CuDef*%
%ADD25R,1.450000X1.450000*%
%TD*%
%TA.AperFunction,SMDPad,CuDef*%
%ADD26R,0.700000X0.700000*%
%TD*%
%TA.AperFunction,SMDPad,CuDef*%
%ADD27R,0.350000X0.500000*%
%TD*%
%TA.AperFunction,SMDPad,CuDef*%
%ADD28R,1.500000X1.500000*%
%TD*%
%TA.AperFunction,SMDPad,CuDef*%
%ADD29R,1.450000X0.600000*%
%TD*%
%TA.AperFunction,SMDPad,CuDef*%
%ADD30R,1.450000X0.300000*%
%TD*%
%TA.AperFunction,ComponentPad*%
%ADD31O,2.100000X1.000000*%
%TD*%
%TA.AperFunction,ComponentPad*%
%ADD32O,1.600000X1.000000*%
%TD*%
%TA.AperFunction,SMDPad,CuDef*%
%ADD33RoundRect,0.150000X-0.512500X-0.150000X0.512500X-0.150000X0.512500X0.150000X-0.512500X0.150000X0*%
%TD*%
%TA.AperFunction,SMDPad,CuDef*%
%ADD34RoundRect,0.218750X-0.218750X-0.256250X0.218750X-0.256250X0.218750X0.256250X-0.218750X0.256250X0*%
%TD*%
%TA.AperFunction,HeatsinkPad*%
%ADD35R,2.410000X3.810000*%
%TD*%
%TA.AperFunction,SMDPad,CuDef*%
%ADD36O,0.650000X0.200000*%
%TD*%
%TA.AperFunction,SMDPad,CuDef*%
%ADD37O,0.200000X0.650000*%
%TD*%
%TA.AperFunction,SMDPad,CuDef*%
%ADD38R,2.100000X2.100000*%
%TD*%
%TA.AperFunction,SMDPad,CuDef*%
%ADD39RoundRect,0.250000X-0.250000X-1.500000X0.250000X-1.500000X0.250000X1.500000X-0.250000X1.500000X0*%
%TD*%
%TA.AperFunction,SMDPad,CuDef*%
%ADD40RoundRect,0.250001X-0.499999X-1.449999X0.499999X-1.449999X0.499999X1.449999X-0.499999X1.449999X0*%
%TD*%
%TA.AperFunction,SMDPad,CuDef*%
%ADD41R,0.300000X1.300000*%
%TD*%
%TA.AperFunction,SMDPad,CuDef*%
%ADD42R,1.800000X2.200000*%
%TD*%
%TA.AperFunction,SMDPad,CuDef*%
%ADD43RoundRect,0.062500X-0.062500X-0.350000X0.062500X-0.350000X0.062500X0.350000X-0.062500X0.350000X0*%
%TD*%
%TA.AperFunction,SMDPad,CuDef*%
%ADD44RoundRect,0.062500X-0.350000X-0.062500X0.350000X-0.062500X0.350000X0.062500X-0.350000X0.062500X0*%
%TD*%
%TA.AperFunction,HeatsinkPad*%
%ADD45R,1.000000X1.500000*%
%TD*%
%TA.AperFunction,SMDPad,CuDef*%
%ADD46R,1.400000X1.200000*%
%TD*%
G04 APERTURE END LIST*
D10*
%TO.P,C29,1*%
%TO.N,3V3*%
X2020000Y-53800000D03*
%TO.P,C29,2*%
%TO.N,GND*%
X2980000Y-53800000D03*
%TD*%
D11*
%TO.P,C27,1*%
%TO.N,3V3*%
X25924999Y-51600000D03*
%TO.P,C27,2*%
%TO.N,GND*%
X27474999Y-51600000D03*
%TD*%
D10*
%TO.P,C20,1*%
%TO.N,3V3*%
X10820000Y-51600000D03*
%TO.P,C20,2*%
%TO.N,GND*%
X11780000Y-51600000D03*
%TD*%
D12*
%TO.P,R9,1*%
%TO.N,3V3*%
X17390000Y-47200000D03*
%TO.P,R9,2*%
%TO.N,CHIP_PU*%
X18410000Y-47200000D03*
%TD*%
D10*
%TO.P,C12,1*%
%TO.N,3V3*%
X21819999Y-49400000D03*
%TO.P,C12,2*%
%TO.N,GND*%
X22779999Y-49400000D03*
%TD*%
D13*
%TO.P,C3,1*%
%TO.N,VBAT*%
X16950000Y-45000000D03*
%TO.P,C3,2*%
%TO.N,GND*%
X18850000Y-45000000D03*
%TD*%
D12*
%TO.P,R5,1*%
%TO.N,FB3V3*%
X23989999Y-45000000D03*
%TO.P,R5,2*%
%TO.N,GND*%
X25009999Y-45000000D03*
%TD*%
D10*
%TO.P,C16,1*%
%TO.N,3V3*%
X2020000Y-51600000D03*
%TO.P,C16,2*%
%TO.N,GND*%
X2980000Y-51600000D03*
%TD*%
%TO.P,C35,1*%
%TO.N,VBAT*%
X13020000Y-56000000D03*
%TO.P,C35,2*%
%TO.N,GND*%
X13980000Y-56000000D03*
%TD*%
%TO.P,C11,1*%
%TO.N,VDD_CORE*%
X19619999Y-49400000D03*
%TO.P,C11,2*%
%TO.N,GND*%
X20579999Y-49400000D03*
%TD*%
D14*
%TO.P,U2,1*%
%TO.N,FLASH_CS*%
X7525000Y-22095000D03*
%TO.P,U2,2*%
%TO.N,FLASH_IO1*%
X7525000Y-23365000D03*
%TO.P,U2,3*%
%TO.N,FLASH_IO2*%
X7525000Y-24635000D03*
%TO.P,U2,4*%
%TO.N,GND*%
X7525000Y-25905000D03*
%TO.P,U2,5*%
%TO.N,FLASH_IO0*%
X12475000Y-25905000D03*
%TO.P,U2,6*%
%TO.N,FLASH_CK*%
X12475000Y-24635000D03*
%TO.P,U2,7*%
%TO.N,FLASH_IO3*%
X12475000Y-23365000D03*
%TO.P,U2,8*%
%TO.N,3V3*%
X12475000Y-22095000D03*
%TD*%
D15*
%TO.P,D4,1*%
%TO.N,VBAT*%
X22499999Y-53800000D03*
%TO.P,D4,2*%
%TO.N,M2_D*%
X26499999Y-53800000D03*
%TD*%
D12*
%TO.P,R17,1*%
%TO.N,3V3*%
X8590000Y-49400000D03*
%TO.P,R17,2*%
%TO.N,SDIO_D0*%
X9610000Y-49400000D03*
%TD*%
%TO.P,R22,1*%
%TO.N,M1_G*%
X12990000Y-53800000D03*
%TO.P,R22,2*%
%TO.N,M1_GATE*%
X14010000Y-53800000D03*
%TD*%
%TO.P,R3,1*%
%TO.N,PROG*%
X8590000Y-45000000D03*
%TO.P,R3,2*%
%TO.N,GND*%
X9610000Y-45000000D03*
%TD*%
D10*
%TO.P,C8,1*%
%TO.N,XTAL_P*%
X13020000Y-47200000D03*
%TO.P,C8,2*%
%TO.N,GND*%
X13980000Y-47200000D03*
%TD*%
D16*
%TO.P,J5,1*%
%TO.N,VBAT*%
X28000000Y-5000000D03*
D17*
%TO.P,J5,2*%
%TO.N,M1_D*%
X28000000Y-7540000D03*
%TD*%
D18*
%TO.P,L1,1*%
%TO.N,SW3V3*%
X22937500Y-52000000D03*
%TO.P,L1,2*%
%TO.N,3V3*%
X25062500Y-52000000D03*
%TD*%
D19*
%TO.P,Q3,1*%
%TO.N,M3_D*%
X4062500Y-55050000D03*
%TO.P,Q3,2*%
%TO.N,GND*%
X4062500Y-56950000D03*
%TO.P,Q3,3*%
%TO.N,M3_GATE*%
X5937500Y-56000000D03*
%TD*%
D20*
%TO.P,J11,1*%
%TO.N,GND*%
X22000000Y-60000000D03*
D21*
%TO.P,J11,2*%
%TO.N,C6_U0TXD*%
X22000000Y-61270000D03*
%TO.P,J11,3*%
%TO.N,C6_U0RXD*%
X22000000Y-62540000D03*
%TO.P,J11,4*%
%TO.N,C6_BOOT*%
X22000000Y-63810000D03*
%TD*%
D12*
%TO.P,R8,1*%
%TO.N,VBAT_SENSE*%
X6390000Y-47200000D03*
%TO.P,R8,2*%
%TO.N,GND*%
X7410000Y-47200000D03*
%TD*%
D10*
%TO.P,C19,1*%
%TO.N,3V3*%
X8620000Y-51600000D03*
%TO.P,C19,2*%
%TO.N,GND*%
X9580000Y-51600000D03*
%TD*%
%TO.P,C7,1*%
%TO.N,VDD_MIPI*%
X10820000Y-47200000D03*
%TO.P,C7,2*%
%TO.N,GND*%
X11780000Y-47200000D03*
%TD*%
D22*
%TO.P,U3,1*%
%TO.N,GND*%
X10100000Y-12700000D03*
%TO.P,U3,2*%
X10100000Y-13500000D03*
%TO.P,U3,3*%
%TO.N,3V3*%
X10100000Y-14300000D03*
%TO.P,U3,4*%
%TO.N,N/C*%
X10100000Y-15100000D03*
%TO.P,U3,5*%
X10100000Y-15900000D03*
%TO.P,U3,6*%
X10100000Y-16700000D03*
%TO.P,U3,7*%
X10100000Y-17500000D03*
%TO.P,U3,8*%
%TO.N,C6_EN*%
X10100000Y-18300000D03*
%TO.P,U3,9*%
%TO.N,N/C*%
X10100000Y-19100000D03*
%TO.P,U3,10*%
X10100000Y-19900000D03*
%TO.P,U3,11*%
%TO.N,GND*%
X10100000Y-20700000D03*
D23*
%TO.P,U3,12*%
%TO.N,N/C*%
X11200000Y-21600000D03*
%TO.P,U3,13*%
X12000000Y-21600000D03*
%TO.P,U3,14*%
%TO.N,GND*%
X12800000Y-21600000D03*
%TO.P,U3,15*%
%TO.N,N/C*%
X13600000Y-21600000D03*
%TO.P,U3,16*%
X14400000Y-21600000D03*
%TO.P,U3,17*%
X15200000Y-21600000D03*
%TO.P,U3,18*%
X16000000Y-21600000D03*
%TO.P,U3,19*%
X16800000Y-21600000D03*
%TO.P,U3,20*%
X17600000Y-21600000D03*
%TO.P,U3,21*%
X18400000Y-21600000D03*
%TO.P,U3,22*%
X19200000Y-21600000D03*
%TO.P,U3,23*%
%TO.N,C6_BOOT*%
X20000000Y-21600000D03*
%TO.P,U3,24*%
%TO.N,SDIO_CMD*%
X20800000Y-21600000D03*
D22*
%TO.P,U3,25*%
%TO.N,SDIO_CLK*%
X21900000Y-20700000D03*
%TO.P,U3,26*%
%TO.N,SDIO_D0*%
X21900000Y-19900000D03*
%TO.P,U3,27*%
%TO.N,SDIO_D1*%
X21900000Y-19100000D03*
%TO.P,U3,28*%
%TO.N,SDIO_D2*%
X21900000Y-18300000D03*
%TO.P,U3,29*%
%TO.N,SDIO_D3*%
X21900000Y-17500000D03*
%TO.P,U3,30*%
%TO.N,C6_U0RXD*%
X21900000Y-16700000D03*
%TO.P,U3,31*%
%TO.N,C6_U0TXD*%
X21900000Y-15900000D03*
%TO.P,U3,32*%
%TO.N,N/C*%
X21900000Y-15100000D03*
%TO.P,U3,33*%
X21900000Y-14300000D03*
%TO.P,U3,34*%
X21900000Y-13500000D03*
%TO.P,U3,35*%
X21900000Y-12700000D03*
D23*
%TO.P,U3,36*%
%TO.N,GND*%
X20800000Y-11800000D03*
%TO.P,U3,37*%
X20000000Y-11800000D03*
%TO.P,U3,38*%
X19200000Y-11800000D03*
%TO.P,U3,39*%
X18400000Y-11800000D03*
%TO.P,U3,40*%
X17600000Y-11800000D03*
%TO.P,U3,41*%
X16800000Y-11800000D03*
%TO.P,U3,42*%
X16000000Y-11800000D03*
%TO.P,U3,43*%
X15200000Y-11800000D03*
%TO.P,U3,44*%
X14400000Y-11800000D03*
%TO.P,U3,45*%
X13600000Y-11800000D03*
%TO.P,U3,46*%
X12800000Y-11800000D03*
%TO.P,U3,47*%
X12000000Y-11800000D03*
%TO.P,U3,48*%
X11200000Y-11800000D03*
D24*
%TO.P,U3,49*%
X14025000Y-14725000D03*
D25*
X14025000Y-16700000D03*
X14025000Y-18675000D03*
X16000000Y-14725000D03*
X16000000Y-16700000D03*
X16000000Y-18675000D03*
X17975000Y-14725000D03*
X17975000Y-16700000D03*
X17975000Y-18675000D03*
D26*
%TO.P,U3,50*%
X21950000Y-11750000D03*
%TO.P,U3,51*%
X21950000Y-21650000D03*
%TO.P,U3,52*%
X10050000Y-21650000D03*
%TO.P,U3,53*%
X10050000Y-11750000D03*
%TD*%
D20*
%TO.P,J10,1*%
%TO.N,GND*%
X10000000Y-60000000D03*
D21*
%TO.P,J10,2*%
%TO.N,U0TXD*%
X10000000Y-61270000D03*
%TO.P,J10,3*%
%TO.N,U0RXD*%
X10000000Y-62540000D03*
%TO.P,J10,4*%
%TO.N,3V3*%
X10000000Y-63810000D03*
%TD*%
D12*
%TO.P,R16,1*%
%TO.N,3V3*%
X6390000Y-49400000D03*
%TO.P,R16,2*%
%TO.N,SDIO_CMD*%
X7410000Y-49400000D03*
%TD*%
D19*
%TO.P,Q2,1*%
%TO.N,M2_D*%
X26062500Y-55050000D03*
%TO.P,Q2,2*%
%TO.N,GND*%
X26062500Y-56950000D03*
%TO.P,Q2,3*%
%TO.N,M2_GATE*%
X27937500Y-56000000D03*
%TD*%
%TO.P,Q4,1*%
%TO.N,M4_D*%
X4062500Y-9050000D03*
%TO.P,Q4,2*%
%TO.N,GND*%
X4062500Y-10950000D03*
%TO.P,Q4,3*%
%TO.N,M4_GATE*%
X5937500Y-10000000D03*
%TD*%
D12*
%TO.P,R26,1*%
%TO.N,M1_GATE*%
X15190000Y-53800000D03*
%TO.P,R26,2*%
%TO.N,GND*%
X16210000Y-53800000D03*
%TD*%
D10*
%TO.P,C30,1*%
%TO.N,3V3*%
X4220000Y-53800000D03*
%TO.P,C30,2*%
%TO.N,GND*%
X5180000Y-53800000D03*
%TD*%
D12*
%TO.P,R2,1*%
%TO.N,CC2*%
X4190000Y-45000000D03*
%TO.P,R2,2*%
%TO.N,GND*%
X5210000Y-45000000D03*
%TD*%
D13*
%TO.P,C2,1*%
%TO.N,VBAT*%
X12550000Y-45000000D03*
%TO.P,C2,2*%
%TO.N,GND*%
X14450000Y-45000000D03*
%TD*%
D12*
%TO.P,R29,1*%
%TO.N,M4_GATE*%
X6390000Y-56000000D03*
%TO.P,R29,2*%
%TO.N,GND*%
X7410000Y-56000000D03*
%TD*%
D16*
%TO.P,J7,1*%
%TO.N,VBAT*%
X4000000Y-61000000D03*
D17*
%TO.P,J7,2*%
%TO.N,M3_D*%
X4000000Y-63540000D03*
%TD*%
D27*
%TO.P,U7,1*%
%TO.N,I2C_SDA*%
X21025000Y-36200000D03*
%TO.P,U7,2*%
%TO.N,GND*%
X21675000Y-36200000D03*
%TO.P,U7,3*%
%TO.N,3V3*%
X22325000Y-36200000D03*
%TO.P,U7,4*%
%TO.N,I2C_SCL*%
X22975000Y-36200000D03*
%TO.P,U7,5*%
%TO.N,3V3*%
X22975000Y-37800000D03*
%TO.P,U7,6*%
%TO.N,GND*%
X22325000Y-37800000D03*
%TO.P,U7,7*%
X21675000Y-37800000D03*
%TO.P,U7,8*%
%TO.N,3V3*%
X21025000Y-37800000D03*
%TD*%
D12*
%TO.P,R13,1*%
%TO.N,3V3*%
X28389999Y-47200000D03*
%TO.P,R13,2*%
%TO.N,FLASH_CS*%
X29409999Y-47200000D03*
%TD*%
%TO.P,R23,1*%
%TO.N,M2_G*%
X19589999Y-53800000D03*
%TO.P,R23,2*%
%TO.N,M2_GATE*%
X20609999Y-53800000D03*
%TD*%
D15*
%TO.P,D6,1*%
%TO.N,VBAT*%
X7100000Y-56000000D03*
%TO.P,D6,2*%
%TO.N,M4_D*%
X11100000Y-56000000D03*
%TD*%
D12*
%TO.P,R6,1*%
%TO.N,3V3_EN*%
X26189999Y-45000000D03*
%TO.P,R6,2*%
%TO.N,VBAT*%
X27209999Y-45000000D03*
%TD*%
%TO.P,R14,1*%
%TO.N,3V3*%
X1990000Y-49400000D03*
%TO.P,R14,2*%
%TO.N,FLASH_IO2*%
X3010000Y-49400000D03*
%TD*%
%TO.P,R19,1*%
%TO.N,3V3*%
X12990000Y-49400000D03*
%TO.P,R19,2*%
%TO.N,SDIO_D2*%
X14010000Y-49400000D03*
%TD*%
D28*
%TO.P,SW1,1*%
%TO.N,CHIP_PU*%
X23100000Y-30000000D03*
%TO.P,SW1,2*%
%TO.N,GND*%
X30900000Y-30000000D03*
%TD*%
D29*
%TO.P,J2,A1*%
%TO.N,GND*%
X-545000Y-27250000D03*
%TO.P,J2,A4*%
%TO.N,VBUS*%
X-545000Y-26450000D03*
D30*
%TO.P,J2,A5*%
%TO.N,CC1*%
X-545000Y-25250000D03*
%TO.P,J2,A6*%
%TO.N,USB_DP_C*%
X-545000Y-24250000D03*
%TO.P,J2,A7*%
%TO.N,USB_DM_C*%
X-545000Y-23750000D03*
%TO.P,J2,A8*%
%TO.N,N/C*%
X-545000Y-22750000D03*
D29*
%TO.P,J2,A9*%
%TO.N,VBUS*%
X-545000Y-21550000D03*
%TO.P,J2,A12*%
%TO.N,GND*%
X-545000Y-20750000D03*
%TO.P,J2,B1*%
X-545000Y-20750000D03*
%TO.P,J2,B4*%
%TO.N,VBUS*%
X-545000Y-21550000D03*
D30*
%TO.P,J2,B5*%
%TO.N,CC2*%
X-545000Y-22250000D03*
%TO.P,J2,B6*%
%TO.N,USB_DP_C*%
X-545000Y-23250000D03*
%TO.P,J2,B7*%
%TO.N,USB_DM_C*%
X-545000Y-24750000D03*
%TO.P,J2,B8*%
%TO.N,N/C*%
X-545000Y-25750000D03*
D29*
%TO.P,J2,B9*%
%TO.N,VBUS*%
X-545000Y-26450000D03*
%TO.P,J2,B12*%
%TO.N,GND*%
X-545000Y-27250000D03*
D31*
%TO.P,J2,S1*%
X370000Y-28320000D03*
D32*
X4550000Y-28320000D03*
D31*
X370000Y-19680000D03*
D32*
X4550000Y-19680000D03*
%TD*%
D26*
%TO.P,LED2,1*%
%TO.N,VBAT*%
X25085000Y-15450000D03*
%TO.P,LED2,2*%
%TO.N,LED_D12*%
X25085000Y-16550000D03*
%TO.P,LED2,3*%
%TO.N,GND*%
X26915000Y-16550000D03*
%TO.P,LED2,4*%
%TO.N,LED_DOUT*%
X26915000Y-15450000D03*
%TD*%
D10*
%TO.P,C18,1*%
%TO.N,3V3*%
X6420000Y-51600000D03*
%TO.P,C18,2*%
%TO.N,GND*%
X7380000Y-51600000D03*
%TD*%
%TO.P,C17,1*%
%TO.N,3V3*%
X4220000Y-51600000D03*
%TO.P,C17,2*%
%TO.N,GND*%
X5180000Y-51600000D03*
%TD*%
D12*
%TO.P,R27,1*%
%TO.N,M2_GATE*%
X21789999Y-53800000D03*
%TO.P,R27,2*%
%TO.N,GND*%
X22809999Y-53800000D03*
%TD*%
%TO.P,R25,1*%
%TO.N,M4_G*%
X4190000Y-56000000D03*
%TO.P,R25,2*%
%TO.N,M4_GATE*%
X5210000Y-56000000D03*
%TD*%
D10*
%TO.P,C28,1*%
%TO.N,3V3*%
X28419999Y-51600000D03*
%TO.P,C28,2*%
%TO.N,GND*%
X29379999Y-51600000D03*
%TD*%
%TO.P,C13,1*%
%TO.N,3V3*%
X24019999Y-49400000D03*
%TO.P,C13,2*%
%TO.N,GND*%
X24979999Y-49400000D03*
%TD*%
D15*
%TO.P,D5,1*%
%TO.N,VBAT*%
X500000Y-56000000D03*
%TO.P,D5,2*%
%TO.N,M3_D*%
X4500000Y-56000000D03*
%TD*%
D10*
%TO.P,C10,1*%
%TO.N,CHIP_PU*%
X19619999Y-47200000D03*
%TO.P,C10,2*%
%TO.N,GND*%
X20579999Y-47200000D03*
%TD*%
D12*
%TO.P,R12,1*%
%TO.N,DSI_REXT*%
X26189999Y-47200000D03*
%TO.P,R12,2*%
%TO.N,GND*%
X27209999Y-47200000D03*
%TD*%
D16*
%TO.P,J8,1*%
%TO.N,VBAT*%
X4000000Y-5000000D03*
D17*
%TO.P,J8,2*%
%TO.N,M4_D*%
X4000000Y-7540000D03*
%TD*%
D12*
%TO.P,R4,1*%
%TO.N,3V3*%
X21789999Y-45000000D03*
%TO.P,R4,2*%
%TO.N,FB3V3*%
X22809999Y-45000000D03*
%TD*%
%TO.P,R11,1*%
%TO.N,CSI_REXT*%
X23989999Y-47200000D03*
%TO.P,R11,2*%
%TO.N,GND*%
X25009999Y-47200000D03*
%TD*%
D11*
%TO.P,C26,1*%
%TO.N,3V3*%
X23724999Y-51600000D03*
%TO.P,C26,2*%
%TO.N,GND*%
X25274999Y-51600000D03*
%TD*%
D12*
%TO.P,R24,1*%
%TO.N,M3_G*%
X26189999Y-53800000D03*
%TO.P,R24,2*%
%TO.N,M3_GATE*%
X27209999Y-53800000D03*
%TD*%
%TO.P,R15,1*%
%TO.N,3V3*%
X4190000Y-49400000D03*
%TO.P,R15,2*%
%TO.N,FLASH_IO3*%
X5210000Y-49400000D03*
%TD*%
D11*
%TO.P,C5,1*%
%TO.N,VDD_CORE*%
X1725000Y-47200000D03*
%TO.P,C5,2*%
%TO.N,GND*%
X3275000Y-47200000D03*
%TD*%
D10*
%TO.P,C24,1*%
%TO.N,3V3*%
X19619999Y-51600000D03*
%TO.P,C24,2*%
%TO.N,GND*%
X20579999Y-51600000D03*
%TD*%
%TO.P,C21,1*%
%TO.N,3V3*%
X13020000Y-51600000D03*
%TO.P,C21,2*%
%TO.N,GND*%
X13980000Y-51600000D03*
%TD*%
D26*
%TO.P,LED1,1*%
%TO.N,VBAT*%
X5085000Y-15450000D03*
%TO.P,LED1,2*%
%TO.N,LED_DIN*%
X5085000Y-16550000D03*
%TO.P,LED1,3*%
%TO.N,GND*%
X6915000Y-16550000D03*
%TO.P,LED1,4*%
%TO.N,LED_D12*%
X6915000Y-15450000D03*
%TD*%
D16*
%TO.P,J6,1*%
%TO.N,VBAT*%
X28000000Y-61000000D03*
D17*
%TO.P,J6,2*%
%TO.N,M2_D*%
X28000000Y-63540000D03*
%TD*%
D33*
%TO.P,D1,1*%
%TO.N,USB_DP_C*%
X5762500Y-44050000D03*
%TO.P,D1,2*%
%TO.N,GND*%
X5762500Y-45000000D03*
%TO.P,D1,3*%
%TO.N,USB_DM_C*%
X5762500Y-45950000D03*
%TO.P,D1,4*%
%TO.N,USB_DM_MCU*%
X8037500Y-45950000D03*
%TO.P,D1,5*%
%TO.N,VBUS*%
X8037500Y-45000000D03*
%TO.P,D1,6*%
%TO.N,USB_DP_MCU*%
X8037500Y-44050000D03*
%TD*%
D12*
%TO.P,R18,1*%
%TO.N,3V3*%
X10790000Y-49400000D03*
%TO.P,R18,2*%
%TO.N,SDIO_D1*%
X11810000Y-49400000D03*
%TD*%
%TO.P,R21,1*%
%TO.N,3V3*%
X17390000Y-49400000D03*
%TO.P,R21,2*%
%TO.N,C6_BOOT*%
X18410000Y-49400000D03*
%TD*%
D20*
%TO.P,J9,1*%
%TO.N,3V3*%
X5000000Y-44000000D03*
D21*
%TO.P,J9,2*%
%TO.N,GND*%
X5000000Y-45270000D03*
%TO.P,J9,3*%
%TO.N,VBAT*%
X5000000Y-46540000D03*
%TO.P,J9,4*%
%TO.N,I2C_SDA*%
X5000000Y-47810000D03*
%TO.P,J9,5*%
%TO.N,I2C_SCL*%
X5000000Y-49080000D03*
%TO.P,J9,6*%
%TO.N,EXP_IO*%
X5000000Y-50350000D03*
%TD*%
D34*
%TO.P,L2,1*%
%TO.N,VDD_DCDCC*%
X28112499Y-45000000D03*
%TO.P,L2,2*%
%TO.N,VDD_CORE*%
X29687499Y-45000000D03*
%TD*%
D13*
%TO.P,C1,1*%
%TO.N,VBUS*%
X10350000Y-45000000D03*
%TO.P,C1,2*%
%TO.N,GND*%
X12250000Y-45000000D03*
%TD*%
D14*
%TO.P,U4,1*%
%TO.N,GND*%
X6525000Y-48095000D03*
%TO.P,U4,2*%
%TO.N,PROG*%
X6525000Y-49365000D03*
%TO.P,U4,3*%
%TO.N,GND*%
X6525000Y-50635000D03*
%TO.P,U4,4*%
%TO.N,VBUS*%
X6525000Y-51905000D03*
%TO.P,U4,5*%
%TO.N,VBAT*%
X11475000Y-51905000D03*
%TO.P,U4,6*%
X11475000Y-50635000D03*
%TO.P,U4,7*%
%TO.N,CHRG_N*%
X11475000Y-49365000D03*
%TO.P,U4,8*%
%TO.N,STDBY_N*%
X11475000Y-48095000D03*
D35*
%TO.P,U4,9*%
%TO.N,GND*%
X9000000Y-50000000D03*
%TD*%
D10*
%TO.P,C25,1*%
%TO.N,3V3*%
X21819999Y-51600000D03*
%TO.P,C25,2*%
%TO.N,GND*%
X22779999Y-51600000D03*
%TD*%
D12*
%TO.P,R28,1*%
%TO.N,M3_GATE*%
X28389999Y-53800000D03*
%TO.P,R28,2*%
%TO.N,GND*%
X29409999Y-53800000D03*
%TD*%
%TO.P,R1,1*%
%TO.N,CC1*%
X1990000Y-45000000D03*
%TO.P,R1,2*%
%TO.N,GND*%
X3010000Y-45000000D03*
%TD*%
D13*
%TO.P,C4,1*%
%TO.N,3V3*%
X19149999Y-45000000D03*
%TO.P,C4,2*%
%TO.N,GND*%
X21049999Y-45000000D03*
%TD*%
D10*
%TO.P,C14,1*%
%TO.N,3V3*%
X26219999Y-49400000D03*
%TO.P,C14,2*%
%TO.N,GND*%
X27179999Y-49400000D03*
%TD*%
%TO.P,C22,1*%
%TO.N,3V3*%
X15220000Y-51600000D03*
%TO.P,C22,2*%
%TO.N,GND*%
X16180000Y-51600000D03*
%TD*%
D15*
%TO.P,D2,1*%
%TO.N,VBAT*%
X13700000Y-45000000D03*
%TO.P,D2,2*%
%TO.N,VBUS*%
X17700000Y-45000000D03*
%TD*%
D36*
%TO.P,U1,1*%
%TO.N,N/C*%
X11125000Y-25625000D03*
%TO.P,U1,2*%
X11125000Y-25975000D03*
%TO.P,U1,3*%
X11125000Y-26325000D03*
%TO.P,U1,4*%
X11125000Y-26675000D03*
%TO.P,U1,5*%
X11125000Y-27025000D03*
%TO.P,U1,6*%
X11125000Y-27375000D03*
%TO.P,U1,7*%
%TO.N,I2C_SDA*%
X11125000Y-27725000D03*
%TO.P,U1,8*%
%TO.N,I2C_SCL*%
X11125000Y-28075000D03*
%TO.P,U1,9*%
%TO.N,3V3*%
X11125000Y-28425000D03*
%TO.P,U1,10*%
%TO.N,SPI_SCLK*%
X11125000Y-28775000D03*
%TO.P,U1,11*%
%TO.N,SPI_MOSI*%
X11125000Y-29125000D03*
%TO.P,U1,12*%
%TO.N,SPI_MISO*%
X11125000Y-29475000D03*
%TO.P,U1,13*%
%TO.N,CS_IMU*%
X11125000Y-29825000D03*
%TO.P,U1,14*%
%TO.N,CS_FLOW*%
X11125000Y-30175000D03*
%TO.P,U1,15*%
%TO.N,SDIO_D0*%
X11125000Y-30525000D03*
%TO.P,U1,16*%
%TO.N,SDIO_D1*%
X11125000Y-30875000D03*
%TO.P,U1,17*%
%TO.N,SDIO_D2*%
X11125000Y-31225000D03*
%TO.P,U1,18*%
%TO.N,SDIO_D3*%
X11125000Y-31575000D03*
%TO.P,U1,19*%
%TO.N,SDIO_CLK*%
X11125000Y-31925000D03*
%TO.P,U1,20*%
%TO.N,SDIO_CMD*%
X11125000Y-32275000D03*
%TO.P,U1,21*%
%TO.N,3V3*%
X11125000Y-32625000D03*
%TO.P,U1,22*%
%TO.N,VBAT_SENSE*%
X11125000Y-32975000D03*
%TO.P,U1,23*%
%TO.N,IMU_INT*%
X11125000Y-33325000D03*
%TO.P,U1,24*%
%TO.N,EXP_IO*%
X11125000Y-33675000D03*
%TO.P,U1,25*%
%TO.N,VL53_XSHUT*%
X11125000Y-34025000D03*
%TO.P,U1,26*%
%TO.N,3V3*%
X11125000Y-34375000D03*
D37*
%TO.P,U1,27*%
%TO.N,FLASH_CS*%
X11625000Y-34875000D03*
%TO.P,U1,28*%
%TO.N,FLASH_IO1*%
X11975000Y-34875000D03*
%TO.P,U1,29*%
%TO.N,FLASH_IO2*%
X12325000Y-34875000D03*
%TO.P,U1,30*%
%TO.N,3V3*%
X12675000Y-34875000D03*
%TO.P,U1,31*%
%TO.N,FLASH_IO3*%
X13025000Y-34875000D03*
%TO.P,U1,32*%
%TO.N,FLASH_CK*%
X13375000Y-34875000D03*
%TO.P,U1,33*%
%TO.N,FLASH_IO0*%
X13725000Y-34875000D03*
%TO.P,U1,34*%
%TO.N,DSI_REXT*%
X14075000Y-34875000D03*
%TO.P,U1,35*%
%TO.N,N/C*%
X14425000Y-34875000D03*
%TO.P,U1,36*%
X14775000Y-34875000D03*
%TO.P,U1,37*%
X15125000Y-34875000D03*
%TO.P,U1,38*%
X15475000Y-34875000D03*
%TO.P,U1,39*%
X15825000Y-34875000D03*
%TO.P,U1,40*%
X16175000Y-34875000D03*
%TO.P,U1,41*%
%TO.N,VDD_MIPI*%
X16525000Y-34875000D03*
%TO.P,U1,42*%
%TO.N,CSI_D0N*%
X16875000Y-34875000D03*
%TO.P,U1,43*%
%TO.N,CSI_D0P*%
X17225000Y-34875000D03*
%TO.P,U1,44*%
%TO.N,CSI_CKP*%
X17575000Y-34875000D03*
%TO.P,U1,45*%
%TO.N,CSI_CKN*%
X17925000Y-34875000D03*
%TO.P,U1,46*%
%TO.N,CSI_D1N*%
X18275000Y-34875000D03*
%TO.P,U1,47*%
%TO.N,CSI_D1P*%
X18625000Y-34875000D03*
%TO.P,U1,48*%
%TO.N,CSI_REXT*%
X18975000Y-34875000D03*
%TO.P,U1,49*%
%TO.N,USB_DM_MCU*%
X19325000Y-34875000D03*
%TO.P,U1,50*%
%TO.N,USB_DP_MCU*%
X19675000Y-34875000D03*
%TO.P,U1,51*%
%TO.N,3V3*%
X20025000Y-34875000D03*
%TO.P,U1,52*%
%TO.N,LED_DIN*%
X20375000Y-34875000D03*
D36*
%TO.P,U1,53*%
%TO.N,CAM_PWDN*%
X20875000Y-34375000D03*
%TO.P,U1,54*%
%TO.N,N/C*%
X20875000Y-34025000D03*
%TO.P,U1,55*%
X20875000Y-33675000D03*
%TO.P,U1,56*%
X20875000Y-33325000D03*
%TO.P,U1,57*%
X20875000Y-32975000D03*
%TO.P,U1,58*%
X20875000Y-32625000D03*
%TO.P,U1,59*%
%TO.N,3V3*%
X20875000Y-32275000D03*
%TO.P,U1,60*%
%TO.N,N/C*%
X20875000Y-31925000D03*
%TO.P,U1,61*%
X20875000Y-31575000D03*
%TO.P,U1,62*%
%TO.N,3V3*%
X20875000Y-31225000D03*
%TO.P,U1,63*%
%TO.N,N/C*%
X20875000Y-30875000D03*
%TO.P,U1,64*%
X20875000Y-30525000D03*
%TO.P,U1,65*%
X20875000Y-30175000D03*
%TO.P,U1,66*%
%TO.N,BOOT*%
X20875000Y-29825000D03*
%TO.P,U1,67*%
%TO.N,3V3*%
X20875000Y-29475000D03*
%TO.P,U1,68*%
%TO.N,N/C*%
X20875000Y-29125000D03*
%TO.P,U1,69*%
%TO.N,U0TXD*%
X20875000Y-28775000D03*
%TO.P,U1,70*%
%TO.N,U0RXD*%
X20875000Y-28425000D03*
%TO.P,U1,71*%
%TO.N,3V3*%
X20875000Y-28075000D03*
%TO.P,U1,72*%
X20875000Y-27725000D03*
%TO.P,U1,73*%
X20875000Y-27375000D03*
%TO.P,U1,74*%
X20875000Y-27025000D03*
%TO.P,U1,75*%
X20875000Y-26675000D03*
%TO.P,U1,76*%
X20875000Y-26325000D03*
%TO.P,U1,77*%
%TO.N,VDD_DCDCC*%
X20875000Y-25975000D03*
%TO.P,U1,78*%
%TO.N,VDD_CORE*%
X20875000Y-25625000D03*
D37*
%TO.P,U1,79*%
%TO.N,3V3*%
X20375000Y-25125000D03*
%TO.P,U1,80*%
%TO.N,N/C*%
X20025000Y-25125000D03*
%TO.P,U1,81*%
X19675000Y-25125000D03*
%TO.P,U1,82*%
X19325000Y-25125000D03*
%TO.P,U1,83*%
X18975000Y-25125000D03*
%TO.P,U1,84*%
X18625000Y-25125000D03*
%TO.P,U1,85*%
%TO.N,3V3*%
X18275000Y-25125000D03*
%TO.P,U1,86*%
%TO.N,N/C*%
X17925000Y-25125000D03*
%TO.P,U1,87*%
%TO.N,M1_G*%
X17575000Y-25125000D03*
%TO.P,U1,88*%
%TO.N,M2_G*%
X17225000Y-25125000D03*
%TO.P,U1,89*%
%TO.N,M3_G*%
X16875000Y-25125000D03*
%TO.P,U1,90*%
%TO.N,M4_G*%
X16525000Y-25125000D03*
%TO.P,U1,91*%
%TO.N,3V3*%
X16175000Y-25125000D03*
%TO.P,U1,92*%
%TO.N,N/C*%
X15825000Y-25125000D03*
%TO.P,U1,93*%
X15475000Y-25125000D03*
%TO.P,U1,94*%
X15125000Y-25125000D03*
%TO.P,U1,95*%
X14775000Y-25125000D03*
%TO.P,U1,96*%
%TO.N,3V3*%
X14425000Y-25125000D03*
%TO.P,U1,97*%
%TO.N,N/C*%
X14075000Y-25125000D03*
%TO.P,U1,98*%
%TO.N,C6_EN*%
X13725000Y-25125000D03*
%TO.P,U1,99*%
%TO.N,XTAL_N*%
X13375000Y-25125000D03*
%TO.P,U1,100*%
%TO.N,XTAL_P*%
X13025000Y-25125000D03*
%TO.P,U1,101*%
%TO.N,3V3*%
X12675000Y-25125000D03*
%TO.P,U1,102*%
X12325000Y-25125000D03*
%TO.P,U1,103*%
%TO.N,CHIP_PU*%
X11975000Y-25125000D03*
%TO.P,U1,104*%
%TO.N,GPIO0*%
X11625000Y-25125000D03*
D38*
%TO.P,U1,105*%
%TO.N,GND*%
X13300000Y-27300000D03*
X13300000Y-30000000D03*
X13300000Y-32700000D03*
X16000000Y-27300000D03*
X16000000Y-30000000D03*
X16000000Y-32700000D03*
X18700000Y-27300000D03*
X18700000Y-30000000D03*
X18700000Y-32700000D03*
%TD*%
D12*
%TO.P,R20,1*%
%TO.N,3V3*%
X15190000Y-49400000D03*
%TO.P,R20,2*%
%TO.N,SDIO_D3*%
X16210000Y-49400000D03*
%TD*%
D28*
%TO.P,SW2,1*%
%TO.N,BOOT*%
X23100000Y-36000000D03*
%TO.P,SW2,2*%
%TO.N,GND*%
X30900000Y-36000000D03*
%TD*%
D33*
%TO.P,U5,1*%
%TO.N,3V3_EN*%
X18862500Y-49050000D03*
%TO.P,U5,2*%
%TO.N,GND*%
X18862500Y-50000000D03*
%TO.P,U5,3*%
%TO.N,SW3V3*%
X18862500Y-50950000D03*
%TO.P,U5,4*%
%TO.N,VBAT*%
X21137500Y-50950000D03*
%TO.P,U5,5*%
%TO.N,FB3V3*%
X21137500Y-49050000D03*
%TD*%
D10*
%TO.P,C33,1*%
%TO.N,3V3*%
X10820000Y-53800000D03*
%TO.P,C33,2*%
%TO.N,GND*%
X11780000Y-53800000D03*
%TD*%
%TO.P,C9,1*%
%TO.N,XTAL_N*%
X15220000Y-47200000D03*
%TO.P,C9,2*%
%TO.N,GND*%
X16180000Y-47200000D03*
%TD*%
D12*
%TO.P,R7,1*%
%TO.N,VBAT*%
X4190000Y-47200000D03*
%TO.P,R7,2*%
%TO.N,VBAT_SENSE*%
X5210000Y-47200000D03*
%TD*%
%TO.P,R10,1*%
%TO.N,3V3*%
X21789999Y-47200000D03*
%TO.P,R10,2*%
%TO.N,BOOT*%
X22809999Y-47200000D03*
%TD*%
D39*
%TO.P,J1,1*%
%TO.N,VBAT*%
X15000000Y-59150000D03*
%TO.P,J1,2*%
%TO.N,GND*%
X17000000Y-59150000D03*
D40*
%TO.P,J1,MP*%
%TO.N,N/C*%
X12650000Y-64900000D03*
X19350000Y-64900000D03*
%TD*%
D41*
%TO.P,J4,1*%
%TO.N,GND*%
X12500000Y-3150000D03*
%TO.P,J4,2*%
%TO.N,CSI_D0N*%
X13000000Y-3150000D03*
%TO.P,J4,3*%
%TO.N,CSI_D0P*%
X13500000Y-3150000D03*
%TO.P,J4,4*%
%TO.N,GND*%
X14000000Y-3150000D03*
%TO.P,J4,5*%
%TO.N,CSI_D1N*%
X14500000Y-3150000D03*
%TO.P,J4,6*%
%TO.N,CSI_D1P*%
X15000000Y-3150000D03*
%TO.P,J4,7*%
%TO.N,GND*%
X15500000Y-3150000D03*
%TO.P,J4,8*%
%TO.N,CSI_CKN*%
X16000000Y-3150000D03*
%TO.P,J4,9*%
%TO.N,CSI_CKP*%
X16500000Y-3150000D03*
%TO.P,J4,10*%
%TO.N,GND*%
X17000000Y-3150000D03*
%TO.P,J4,11*%
%TO.N,CAM_PWDN*%
X17500000Y-3150000D03*
%TO.P,J4,12*%
%TO.N,CAM_GPIO*%
X18000000Y-3150000D03*
%TO.P,J4,13*%
%TO.N,I2C_SCL*%
X18500000Y-3150000D03*
%TO.P,J4,14*%
%TO.N,I2C_SDA*%
X19000000Y-3150000D03*
%TO.P,J4,15*%
%TO.N,3V3*%
X19500000Y-3150000D03*
D42*
%TO.P,J4,MP*%
%TO.N,N/C*%
X10600000Y-6400000D03*
X21400000Y-6400000D03*
%TD*%
D10*
%TO.P,C23,1*%
%TO.N,3V3*%
X17420000Y-51600000D03*
%TO.P,C23,2*%
%TO.N,GND*%
X18380000Y-51600000D03*
%TD*%
D19*
%TO.P,Q1,1*%
%TO.N,M1_D*%
X26062500Y-9050000D03*
%TO.P,Q1,2*%
%TO.N,GND*%
X26062500Y-10950000D03*
%TO.P,Q1,3*%
%TO.N,M1_GATE*%
X27937500Y-10000000D03*
%TD*%
D43*
%TO.P,U6,1*%
%TO.N,CS_IMU*%
X10750000Y-35562500D03*
D44*
%TO.P,U6,2*%
%TO.N,SPI_SCLK*%
X9812500Y-36000000D03*
%TO.P,U6,3*%
%TO.N,SPI_MOSI*%
X9812500Y-36500000D03*
%TO.P,U6,4*%
%TO.N,GND*%
X9812500Y-37000000D03*
%TO.P,U6,5*%
X9812500Y-37500000D03*
%TO.P,U6,6*%
X9812500Y-38000000D03*
D43*
%TO.P,U6,7*%
X10750000Y-38437500D03*
%TO.P,U6,8*%
X11250000Y-38437500D03*
D44*
%TO.P,U6,9*%
%TO.N,IMU_INT*%
X12187500Y-38000000D03*
%TO.P,U6,10*%
%TO.N,SPI_MISO*%
X12187500Y-37500000D03*
%TO.P,U6,11*%
%TO.N,3V3*%
X12187500Y-37000000D03*
%TO.P,U6,12*%
%TO.N,GND*%
X12187500Y-36500000D03*
%TO.P,U6,13*%
%TO.N,3V3*%
X12187500Y-36000000D03*
D43*
%TO.P,U6,14*%
%TO.N,GND*%
X11250000Y-35562500D03*
D45*
%TO.P,U6,15*%
%TO.N,N/C*%
X11000000Y-37000000D03*
%TD*%
D10*
%TO.P,C15,1*%
%TO.N,3V3*%
X28419999Y-49400000D03*
%TO.P,C15,2*%
%TO.N,GND*%
X29379999Y-49400000D03*
%TD*%
D46*
%TO.P,Y1,1*%
%TO.N,XTAL_P*%
X20900000Y-24850000D03*
%TO.P,Y1,2*%
%TO.N,GND*%
X23100000Y-24850000D03*
%TO.P,Y1,3*%
%TO.N,XTAL_N*%
X23100000Y-23150000D03*
%TO.P,Y1,4*%
%TO.N,GND*%
X20900000Y-23150000D03*
%TD*%
D10*
%TO.P,C6,1*%
%TO.N,VBAT_SENSE*%
X8620000Y-47200000D03*
%TO.P,C6,2*%
%TO.N,GND*%
X9580000Y-47200000D03*
%TD*%
%TO.P,C34,1*%
%TO.N,VBAT*%
X10820000Y-56000000D03*
%TO.P,C34,2*%
%TO.N,GND*%
X11780000Y-56000000D03*
%TD*%
D15*
%TO.P,D3,1*%
%TO.N,VBAT*%
X15900000Y-53800000D03*
%TO.P,D3,2*%
%TO.N,M1_D*%
X19900000Y-53800000D03*
%TD*%
D16*
%TO.P,J3,1*%
%TO.N,3V3*%
X24000000Y-44000000D03*
D17*
%TO.P,J3,2*%
%TO.N,CS_FLOW*%
X21460000Y-44000000D03*
%TO.P,J3,3*%
%TO.N,GND*%
X24000000Y-46540000D03*
%TO.P,J3,4*%
%TO.N,SPI_SCLK*%
X21460000Y-46540000D03*
%TO.P,J3,5*%
%TO.N,SPI_MOSI*%
X24000000Y-49080000D03*
%TO.P,J3,6*%
%TO.N,SPI_MISO*%
X21460000Y-49080000D03*
%TO.P,J3,7*%
%TO.N,GND*%
X24000000Y-51620000D03*
%TO.P,J3,8*%
%TO.N,3V3*%
X21460000Y-51620000D03*
%TD*%
M02*
