%TF.GenerationSoftware,KiCad,Pcbnew,7.0.11+dfsg-1build4*%
%TF.CreationDate,2026-06-14T01:38:49+00:00*%
%TF.ProjectId,stratosdrone,73747261-746f-4736-9472-6f6e652e6b69,rev?*%
%TF.SameCoordinates,Original*%
%TF.FileFunction,Legend,Bot*%
%TF.FilePolarity,Positive*%
%FSLAX46Y46*%
G04 Gerber Fmt 4.6, Leading zero omitted, Abs format (unit mm)*
G04 Created by KiCad (PCBNEW 7.0.11+dfsg-1build4) date 2026-06-14 01:38:49*
%MOMM*%
%LPD*%
G01*
G04 APERTURE LIST*
%ADD10C,0.150000*%
%ADD11C,0.120000*%
G04 APERTURE END LIST*
D10*
X8329887Y-38346009D02*
X8663220Y-38346009D01*
X8663220Y-38869819D02*
X8663220Y-37869819D01*
X8663220Y-37869819D02*
X8187030Y-37869819D01*
X7329887Y-38869819D02*
X7806077Y-38869819D01*
X7806077Y-38869819D02*
X7806077Y-37869819D01*
X6806077Y-37869819D02*
X6615601Y-37869819D01*
X6615601Y-37869819D02*
X6520363Y-37917438D01*
X6520363Y-37917438D02*
X6425125Y-38012676D01*
X6425125Y-38012676D02*
X6377506Y-38203152D01*
X6377506Y-38203152D02*
X6377506Y-38536485D01*
X6377506Y-38536485D02*
X6425125Y-38726961D01*
X6425125Y-38726961D02*
X6520363Y-38822200D01*
X6520363Y-38822200D02*
X6615601Y-38869819D01*
X6615601Y-38869819D02*
X6806077Y-38869819D01*
X6806077Y-38869819D02*
X6901315Y-38822200D01*
X6901315Y-38822200D02*
X6996553Y-38726961D01*
X6996553Y-38726961D02*
X7044172Y-38536485D01*
X7044172Y-38536485D02*
X7044172Y-38203152D01*
X7044172Y-38203152D02*
X6996553Y-38012676D01*
X6996553Y-38012676D02*
X6901315Y-37917438D01*
X6901315Y-37917438D02*
X6806077Y-37869819D01*
X6044172Y-37869819D02*
X5806077Y-38869819D01*
X5806077Y-38869819D02*
X5615601Y-38155533D01*
X5615601Y-38155533D02*
X5425125Y-38869819D01*
X5425125Y-38869819D02*
X5187030Y-37869819D01*
X4044172Y-38488866D02*
X3282268Y-38488866D01*
X3663220Y-38869819D02*
X3663220Y-38107914D01*
X2187029Y-37869819D02*
X1615601Y-37869819D01*
X1901315Y-38869819D02*
X1901315Y-37869819D01*
X1139410Y-38869819D02*
X1234648Y-38822200D01*
X1234648Y-38822200D02*
X1282267Y-38774580D01*
X1282267Y-38774580D02*
X1329886Y-38679342D01*
X1329886Y-38679342D02*
X1329886Y-38393628D01*
X1329886Y-38393628D02*
X1282267Y-38298390D01*
X1282267Y-38298390D02*
X1234648Y-38250771D01*
X1234648Y-38250771D02*
X1139410Y-38203152D01*
X1139410Y-38203152D02*
X996553Y-38203152D01*
X996553Y-38203152D02*
X901315Y-38250771D01*
X901315Y-38250771D02*
X853696Y-38298390D01*
X853696Y-38298390D02*
X806077Y-38393628D01*
X806077Y-38393628D02*
X806077Y-38679342D01*
X806077Y-38679342D02*
X853696Y-38774580D01*
X853696Y-38774580D02*
X901315Y-38822200D01*
X901315Y-38822200D02*
X996553Y-38869819D01*
X996553Y-38869819D02*
X1139410Y-38869819D01*
X44172Y-38346009D02*
X377505Y-38346009D01*
X377505Y-38869819D02*
X377505Y-37869819D01*
X377505Y-37869819D02*
X-98684Y-37869819D01*
X28063333Y-40124819D02*
X28063333Y-40839104D01*
X28063333Y-40839104D02*
X28110952Y-40981961D01*
X28110952Y-40981961D02*
X28206190Y-41077200D01*
X28206190Y-41077200D02*
X28349047Y-41124819D01*
X28349047Y-41124819D02*
X28444285Y-41124819D01*
X27682380Y-40124819D02*
X27063333Y-40124819D01*
X27063333Y-40124819D02*
X27396666Y-40505771D01*
X27396666Y-40505771D02*
X27253809Y-40505771D01*
X27253809Y-40505771D02*
X27158571Y-40553390D01*
X27158571Y-40553390D02*
X27110952Y-40601009D01*
X27110952Y-40601009D02*
X27063333Y-40696247D01*
X27063333Y-40696247D02*
X27063333Y-40934342D01*
X27063333Y-40934342D02*
X27110952Y-41029580D01*
X27110952Y-41029580D02*
X27158571Y-41077200D01*
X27158571Y-41077200D02*
X27253809Y-41124819D01*
X27253809Y-41124819D02*
X27539523Y-41124819D01*
X27539523Y-41124819D02*
X27634761Y-41077200D01*
X27634761Y-41077200D02*
X27682380Y-41029580D01*
X18465426Y-37793518D02*
X18513045Y-37841138D01*
X18513045Y-37841138D02*
X18655902Y-37888757D01*
X18655902Y-37888757D02*
X18751140Y-37888757D01*
X18751140Y-37888757D02*
X18893997Y-37841138D01*
X18893997Y-37841138D02*
X18989235Y-37745899D01*
X18989235Y-37745899D02*
X19036854Y-37650661D01*
X19036854Y-37650661D02*
X19084473Y-37460185D01*
X19084473Y-37460185D02*
X19084473Y-37317328D01*
X19084473Y-37317328D02*
X19036854Y-37126852D01*
X19036854Y-37126852D02*
X18989235Y-37031614D01*
X18989235Y-37031614D02*
X18893997Y-36936376D01*
X18893997Y-36936376D02*
X18751140Y-36888757D01*
X18751140Y-36888757D02*
X18655902Y-36888757D01*
X18655902Y-36888757D02*
X18513045Y-36936376D01*
X18513045Y-36936376D02*
X18465426Y-36983995D01*
X18132092Y-36888757D02*
X17513045Y-36888757D01*
X17513045Y-36888757D02*
X17846378Y-37269709D01*
X17846378Y-37269709D02*
X17703521Y-37269709D01*
X17703521Y-37269709D02*
X17608283Y-37317328D01*
X17608283Y-37317328D02*
X17560664Y-37364947D01*
X17560664Y-37364947D02*
X17513045Y-37460185D01*
X17513045Y-37460185D02*
X17513045Y-37698280D01*
X17513045Y-37698280D02*
X17560664Y-37793518D01*
X17560664Y-37793518D02*
X17608283Y-37841138D01*
X17608283Y-37841138D02*
X17703521Y-37888757D01*
X17703521Y-37888757D02*
X17989235Y-37888757D01*
X17989235Y-37888757D02*
X18084473Y-37841138D01*
X18084473Y-37841138D02*
X18132092Y-37793518D01*
X16560664Y-37888757D02*
X17132092Y-37888757D01*
X16846378Y-37888757D02*
X16846378Y-36888757D01*
X16846378Y-36888757D02*
X16941616Y-37031614D01*
X16941616Y-37031614D02*
X17036854Y-37126852D01*
X17036854Y-37126852D02*
X17132092Y-37174471D01*
X18761904Y-33254819D02*
X18761904Y-34064342D01*
X18761904Y-34064342D02*
X18714285Y-34159580D01*
X18714285Y-34159580D02*
X18666666Y-34207200D01*
X18666666Y-34207200D02*
X18571428Y-34254819D01*
X18571428Y-34254819D02*
X18380952Y-34254819D01*
X18380952Y-34254819D02*
X18285714Y-34207200D01*
X18285714Y-34207200D02*
X18238095Y-34159580D01*
X18238095Y-34159580D02*
X18190476Y-34064342D01*
X18190476Y-34064342D02*
X18190476Y-33254819D01*
X17571428Y-33683390D02*
X17666666Y-33635771D01*
X17666666Y-33635771D02*
X17714285Y-33588152D01*
X17714285Y-33588152D02*
X17761904Y-33492914D01*
X17761904Y-33492914D02*
X17761904Y-33445295D01*
X17761904Y-33445295D02*
X17714285Y-33350057D01*
X17714285Y-33350057D02*
X17666666Y-33302438D01*
X17666666Y-33302438D02*
X17571428Y-33254819D01*
X17571428Y-33254819D02*
X17380952Y-33254819D01*
X17380952Y-33254819D02*
X17285714Y-33302438D01*
X17285714Y-33302438D02*
X17238095Y-33350057D01*
X17238095Y-33350057D02*
X17190476Y-33445295D01*
X17190476Y-33445295D02*
X17190476Y-33492914D01*
X17190476Y-33492914D02*
X17238095Y-33588152D01*
X17238095Y-33588152D02*
X17285714Y-33635771D01*
X17285714Y-33635771D02*
X17380952Y-33683390D01*
X17380952Y-33683390D02*
X17571428Y-33683390D01*
X17571428Y-33683390D02*
X17666666Y-33731009D01*
X17666666Y-33731009D02*
X17714285Y-33778628D01*
X17714285Y-33778628D02*
X17761904Y-33873866D01*
X17761904Y-33873866D02*
X17761904Y-34064342D01*
X17761904Y-34064342D02*
X17714285Y-34159580D01*
X17714285Y-34159580D02*
X17666666Y-34207200D01*
X17666666Y-34207200D02*
X17571428Y-34254819D01*
X17571428Y-34254819D02*
X17380952Y-34254819D01*
X17380952Y-34254819D02*
X17285714Y-34207200D01*
X17285714Y-34207200D02*
X17238095Y-34159580D01*
X17238095Y-34159580D02*
X17190476Y-34064342D01*
X17190476Y-34064342D02*
X17190476Y-33873866D01*
X17190476Y-33873866D02*
X17238095Y-33778628D01*
X17238095Y-33778628D02*
X17285714Y-33731009D01*
X17285714Y-33731009D02*
X17380952Y-33683390D01*
X18990153Y-45169195D02*
X19037772Y-45216815D01*
X19037772Y-45216815D02*
X19180629Y-45264434D01*
X19180629Y-45264434D02*
X19275867Y-45264434D01*
X19275867Y-45264434D02*
X19418724Y-45216815D01*
X19418724Y-45216815D02*
X19513962Y-45121576D01*
X19513962Y-45121576D02*
X19561581Y-45026338D01*
X19561581Y-45026338D02*
X19609200Y-44835862D01*
X19609200Y-44835862D02*
X19609200Y-44693005D01*
X19609200Y-44693005D02*
X19561581Y-44502529D01*
X19561581Y-44502529D02*
X19513962Y-44407291D01*
X19513962Y-44407291D02*
X19418724Y-44312053D01*
X19418724Y-44312053D02*
X19275867Y-44264434D01*
X19275867Y-44264434D02*
X19180629Y-44264434D01*
X19180629Y-44264434D02*
X19037772Y-44312053D01*
X19037772Y-44312053D02*
X18990153Y-44359672D01*
X18656819Y-44264434D02*
X18037772Y-44264434D01*
X18037772Y-44264434D02*
X18371105Y-44645386D01*
X18371105Y-44645386D02*
X18228248Y-44645386D01*
X18228248Y-44645386D02*
X18133010Y-44693005D01*
X18133010Y-44693005D02*
X18085391Y-44740624D01*
X18085391Y-44740624D02*
X18037772Y-44835862D01*
X18037772Y-44835862D02*
X18037772Y-45073957D01*
X18037772Y-45073957D02*
X18085391Y-45169195D01*
X18085391Y-45169195D02*
X18133010Y-45216815D01*
X18133010Y-45216815D02*
X18228248Y-45264434D01*
X18228248Y-45264434D02*
X18513962Y-45264434D01*
X18513962Y-45264434D02*
X18609200Y-45216815D01*
X18609200Y-45216815D02*
X18656819Y-45169195D01*
X17656819Y-44359672D02*
X17609200Y-44312053D01*
X17609200Y-44312053D02*
X17513962Y-44264434D01*
X17513962Y-44264434D02*
X17275867Y-44264434D01*
X17275867Y-44264434D02*
X17180629Y-44312053D01*
X17180629Y-44312053D02*
X17133010Y-44359672D01*
X17133010Y-44359672D02*
X17085391Y-44454910D01*
X17085391Y-44454910D02*
X17085391Y-44550148D01*
X17085391Y-44550148D02*
X17133010Y-44693005D01*
X17133010Y-44693005D02*
X17704438Y-45264434D01*
X17704438Y-45264434D02*
X17085391Y-45264434D01*
X18967619Y-43309726D02*
X18967619Y-44337821D01*
X18967619Y-44337821D02*
X18907142Y-44458773D01*
X18907142Y-44458773D02*
X18846666Y-44519250D01*
X18846666Y-44519250D02*
X18725714Y-44579726D01*
X18725714Y-44579726D02*
X18483809Y-44579726D01*
X18483809Y-44579726D02*
X18362857Y-44519250D01*
X18362857Y-44519250D02*
X18302380Y-44458773D01*
X18302380Y-44458773D02*
X18241904Y-44337821D01*
X18241904Y-44337821D02*
X18241904Y-43309726D01*
X17576666Y-44579726D02*
X17334762Y-44579726D01*
X17334762Y-44579726D02*
X17213809Y-44519250D01*
X17213809Y-44519250D02*
X17153333Y-44458773D01*
X17153333Y-44458773D02*
X17032381Y-44277345D01*
X17032381Y-44277345D02*
X16971904Y-44035440D01*
X16971904Y-44035440D02*
X16971904Y-43551630D01*
X16971904Y-43551630D02*
X17032381Y-43430678D01*
X17032381Y-43430678D02*
X17092857Y-43370202D01*
X17092857Y-43370202D02*
X17213809Y-43309726D01*
X17213809Y-43309726D02*
X17455714Y-43309726D01*
X17455714Y-43309726D02*
X17576666Y-43370202D01*
X17576666Y-43370202D02*
X17637143Y-43430678D01*
X17637143Y-43430678D02*
X17697619Y-43551630D01*
X17697619Y-43551630D02*
X17697619Y-43854011D01*
X17697619Y-43854011D02*
X17637143Y-43974964D01*
X17637143Y-43974964D02*
X17576666Y-44035440D01*
X17576666Y-44035440D02*
X17455714Y-44095916D01*
X17455714Y-44095916D02*
X17213809Y-44095916D01*
X17213809Y-44095916D02*
X17092857Y-44035440D01*
X17092857Y-44035440D02*
X17032381Y-43974964D01*
X17032381Y-43974964D02*
X16971904Y-43854011D01*
X23563810Y-44579726D02*
X23563810Y-43309726D01*
X23563810Y-43309726D02*
X23080000Y-43309726D01*
X23080000Y-43309726D02*
X22959048Y-43370202D01*
X22959048Y-43370202D02*
X22898571Y-43430678D01*
X22898571Y-43430678D02*
X22838095Y-43551630D01*
X22838095Y-43551630D02*
X22838095Y-43733059D01*
X22838095Y-43733059D02*
X22898571Y-43854011D01*
X22898571Y-43854011D02*
X22959048Y-43914488D01*
X22959048Y-43914488D02*
X23080000Y-43974964D01*
X23080000Y-43974964D02*
X23563810Y-43974964D01*
X22293810Y-44579726D02*
X22293810Y-43309726D01*
X22293810Y-43309726D02*
X21870476Y-44216869D01*
X21870476Y-44216869D02*
X21447143Y-43309726D01*
X21447143Y-43309726D02*
X21447143Y-44579726D01*
X20963333Y-43309726D02*
X20660952Y-44579726D01*
X20660952Y-44579726D02*
X20419047Y-43672583D01*
X20419047Y-43672583D02*
X20177142Y-44579726D01*
X20177142Y-44579726D02*
X19874762Y-43309726D01*
X19511904Y-43309726D02*
X18725713Y-43309726D01*
X18725713Y-43309726D02*
X19149047Y-43793535D01*
X19149047Y-43793535D02*
X18967618Y-43793535D01*
X18967618Y-43793535D02*
X18846666Y-43854011D01*
X18846666Y-43854011D02*
X18786190Y-43914488D01*
X18786190Y-43914488D02*
X18725713Y-44035440D01*
X18725713Y-44035440D02*
X18725713Y-44337821D01*
X18725713Y-44337821D02*
X18786190Y-44458773D01*
X18786190Y-44458773D02*
X18846666Y-44519250D01*
X18846666Y-44519250D02*
X18967618Y-44579726D01*
X18967618Y-44579726D02*
X19330475Y-44579726D01*
X19330475Y-44579726D02*
X19451428Y-44519250D01*
X19451428Y-44519250D02*
X19511904Y-44458773D01*
X18120951Y-44579726D02*
X17879047Y-44579726D01*
X17879047Y-44579726D02*
X17758094Y-44519250D01*
X17758094Y-44519250D02*
X17697618Y-44458773D01*
X17697618Y-44458773D02*
X17576666Y-44277345D01*
X17576666Y-44277345D02*
X17516189Y-44035440D01*
X17516189Y-44035440D02*
X17516189Y-43551630D01*
X17516189Y-43551630D02*
X17576666Y-43430678D01*
X17576666Y-43430678D02*
X17637142Y-43370202D01*
X17637142Y-43370202D02*
X17758094Y-43309726D01*
X17758094Y-43309726D02*
X17999999Y-43309726D01*
X17999999Y-43309726D02*
X18120951Y-43370202D01*
X18120951Y-43370202D02*
X18181428Y-43430678D01*
X18181428Y-43430678D02*
X18241904Y-43551630D01*
X18241904Y-43551630D02*
X18241904Y-43854011D01*
X18241904Y-43854011D02*
X18181428Y-43974964D01*
X18181428Y-43974964D02*
X18120951Y-44035440D01*
X18120951Y-44035440D02*
X17999999Y-44095916D01*
X17999999Y-44095916D02*
X17758094Y-44095916D01*
X17758094Y-44095916D02*
X17637142Y-44035440D01*
X17637142Y-44035440D02*
X17576666Y-43974964D01*
X17576666Y-43974964D02*
X17516189Y-43854011D01*
X16729999Y-43309726D02*
X16609046Y-43309726D01*
X16609046Y-43309726D02*
X16488094Y-43370202D01*
X16488094Y-43370202D02*
X16427618Y-43430678D01*
X16427618Y-43430678D02*
X16367142Y-43551630D01*
X16367142Y-43551630D02*
X16306665Y-43793535D01*
X16306665Y-43793535D02*
X16306665Y-44095916D01*
X16306665Y-44095916D02*
X16367142Y-44337821D01*
X16367142Y-44337821D02*
X16427618Y-44458773D01*
X16427618Y-44458773D02*
X16488094Y-44519250D01*
X16488094Y-44519250D02*
X16609046Y-44579726D01*
X16609046Y-44579726D02*
X16729999Y-44579726D01*
X16729999Y-44579726D02*
X16850951Y-44519250D01*
X16850951Y-44519250D02*
X16911427Y-44458773D01*
X16911427Y-44458773D02*
X16971904Y-44337821D01*
X16971904Y-44337821D02*
X17032380Y-44095916D01*
X17032380Y-44095916D02*
X17032380Y-43793535D01*
X17032380Y-43793535D02*
X16971904Y-43551630D01*
X16971904Y-43551630D02*
X16911427Y-43430678D01*
X16911427Y-43430678D02*
X16850951Y-43370202D01*
X16850951Y-43370202D02*
X16729999Y-43309726D01*
X15097141Y-44579726D02*
X15822856Y-44579726D01*
X15459999Y-44579726D02*
X15459999Y-43309726D01*
X15459999Y-43309726D02*
X15580951Y-43491154D01*
X15580951Y-43491154D02*
X15701903Y-43612107D01*
X15701903Y-43612107D02*
X15822856Y-43672583D01*
X14552856Y-44579726D02*
X14552856Y-43309726D01*
X14552856Y-43309726D02*
X14129522Y-44216869D01*
X14129522Y-44216869D02*
X13706189Y-43309726D01*
X13706189Y-43309726D02*
X13706189Y-44579726D01*
X12678093Y-43914488D02*
X12496665Y-43974964D01*
X12496665Y-43974964D02*
X12436188Y-44035440D01*
X12436188Y-44035440D02*
X12375712Y-44156392D01*
X12375712Y-44156392D02*
X12375712Y-44337821D01*
X12375712Y-44337821D02*
X12436188Y-44458773D01*
X12436188Y-44458773D02*
X12496665Y-44519250D01*
X12496665Y-44519250D02*
X12617617Y-44579726D01*
X12617617Y-44579726D02*
X13101427Y-44579726D01*
X13101427Y-44579726D02*
X13101427Y-43309726D01*
X13101427Y-43309726D02*
X12678093Y-43309726D01*
X12678093Y-43309726D02*
X12557141Y-43370202D01*
X12557141Y-43370202D02*
X12496665Y-43430678D01*
X12496665Y-43430678D02*
X12436188Y-43551630D01*
X12436188Y-43551630D02*
X12436188Y-43672583D01*
X12436188Y-43672583D02*
X12496665Y-43793535D01*
X12496665Y-43793535D02*
X12557141Y-43854011D01*
X12557141Y-43854011D02*
X12678093Y-43914488D01*
X12678093Y-43914488D02*
X13101427Y-43914488D01*
D11*
%TO.C,J3*%
X30330000Y-51950000D02*
X25130000Y-51950000D01*
X30330000Y-44270000D02*
X30330000Y-51950000D01*
X30330000Y-44270000D02*
X27730000Y-44270000D01*
X30330000Y-43000000D02*
X30330000Y-41670000D01*
X30330000Y-41670000D02*
X29000000Y-41670000D01*
X27730000Y-44270000D02*
X27730000Y-41670000D01*
X27730000Y-41670000D02*
X25130000Y-41670000D01*
X25130000Y-41670000D02*
X25130000Y-51950000D01*
%TO.C,C31*%
X17930405Y-38953938D02*
X17714733Y-38953938D01*
X17930405Y-38233938D02*
X17714733Y-38233938D01*
%TO.C,U8*%
X20350000Y-37360000D02*
X20350000Y-36760000D01*
X20350000Y-35060000D02*
X20350000Y-35660000D01*
X19870000Y-34660000D02*
X19550000Y-34660000D01*
X19750000Y-37360000D02*
X20350000Y-37360000D01*
X16250000Y-34660000D02*
X15650000Y-34660000D01*
X15650000Y-37360000D02*
X16250000Y-37360000D01*
X15650000Y-36760000D02*
X15650000Y-37360000D01*
X15650000Y-34660000D02*
X15650000Y-35260000D01*
X20510000Y-34760000D02*
X20230000Y-34760000D01*
X20230000Y-34480000D01*
X20510000Y-34760000D01*
G36*
X20510000Y-34760000D02*
G01*
X20230000Y-34760000D01*
X20230000Y-34480000D01*
X20510000Y-34760000D01*
G37*
%TO.C,C32*%
X18455132Y-46329615D02*
X18239460Y-46329615D01*
X18455132Y-45609615D02*
X18239460Y-45609615D01*
%TD*%
M02*
