M48
; DRILL file {KiCad 7.0.11+dfsg-1build4} date Sat Jun 20 21:19:36 2026
; FORMAT={-:-/ absolute / metric / decimal}
; #@! TF.CreationDate,2026-06-20T21:19:36+00:00
; #@! TF.GenerationSoftware,Kicad,Pcbnew,7.0.11+dfsg-1build4
; #@! TF.FileFunction,Plated,1,4,PTH
FMAT,2
METRIC
; #@! TA.AperFunction,Plated,PTH,ViaDrill
T1C0.200
; #@! TA.AperFunction,Plated,PTH,ViaDrill
T2C0.250
; #@! TA.AperFunction,Plated,PTH,ComponentDrill
T3C0.600
; #@! TA.AperFunction,Plated,PTH,ComponentDrill
T4C0.650
; #@! TA.AperFunction,Plated,PTH,ComponentDrill
T5C1.000
%
G90
G05
T1
X1.155Y-24.75
X1.155Y-31.25
X1.74Y-53.768
X2.07Y-23.68
X2.07Y-32.32
X2.6Y-8.25
X2.7Y-53.768
X2.875Y-51.35
X4.0Y-11.0
X4.0Y-40.0
X4.0Y-41.27
X4.0Y-42.54
X4.0Y-59.0
X5.062Y-16.95
X5.062Y-55.95
X5.649Y-19.55
X6.085Y-21.45
X6.25Y-23.68
X6.25Y-32.32
X6.412Y-42.112
X6.525Y-39.905
X6.609Y-19.55
X7.0Y-11.0
X7.85Y-2.075
X7.898Y-13.117
X7.898Y-57.883
X7.915Y-22.55
X8.0Y-47.0
X8.844Y-62.139
X8.94Y-59.851
X9.21Y-28.0
X9.261Y-30.05
X9.443Y-42.001
X9.75Y-2.075
X10.123Y-50.866
X10.146Y-33.898
X10.403Y-42.001
X11.0Y-62.0
X11.0Y-65.81
X11.106Y-33.898
X11.525Y-54.595
X11.525Y-57.135
X12.023Y-50.866
X12.05Y-14.75
X12.05Y-24.65
X12.062Y-28.0
X12.437Y-43.937
X13.16Y-46.266
X13.397Y-43.937
X14.0Y-56.5
X14.288Y-52.78
X14.794Y-50.787
X14.92Y-46.137
X15.248Y-52.78
X15.3Y-34.3
X15.3Y-37.0
X15.3Y-39.7
X15.88Y-46.137
X16.025Y-17.725
X16.025Y-19.7
X16.025Y-21.675
X16.219Y-43.73
X16.344Y-50.787
X16.4Y-36.0
X16.475Y-58.405
X16.822Y-28.127
X17.0Y-62.15
X17.2Y-35.2
X17.343Y-38.594
X17.695Y-45.598
X17.782Y-28.127
X17.87Y-46.879
X17.955Y-30.22
X18.0Y-17.725
X18.0Y-19.7
X18.0Y-21.675
X18.0Y-34.3
X18.0Y-35.2
X18.0Y-37.0
X18.0Y-39.7
X18.232Y-9.038
X18.303Y-38.594
X18.4Y-43.0
X18.4Y-45.0
X18.655Y-45.598
X18.8Y-35.2
X18.83Y-46.879
X19.0Y-62.15
X19.192Y-9.038
X19.2Y-43.0
X19.2Y-45.0
X19.6Y-35.2
X19.6Y-36.0
X19.6Y-36.8
X19.729Y-47.932
X19.958Y-28.129
X19.975Y-17.725
X19.975Y-19.7
X19.975Y-21.675
X20.456Y-46.035
X20.7Y-34.3
X20.7Y-37.0
X20.7Y-39.7
X20.863Y-57.0
X20.9Y-30.007
X20.918Y-28.129
X21.416Y-46.035
X21.435Y-53.648
X21.618Y-48.799
X21.665Y-51.103
X22.377Y-43.986
X22.721Y-26.311
X22.882Y-30.276
X23.137Y-57.95
X23.839Y-64.944
X23.842Y-30.276
X23.95Y-14.75
X23.95Y-24.65
X24.16Y-45.004
X24.755Y-32.35
X24.766Y-41.048
X24.77Y-60.032
X25.12Y-45.004
X25.279Y-67.335
X25.365Y-42.873
X25.414Y-62.354
X25.46Y-49.62
X25.675Y-34.257
X25.715Y-32.35
X25.726Y-41.048
X25.739Y-64.944
X25.88Y-37.0
X25.894Y-39.077
X25.928Y-28.189
X26.325Y-42.873
X26.35Y-2.075
X26.625Y-30.496
X27.397Y-49.996
X27.562Y-57.0
X27.649Y-19.55
X27.814Y-39.783
X27.92Y-37.0
X28.0Y-42.0
X28.0Y-44.54
X28.0Y-49.62
X28.085Y-21.45
X28.101Y-42.387
X28.25Y-2.075
X28.359Y-67.363
X28.365Y-59.28
X28.5Y-62.0
X28.609Y-19.55
X28.88Y-37.0
X28.9Y-32.15
X29.062Y-16.95
X29.062Y-55.95
X29.171Y-29.7
X29.298Y-25.283
X29.915Y-22.55
X30.089Y-40.733
X30.219Y-67.946
X30.42Y-47.0
X30.597Y-37.082
X30.721Y-29.7
X31.1Y-33.85
X31.234Y-48.72
X31.38Y-47.0
X31.898Y-18.883
X31.905Y-45.3
X32.0Y-11.0
X32.0Y-59.0
X32.224Y-42.28
X33.925Y-29.803
X34.28Y-33.0
X34.4Y-36.1
X34.4Y-47.1
T2
X5.221Y-21.603
X7.433Y-40.715
X7.75Y-44.623
X8.8Y-21.45
X8.879Y-45.356
X9.57Y-35.236
X9.803Y-45.384
X10.031Y-58.041
X13.726Y-47.726
X17.0Y-59.552
X17.752Y-55.22
X19.882Y-59.613
X20.779Y-26.771
X22.844Y-49.718
X22.976Y-22.059
X24.81Y-19.491
X26.441Y-22.226
X26.655Y-58.052
X27.045Y-18.345
X27.339Y-65.706
X27.745Y-29.806
X28.943Y-22.55
X28.947Y-40.262
X29.219Y-48.57
X29.302Y-67.451
X29.736Y-45.329
X31.668Y-47.93
T4
X4.0Y-40.0
X4.0Y-41.27
X4.0Y-42.54
X4.0Y-43.81
X4.0Y-45.08
X4.0Y-46.35
X11.0Y-62.0
X11.0Y-63.27
X11.0Y-64.54
X11.0Y-65.81
X28.5Y-62.0
X28.5Y-63.27
X28.5Y-64.54
X28.5Y-65.81
T5
X4.0Y-11.0
X4.0Y-13.54
X4.0Y-59.0
X4.0Y-61.54
X25.46Y-42.0
X25.46Y-44.54
X25.46Y-47.08
X25.46Y-49.62
X28.0Y-42.0
X28.0Y-44.54
X28.0Y-47.08
X28.0Y-49.62
X32.0Y-11.0
X32.0Y-13.54
X32.0Y-59.0
X32.0Y-61.54
T3
X1.52Y-23.68G85X2.62Y-23.68
G05
X1.52Y-32.32G85X2.62Y-32.32
G05
X5.95Y-23.68G85X6.55Y-23.68
G05
X5.95Y-32.32G85X6.55Y-32.32
G05
M30
