%TF.GenerationSoftware,KiCad,Pcbnew,7.0.11+dfsg-1build4*%
%TF.CreationDate,2026-07-13T16:57:01+00:00*%
%TF.ProjectId,stratosdrone,73747261-746f-4736-9472-6f6e652e6b69,rev?*%
%TF.SameCoordinates,Original*%
%TF.FileFunction,Copper,L3,Inr*%
%TF.FilePolarity,Positive*%
%FSLAX46Y46*%
G04 Gerber Fmt 4.6, Leading zero omitted, Abs format (unit mm)*
G04 Created by KiCad (PCBNEW 7.0.11+dfsg-1build4) date 2026-07-13 16:57:01*
%MOMM*%
%LPD*%
G01*
G04 APERTURE LIST*
%TA.AperFunction,ComponentPad*%
%ADD10R,1.000000X1.000000*%
%TD*%
%TA.AperFunction,ComponentPad*%
%ADD11O,1.000000X1.000000*%
%TD*%
%TA.AperFunction,ComponentPad*%
%ADD12R,1.700000X1.700000*%
%TD*%
%TA.AperFunction,ComponentPad*%
%ADD13O,1.700000X1.700000*%
%TD*%
%TA.AperFunction,ComponentPad*%
%ADD14O,2.100000X1.000000*%
%TD*%
%TA.AperFunction,ComponentPad*%
%ADD15O,1.600000X1.000000*%
%TD*%
%TA.AperFunction,ViaPad*%
%ADD16C,0.400000*%
%TD*%
%TA.AperFunction,ViaPad*%
%ADD17C,0.450000*%
%TD*%
G04 APERTURE END LIST*
D10*
%TO.N,GND*%
%TO.C,J10*%
X11000000Y-67900000D03*
D11*
%TO.N,U0TXD*%
X11000000Y-69170000D03*
%TO.N,U0RXD*%
X11000000Y-70440000D03*
%TO.N,3V3*%
X11000000Y-71710000D03*
%TD*%
D12*
%TO.N,VBAT*%
%TO.C,J5*%
X33800000Y-12200000D03*
D13*
%TO.N,M1_D*%
X33800000Y-14740000D03*
%TD*%
D10*
%TO.N,3V3*%
%TO.C,J9*%
X3400000Y-41800000D03*
D11*
%TO.N,GND*%
X3400000Y-43070000D03*
%TO.N,VBAT*%
X3400000Y-44340000D03*
%TO.N,I2C_SDA*%
X3400000Y-45610000D03*
%TO.N,I2C_SCL*%
X3400000Y-46880000D03*
%TO.N,EXP_IO*%
X3400000Y-48150000D03*
%TD*%
D12*
%TO.N,VBAT*%
%TO.C,J6*%
X33800000Y-61800000D03*
D13*
%TO.N,M2_D*%
X33800000Y-64340000D03*
%TD*%
D12*
%TO.N,VBAT*%
%TO.C,J8*%
X4200000Y-12200000D03*
D13*
%TO.N,M4_D*%
X4200000Y-14740000D03*
%TD*%
D14*
%TO.N,GND*%
%TO.C,J2*%
X2470000Y-33920000D03*
D15*
X6650000Y-33920000D03*
D14*
X2470000Y-25280000D03*
D15*
X6650000Y-25280000D03*
%TD*%
D10*
%TO.N,GND*%
%TO.C,J11*%
X28700000Y-67900000D03*
D11*
%TO.N,C6_U0TXD*%
X28700000Y-69170000D03*
%TO.N,C6_U0RXD*%
X28700000Y-70440000D03*
%TO.N,C6_BOOT*%
X28700000Y-71710000D03*
%TD*%
D12*
%TO.N,VBAT*%
%TO.C,J7*%
X4200000Y-61800000D03*
D13*
%TO.N,M3_D*%
X4200000Y-64340000D03*
%TD*%
D12*
%TO.N,3V3*%
%TO.C,J3*%
X29600000Y-43500000D03*
D13*
%TO.N,CS_FLOW*%
X27060000Y-43500000D03*
%TO.N,GND*%
X29600000Y-46040000D03*
%TO.N,SPI_SCLK*%
X27060000Y-46040000D03*
%TO.N,SPI_MOSI*%
X29600000Y-48580000D03*
%TO.N,SPI_MISO*%
X27060000Y-48580000D03*
%TO.N,GND*%
X29600000Y-51120000D03*
%TO.N,3V3*%
X27060000Y-51120000D03*
%TD*%
D16*
%TO.N,GND*%
X21765343Y-41796811D03*
X18320000Y-40000000D03*
X19348354Y-41311547D03*
X17291645Y-35888452D03*
X20541490Y-39950918D03*
X16149318Y-40523055D03*
X7920000Y-51000000D03*
X22811192Y-37214650D03*
X7920000Y-51000000D03*
X15752177Y-37252302D03*
X15752177Y-37252302D03*
X12980165Y-33853979D03*
X19320000Y-5200000D03*
X18200000Y-32300000D03*
X19800000Y-32300000D03*
X13078985Y-63445618D03*
X16626194Y-42001620D03*
X21765343Y-41796811D03*
X19000000Y-32300000D03*
X17291645Y-35888452D03*
X22880128Y-35899031D03*
X21520000Y-38600000D03*
X18320000Y-37200000D03*
X19800000Y-32300000D03*
X19031957Y-42637711D03*
X16626194Y-42001620D03*
X20541490Y-37249081D03*
X19708427Y-35716899D03*
X19348354Y-41311547D03*
X19000000Y-32300000D03*
X16149318Y-40523055D03*
X19048985Y-47845618D03*
X18320000Y-40000000D03*
X15026552Y-35682260D03*
X15026552Y-35682260D03*
X16920000Y-38600000D03*
X18200000Y-32300000D03*
X20541490Y-39950918D03*
X21520000Y-38600000D03*
X35426146Y-42539103D03*
X19708427Y-35716899D03*
X19320000Y-5200000D03*
X22880128Y-35899031D03*
X19031957Y-42637711D03*
X32319999Y-49300000D03*
X35426146Y-42539103D03*
X20541490Y-37249081D03*
X22811192Y-39985349D03*
X22811192Y-37214650D03*
X22811192Y-39985349D03*
X12980165Y-33853979D03*
X18320000Y-37200000D03*
X16920000Y-38600000D03*
X19048985Y-47845618D03*
X13078985Y-63445618D03*
X32319999Y-49300000D03*
D17*
%TO.N,I2C_SDA*%
X12430600Y-19249600D03*
X12430600Y-19249600D03*
X32025000Y-47720400D03*
X32025000Y-47720400D03*
%TO.N,I2C_SCL*%
X33354600Y-45590100D03*
X33354600Y-45590100D03*
X21500000Y-1793800D03*
X21500000Y-1793800D03*
D16*
%TO.N,3V3*%
X31539295Y-51950000D03*
X25289999Y-67900000D03*
X20008985Y-47845618D03*
X32675000Y-50100000D03*
X31539295Y-51950000D03*
X31750512Y-42847770D03*
X25205583Y-35214042D03*
X20280000Y-5200000D03*
X28062500Y-60900000D03*
X20280000Y-5200000D03*
X33279999Y-49300000D03*
X20008985Y-47845618D03*
X24990000Y-43000000D03*
X20600000Y-32300000D03*
X25205583Y-35214042D03*
X20200000Y-44300000D03*
X32675000Y-50100000D03*
X24990000Y-43000000D03*
X31750512Y-42847770D03*
X28062500Y-60900000D03*
X13600000Y-18900000D03*
X20600000Y-32300000D03*
X20200000Y-44300000D03*
X25289999Y-67900000D03*
X13600000Y-18900000D03*
X33279999Y-49300000D03*
D17*
%TO.N,SPI_SCLK*%
X9603400Y-46768600D03*
X9603400Y-46768600D03*
%TO.N,SPI_MOSI*%
X9282200Y-47668100D03*
X9282200Y-47668100D03*
%TO.N,SPI_MISO*%
X7249000Y-45905100D03*
X7249000Y-45905100D03*
%TO.N,SDIO_CMD*%
X24300000Y-28791000D03*
X24300000Y-28791000D03*
X27142700Y-31633700D03*
X27142700Y-31633700D03*
%TO.N,VBAT_SENSE*%
X21572300Y-56788300D03*
X24338100Y-62015000D03*
X21572300Y-56788300D03*
X24338100Y-62015000D03*
%TO.N,VDD_CORE*%
X28737300Y-41148600D03*
X28737300Y-41148600D03*
%TO.N,VDD_FLASHIO*%
X23044400Y-32878600D03*
X23044400Y-32878600D03*
%TO.N,CHIP_PU*%
X36855900Y-45904000D03*
X36855900Y-45904000D03*
%TO.N,C6_BOOT*%
X23500000Y-27109700D03*
X23500000Y-27109700D03*
%TO.N,C6_U0RXD*%
X24492700Y-24561300D03*
X24492700Y-24561300D03*
D16*
%TO.N,VBAT*%
X18000000Y-65750000D03*
X15975000Y-62805000D03*
X31450705Y-27095905D03*
X19216552Y-57982260D03*
X23137500Y-61850000D03*
X27785000Y-22950000D03*
X15975000Y-62805000D03*
X24420402Y-64574607D03*
D17*
X16565200Y-28631800D03*
X23137500Y-64116800D03*
D16*
X31450705Y-27095905D03*
X8385000Y-7250000D03*
X23891959Y-57098628D03*
X19216552Y-57982260D03*
X24420402Y-64574607D03*
X27785000Y-22950000D03*
X9674076Y-55935856D03*
X23891959Y-57098628D03*
D17*
X16565200Y-28631800D03*
X23137500Y-64116800D03*
D16*
X23137500Y-61850000D03*
X18000000Y-65750000D03*
X9674076Y-55935856D03*
X8385000Y-7250000D03*
D17*
%TO.N,VBUS*%
X528100Y-25033900D03*
X15975000Y-58159900D03*
X528100Y-34146100D03*
X528100Y-34146100D03*
X11025000Y-63623700D03*
X12383800Y-23778400D03*
X15975000Y-58159900D03*
X528100Y-25033900D03*
X11025000Y-63623700D03*
X12383800Y-23778400D03*
%TO.N,CC2*%
X10345100Y-31271400D03*
X2800200Y-27809900D03*
X10345100Y-31271400D03*
X2800200Y-27809900D03*
%TO.N,SW_CORE*%
X28150000Y-40546300D03*
X10631000Y-49400100D03*
X10631000Y-49400100D03*
X28150000Y-40546300D03*
%TO.N,M1_GATE*%
X12978100Y-30402000D03*
X12978100Y-30402000D03*
X29582500Y-21638000D03*
X29582500Y-21638000D03*
%TO.N,M4_GATE*%
X5919000Y-22645300D03*
X5375000Y-25947200D03*
X5375000Y-30237100D03*
X19000300Y-53059100D03*
X5919000Y-22645300D03*
X5375000Y-25947200D03*
X19000300Y-53059100D03*
X5375000Y-30237100D03*
%TO.N,LED_D12*%
X27785000Y-25448500D03*
X11069100Y-6850900D03*
X11069100Y-6850900D03*
X27785000Y-25448500D03*
%TD*%
%TA.AperFunction,Conductor*%
%TO.N,3V3*%
G36*
X32002562Y-500605D02*
G01*
X32449036Y-519072D01*
X32459209Y-519915D01*
X32900114Y-574873D01*
X32910194Y-576555D01*
X33345042Y-667733D01*
X33354950Y-670242D01*
X33780786Y-797019D01*
X33790454Y-800338D01*
X34131430Y-933388D01*
X34204339Y-961838D01*
X34213724Y-965954D01*
X34612869Y-1161083D01*
X34621877Y-1165958D01*
X35003544Y-1393383D01*
X35012123Y-1398989D01*
X35373693Y-1657144D01*
X35381775Y-1663435D01*
X35720796Y-1950571D01*
X35728336Y-1957512D01*
X36042487Y-2271663D01*
X36049428Y-2279203D01*
X36336564Y-2618224D01*
X36342859Y-2626312D01*
X36601010Y-2987876D01*
X36606616Y-2996455D01*
X36834041Y-3378122D01*
X36838919Y-3387136D01*
X37034045Y-3786275D01*
X37038161Y-3795660D01*
X37199656Y-4209533D01*
X37202984Y-4219226D01*
X37329753Y-4645036D01*
X37332269Y-4654971D01*
X37423441Y-5089791D01*
X37425128Y-5099900D01*
X37480082Y-5540769D01*
X37480928Y-5550983D01*
X37499394Y-5997437D01*
X37499500Y-6002561D01*
X37499500Y-45713395D01*
X37479815Y-45780434D01*
X37427011Y-45826189D01*
X37357853Y-45836133D01*
X37294297Y-45807108D01*
X37265017Y-45769692D01*
X37204428Y-45650780D01*
X37204426Y-45650778D01*
X37204423Y-45650774D01*
X37109125Y-45555476D01*
X37109121Y-45555473D01*
X37109120Y-45555472D01*
X36989026Y-45494281D01*
X36989024Y-45494280D01*
X36989021Y-45494279D01*
X36855902Y-45473196D01*
X36855898Y-45473196D01*
X36722778Y-45494279D01*
X36602678Y-45555473D01*
X36602674Y-45555476D01*
X36507376Y-45650774D01*
X36507373Y-45650778D01*
X36446179Y-45770878D01*
X36425096Y-45903997D01*
X36425096Y-45904002D01*
X36446179Y-46037121D01*
X36446180Y-46037124D01*
X36446181Y-46037126D01*
X36504807Y-46152185D01*
X36507373Y-46157221D01*
X36507376Y-46157225D01*
X36602674Y-46252523D01*
X36602678Y-46252526D01*
X36602680Y-46252528D01*
X36722774Y-46313719D01*
X36722776Y-46313719D01*
X36722778Y-46313720D01*
X36855898Y-46334804D01*
X36855900Y-46334804D01*
X36855902Y-46334804D01*
X36989021Y-46313720D01*
X36989021Y-46313719D01*
X36989026Y-46313719D01*
X37109120Y-46252528D01*
X37204428Y-46157220D01*
X37265016Y-46038308D01*
X37312989Y-45987513D01*
X37380810Y-45970718D01*
X37446945Y-45993255D01*
X37490397Y-46047970D01*
X37499500Y-46094604D01*
X37499500Y-67997438D01*
X37499394Y-68002562D01*
X37480928Y-68449016D01*
X37480082Y-68459230D01*
X37425128Y-68900099D01*
X37423441Y-68910208D01*
X37332269Y-69345028D01*
X37329753Y-69354963D01*
X37202984Y-69780773D01*
X37199656Y-69790466D01*
X37038161Y-70204339D01*
X37034045Y-70213724D01*
X36838919Y-70612863D01*
X36834041Y-70621877D01*
X36606616Y-71003544D01*
X36601010Y-71012123D01*
X36342859Y-71373687D01*
X36336564Y-71381775D01*
X36049428Y-71720796D01*
X36042487Y-71728336D01*
X35728336Y-72042487D01*
X35720796Y-72049428D01*
X35381775Y-72336564D01*
X35373687Y-72342859D01*
X35012123Y-72601010D01*
X35003544Y-72606616D01*
X34621877Y-72834041D01*
X34612863Y-72838919D01*
X34213724Y-73034045D01*
X34204339Y-73038161D01*
X33790466Y-73199656D01*
X33780773Y-73202984D01*
X33354963Y-73329753D01*
X33345028Y-73332269D01*
X32910208Y-73423441D01*
X32900099Y-73425128D01*
X32459230Y-73480082D01*
X32449016Y-73480928D01*
X32002563Y-73499394D01*
X31997439Y-73499500D01*
X6002561Y-73499500D01*
X5997437Y-73499394D01*
X5550983Y-73480928D01*
X5540769Y-73480082D01*
X5099900Y-73425128D01*
X5089791Y-73423441D01*
X4654971Y-73332269D01*
X4645036Y-73329753D01*
X4219226Y-73202984D01*
X4209533Y-73199656D01*
X3795660Y-73038161D01*
X3786275Y-73034045D01*
X3387136Y-72838919D01*
X3378122Y-72834041D01*
X2996455Y-72606616D01*
X2987876Y-72601010D01*
X2626312Y-72342859D01*
X2618224Y-72336564D01*
X2279203Y-72049428D01*
X2271663Y-72042487D01*
X2189176Y-71960000D01*
X10030840Y-71960000D01*
X10071652Y-72094541D01*
X10164503Y-72268253D01*
X10164507Y-72268260D01*
X10289471Y-72420528D01*
X10441739Y-72545491D01*
X10615465Y-72638349D01*
X10750000Y-72679159D01*
X10750000Y-71960000D01*
X10030840Y-71960000D01*
X2189176Y-71960000D01*
X1957512Y-71728336D01*
X1950571Y-71720796D01*
X1798400Y-71541128D01*
X1729687Y-71459999D01*
X10030839Y-71459999D01*
X10030840Y-71460000D01*
X10785517Y-71460000D01*
X10714199Y-71544993D01*
X10675000Y-71652694D01*
X10675000Y-71767306D01*
X10714199Y-71875007D01*
X10787871Y-71962805D01*
X10887129Y-72020112D01*
X10971564Y-72035000D01*
X11028436Y-72035000D01*
X11112871Y-72020112D01*
X11212129Y-71962805D01*
X11214483Y-71960000D01*
X11250000Y-71960000D01*
X11250000Y-72679159D01*
X11384534Y-72638349D01*
X11558260Y-72545491D01*
X11710528Y-72420528D01*
X11835492Y-72268260D01*
X11835496Y-72268253D01*
X11928347Y-72094541D01*
X11969160Y-71960000D01*
X11250000Y-71960000D01*
X11214483Y-71960000D01*
X11285801Y-71875007D01*
X11325000Y-71767306D01*
X11325000Y-71710000D01*
X27994355Y-71710000D01*
X28014859Y-71878869D01*
X28014860Y-71878874D01*
X28075182Y-72037931D01*
X28114258Y-72094541D01*
X28171817Y-72177929D01*
X28245450Y-72243162D01*
X28299150Y-72290736D01*
X28449773Y-72369789D01*
X28449775Y-72369790D01*
X28614944Y-72410500D01*
X28785056Y-72410500D01*
X28950225Y-72369790D01*
X29029692Y-72328081D01*
X29100849Y-72290736D01*
X29100850Y-72290734D01*
X29100852Y-72290734D01*
X29228183Y-72177929D01*
X29324818Y-72037930D01*
X29385140Y-71878872D01*
X29405645Y-71710000D01*
X29385140Y-71541128D01*
X29324818Y-71382070D01*
X29324614Y-71381775D01*
X29285741Y-71325458D01*
X29228183Y-71242071D01*
X29144363Y-71167813D01*
X29107238Y-71108626D01*
X29108006Y-71038761D01*
X29144363Y-70982186D01*
X29228183Y-70907929D01*
X29324818Y-70767930D01*
X29385140Y-70608872D01*
X29405645Y-70440000D01*
X29385140Y-70271128D01*
X29324818Y-70112070D01*
X29228183Y-69972071D01*
X29144363Y-69897813D01*
X29107238Y-69838626D01*
X29108006Y-69768761D01*
X29144363Y-69712186D01*
X29228183Y-69637929D01*
X29324818Y-69497930D01*
X29385140Y-69338872D01*
X29405645Y-69170000D01*
X29385140Y-69001128D01*
X29324818Y-68842070D01*
X29324817Y-68842068D01*
X29324816Y-68842066D01*
X29262017Y-68751088D01*
X29240133Y-68684733D01*
X29257598Y-68617082D01*
X29295175Y-68577545D01*
X29344552Y-68544552D01*
X29388867Y-68478231D01*
X29388867Y-68478229D01*
X29388868Y-68478229D01*
X29400499Y-68419752D01*
X29400500Y-68419750D01*
X29400500Y-68000000D01*
X30644341Y-68000000D01*
X30664936Y-68235403D01*
X30664938Y-68235413D01*
X30726094Y-68463655D01*
X30726096Y-68463659D01*
X30726097Y-68463663D01*
X30776031Y-68570746D01*
X30825964Y-68677828D01*
X30825965Y-68677830D01*
X30961505Y-68871402D01*
X31128597Y-69038494D01*
X31322169Y-69174034D01*
X31322171Y-69174035D01*
X31536337Y-69273903D01*
X31764592Y-69335063D01*
X31941032Y-69350499D01*
X31941033Y-69350500D01*
X31941034Y-69350500D01*
X32058967Y-69350500D01*
X32058967Y-69350499D01*
X32235408Y-69335063D01*
X32463663Y-69273903D01*
X32677829Y-69174035D01*
X32871401Y-69038495D01*
X33038495Y-68871401D01*
X33174035Y-68677830D01*
X33273903Y-68463663D01*
X33335063Y-68235408D01*
X33355659Y-68000000D01*
X33335063Y-67764592D01*
X33273903Y-67536337D01*
X33174035Y-67322171D01*
X33174034Y-67322169D01*
X33038494Y-67128597D01*
X32871402Y-66961505D01*
X32677830Y-66825965D01*
X32677828Y-66825964D01*
X32570746Y-66776031D01*
X32463663Y-66726097D01*
X32463659Y-66726096D01*
X32463655Y-66726094D01*
X32235413Y-66664938D01*
X32235403Y-66664936D01*
X32058967Y-66649500D01*
X32058966Y-66649500D01*
X31941034Y-66649500D01*
X31941033Y-66649500D01*
X31764596Y-66664936D01*
X31764586Y-66664938D01*
X31536344Y-66726094D01*
X31536335Y-66726098D01*
X31322171Y-66825964D01*
X31322169Y-66825965D01*
X31128597Y-66961505D01*
X30961506Y-67128597D01*
X30961501Y-67128604D01*
X30825967Y-67322165D01*
X30825965Y-67322169D01*
X30726098Y-67536335D01*
X30726094Y-67536344D01*
X30664938Y-67764586D01*
X30664936Y-67764596D01*
X30644341Y-67999999D01*
X30644341Y-68000000D01*
X29400500Y-68000000D01*
X29400500Y-67380249D01*
X29400499Y-67380247D01*
X29388868Y-67321770D01*
X29388867Y-67321769D01*
X29344552Y-67255447D01*
X29278230Y-67211132D01*
X29278229Y-67211131D01*
X29219752Y-67199500D01*
X29219748Y-67199500D01*
X28180252Y-67199500D01*
X28180247Y-67199500D01*
X28121770Y-67211131D01*
X28121769Y-67211132D01*
X28055447Y-67255447D01*
X28011132Y-67321769D01*
X28011131Y-67321770D01*
X27999500Y-67380247D01*
X27999500Y-68419752D01*
X28011131Y-68478229D01*
X28011132Y-68478230D01*
X28055447Y-68544552D01*
X28104824Y-68577545D01*
X28149629Y-68631158D01*
X28158336Y-68700483D01*
X28137983Y-68751087D01*
X28075183Y-68842068D01*
X28075182Y-68842068D01*
X28014860Y-69001125D01*
X28014859Y-69001130D01*
X27994355Y-69170000D01*
X28014859Y-69338869D01*
X28014860Y-69338874D01*
X28075182Y-69497931D01*
X28171818Y-69637930D01*
X28255634Y-69712185D01*
X28292761Y-69771374D01*
X28291993Y-69841240D01*
X28255634Y-69897815D01*
X28171818Y-69972069D01*
X28075182Y-70112068D01*
X28014860Y-70271125D01*
X28014859Y-70271130D01*
X27994355Y-70440000D01*
X28014859Y-70608869D01*
X28014860Y-70608874D01*
X28075182Y-70767931D01*
X28127196Y-70843285D01*
X28156319Y-70885477D01*
X28171818Y-70907930D01*
X28255634Y-70982185D01*
X28292761Y-71041374D01*
X28291993Y-71111240D01*
X28255634Y-71167815D01*
X28171818Y-71242069D01*
X28075182Y-71382068D01*
X28014860Y-71541125D01*
X28014859Y-71541130D01*
X27994355Y-71710000D01*
X11325000Y-71710000D01*
X11325000Y-71652694D01*
X11285801Y-71544993D01*
X11214483Y-71460000D01*
X11969160Y-71460000D01*
X11969160Y-71459999D01*
X11928347Y-71325458D01*
X11835496Y-71151746D01*
X11835492Y-71151739D01*
X11710528Y-70999471D01*
X11641990Y-70943223D01*
X11602656Y-70885477D01*
X11600785Y-70815632D01*
X11618607Y-70776928D01*
X11624817Y-70767931D01*
X11624816Y-70767931D01*
X11624818Y-70767930D01*
X11685140Y-70608872D01*
X11705645Y-70440000D01*
X11685140Y-70271128D01*
X11624818Y-70112070D01*
X11528183Y-69972071D01*
X11444363Y-69897813D01*
X11407238Y-69838626D01*
X11408006Y-69768761D01*
X11444363Y-69712186D01*
X11528183Y-69637929D01*
X11624818Y-69497930D01*
X11685140Y-69338872D01*
X11705645Y-69170000D01*
X11685140Y-69001128D01*
X11624818Y-68842070D01*
X11624817Y-68842068D01*
X11624816Y-68842066D01*
X11562017Y-68751088D01*
X11540133Y-68684733D01*
X11557598Y-68617082D01*
X11595175Y-68577545D01*
X11644552Y-68544552D01*
X11688867Y-68478231D01*
X11688867Y-68478229D01*
X11688868Y-68478229D01*
X11700499Y-68419752D01*
X11700500Y-68419750D01*
X11700500Y-67380249D01*
X11700499Y-67380247D01*
X11688868Y-67321770D01*
X11688867Y-67321769D01*
X11644552Y-67255447D01*
X11578230Y-67211132D01*
X11578229Y-67211131D01*
X11519752Y-67199500D01*
X11519748Y-67199500D01*
X10480252Y-67199500D01*
X10480247Y-67199500D01*
X10421770Y-67211131D01*
X10421769Y-67211132D01*
X10355447Y-67255447D01*
X10311132Y-67321769D01*
X10311131Y-67321770D01*
X10299500Y-67380247D01*
X10299500Y-68419752D01*
X10311131Y-68478229D01*
X10311132Y-68478230D01*
X10355447Y-68544552D01*
X10404824Y-68577545D01*
X10449629Y-68631158D01*
X10458336Y-68700483D01*
X10437983Y-68751087D01*
X10375183Y-68842068D01*
X10375182Y-68842068D01*
X10314860Y-69001125D01*
X10314859Y-69001130D01*
X10294355Y-69170000D01*
X10314859Y-69338869D01*
X10314860Y-69338874D01*
X10375182Y-69497931D01*
X10471818Y-69637930D01*
X10555634Y-69712185D01*
X10592761Y-69771374D01*
X10591993Y-69841240D01*
X10555634Y-69897815D01*
X10471818Y-69972069D01*
X10375182Y-70112068D01*
X10314860Y-70271125D01*
X10314859Y-70271130D01*
X10294355Y-70440000D01*
X10314859Y-70608869D01*
X10314860Y-70608874D01*
X10375182Y-70767930D01*
X10381395Y-70776931D01*
X10403277Y-70843285D01*
X10385811Y-70910937D01*
X10358010Y-70943222D01*
X10289472Y-70999470D01*
X10164507Y-71151739D01*
X10164503Y-71151746D01*
X10071652Y-71325458D01*
X10030839Y-71459999D01*
X1729687Y-71459999D01*
X1663431Y-71381770D01*
X1657140Y-71373687D01*
X1622705Y-71325458D01*
X1398989Y-71012123D01*
X1393383Y-71003544D01*
X1281411Y-70815632D01*
X1165955Y-70621872D01*
X1161080Y-70612863D01*
X1159127Y-70608869D01*
X965954Y-70213724D01*
X961838Y-70204339D01*
X925833Y-70112068D01*
X800338Y-69790454D01*
X797019Y-69780786D01*
X670242Y-69354950D01*
X667733Y-69345042D01*
X576555Y-68910194D01*
X574873Y-68900114D01*
X519915Y-68459209D01*
X519072Y-68449036D01*
X500606Y-68002562D01*
X500553Y-68000000D01*
X4644341Y-68000000D01*
X4664936Y-68235403D01*
X4664938Y-68235413D01*
X4726094Y-68463655D01*
X4726096Y-68463659D01*
X4726097Y-68463663D01*
X4776031Y-68570746D01*
X4825964Y-68677828D01*
X4825965Y-68677830D01*
X4961505Y-68871402D01*
X5128597Y-69038494D01*
X5322169Y-69174034D01*
X5322171Y-69174035D01*
X5536337Y-69273903D01*
X5764592Y-69335063D01*
X5941032Y-69350499D01*
X5941033Y-69350500D01*
X5941034Y-69350500D01*
X6058967Y-69350500D01*
X6058967Y-69350499D01*
X6235408Y-69335063D01*
X6463663Y-69273903D01*
X6677829Y-69174035D01*
X6871401Y-69038495D01*
X7038495Y-68871401D01*
X7174035Y-68677830D01*
X7273903Y-68463663D01*
X7335063Y-68235408D01*
X7355659Y-68000000D01*
X7335063Y-67764592D01*
X7273903Y-67536337D01*
X7174035Y-67322171D01*
X7174034Y-67322169D01*
X7038494Y-67128597D01*
X6871402Y-66961505D01*
X6677830Y-66825965D01*
X6677828Y-66825964D01*
X6570746Y-66776031D01*
X6463663Y-66726097D01*
X6463659Y-66726096D01*
X6463655Y-66726094D01*
X6235413Y-66664938D01*
X6235403Y-66664936D01*
X6058967Y-66649500D01*
X6058966Y-66649500D01*
X5941034Y-66649500D01*
X5941033Y-66649500D01*
X5764596Y-66664936D01*
X5764586Y-66664938D01*
X5536344Y-66726094D01*
X5536335Y-66726098D01*
X5322171Y-66825964D01*
X5322169Y-66825965D01*
X5128597Y-66961505D01*
X4961506Y-67128597D01*
X4961501Y-67128604D01*
X4825967Y-67322165D01*
X4825965Y-67322169D01*
X4726098Y-67536335D01*
X4726094Y-67536344D01*
X4664938Y-67764586D01*
X4664936Y-67764596D01*
X4644341Y-67999999D01*
X4644341Y-68000000D01*
X500553Y-68000000D01*
X500500Y-67997438D01*
X500500Y-65750003D01*
X17594508Y-65750003D01*
X17614352Y-65875300D01*
X17614352Y-65875301D01*
X17614354Y-65875304D01*
X17671950Y-65988342D01*
X17671952Y-65988344D01*
X17671954Y-65988347D01*
X17761652Y-66078045D01*
X17761654Y-66078046D01*
X17761658Y-66078050D01*
X17874696Y-66135646D01*
X17874697Y-66135646D01*
X17874699Y-66135647D01*
X17999997Y-66155492D01*
X18000000Y-66155492D01*
X18000003Y-66155492D01*
X18125300Y-66135647D01*
X18125301Y-66135647D01*
X18125302Y-66135646D01*
X18125304Y-66135646D01*
X18238342Y-66078050D01*
X18328050Y-65988342D01*
X18385646Y-65875304D01*
X18385646Y-65875302D01*
X18385647Y-65875301D01*
X18385647Y-65875300D01*
X18405492Y-65750003D01*
X18405492Y-65749996D01*
X18385647Y-65624699D01*
X18385647Y-65624698D01*
X18385646Y-65624696D01*
X18328050Y-65511658D01*
X18328046Y-65511654D01*
X18328045Y-65511652D01*
X18238347Y-65421954D01*
X18238344Y-65421952D01*
X18238342Y-65421950D01*
X18125304Y-65364354D01*
X18125303Y-65364353D01*
X18125300Y-65364352D01*
X18000003Y-65344508D01*
X17999997Y-65344508D01*
X17874699Y-65364352D01*
X17874698Y-65364352D01*
X17813408Y-65395582D01*
X17761658Y-65421950D01*
X17761657Y-65421951D01*
X17761652Y-65421954D01*
X17671954Y-65511652D01*
X17671951Y-65511657D01*
X17614352Y-65624698D01*
X17614352Y-65624699D01*
X17594508Y-65749996D01*
X17594508Y-65750003D01*
X500500Y-65750003D01*
X500500Y-64340000D01*
X3144417Y-64340000D01*
X3164699Y-64545932D01*
X3194734Y-64644944D01*
X3224768Y-64743954D01*
X3322315Y-64926450D01*
X3322317Y-64926452D01*
X3453589Y-65086410D01*
X3550209Y-65165702D01*
X3613550Y-65217685D01*
X3796046Y-65315232D01*
X3994066Y-65375300D01*
X3994065Y-65375300D01*
X4012529Y-65377118D01*
X4200000Y-65395583D01*
X4405934Y-65375300D01*
X4603954Y-65315232D01*
X4786450Y-65217685D01*
X4946410Y-65086410D01*
X5077685Y-64926450D01*
X5175232Y-64743954D01*
X5226601Y-64574610D01*
X24014910Y-64574610D01*
X24034754Y-64699907D01*
X24034754Y-64699908D01*
X24034756Y-64699911D01*
X24092352Y-64812949D01*
X24092354Y-64812951D01*
X24092356Y-64812954D01*
X24182054Y-64902652D01*
X24182056Y-64902653D01*
X24182060Y-64902657D01*
X24295098Y-64960253D01*
X24295099Y-64960253D01*
X24295101Y-64960254D01*
X24420399Y-64980099D01*
X24420402Y-64980099D01*
X24420405Y-64980099D01*
X24545702Y-64960254D01*
X24545703Y-64960254D01*
X24545704Y-64960253D01*
X24545706Y-64960253D01*
X24658744Y-64902657D01*
X24748452Y-64812949D01*
X24806048Y-64699911D01*
X24806048Y-64699909D01*
X24806049Y-64699908D01*
X24806049Y-64699907D01*
X24825894Y-64574610D01*
X24825894Y-64574603D01*
X24806049Y-64449306D01*
X24806049Y-64449305D01*
X24806048Y-64449303D01*
X24750355Y-64340000D01*
X32744417Y-64340000D01*
X32764699Y-64545932D01*
X32794734Y-64644944D01*
X32824768Y-64743954D01*
X32922315Y-64926450D01*
X32922317Y-64926452D01*
X33053589Y-65086410D01*
X33150209Y-65165702D01*
X33213550Y-65217685D01*
X33396046Y-65315232D01*
X33594066Y-65375300D01*
X33594065Y-65375300D01*
X33612529Y-65377118D01*
X33800000Y-65395583D01*
X34005934Y-65375300D01*
X34203954Y-65315232D01*
X34386450Y-65217685D01*
X34546410Y-65086410D01*
X34677685Y-64926450D01*
X34775232Y-64743954D01*
X34835300Y-64545934D01*
X34855583Y-64340000D01*
X34835300Y-64134066D01*
X34775232Y-63936046D01*
X34677685Y-63753550D01*
X34620574Y-63683960D01*
X34546410Y-63593589D01*
X34386452Y-63462317D01*
X34386453Y-63462317D01*
X34386450Y-63462315D01*
X34203954Y-63364768D01*
X34005934Y-63304700D01*
X34005932Y-63304699D01*
X34005934Y-63304699D01*
X33800000Y-63284417D01*
X33594067Y-63304699D01*
X33396043Y-63364769D01*
X33285898Y-63423643D01*
X33213550Y-63462315D01*
X33213548Y-63462316D01*
X33213547Y-63462317D01*
X33053589Y-63593589D01*
X32922317Y-63753547D01*
X32922315Y-63753550D01*
X32911563Y-63773666D01*
X32824769Y-63936043D01*
X32764699Y-64134067D01*
X32744417Y-64340000D01*
X24750355Y-64340000D01*
X24748452Y-64336265D01*
X24748448Y-64336261D01*
X24748447Y-64336259D01*
X24658749Y-64246561D01*
X24658746Y-64246559D01*
X24658744Y-64246557D01*
X24545706Y-64188961D01*
X24545705Y-64188960D01*
X24545702Y-64188959D01*
X24420405Y-64169115D01*
X24420399Y-64169115D01*
X24295101Y-64188959D01*
X24295100Y-64188959D01*
X24219739Y-64227358D01*
X24182060Y-64246557D01*
X24182059Y-64246558D01*
X24182054Y-64246561D01*
X24092356Y-64336259D01*
X24092353Y-64336264D01*
X24034754Y-64449305D01*
X24034754Y-64449306D01*
X24014910Y-64574603D01*
X24014910Y-64574610D01*
X5226601Y-64574610D01*
X5235300Y-64545934D01*
X5255583Y-64340000D01*
X5235300Y-64134066D01*
X5230063Y-64116802D01*
X22706696Y-64116802D01*
X22727779Y-64249921D01*
X22727780Y-64249924D01*
X22727781Y-64249926D01*
X22788972Y-64370020D01*
X22788973Y-64370021D01*
X22788976Y-64370025D01*
X22884274Y-64465323D01*
X22884278Y-64465326D01*
X22884280Y-64465328D01*
X23004374Y-64526519D01*
X23004376Y-64526519D01*
X23004378Y-64526520D01*
X23137498Y-64547604D01*
X23137500Y-64547604D01*
X23137502Y-64547604D01*
X23270621Y-64526520D01*
X23270621Y-64526519D01*
X23270626Y-64526519D01*
X23390720Y-64465328D01*
X23486028Y-64370020D01*
X23547219Y-64249926D01*
X23547752Y-64246561D01*
X23568304Y-64116802D01*
X23568304Y-64116797D01*
X23547220Y-63983678D01*
X23547219Y-63983676D01*
X23547219Y-63983674D01*
X23486028Y-63863580D01*
X23486026Y-63863578D01*
X23486023Y-63863574D01*
X23390725Y-63768276D01*
X23390721Y-63768273D01*
X23390720Y-63768272D01*
X23270626Y-63707081D01*
X23270624Y-63707080D01*
X23270621Y-63707079D01*
X23137502Y-63685996D01*
X23137498Y-63685996D01*
X23004378Y-63707079D01*
X22884278Y-63768273D01*
X22884274Y-63768276D01*
X22788976Y-63863574D01*
X22788973Y-63863578D01*
X22727779Y-63983678D01*
X22706696Y-64116797D01*
X22706696Y-64116802D01*
X5230063Y-64116802D01*
X5175232Y-63936046D01*
X5077685Y-63753550D01*
X5020574Y-63683960D01*
X4971123Y-63623702D01*
X10594196Y-63623702D01*
X10615279Y-63756821D01*
X10615280Y-63756824D01*
X10615281Y-63756826D01*
X10669672Y-63863574D01*
X10676473Y-63876921D01*
X10676476Y-63876925D01*
X10771774Y-63972223D01*
X10771778Y-63972226D01*
X10771780Y-63972228D01*
X10891874Y-64033419D01*
X10891876Y-64033419D01*
X10891878Y-64033420D01*
X11024998Y-64054504D01*
X11025000Y-64054504D01*
X11025002Y-64054504D01*
X11158121Y-64033420D01*
X11158121Y-64033419D01*
X11158126Y-64033419D01*
X11278220Y-63972228D01*
X11373528Y-63876920D01*
X11434719Y-63756826D01*
X11435238Y-63753550D01*
X11455804Y-63623702D01*
X11455804Y-63623697D01*
X11434720Y-63490578D01*
X11434719Y-63490576D01*
X11434719Y-63490574D01*
X11411814Y-63445621D01*
X12673493Y-63445621D01*
X12693337Y-63570918D01*
X12693337Y-63570919D01*
X12693339Y-63570922D01*
X12750935Y-63683960D01*
X12750937Y-63683962D01*
X12750939Y-63683965D01*
X12840637Y-63773663D01*
X12840639Y-63773664D01*
X12840643Y-63773668D01*
X12953681Y-63831264D01*
X12953682Y-63831264D01*
X12953684Y-63831265D01*
X13078982Y-63851110D01*
X13078985Y-63851110D01*
X13078988Y-63851110D01*
X13204285Y-63831265D01*
X13204286Y-63831265D01*
X13204287Y-63831264D01*
X13204289Y-63831264D01*
X13317327Y-63773668D01*
X13407035Y-63683960D01*
X13464631Y-63570922D01*
X13464631Y-63570920D01*
X13464632Y-63570919D01*
X13464632Y-63570918D01*
X13484477Y-63445621D01*
X13484477Y-63445614D01*
X13464632Y-63320317D01*
X13464632Y-63320316D01*
X13446340Y-63284417D01*
X13407035Y-63207276D01*
X13407031Y-63207272D01*
X13407030Y-63207270D01*
X13317332Y-63117572D01*
X13317329Y-63117570D01*
X13317327Y-63117568D01*
X13204289Y-63059972D01*
X13204288Y-63059971D01*
X13204285Y-63059970D01*
X13078988Y-63040126D01*
X13078982Y-63040126D01*
X12953684Y-63059970D01*
X12953683Y-63059970D01*
X12878322Y-63098369D01*
X12840643Y-63117568D01*
X12840642Y-63117569D01*
X12840637Y-63117572D01*
X12750939Y-63207270D01*
X12750936Y-63207275D01*
X12750935Y-63207276D01*
X12747520Y-63213979D01*
X12693337Y-63320316D01*
X12693337Y-63320317D01*
X12673493Y-63445614D01*
X12673493Y-63445621D01*
X11411814Y-63445621D01*
X11373528Y-63370480D01*
X11373526Y-63370478D01*
X11373523Y-63370474D01*
X11278225Y-63275176D01*
X11278221Y-63275173D01*
X11278220Y-63275172D01*
X11158126Y-63213981D01*
X11158124Y-63213980D01*
X11158121Y-63213979D01*
X11025002Y-63192896D01*
X11024998Y-63192896D01*
X10891878Y-63213979D01*
X10771778Y-63275173D01*
X10771774Y-63275176D01*
X10676476Y-63370474D01*
X10676473Y-63370478D01*
X10615279Y-63490578D01*
X10594196Y-63623697D01*
X10594196Y-63623702D01*
X4971123Y-63623702D01*
X4946410Y-63593589D01*
X4786452Y-63462317D01*
X4786453Y-63462317D01*
X4786450Y-63462315D01*
X4603954Y-63364768D01*
X4405934Y-63304700D01*
X4405932Y-63304699D01*
X4405934Y-63304699D01*
X4200000Y-63284417D01*
X3994067Y-63304699D01*
X3796043Y-63364769D01*
X3685898Y-63423643D01*
X3613550Y-63462315D01*
X3613548Y-63462316D01*
X3613547Y-63462317D01*
X3453589Y-63593589D01*
X3322317Y-63753547D01*
X3322315Y-63753550D01*
X3311563Y-63773666D01*
X3224769Y-63936043D01*
X3164699Y-64134067D01*
X3144417Y-64340000D01*
X500500Y-64340000D01*
X500500Y-62669752D01*
X3149500Y-62669752D01*
X3161131Y-62728229D01*
X3161132Y-62728230D01*
X3205447Y-62794552D01*
X3271769Y-62838867D01*
X3271770Y-62838868D01*
X3330247Y-62850499D01*
X3330250Y-62850500D01*
X3330252Y-62850500D01*
X5069750Y-62850500D01*
X5069751Y-62850499D01*
X5084568Y-62847552D01*
X5128229Y-62838868D01*
X5128229Y-62838867D01*
X5128231Y-62838867D01*
X5178911Y-62805003D01*
X15569508Y-62805003D01*
X15589352Y-62930300D01*
X15589352Y-62930301D01*
X15589354Y-62930304D01*
X15646950Y-63043342D01*
X15646952Y-63043344D01*
X15646954Y-63043347D01*
X15736652Y-63133045D01*
X15736654Y-63133046D01*
X15736658Y-63133050D01*
X15849696Y-63190646D01*
X15849697Y-63190646D01*
X15849699Y-63190647D01*
X15974997Y-63210492D01*
X15975000Y-63210492D01*
X15975003Y-63210492D01*
X16100300Y-63190647D01*
X16100301Y-63190647D01*
X16100302Y-63190646D01*
X16100304Y-63190646D01*
X16213342Y-63133050D01*
X16303050Y-63043342D01*
X16360646Y-62930304D01*
X16360646Y-62930302D01*
X16360647Y-62930301D01*
X16360647Y-62930300D01*
X16380492Y-62805003D01*
X16380492Y-62804996D01*
X16360647Y-62679699D01*
X16360647Y-62679698D01*
X16355579Y-62669752D01*
X32749500Y-62669752D01*
X32761131Y-62728229D01*
X32761132Y-62728230D01*
X32805447Y-62794552D01*
X32871769Y-62838867D01*
X32871770Y-62838868D01*
X32930247Y-62850499D01*
X32930250Y-62850500D01*
X32930252Y-62850500D01*
X34669750Y-62850500D01*
X34669751Y-62850499D01*
X34684568Y-62847552D01*
X34728229Y-62838868D01*
X34728229Y-62838867D01*
X34728231Y-62838867D01*
X34794552Y-62794552D01*
X34838867Y-62728231D01*
X34838867Y-62728229D01*
X34838868Y-62728229D01*
X34850499Y-62669752D01*
X34850500Y-62669750D01*
X34850500Y-60930249D01*
X34850499Y-60930247D01*
X34838868Y-60871770D01*
X34838867Y-60871769D01*
X34794552Y-60805447D01*
X34728230Y-60761132D01*
X34728229Y-60761131D01*
X34669752Y-60749500D01*
X34669748Y-60749500D01*
X32930252Y-60749500D01*
X32930247Y-60749500D01*
X32871770Y-60761131D01*
X32871769Y-60761132D01*
X32805447Y-60805447D01*
X32761132Y-60871769D01*
X32761131Y-60871770D01*
X32749500Y-60930247D01*
X32749500Y-62669752D01*
X16355579Y-62669752D01*
X16355577Y-62669748D01*
X16303050Y-62566658D01*
X16303046Y-62566654D01*
X16303045Y-62566652D01*
X16213347Y-62476954D01*
X16213344Y-62476952D01*
X16213342Y-62476950D01*
X16100304Y-62419354D01*
X16100303Y-62419353D01*
X16100300Y-62419352D01*
X15975003Y-62399508D01*
X15974997Y-62399508D01*
X15849699Y-62419352D01*
X15849698Y-62419352D01*
X15797785Y-62445804D01*
X15736658Y-62476950D01*
X15736657Y-62476951D01*
X15736652Y-62476954D01*
X15646954Y-62566652D01*
X15646951Y-62566657D01*
X15589352Y-62679698D01*
X15589352Y-62679699D01*
X15569508Y-62804996D01*
X15569508Y-62805003D01*
X5178911Y-62805003D01*
X5194552Y-62794552D01*
X5238867Y-62728231D01*
X5238867Y-62728229D01*
X5238868Y-62728229D01*
X5250499Y-62669752D01*
X5250500Y-62669750D01*
X5250500Y-61850003D01*
X22732008Y-61850003D01*
X22751852Y-61975300D01*
X22751852Y-61975301D01*
X22751854Y-61975304D01*
X22809450Y-62088342D01*
X22809452Y-62088344D01*
X22809454Y-62088347D01*
X22899152Y-62178045D01*
X22899154Y-62178046D01*
X22899158Y-62178050D01*
X23012196Y-62235646D01*
X23012197Y-62235646D01*
X23012199Y-62235647D01*
X23137497Y-62255492D01*
X23137500Y-62255492D01*
X23137503Y-62255492D01*
X23262800Y-62235647D01*
X23262801Y-62235647D01*
X23262802Y-62235646D01*
X23262804Y-62235646D01*
X23375842Y-62178050D01*
X23465550Y-62088342D01*
X23502919Y-62015002D01*
X23907296Y-62015002D01*
X23928379Y-62148121D01*
X23928380Y-62148124D01*
X23928381Y-62148126D01*
X23983087Y-62255492D01*
X23989573Y-62268221D01*
X23989576Y-62268225D01*
X24084874Y-62363523D01*
X24084878Y-62363526D01*
X24084880Y-62363528D01*
X24204974Y-62424719D01*
X24204976Y-62424719D01*
X24204978Y-62424720D01*
X24338098Y-62445804D01*
X24338100Y-62445804D01*
X24338102Y-62445804D01*
X24471221Y-62424720D01*
X24471221Y-62424719D01*
X24471226Y-62424719D01*
X24591320Y-62363528D01*
X24686628Y-62268220D01*
X24747819Y-62148126D01*
X24768904Y-62015000D01*
X24762616Y-61975301D01*
X24747820Y-61881878D01*
X24747819Y-61881876D01*
X24747819Y-61881874D01*
X24686628Y-61761780D01*
X24686626Y-61761778D01*
X24686623Y-61761774D01*
X24591325Y-61666476D01*
X24591321Y-61666473D01*
X24591320Y-61666472D01*
X24471226Y-61605281D01*
X24471224Y-61605280D01*
X24471221Y-61605279D01*
X24338102Y-61584196D01*
X24338098Y-61584196D01*
X24204978Y-61605279D01*
X24204974Y-61605280D01*
X24204974Y-61605281D01*
X24124911Y-61646075D01*
X24084878Y-61666473D01*
X24084874Y-61666476D01*
X23989576Y-61761774D01*
X23989573Y-61761778D01*
X23928379Y-61881878D01*
X23907296Y-62014997D01*
X23907296Y-62015002D01*
X23502919Y-62015002D01*
X23523146Y-61975304D01*
X23523146Y-61975302D01*
X23523147Y-61975301D01*
X23523147Y-61975300D01*
X23542992Y-61850003D01*
X23542992Y-61849996D01*
X23523147Y-61724699D01*
X23523147Y-61724698D01*
X23493481Y-61666476D01*
X23465550Y-61611658D01*
X23465546Y-61611654D01*
X23465545Y-61611652D01*
X23375847Y-61521954D01*
X23375844Y-61521952D01*
X23375842Y-61521950D01*
X23262804Y-61464354D01*
X23262803Y-61464353D01*
X23262800Y-61464352D01*
X23137503Y-61444508D01*
X23137497Y-61444508D01*
X23012199Y-61464352D01*
X23012198Y-61464352D01*
X22936837Y-61502751D01*
X22899158Y-61521950D01*
X22899157Y-61521951D01*
X22899152Y-61521954D01*
X22809454Y-61611652D01*
X22809451Y-61611657D01*
X22751852Y-61724698D01*
X22751852Y-61724699D01*
X22732008Y-61849996D01*
X22732008Y-61850003D01*
X5250500Y-61850003D01*
X5250500Y-60930249D01*
X5250499Y-60930247D01*
X5238868Y-60871770D01*
X5238867Y-60871769D01*
X5194552Y-60805447D01*
X5128230Y-60761132D01*
X5128229Y-60761131D01*
X5069752Y-60749500D01*
X5069748Y-60749500D01*
X3330252Y-60749500D01*
X3330247Y-60749500D01*
X3271770Y-60761131D01*
X3271769Y-60761132D01*
X3205447Y-60805447D01*
X3161132Y-60871769D01*
X3161131Y-60871770D01*
X3149500Y-60930247D01*
X3149500Y-62669752D01*
X500500Y-62669752D01*
X500500Y-58159902D01*
X15544196Y-58159902D01*
X15565279Y-58293021D01*
X15565280Y-58293024D01*
X15565281Y-58293026D01*
X15626472Y-58413120D01*
X15626473Y-58413121D01*
X15626476Y-58413125D01*
X15721774Y-58508423D01*
X15721778Y-58508426D01*
X15721780Y-58508428D01*
X15841874Y-58569619D01*
X15841876Y-58569619D01*
X15841878Y-58569620D01*
X15974998Y-58590704D01*
X15975000Y-58590704D01*
X15975002Y-58590704D01*
X16108121Y-58569620D01*
X16108121Y-58569619D01*
X16108126Y-58569619D01*
X16228220Y-58508428D01*
X16323528Y-58413120D01*
X16384719Y-58293026D01*
X16405804Y-58159900D01*
X16397514Y-58107561D01*
X16384720Y-58026778D01*
X16384719Y-58026776D01*
X16384719Y-58026774D01*
X16362039Y-57982263D01*
X18811060Y-57982263D01*
X18830904Y-58107560D01*
X18830904Y-58107561D01*
X18830906Y-58107564D01*
X18888502Y-58220602D01*
X18888504Y-58220604D01*
X18888506Y-58220607D01*
X18978204Y-58310305D01*
X18978206Y-58310306D01*
X18978210Y-58310310D01*
X19091248Y-58367906D01*
X19091249Y-58367906D01*
X19091251Y-58367907D01*
X19216549Y-58387752D01*
X19216552Y-58387752D01*
X19216555Y-58387752D01*
X19341852Y-58367907D01*
X19341853Y-58367907D01*
X19341854Y-58367906D01*
X19341856Y-58367906D01*
X19454894Y-58310310D01*
X19544602Y-58220602D01*
X19602198Y-58107564D01*
X19602198Y-58107562D01*
X19602199Y-58107561D01*
X19602199Y-58107560D01*
X19622044Y-57982263D01*
X19622044Y-57982256D01*
X19602199Y-57856959D01*
X19602199Y-57856958D01*
X19602198Y-57856956D01*
X19544602Y-57743918D01*
X19544598Y-57743914D01*
X19544597Y-57743912D01*
X19454899Y-57654214D01*
X19454896Y-57654212D01*
X19454894Y-57654210D01*
X19341856Y-57596614D01*
X19341855Y-57596613D01*
X19341852Y-57596612D01*
X19216555Y-57576768D01*
X19216549Y-57576768D01*
X19091251Y-57596612D01*
X19091250Y-57596612D01*
X19015889Y-57635011D01*
X18978210Y-57654210D01*
X18978209Y-57654211D01*
X18978204Y-57654214D01*
X18888506Y-57743912D01*
X18888503Y-57743917D01*
X18830904Y-57856958D01*
X18830904Y-57856959D01*
X18811060Y-57982256D01*
X18811060Y-57982263D01*
X16362039Y-57982263D01*
X16323528Y-57906680D01*
X16323526Y-57906678D01*
X16323523Y-57906674D01*
X16228225Y-57811376D01*
X16228221Y-57811373D01*
X16228220Y-57811372D01*
X16108126Y-57750181D01*
X16108124Y-57750180D01*
X16108121Y-57750179D01*
X15975002Y-57729096D01*
X15974998Y-57729096D01*
X15841878Y-57750179D01*
X15721778Y-57811373D01*
X15721774Y-57811376D01*
X15626476Y-57906674D01*
X15626473Y-57906678D01*
X15565279Y-58026778D01*
X15544196Y-58159897D01*
X15544196Y-58159902D01*
X500500Y-58159902D01*
X500500Y-56788302D01*
X21141496Y-56788302D01*
X21162579Y-56921421D01*
X21162580Y-56921424D01*
X21162581Y-56921426D01*
X21189026Y-56973327D01*
X21223773Y-57041521D01*
X21223776Y-57041525D01*
X21319074Y-57136823D01*
X21319078Y-57136826D01*
X21319080Y-57136828D01*
X21439174Y-57198019D01*
X21439176Y-57198019D01*
X21439178Y-57198020D01*
X21572298Y-57219104D01*
X21572300Y-57219104D01*
X21572302Y-57219104D01*
X21705421Y-57198020D01*
X21705421Y-57198019D01*
X21705426Y-57198019D01*
X21825520Y-57136828D01*
X21863717Y-57098631D01*
X23486467Y-57098631D01*
X23506311Y-57223928D01*
X23506311Y-57223929D01*
X23506313Y-57223932D01*
X23563909Y-57336970D01*
X23563911Y-57336972D01*
X23563913Y-57336975D01*
X23653611Y-57426673D01*
X23653613Y-57426674D01*
X23653617Y-57426678D01*
X23766655Y-57484274D01*
X23766656Y-57484274D01*
X23766658Y-57484275D01*
X23891956Y-57504120D01*
X23891959Y-57504120D01*
X23891962Y-57504120D01*
X24017259Y-57484275D01*
X24017260Y-57484275D01*
X24017261Y-57484274D01*
X24017263Y-57484274D01*
X24130301Y-57426678D01*
X24220009Y-57336970D01*
X24277605Y-57223932D01*
X24277605Y-57223930D01*
X24277606Y-57223929D01*
X24277606Y-57223928D01*
X24297451Y-57098631D01*
X24297451Y-57098624D01*
X24277606Y-56973327D01*
X24277606Y-56973326D01*
X24277605Y-56973324D01*
X24220009Y-56860286D01*
X24220005Y-56860282D01*
X24220004Y-56860280D01*
X24130306Y-56770582D01*
X24130303Y-56770580D01*
X24130301Y-56770578D01*
X24017263Y-56712982D01*
X24017262Y-56712981D01*
X24017259Y-56712980D01*
X23891962Y-56693136D01*
X23891956Y-56693136D01*
X23766658Y-56712980D01*
X23766657Y-56712980D01*
X23691296Y-56751379D01*
X23653617Y-56770578D01*
X23653616Y-56770579D01*
X23653611Y-56770582D01*
X23563913Y-56860280D01*
X23563910Y-56860285D01*
X23506311Y-56973326D01*
X23506311Y-56973327D01*
X23486467Y-57098624D01*
X23486467Y-57098631D01*
X21863717Y-57098631D01*
X21920828Y-57041520D01*
X21982019Y-56921426D01*
X22003104Y-56788300D01*
X22000297Y-56770579D01*
X21982020Y-56655178D01*
X21982019Y-56655176D01*
X21982019Y-56655174D01*
X21920828Y-56535080D01*
X21920826Y-56535078D01*
X21920823Y-56535074D01*
X21825525Y-56439776D01*
X21825521Y-56439773D01*
X21825520Y-56439772D01*
X21705426Y-56378581D01*
X21705424Y-56378580D01*
X21705421Y-56378579D01*
X21572302Y-56357496D01*
X21572298Y-56357496D01*
X21439178Y-56378579D01*
X21319078Y-56439773D01*
X21319074Y-56439776D01*
X21223776Y-56535074D01*
X21223773Y-56535078D01*
X21162579Y-56655178D01*
X21141496Y-56788297D01*
X21141496Y-56788302D01*
X500500Y-56788302D01*
X500500Y-55935859D01*
X9268584Y-55935859D01*
X9288428Y-56061156D01*
X9288428Y-56061157D01*
X9288430Y-56061160D01*
X9346026Y-56174198D01*
X9346028Y-56174200D01*
X9346030Y-56174203D01*
X9435728Y-56263901D01*
X9435730Y-56263902D01*
X9435734Y-56263906D01*
X9548772Y-56321502D01*
X9548773Y-56321502D01*
X9548775Y-56321503D01*
X9674073Y-56341348D01*
X9674076Y-56341348D01*
X9674079Y-56341348D01*
X9799376Y-56321503D01*
X9799377Y-56321503D01*
X9799378Y-56321502D01*
X9799380Y-56321502D01*
X9912418Y-56263906D01*
X10002126Y-56174198D01*
X10059722Y-56061160D01*
X10059722Y-56061158D01*
X10059723Y-56061157D01*
X10059723Y-56061156D01*
X10079568Y-55935859D01*
X10079568Y-55935852D01*
X10059723Y-55810555D01*
X10059723Y-55810554D01*
X10059722Y-55810552D01*
X10002126Y-55697514D01*
X10002122Y-55697510D01*
X10002121Y-55697508D01*
X9912423Y-55607810D01*
X9912420Y-55607808D01*
X9912418Y-55607806D01*
X9799380Y-55550210D01*
X9799379Y-55550209D01*
X9799376Y-55550208D01*
X9674079Y-55530364D01*
X9674073Y-55530364D01*
X9548775Y-55550208D01*
X9548774Y-55550208D01*
X9473413Y-55588607D01*
X9435734Y-55607806D01*
X9435733Y-55607807D01*
X9435728Y-55607810D01*
X9346030Y-55697508D01*
X9346027Y-55697513D01*
X9288428Y-55810554D01*
X9288428Y-55810555D01*
X9268584Y-55935852D01*
X9268584Y-55935859D01*
X500500Y-55935859D01*
X500500Y-53059102D01*
X18569496Y-53059102D01*
X18590579Y-53192221D01*
X18590580Y-53192224D01*
X18590581Y-53192226D01*
X18651772Y-53312320D01*
X18651773Y-53312321D01*
X18651776Y-53312325D01*
X18747074Y-53407623D01*
X18747078Y-53407626D01*
X18747080Y-53407628D01*
X18867174Y-53468819D01*
X18867176Y-53468819D01*
X18867178Y-53468820D01*
X19000298Y-53489904D01*
X19000300Y-53489904D01*
X19000302Y-53489904D01*
X19133421Y-53468820D01*
X19133421Y-53468819D01*
X19133426Y-53468819D01*
X19253520Y-53407628D01*
X19348828Y-53312320D01*
X19410019Y-53192226D01*
X19431104Y-53059100D01*
X19410019Y-52925974D01*
X19348828Y-52805880D01*
X19348826Y-52805878D01*
X19348823Y-52805874D01*
X19253525Y-52710576D01*
X19253521Y-52710573D01*
X19253520Y-52710572D01*
X19133426Y-52649381D01*
X19133424Y-52649380D01*
X19133421Y-52649379D01*
X19000302Y-52628296D01*
X19000298Y-52628296D01*
X18867178Y-52649379D01*
X18747078Y-52710573D01*
X18747074Y-52710576D01*
X18651776Y-52805874D01*
X18651773Y-52805878D01*
X18590579Y-52925978D01*
X18569496Y-53059097D01*
X18569496Y-53059102D01*
X500500Y-53059102D01*
X500500Y-51000003D01*
X7514508Y-51000003D01*
X7534352Y-51125300D01*
X7534352Y-51125301D01*
X7534354Y-51125304D01*
X7591950Y-51238342D01*
X7591952Y-51238344D01*
X7591954Y-51238347D01*
X7681652Y-51328045D01*
X7681654Y-51328046D01*
X7681658Y-51328050D01*
X7794696Y-51385646D01*
X7794697Y-51385646D01*
X7794699Y-51385647D01*
X7919997Y-51405492D01*
X7920000Y-51405492D01*
X7920003Y-51405492D01*
X8045300Y-51385647D01*
X8045301Y-51385647D01*
X8045302Y-51385646D01*
X8045304Y-51385646D01*
X8076011Y-51370000D01*
X25729364Y-51370000D01*
X25786567Y-51583486D01*
X25786570Y-51583492D01*
X25886399Y-51797578D01*
X26021894Y-51991082D01*
X26188917Y-52158105D01*
X26382421Y-52293600D01*
X26596507Y-52393429D01*
X26596516Y-52393433D01*
X26810000Y-52450634D01*
X26810000Y-51555501D01*
X26917685Y-51604680D01*
X27024237Y-51620000D01*
X27095763Y-51620000D01*
X27202315Y-51604680D01*
X27310000Y-51555501D01*
X27310000Y-52450633D01*
X27523483Y-52393433D01*
X27523492Y-52393429D01*
X27737578Y-52293600D01*
X27931082Y-52158105D01*
X28098105Y-51991082D01*
X28233600Y-51797578D01*
X28333429Y-51583492D01*
X28333433Y-51583483D01*
X28366158Y-51461350D01*
X28402522Y-51401690D01*
X28465369Y-51371160D01*
X28534745Y-51379454D01*
X28588623Y-51423939D01*
X28604593Y-51457447D01*
X28624768Y-51523954D01*
X28722315Y-51706450D01*
X28722317Y-51706452D01*
X28853589Y-51866410D01*
X28950209Y-51945702D01*
X29013550Y-51997685D01*
X29196046Y-52095232D01*
X29394066Y-52155300D01*
X29394065Y-52155300D01*
X29412529Y-52157118D01*
X29600000Y-52175583D01*
X29805934Y-52155300D01*
X30003954Y-52095232D01*
X30186450Y-51997685D01*
X30346410Y-51866410D01*
X30477685Y-51706450D01*
X30575232Y-51523954D01*
X30635300Y-51325934D01*
X30655583Y-51120000D01*
X30635300Y-50914066D01*
X30575232Y-50716046D01*
X30477685Y-50533550D01*
X30402897Y-50442420D01*
X30346410Y-50373589D01*
X30228677Y-50276969D01*
X30186450Y-50242315D01*
X30003954Y-50144768D01*
X29805934Y-50084700D01*
X29805932Y-50084699D01*
X29805934Y-50084699D01*
X29600000Y-50064417D01*
X29394067Y-50084699D01*
X29196043Y-50144769D01*
X29085898Y-50203643D01*
X29013550Y-50242315D01*
X29013548Y-50242316D01*
X29013547Y-50242317D01*
X28853589Y-50373589D01*
X28722317Y-50533547D01*
X28624767Y-50716046D01*
X28604593Y-50782552D01*
X28566296Y-50840990D01*
X28502483Y-50869447D01*
X28433416Y-50858886D01*
X28381023Y-50812661D01*
X28366158Y-50778649D01*
X28333433Y-50656516D01*
X28333429Y-50656507D01*
X28233600Y-50442422D01*
X28233599Y-50442420D01*
X28098113Y-50248926D01*
X28098108Y-50248920D01*
X27931082Y-50081894D01*
X27737578Y-49946399D01*
X27523492Y-49846570D01*
X27523486Y-49846567D01*
X27401349Y-49813841D01*
X27341689Y-49777476D01*
X27311160Y-49714629D01*
X27319455Y-49645253D01*
X27363940Y-49591375D01*
X27397444Y-49575407D01*
X27463954Y-49555232D01*
X27646450Y-49457685D01*
X27806410Y-49326410D01*
X27937685Y-49166450D01*
X28035232Y-48983954D01*
X28095300Y-48785934D01*
X28115583Y-48580000D01*
X28544417Y-48580000D01*
X28564699Y-48785932D01*
X28584286Y-48850500D01*
X28624768Y-48983954D01*
X28722315Y-49166450D01*
X28729084Y-49174698D01*
X28853589Y-49326410D01*
X28943378Y-49400097D01*
X29013550Y-49457685D01*
X29196046Y-49555232D01*
X29394066Y-49615300D01*
X29394065Y-49615300D01*
X29412529Y-49617118D01*
X29600000Y-49635583D01*
X29805934Y-49615300D01*
X30003954Y-49555232D01*
X30186450Y-49457685D01*
X30346410Y-49326410D01*
X30368082Y-49300003D01*
X31914507Y-49300003D01*
X31934351Y-49425300D01*
X31934351Y-49425301D01*
X31934353Y-49425304D01*
X31991949Y-49538342D01*
X31991951Y-49538344D01*
X31991953Y-49538347D01*
X32081651Y-49628045D01*
X32081653Y-49628046D01*
X32081657Y-49628050D01*
X32194695Y-49685646D01*
X32194696Y-49685646D01*
X32194698Y-49685647D01*
X32319996Y-49705492D01*
X32319999Y-49705492D01*
X32320002Y-49705492D01*
X32445299Y-49685647D01*
X32445300Y-49685647D01*
X32445301Y-49685646D01*
X32445303Y-49685646D01*
X32558341Y-49628050D01*
X32648049Y-49538342D01*
X32705645Y-49425304D01*
X32705645Y-49425302D01*
X32705646Y-49425301D01*
X32705646Y-49425300D01*
X32725491Y-49300003D01*
X32725491Y-49299996D01*
X32705646Y-49174699D01*
X32705646Y-49174698D01*
X32691469Y-49146874D01*
X32648049Y-49061658D01*
X32648045Y-49061654D01*
X32648044Y-49061652D01*
X32558346Y-48971954D01*
X32558343Y-48971952D01*
X32558341Y-48971950D01*
X32445303Y-48914354D01*
X32445302Y-48914353D01*
X32445299Y-48914352D01*
X32320002Y-48894508D01*
X32319996Y-48894508D01*
X32194698Y-48914352D01*
X32194697Y-48914352D01*
X32119336Y-48952751D01*
X32081657Y-48971950D01*
X32081656Y-48971951D01*
X32081651Y-48971954D01*
X31991953Y-49061652D01*
X31991950Y-49061657D01*
X31934351Y-49174698D01*
X31934351Y-49174699D01*
X31914507Y-49299996D01*
X31914507Y-49300003D01*
X30368082Y-49300003D01*
X30477685Y-49166450D01*
X30575232Y-48983954D01*
X30635300Y-48785934D01*
X30655583Y-48580000D01*
X30635300Y-48374066D01*
X30575232Y-48176046D01*
X30477685Y-47993550D01*
X30418408Y-47921320D01*
X30346410Y-47833589D01*
X30208489Y-47720402D01*
X31594196Y-47720402D01*
X31615279Y-47853521D01*
X31615280Y-47853524D01*
X31615281Y-47853526D01*
X31676472Y-47973620D01*
X31676473Y-47973621D01*
X31676476Y-47973625D01*
X31771774Y-48068923D01*
X31771778Y-48068926D01*
X31771780Y-48068928D01*
X31891874Y-48130119D01*
X31891876Y-48130119D01*
X31891878Y-48130120D01*
X32024998Y-48151204D01*
X32025000Y-48151204D01*
X32025002Y-48151204D01*
X32158121Y-48130120D01*
X32158121Y-48130119D01*
X32158126Y-48130119D01*
X32278220Y-48068928D01*
X32373528Y-47973620D01*
X32434719Y-47853526D01*
X32435971Y-47845621D01*
X32455804Y-47720402D01*
X32455804Y-47720397D01*
X32434720Y-47587278D01*
X32434719Y-47587276D01*
X32434719Y-47587274D01*
X32373528Y-47467180D01*
X32373526Y-47467178D01*
X32373523Y-47467174D01*
X32278225Y-47371876D01*
X32278221Y-47371873D01*
X32278220Y-47371872D01*
X32158126Y-47310681D01*
X32158124Y-47310680D01*
X32158121Y-47310679D01*
X32025002Y-47289596D01*
X32024998Y-47289596D01*
X31891878Y-47310679D01*
X31891874Y-47310680D01*
X31891874Y-47310681D01*
X31874417Y-47319576D01*
X31771778Y-47371873D01*
X31771774Y-47371876D01*
X31676476Y-47467174D01*
X31676473Y-47467178D01*
X31615279Y-47587278D01*
X31594196Y-47720397D01*
X31594196Y-47720402D01*
X30208489Y-47720402D01*
X30208483Y-47720397D01*
X30186450Y-47702315D01*
X30009656Y-47607816D01*
X30003956Y-47604769D01*
X30003955Y-47604768D01*
X30003954Y-47604768D01*
X29805934Y-47544700D01*
X29805932Y-47544699D01*
X29805934Y-47544699D01*
X29600000Y-47524417D01*
X29394067Y-47544699D01*
X29196043Y-47604769D01*
X29085898Y-47663643D01*
X29013550Y-47702315D01*
X29013548Y-47702316D01*
X29013547Y-47702317D01*
X28853589Y-47833589D01*
X28722317Y-47993547D01*
X28722315Y-47993550D01*
X28683643Y-48065898D01*
X28624769Y-48176043D01*
X28564699Y-48374067D01*
X28544417Y-48580000D01*
X28115583Y-48580000D01*
X28095300Y-48374066D01*
X28035232Y-48176046D01*
X27937685Y-47993550D01*
X27878408Y-47921320D01*
X27806410Y-47833589D01*
X27668483Y-47720397D01*
X27646450Y-47702315D01*
X27469656Y-47607816D01*
X27463956Y-47604769D01*
X27463955Y-47604768D01*
X27463954Y-47604768D01*
X27265934Y-47544700D01*
X27265932Y-47544699D01*
X27265934Y-47544699D01*
X27060000Y-47524417D01*
X26854067Y-47544699D01*
X26656043Y-47604769D01*
X26545898Y-47663643D01*
X26473550Y-47702315D01*
X26473548Y-47702316D01*
X26473547Y-47702317D01*
X26313589Y-47833589D01*
X26182317Y-47993547D01*
X26182315Y-47993550D01*
X26143643Y-48065898D01*
X26084769Y-48176043D01*
X26024699Y-48374067D01*
X26004417Y-48580000D01*
X26024699Y-48785932D01*
X26044286Y-48850500D01*
X26084768Y-48983954D01*
X26182315Y-49166450D01*
X26189084Y-49174698D01*
X26313589Y-49326410D01*
X26403378Y-49400097D01*
X26473550Y-49457685D01*
X26656046Y-49555232D01*
X26722551Y-49575405D01*
X26780989Y-49613702D01*
X26809446Y-49677514D01*
X26798887Y-49746581D01*
X26752663Y-49798975D01*
X26718650Y-49813841D01*
X26596514Y-49846567D01*
X26596507Y-49846570D01*
X26382422Y-49946399D01*
X26382420Y-49946400D01*
X26188926Y-50081886D01*
X26188920Y-50081891D01*
X26021891Y-50248920D01*
X26021886Y-50248926D01*
X25886400Y-50442420D01*
X25886399Y-50442422D01*
X25786570Y-50656507D01*
X25786567Y-50656513D01*
X25729364Y-50869999D01*
X25729364Y-50870000D01*
X26626314Y-50870000D01*
X26600507Y-50910156D01*
X26560000Y-51048111D01*
X26560000Y-51191889D01*
X26600507Y-51329844D01*
X26626314Y-51370000D01*
X25729364Y-51370000D01*
X8076011Y-51370000D01*
X8158342Y-51328050D01*
X8248050Y-51238342D01*
X8305646Y-51125304D01*
X8305646Y-51125302D01*
X8305647Y-51125301D01*
X8305647Y-51125300D01*
X8325492Y-51000003D01*
X8325492Y-50999996D01*
X8305647Y-50874699D01*
X8305647Y-50874698D01*
X8297590Y-50858886D01*
X8248050Y-50761658D01*
X8248046Y-50761654D01*
X8248045Y-50761652D01*
X8158347Y-50671954D01*
X8158344Y-50671952D01*
X8158342Y-50671950D01*
X8045304Y-50614354D01*
X8045303Y-50614353D01*
X8045300Y-50614352D01*
X7920003Y-50594508D01*
X7919997Y-50594508D01*
X7794699Y-50614352D01*
X7794698Y-50614352D01*
X7719337Y-50652751D01*
X7681658Y-50671950D01*
X7681657Y-50671951D01*
X7681652Y-50671954D01*
X7591954Y-50761652D01*
X7591951Y-50761657D01*
X7534352Y-50874698D01*
X7534352Y-50874699D01*
X7514508Y-50999996D01*
X7514508Y-51000003D01*
X500500Y-51000003D01*
X500500Y-49400102D01*
X10200196Y-49400102D01*
X10221279Y-49533221D01*
X10221280Y-49533224D01*
X10221281Y-49533226D01*
X10273435Y-49635583D01*
X10282473Y-49653321D01*
X10282476Y-49653325D01*
X10377774Y-49748623D01*
X10377778Y-49748626D01*
X10377780Y-49748628D01*
X10497874Y-49809819D01*
X10497876Y-49809819D01*
X10497878Y-49809820D01*
X10630998Y-49830904D01*
X10631000Y-49830904D01*
X10631002Y-49830904D01*
X10764121Y-49809820D01*
X10764121Y-49809819D01*
X10764126Y-49809819D01*
X10884220Y-49748628D01*
X10979528Y-49653320D01*
X11040719Y-49533226D01*
X11040720Y-49533221D01*
X11061804Y-49400102D01*
X11061804Y-49400097D01*
X11040720Y-49266978D01*
X11040719Y-49266976D01*
X11040719Y-49266974D01*
X10979528Y-49146880D01*
X10979526Y-49146878D01*
X10979523Y-49146874D01*
X10884225Y-49051576D01*
X10884221Y-49051573D01*
X10884220Y-49051572D01*
X10764126Y-48990381D01*
X10764124Y-48990380D01*
X10764121Y-48990379D01*
X10631002Y-48969296D01*
X10630998Y-48969296D01*
X10497878Y-48990379D01*
X10377778Y-49051573D01*
X10377774Y-49051576D01*
X10282476Y-49146874D01*
X10282473Y-49146878D01*
X10221279Y-49266978D01*
X10200196Y-49400097D01*
X10200196Y-49400102D01*
X500500Y-49400102D01*
X500500Y-42347844D01*
X2400000Y-42347844D01*
X2406401Y-42407372D01*
X2406403Y-42407379D01*
X2456645Y-42542086D01*
X2456649Y-42542093D01*
X2542809Y-42657187D01*
X2542812Y-42657190D01*
X2657905Y-42743349D01*
X2659829Y-42744400D01*
X2661379Y-42745950D01*
X2665011Y-42748669D01*
X2664620Y-42749190D01*
X2709236Y-42793804D01*
X2724089Y-42862077D01*
X2716350Y-42897197D01*
X2714862Y-42901121D01*
X2714859Y-42901130D01*
X2694355Y-43070000D01*
X2714859Y-43238869D01*
X2714860Y-43238874D01*
X2775182Y-43397931D01*
X2871818Y-43537930D01*
X2955634Y-43612185D01*
X2992761Y-43671374D01*
X2991993Y-43741240D01*
X2955634Y-43797815D01*
X2871818Y-43872069D01*
X2775182Y-44012068D01*
X2714860Y-44171125D01*
X2714859Y-44171130D01*
X2694355Y-44340000D01*
X2714859Y-44508869D01*
X2714860Y-44508874D01*
X2775182Y-44667931D01*
X2871818Y-44807930D01*
X2955634Y-44882185D01*
X2992761Y-44941374D01*
X2991993Y-45011240D01*
X2955634Y-45067815D01*
X2871818Y-45142069D01*
X2775182Y-45282068D01*
X2714860Y-45441125D01*
X2714859Y-45441130D01*
X2694355Y-45610000D01*
X2714859Y-45778869D01*
X2714860Y-45778874D01*
X2775182Y-45937931D01*
X2871818Y-46077930D01*
X2955634Y-46152185D01*
X2992761Y-46211374D01*
X2991993Y-46281240D01*
X2955634Y-46337815D01*
X2871818Y-46412069D01*
X2775182Y-46552068D01*
X2714860Y-46711125D01*
X2714859Y-46711130D01*
X2694355Y-46880000D01*
X2714859Y-47048869D01*
X2714860Y-47048874D01*
X2775182Y-47207931D01*
X2810006Y-47258381D01*
X2852243Y-47319572D01*
X2871818Y-47347930D01*
X2955634Y-47422185D01*
X2992761Y-47481374D01*
X2991993Y-47551240D01*
X2955634Y-47607815D01*
X2871818Y-47682069D01*
X2775182Y-47822068D01*
X2714860Y-47981125D01*
X2714859Y-47981130D01*
X2694355Y-48150000D01*
X2714859Y-48318869D01*
X2714860Y-48318874D01*
X2775182Y-48477931D01*
X2837475Y-48568177D01*
X2871817Y-48617929D01*
X2977505Y-48711560D01*
X2999150Y-48730736D01*
X3149773Y-48809789D01*
X3149775Y-48809790D01*
X3314944Y-48850500D01*
X3485056Y-48850500D01*
X3650225Y-48809790D01*
X3729692Y-48768081D01*
X3800849Y-48730736D01*
X3800850Y-48730734D01*
X3800852Y-48730734D01*
X3928183Y-48617929D01*
X4024818Y-48477930D01*
X4085140Y-48318872D01*
X4105645Y-48150000D01*
X4085140Y-47981128D01*
X4081269Y-47970922D01*
X4062458Y-47921320D01*
X4024818Y-47822070D01*
X4010430Y-47801226D01*
X3954641Y-47720402D01*
X3928183Y-47682071D01*
X3912415Y-47668102D01*
X8851396Y-47668102D01*
X8872479Y-47801221D01*
X8872480Y-47801224D01*
X8872481Y-47801226D01*
X8933672Y-47921320D01*
X8933673Y-47921321D01*
X8933676Y-47921325D01*
X9028974Y-48016623D01*
X9028978Y-48016626D01*
X9028980Y-48016628D01*
X9149074Y-48077819D01*
X9149076Y-48077819D01*
X9149078Y-48077820D01*
X9282198Y-48098904D01*
X9282200Y-48098904D01*
X9282202Y-48098904D01*
X9415321Y-48077820D01*
X9415321Y-48077819D01*
X9415326Y-48077819D01*
X9535420Y-48016628D01*
X9630728Y-47921320D01*
X9669299Y-47845621D01*
X18643493Y-47845621D01*
X18663337Y-47970918D01*
X18663337Y-47970919D01*
X18681790Y-48007135D01*
X18720935Y-48083960D01*
X18720937Y-48083962D01*
X18720939Y-48083965D01*
X18810637Y-48173663D01*
X18810639Y-48173664D01*
X18810643Y-48173668D01*
X18923681Y-48231264D01*
X18923682Y-48231264D01*
X18923684Y-48231265D01*
X19048982Y-48251110D01*
X19048985Y-48251110D01*
X19048988Y-48251110D01*
X19174285Y-48231265D01*
X19174286Y-48231265D01*
X19174287Y-48231264D01*
X19174289Y-48231264D01*
X19287327Y-48173668D01*
X19377035Y-48083960D01*
X19434631Y-47970922D01*
X19434631Y-47970920D01*
X19434632Y-47970919D01*
X19434632Y-47970918D01*
X19454477Y-47845621D01*
X19454477Y-47845614D01*
X19434632Y-47720317D01*
X19434632Y-47720316D01*
X19425460Y-47702315D01*
X19377035Y-47607276D01*
X19377031Y-47607272D01*
X19377030Y-47607270D01*
X19287332Y-47517572D01*
X19287329Y-47517570D01*
X19287327Y-47517568D01*
X19174289Y-47459972D01*
X19174288Y-47459971D01*
X19174285Y-47459970D01*
X19048988Y-47440126D01*
X19048982Y-47440126D01*
X18923684Y-47459970D01*
X18923683Y-47459970D01*
X18881677Y-47481374D01*
X18810643Y-47517568D01*
X18810642Y-47517569D01*
X18810637Y-47517572D01*
X18720939Y-47607270D01*
X18720936Y-47607275D01*
X18720935Y-47607276D01*
X18720660Y-47607816D01*
X18663337Y-47720316D01*
X18663337Y-47720317D01*
X18643493Y-47845614D01*
X18643493Y-47845621D01*
X9669299Y-47845621D01*
X9691919Y-47801226D01*
X9710791Y-47682072D01*
X9713004Y-47668102D01*
X9713004Y-47668097D01*
X9691920Y-47534978D01*
X9691919Y-47534976D01*
X9691919Y-47534974D01*
X9630728Y-47414880D01*
X9630726Y-47414878D01*
X9630723Y-47414874D01*
X9613062Y-47397213D01*
X9579577Y-47335890D01*
X9584561Y-47266198D01*
X9626433Y-47210265D01*
X9681346Y-47187059D01*
X9736521Y-47178320D01*
X9736521Y-47178319D01*
X9736526Y-47178319D01*
X9856620Y-47117128D01*
X9951928Y-47021820D01*
X10013119Y-46901726D01*
X10034204Y-46768600D01*
X10025101Y-46711128D01*
X10013120Y-46635478D01*
X10013119Y-46635476D01*
X10013119Y-46635474D01*
X9951928Y-46515380D01*
X9951926Y-46515378D01*
X9951923Y-46515374D01*
X9856625Y-46420076D01*
X9856621Y-46420073D01*
X9856620Y-46420072D01*
X9736526Y-46358881D01*
X9736524Y-46358880D01*
X9736521Y-46358879D01*
X9603402Y-46337796D01*
X9603398Y-46337796D01*
X9470278Y-46358879D01*
X9350178Y-46420073D01*
X9350174Y-46420076D01*
X9254876Y-46515374D01*
X9254873Y-46515378D01*
X9193679Y-46635478D01*
X9172596Y-46768597D01*
X9172596Y-46768602D01*
X9193679Y-46901721D01*
X9193680Y-46901724D01*
X9193681Y-46901726D01*
X9254872Y-47021820D01*
X9254873Y-47021821D01*
X9254876Y-47021825D01*
X9272537Y-47039486D01*
X9306022Y-47100809D01*
X9301038Y-47170501D01*
X9259166Y-47226434D01*
X9204255Y-47249640D01*
X9149078Y-47258379D01*
X9028978Y-47319573D01*
X9028974Y-47319576D01*
X8933676Y-47414874D01*
X8933673Y-47414878D01*
X8872479Y-47534978D01*
X8851396Y-47668097D01*
X8851396Y-47668102D01*
X3912415Y-47668102D01*
X3844363Y-47607813D01*
X3807238Y-47548626D01*
X3808006Y-47478761D01*
X3844363Y-47422186D01*
X3928183Y-47347929D01*
X4024818Y-47207930D01*
X4085140Y-47048872D01*
X4105645Y-46880000D01*
X4085140Y-46711128D01*
X4024818Y-46552070D01*
X3999488Y-46515374D01*
X3990476Y-46502318D01*
X3928183Y-46412071D01*
X3844363Y-46337813D01*
X3807238Y-46278626D01*
X3808006Y-46208761D01*
X3844363Y-46152186D01*
X3928183Y-46077929D01*
X4024818Y-45937930D01*
X4037268Y-45905102D01*
X6818196Y-45905102D01*
X6839279Y-46038221D01*
X6839280Y-46038224D01*
X6839281Y-46038226D01*
X6900472Y-46158320D01*
X6900473Y-46158321D01*
X6900476Y-46158325D01*
X6995774Y-46253623D01*
X6995778Y-46253626D01*
X6995780Y-46253628D01*
X7115874Y-46314819D01*
X7115876Y-46314819D01*
X7115878Y-46314820D01*
X7248998Y-46335904D01*
X7249000Y-46335904D01*
X7249002Y-46335904D01*
X7382121Y-46314820D01*
X7382121Y-46314819D01*
X7382126Y-46314819D01*
X7502220Y-46253628D01*
X7597528Y-46158320D01*
X7657815Y-46040000D01*
X26004417Y-46040000D01*
X26024699Y-46245932D01*
X26026700Y-46252528D01*
X26084768Y-46443954D01*
X26182315Y-46626450D01*
X26182317Y-46626452D01*
X26313589Y-46786410D01*
X26410209Y-46865702D01*
X26473550Y-46917685D01*
X26656046Y-47015232D01*
X26854066Y-47075300D01*
X26854065Y-47075300D01*
X26872529Y-47077118D01*
X27060000Y-47095583D01*
X27265934Y-47075300D01*
X27463954Y-47015232D01*
X27646450Y-46917685D01*
X27806410Y-46786410D01*
X27937685Y-46626450D01*
X28035232Y-46443954D01*
X28095300Y-46245934D01*
X28115583Y-46040000D01*
X28095300Y-45834066D01*
X28035232Y-45636046D01*
X27937685Y-45453550D01*
X27841937Y-45336880D01*
X27806410Y-45293589D01*
X27688677Y-45196969D01*
X27646450Y-45162315D01*
X27469656Y-45067816D01*
X27463956Y-45064769D01*
X27463955Y-45064768D01*
X27463954Y-45064768D01*
X27265934Y-45004700D01*
X27265932Y-45004699D01*
X27265934Y-45004699D01*
X27060000Y-44984417D01*
X26854067Y-45004699D01*
X26656043Y-45064769D01*
X26545898Y-45123643D01*
X26473550Y-45162315D01*
X26473548Y-45162316D01*
X26473547Y-45162317D01*
X26313589Y-45293589D01*
X26182317Y-45453547D01*
X26084769Y-45636043D01*
X26024699Y-45834067D01*
X26004417Y-46040000D01*
X7657815Y-46040000D01*
X7658719Y-46038226D01*
X7674604Y-45937931D01*
X7679804Y-45905102D01*
X7679804Y-45905097D01*
X7658720Y-45771978D01*
X7658719Y-45771976D01*
X7658719Y-45771974D01*
X7597528Y-45651880D01*
X7597526Y-45651878D01*
X7597523Y-45651874D01*
X7502225Y-45556576D01*
X7502221Y-45556573D01*
X7502220Y-45556572D01*
X7382126Y-45495381D01*
X7382124Y-45495380D01*
X7382121Y-45495379D01*
X7249002Y-45474296D01*
X7248998Y-45474296D01*
X7115878Y-45495379D01*
X6995778Y-45556573D01*
X6995774Y-45556576D01*
X6900476Y-45651874D01*
X6900473Y-45651878D01*
X6900472Y-45651880D01*
X6839842Y-45770874D01*
X6839279Y-45771978D01*
X6818196Y-45905097D01*
X6818196Y-45905102D01*
X4037268Y-45905102D01*
X4085140Y-45778872D01*
X4105645Y-45610000D01*
X4085140Y-45441128D01*
X4024818Y-45282070D01*
X3928183Y-45142071D01*
X3844363Y-45067813D01*
X3807238Y-45008626D01*
X3808006Y-44938761D01*
X3844363Y-44882186D01*
X3928183Y-44807929D01*
X4024818Y-44667930D01*
X4085140Y-44508872D01*
X4105645Y-44340000D01*
X4085140Y-44171128D01*
X4024818Y-44012070D01*
X4014544Y-43997186D01*
X3964684Y-43924952D01*
X3928183Y-43872071D01*
X3844363Y-43797813D01*
X3807238Y-43738626D01*
X3808006Y-43668761D01*
X3844363Y-43612186D01*
X3928183Y-43537929D01*
X3954364Y-43500000D01*
X26004417Y-43500000D01*
X26024699Y-43705932D01*
X26024700Y-43705934D01*
X26084768Y-43903954D01*
X26182315Y-44086450D01*
X26182317Y-44086452D01*
X26313589Y-44246410D01*
X26410209Y-44325702D01*
X26473550Y-44377685D01*
X26656046Y-44475232D01*
X26854066Y-44535300D01*
X26854065Y-44535300D01*
X26872529Y-44537118D01*
X27060000Y-44555583D01*
X27265934Y-44535300D01*
X27463954Y-44475232D01*
X27646450Y-44377685D01*
X27806410Y-44246410D01*
X27937685Y-44086450D01*
X28016643Y-43938730D01*
X28065605Y-43888888D01*
X28133742Y-43873428D01*
X28199422Y-43897260D01*
X28241791Y-43952818D01*
X28250000Y-43997186D01*
X28250000Y-44397844D01*
X28256401Y-44457372D01*
X28256403Y-44457379D01*
X28306645Y-44592086D01*
X28306649Y-44592093D01*
X28392809Y-44707187D01*
X28392812Y-44707190D01*
X28507906Y-44793350D01*
X28507913Y-44793354D01*
X28642620Y-44843596D01*
X28642627Y-44843598D01*
X28702155Y-44849999D01*
X28702172Y-44850000D01*
X29102813Y-44850000D01*
X29169852Y-44869685D01*
X29215607Y-44922489D01*
X29225551Y-44991647D01*
X29196526Y-45055203D01*
X29161267Y-45083357D01*
X29013550Y-45162315D01*
X29013548Y-45162316D01*
X29013547Y-45162317D01*
X28853589Y-45293589D01*
X28722317Y-45453547D01*
X28624769Y-45636043D01*
X28564699Y-45834067D01*
X28544417Y-46040000D01*
X28564699Y-46245932D01*
X28566700Y-46252528D01*
X28624768Y-46443954D01*
X28722315Y-46626450D01*
X28722317Y-46626452D01*
X28853589Y-46786410D01*
X28950209Y-46865702D01*
X29013550Y-46917685D01*
X29196046Y-47015232D01*
X29394066Y-47075300D01*
X29394065Y-47075300D01*
X29412529Y-47077118D01*
X29600000Y-47095583D01*
X29805934Y-47075300D01*
X30003954Y-47015232D01*
X30186450Y-46917685D01*
X30346410Y-46786410D01*
X30477685Y-46626450D01*
X30575232Y-46443954D01*
X30635300Y-46245934D01*
X30655583Y-46040000D01*
X30635300Y-45834066D01*
X30575232Y-45636046D01*
X30550674Y-45590102D01*
X32923796Y-45590102D01*
X32944879Y-45723221D01*
X32944880Y-45723224D01*
X32944881Y-45723226D01*
X33006072Y-45843320D01*
X33006073Y-45843321D01*
X33006076Y-45843325D01*
X33101374Y-45938623D01*
X33101378Y-45938626D01*
X33101380Y-45938628D01*
X33221474Y-45999819D01*
X33221476Y-45999819D01*
X33221478Y-45999820D01*
X33354598Y-46020904D01*
X33354600Y-46020904D01*
X33354602Y-46020904D01*
X33487721Y-45999820D01*
X33487721Y-45999819D01*
X33487726Y-45999819D01*
X33607820Y-45938628D01*
X33703128Y-45843320D01*
X33764319Y-45723226D01*
X33775619Y-45651880D01*
X33785404Y-45590102D01*
X33785404Y-45590097D01*
X33764320Y-45456978D01*
X33764319Y-45456976D01*
X33764319Y-45456974D01*
X33703128Y-45336880D01*
X33703126Y-45336878D01*
X33703123Y-45336874D01*
X33607825Y-45241576D01*
X33607821Y-45241573D01*
X33607820Y-45241572D01*
X33487726Y-45180381D01*
X33487724Y-45180380D01*
X33487721Y-45180379D01*
X33354602Y-45159296D01*
X33354598Y-45159296D01*
X33221478Y-45180379D01*
X33101378Y-45241573D01*
X33101374Y-45241576D01*
X33006076Y-45336874D01*
X33006073Y-45336878D01*
X33006072Y-45336880D01*
X32952957Y-45441125D01*
X32944879Y-45456978D01*
X32923796Y-45590097D01*
X32923796Y-45590102D01*
X30550674Y-45590102D01*
X30477685Y-45453550D01*
X30381937Y-45336880D01*
X30346410Y-45293589D01*
X30228677Y-45196969D01*
X30186450Y-45162315D01*
X30038732Y-45083357D01*
X29988889Y-45034395D01*
X29973429Y-44966257D01*
X29997261Y-44900578D01*
X30052819Y-44858209D01*
X30097187Y-44850000D01*
X30497828Y-44850000D01*
X30497844Y-44849999D01*
X30557372Y-44843598D01*
X30557379Y-44843596D01*
X30692086Y-44793354D01*
X30692093Y-44793350D01*
X30807187Y-44707190D01*
X30807190Y-44707187D01*
X30893350Y-44592093D01*
X30893354Y-44592086D01*
X30943596Y-44457379D01*
X30943598Y-44457372D01*
X30949999Y-44397844D01*
X30950000Y-44397827D01*
X30950000Y-43750000D01*
X30033686Y-43750000D01*
X30059493Y-43709844D01*
X30100000Y-43571889D01*
X30100000Y-43428111D01*
X30059493Y-43290156D01*
X30033686Y-43250000D01*
X30950000Y-43250000D01*
X30950000Y-42602172D01*
X30949999Y-42602155D01*
X30943598Y-42542627D01*
X30943596Y-42542620D01*
X30942285Y-42539106D01*
X35020654Y-42539106D01*
X35040498Y-42664403D01*
X35040498Y-42664404D01*
X35040500Y-42664407D01*
X35098096Y-42777445D01*
X35098098Y-42777447D01*
X35098100Y-42777450D01*
X35187798Y-42867148D01*
X35187800Y-42867149D01*
X35187804Y-42867153D01*
X35300842Y-42924749D01*
X35300843Y-42924749D01*
X35300845Y-42924750D01*
X35426143Y-42944595D01*
X35426146Y-42944595D01*
X35426149Y-42944595D01*
X35551446Y-42924750D01*
X35551447Y-42924750D01*
X35551448Y-42924749D01*
X35551450Y-42924749D01*
X35664488Y-42867153D01*
X35754196Y-42777445D01*
X35811792Y-42664407D01*
X35811792Y-42664405D01*
X35811793Y-42664404D01*
X35811793Y-42664403D01*
X35831638Y-42539106D01*
X35831638Y-42539099D01*
X35811793Y-42413802D01*
X35811793Y-42413801D01*
X35808385Y-42407112D01*
X35754196Y-42300761D01*
X35754192Y-42300757D01*
X35754191Y-42300755D01*
X35664493Y-42211057D01*
X35664490Y-42211055D01*
X35664488Y-42211053D01*
X35551450Y-42153457D01*
X35551449Y-42153456D01*
X35551446Y-42153455D01*
X35426149Y-42133611D01*
X35426143Y-42133611D01*
X35300845Y-42153455D01*
X35300844Y-42153455D01*
X35225483Y-42191854D01*
X35187804Y-42211053D01*
X35187803Y-42211054D01*
X35187798Y-42211057D01*
X35098100Y-42300755D01*
X35098097Y-42300760D01*
X35098096Y-42300761D01*
X35083369Y-42329665D01*
X35040498Y-42413801D01*
X35040498Y-42413802D01*
X35020654Y-42539099D01*
X35020654Y-42539106D01*
X30942285Y-42539106D01*
X30893354Y-42407913D01*
X30893350Y-42407906D01*
X30807190Y-42292812D01*
X30807187Y-42292809D01*
X30692093Y-42206649D01*
X30692086Y-42206645D01*
X30557379Y-42156403D01*
X30557372Y-42156401D01*
X30497844Y-42150000D01*
X29850000Y-42150000D01*
X29850000Y-43064498D01*
X29742315Y-43015320D01*
X29635763Y-43000000D01*
X29564237Y-43000000D01*
X29457685Y-43015320D01*
X29350000Y-43064498D01*
X29350000Y-42150000D01*
X28702155Y-42150000D01*
X28642627Y-42156401D01*
X28642620Y-42156403D01*
X28507913Y-42206645D01*
X28507906Y-42206649D01*
X28392812Y-42292809D01*
X28392809Y-42292812D01*
X28306649Y-42407906D01*
X28306645Y-42407913D01*
X28256403Y-42542620D01*
X28256401Y-42542627D01*
X28250000Y-42602155D01*
X28250000Y-43002813D01*
X28230315Y-43069852D01*
X28177511Y-43115607D01*
X28108353Y-43125551D01*
X28044797Y-43096526D01*
X28016642Y-43061267D01*
X27937685Y-42913550D01*
X27839413Y-42793804D01*
X27806410Y-42753589D01*
X27646452Y-42622317D01*
X27646453Y-42622317D01*
X27646450Y-42622315D01*
X27463954Y-42524768D01*
X27265934Y-42464700D01*
X27265932Y-42464699D01*
X27265934Y-42464699D01*
X27060000Y-42444417D01*
X26854067Y-42464699D01*
X26656043Y-42524769D01*
X26622634Y-42542627D01*
X26473550Y-42622315D01*
X26473548Y-42622316D01*
X26473547Y-42622317D01*
X26313589Y-42753589D01*
X26182317Y-42913547D01*
X26182315Y-42913550D01*
X26143643Y-42985898D01*
X26084769Y-43096043D01*
X26024699Y-43294067D01*
X26004417Y-43500000D01*
X3954364Y-43500000D01*
X4024818Y-43397930D01*
X4085140Y-43238872D01*
X4105645Y-43070000D01*
X4085140Y-42901128D01*
X4083653Y-42897209D01*
X4083417Y-42894139D01*
X4083345Y-42893846D01*
X4083393Y-42893833D01*
X4078284Y-42827547D01*
X4111429Y-42766039D01*
X4140175Y-42744398D01*
X4142093Y-42743350D01*
X4257187Y-42657190D01*
X4257190Y-42657187D01*
X4271768Y-42637714D01*
X18626465Y-42637714D01*
X18646309Y-42763011D01*
X18646309Y-42763012D01*
X18653663Y-42777445D01*
X18703907Y-42876053D01*
X18703909Y-42876055D01*
X18703911Y-42876058D01*
X18793609Y-42965756D01*
X18793611Y-42965757D01*
X18793615Y-42965761D01*
X18906653Y-43023357D01*
X18906654Y-43023357D01*
X18906656Y-43023358D01*
X19031954Y-43043203D01*
X19031957Y-43043203D01*
X19031960Y-43043203D01*
X19157257Y-43023358D01*
X19157258Y-43023358D01*
X19157259Y-43023357D01*
X19157261Y-43023357D01*
X19270299Y-42965761D01*
X19360007Y-42876053D01*
X19417603Y-42763015D01*
X19417603Y-42763013D01*
X19417604Y-42763012D01*
X19417604Y-42763011D01*
X19437449Y-42637714D01*
X19437449Y-42637707D01*
X19417604Y-42512410D01*
X19417604Y-42512409D01*
X19405812Y-42489266D01*
X19360007Y-42399369D01*
X19360003Y-42399365D01*
X19360002Y-42399363D01*
X19270304Y-42309665D01*
X19270301Y-42309663D01*
X19270299Y-42309661D01*
X19157261Y-42252065D01*
X19157260Y-42252064D01*
X19157257Y-42252063D01*
X19031960Y-42232219D01*
X19031954Y-42232219D01*
X18906656Y-42252063D01*
X18906655Y-42252063D01*
X18831294Y-42290462D01*
X18793615Y-42309661D01*
X18793614Y-42309662D01*
X18793609Y-42309665D01*
X18703911Y-42399363D01*
X18703908Y-42399368D01*
X18703907Y-42399369D01*
X18696553Y-42413802D01*
X18646309Y-42512409D01*
X18646309Y-42512410D01*
X18626465Y-42637707D01*
X18626465Y-42637714D01*
X4271768Y-42637714D01*
X4343350Y-42542093D01*
X4343354Y-42542086D01*
X4393596Y-42407379D01*
X4393598Y-42407372D01*
X4399999Y-42347844D01*
X4400000Y-42347827D01*
X4400000Y-42050000D01*
X3614483Y-42050000D01*
X3655076Y-42001623D01*
X16220702Y-42001623D01*
X16240546Y-42126920D01*
X16240546Y-42126921D01*
X16240548Y-42126924D01*
X16298144Y-42239962D01*
X16298146Y-42239964D01*
X16298148Y-42239967D01*
X16387846Y-42329665D01*
X16387848Y-42329666D01*
X16387852Y-42329670D01*
X16500890Y-42387266D01*
X16500891Y-42387266D01*
X16500893Y-42387267D01*
X16626191Y-42407112D01*
X16626194Y-42407112D01*
X16626197Y-42407112D01*
X16751494Y-42387267D01*
X16751495Y-42387267D01*
X16751496Y-42387266D01*
X16751498Y-42387266D01*
X16864536Y-42329670D01*
X16954244Y-42239962D01*
X17011840Y-42126924D01*
X17011840Y-42126922D01*
X17011841Y-42126921D01*
X17011841Y-42126920D01*
X17031686Y-42001623D01*
X17031686Y-42001616D01*
X17011841Y-41876319D01*
X17011841Y-41876318D01*
X17002154Y-41857306D01*
X16971332Y-41796814D01*
X21359851Y-41796814D01*
X21379695Y-41922111D01*
X21379695Y-41922112D01*
X21379697Y-41922115D01*
X21437293Y-42035153D01*
X21437295Y-42035155D01*
X21437297Y-42035158D01*
X21526995Y-42124856D01*
X21526997Y-42124857D01*
X21527001Y-42124861D01*
X21640039Y-42182457D01*
X21640040Y-42182457D01*
X21640042Y-42182458D01*
X21765340Y-42202303D01*
X21765343Y-42202303D01*
X21765346Y-42202303D01*
X21890643Y-42182458D01*
X21890644Y-42182458D01*
X21890645Y-42182457D01*
X21890647Y-42182457D01*
X22003685Y-42124861D01*
X22093393Y-42035153D01*
X22150989Y-41922115D01*
X22150989Y-41922113D01*
X22150990Y-41922112D01*
X22150990Y-41922111D01*
X22170835Y-41796814D01*
X22170835Y-41796807D01*
X22150990Y-41671510D01*
X22150990Y-41671509D01*
X22122692Y-41615972D01*
X22093393Y-41558469D01*
X22093389Y-41558465D01*
X22093388Y-41558463D01*
X22003690Y-41468765D01*
X22003687Y-41468763D01*
X22003685Y-41468761D01*
X21890647Y-41411165D01*
X21890646Y-41411164D01*
X21890643Y-41411163D01*
X21765346Y-41391319D01*
X21765340Y-41391319D01*
X21640042Y-41411163D01*
X21640041Y-41411163D01*
X21564680Y-41449562D01*
X21527001Y-41468761D01*
X21527000Y-41468762D01*
X21526995Y-41468765D01*
X21437297Y-41558463D01*
X21437294Y-41558468D01*
X21379695Y-41671509D01*
X21379695Y-41671510D01*
X21359851Y-41796807D01*
X21359851Y-41796814D01*
X16971332Y-41796814D01*
X16954244Y-41763278D01*
X16954240Y-41763274D01*
X16954239Y-41763272D01*
X16864541Y-41673574D01*
X16864538Y-41673572D01*
X16864536Y-41673570D01*
X16751498Y-41615974D01*
X16751497Y-41615973D01*
X16751494Y-41615972D01*
X16626197Y-41596128D01*
X16626191Y-41596128D01*
X16500893Y-41615972D01*
X16500892Y-41615972D01*
X16454537Y-41639592D01*
X16387852Y-41673570D01*
X16387851Y-41673571D01*
X16387846Y-41673574D01*
X16298148Y-41763272D01*
X16298145Y-41763277D01*
X16298144Y-41763278D01*
X16278945Y-41800957D01*
X16240546Y-41876318D01*
X16240546Y-41876319D01*
X16220702Y-42001616D01*
X16220702Y-42001623D01*
X3655076Y-42001623D01*
X3685801Y-41965007D01*
X3725000Y-41857306D01*
X3725000Y-41742694D01*
X3685801Y-41634993D01*
X3612129Y-41547195D01*
X3512871Y-41489888D01*
X3428436Y-41475000D01*
X3371564Y-41475000D01*
X3287129Y-41489888D01*
X3187871Y-41547195D01*
X3114199Y-41634993D01*
X3075000Y-41742694D01*
X3075000Y-41857306D01*
X3114199Y-41965007D01*
X3185517Y-42050000D01*
X2400000Y-42050000D01*
X2400000Y-42347844D01*
X500500Y-42347844D01*
X500500Y-41550000D01*
X2400000Y-41550000D01*
X3150000Y-41550000D01*
X3150000Y-40800000D01*
X3650000Y-40800000D01*
X3650000Y-41550000D01*
X4400000Y-41550000D01*
X4400000Y-41311550D01*
X18942862Y-41311550D01*
X18962706Y-41436847D01*
X18962706Y-41436848D01*
X18978969Y-41468765D01*
X19020304Y-41549889D01*
X19020306Y-41549891D01*
X19020308Y-41549894D01*
X19110006Y-41639592D01*
X19110008Y-41639593D01*
X19110012Y-41639597D01*
X19223050Y-41697193D01*
X19223051Y-41697193D01*
X19223053Y-41697194D01*
X19348351Y-41717039D01*
X19348354Y-41717039D01*
X19348357Y-41717039D01*
X19473654Y-41697194D01*
X19473655Y-41697194D01*
X19473656Y-41697193D01*
X19473658Y-41697193D01*
X19586696Y-41639597D01*
X19676404Y-41549889D01*
X19734000Y-41436851D01*
X19734000Y-41436849D01*
X19734001Y-41436848D01*
X19734001Y-41436847D01*
X19753846Y-41311550D01*
X19753846Y-41311543D01*
X19734001Y-41186246D01*
X19734001Y-41186245D01*
X19734000Y-41186243D01*
X19676404Y-41073205D01*
X19676400Y-41073201D01*
X19676399Y-41073199D01*
X19586701Y-40983501D01*
X19586698Y-40983499D01*
X19586696Y-40983497D01*
X19473658Y-40925901D01*
X19473657Y-40925900D01*
X19473654Y-40925899D01*
X19348357Y-40906055D01*
X19348351Y-40906055D01*
X19223053Y-40925899D01*
X19223052Y-40925899D01*
X19163940Y-40956019D01*
X19110012Y-40983497D01*
X19110011Y-40983498D01*
X19110006Y-40983501D01*
X19020308Y-41073199D01*
X19020305Y-41073204D01*
X18962706Y-41186245D01*
X18962706Y-41186246D01*
X18942862Y-41311543D01*
X18942862Y-41311550D01*
X4400000Y-41311550D01*
X4400000Y-41252172D01*
X4399999Y-41252155D01*
X4393598Y-41192627D01*
X4393596Y-41192620D01*
X4343354Y-41057913D01*
X4343350Y-41057906D01*
X4257190Y-40942812D01*
X4257187Y-40942809D01*
X4142093Y-40856649D01*
X4142086Y-40856645D01*
X4007379Y-40806403D01*
X4007372Y-40806401D01*
X3947844Y-40800000D01*
X3650000Y-40800000D01*
X3150000Y-40800000D01*
X2852155Y-40800000D01*
X2792627Y-40806401D01*
X2792620Y-40806403D01*
X2657913Y-40856645D01*
X2657906Y-40856649D01*
X2542812Y-40942809D01*
X2542809Y-40942812D01*
X2456649Y-41057906D01*
X2456645Y-41057913D01*
X2406403Y-41192620D01*
X2406401Y-41192627D01*
X2400000Y-41252155D01*
X2400000Y-41550000D01*
X500500Y-41550000D01*
X500500Y-40523058D01*
X15743826Y-40523058D01*
X15763670Y-40648355D01*
X15763670Y-40648356D01*
X15763672Y-40648359D01*
X15821268Y-40761397D01*
X15821270Y-40761399D01*
X15821272Y-40761402D01*
X15910970Y-40851100D01*
X15910972Y-40851101D01*
X15910976Y-40851105D01*
X16024014Y-40908701D01*
X16024015Y-40908701D01*
X16024017Y-40908702D01*
X16149315Y-40928547D01*
X16149318Y-40928547D01*
X16149321Y-40928547D01*
X16274618Y-40908702D01*
X16274619Y-40908702D01*
X16274620Y-40908701D01*
X16274622Y-40908701D01*
X16387660Y-40851105D01*
X16477368Y-40761397D01*
X16534964Y-40648359D01*
X16534964Y-40648357D01*
X16534965Y-40648356D01*
X16534965Y-40648355D01*
X16551129Y-40546302D01*
X27719196Y-40546302D01*
X27740279Y-40679421D01*
X27740280Y-40679424D01*
X27740281Y-40679426D01*
X27801472Y-40799520D01*
X27801473Y-40799521D01*
X27801476Y-40799525D01*
X27896774Y-40894823D01*
X27896778Y-40894826D01*
X27896780Y-40894828D01*
X28016874Y-40956019D01*
X28016876Y-40956019D01*
X28016878Y-40956020D01*
X28149998Y-40977104D01*
X28150000Y-40977104D01*
X28150001Y-40977104D01*
X28162125Y-40975183D01*
X28169812Y-40973966D01*
X28239106Y-40982920D01*
X28292558Y-41027916D01*
X28313198Y-41094667D01*
X28311685Y-41115835D01*
X28306497Y-41148597D01*
X28306496Y-41148601D01*
X28306496Y-41148602D01*
X28327579Y-41281721D01*
X28327580Y-41281724D01*
X28327581Y-41281726D01*
X28388772Y-41401820D01*
X28388773Y-41401821D01*
X28388776Y-41401825D01*
X28484074Y-41497123D01*
X28484078Y-41497126D01*
X28484080Y-41497128D01*
X28604174Y-41558319D01*
X28604176Y-41558319D01*
X28604178Y-41558320D01*
X28737298Y-41579404D01*
X28737300Y-41579404D01*
X28737302Y-41579404D01*
X28870421Y-41558320D01*
X28870421Y-41558319D01*
X28870426Y-41558319D01*
X28990520Y-41497128D01*
X29085828Y-41401820D01*
X29147019Y-41281726D01*
X29161132Y-41192620D01*
X29168104Y-41148602D01*
X29168104Y-41148597D01*
X29147020Y-41015478D01*
X29147019Y-41015476D01*
X29147019Y-41015474D01*
X29085828Y-40895380D01*
X29085826Y-40895378D01*
X29085823Y-40895374D01*
X28990525Y-40800076D01*
X28990521Y-40800073D01*
X28990520Y-40800072D01*
X28870426Y-40738881D01*
X28870424Y-40738880D01*
X28870421Y-40738879D01*
X28737302Y-40717796D01*
X28737298Y-40717796D01*
X28717482Y-40720934D01*
X28648189Y-40711977D01*
X28594738Y-40666979D01*
X28574101Y-40600227D01*
X28575615Y-40579061D01*
X28580804Y-40546300D01*
X28580804Y-40546297D01*
X28559720Y-40413178D01*
X28559719Y-40413176D01*
X28559719Y-40413174D01*
X28498528Y-40293080D01*
X28498526Y-40293078D01*
X28498523Y-40293074D01*
X28403225Y-40197776D01*
X28403221Y-40197773D01*
X28403220Y-40197772D01*
X28283126Y-40136581D01*
X28283124Y-40136580D01*
X28283121Y-40136579D01*
X28150002Y-40115496D01*
X28149998Y-40115496D01*
X28016878Y-40136579D01*
X27896778Y-40197773D01*
X27896774Y-40197776D01*
X27801476Y-40293074D01*
X27801473Y-40293078D01*
X27740279Y-40413178D01*
X27719196Y-40546297D01*
X27719196Y-40546302D01*
X16551129Y-40546302D01*
X16554810Y-40523058D01*
X16554810Y-40523051D01*
X16534965Y-40397754D01*
X16534965Y-40397753D01*
X16531443Y-40390841D01*
X16477368Y-40284713D01*
X16477364Y-40284709D01*
X16477363Y-40284707D01*
X16387665Y-40195009D01*
X16387662Y-40195007D01*
X16387660Y-40195005D01*
X16274622Y-40137409D01*
X16274621Y-40137408D01*
X16274618Y-40137407D01*
X16149321Y-40117563D01*
X16149315Y-40117563D01*
X16024017Y-40137407D01*
X16024016Y-40137407D01*
X15948655Y-40175806D01*
X15910976Y-40195005D01*
X15910975Y-40195006D01*
X15910970Y-40195009D01*
X15821272Y-40284707D01*
X15821269Y-40284712D01*
X15763670Y-40397753D01*
X15763670Y-40397754D01*
X15743826Y-40523051D01*
X15743826Y-40523058D01*
X500500Y-40523058D01*
X500500Y-40000003D01*
X17914508Y-40000003D01*
X17934352Y-40125300D01*
X17934352Y-40125301D01*
X17934354Y-40125304D01*
X17991950Y-40238342D01*
X17991952Y-40238344D01*
X17991954Y-40238347D01*
X18081652Y-40328045D01*
X18081654Y-40328046D01*
X18081658Y-40328050D01*
X18194696Y-40385646D01*
X18194697Y-40385646D01*
X18194699Y-40385647D01*
X18319997Y-40405492D01*
X18320000Y-40405492D01*
X18320003Y-40405492D01*
X18445300Y-40385647D01*
X18445301Y-40385647D01*
X18445302Y-40385646D01*
X18445304Y-40385646D01*
X18558342Y-40328050D01*
X18648050Y-40238342D01*
X18705646Y-40125304D01*
X18705646Y-40125302D01*
X18705647Y-40125301D01*
X18705647Y-40125300D01*
X18725492Y-40000003D01*
X18725492Y-39999996D01*
X18717719Y-39950921D01*
X20135998Y-39950921D01*
X20155842Y-40076218D01*
X20155842Y-40076219D01*
X20173386Y-40110650D01*
X20213440Y-40189260D01*
X20213442Y-40189262D01*
X20213444Y-40189265D01*
X20303142Y-40278963D01*
X20303144Y-40278964D01*
X20303148Y-40278968D01*
X20416186Y-40336564D01*
X20416187Y-40336564D01*
X20416189Y-40336565D01*
X20541487Y-40356410D01*
X20541490Y-40356410D01*
X20541493Y-40356410D01*
X20666790Y-40336565D01*
X20666791Y-40336565D01*
X20666792Y-40336564D01*
X20666794Y-40336564D01*
X20779832Y-40278968D01*
X20869540Y-40189260D01*
X20927136Y-40076222D01*
X20927136Y-40076220D01*
X20927137Y-40076219D01*
X20927137Y-40076218D01*
X20941529Y-39985352D01*
X22405700Y-39985352D01*
X22425544Y-40110649D01*
X22425544Y-40110650D01*
X22433011Y-40125304D01*
X22483142Y-40223691D01*
X22483144Y-40223693D01*
X22483146Y-40223696D01*
X22572844Y-40313394D01*
X22572846Y-40313395D01*
X22572850Y-40313399D01*
X22685888Y-40370995D01*
X22685889Y-40370995D01*
X22685891Y-40370996D01*
X22811189Y-40390841D01*
X22811192Y-40390841D01*
X22811195Y-40390841D01*
X22936492Y-40370996D01*
X22936493Y-40370996D01*
X22936494Y-40370995D01*
X22936496Y-40370995D01*
X23049534Y-40313399D01*
X23139242Y-40223691D01*
X23196838Y-40110653D01*
X23196838Y-40110651D01*
X23196839Y-40110650D01*
X23196839Y-40110649D01*
X23216684Y-39985352D01*
X23216684Y-39985345D01*
X23196839Y-39860048D01*
X23196839Y-39860047D01*
X23179294Y-39825614D01*
X23139242Y-39747007D01*
X23139238Y-39747003D01*
X23139237Y-39747001D01*
X23049539Y-39657303D01*
X23049536Y-39657301D01*
X23049534Y-39657299D01*
X22936496Y-39599703D01*
X22936495Y-39599702D01*
X22936492Y-39599701D01*
X22811195Y-39579857D01*
X22811189Y-39579857D01*
X22685891Y-39599701D01*
X22685890Y-39599701D01*
X22640424Y-39622868D01*
X22572850Y-39657299D01*
X22572849Y-39657300D01*
X22572844Y-39657303D01*
X22483146Y-39747001D01*
X22483143Y-39747006D01*
X22483142Y-39747007D01*
X22475677Y-39761658D01*
X22425544Y-39860047D01*
X22425544Y-39860048D01*
X22405700Y-39985345D01*
X22405700Y-39985352D01*
X20941529Y-39985352D01*
X20946982Y-39950921D01*
X20946982Y-39950914D01*
X20927137Y-39825617D01*
X20927137Y-39825616D01*
X20927136Y-39825614D01*
X20869540Y-39712576D01*
X20869536Y-39712572D01*
X20869535Y-39712570D01*
X20779837Y-39622872D01*
X20779834Y-39622870D01*
X20779832Y-39622868D01*
X20666794Y-39565272D01*
X20666793Y-39565271D01*
X20666790Y-39565270D01*
X20541493Y-39545426D01*
X20541487Y-39545426D01*
X20416189Y-39565270D01*
X20416188Y-39565270D01*
X20340827Y-39603669D01*
X20303148Y-39622868D01*
X20303147Y-39622869D01*
X20303142Y-39622872D01*
X20213444Y-39712570D01*
X20213441Y-39712575D01*
X20155842Y-39825616D01*
X20155842Y-39825617D01*
X20135998Y-39950914D01*
X20135998Y-39950921D01*
X18717719Y-39950921D01*
X18705647Y-39874699D01*
X18705647Y-39874698D01*
X18698181Y-39860045D01*
X18648050Y-39761658D01*
X18648046Y-39761654D01*
X18648045Y-39761652D01*
X18558347Y-39671954D01*
X18558344Y-39671952D01*
X18558342Y-39671950D01*
X18445304Y-39614354D01*
X18445303Y-39614353D01*
X18445300Y-39614352D01*
X18320003Y-39594508D01*
X18319997Y-39594508D01*
X18194699Y-39614352D01*
X18194698Y-39614352D01*
X18119337Y-39652751D01*
X18081658Y-39671950D01*
X18081657Y-39671951D01*
X18081652Y-39671954D01*
X17991954Y-39761652D01*
X17991951Y-39761657D01*
X17934352Y-39874698D01*
X17934352Y-39874699D01*
X17914508Y-39999996D01*
X17914508Y-40000003D01*
X500500Y-40000003D01*
X500500Y-38600003D01*
X16514508Y-38600003D01*
X16534352Y-38725300D01*
X16534352Y-38725301D01*
X16534354Y-38725304D01*
X16591950Y-38838342D01*
X16591952Y-38838344D01*
X16591954Y-38838347D01*
X16681652Y-38928045D01*
X16681654Y-38928046D01*
X16681658Y-38928050D01*
X16794696Y-38985646D01*
X16794697Y-38985646D01*
X16794699Y-38985647D01*
X16919997Y-39005492D01*
X16920000Y-39005492D01*
X16920003Y-39005492D01*
X17045300Y-38985647D01*
X17045301Y-38985647D01*
X17045302Y-38985646D01*
X17045304Y-38985646D01*
X17158342Y-38928050D01*
X17248050Y-38838342D01*
X17305646Y-38725304D01*
X17305646Y-38725302D01*
X17305647Y-38725301D01*
X17305647Y-38725300D01*
X17325492Y-38600003D01*
X21114508Y-38600003D01*
X21134352Y-38725300D01*
X21134352Y-38725301D01*
X21134354Y-38725304D01*
X21191950Y-38838342D01*
X21191952Y-38838344D01*
X21191954Y-38838347D01*
X21281652Y-38928045D01*
X21281654Y-38928046D01*
X21281658Y-38928050D01*
X21394696Y-38985646D01*
X21394697Y-38985646D01*
X21394699Y-38985647D01*
X21519997Y-39005492D01*
X21520000Y-39005492D01*
X21520003Y-39005492D01*
X21645300Y-38985647D01*
X21645301Y-38985647D01*
X21645302Y-38985646D01*
X21645304Y-38985646D01*
X21758342Y-38928050D01*
X21848050Y-38838342D01*
X21905646Y-38725304D01*
X21905646Y-38725302D01*
X21905647Y-38725301D01*
X21905647Y-38725300D01*
X21925492Y-38600003D01*
X21925492Y-38599996D01*
X21905647Y-38474699D01*
X21905647Y-38474698D01*
X21905646Y-38474696D01*
X21848050Y-38361658D01*
X21848046Y-38361654D01*
X21848045Y-38361652D01*
X21758347Y-38271954D01*
X21758344Y-38271952D01*
X21758342Y-38271950D01*
X21645304Y-38214354D01*
X21645303Y-38214353D01*
X21645300Y-38214352D01*
X21520003Y-38194508D01*
X21519997Y-38194508D01*
X21394699Y-38214352D01*
X21394698Y-38214352D01*
X21319337Y-38252751D01*
X21281658Y-38271950D01*
X21281657Y-38271951D01*
X21281652Y-38271954D01*
X21191954Y-38361652D01*
X21191951Y-38361657D01*
X21134352Y-38474698D01*
X21134352Y-38474699D01*
X21114508Y-38599996D01*
X21114508Y-38600003D01*
X17325492Y-38600003D01*
X17325492Y-38599996D01*
X17305647Y-38474699D01*
X17305647Y-38474698D01*
X17305646Y-38474696D01*
X17248050Y-38361658D01*
X17248046Y-38361654D01*
X17248045Y-38361652D01*
X17158347Y-38271954D01*
X17158344Y-38271952D01*
X17158342Y-38271950D01*
X17045304Y-38214354D01*
X17045303Y-38214353D01*
X17045300Y-38214352D01*
X16920003Y-38194508D01*
X16919997Y-38194508D01*
X16794699Y-38214352D01*
X16794698Y-38214352D01*
X16719337Y-38252751D01*
X16681658Y-38271950D01*
X16681657Y-38271951D01*
X16681652Y-38271954D01*
X16591954Y-38361652D01*
X16591951Y-38361657D01*
X16534352Y-38474698D01*
X16534352Y-38474699D01*
X16514508Y-38599996D01*
X16514508Y-38600003D01*
X500500Y-38600003D01*
X500500Y-37252305D01*
X15346685Y-37252305D01*
X15366529Y-37377602D01*
X15366529Y-37377603D01*
X15366531Y-37377606D01*
X15424127Y-37490644D01*
X15424129Y-37490646D01*
X15424131Y-37490649D01*
X15513829Y-37580347D01*
X15513831Y-37580348D01*
X15513835Y-37580352D01*
X15626873Y-37637948D01*
X15626874Y-37637948D01*
X15626876Y-37637949D01*
X15752174Y-37657794D01*
X15752177Y-37657794D01*
X15752180Y-37657794D01*
X15877477Y-37637949D01*
X15877478Y-37637949D01*
X15877479Y-37637948D01*
X15877481Y-37637948D01*
X15990519Y-37580352D01*
X16080227Y-37490644D01*
X16137823Y-37377606D01*
X16137823Y-37377604D01*
X16137824Y-37377603D01*
X16137824Y-37377602D01*
X16157669Y-37252305D01*
X16157669Y-37252298D01*
X16149386Y-37200003D01*
X17914508Y-37200003D01*
X17934352Y-37325300D01*
X17934352Y-37325301D01*
X17952805Y-37361517D01*
X17991950Y-37438342D01*
X17991952Y-37438344D01*
X17991954Y-37438347D01*
X18081652Y-37528045D01*
X18081654Y-37528046D01*
X18081658Y-37528050D01*
X18194696Y-37585646D01*
X18194697Y-37585646D01*
X18194699Y-37585647D01*
X18319997Y-37605492D01*
X18320000Y-37605492D01*
X18320003Y-37605492D01*
X18445300Y-37585647D01*
X18445301Y-37585647D01*
X18445302Y-37585646D01*
X18445304Y-37585646D01*
X18558342Y-37528050D01*
X18648050Y-37438342D01*
X18705646Y-37325304D01*
X18705646Y-37325302D01*
X18705647Y-37325301D01*
X18705647Y-37325300D01*
X18717718Y-37249084D01*
X20135998Y-37249084D01*
X20155842Y-37374381D01*
X20155842Y-37374382D01*
X20157485Y-37377606D01*
X20213440Y-37487423D01*
X20213442Y-37487425D01*
X20213444Y-37487428D01*
X20303142Y-37577126D01*
X20303144Y-37577127D01*
X20303148Y-37577131D01*
X20416186Y-37634727D01*
X20416187Y-37634727D01*
X20416189Y-37634728D01*
X20541487Y-37654573D01*
X20541490Y-37654573D01*
X20541493Y-37654573D01*
X20666790Y-37634728D01*
X20666791Y-37634728D01*
X20666792Y-37634727D01*
X20666794Y-37634727D01*
X20779832Y-37577131D01*
X20869540Y-37487423D01*
X20927136Y-37374385D01*
X20927136Y-37374383D01*
X20927137Y-37374382D01*
X20927137Y-37374381D01*
X20946982Y-37249084D01*
X20946982Y-37249077D01*
X20941530Y-37214653D01*
X22405700Y-37214653D01*
X22425544Y-37339950D01*
X22425544Y-37339951D01*
X22443088Y-37374382D01*
X22483142Y-37452992D01*
X22483144Y-37452994D01*
X22483146Y-37452997D01*
X22572844Y-37542695D01*
X22572846Y-37542696D01*
X22572850Y-37542700D01*
X22685888Y-37600296D01*
X22685889Y-37600296D01*
X22685891Y-37600297D01*
X22811189Y-37620142D01*
X22811192Y-37620142D01*
X22811195Y-37620142D01*
X22936492Y-37600297D01*
X22936493Y-37600297D01*
X22936494Y-37600296D01*
X22936496Y-37600296D01*
X23049534Y-37542700D01*
X23139242Y-37452992D01*
X23196838Y-37339954D01*
X23196838Y-37339952D01*
X23196839Y-37339951D01*
X23196839Y-37339950D01*
X23216684Y-37214653D01*
X23216684Y-37214646D01*
X23196839Y-37089349D01*
X23196839Y-37089348D01*
X23189373Y-37074696D01*
X23139242Y-36976308D01*
X23139238Y-36976304D01*
X23139237Y-36976302D01*
X23049539Y-36886604D01*
X23049536Y-36886602D01*
X23049534Y-36886600D01*
X22936496Y-36829004D01*
X22936495Y-36829003D01*
X22936492Y-36829002D01*
X22811195Y-36809158D01*
X22811189Y-36809158D01*
X22685891Y-36829002D01*
X22685890Y-36829002D01*
X22611996Y-36866654D01*
X22572850Y-36886600D01*
X22572849Y-36886601D01*
X22572844Y-36886604D01*
X22483146Y-36976302D01*
X22483143Y-36976307D01*
X22425544Y-37089348D01*
X22425544Y-37089349D01*
X22405700Y-37214646D01*
X22405700Y-37214653D01*
X20941530Y-37214653D01*
X20927137Y-37123780D01*
X20927137Y-37123779D01*
X20902129Y-37074699D01*
X20869540Y-37010739D01*
X20869536Y-37010735D01*
X20869535Y-37010733D01*
X20779837Y-36921035D01*
X20779834Y-36921033D01*
X20779832Y-36921031D01*
X20666794Y-36863435D01*
X20666793Y-36863434D01*
X20666790Y-36863433D01*
X20541493Y-36843589D01*
X20541487Y-36843589D01*
X20416189Y-36863433D01*
X20416188Y-36863433D01*
X20370722Y-36886600D01*
X20303148Y-36921031D01*
X20303147Y-36921032D01*
X20303142Y-36921035D01*
X20213444Y-37010733D01*
X20213441Y-37010738D01*
X20213440Y-37010739D01*
X20211799Y-37013960D01*
X20155842Y-37123779D01*
X20155842Y-37123780D01*
X20135998Y-37249077D01*
X20135998Y-37249084D01*
X18717718Y-37249084D01*
X18725492Y-37200003D01*
X18725492Y-37199996D01*
X18705647Y-37074699D01*
X18705647Y-37074698D01*
X18674699Y-37013960D01*
X18648050Y-36961658D01*
X18648046Y-36961654D01*
X18648045Y-36961652D01*
X18558347Y-36871954D01*
X18558344Y-36871952D01*
X18558342Y-36871950D01*
X18445304Y-36814354D01*
X18445303Y-36814353D01*
X18445300Y-36814352D01*
X18320003Y-36794508D01*
X18319997Y-36794508D01*
X18194699Y-36814352D01*
X18194698Y-36814352D01*
X18137319Y-36843589D01*
X18081658Y-36871950D01*
X18081657Y-36871951D01*
X18081652Y-36871954D01*
X17991954Y-36961652D01*
X17991951Y-36961657D01*
X17991950Y-36961658D01*
X17972751Y-36999337D01*
X17934352Y-37074698D01*
X17934352Y-37074699D01*
X17914508Y-37199996D01*
X17914508Y-37200003D01*
X16149386Y-37200003D01*
X16137824Y-37127001D01*
X16137824Y-37127000D01*
X16136182Y-37123777D01*
X16080227Y-37013960D01*
X16080223Y-37013956D01*
X16080222Y-37013954D01*
X15990524Y-36924256D01*
X15990521Y-36924254D01*
X15990519Y-36924252D01*
X15877481Y-36866656D01*
X15877480Y-36866655D01*
X15877477Y-36866654D01*
X15752180Y-36846810D01*
X15752174Y-36846810D01*
X15626876Y-36866654D01*
X15626875Y-36866654D01*
X15551514Y-36905053D01*
X15513835Y-36924252D01*
X15513834Y-36924253D01*
X15513829Y-36924256D01*
X15424131Y-37013954D01*
X15424128Y-37013959D01*
X15366529Y-37127000D01*
X15366529Y-37127001D01*
X15346685Y-37252298D01*
X15346685Y-37252305D01*
X500500Y-37252305D01*
X500500Y-35682263D01*
X14621060Y-35682263D01*
X14640904Y-35807560D01*
X14640904Y-35807561D01*
X14640906Y-35807564D01*
X14698502Y-35920602D01*
X14698504Y-35920604D01*
X14698506Y-35920607D01*
X14788204Y-36010305D01*
X14788206Y-36010306D01*
X14788210Y-36010310D01*
X14901248Y-36067906D01*
X14901249Y-36067906D01*
X14901251Y-36067907D01*
X15026549Y-36087752D01*
X15026552Y-36087752D01*
X15026555Y-36087752D01*
X15151852Y-36067907D01*
X15151853Y-36067907D01*
X15151854Y-36067906D01*
X15151856Y-36067906D01*
X15264894Y-36010310D01*
X15354602Y-35920602D01*
X15370982Y-35888455D01*
X16886153Y-35888455D01*
X16905997Y-36013752D01*
X16905997Y-36013753D01*
X16911389Y-36024335D01*
X16963595Y-36126794D01*
X16963597Y-36126796D01*
X16963599Y-36126799D01*
X17053297Y-36216497D01*
X17053299Y-36216498D01*
X17053303Y-36216502D01*
X17166341Y-36274098D01*
X17166342Y-36274098D01*
X17166344Y-36274099D01*
X17291642Y-36293944D01*
X17291645Y-36293944D01*
X17291648Y-36293944D01*
X17416945Y-36274099D01*
X17416946Y-36274099D01*
X17416947Y-36274098D01*
X17416949Y-36274098D01*
X17529987Y-36216502D01*
X17619695Y-36126794D01*
X17677291Y-36013756D01*
X17677291Y-36013754D01*
X17677292Y-36013753D01*
X17677292Y-36013752D01*
X17697137Y-35888455D01*
X17697137Y-35888448D01*
X17677292Y-35763151D01*
X17677292Y-35763150D01*
X17653727Y-35716902D01*
X19302935Y-35716902D01*
X19322779Y-35842199D01*
X19322779Y-35842200D01*
X19322781Y-35842203D01*
X19380377Y-35955241D01*
X19380379Y-35955243D01*
X19380381Y-35955246D01*
X19470079Y-36044944D01*
X19470081Y-36044945D01*
X19470085Y-36044949D01*
X19583123Y-36102545D01*
X19583124Y-36102545D01*
X19583126Y-36102546D01*
X19708424Y-36122391D01*
X19708427Y-36122391D01*
X19708430Y-36122391D01*
X19833727Y-36102546D01*
X19833728Y-36102546D01*
X19833729Y-36102545D01*
X19833731Y-36102545D01*
X19946769Y-36044949D01*
X20036477Y-35955241D01*
X20065116Y-35899034D01*
X22474636Y-35899034D01*
X22494480Y-36024331D01*
X22494480Y-36024332D01*
X22494482Y-36024335D01*
X22552078Y-36137373D01*
X22552080Y-36137375D01*
X22552082Y-36137378D01*
X22641780Y-36227076D01*
X22641782Y-36227077D01*
X22641786Y-36227081D01*
X22754824Y-36284677D01*
X22754825Y-36284677D01*
X22754827Y-36284678D01*
X22880125Y-36304523D01*
X22880128Y-36304523D01*
X22880131Y-36304523D01*
X23005428Y-36284678D01*
X23005429Y-36284678D01*
X23005430Y-36284677D01*
X23005432Y-36284677D01*
X23118470Y-36227081D01*
X23208178Y-36137373D01*
X23265774Y-36024335D01*
X23265774Y-36024333D01*
X23265775Y-36024332D01*
X23265775Y-36024331D01*
X23285620Y-35899034D01*
X23285620Y-35899027D01*
X23265775Y-35773730D01*
X23265775Y-35773729D01*
X23260384Y-35763148D01*
X23208178Y-35660689D01*
X23208174Y-35660685D01*
X23208173Y-35660683D01*
X23118475Y-35570985D01*
X23118472Y-35570983D01*
X23118470Y-35570981D01*
X23005432Y-35513385D01*
X23005431Y-35513384D01*
X23005428Y-35513383D01*
X22880131Y-35493539D01*
X22880125Y-35493539D01*
X22754827Y-35513383D01*
X22754826Y-35513383D01*
X22679465Y-35551782D01*
X22641786Y-35570981D01*
X22641785Y-35570982D01*
X22641780Y-35570985D01*
X22552082Y-35660683D01*
X22552079Y-35660688D01*
X22552078Y-35660689D01*
X22532879Y-35698368D01*
X22494480Y-35773729D01*
X22494480Y-35773730D01*
X22474636Y-35899027D01*
X22474636Y-35899034D01*
X20065116Y-35899034D01*
X20094073Y-35842203D01*
X20094073Y-35842201D01*
X20094074Y-35842200D01*
X20094074Y-35842199D01*
X20113919Y-35716902D01*
X20113919Y-35716895D01*
X20094074Y-35591598D01*
X20094074Y-35591597D01*
X20094073Y-35591595D01*
X20036477Y-35478557D01*
X20036473Y-35478553D01*
X20036472Y-35478551D01*
X19946774Y-35388853D01*
X19946771Y-35388851D01*
X19946769Y-35388849D01*
X19833731Y-35331253D01*
X19833730Y-35331252D01*
X19833727Y-35331251D01*
X19708430Y-35311407D01*
X19708424Y-35311407D01*
X19583126Y-35331251D01*
X19583125Y-35331251D01*
X19507764Y-35369650D01*
X19470085Y-35388849D01*
X19470084Y-35388850D01*
X19470079Y-35388853D01*
X19380381Y-35478551D01*
X19380378Y-35478556D01*
X19380377Y-35478557D01*
X19362632Y-35513383D01*
X19322779Y-35591597D01*
X19322779Y-35591598D01*
X19302935Y-35716895D01*
X19302935Y-35716902D01*
X17653727Y-35716902D01*
X17619695Y-35650110D01*
X17619691Y-35650106D01*
X17619690Y-35650104D01*
X17529992Y-35560406D01*
X17529989Y-35560404D01*
X17529987Y-35560402D01*
X17416949Y-35502806D01*
X17416948Y-35502805D01*
X17416945Y-35502804D01*
X17291648Y-35482960D01*
X17291642Y-35482960D01*
X17166344Y-35502804D01*
X17166343Y-35502804D01*
X17090982Y-35541203D01*
X17053303Y-35560402D01*
X17053302Y-35560403D01*
X17053297Y-35560406D01*
X16963599Y-35650104D01*
X16963596Y-35650109D01*
X16963595Y-35650110D01*
X16958205Y-35660689D01*
X16905997Y-35763150D01*
X16905997Y-35763151D01*
X16886153Y-35888448D01*
X16886153Y-35888455D01*
X15370982Y-35888455D01*
X15412198Y-35807564D01*
X15412198Y-35807562D01*
X15412199Y-35807561D01*
X15412199Y-35807560D01*
X15432044Y-35682263D01*
X15432044Y-35682256D01*
X15412199Y-35556959D01*
X15412199Y-35556958D01*
X15389996Y-35513383D01*
X15354602Y-35443918D01*
X15354598Y-35443914D01*
X15354597Y-35443912D01*
X15264899Y-35354214D01*
X15264896Y-35354212D01*
X15264894Y-35354210D01*
X15151856Y-35296614D01*
X15151855Y-35296613D01*
X15151852Y-35296612D01*
X15026555Y-35276768D01*
X15026549Y-35276768D01*
X14901251Y-35296612D01*
X14901250Y-35296612D01*
X14833269Y-35331251D01*
X14788210Y-35354210D01*
X14788209Y-35354211D01*
X14788204Y-35354214D01*
X14698506Y-35443912D01*
X14698503Y-35443917D01*
X14698502Y-35443918D01*
X14679303Y-35481597D01*
X14640904Y-35556958D01*
X14640904Y-35556959D01*
X14621060Y-35682256D01*
X14621060Y-35682263D01*
X500500Y-35682263D01*
X500500Y-34687181D01*
X520185Y-34620142D01*
X572989Y-34574387D01*
X605098Y-34564708D01*
X661226Y-34555819D01*
X781320Y-34494628D01*
X876628Y-34399320D01*
X937819Y-34279226D01*
X944091Y-34239625D01*
X958904Y-34146102D01*
X958904Y-34146097D01*
X937820Y-34012978D01*
X937819Y-34012976D01*
X937819Y-34012974D01*
X933784Y-34005055D01*
X1219500Y-34005055D01*
X1260210Y-34170226D01*
X1339263Y-34320849D01*
X1339266Y-34320852D01*
X1452071Y-34448183D01*
X1519355Y-34494626D01*
X1592068Y-34544817D01*
X1592069Y-34544817D01*
X1592070Y-34544818D01*
X1751128Y-34605140D01*
X1827028Y-34614356D01*
X1877626Y-34620500D01*
X1877628Y-34620500D01*
X3062374Y-34620500D01*
X3104538Y-34615380D01*
X3188872Y-34605140D01*
X3347930Y-34544818D01*
X3487929Y-34448183D01*
X3600734Y-34320852D01*
X3679790Y-34170225D01*
X3720500Y-34005056D01*
X3720500Y-34005055D01*
X5649500Y-34005055D01*
X5690210Y-34170226D01*
X5769263Y-34320849D01*
X5769266Y-34320852D01*
X5882071Y-34448183D01*
X5949355Y-34494626D01*
X6022068Y-34544817D01*
X6022069Y-34544817D01*
X6022070Y-34544818D01*
X6181128Y-34605140D01*
X6257028Y-34614356D01*
X6307626Y-34620500D01*
X6307628Y-34620500D01*
X6992374Y-34620500D01*
X7034538Y-34615380D01*
X7118872Y-34605140D01*
X7277930Y-34544818D01*
X7417929Y-34448183D01*
X7530734Y-34320852D01*
X7609790Y-34170225D01*
X7650500Y-34005056D01*
X7650500Y-33853982D01*
X12574673Y-33853982D01*
X12594517Y-33979279D01*
X12594517Y-33979280D01*
X12611688Y-34012978D01*
X12652115Y-34092321D01*
X12652117Y-34092323D01*
X12652119Y-34092326D01*
X12741817Y-34182024D01*
X12741819Y-34182025D01*
X12741823Y-34182029D01*
X12854861Y-34239625D01*
X12854862Y-34239625D01*
X12854864Y-34239626D01*
X12980162Y-34259471D01*
X12980165Y-34259471D01*
X12980168Y-34259471D01*
X13105465Y-34239626D01*
X13105466Y-34239626D01*
X13105467Y-34239625D01*
X13105469Y-34239625D01*
X13218507Y-34182029D01*
X13308215Y-34092321D01*
X13365811Y-33979283D01*
X13365811Y-33979281D01*
X13365812Y-33979280D01*
X13365812Y-33979279D01*
X13385657Y-33853982D01*
X13385657Y-33853975D01*
X13365812Y-33728678D01*
X13365812Y-33728677D01*
X13349958Y-33697562D01*
X13308215Y-33615637D01*
X13308211Y-33615633D01*
X13308210Y-33615631D01*
X13218512Y-33525933D01*
X13218509Y-33525931D01*
X13218507Y-33525929D01*
X13105469Y-33468333D01*
X13105468Y-33468332D01*
X13105465Y-33468331D01*
X12980168Y-33448487D01*
X12980162Y-33448487D01*
X12854864Y-33468331D01*
X12854863Y-33468331D01*
X12779502Y-33506730D01*
X12741823Y-33525929D01*
X12741822Y-33525930D01*
X12741817Y-33525933D01*
X12652119Y-33615631D01*
X12652116Y-33615636D01*
X12594517Y-33728677D01*
X12594517Y-33728678D01*
X12574673Y-33853975D01*
X12574673Y-33853982D01*
X7650500Y-33853982D01*
X7650500Y-33834944D01*
X7609790Y-33669775D01*
X7581376Y-33615637D01*
X7530736Y-33519150D01*
X7468134Y-33448487D01*
X7417929Y-33391817D01*
X7368177Y-33357475D01*
X7277931Y-33295182D01*
X7118874Y-33234860D01*
X7118868Y-33234859D01*
X6992374Y-33219500D01*
X6992372Y-33219500D01*
X6307628Y-33219500D01*
X6307626Y-33219500D01*
X6181131Y-33234859D01*
X6181125Y-33234860D01*
X6022068Y-33295182D01*
X5882072Y-33391816D01*
X5769263Y-33519150D01*
X5690210Y-33669773D01*
X5649500Y-33834944D01*
X5649500Y-34005055D01*
X3720500Y-34005055D01*
X3720500Y-33834944D01*
X3679790Y-33669775D01*
X3651376Y-33615637D01*
X3600736Y-33519150D01*
X3538134Y-33448487D01*
X3487929Y-33391817D01*
X3438177Y-33357475D01*
X3347931Y-33295182D01*
X3228909Y-33250044D01*
X3173206Y-33207866D01*
X3149149Y-33142269D01*
X3164376Y-33074079D01*
X3214051Y-33024945D01*
X3225407Y-33019549D01*
X3290233Y-32992698D01*
X3410451Y-32900451D01*
X3427216Y-32878602D01*
X22613596Y-32878602D01*
X22634679Y-33011721D01*
X22634680Y-33011724D01*
X22634681Y-33011726D01*
X22695872Y-33131820D01*
X22695873Y-33131821D01*
X22695876Y-33131825D01*
X22791174Y-33227123D01*
X22791178Y-33227126D01*
X22791180Y-33227128D01*
X22911274Y-33288319D01*
X22911276Y-33288319D01*
X22911278Y-33288320D01*
X23044398Y-33309404D01*
X23044400Y-33309404D01*
X23044402Y-33309404D01*
X23177521Y-33288320D01*
X23177521Y-33288319D01*
X23177526Y-33288319D01*
X23297620Y-33227128D01*
X23392928Y-33131820D01*
X23454119Y-33011726D01*
X23471743Y-32900451D01*
X23475204Y-32878602D01*
X23475204Y-32878597D01*
X23454120Y-32745478D01*
X23454119Y-32745476D01*
X23454119Y-32745474D01*
X23392928Y-32625380D01*
X23392926Y-32625378D01*
X23392923Y-32625374D01*
X23297625Y-32530076D01*
X23297621Y-32530073D01*
X23297620Y-32530072D01*
X23177526Y-32468881D01*
X23177524Y-32468880D01*
X23177521Y-32468879D01*
X23044402Y-32447796D01*
X23044398Y-32447796D01*
X22911278Y-32468879D01*
X22791178Y-32530073D01*
X22791174Y-32530076D01*
X22695876Y-32625374D01*
X22695873Y-32625378D01*
X22634679Y-32745478D01*
X22613596Y-32878597D01*
X22613596Y-32878602D01*
X3427216Y-32878602D01*
X3502698Y-32780233D01*
X3560687Y-32640236D01*
X3580466Y-32490000D01*
X3560687Y-32339764D01*
X3544217Y-32300003D01*
X17794508Y-32300003D01*
X17814352Y-32425300D01*
X17814352Y-32425301D01*
X17814354Y-32425304D01*
X17871950Y-32538342D01*
X17871952Y-32538344D01*
X17871954Y-32538347D01*
X17961652Y-32628045D01*
X17961654Y-32628046D01*
X17961658Y-32628050D01*
X18074696Y-32685646D01*
X18074697Y-32685646D01*
X18074699Y-32685647D01*
X18199997Y-32705492D01*
X18200000Y-32705492D01*
X18200003Y-32705492D01*
X18325300Y-32685647D01*
X18325301Y-32685647D01*
X18325302Y-32685646D01*
X18325304Y-32685646D01*
X18438342Y-32628050D01*
X18441018Y-32625374D01*
X18512319Y-32554074D01*
X18573642Y-32520589D01*
X18643334Y-32525573D01*
X18687681Y-32554074D01*
X18761652Y-32628045D01*
X18761654Y-32628046D01*
X18761658Y-32628050D01*
X18874696Y-32685646D01*
X18874697Y-32685646D01*
X18874699Y-32685647D01*
X18999997Y-32705492D01*
X19000000Y-32705492D01*
X19000003Y-32705492D01*
X19125300Y-32685647D01*
X19125301Y-32685647D01*
X19125302Y-32685646D01*
X19125304Y-32685646D01*
X19238342Y-32628050D01*
X19241018Y-32625374D01*
X19312319Y-32554074D01*
X19373642Y-32520589D01*
X19443334Y-32525573D01*
X19487681Y-32554074D01*
X19561652Y-32628045D01*
X19561654Y-32628046D01*
X19561658Y-32628050D01*
X19674696Y-32685646D01*
X19674697Y-32685646D01*
X19674699Y-32685647D01*
X19799997Y-32705492D01*
X19800000Y-32705492D01*
X19800003Y-32705492D01*
X19925300Y-32685647D01*
X19925301Y-32685647D01*
X19925302Y-32685646D01*
X19925304Y-32685646D01*
X20038342Y-32628050D01*
X20128050Y-32538342D01*
X20185646Y-32425304D01*
X20185646Y-32425302D01*
X20185647Y-32425301D01*
X20185647Y-32425300D01*
X20205492Y-32300003D01*
X20205492Y-32299996D01*
X20185647Y-32174699D01*
X20185647Y-32174698D01*
X20185646Y-32174696D01*
X20128050Y-32061658D01*
X20128046Y-32061654D01*
X20128045Y-32061652D01*
X20038347Y-31971954D01*
X20038344Y-31971952D01*
X20038342Y-31971950D01*
X19925304Y-31914354D01*
X19925303Y-31914353D01*
X19925300Y-31914352D01*
X19800003Y-31894508D01*
X19799997Y-31894508D01*
X19674699Y-31914352D01*
X19674698Y-31914352D01*
X19599337Y-31952751D01*
X19561658Y-31971950D01*
X19561657Y-31971951D01*
X19561652Y-31971954D01*
X19487681Y-32045926D01*
X19426358Y-32079411D01*
X19356666Y-32074427D01*
X19312319Y-32045926D01*
X19238347Y-31971954D01*
X19238344Y-31971952D01*
X19238342Y-31971950D01*
X19125304Y-31914354D01*
X19125303Y-31914353D01*
X19125300Y-31914352D01*
X19000003Y-31894508D01*
X18999997Y-31894508D01*
X18874699Y-31914352D01*
X18874698Y-31914352D01*
X18799337Y-31952751D01*
X18761658Y-31971950D01*
X18761657Y-31971951D01*
X18761652Y-31971954D01*
X18687681Y-32045926D01*
X18626358Y-32079411D01*
X18556666Y-32074427D01*
X18512319Y-32045926D01*
X18438347Y-31971954D01*
X18438344Y-31971952D01*
X18438342Y-31971950D01*
X18325304Y-31914354D01*
X18325303Y-31914353D01*
X18325300Y-31914352D01*
X18200003Y-31894508D01*
X18199997Y-31894508D01*
X18074699Y-31914352D01*
X18074698Y-31914352D01*
X17999337Y-31952751D01*
X17961658Y-31971950D01*
X17961657Y-31971951D01*
X17961652Y-31971954D01*
X17871954Y-32061652D01*
X17871951Y-32061657D01*
X17871950Y-32061658D01*
X17862834Y-32079549D01*
X17814352Y-32174698D01*
X17814352Y-32174699D01*
X17794508Y-32299996D01*
X17794508Y-32300003D01*
X3544217Y-32300003D01*
X3502698Y-32199767D01*
X3410451Y-32079549D01*
X3290233Y-31987302D01*
X3290229Y-31987300D01*
X3226801Y-31961027D01*
X3150236Y-31929313D01*
X3136171Y-31927461D01*
X3037727Y-31914500D01*
X3037720Y-31914500D01*
X2962280Y-31914500D01*
X2962272Y-31914500D01*
X2849764Y-31929313D01*
X2849763Y-31929313D01*
X2709770Y-31987300D01*
X2709767Y-31987301D01*
X2709767Y-31987302D01*
X2589549Y-32079549D01*
X2516538Y-32174699D01*
X2497300Y-32199770D01*
X2439313Y-32339763D01*
X2439312Y-32339765D01*
X2419534Y-32489999D01*
X2419534Y-32490000D01*
X2439312Y-32640234D01*
X2439313Y-32640236D01*
X2458122Y-32685646D01*
X2497302Y-32780233D01*
X2589549Y-32900451D01*
X2709767Y-32992698D01*
X2709769Y-32992698D01*
X2715536Y-32997124D01*
X2756738Y-33053552D01*
X2760893Y-33123299D01*
X2726680Y-33184219D01*
X2664963Y-33216971D01*
X2640049Y-33219500D01*
X1877626Y-33219500D01*
X1751131Y-33234859D01*
X1751125Y-33234860D01*
X1592068Y-33295182D01*
X1452072Y-33391816D01*
X1339263Y-33519150D01*
X1260210Y-33669773D01*
X1219500Y-33834944D01*
X1219500Y-34005055D01*
X933784Y-34005055D01*
X876628Y-33892880D01*
X876626Y-33892878D01*
X876623Y-33892874D01*
X781325Y-33797576D01*
X781321Y-33797573D01*
X781320Y-33797572D01*
X661226Y-33736381D01*
X661224Y-33736380D01*
X661221Y-33736379D01*
X605102Y-33727491D01*
X541967Y-33697562D01*
X505036Y-33638250D01*
X500500Y-33605018D01*
X500500Y-31271402D01*
X9914296Y-31271402D01*
X9935379Y-31404521D01*
X9935380Y-31404524D01*
X9935381Y-31404526D01*
X9984320Y-31500574D01*
X9996573Y-31524621D01*
X9996576Y-31524625D01*
X10091874Y-31619923D01*
X10091878Y-31619926D01*
X10091880Y-31619928D01*
X10211974Y-31681119D01*
X10211976Y-31681119D01*
X10211978Y-31681120D01*
X10345098Y-31702204D01*
X10345100Y-31702204D01*
X10345102Y-31702204D01*
X10478221Y-31681120D01*
X10478221Y-31681119D01*
X10478226Y-31681119D01*
X10571287Y-31633702D01*
X26711896Y-31633702D01*
X26732979Y-31766821D01*
X26732980Y-31766824D01*
X26732981Y-31766826D01*
X26794172Y-31886920D01*
X26794173Y-31886921D01*
X26794176Y-31886925D01*
X26889474Y-31982223D01*
X26889478Y-31982226D01*
X26889480Y-31982228D01*
X27009574Y-32043419D01*
X27009576Y-32043419D01*
X27009578Y-32043420D01*
X27142698Y-32064504D01*
X27142700Y-32064504D01*
X27142702Y-32064504D01*
X27275821Y-32043420D01*
X27275821Y-32043419D01*
X27275826Y-32043419D01*
X27395920Y-31982228D01*
X27491228Y-31886920D01*
X27552419Y-31766826D01*
X27562654Y-31702204D01*
X27573504Y-31633702D01*
X27573504Y-31633697D01*
X27552420Y-31500578D01*
X27552419Y-31500576D01*
X27552419Y-31500574D01*
X27491228Y-31380480D01*
X27491226Y-31380478D01*
X27491223Y-31380474D01*
X27395925Y-31285176D01*
X27395921Y-31285173D01*
X27395920Y-31285172D01*
X27275826Y-31223981D01*
X27275824Y-31223980D01*
X27275821Y-31223979D01*
X27142702Y-31202896D01*
X27142698Y-31202896D01*
X27009578Y-31223979D01*
X26889478Y-31285173D01*
X26889474Y-31285176D01*
X26794176Y-31380474D01*
X26794173Y-31380478D01*
X26732979Y-31500578D01*
X26711896Y-31633697D01*
X26711896Y-31633702D01*
X10571287Y-31633702D01*
X10598320Y-31619928D01*
X10693628Y-31524620D01*
X10754819Y-31404526D01*
X10754820Y-31404521D01*
X10775904Y-31271402D01*
X10775904Y-31271397D01*
X10754820Y-31138278D01*
X10754819Y-31138276D01*
X10754819Y-31138274D01*
X10693628Y-31018180D01*
X10693626Y-31018178D01*
X10693623Y-31018174D01*
X10598325Y-30922876D01*
X10598321Y-30922873D01*
X10598320Y-30922872D01*
X10478226Y-30861681D01*
X10478224Y-30861680D01*
X10478221Y-30861679D01*
X10345102Y-30840596D01*
X10345098Y-30840596D01*
X10211978Y-30861679D01*
X10091878Y-30922873D01*
X10091874Y-30922876D01*
X9996576Y-31018174D01*
X9996573Y-31018178D01*
X9935379Y-31138278D01*
X9914296Y-31271397D01*
X9914296Y-31271402D01*
X500500Y-31271402D01*
X500500Y-30237102D01*
X4944196Y-30237102D01*
X4965279Y-30370221D01*
X4965280Y-30370224D01*
X4965281Y-30370226D01*
X4981471Y-30402000D01*
X5026473Y-30490321D01*
X5026476Y-30490325D01*
X5121774Y-30585623D01*
X5121778Y-30585626D01*
X5121780Y-30585628D01*
X5241874Y-30646819D01*
X5241876Y-30646819D01*
X5241878Y-30646820D01*
X5374998Y-30667904D01*
X5375000Y-30667904D01*
X5375002Y-30667904D01*
X5508121Y-30646820D01*
X5508121Y-30646819D01*
X5508126Y-30646819D01*
X5628220Y-30585628D01*
X5723528Y-30490320D01*
X5768528Y-30402002D01*
X12547296Y-30402002D01*
X12568379Y-30535121D01*
X12568380Y-30535124D01*
X12568381Y-30535126D01*
X12625292Y-30646820D01*
X12629573Y-30655221D01*
X12629576Y-30655225D01*
X12724874Y-30750523D01*
X12724878Y-30750526D01*
X12724880Y-30750528D01*
X12844974Y-30811719D01*
X12844976Y-30811719D01*
X12844978Y-30811720D01*
X12978098Y-30832804D01*
X12978100Y-30832804D01*
X12978102Y-30832804D01*
X13111221Y-30811720D01*
X13111221Y-30811719D01*
X13111226Y-30811719D01*
X13231320Y-30750528D01*
X13326628Y-30655220D01*
X13387819Y-30535126D01*
X13394915Y-30490325D01*
X13408904Y-30402002D01*
X13408904Y-30401997D01*
X13387820Y-30268878D01*
X13387819Y-30268876D01*
X13387819Y-30268874D01*
X13326628Y-30148780D01*
X13326626Y-30148778D01*
X13326623Y-30148774D01*
X13231325Y-30053476D01*
X13231321Y-30053473D01*
X13231320Y-30053472D01*
X13111226Y-29992281D01*
X13111224Y-29992280D01*
X13111221Y-29992279D01*
X12978102Y-29971196D01*
X12978098Y-29971196D01*
X12844978Y-29992279D01*
X12724878Y-30053473D01*
X12724874Y-30053476D01*
X12629576Y-30148774D01*
X12629573Y-30148778D01*
X12568379Y-30268878D01*
X12547296Y-30401997D01*
X12547296Y-30402002D01*
X5768528Y-30402002D01*
X5784719Y-30370226D01*
X5805804Y-30237100D01*
X5791815Y-30148778D01*
X5784720Y-30103978D01*
X5784719Y-30103976D01*
X5784719Y-30103974D01*
X5723528Y-29983880D01*
X5723526Y-29983878D01*
X5723523Y-29983874D01*
X5628225Y-29888576D01*
X5628221Y-29888573D01*
X5628220Y-29888572D01*
X5508126Y-29827381D01*
X5508124Y-29827380D01*
X5508121Y-29827379D01*
X5375002Y-29806296D01*
X5374998Y-29806296D01*
X5241878Y-29827379D01*
X5121778Y-29888573D01*
X5121774Y-29888576D01*
X5026476Y-29983874D01*
X5026473Y-29983878D01*
X4965279Y-30103978D01*
X4944196Y-30237097D01*
X4944196Y-30237102D01*
X500500Y-30237102D01*
X500500Y-28631802D01*
X16134396Y-28631802D01*
X16155479Y-28764921D01*
X16155480Y-28764924D01*
X16155481Y-28764926D01*
X16216672Y-28885020D01*
X16216673Y-28885021D01*
X16216676Y-28885025D01*
X16311974Y-28980323D01*
X16311978Y-28980326D01*
X16311980Y-28980328D01*
X16432074Y-29041519D01*
X16432076Y-29041519D01*
X16432078Y-29041520D01*
X16565198Y-29062604D01*
X16565200Y-29062604D01*
X16565202Y-29062604D01*
X16698321Y-29041520D01*
X16698321Y-29041519D01*
X16698326Y-29041519D01*
X16818420Y-28980328D01*
X16913728Y-28885020D01*
X16961633Y-28791002D01*
X23869196Y-28791002D01*
X23890279Y-28924121D01*
X23890280Y-28924124D01*
X23890281Y-28924126D01*
X23951472Y-29044220D01*
X23951473Y-29044221D01*
X23951476Y-29044225D01*
X24046774Y-29139523D01*
X24046778Y-29139526D01*
X24046780Y-29139528D01*
X24166874Y-29200719D01*
X24166876Y-29200719D01*
X24166878Y-29200720D01*
X24299998Y-29221804D01*
X24300000Y-29221804D01*
X24300002Y-29221804D01*
X24433121Y-29200720D01*
X24433121Y-29200719D01*
X24433126Y-29200719D01*
X24553220Y-29139528D01*
X24648528Y-29044220D01*
X24709719Y-28924126D01*
X24730804Y-28791000D01*
X24726674Y-28764926D01*
X24709720Y-28657878D01*
X24709719Y-28657876D01*
X24709719Y-28657874D01*
X24648528Y-28537780D01*
X24648526Y-28537778D01*
X24648523Y-28537774D01*
X24553225Y-28442476D01*
X24553221Y-28442473D01*
X24553220Y-28442472D01*
X24433126Y-28381281D01*
X24433124Y-28381280D01*
X24433121Y-28381279D01*
X24300002Y-28360196D01*
X24299998Y-28360196D01*
X24166878Y-28381279D01*
X24046778Y-28442473D01*
X24046774Y-28442476D01*
X23951476Y-28537774D01*
X23951473Y-28537778D01*
X23890279Y-28657878D01*
X23869196Y-28790997D01*
X23869196Y-28791002D01*
X16961633Y-28791002D01*
X16974919Y-28764926D01*
X16991874Y-28657878D01*
X16996004Y-28631802D01*
X16996004Y-28631797D01*
X16974920Y-28498678D01*
X16974919Y-28498676D01*
X16974919Y-28498674D01*
X16913728Y-28378580D01*
X16913726Y-28378578D01*
X16913723Y-28378574D01*
X16818425Y-28283276D01*
X16818421Y-28283273D01*
X16818420Y-28283272D01*
X16698326Y-28222081D01*
X16698324Y-28222080D01*
X16698321Y-28222079D01*
X16565202Y-28200996D01*
X16565198Y-28200996D01*
X16432078Y-28222079D01*
X16311978Y-28283273D01*
X16311974Y-28283276D01*
X16216676Y-28378574D01*
X16216673Y-28378578D01*
X16155479Y-28498678D01*
X16134396Y-28631797D01*
X16134396Y-28631802D01*
X500500Y-28631802D01*
X500500Y-25574981D01*
X520185Y-25507942D01*
X572989Y-25462187D01*
X605098Y-25452508D01*
X661226Y-25443619D01*
X781320Y-25382428D01*
X798692Y-25365056D01*
X1219500Y-25365056D01*
X1238864Y-25443619D01*
X1260210Y-25530226D01*
X1339263Y-25680849D01*
X1350896Y-25693980D01*
X1452071Y-25808183D01*
X1524560Y-25858219D01*
X1592068Y-25904817D01*
X1592069Y-25904817D01*
X1592070Y-25904818D01*
X1693358Y-25943231D01*
X1703823Y-25947200D01*
X1751128Y-25965140D01*
X1827028Y-25974356D01*
X1877626Y-25980500D01*
X2640049Y-25980500D01*
X2707088Y-26000185D01*
X2752843Y-26052989D01*
X2762787Y-26122147D01*
X2733762Y-26185703D01*
X2715536Y-26202876D01*
X2709768Y-26207301D01*
X2709767Y-26207302D01*
X2589549Y-26299549D01*
X2545527Y-26356920D01*
X2497300Y-26419770D01*
X2439313Y-26559763D01*
X2439312Y-26559765D01*
X2419534Y-26709999D01*
X2419534Y-26710000D01*
X2439312Y-26860234D01*
X2439313Y-26860236D01*
X2487503Y-26976578D01*
X2497302Y-27000233D01*
X2589549Y-27120451D01*
X2683646Y-27192655D01*
X2724849Y-27249082D01*
X2729004Y-27318828D01*
X2694792Y-27379748D01*
X2664456Y-27401514D01*
X2546981Y-27461371D01*
X2546974Y-27461376D01*
X2451676Y-27556674D01*
X2451673Y-27556678D01*
X2390479Y-27676778D01*
X2369396Y-27809897D01*
X2369396Y-27809902D01*
X2390479Y-27943021D01*
X2390480Y-27943024D01*
X2390481Y-27943026D01*
X2451672Y-28063120D01*
X2451673Y-28063121D01*
X2451676Y-28063125D01*
X2546974Y-28158423D01*
X2546978Y-28158426D01*
X2546980Y-28158428D01*
X2667074Y-28219619D01*
X2667076Y-28219619D01*
X2667078Y-28219620D01*
X2800198Y-28240704D01*
X2800200Y-28240704D01*
X2800202Y-28240704D01*
X2933321Y-28219620D01*
X2933321Y-28219619D01*
X2933326Y-28219619D01*
X3053420Y-28158428D01*
X3148728Y-28063120D01*
X3209919Y-27943026D01*
X3231004Y-27809900D01*
X3209919Y-27676774D01*
X3148728Y-27556680D01*
X3148726Y-27556678D01*
X3148723Y-27556674D01*
X3073982Y-27481933D01*
X3040497Y-27420610D01*
X3045481Y-27350918D01*
X3087353Y-27294985D01*
X3145479Y-27271313D01*
X3150236Y-27270687D01*
X3290233Y-27212698D01*
X3410451Y-27120451D01*
X3418699Y-27109702D01*
X23069196Y-27109702D01*
X23090279Y-27242821D01*
X23090280Y-27242824D01*
X23090281Y-27242826D01*
X23136865Y-27334252D01*
X23151473Y-27362921D01*
X23151476Y-27362925D01*
X23246774Y-27458223D01*
X23246778Y-27458226D01*
X23246780Y-27458228D01*
X23366874Y-27519419D01*
X23366876Y-27519419D01*
X23366878Y-27519420D01*
X23499998Y-27540504D01*
X23500000Y-27540504D01*
X23500002Y-27540504D01*
X23633121Y-27519420D01*
X23633121Y-27519419D01*
X23633126Y-27519419D01*
X23753220Y-27458228D01*
X23848528Y-27362920D01*
X23909719Y-27242826D01*
X23913143Y-27221206D01*
X23930804Y-27109702D01*
X23930804Y-27109697D01*
X23928620Y-27095908D01*
X31045213Y-27095908D01*
X31065057Y-27221205D01*
X31065057Y-27221206D01*
X31065059Y-27221209D01*
X31122655Y-27334247D01*
X31122657Y-27334249D01*
X31122659Y-27334252D01*
X31212357Y-27423950D01*
X31212359Y-27423951D01*
X31212363Y-27423955D01*
X31325401Y-27481551D01*
X31325402Y-27481551D01*
X31325404Y-27481552D01*
X31450702Y-27501397D01*
X31450705Y-27501397D01*
X31450708Y-27501397D01*
X31576005Y-27481552D01*
X31576006Y-27481552D01*
X31576007Y-27481551D01*
X31576009Y-27481551D01*
X31689047Y-27423955D01*
X31778755Y-27334247D01*
X31836351Y-27221209D01*
X31836351Y-27221207D01*
X31836352Y-27221206D01*
X31836352Y-27221205D01*
X31856197Y-27095908D01*
X31856197Y-27095901D01*
X31836352Y-26970604D01*
X31836352Y-26970603D01*
X31836351Y-26970601D01*
X31778755Y-26857563D01*
X31778751Y-26857559D01*
X31778750Y-26857557D01*
X31689052Y-26767859D01*
X31689049Y-26767857D01*
X31689047Y-26767855D01*
X31576009Y-26710259D01*
X31576008Y-26710258D01*
X31576005Y-26710257D01*
X31450708Y-26690413D01*
X31450702Y-26690413D01*
X31325404Y-26710257D01*
X31325403Y-26710257D01*
X31250042Y-26748656D01*
X31212363Y-26767855D01*
X31212362Y-26767856D01*
X31212357Y-26767859D01*
X31122659Y-26857557D01*
X31122656Y-26857562D01*
X31122655Y-26857563D01*
X31121293Y-26860236D01*
X31065057Y-26970603D01*
X31065057Y-26970604D01*
X31045213Y-27095901D01*
X31045213Y-27095908D01*
X23928620Y-27095908D01*
X23909720Y-26976578D01*
X23909719Y-26976576D01*
X23909719Y-26976574D01*
X23848528Y-26856480D01*
X23848526Y-26856478D01*
X23848523Y-26856474D01*
X23753225Y-26761176D01*
X23753221Y-26761173D01*
X23753220Y-26761172D01*
X23633126Y-26699981D01*
X23633124Y-26699980D01*
X23633121Y-26699979D01*
X23500002Y-26678896D01*
X23499998Y-26678896D01*
X23366878Y-26699979D01*
X23246778Y-26761173D01*
X23246774Y-26761176D01*
X23151476Y-26856474D01*
X23151473Y-26856478D01*
X23090279Y-26976578D01*
X23069196Y-27109697D01*
X23069196Y-27109702D01*
X3418699Y-27109702D01*
X3502698Y-27000233D01*
X3560687Y-26860236D01*
X3580466Y-26710000D01*
X3560687Y-26559764D01*
X3502698Y-26419767D01*
X3410451Y-26299549D01*
X3290233Y-26207302D01*
X3290229Y-26207300D01*
X3225427Y-26180458D01*
X3171024Y-26136617D01*
X3148959Y-26070323D01*
X3166238Y-26002623D01*
X3217376Y-25955013D01*
X3228896Y-25949960D01*
X3236169Y-25947202D01*
X4944196Y-25947202D01*
X4965279Y-26080321D01*
X4965280Y-26080324D01*
X4965281Y-26080326D01*
X5026472Y-26200420D01*
X5026473Y-26200421D01*
X5026476Y-26200425D01*
X5121774Y-26295723D01*
X5121778Y-26295726D01*
X5121780Y-26295728D01*
X5241874Y-26356919D01*
X5241876Y-26356919D01*
X5241878Y-26356920D01*
X5374998Y-26378004D01*
X5375000Y-26378004D01*
X5375002Y-26378004D01*
X5508121Y-26356920D01*
X5508121Y-26356919D01*
X5508126Y-26356919D01*
X5628220Y-26295728D01*
X5723528Y-26200420D01*
X5784719Y-26080326D01*
X5786304Y-26070323D01*
X5802356Y-25968971D01*
X5832285Y-25905836D01*
X5891596Y-25868904D01*
X5961459Y-25869902D01*
X5995270Y-25886319D01*
X6022067Y-25904816D01*
X6022068Y-25904817D01*
X6022069Y-25904817D01*
X6022070Y-25904818D01*
X6123358Y-25943231D01*
X6133823Y-25947200D01*
X6181128Y-25965140D01*
X6257028Y-25974356D01*
X6307626Y-25980500D01*
X6307628Y-25980500D01*
X6992374Y-25980500D01*
X7034538Y-25975380D01*
X7118872Y-25965140D01*
X7277930Y-25904818D01*
X7417929Y-25808183D01*
X7530734Y-25680852D01*
X7609790Y-25530225D01*
X7629933Y-25448502D01*
X27354196Y-25448502D01*
X27375279Y-25581621D01*
X27375280Y-25581624D01*
X27375281Y-25581626D01*
X27436472Y-25701720D01*
X27436473Y-25701721D01*
X27436476Y-25701725D01*
X27531774Y-25797023D01*
X27531778Y-25797026D01*
X27531780Y-25797028D01*
X27651874Y-25858219D01*
X27651876Y-25858219D01*
X27651878Y-25858220D01*
X27784998Y-25879304D01*
X27785000Y-25879304D01*
X27785002Y-25879304D01*
X27918121Y-25858220D01*
X27918121Y-25858219D01*
X27918126Y-25858219D01*
X28038220Y-25797028D01*
X28133528Y-25701720D01*
X28194719Y-25581626D01*
X28194720Y-25581621D01*
X28215804Y-25448502D01*
X28215804Y-25448497D01*
X28194720Y-25315378D01*
X28194719Y-25315376D01*
X28194719Y-25315374D01*
X28133528Y-25195280D01*
X28133526Y-25195278D01*
X28133523Y-25195274D01*
X28038225Y-25099976D01*
X28038221Y-25099973D01*
X28038220Y-25099972D01*
X27918126Y-25038781D01*
X27918124Y-25038780D01*
X27918121Y-25038779D01*
X27785002Y-25017696D01*
X27784998Y-25017696D01*
X27651878Y-25038779D01*
X27531778Y-25099973D01*
X27531774Y-25099976D01*
X27436476Y-25195274D01*
X27436473Y-25195278D01*
X27375279Y-25315378D01*
X27354196Y-25448497D01*
X27354196Y-25448502D01*
X7629933Y-25448502D01*
X7650500Y-25365056D01*
X7650500Y-25194944D01*
X7609790Y-25029775D01*
X7609789Y-25029773D01*
X7530736Y-24879150D01*
X7473483Y-24814525D01*
X7417929Y-24751817D01*
X7368177Y-24717475D01*
X7277931Y-24655182D01*
X7118874Y-24594860D01*
X7118868Y-24594859D01*
X6992374Y-24579500D01*
X6992372Y-24579500D01*
X6307628Y-24579500D01*
X6307626Y-24579500D01*
X6181131Y-24594859D01*
X6181125Y-24594860D01*
X6022068Y-24655182D01*
X5882072Y-24751816D01*
X5769263Y-24879150D01*
X5690210Y-25029773D01*
X5649500Y-25194944D01*
X5649500Y-25365055D01*
X5654765Y-25386419D01*
X5651694Y-25456221D01*
X5611372Y-25513282D01*
X5546602Y-25539486D01*
X5514970Y-25538564D01*
X5375003Y-25516396D01*
X5374998Y-25516396D01*
X5241878Y-25537479D01*
X5241874Y-25537480D01*
X5241874Y-25537481D01*
X5237939Y-25539486D01*
X5121778Y-25598673D01*
X5121774Y-25598676D01*
X5026476Y-25693974D01*
X5026473Y-25693978D01*
X4965279Y-25814078D01*
X4944196Y-25947197D01*
X4944196Y-25947202D01*
X3236169Y-25947202D01*
X3347930Y-25904818D01*
X3487929Y-25808183D01*
X3600734Y-25680852D01*
X3679790Y-25530225D01*
X3720500Y-25365056D01*
X3720500Y-25194944D01*
X3679790Y-25029775D01*
X3679789Y-25029773D01*
X3600736Y-24879150D01*
X3543483Y-24814525D01*
X3487929Y-24751817D01*
X3438177Y-24717475D01*
X3347931Y-24655182D01*
X3188874Y-24594860D01*
X3188868Y-24594859D01*
X3062374Y-24579500D01*
X3062372Y-24579500D01*
X1877628Y-24579500D01*
X1877626Y-24579500D01*
X1751131Y-24594859D01*
X1751125Y-24594860D01*
X1592068Y-24655182D01*
X1452072Y-24751816D01*
X1339263Y-24879150D01*
X1260210Y-25029773D01*
X1257990Y-25038781D01*
X1219500Y-25194944D01*
X1219500Y-25365056D01*
X798692Y-25365056D01*
X876628Y-25287120D01*
X937819Y-25167026D01*
X948439Y-25099973D01*
X958904Y-25033902D01*
X958904Y-25033897D01*
X937820Y-24900778D01*
X937819Y-24900776D01*
X937819Y-24900774D01*
X876628Y-24780680D01*
X876626Y-24780678D01*
X876623Y-24780674D01*
X781325Y-24685376D01*
X781321Y-24685373D01*
X781320Y-24685372D01*
X661226Y-24624181D01*
X661224Y-24624180D01*
X661221Y-24624179D01*
X605102Y-24615291D01*
X541967Y-24585362D01*
X526986Y-24561302D01*
X24061896Y-24561302D01*
X24082979Y-24694421D01*
X24082980Y-24694424D01*
X24082981Y-24694426D01*
X24126927Y-24780674D01*
X24144173Y-24814521D01*
X24144176Y-24814525D01*
X24239474Y-24909823D01*
X24239478Y-24909826D01*
X24239480Y-24909828D01*
X24359574Y-24971019D01*
X24359576Y-24971019D01*
X24359578Y-24971020D01*
X24492698Y-24992104D01*
X24492700Y-24992104D01*
X24492702Y-24992104D01*
X24625821Y-24971020D01*
X24625821Y-24971019D01*
X24625826Y-24971019D01*
X24745920Y-24909828D01*
X24841228Y-24814520D01*
X24902419Y-24694426D01*
X24902420Y-24694421D01*
X24923504Y-24561302D01*
X24923504Y-24561297D01*
X24902420Y-24428178D01*
X24902419Y-24428176D01*
X24902419Y-24428174D01*
X24841228Y-24308080D01*
X24841226Y-24308078D01*
X24841223Y-24308074D01*
X24745925Y-24212776D01*
X24745921Y-24212773D01*
X24745920Y-24212772D01*
X24625826Y-24151581D01*
X24625824Y-24151580D01*
X24625821Y-24151579D01*
X24492702Y-24130496D01*
X24492698Y-24130496D01*
X24359578Y-24151579D01*
X24239478Y-24212773D01*
X24239474Y-24212776D01*
X24144176Y-24308074D01*
X24144173Y-24308078D01*
X24082979Y-24428178D01*
X24061896Y-24561297D01*
X24061896Y-24561302D01*
X526986Y-24561302D01*
X505036Y-24526050D01*
X500500Y-24492818D01*
X500500Y-23778402D01*
X11952996Y-23778402D01*
X11974079Y-23911521D01*
X11974080Y-23911524D01*
X11974081Y-23911526D01*
X12035272Y-24031620D01*
X12035273Y-24031621D01*
X12035276Y-24031625D01*
X12130574Y-24126923D01*
X12130578Y-24126926D01*
X12130580Y-24126928D01*
X12250674Y-24188119D01*
X12250676Y-24188119D01*
X12250678Y-24188120D01*
X12383798Y-24209204D01*
X12383800Y-24209204D01*
X12383802Y-24209204D01*
X12516921Y-24188120D01*
X12516921Y-24188119D01*
X12516926Y-24188119D01*
X12637020Y-24126928D01*
X12732328Y-24031620D01*
X12793519Y-23911526D01*
X12814604Y-23778400D01*
X12793519Y-23645274D01*
X12732328Y-23525180D01*
X12732326Y-23525178D01*
X12732323Y-23525174D01*
X12637025Y-23429876D01*
X12637021Y-23429873D01*
X12637020Y-23429872D01*
X12516926Y-23368681D01*
X12516924Y-23368680D01*
X12516921Y-23368679D01*
X12383802Y-23347596D01*
X12383798Y-23347596D01*
X12250678Y-23368679D01*
X12130578Y-23429873D01*
X12130574Y-23429876D01*
X12035276Y-23525174D01*
X12035273Y-23525178D01*
X11974079Y-23645278D01*
X11952996Y-23778397D01*
X11952996Y-23778402D01*
X500500Y-23778402D01*
X500500Y-22645302D01*
X5488196Y-22645302D01*
X5509279Y-22778421D01*
X5509280Y-22778424D01*
X5509281Y-22778426D01*
X5570472Y-22898520D01*
X5570473Y-22898521D01*
X5570476Y-22898525D01*
X5665774Y-22993823D01*
X5665778Y-22993826D01*
X5665780Y-22993828D01*
X5785874Y-23055019D01*
X5785876Y-23055019D01*
X5785878Y-23055020D01*
X5918998Y-23076104D01*
X5919000Y-23076104D01*
X5919002Y-23076104D01*
X6052121Y-23055020D01*
X6052121Y-23055019D01*
X6052126Y-23055019D01*
X6172220Y-22993828D01*
X6216045Y-22950003D01*
X27379508Y-22950003D01*
X27399352Y-23075300D01*
X27399352Y-23075301D01*
X27417805Y-23111517D01*
X27456950Y-23188342D01*
X27456952Y-23188344D01*
X27456954Y-23188347D01*
X27546652Y-23278045D01*
X27546654Y-23278046D01*
X27546658Y-23278050D01*
X27659696Y-23335646D01*
X27659697Y-23335646D01*
X27659699Y-23335647D01*
X27784997Y-23355492D01*
X27785000Y-23355492D01*
X27785003Y-23355492D01*
X27910300Y-23335647D01*
X27910301Y-23335647D01*
X27910302Y-23335646D01*
X27910304Y-23335646D01*
X28023342Y-23278050D01*
X28113050Y-23188342D01*
X28170646Y-23075304D01*
X28170646Y-23075302D01*
X28170647Y-23075301D01*
X28170647Y-23075300D01*
X28190492Y-22950003D01*
X28190492Y-22949996D01*
X28170647Y-22824699D01*
X28170647Y-22824698D01*
X28147070Y-22778426D01*
X28113050Y-22711658D01*
X28113046Y-22711654D01*
X28113045Y-22711652D01*
X28023347Y-22621954D01*
X28023344Y-22621952D01*
X28023342Y-22621950D01*
X27910304Y-22564354D01*
X27910303Y-22564353D01*
X27910300Y-22564352D01*
X27785003Y-22544508D01*
X27784997Y-22544508D01*
X27659699Y-22564352D01*
X27659698Y-22564352D01*
X27584337Y-22602751D01*
X27546658Y-22621950D01*
X27546657Y-22621951D01*
X27546652Y-22621954D01*
X27456954Y-22711652D01*
X27456951Y-22711657D01*
X27399352Y-22824698D01*
X27399352Y-22824699D01*
X27379508Y-22949996D01*
X27379508Y-22950003D01*
X6216045Y-22950003D01*
X6267528Y-22898520D01*
X6328719Y-22778426D01*
X6349804Y-22645300D01*
X6346106Y-22621954D01*
X6328720Y-22512178D01*
X6328719Y-22512176D01*
X6328719Y-22512174D01*
X6267528Y-22392080D01*
X6267526Y-22392078D01*
X6267523Y-22392074D01*
X6172225Y-22296776D01*
X6172221Y-22296773D01*
X6172220Y-22296772D01*
X6052126Y-22235581D01*
X6052124Y-22235580D01*
X6052121Y-22235579D01*
X5919002Y-22214496D01*
X5918998Y-22214496D01*
X5785878Y-22235579D01*
X5665778Y-22296773D01*
X5665774Y-22296776D01*
X5570476Y-22392074D01*
X5570473Y-22392078D01*
X5509279Y-22512178D01*
X5488196Y-22645297D01*
X5488196Y-22645302D01*
X500500Y-22645302D01*
X500500Y-21638002D01*
X29151696Y-21638002D01*
X29172779Y-21771121D01*
X29172780Y-21771124D01*
X29172781Y-21771126D01*
X29233972Y-21891220D01*
X29233973Y-21891221D01*
X29233976Y-21891225D01*
X29329274Y-21986523D01*
X29329278Y-21986526D01*
X29329280Y-21986528D01*
X29449374Y-22047719D01*
X29449376Y-22047719D01*
X29449378Y-22047720D01*
X29582498Y-22068804D01*
X29582500Y-22068804D01*
X29582502Y-22068804D01*
X29715621Y-22047720D01*
X29715621Y-22047719D01*
X29715626Y-22047719D01*
X29835720Y-21986528D01*
X29931028Y-21891220D01*
X29992219Y-21771126D01*
X30013304Y-21638000D01*
X29992219Y-21504874D01*
X29931028Y-21384780D01*
X29931026Y-21384778D01*
X29931023Y-21384774D01*
X29835725Y-21289476D01*
X29835721Y-21289473D01*
X29835720Y-21289472D01*
X29715626Y-21228281D01*
X29715624Y-21228280D01*
X29715621Y-21228279D01*
X29582502Y-21207196D01*
X29582498Y-21207196D01*
X29449378Y-21228279D01*
X29329278Y-21289473D01*
X29329274Y-21289476D01*
X29233976Y-21384774D01*
X29233973Y-21384778D01*
X29172779Y-21504878D01*
X29151696Y-21637997D01*
X29151696Y-21638002D01*
X500500Y-21638002D01*
X500500Y-19249602D01*
X11999796Y-19249602D01*
X12020879Y-19382721D01*
X12020880Y-19382724D01*
X12020881Y-19382726D01*
X12082072Y-19502820D01*
X12082073Y-19502821D01*
X12082076Y-19502825D01*
X12177374Y-19598123D01*
X12177378Y-19598126D01*
X12177380Y-19598128D01*
X12297474Y-19659319D01*
X12297476Y-19659319D01*
X12297478Y-19659320D01*
X12430598Y-19680404D01*
X12430600Y-19680404D01*
X12430602Y-19680404D01*
X12563721Y-19659320D01*
X12563721Y-19659319D01*
X12563726Y-19659319D01*
X12683820Y-19598128D01*
X12779128Y-19502820D01*
X12840319Y-19382726D01*
X12861404Y-19249600D01*
X12840319Y-19116474D01*
X12779128Y-18996380D01*
X12779126Y-18996378D01*
X12779123Y-18996374D01*
X12683825Y-18901076D01*
X12683821Y-18901073D01*
X12683820Y-18901072D01*
X12563726Y-18839881D01*
X12563724Y-18839880D01*
X12563721Y-18839879D01*
X12430602Y-18818796D01*
X12430598Y-18818796D01*
X12297478Y-18839879D01*
X12177378Y-18901073D01*
X12177374Y-18901076D01*
X12082076Y-18996374D01*
X12082073Y-18996378D01*
X12020879Y-19116478D01*
X11999796Y-19249597D01*
X11999796Y-19249602D01*
X500500Y-19249602D01*
X500500Y-14740000D01*
X3144417Y-14740000D01*
X3164699Y-14945932D01*
X3164700Y-14945934D01*
X3224768Y-15143954D01*
X3322315Y-15326450D01*
X3322317Y-15326452D01*
X3453589Y-15486410D01*
X3550209Y-15565702D01*
X3613550Y-15617685D01*
X3796046Y-15715232D01*
X3994066Y-15775300D01*
X3994065Y-15775300D01*
X4012529Y-15777118D01*
X4200000Y-15795583D01*
X4405934Y-15775300D01*
X4603954Y-15715232D01*
X4786450Y-15617685D01*
X4946410Y-15486410D01*
X5077685Y-15326450D01*
X5175232Y-15143954D01*
X5235300Y-14945934D01*
X5255583Y-14740000D01*
X5235300Y-14534066D01*
X5175232Y-14336046D01*
X5077685Y-14153550D01*
X5025702Y-14090209D01*
X4946410Y-13993589D01*
X4786452Y-13862317D01*
X4786453Y-13862317D01*
X4786450Y-13862315D01*
X4603954Y-13764768D01*
X4405934Y-13704700D01*
X4405932Y-13704699D01*
X4405934Y-13704699D01*
X4200000Y-13684417D01*
X3994067Y-13704699D01*
X3796043Y-13764769D01*
X3685898Y-13823643D01*
X3613550Y-13862315D01*
X3613548Y-13862316D01*
X3613547Y-13862317D01*
X3453589Y-13993589D01*
X3322317Y-14153547D01*
X3224769Y-14336043D01*
X3164699Y-14534067D01*
X3144417Y-14740000D01*
X500500Y-14740000D01*
X500500Y-13069752D01*
X3149500Y-13069752D01*
X3161131Y-13128229D01*
X3161132Y-13128230D01*
X3205447Y-13194552D01*
X3271769Y-13238867D01*
X3271770Y-13238868D01*
X3330247Y-13250499D01*
X3330250Y-13250500D01*
X3330252Y-13250500D01*
X5069750Y-13250500D01*
X5069751Y-13250499D01*
X5084568Y-13247552D01*
X5128229Y-13238868D01*
X5128229Y-13238867D01*
X5128231Y-13238867D01*
X5194552Y-13194552D01*
X5238867Y-13128231D01*
X5238867Y-13128229D01*
X5238868Y-13128229D01*
X5250499Y-13069752D01*
X5250500Y-13069750D01*
X5250500Y-11330249D01*
X5250499Y-11330247D01*
X5238868Y-11271770D01*
X5238867Y-11271769D01*
X5194552Y-11205447D01*
X5128230Y-11161132D01*
X5128229Y-11161131D01*
X5069752Y-11149500D01*
X5069748Y-11149500D01*
X3330252Y-11149500D01*
X3330247Y-11149500D01*
X3271770Y-11161131D01*
X3271769Y-11161132D01*
X3205447Y-11205447D01*
X3161132Y-11271769D01*
X3161131Y-11271770D01*
X3149500Y-11330247D01*
X3149500Y-13069752D01*
X500500Y-13069752D01*
X500500Y-10300000D01*
X12900000Y-10300000D01*
X12900000Y-15700000D01*
X26100000Y-15700000D01*
X26100000Y-14740000D01*
X32744417Y-14740000D01*
X32764699Y-14945932D01*
X32764700Y-14945934D01*
X32824768Y-15143954D01*
X32922315Y-15326450D01*
X32922317Y-15326452D01*
X33053589Y-15486410D01*
X33150209Y-15565702D01*
X33213550Y-15617685D01*
X33396046Y-15715232D01*
X33594066Y-15775300D01*
X33594065Y-15775300D01*
X33612529Y-15777118D01*
X33800000Y-15795583D01*
X34005934Y-15775300D01*
X34203954Y-15715232D01*
X34386450Y-15617685D01*
X34546410Y-15486410D01*
X34677685Y-15326450D01*
X34775232Y-15143954D01*
X34835300Y-14945934D01*
X34855583Y-14740000D01*
X34835300Y-14534066D01*
X34775232Y-14336046D01*
X34677685Y-14153550D01*
X34625702Y-14090209D01*
X34546410Y-13993589D01*
X34386452Y-13862317D01*
X34386453Y-13862317D01*
X34386450Y-13862315D01*
X34203954Y-13764768D01*
X34005934Y-13704700D01*
X34005932Y-13704699D01*
X34005934Y-13704699D01*
X33800000Y-13684417D01*
X33594067Y-13704699D01*
X33396043Y-13764769D01*
X33285898Y-13823643D01*
X33213550Y-13862315D01*
X33213548Y-13862316D01*
X33213547Y-13862317D01*
X33053589Y-13993589D01*
X32922317Y-14153547D01*
X32824769Y-14336043D01*
X32764699Y-14534067D01*
X32744417Y-14740000D01*
X26100000Y-14740000D01*
X26100000Y-13069752D01*
X32749500Y-13069752D01*
X32761131Y-13128229D01*
X32761132Y-13128230D01*
X32805447Y-13194552D01*
X32871769Y-13238867D01*
X32871770Y-13238868D01*
X32930247Y-13250499D01*
X32930250Y-13250500D01*
X32930252Y-13250500D01*
X34669750Y-13250500D01*
X34669751Y-13250499D01*
X34684568Y-13247552D01*
X34728229Y-13238868D01*
X34728229Y-13238867D01*
X34728231Y-13238867D01*
X34794552Y-13194552D01*
X34838867Y-13128231D01*
X34838867Y-13128229D01*
X34838868Y-13128229D01*
X34850499Y-13069752D01*
X34850500Y-13069750D01*
X34850500Y-11330249D01*
X34850499Y-11330247D01*
X34838868Y-11271770D01*
X34838867Y-11271769D01*
X34794552Y-11205447D01*
X34728230Y-11161132D01*
X34728229Y-11161131D01*
X34669752Y-11149500D01*
X34669748Y-11149500D01*
X32930252Y-11149500D01*
X32930247Y-11149500D01*
X32871770Y-11161131D01*
X32871769Y-11161132D01*
X32805447Y-11205447D01*
X32761132Y-11271769D01*
X32761131Y-11271770D01*
X32749500Y-11330247D01*
X32749500Y-13069752D01*
X26100000Y-13069752D01*
X26100000Y-10300000D01*
X12900000Y-10300000D01*
X500500Y-10300000D01*
X500500Y-6002561D01*
X500553Y-6000000D01*
X4644341Y-6000000D01*
X4664936Y-6235403D01*
X4664938Y-6235413D01*
X4726094Y-6463655D01*
X4726096Y-6463659D01*
X4726097Y-6463663D01*
X4776031Y-6570746D01*
X4825964Y-6677828D01*
X4825965Y-6677830D01*
X4961505Y-6871402D01*
X5128597Y-7038494D01*
X5322169Y-7174034D01*
X5322171Y-7174035D01*
X5536337Y-7273903D01*
X5764592Y-7335063D01*
X5941032Y-7350499D01*
X5941033Y-7350500D01*
X5941034Y-7350500D01*
X6058967Y-7350500D01*
X6058967Y-7350499D01*
X6235408Y-7335063D01*
X6463663Y-7273903D01*
X6514916Y-7250003D01*
X7979508Y-7250003D01*
X7999352Y-7375300D01*
X7999352Y-7375301D01*
X7999354Y-7375304D01*
X8056950Y-7488342D01*
X8056952Y-7488344D01*
X8056954Y-7488347D01*
X8146652Y-7578045D01*
X8146654Y-7578046D01*
X8146658Y-7578050D01*
X8259696Y-7635646D01*
X8259697Y-7635646D01*
X8259699Y-7635647D01*
X8384997Y-7655492D01*
X8385000Y-7655492D01*
X8385003Y-7655492D01*
X8510300Y-7635647D01*
X8510301Y-7635647D01*
X8510302Y-7635646D01*
X8510304Y-7635646D01*
X8623342Y-7578050D01*
X8713050Y-7488342D01*
X8770646Y-7375304D01*
X8770646Y-7375302D01*
X8770647Y-7375301D01*
X8770647Y-7375300D01*
X8790492Y-7250003D01*
X8790492Y-7249996D01*
X8770647Y-7124699D01*
X8770647Y-7124698D01*
X8770646Y-7124696D01*
X8713050Y-7011658D01*
X8713046Y-7011654D01*
X8713045Y-7011652D01*
X8623347Y-6921954D01*
X8623344Y-6921952D01*
X8623342Y-6921950D01*
X8510304Y-6864354D01*
X8510303Y-6864353D01*
X8510300Y-6864352D01*
X8425375Y-6850902D01*
X10638296Y-6850902D01*
X10659379Y-6984021D01*
X10659380Y-6984024D01*
X10659381Y-6984026D01*
X10720572Y-7104120D01*
X10720573Y-7104121D01*
X10720576Y-7104125D01*
X10815874Y-7199423D01*
X10815878Y-7199426D01*
X10815880Y-7199428D01*
X10935974Y-7260619D01*
X10935976Y-7260619D01*
X10935978Y-7260620D01*
X11069098Y-7281704D01*
X11069100Y-7281704D01*
X11069102Y-7281704D01*
X11202221Y-7260620D01*
X11202221Y-7260619D01*
X11202226Y-7260619D01*
X11322320Y-7199428D01*
X11417628Y-7104120D01*
X11478819Y-6984026D01*
X11497773Y-6864354D01*
X11499904Y-6850902D01*
X11499904Y-6850897D01*
X11478820Y-6717778D01*
X11478819Y-6717776D01*
X11478819Y-6717774D01*
X11417628Y-6597680D01*
X11417626Y-6597678D01*
X11417623Y-6597674D01*
X11322325Y-6502376D01*
X11322321Y-6502373D01*
X11322320Y-6502372D01*
X11202226Y-6441181D01*
X11202224Y-6441180D01*
X11202221Y-6441179D01*
X11069102Y-6420096D01*
X11069098Y-6420096D01*
X10935978Y-6441179D01*
X10815878Y-6502373D01*
X10815874Y-6502376D01*
X10720576Y-6597674D01*
X10720573Y-6597678D01*
X10659379Y-6717778D01*
X10638296Y-6850897D01*
X10638296Y-6850902D01*
X8425375Y-6850902D01*
X8385003Y-6844508D01*
X8384997Y-6844508D01*
X8259699Y-6864352D01*
X8259698Y-6864352D01*
X8184337Y-6902751D01*
X8146658Y-6921950D01*
X8146657Y-6921951D01*
X8146652Y-6921954D01*
X8056954Y-7011652D01*
X8056951Y-7011657D01*
X7999352Y-7124698D01*
X7999352Y-7124699D01*
X7979508Y-7249996D01*
X7979508Y-7250003D01*
X6514916Y-7250003D01*
X6677829Y-7174035D01*
X6871401Y-7038495D01*
X7038495Y-6871401D01*
X7174035Y-6677830D01*
X7273903Y-6463663D01*
X7335063Y-6235408D01*
X7355659Y-6000000D01*
X30644341Y-6000000D01*
X30664936Y-6235403D01*
X30664938Y-6235413D01*
X30726094Y-6463655D01*
X30726096Y-6463659D01*
X30726097Y-6463663D01*
X30776031Y-6570746D01*
X30825964Y-6677828D01*
X30825965Y-6677830D01*
X30961505Y-6871402D01*
X31128597Y-7038494D01*
X31322169Y-7174034D01*
X31322171Y-7174035D01*
X31536337Y-7273903D01*
X31764592Y-7335063D01*
X31941032Y-7350499D01*
X31941033Y-7350500D01*
X31941034Y-7350500D01*
X32058967Y-7350500D01*
X32058967Y-7350499D01*
X32235408Y-7335063D01*
X32463663Y-7273903D01*
X32677829Y-7174035D01*
X32871401Y-7038495D01*
X33038495Y-6871401D01*
X33174035Y-6677830D01*
X33273903Y-6463663D01*
X33335063Y-6235408D01*
X33355659Y-6000000D01*
X33335063Y-5764592D01*
X33273903Y-5536337D01*
X33174035Y-5322171D01*
X33174034Y-5322169D01*
X33038494Y-5128597D01*
X32871402Y-4961505D01*
X32677830Y-4825965D01*
X32677828Y-4825964D01*
X32570746Y-4776031D01*
X32463663Y-4726097D01*
X32463659Y-4726096D01*
X32463655Y-4726094D01*
X32235413Y-4664938D01*
X32235403Y-4664936D01*
X32058967Y-4649500D01*
X32058966Y-4649500D01*
X31941034Y-4649500D01*
X31941033Y-4649500D01*
X31764596Y-4664936D01*
X31764586Y-4664938D01*
X31536344Y-4726094D01*
X31536335Y-4726098D01*
X31322171Y-4825964D01*
X31322169Y-4825965D01*
X31128597Y-4961505D01*
X30961506Y-5128597D01*
X30961501Y-5128604D01*
X30825967Y-5322165D01*
X30825965Y-5322169D01*
X30726098Y-5536335D01*
X30726094Y-5536344D01*
X30664938Y-5764586D01*
X30664936Y-5764596D01*
X30644341Y-5999999D01*
X30644341Y-6000000D01*
X7355659Y-6000000D01*
X7335063Y-5764592D01*
X7273903Y-5536337D01*
X7174035Y-5322171D01*
X7174034Y-5322169D01*
X7088493Y-5200003D01*
X18914508Y-5200003D01*
X18934352Y-5325300D01*
X18934352Y-5325301D01*
X18934354Y-5325304D01*
X18991950Y-5438342D01*
X18991952Y-5438344D01*
X18991954Y-5438347D01*
X19081652Y-5528045D01*
X19081654Y-5528046D01*
X19081658Y-5528050D01*
X19194696Y-5585646D01*
X19194697Y-5585646D01*
X19194699Y-5585647D01*
X19319997Y-5605492D01*
X19320000Y-5605492D01*
X19320003Y-5605492D01*
X19445300Y-5585647D01*
X19445301Y-5585647D01*
X19445302Y-5585646D01*
X19445304Y-5585646D01*
X19558342Y-5528050D01*
X19648050Y-5438342D01*
X19705646Y-5325304D01*
X19705646Y-5325302D01*
X19705647Y-5325301D01*
X19705647Y-5325300D01*
X19725492Y-5200003D01*
X19725492Y-5199996D01*
X19705647Y-5074699D01*
X19705647Y-5074698D01*
X19705646Y-5074696D01*
X19648050Y-4961658D01*
X19648046Y-4961654D01*
X19648045Y-4961652D01*
X19558347Y-4871954D01*
X19558344Y-4871952D01*
X19558342Y-4871950D01*
X19445304Y-4814354D01*
X19445303Y-4814353D01*
X19445300Y-4814352D01*
X19320003Y-4794508D01*
X19319997Y-4794508D01*
X19194699Y-4814352D01*
X19194698Y-4814352D01*
X19119337Y-4852751D01*
X19081658Y-4871950D01*
X19081657Y-4871951D01*
X19081652Y-4871954D01*
X18991954Y-4961652D01*
X18991951Y-4961657D01*
X18934352Y-5074698D01*
X18934352Y-5074699D01*
X18914508Y-5199996D01*
X18914508Y-5200003D01*
X7088493Y-5200003D01*
X7038494Y-5128597D01*
X6871402Y-4961505D01*
X6677830Y-4825965D01*
X6677828Y-4825964D01*
X6570746Y-4776031D01*
X6463663Y-4726097D01*
X6463659Y-4726096D01*
X6463655Y-4726094D01*
X6235413Y-4664938D01*
X6235403Y-4664936D01*
X6058967Y-4649500D01*
X6058966Y-4649500D01*
X5941034Y-4649500D01*
X5941033Y-4649500D01*
X5764596Y-4664936D01*
X5764586Y-4664938D01*
X5536344Y-4726094D01*
X5536335Y-4726098D01*
X5322171Y-4825964D01*
X5322169Y-4825965D01*
X5128597Y-4961505D01*
X4961506Y-5128597D01*
X4961501Y-5128604D01*
X4825967Y-5322165D01*
X4825965Y-5322169D01*
X4726098Y-5536335D01*
X4726094Y-5536344D01*
X4664938Y-5764586D01*
X4664936Y-5764596D01*
X4644341Y-5999999D01*
X4644341Y-6000000D01*
X500553Y-6000000D01*
X500606Y-5997437D01*
X501981Y-5964201D01*
X519072Y-5550961D01*
X519915Y-5540792D01*
X574874Y-5099881D01*
X576554Y-5089809D01*
X667734Y-4654951D01*
X670241Y-4645055D01*
X797022Y-4219205D01*
X800336Y-4209553D01*
X961840Y-3795654D01*
X965954Y-3786275D01*
X1161088Y-3387120D01*
X1165949Y-3378136D01*
X1393389Y-2996445D01*
X1398982Y-2987885D01*
X1657153Y-2626294D01*
X1663422Y-2618240D01*
X1950581Y-2279191D01*
X1957500Y-2271675D01*
X2271675Y-1957500D01*
X2279191Y-1950581D01*
X2464300Y-1793802D01*
X21069196Y-1793802D01*
X21090279Y-1926921D01*
X21090280Y-1926924D01*
X21090281Y-1926926D01*
X21151472Y-2047020D01*
X21151473Y-2047021D01*
X21151476Y-2047025D01*
X21246774Y-2142323D01*
X21246778Y-2142326D01*
X21246780Y-2142328D01*
X21366874Y-2203519D01*
X21366876Y-2203519D01*
X21366878Y-2203520D01*
X21499998Y-2224604D01*
X21500000Y-2224604D01*
X21500002Y-2224604D01*
X21633121Y-2203520D01*
X21633121Y-2203519D01*
X21633126Y-2203519D01*
X21753220Y-2142328D01*
X21848528Y-2047020D01*
X21909719Y-1926926D01*
X21930804Y-1793800D01*
X21910156Y-1663435D01*
X21909720Y-1660678D01*
X21909719Y-1660676D01*
X21909719Y-1660674D01*
X21848528Y-1540580D01*
X21848526Y-1540578D01*
X21848523Y-1540574D01*
X21753225Y-1445276D01*
X21753221Y-1445273D01*
X21753220Y-1445272D01*
X21633126Y-1384081D01*
X21633124Y-1384080D01*
X21633121Y-1384079D01*
X21500002Y-1362996D01*
X21499998Y-1362996D01*
X21366878Y-1384079D01*
X21246778Y-1445273D01*
X21246774Y-1445276D01*
X21151476Y-1540574D01*
X21151473Y-1540578D01*
X21090279Y-1660678D01*
X21069196Y-1793797D01*
X21069196Y-1793802D01*
X2464300Y-1793802D01*
X2618240Y-1663422D01*
X2626294Y-1657153D01*
X2987885Y-1398982D01*
X2996445Y-1393389D01*
X3378136Y-1165949D01*
X3387120Y-1161088D01*
X3786280Y-965951D01*
X3795654Y-961840D01*
X4209553Y-800336D01*
X4219205Y-797022D01*
X4645055Y-670241D01*
X4654951Y-667734D01*
X5089809Y-576554D01*
X5099881Y-574874D01*
X5540792Y-519915D01*
X5550961Y-519072D01*
X5997437Y-500605D01*
X6002561Y-500500D01*
X6065892Y-500500D01*
X31934108Y-500500D01*
X31997439Y-500500D01*
X32002562Y-500605D01*
G37*
%TD.AperFunction*%
%TD*%
M02*
