M48
; DRILL file {KiCad 7.0.11+dfsg-1build4} date Mon Jun 22 08:33:37 2026
; FORMAT={-:-/ absolute / metric / decimal}
; #@! TF.CreationDate,2026-06-22T08:33:37+00:00
; #@! TF.GenerationSoftware,Kicad,Pcbnew,7.0.11+dfsg-1build4
; #@! TF.FileFunction,Plated,1,4,PTH
FMAT,2
METRIC
; #@! TA.AperFunction,Plated,PTH,ComponentDrill
T1C0.600
; #@! TA.AperFunction,Plated,PTH,ComponentDrill
T2C0.650
; #@! TA.AperFunction,Plated,PTH,ComponentDrill
T3C1.000
%
G90
G05
T2
X3.4Y-41.8
X3.4Y-43.07
X3.4Y-44.34
X3.4Y-45.61
X3.4Y-46.88
X3.4Y-48.15
X11.0Y-67.9
X11.0Y-69.17
X11.0Y-70.44
X11.0Y-71.71
X28.7Y-67.9
X28.7Y-69.17
X28.7Y-70.44
X28.7Y-71.71
T3
X4.2Y-12.2
X4.2Y-14.74
X4.2Y-61.8
X4.2Y-64.34
X27.06Y-43.5
X27.06Y-46.04
X27.06Y-48.58
X27.06Y-51.12
X29.6Y-43.5
X29.6Y-46.04
X29.6Y-48.58
X29.6Y-51.12
X33.8Y-12.2
X33.8Y-14.74
X33.8Y-61.8
X33.8Y-64.34
T1
X1.92Y-25.28G85X3.02Y-25.28
G05
X1.92Y-33.92G85X3.02Y-33.92
G05
X6.35Y-25.28G85X6.95Y-25.28
G05
X6.35Y-33.92G85X6.95Y-33.92
G05
M30
