%TF.GenerationSoftware,KiCad,Pcbnew,7.0.11+dfsg-1build4*%
%TF.CreationDate,2026-06-17T00:40:04+00:00*%
%TF.ProjectId,stratosdrone,73747261-746f-4736-9472-6f6e652e6b69,rev?*%
%TF.SameCoordinates,Original*%
%TF.FileFunction,Soldermask,Top*%
%TF.FilePolarity,Negative*%
%FSLAX46Y46*%
G04 Gerber Fmt 4.6, Leading zero omitted, Abs format (unit mm)*
G04 Created by KiCad (PCBNEW 7.0.11+dfsg-1build4) date 2026-06-17 00:40:04*
%MOMM*%
%LPD*%
G01*
G04 APERTURE LIST*
G04 Aperture macros list*
%AMRoundRect*
0 Rectangle with rounded corners*
0 $1 Rounding radius*
0 $2 $3 $4 $5 $6 $7 $8 $9 X,Y pos of 4 corners*
0 Add a 4 corners polygon primitive as box body*
4,1,4,$2,$3,$4,$5,$6,$7,$8,$9,$2,$3,0*
0 Add four circle primitives for the rounded corners*
1,1,$1+$1,$2,$3*
1,1,$1+$1,$4,$5*
1,1,$1+$1,$6,$7*
1,1,$1+$1,$8,$9*
0 Add four rect primitives between the rounded corners*
20,1,$1+$1,$2,$3,$4,$5,0*
20,1,$1+$1,$4,$5,$6,$7,0*
20,1,$1+$1,$6,$7,$8,$9,0*
20,1,$1+$1,$8,$9,$2,$3,0*%
%AMFreePoly0*
4,1,6,0.725000,-0.725000,-0.725000,-0.725000,-0.725000,0.125000,-0.125000,0.725000,0.725000,0.725000,0.725000,-0.725000,0.725000,-0.725000,$1*%
G04 Aperture macros list end*
%ADD10RoundRect,0.250000X-0.250000X-0.475000X0.250000X-0.475000X0.250000X0.475000X-0.250000X0.475000X0*%
%ADD11RoundRect,0.150000X-0.512500X-0.150000X0.512500X-0.150000X0.512500X0.150000X-0.512500X0.150000X0*%
%ADD12RoundRect,0.135000X-0.135000X-0.185000X0.135000X-0.185000X0.135000X0.185000X-0.135000X0.185000X0*%
%ADD13R,0.300000X1.300000*%
%ADD14R,1.800000X2.200000*%
%ADD15C,2.200000*%
%ADD16R,0.800000X0.400000*%
%ADD17R,0.400000X0.800000*%
%ADD18FreePoly0,0.000000*%
%ADD19R,1.450000X1.450000*%
%ADD20R,0.700000X0.700000*%
%ADD21RoundRect,0.150000X-0.587500X-0.150000X0.587500X-0.150000X0.587500X0.150000X-0.587500X0.150000X0*%
%ADD22RoundRect,0.218750X-0.218750X-0.381250X0.218750X-0.381250X0.218750X0.381250X-0.218750X0.381250X0*%
%ADD23RoundRect,0.140000X-0.140000X-0.170000X0.140000X-0.170000X0.140000X0.170000X-0.140000X0.170000X0*%
%ADD24R,1.700000X1.700000*%
%ADD25O,1.700000X1.700000*%
%ADD26RoundRect,0.250000X-1.000000X-0.650000X1.000000X-0.650000X1.000000X0.650000X-1.000000X0.650000X0*%
%ADD27R,0.350000X0.500000*%
%ADD28RoundRect,0.062500X-0.062500X-0.350000X0.062500X-0.350000X0.062500X0.350000X-0.062500X0.350000X0*%
%ADD29RoundRect,0.062500X-0.350000X-0.062500X0.350000X-0.062500X0.350000X0.062500X-0.350000X0.062500X0*%
%ADD30R,1.000000X1.500000*%
%ADD31R,1.500000X1.500000*%
%ADD32RoundRect,0.250000X-0.250000X-1.500000X0.250000X-1.500000X0.250000X1.500000X-0.250000X1.500000X0*%
%ADD33RoundRect,0.250001X-0.499999X-1.449999X0.499999X-1.449999X0.499999X1.449999X-0.499999X1.449999X0*%
%ADD34R,1.000000X1.000000*%
%ADD35O,1.000000X1.000000*%
%ADD36O,0.650000X0.200000*%
%ADD37O,0.200000X0.650000*%
%ADD38R,2.100000X2.100000*%
%ADD39R,1.400000X2.700000*%
%ADD40R,1.400000X1.200000*%
%ADD41C,0.650000*%
%ADD42R,1.450000X0.600000*%
%ADD43R,1.450000X0.300000*%
%ADD44O,2.100000X1.000000*%
%ADD45O,1.600000X1.000000*%
%ADD46RoundRect,0.150000X-0.825000X-0.150000X0.825000X-0.150000X0.825000X0.150000X-0.825000X0.150000X0*%
%ADD47R,2.410000X3.810000*%
%ADD48RoundRect,0.225000X-0.225000X-0.250000X0.225000X-0.250000X0.225000X0.250000X-0.225000X0.250000X0*%
G04 APERTURE END LIST*
D10*
%TO.C,C2*%
X8482204Y-62192284D03*
X10382204Y-62192284D03*
%TD*%
D11*
%TO.C,U10*%
X13036717Y-10333013D03*
X13036717Y-11283013D03*
X13036717Y-12233013D03*
X15311717Y-12233013D03*
X15311717Y-10333013D03*
%TD*%
D12*
%TO.C,R23*%
X6412494Y-42111640D03*
X7432494Y-42111640D03*
%TD*%
D13*
%TO.C,J4*%
X14500000Y-2650000D03*
X15000000Y-2650000D03*
X15500000Y-2650000D03*
X16000000Y-2650000D03*
X16500000Y-2650000D03*
X17000000Y-2650000D03*
X17500000Y-2650000D03*
X18000000Y-2650000D03*
X18500000Y-2650000D03*
X19000000Y-2650000D03*
X19500000Y-2650000D03*
X20000000Y-2650000D03*
X20500000Y-2650000D03*
X21000000Y-2650000D03*
X21500000Y-2650000D03*
D14*
X12600000Y-5900000D03*
X23400000Y-5900000D03*
%TD*%
D15*
%TO.C,*%
X31000000Y-65000000D03*
%TD*%
D16*
%TO.C,U3*%
X12100000Y-14700000D03*
X12100000Y-15500000D03*
X12100000Y-16300000D03*
X12100000Y-17100000D03*
X12100000Y-17900000D03*
X12100000Y-18700000D03*
X12100000Y-19500000D03*
X12100000Y-20300000D03*
X12100000Y-21100000D03*
X12100000Y-21900000D03*
X12100000Y-22700000D03*
D17*
X13200000Y-23600000D03*
X14000000Y-23600000D03*
X14800000Y-23600000D03*
X15600000Y-23600000D03*
X16400000Y-23600000D03*
X17200000Y-23600000D03*
X18000000Y-23600000D03*
X18800000Y-23600000D03*
X19600000Y-23600000D03*
X20400000Y-23600000D03*
X21200000Y-23600000D03*
X22000000Y-23600000D03*
X22800000Y-23600000D03*
D16*
X23900000Y-22700000D03*
X23900000Y-21900000D03*
X23900000Y-21100000D03*
X23900000Y-20300000D03*
X23900000Y-19500000D03*
X23900000Y-18700000D03*
X23900000Y-17900000D03*
X23900000Y-17100000D03*
X23900000Y-16300000D03*
X23900000Y-15500000D03*
X23900000Y-14700000D03*
D17*
X22800000Y-13800000D03*
X22000000Y-13800000D03*
X21200000Y-13800000D03*
X20400000Y-13800000D03*
X19600000Y-13800000D03*
X18800000Y-13800000D03*
X18000000Y-13800000D03*
X17200000Y-13800000D03*
X16400000Y-13800000D03*
X15600000Y-13800000D03*
X14800000Y-13800000D03*
X14000000Y-13800000D03*
X13200000Y-13800000D03*
D18*
X16025000Y-16725000D03*
D19*
X16025000Y-18700000D03*
X16025000Y-20675000D03*
X18000000Y-16725000D03*
X18000000Y-18700000D03*
X18000000Y-20675000D03*
X19975000Y-16725000D03*
X19975000Y-18700000D03*
X19975000Y-20675000D03*
D20*
X23950000Y-13750000D03*
X23950000Y-23650000D03*
X12050000Y-23650000D03*
X12050000Y-13750000D03*
%TD*%
D21*
%TO.C,Q4*%
X5062500Y-15050000D03*
X5062500Y-16950000D03*
X6937500Y-16000000D03*
%TD*%
D12*
%TO.C,R26*%
X30878427Y-18883100D03*
X31898427Y-18883100D03*
%TD*%
D22*
%TO.C,L1*%
X25937500Y-57000000D03*
X28062500Y-57000000D03*
%TD*%
D12*
%TO.C,R24*%
X21618488Y-48798541D03*
X22638488Y-48798541D03*
%TD*%
D21*
%TO.C,Q3*%
X5062500Y-54050000D03*
X5062500Y-55950000D03*
X6937500Y-55000000D03*
%TD*%
D12*
%TO.C,R29*%
X6878427Y-13116899D03*
X7898427Y-13116899D03*
%TD*%
D23*
%TO.C,C6*%
X22869556Y-59878855D03*
X23829556Y-59878855D03*
%TD*%
D12*
%TO.C,R27*%
X33290000Y-55000000D03*
X34310000Y-55000000D03*
%TD*%
D10*
%TO.C,C3*%
X32176251Y-45265050D03*
X34076251Y-45265050D03*
%TD*%
D24*
%TO.C,J6*%
X32000000Y-59000000D03*
D25*
X32000000Y-61540000D03*
%TD*%
D23*
%TO.C,C12*%
X10146009Y-33897699D03*
X11106009Y-33897699D03*
%TD*%
D26*
%TO.C,D5*%
X2874567Y-51349827D03*
X6874567Y-51349827D03*
%TD*%
D12*
%TO.C,R25*%
X12706457Y-48548494D03*
X13726457Y-48548494D03*
%TD*%
%TO.C,R31*%
X24130031Y-45004372D03*
X25150031Y-45004372D03*
%TD*%
D15*
%TO.C,*%
X31000000Y-5000000D03*
%TD*%
D27*
%TO.C,U7*%
X28025000Y-46200000D03*
X28675000Y-46200000D03*
X29325000Y-46200000D03*
X29975000Y-46200000D03*
X29975000Y-47800000D03*
X29325000Y-47800000D03*
X28675000Y-47800000D03*
X28025000Y-47800000D03*
%TD*%
D23*
%TO.C,C8*%
X33320000Y-33000000D03*
X34280000Y-33000000D03*
%TD*%
%TO.C,C15*%
X12436702Y-43936864D03*
X13396702Y-43936864D03*
%TD*%
D28*
%TO.C,U6*%
X7750000Y-45562500D03*
D29*
X6812500Y-46000000D03*
X6812500Y-46500000D03*
X6812500Y-47000000D03*
X6812500Y-47500000D03*
X6812500Y-48000000D03*
D28*
X7750000Y-48437500D03*
X8250000Y-48437500D03*
D29*
X9187500Y-48000000D03*
X9187500Y-47500000D03*
X9187500Y-47000000D03*
X9187500Y-46500000D03*
X9187500Y-46000000D03*
D28*
X8250000Y-45562500D03*
D30*
X8000000Y-47000000D03*
%TD*%
D23*
%TO.C,C20*%
X18218285Y-28127435D03*
X19178285Y-28127435D03*
%TD*%
%TO.C,C17*%
X24754780Y-32350488D03*
X25714780Y-32350488D03*
%TD*%
D20*
%TO.C,LED2*%
X28085000Y-21450000D03*
X28085000Y-22550000D03*
X29915000Y-22550000D03*
X29915000Y-21450000D03*
%TD*%
D23*
%TO.C,C35*%
X27649313Y-19550121D03*
X28609313Y-19550121D03*
%TD*%
D12*
%TO.C,R6*%
X21966104Y-51123305D03*
X22986104Y-51123305D03*
%TD*%
%TO.C,R15*%
X18709220Y-47932223D03*
X19729220Y-47932223D03*
%TD*%
D23*
%TO.C,C38*%
X24920000Y-37000000D03*
X25880000Y-37000000D03*
%TD*%
D31*
%TO.C,SW1*%
X29100000Y-40000000D03*
X36900000Y-40000000D03*
%TD*%
D23*
%TO.C,C18*%
X10319748Y-31768711D03*
X11279748Y-31768711D03*
%TD*%
%TO.C,C10*%
X32520000Y-42300000D03*
X33480000Y-42300000D03*
%TD*%
D32*
%TO.C,J1*%
X17000000Y-64150000D03*
X19000000Y-64150000D03*
D33*
X14650000Y-69900000D03*
X21350000Y-69900000D03*
%TD*%
D15*
%TO.C,*%
X5000000Y-5000000D03*
%TD*%
D23*
%TO.C,C16*%
X22882012Y-30276249D03*
X23842012Y-30276249D03*
%TD*%
D12*
%TO.C,R14*%
X15402533Y-26505597D03*
X16422533Y-26505597D03*
%TD*%
%TO.C,R5*%
X26373322Y-59647604D03*
X27393322Y-59647604D03*
%TD*%
D26*
%TO.C,D6*%
X18099999Y-11000000D03*
X22099999Y-11000000D03*
%TD*%
D23*
%TO.C,C9*%
X32567987Y-29826709D03*
X33527987Y-29826709D03*
%TD*%
D12*
%TO.C,R28*%
X6878427Y-57883100D03*
X7898427Y-57883100D03*
%TD*%
D21*
%TO.C,Q2*%
X29062500Y-54050000D03*
X29062500Y-55950000D03*
X30937500Y-55000000D03*
%TD*%
D23*
%TO.C,C22*%
X14920201Y-46137343D03*
X15880201Y-46137343D03*
%TD*%
D12*
%TO.C,R10*%
X32490000Y-47700000D03*
X33510000Y-47700000D03*
%TD*%
D34*
%TO.C,J10*%
X13000000Y-64000000D03*
D35*
X13000000Y-65270000D03*
X13000000Y-66540000D03*
X13000000Y-67810000D03*
%TD*%
D26*
%TO.C,D2*%
X2600000Y-8250000D03*
X6600000Y-8250000D03*
%TD*%
D12*
%TO.C,R17*%
X15566247Y-48135042D03*
X16586247Y-48135042D03*
%TD*%
%TO.C,R4*%
X19854570Y-60140782D03*
X20874570Y-60140782D03*
%TD*%
%TO.C,R13*%
X7154593Y-34230636D03*
X8174593Y-34230636D03*
%TD*%
D34*
%TO.C,J9*%
X4000000Y-40000000D03*
D35*
X4000000Y-41270000D03*
X4000000Y-42540000D03*
X4000000Y-43810000D03*
X4000000Y-45080000D03*
X4000000Y-46350000D03*
%TD*%
D10*
%TO.C,C4*%
X8792662Y-65595522D03*
X10692662Y-65595522D03*
%TD*%
D12*
%TO.C,R11*%
X25605377Y-30496105D03*
X26625377Y-30496105D03*
%TD*%
D21*
%TO.C,Q1*%
X29062500Y-15050000D03*
X29062500Y-16950000D03*
X30937500Y-16000000D03*
%TD*%
D12*
%TO.C,R2*%
X6540704Y-30050000D03*
X7560704Y-30050000D03*
%TD*%
D23*
%TO.C,C14*%
X17695427Y-45598210D03*
X18655427Y-45598210D03*
%TD*%
%TO.C,C33*%
X18231957Y-8537711D03*
X19191957Y-8537711D03*
%TD*%
D12*
%TO.C,R22*%
X21432096Y-25771915D03*
X22452096Y-25771915D03*
%TD*%
%TO.C,R1*%
X6490000Y-28000000D03*
X7510000Y-28000000D03*
%TD*%
%TO.C,R12*%
X12140000Y-46266471D03*
X13160000Y-46266471D03*
%TD*%
%TO.C,R20*%
X28100897Y-42386915D03*
X29120897Y-42386915D03*
%TD*%
D36*
%TO.C,U1*%
X13125000Y-32625000D03*
X13125000Y-32975000D03*
X13125000Y-33325000D03*
X13125000Y-33675000D03*
X13125000Y-34025000D03*
X13125000Y-34375000D03*
X13125000Y-34725000D03*
X13125000Y-35075000D03*
X13125000Y-35425000D03*
X13125000Y-35775000D03*
X13125000Y-36125000D03*
X13125000Y-36475000D03*
X13125000Y-36825000D03*
X13125000Y-37175000D03*
X13125000Y-37525000D03*
X13125000Y-37875000D03*
X13125000Y-38225000D03*
X13125000Y-38575000D03*
X13125000Y-38925000D03*
X13125000Y-39275000D03*
X13125000Y-39625000D03*
X13125000Y-39975000D03*
X13125000Y-40325000D03*
X13125000Y-40675000D03*
X13125000Y-41025000D03*
X13125000Y-41375000D03*
D37*
X13625000Y-41875000D03*
X13975000Y-41875000D03*
X14325000Y-41875000D03*
X14675000Y-41875000D03*
X15025000Y-41875000D03*
X15375000Y-41875000D03*
X15725000Y-41875000D03*
X16075000Y-41875000D03*
X16425000Y-41875000D03*
X16775000Y-41875000D03*
X17125000Y-41875000D03*
X17475000Y-41875000D03*
X17825000Y-41875000D03*
X18175000Y-41875000D03*
X18525000Y-41875000D03*
X18875000Y-41875000D03*
X19225000Y-41875000D03*
X19575000Y-41875000D03*
X19925000Y-41875000D03*
X20275000Y-41875000D03*
X20625000Y-41875000D03*
X20975000Y-41875000D03*
X21325000Y-41875000D03*
X21675000Y-41875000D03*
X22025000Y-41875000D03*
X22375000Y-41875000D03*
D36*
X22875000Y-41375000D03*
X22875000Y-41025000D03*
X22875000Y-40675000D03*
X22875000Y-40325000D03*
X22875000Y-39975000D03*
X22875000Y-39625000D03*
X22875000Y-39275000D03*
X22875000Y-38925000D03*
X22875000Y-38575000D03*
X22875000Y-38225000D03*
X22875000Y-37875000D03*
X22875000Y-37525000D03*
X22875000Y-37175000D03*
X22875000Y-36825000D03*
X22875000Y-36475000D03*
X22875000Y-36125000D03*
X22875000Y-35775000D03*
X22875000Y-35425000D03*
X22875000Y-35075000D03*
X22875000Y-34725000D03*
X22875000Y-34375000D03*
X22875000Y-34025000D03*
X22875000Y-33675000D03*
X22875000Y-33325000D03*
X22875000Y-32975000D03*
X22875000Y-32625000D03*
D37*
X22375000Y-32125000D03*
X22025000Y-32125000D03*
X21675000Y-32125000D03*
X21325000Y-32125000D03*
X20975000Y-32125000D03*
X20625000Y-32125000D03*
X20275000Y-32125000D03*
X19925000Y-32125000D03*
X19575000Y-32125000D03*
X19225000Y-32125000D03*
X18875000Y-32125000D03*
X18525000Y-32125000D03*
X18175000Y-32125000D03*
X17825000Y-32125000D03*
X17475000Y-32125000D03*
X17125000Y-32125000D03*
X16775000Y-32125000D03*
X16425000Y-32125000D03*
X16075000Y-32125000D03*
X15725000Y-32125000D03*
X15375000Y-32125000D03*
X15025000Y-32125000D03*
X14675000Y-32125000D03*
X14325000Y-32125000D03*
X13975000Y-32125000D03*
X13625000Y-32125000D03*
D38*
X15300000Y-34300000D03*
X15300000Y-37000000D03*
X15300000Y-39700000D03*
X18000000Y-34300000D03*
X18000000Y-37000000D03*
X18000000Y-39700000D03*
X20700000Y-34300000D03*
X20700000Y-37000000D03*
X20700000Y-39700000D03*
%TD*%
D39*
%TO.C,L2*%
X26357336Y-12119043D03*
X28457336Y-12119043D03*
%TD*%
D23*
%TO.C,C37*%
X18393108Y-43743714D03*
X19353108Y-43743714D03*
%TD*%
%TO.C,C41*%
X24714832Y-34256938D03*
X25674832Y-34256938D03*
%TD*%
D10*
%TO.C,C36*%
X13575383Y-50871446D03*
X15475383Y-50871446D03*
%TD*%
D23*
%TO.C,C42*%
X15258744Y-43730284D03*
X16218744Y-43730284D03*
%TD*%
D20*
%TO.C,LED1*%
X6085000Y-21450000D03*
X6085000Y-22550000D03*
X7915000Y-22550000D03*
X7915000Y-21450000D03*
%TD*%
D12*
%TO.C,R16*%
X23870626Y-28039664D03*
X24890626Y-28039664D03*
%TD*%
D40*
%TO.C,Y1*%
X28900000Y-33850000D03*
X31100000Y-33850000D03*
X31100000Y-32150000D03*
X28900000Y-32150000D03*
%TD*%
D26*
%TO.C,D3*%
X29298332Y-25282775D03*
X33298332Y-25282775D03*
%TD*%
D12*
%TO.C,R21*%
X27090000Y-64000000D03*
X28110000Y-64000000D03*
%TD*%
D41*
%TO.C,J2*%
X900000Y-30890000D03*
X900000Y-25110000D03*
D42*
X-545000Y-31250000D03*
X-545000Y-30450000D03*
D43*
X-545000Y-29250000D03*
X-545000Y-28250000D03*
X-545000Y-27750000D03*
X-545000Y-26750000D03*
D42*
X-545000Y-25550000D03*
X-545000Y-24750000D03*
X-545000Y-24750000D03*
X-545000Y-25550000D03*
D43*
X-545000Y-26250000D03*
X-545000Y-27250000D03*
X-545000Y-28750000D03*
X-545000Y-29750000D03*
D42*
X-545000Y-30450000D03*
X-545000Y-31250000D03*
D44*
X370000Y-32320000D03*
D45*
X4550000Y-32320000D03*
D44*
X370000Y-23680000D03*
D45*
X4550000Y-23680000D03*
%TD*%
D11*
%TO.C,U5*%
X21862500Y-56050000D03*
X21862500Y-57000000D03*
X21862500Y-57950000D03*
X24137500Y-57950000D03*
X24137500Y-56050000D03*
%TD*%
D12*
%TO.C,R19*%
X23491118Y-46927062D03*
X24511118Y-46927062D03*
%TD*%
D24*
%TO.C,J8*%
X4000000Y-11000000D03*
D25*
X4000000Y-13540000D03*
%TD*%
D12*
%TO.C,R3*%
X13139380Y-54216210D03*
X14159380Y-54216210D03*
%TD*%
D10*
%TO.C,C1*%
X16193852Y-53733128D03*
X18093852Y-53733128D03*
%TD*%
D26*
%TO.C,D4*%
X21434714Y-53647815D03*
X25434714Y-53647815D03*
%TD*%
D23*
%TO.C,C25*%
X20944748Y-27817892D03*
X21904748Y-27817892D03*
%TD*%
D12*
%TO.C,R30*%
X27890000Y-37000000D03*
X28910000Y-37000000D03*
%TD*%
D23*
%TO.C,C23*%
X9442937Y-42001105D03*
X10402937Y-42001105D03*
%TD*%
D12*
%TO.C,R9*%
X32490000Y-37700000D03*
X33510000Y-37700000D03*
%TD*%
D23*
%TO.C,C40*%
X24934463Y-39077435D03*
X25894463Y-39077435D03*
%TD*%
D11*
%TO.C,D1*%
X10362500Y-27050000D03*
X10362500Y-28000000D03*
X10362500Y-28950000D03*
X12637500Y-28950000D03*
X12637500Y-28000000D03*
X12637500Y-27050000D03*
%TD*%
D46*
%TO.C,U4*%
X11525000Y-56095000D03*
X11525000Y-57365000D03*
X11525000Y-58635000D03*
X11525000Y-59905000D03*
X16475000Y-59905000D03*
X16475000Y-58635000D03*
X16475000Y-57365000D03*
X16475000Y-56095000D03*
D47*
X14000000Y-58000000D03*
%TD*%
D46*
%TO.C,U2*%
X6525000Y-36095000D03*
X6525000Y-37365000D03*
X6525000Y-38635000D03*
X6525000Y-39905000D03*
X11475000Y-39905000D03*
X11475000Y-38635000D03*
X11475000Y-37365000D03*
X11475000Y-36095000D03*
%TD*%
D23*
%TO.C,C19*%
X15442336Y-28345907D03*
X16402336Y-28345907D03*
%TD*%
%TO.C,C29*%
X9737382Y-52467468D03*
X10697382Y-52467468D03*
%TD*%
%TO.C,C24*%
X25365304Y-42872921D03*
X26325304Y-42872921D03*
%TD*%
%TO.C,C34*%
X5649313Y-19550121D03*
X6609313Y-19550121D03*
%TD*%
%TO.C,C7*%
X16995206Y-30220280D03*
X17955206Y-30220280D03*
%TD*%
D12*
%TO.C,R18*%
X18367827Y-25734148D03*
X19387827Y-25734148D03*
%TD*%
D10*
%TO.C,C5*%
X28617342Y-29113519D03*
X30517342Y-29113519D03*
%TD*%
D48*
%TO.C,C26*%
X17926301Y-50381635D03*
X19476301Y-50381635D03*
%TD*%
D15*
%TO.C,*%
X5000000Y-65000000D03*
%TD*%
D23*
%TO.C,C39*%
X19940302Y-30006993D03*
X20900302Y-30006993D03*
%TD*%
D12*
%TO.C,R8*%
X27597697Y-61489034D03*
X28617697Y-61489034D03*
%TD*%
D34*
%TO.C,J11*%
X25000000Y-64000000D03*
D35*
X25000000Y-65270000D03*
X25000000Y-66540000D03*
X25000000Y-67810000D03*
%TD*%
D24*
%TO.C,J7*%
X4000000Y-59000000D03*
D25*
X4000000Y-61540000D03*
%TD*%
D23*
%TO.C,C21*%
X20455661Y-46035036D03*
X21415661Y-46035036D03*
%TD*%
%TO.C,C30*%
X28342569Y-44406061D03*
X29302569Y-44406061D03*
%TD*%
D31*
%TO.C,SW2*%
X29100000Y-50000000D03*
X36900000Y-50000000D03*
%TD*%
D24*
%TO.C,J5*%
X32000000Y-11000000D03*
D25*
X32000000Y-13540000D03*
%TD*%
D23*
%TO.C,C11*%
X21417382Y-43986444D03*
X22377382Y-43986444D03*
%TD*%
%TO.C,C28*%
X10019484Y-50621129D03*
X10979484Y-50621129D03*
%TD*%
%TO.C,C13*%
X24766017Y-41047868D03*
X25726017Y-41047868D03*
%TD*%
D48*
%TO.C,C27*%
X8578415Y-43799748D03*
X10128415Y-43799748D03*
%TD*%
D12*
%TO.C,R7*%
X24895898Y-50961651D03*
X25915898Y-50961651D03*
%TD*%
D24*
%TO.C,J3*%
X29000000Y-43000000D03*
D25*
X26460000Y-43000000D03*
X29000000Y-45540000D03*
X26460000Y-45540000D03*
X29000000Y-48080000D03*
X26460000Y-48080000D03*
X29000000Y-50620000D03*
X26460000Y-50620000D03*
%TD*%
M02*
