%TF.GenerationSoftware,KiCad,Pcbnew,7.0.11+dfsg-1build4*%
%TF.CreationDate,2026-06-22T08:33:36+00:00*%
%TF.ProjectId,stratosdrone,73747261-746f-4736-9472-6f6e652e6b69,rev?*%
%TF.SameCoordinates,Original*%
%TF.FileFunction,Legend,Top*%
%TF.FilePolarity,Positive*%
%FSLAX46Y46*%
G04 Gerber Fmt 4.6, Leading zero omitted, Abs format (unit mm)*
G04 Created by KiCad (PCBNEW 7.0.11+dfsg-1build4) date 2026-06-22 08:33:36*
%MOMM*%
%LPD*%
G01*
G04 APERTURE LIST*
%ADD10C,0.150000*%
%ADD11C,0.140000*%
%ADD12C,0.210000*%
%ADD13C,0.120000*%
%ADD14C,0.300000*%
%ADD15C,0.100000*%
G04 APERTURE END LIST*
D10*
X2500000Y-2000000D02*
X35500000Y-2000000D01*
X35500000Y-21500000D02*
X35500000Y-40000000D01*
X3000000Y-10500000D02*
X35000000Y-10500000D01*
X35000000Y-10500000D02*
X35000000Y-20000000D01*
X35500000Y-40000000D02*
X2500000Y-40000000D01*
X2500000Y-21500000D02*
X35500000Y-21500000D01*
X35000000Y-20000000D02*
X3000000Y-20000000D01*
X2500000Y-9500000D02*
X2500000Y-2000000D01*
X35500000Y-2000000D02*
X35500000Y-9500000D01*
X2500000Y-40000000D02*
X2500000Y-21500000D01*
X3000000Y-20000000D02*
X3000000Y-10500000D01*
X35500000Y-9500000D02*
X2500000Y-9500000D01*
D11*
X1306390Y-63382577D02*
X1306390Y-62482577D01*
X1306390Y-62482577D02*
X1606390Y-63125434D01*
X1606390Y-63125434D02*
X1906390Y-62482577D01*
X1906390Y-62482577D02*
X1906390Y-63382577D01*
X2249247Y-62482577D02*
X2806390Y-62482577D01*
X2806390Y-62482577D02*
X2506390Y-62825434D01*
X2506390Y-62825434D02*
X2634961Y-62825434D01*
X2634961Y-62825434D02*
X2720676Y-62868291D01*
X2720676Y-62868291D02*
X2763533Y-62911148D01*
X2763533Y-62911148D02*
X2806390Y-62996862D01*
X2806390Y-62996862D02*
X2806390Y-63211148D01*
X2806390Y-63211148D02*
X2763533Y-63296862D01*
X2763533Y-63296862D02*
X2720676Y-63339720D01*
X2720676Y-63339720D02*
X2634961Y-63382577D01*
X2634961Y-63382577D02*
X2377818Y-63382577D01*
X2377818Y-63382577D02*
X2292104Y-63339720D01*
X2292104Y-63339720D02*
X2249247Y-63296862D01*
D12*
X4904823Y-1351080D02*
X5104823Y-1417746D01*
X5104823Y-1417746D02*
X5438157Y-1417746D01*
X5438157Y-1417746D02*
X5571490Y-1351080D01*
X5571490Y-1351080D02*
X5638157Y-1284413D01*
X5638157Y-1284413D02*
X5704823Y-1151080D01*
X5704823Y-1151080D02*
X5704823Y-1017746D01*
X5704823Y-1017746D02*
X5638157Y-884413D01*
X5638157Y-884413D02*
X5571490Y-817746D01*
X5571490Y-817746D02*
X5438157Y-751080D01*
X5438157Y-751080D02*
X5171490Y-684413D01*
X5171490Y-684413D02*
X5038157Y-617746D01*
X5038157Y-617746D02*
X4971490Y-551080D01*
X4971490Y-551080D02*
X4904823Y-417746D01*
X4904823Y-417746D02*
X4904823Y-284413D01*
X4904823Y-284413D02*
X4971490Y-151080D01*
X4971490Y-151080D02*
X5038157Y-84413D01*
X5038157Y-84413D02*
X5171490Y-17746D01*
X5171490Y-17746D02*
X5504823Y-17746D01*
X5504823Y-17746D02*
X5704823Y-84413D01*
X6104823Y-17746D02*
X6904823Y-17746D01*
X6504823Y-1417746D02*
X6504823Y-17746D01*
X8171490Y-1417746D02*
X7704823Y-751080D01*
X7371490Y-1417746D02*
X7371490Y-17746D01*
X7371490Y-17746D02*
X7904823Y-17746D01*
X7904823Y-17746D02*
X8038157Y-84413D01*
X8038157Y-84413D02*
X8104823Y-151080D01*
X8104823Y-151080D02*
X8171490Y-284413D01*
X8171490Y-284413D02*
X8171490Y-484413D01*
X8171490Y-484413D02*
X8104823Y-617746D01*
X8104823Y-617746D02*
X8038157Y-684413D01*
X8038157Y-684413D02*
X7904823Y-751080D01*
X7904823Y-751080D02*
X7371490Y-751080D01*
X8704823Y-1017746D02*
X9371490Y-1017746D01*
X8571490Y-1417746D02*
X9038157Y-17746D01*
X9038157Y-17746D02*
X9504823Y-1417746D01*
X9771490Y-17746D02*
X10571490Y-17746D01*
X10171490Y-1417746D02*
X10171490Y-17746D01*
X11304824Y-17746D02*
X11571490Y-17746D01*
X11571490Y-17746D02*
X11704824Y-84413D01*
X11704824Y-84413D02*
X11838157Y-217746D01*
X11838157Y-217746D02*
X11904824Y-484413D01*
X11904824Y-484413D02*
X11904824Y-951080D01*
X11904824Y-951080D02*
X11838157Y-1217746D01*
X11838157Y-1217746D02*
X11704824Y-1351080D01*
X11704824Y-1351080D02*
X11571490Y-1417746D01*
X11571490Y-1417746D02*
X11304824Y-1417746D01*
X11304824Y-1417746D02*
X11171490Y-1351080D01*
X11171490Y-1351080D02*
X11038157Y-1217746D01*
X11038157Y-1217746D02*
X10971490Y-951080D01*
X10971490Y-951080D02*
X10971490Y-484413D01*
X10971490Y-484413D02*
X11038157Y-217746D01*
X11038157Y-217746D02*
X11171490Y-84413D01*
X11171490Y-84413D02*
X11304824Y-17746D01*
X12438157Y-1351080D02*
X12638157Y-1417746D01*
X12638157Y-1417746D02*
X12971491Y-1417746D01*
X12971491Y-1417746D02*
X13104824Y-1351080D01*
X13104824Y-1351080D02*
X13171491Y-1284413D01*
X13171491Y-1284413D02*
X13238157Y-1151080D01*
X13238157Y-1151080D02*
X13238157Y-1017746D01*
X13238157Y-1017746D02*
X13171491Y-884413D01*
X13171491Y-884413D02*
X13104824Y-817746D01*
X13104824Y-817746D02*
X12971491Y-751080D01*
X12971491Y-751080D02*
X12704824Y-684413D01*
X12704824Y-684413D02*
X12571491Y-617746D01*
X12571491Y-617746D02*
X12504824Y-551080D01*
X12504824Y-551080D02*
X12438157Y-417746D01*
X12438157Y-417746D02*
X12438157Y-284413D01*
X12438157Y-284413D02*
X12504824Y-151080D01*
X12504824Y-151080D02*
X12571491Y-84413D01*
X12571491Y-84413D02*
X12704824Y-17746D01*
X12704824Y-17746D02*
X13038157Y-17746D01*
X13038157Y-17746D02*
X13238157Y-84413D01*
X13838157Y-1417746D02*
X13838157Y-17746D01*
X13838157Y-17746D02*
X14171490Y-17746D01*
X14171490Y-17746D02*
X14371490Y-84413D01*
X14371490Y-84413D02*
X14504824Y-217746D01*
X14504824Y-217746D02*
X14571490Y-351080D01*
X14571490Y-351080D02*
X14638157Y-617746D01*
X14638157Y-617746D02*
X14638157Y-817746D01*
X14638157Y-817746D02*
X14571490Y-1084413D01*
X14571490Y-1084413D02*
X14504824Y-1217746D01*
X14504824Y-1217746D02*
X14371490Y-1351080D01*
X14371490Y-1351080D02*
X14171490Y-1417746D01*
X14171490Y-1417746D02*
X13838157Y-1417746D01*
X16038157Y-1417746D02*
X15571490Y-751080D01*
X15238157Y-1417746D02*
X15238157Y-17746D01*
X15238157Y-17746D02*
X15771490Y-17746D01*
X15771490Y-17746D02*
X15904824Y-84413D01*
X15904824Y-84413D02*
X15971490Y-151080D01*
X15971490Y-151080D02*
X16038157Y-284413D01*
X16038157Y-284413D02*
X16038157Y-484413D01*
X16038157Y-484413D02*
X15971490Y-617746D01*
X15971490Y-617746D02*
X15904824Y-684413D01*
X15904824Y-684413D02*
X15771490Y-751080D01*
X15771490Y-751080D02*
X15238157Y-751080D01*
X16904824Y-17746D02*
X17171490Y-17746D01*
X17171490Y-17746D02*
X17304824Y-84413D01*
X17304824Y-84413D02*
X17438157Y-217746D01*
X17438157Y-217746D02*
X17504824Y-484413D01*
X17504824Y-484413D02*
X17504824Y-951080D01*
X17504824Y-951080D02*
X17438157Y-1217746D01*
X17438157Y-1217746D02*
X17304824Y-1351080D01*
X17304824Y-1351080D02*
X17171490Y-1417746D01*
X17171490Y-1417746D02*
X16904824Y-1417746D01*
X16904824Y-1417746D02*
X16771490Y-1351080D01*
X16771490Y-1351080D02*
X16638157Y-1217746D01*
X16638157Y-1217746D02*
X16571490Y-951080D01*
X16571490Y-951080D02*
X16571490Y-484413D01*
X16571490Y-484413D02*
X16638157Y-217746D01*
X16638157Y-217746D02*
X16771490Y-84413D01*
X16771490Y-84413D02*
X16904824Y-17746D01*
X18104824Y-1417746D02*
X18104824Y-17746D01*
X18104824Y-17746D02*
X18904824Y-1417746D01*
X18904824Y-1417746D02*
X18904824Y-17746D01*
X19571491Y-684413D02*
X20038158Y-684413D01*
X20238158Y-1417746D02*
X19571491Y-1417746D01*
X19571491Y-1417746D02*
X19571491Y-17746D01*
X19571491Y-17746D02*
X20238158Y-17746D01*
D10*
X11670112Y-3546009D02*
X11336779Y-3546009D01*
X11336779Y-4069819D02*
X11336779Y-3069819D01*
X11336779Y-3069819D02*
X11812969Y-3069819D01*
X12765350Y-4069819D02*
X12432017Y-3593628D01*
X12193922Y-4069819D02*
X12193922Y-3069819D01*
X12193922Y-3069819D02*
X12574874Y-3069819D01*
X12574874Y-3069819D02*
X12670112Y-3117438D01*
X12670112Y-3117438D02*
X12717731Y-3165057D01*
X12717731Y-3165057D02*
X12765350Y-3260295D01*
X12765350Y-3260295D02*
X12765350Y-3403152D01*
X12765350Y-3403152D02*
X12717731Y-3498390D01*
X12717731Y-3498390D02*
X12670112Y-3546009D01*
X12670112Y-3546009D02*
X12574874Y-3593628D01*
X12574874Y-3593628D02*
X12193922Y-3593628D01*
X13384398Y-3069819D02*
X13574874Y-3069819D01*
X13574874Y-3069819D02*
X13670112Y-3117438D01*
X13670112Y-3117438D02*
X13765350Y-3212676D01*
X13765350Y-3212676D02*
X13812969Y-3403152D01*
X13812969Y-3403152D02*
X13812969Y-3736485D01*
X13812969Y-3736485D02*
X13765350Y-3926961D01*
X13765350Y-3926961D02*
X13670112Y-4022200D01*
X13670112Y-4022200D02*
X13574874Y-4069819D01*
X13574874Y-4069819D02*
X13384398Y-4069819D01*
X13384398Y-4069819D02*
X13289160Y-4022200D01*
X13289160Y-4022200D02*
X13193922Y-3926961D01*
X13193922Y-3926961D02*
X13146303Y-3736485D01*
X13146303Y-3736485D02*
X13146303Y-3403152D01*
X13146303Y-3403152D02*
X13193922Y-3212676D01*
X13193922Y-3212676D02*
X13289160Y-3117438D01*
X13289160Y-3117438D02*
X13384398Y-3069819D01*
X14241541Y-4069819D02*
X14241541Y-3069819D01*
X14241541Y-3069819D02*
X14812969Y-4069819D01*
X14812969Y-4069819D02*
X14812969Y-3069819D01*
X15146303Y-3069819D02*
X15717731Y-3069819D01*
X15432017Y-4069819D02*
X15432017Y-3069819D01*
X16670113Y-3165057D02*
X16860589Y-3022200D01*
X16860589Y-3022200D02*
X17051065Y-3165057D01*
X14908207Y-19069819D02*
X14574874Y-18593628D01*
X14336779Y-19069819D02*
X14336779Y-18069819D01*
X14336779Y-18069819D02*
X14717731Y-18069819D01*
X14717731Y-18069819D02*
X14812969Y-18117438D01*
X14812969Y-18117438D02*
X14860588Y-18165057D01*
X14860588Y-18165057D02*
X14908207Y-18260295D01*
X14908207Y-18260295D02*
X14908207Y-18403152D01*
X14908207Y-18403152D02*
X14860588Y-18498390D01*
X14860588Y-18498390D02*
X14812969Y-18546009D01*
X14812969Y-18546009D02*
X14717731Y-18593628D01*
X14717731Y-18593628D02*
X14336779Y-18593628D01*
X15670112Y-18546009D02*
X15336779Y-18546009D01*
X15336779Y-19069819D02*
X15336779Y-18069819D01*
X15336779Y-18069819D02*
X15812969Y-18069819D01*
D11*
X25306390Y-63382577D02*
X25306390Y-62482577D01*
X25306390Y-62482577D02*
X25606390Y-63125434D01*
X25606390Y-63125434D02*
X25906390Y-62482577D01*
X25906390Y-62482577D02*
X25906390Y-63382577D01*
X26292104Y-62568291D02*
X26334961Y-62525434D01*
X26334961Y-62525434D02*
X26420676Y-62482577D01*
X26420676Y-62482577D02*
X26634961Y-62482577D01*
X26634961Y-62482577D02*
X26720676Y-62525434D01*
X26720676Y-62525434D02*
X26763533Y-62568291D01*
X26763533Y-62568291D02*
X26806390Y-62654005D01*
X26806390Y-62654005D02*
X26806390Y-62739720D01*
X26806390Y-62739720D02*
X26763533Y-62868291D01*
X26763533Y-62868291D02*
X26249247Y-63382577D01*
X26249247Y-63382577D02*
X26806390Y-63382577D01*
D10*
X14408207Y-38974580D02*
X14360588Y-39022200D01*
X14360588Y-39022200D02*
X14217731Y-39069819D01*
X14217731Y-39069819D02*
X14122493Y-39069819D01*
X14122493Y-39069819D02*
X13979636Y-39022200D01*
X13979636Y-39022200D02*
X13884398Y-38926961D01*
X13884398Y-38926961D02*
X13836779Y-38831723D01*
X13836779Y-38831723D02*
X13789160Y-38641247D01*
X13789160Y-38641247D02*
X13789160Y-38498390D01*
X13789160Y-38498390D02*
X13836779Y-38307914D01*
X13836779Y-38307914D02*
X13884398Y-38212676D01*
X13884398Y-38212676D02*
X13979636Y-38117438D01*
X13979636Y-38117438D02*
X14122493Y-38069819D01*
X14122493Y-38069819D02*
X14217731Y-38069819D01*
X14217731Y-38069819D02*
X14360588Y-38117438D01*
X14360588Y-38117438D02*
X14408207Y-38165057D01*
X14836779Y-39069819D02*
X14836779Y-38069819D01*
X14836779Y-38069819D02*
X15217731Y-38069819D01*
X15217731Y-38069819D02*
X15312969Y-38117438D01*
X15312969Y-38117438D02*
X15360588Y-38165057D01*
X15360588Y-38165057D02*
X15408207Y-38260295D01*
X15408207Y-38260295D02*
X15408207Y-38403152D01*
X15408207Y-38403152D02*
X15360588Y-38498390D01*
X15360588Y-38498390D02*
X15312969Y-38546009D01*
X15312969Y-38546009D02*
X15217731Y-38593628D01*
X15217731Y-38593628D02*
X14836779Y-38593628D01*
X15836779Y-38069819D02*
X15836779Y-38879342D01*
X15836779Y-38879342D02*
X15884398Y-38974580D01*
X15884398Y-38974580D02*
X15932017Y-39022200D01*
X15932017Y-39022200D02*
X16027255Y-39069819D01*
X16027255Y-39069819D02*
X16217731Y-39069819D01*
X16217731Y-39069819D02*
X16312969Y-39022200D01*
X16312969Y-39022200D02*
X16360588Y-38974580D01*
X16360588Y-38974580D02*
X16408207Y-38879342D01*
X16408207Y-38879342D02*
X16408207Y-38069819D01*
D11*
X1306390Y-2882577D02*
X1306390Y-1982577D01*
X1306390Y-1982577D02*
X1606390Y-2625434D01*
X1606390Y-2625434D02*
X1906390Y-1982577D01*
X1906390Y-1982577D02*
X1906390Y-2882577D01*
X2720676Y-2282577D02*
X2720676Y-2882577D01*
X2506390Y-1939720D02*
X2292104Y-2582577D01*
X2292104Y-2582577D02*
X2849247Y-2582577D01*
X25306390Y-2882577D02*
X25306390Y-1982577D01*
X25306390Y-1982577D02*
X25606390Y-2625434D01*
X25606390Y-2625434D02*
X25906390Y-1982577D01*
X25906390Y-1982577D02*
X25906390Y-2882577D01*
X26806390Y-2882577D02*
X26292104Y-2882577D01*
X26549247Y-2882577D02*
X26549247Y-1982577D01*
X26549247Y-1982577D02*
X26463533Y-2111148D01*
X26463533Y-2111148D02*
X26377818Y-2196862D01*
X26377818Y-2196862D02*
X26292104Y-2239720D01*
D10*
X13908207Y-8574580D02*
X13860588Y-8622200D01*
X13860588Y-8622200D02*
X13717731Y-8669819D01*
X13717731Y-8669819D02*
X13622493Y-8669819D01*
X13622493Y-8669819D02*
X13479636Y-8622200D01*
X13479636Y-8622200D02*
X13384398Y-8526961D01*
X13384398Y-8526961D02*
X13336779Y-8431723D01*
X13336779Y-8431723D02*
X13289160Y-8241247D01*
X13289160Y-8241247D02*
X13289160Y-8098390D01*
X13289160Y-8098390D02*
X13336779Y-7907914D01*
X13336779Y-7907914D02*
X13384398Y-7812676D01*
X13384398Y-7812676D02*
X13479636Y-7717438D01*
X13479636Y-7717438D02*
X13622493Y-7669819D01*
X13622493Y-7669819D02*
X13717731Y-7669819D01*
X13717731Y-7669819D02*
X13860588Y-7717438D01*
X13860588Y-7717438D02*
X13908207Y-7765057D01*
X14289160Y-8384104D02*
X14765350Y-8384104D01*
X14193922Y-8669819D02*
X14527255Y-7669819D01*
X14527255Y-7669819D02*
X14860588Y-8669819D01*
X15193922Y-8669819D02*
X15193922Y-7669819D01*
X15193922Y-7669819D02*
X15527255Y-8384104D01*
X15527255Y-8384104D02*
X15860588Y-7669819D01*
X15860588Y-7669819D02*
X15860588Y-8669819D01*
X13954540Y-44692031D02*
X13621207Y-44215840D01*
X13383112Y-44692031D02*
X13383112Y-43692031D01*
X13383112Y-43692031D02*
X13764064Y-43692031D01*
X13764064Y-43692031D02*
X13859302Y-43739650D01*
X13859302Y-43739650D02*
X13906921Y-43787269D01*
X13906921Y-43787269D02*
X13954540Y-43882507D01*
X13954540Y-43882507D02*
X13954540Y-44025364D01*
X13954540Y-44025364D02*
X13906921Y-44120602D01*
X13906921Y-44120602D02*
X13859302Y-44168221D01*
X13859302Y-44168221D02*
X13764064Y-44215840D01*
X13764064Y-44215840D02*
X13383112Y-44215840D01*
X14335493Y-43787269D02*
X14383112Y-43739650D01*
X14383112Y-43739650D02*
X14478350Y-43692031D01*
X14478350Y-43692031D02*
X14716445Y-43692031D01*
X14716445Y-43692031D02*
X14811683Y-43739650D01*
X14811683Y-43739650D02*
X14859302Y-43787269D01*
X14859302Y-43787269D02*
X14906921Y-43882507D01*
X14906921Y-43882507D02*
X14906921Y-43977745D01*
X14906921Y-43977745D02*
X14859302Y-44120602D01*
X14859302Y-44120602D02*
X14287874Y-44692031D01*
X14287874Y-44692031D02*
X14906921Y-44692031D01*
X15287874Y-43787269D02*
X15335493Y-43739650D01*
X15335493Y-43739650D02*
X15430731Y-43692031D01*
X15430731Y-43692031D02*
X15668826Y-43692031D01*
X15668826Y-43692031D02*
X15764064Y-43739650D01*
X15764064Y-43739650D02*
X15811683Y-43787269D01*
X15811683Y-43787269D02*
X15859302Y-43882507D01*
X15859302Y-43882507D02*
X15859302Y-43977745D01*
X15859302Y-43977745D02*
X15811683Y-44120602D01*
X15811683Y-44120602D02*
X15240255Y-44692031D01*
X15240255Y-44692031D02*
X15859302Y-44692031D01*
X24857142Y-42284819D02*
X24523809Y-41808628D01*
X24285714Y-42284819D02*
X24285714Y-41284819D01*
X24285714Y-41284819D02*
X24666666Y-41284819D01*
X24666666Y-41284819D02*
X24761904Y-41332438D01*
X24761904Y-41332438D02*
X24809523Y-41380057D01*
X24809523Y-41380057D02*
X24857142Y-41475295D01*
X24857142Y-41475295D02*
X24857142Y-41618152D01*
X24857142Y-41618152D02*
X24809523Y-41713390D01*
X24809523Y-41713390D02*
X24761904Y-41761009D01*
X24761904Y-41761009D02*
X24666666Y-41808628D01*
X24666666Y-41808628D02*
X24285714Y-41808628D01*
X25809523Y-42284819D02*
X25238095Y-42284819D01*
X25523809Y-42284819D02*
X25523809Y-41284819D01*
X25523809Y-41284819D02*
X25428571Y-41427676D01*
X25428571Y-41427676D02*
X25333333Y-41522914D01*
X25333333Y-41522914D02*
X25238095Y-41570533D01*
X26285714Y-42284819D02*
X26476190Y-42284819D01*
X26476190Y-42284819D02*
X26571428Y-42237200D01*
X26571428Y-42237200D02*
X26619047Y-42189580D01*
X26619047Y-42189580D02*
X26714285Y-42046723D01*
X26714285Y-42046723D02*
X26761904Y-41856247D01*
X26761904Y-41856247D02*
X26761904Y-41475295D01*
X26761904Y-41475295D02*
X26714285Y-41380057D01*
X26714285Y-41380057D02*
X26666666Y-41332438D01*
X26666666Y-41332438D02*
X26571428Y-41284819D01*
X26571428Y-41284819D02*
X26380952Y-41284819D01*
X26380952Y-41284819D02*
X26285714Y-41332438D01*
X26285714Y-41332438D02*
X26238095Y-41380057D01*
X26238095Y-41380057D02*
X26190476Y-41475295D01*
X26190476Y-41475295D02*
X26190476Y-41713390D01*
X26190476Y-41713390D02*
X26238095Y-41808628D01*
X26238095Y-41808628D02*
X26285714Y-41856247D01*
X26285714Y-41856247D02*
X26380952Y-41903866D01*
X26380952Y-41903866D02*
X26571428Y-41903866D01*
X26571428Y-41903866D02*
X26666666Y-41856247D01*
X26666666Y-41856247D02*
X26714285Y-41808628D01*
X26714285Y-41808628D02*
X26761904Y-41713390D01*
X8180952Y-6254819D02*
X7704762Y-6254819D01*
X7704762Y-6254819D02*
X7704762Y-5254819D01*
X8514286Y-5731009D02*
X8847619Y-5731009D01*
X8990476Y-6254819D02*
X8514286Y-6254819D01*
X8514286Y-6254819D02*
X8514286Y-5254819D01*
X8514286Y-5254819D02*
X8990476Y-5254819D01*
X9419048Y-6254819D02*
X9419048Y-5254819D01*
X9419048Y-5254819D02*
X9657143Y-5254819D01*
X9657143Y-5254819D02*
X9800000Y-5302438D01*
X9800000Y-5302438D02*
X9895238Y-5397676D01*
X9895238Y-5397676D02*
X9942857Y-5492914D01*
X9942857Y-5492914D02*
X9990476Y-5683390D01*
X9990476Y-5683390D02*
X9990476Y-5826247D01*
X9990476Y-5826247D02*
X9942857Y-6016723D01*
X9942857Y-6016723D02*
X9895238Y-6111961D01*
X9895238Y-6111961D02*
X9800000Y-6207200D01*
X9800000Y-6207200D02*
X9657143Y-6254819D01*
X9657143Y-6254819D02*
X9419048Y-6254819D01*
X10942857Y-6254819D02*
X10371429Y-6254819D01*
X10657143Y-6254819D02*
X10657143Y-5254819D01*
X10657143Y-5254819D02*
X10561905Y-5397676D01*
X10561905Y-5397676D02*
X10466667Y-5492914D01*
X10466667Y-5492914D02*
X10371429Y-5540533D01*
X25153864Y-55053447D02*
X25153864Y-54053447D01*
X25153864Y-54053447D02*
X25391959Y-54053447D01*
X25391959Y-54053447D02*
X25534816Y-54101066D01*
X25534816Y-54101066D02*
X25630054Y-54196304D01*
X25630054Y-54196304D02*
X25677673Y-54291542D01*
X25677673Y-54291542D02*
X25725292Y-54482018D01*
X25725292Y-54482018D02*
X25725292Y-54624875D01*
X25725292Y-54624875D02*
X25677673Y-54815351D01*
X25677673Y-54815351D02*
X25630054Y-54910589D01*
X25630054Y-54910589D02*
X25534816Y-55005828D01*
X25534816Y-55005828D02*
X25391959Y-55053447D01*
X25391959Y-55053447D02*
X25153864Y-55053447D01*
X26582435Y-54386780D02*
X26582435Y-55053447D01*
X26344340Y-54005828D02*
X26106245Y-54720113D01*
X26106245Y-54720113D02*
X26725292Y-54720113D01*
X24763735Y-63859426D02*
X24430402Y-63383235D01*
X24192307Y-63859426D02*
X24192307Y-62859426D01*
X24192307Y-62859426D02*
X24573259Y-62859426D01*
X24573259Y-62859426D02*
X24668497Y-62907045D01*
X24668497Y-62907045D02*
X24716116Y-62954664D01*
X24716116Y-62954664D02*
X24763735Y-63049902D01*
X24763735Y-63049902D02*
X24763735Y-63192759D01*
X24763735Y-63192759D02*
X24716116Y-63287997D01*
X24716116Y-63287997D02*
X24668497Y-63335616D01*
X24668497Y-63335616D02*
X24573259Y-63383235D01*
X24573259Y-63383235D02*
X24192307Y-63383235D01*
X25097069Y-62859426D02*
X25763735Y-62859426D01*
X25763735Y-62859426D02*
X25335164Y-63859426D01*
X11472206Y-30289098D02*
X11138873Y-29812907D01*
X10900778Y-30289098D02*
X10900778Y-29289098D01*
X10900778Y-29289098D02*
X11281730Y-29289098D01*
X11281730Y-29289098D02*
X11376968Y-29336717D01*
X11376968Y-29336717D02*
X11424587Y-29384336D01*
X11424587Y-29384336D02*
X11472206Y-29479574D01*
X11472206Y-29479574D02*
X11472206Y-29622431D01*
X11472206Y-29622431D02*
X11424587Y-29717669D01*
X11424587Y-29717669D02*
X11376968Y-29765288D01*
X11376968Y-29765288D02*
X11281730Y-29812907D01*
X11281730Y-29812907D02*
X10900778Y-29812907D01*
X11853159Y-29384336D02*
X11900778Y-29336717D01*
X11900778Y-29336717D02*
X11996016Y-29289098D01*
X11996016Y-29289098D02*
X12234111Y-29289098D01*
X12234111Y-29289098D02*
X12329349Y-29336717D01*
X12329349Y-29336717D02*
X12376968Y-29384336D01*
X12376968Y-29384336D02*
X12424587Y-29479574D01*
X12424587Y-29479574D02*
X12424587Y-29574812D01*
X12424587Y-29574812D02*
X12376968Y-29717669D01*
X12376968Y-29717669D02*
X11805540Y-30289098D01*
X11805540Y-30289098D02*
X12424587Y-30289098D01*
X29123809Y-32328628D02*
X29123809Y-32804819D01*
X28790476Y-31804819D02*
X29123809Y-32328628D01*
X29123809Y-32328628D02*
X29457142Y-31804819D01*
X30314285Y-32804819D02*
X29742857Y-32804819D01*
X30028571Y-32804819D02*
X30028571Y-31804819D01*
X30028571Y-31804819D02*
X29933333Y-31947676D01*
X29933333Y-31947676D02*
X29838095Y-32042914D01*
X29838095Y-32042914D02*
X29742857Y-32090533D01*
X31704761Y-52850057D02*
X31609523Y-52802438D01*
X31609523Y-52802438D02*
X31514285Y-52707200D01*
X31514285Y-52707200D02*
X31371428Y-52564342D01*
X31371428Y-52564342D02*
X31276190Y-52516723D01*
X31276190Y-52516723D02*
X31180952Y-52516723D01*
X31228571Y-52754819D02*
X31133333Y-52707200D01*
X31133333Y-52707200D02*
X31038095Y-52611961D01*
X31038095Y-52611961D02*
X30990476Y-52421485D01*
X30990476Y-52421485D02*
X30990476Y-52088152D01*
X30990476Y-52088152D02*
X31038095Y-51897676D01*
X31038095Y-51897676D02*
X31133333Y-51802438D01*
X31133333Y-51802438D02*
X31228571Y-51754819D01*
X31228571Y-51754819D02*
X31419047Y-51754819D01*
X31419047Y-51754819D02*
X31514285Y-51802438D01*
X31514285Y-51802438D02*
X31609523Y-51897676D01*
X31609523Y-51897676D02*
X31657142Y-52088152D01*
X31657142Y-52088152D02*
X31657142Y-52421485D01*
X31657142Y-52421485D02*
X31609523Y-52611961D01*
X31609523Y-52611961D02*
X31514285Y-52707200D01*
X31514285Y-52707200D02*
X31419047Y-52754819D01*
X31419047Y-52754819D02*
X31228571Y-52754819D01*
X32038095Y-51850057D02*
X32085714Y-51802438D01*
X32085714Y-51802438D02*
X32180952Y-51754819D01*
X32180952Y-51754819D02*
X32419047Y-51754819D01*
X32419047Y-51754819D02*
X32514285Y-51802438D01*
X32514285Y-51802438D02*
X32561904Y-51850057D01*
X32561904Y-51850057D02*
X32609523Y-51945295D01*
X32609523Y-51945295D02*
X32609523Y-52040533D01*
X32609523Y-52040533D02*
X32561904Y-52183390D01*
X32561904Y-52183390D02*
X31990476Y-52754819D01*
X31990476Y-52754819D02*
X32609523Y-52754819D01*
X5786127Y-56630437D02*
X5452794Y-56154246D01*
X5214699Y-56630437D02*
X5214699Y-55630437D01*
X5214699Y-55630437D02*
X5595651Y-55630437D01*
X5595651Y-55630437D02*
X5690889Y-55678056D01*
X5690889Y-55678056D02*
X5738508Y-55725675D01*
X5738508Y-55725675D02*
X5786127Y-55820913D01*
X5786127Y-55820913D02*
X5786127Y-55963770D01*
X5786127Y-55963770D02*
X5738508Y-56059008D01*
X5738508Y-56059008D02*
X5690889Y-56106627D01*
X5690889Y-56106627D02*
X5595651Y-56154246D01*
X5595651Y-56154246D02*
X5214699Y-56154246D01*
X6167080Y-55725675D02*
X6214699Y-55678056D01*
X6214699Y-55678056D02*
X6309937Y-55630437D01*
X6309937Y-55630437D02*
X6548032Y-55630437D01*
X6548032Y-55630437D02*
X6643270Y-55678056D01*
X6643270Y-55678056D02*
X6690889Y-55725675D01*
X6690889Y-55725675D02*
X6738508Y-55820913D01*
X6738508Y-55820913D02*
X6738508Y-55916151D01*
X6738508Y-55916151D02*
X6690889Y-56059008D01*
X6690889Y-56059008D02*
X6119461Y-56630437D01*
X6119461Y-56630437D02*
X6738508Y-56630437D01*
X7309937Y-56059008D02*
X7214699Y-56011389D01*
X7214699Y-56011389D02*
X7167080Y-55963770D01*
X7167080Y-55963770D02*
X7119461Y-55868532D01*
X7119461Y-55868532D02*
X7119461Y-55820913D01*
X7119461Y-55820913D02*
X7167080Y-55725675D01*
X7167080Y-55725675D02*
X7214699Y-55678056D01*
X7214699Y-55678056D02*
X7309937Y-55630437D01*
X7309937Y-55630437D02*
X7500413Y-55630437D01*
X7500413Y-55630437D02*
X7595651Y-55678056D01*
X7595651Y-55678056D02*
X7643270Y-55725675D01*
X7643270Y-55725675D02*
X7690889Y-55820913D01*
X7690889Y-55820913D02*
X7690889Y-55868532D01*
X7690889Y-55868532D02*
X7643270Y-55963770D01*
X7643270Y-55963770D02*
X7595651Y-56011389D01*
X7595651Y-56011389D02*
X7500413Y-56059008D01*
X7500413Y-56059008D02*
X7309937Y-56059008D01*
X7309937Y-56059008D02*
X7214699Y-56106627D01*
X7214699Y-56106627D02*
X7167080Y-56154246D01*
X7167080Y-56154246D02*
X7119461Y-56249484D01*
X7119461Y-56249484D02*
X7119461Y-56439960D01*
X7119461Y-56439960D02*
X7167080Y-56535198D01*
X7167080Y-56535198D02*
X7214699Y-56582818D01*
X7214699Y-56582818D02*
X7309937Y-56630437D01*
X7309937Y-56630437D02*
X7500413Y-56630437D01*
X7500413Y-56630437D02*
X7595651Y-56582818D01*
X7595651Y-56582818D02*
X7643270Y-56535198D01*
X7643270Y-56535198D02*
X7690889Y-56439960D01*
X7690889Y-56439960D02*
X7690889Y-56249484D01*
X7690889Y-56249484D02*
X7643270Y-56154246D01*
X7643270Y-56154246D02*
X7595651Y-56106627D01*
X7595651Y-56106627D02*
X7500413Y-56059008D01*
X18038095Y-31454819D02*
X18038095Y-32264342D01*
X18038095Y-32264342D02*
X18085714Y-32359580D01*
X18085714Y-32359580D02*
X18133333Y-32407200D01*
X18133333Y-32407200D02*
X18228571Y-32454819D01*
X18228571Y-32454819D02*
X18419047Y-32454819D01*
X18419047Y-32454819D02*
X18514285Y-32407200D01*
X18514285Y-32407200D02*
X18561904Y-32359580D01*
X18561904Y-32359580D02*
X18609523Y-32264342D01*
X18609523Y-32264342D02*
X18609523Y-31454819D01*
X19609523Y-32454819D02*
X19038095Y-32454819D01*
X19323809Y-32454819D02*
X19323809Y-31454819D01*
X19323809Y-31454819D02*
X19228571Y-31597676D01*
X19228571Y-31597676D02*
X19133333Y-31692914D01*
X19133333Y-31692914D02*
X19038095Y-31740533D01*
X10190476Y-65659819D02*
X10190476Y-66374104D01*
X10190476Y-66374104D02*
X10142857Y-66516961D01*
X10142857Y-66516961D02*
X10047619Y-66612200D01*
X10047619Y-66612200D02*
X9904762Y-66659819D01*
X9904762Y-66659819D02*
X9809524Y-66659819D01*
X11190476Y-66659819D02*
X10619048Y-66659819D01*
X10904762Y-66659819D02*
X10904762Y-65659819D01*
X10904762Y-65659819D02*
X10809524Y-65802676D01*
X10809524Y-65802676D02*
X10714286Y-65897914D01*
X10714286Y-65897914D02*
X10619048Y-65945533D01*
X11809524Y-65659819D02*
X11904762Y-65659819D01*
X11904762Y-65659819D02*
X12000000Y-65707438D01*
X12000000Y-65707438D02*
X12047619Y-65755057D01*
X12047619Y-65755057D02*
X12095238Y-65850295D01*
X12095238Y-65850295D02*
X12142857Y-66040771D01*
X12142857Y-66040771D02*
X12142857Y-66278866D01*
X12142857Y-66278866D02*
X12095238Y-66469342D01*
X12095238Y-66469342D02*
X12047619Y-66564580D01*
X12047619Y-66564580D02*
X12000000Y-66612200D01*
X12000000Y-66612200D02*
X11904762Y-66659819D01*
X11904762Y-66659819D02*
X11809524Y-66659819D01*
X11809524Y-66659819D02*
X11714286Y-66612200D01*
X11714286Y-66612200D02*
X11666667Y-66564580D01*
X11666667Y-66564580D02*
X11619048Y-66469342D01*
X11619048Y-66469342D02*
X11571429Y-66278866D01*
X11571429Y-66278866D02*
X11571429Y-66040771D01*
X11571429Y-66040771D02*
X11619048Y-65850295D01*
X11619048Y-65850295D02*
X11666667Y-65755057D01*
X11666667Y-65755057D02*
X11714286Y-65707438D01*
X11714286Y-65707438D02*
X11809524Y-65659819D01*
X18333333Y-60184819D02*
X18000000Y-59708628D01*
X17761905Y-60184819D02*
X17761905Y-59184819D01*
X17761905Y-59184819D02*
X18142857Y-59184819D01*
X18142857Y-59184819D02*
X18238095Y-59232438D01*
X18238095Y-59232438D02*
X18285714Y-59280057D01*
X18285714Y-59280057D02*
X18333333Y-59375295D01*
X18333333Y-59375295D02*
X18333333Y-59518152D01*
X18333333Y-59518152D02*
X18285714Y-59613390D01*
X18285714Y-59613390D02*
X18238095Y-59661009D01*
X18238095Y-59661009D02*
X18142857Y-59708628D01*
X18142857Y-59708628D02*
X17761905Y-59708628D01*
X18666667Y-59184819D02*
X19285714Y-59184819D01*
X19285714Y-59184819D02*
X18952381Y-59565771D01*
X18952381Y-59565771D02*
X19095238Y-59565771D01*
X19095238Y-59565771D02*
X19190476Y-59613390D01*
X19190476Y-59613390D02*
X19238095Y-59661009D01*
X19238095Y-59661009D02*
X19285714Y-59756247D01*
X19285714Y-59756247D02*
X19285714Y-59994342D01*
X19285714Y-59994342D02*
X19238095Y-60089580D01*
X19238095Y-60089580D02*
X19190476Y-60137200D01*
X19190476Y-60137200D02*
X19095238Y-60184819D01*
X19095238Y-60184819D02*
X18809524Y-60184819D01*
X18809524Y-60184819D02*
X18714286Y-60137200D01*
X18714286Y-60137200D02*
X18666667Y-60089580D01*
X11633332Y-28884819D02*
X11299999Y-28408628D01*
X11061904Y-28884819D02*
X11061904Y-27884819D01*
X11061904Y-27884819D02*
X11442856Y-27884819D01*
X11442856Y-27884819D02*
X11538094Y-27932438D01*
X11538094Y-27932438D02*
X11585713Y-27980057D01*
X11585713Y-27980057D02*
X11633332Y-28075295D01*
X11633332Y-28075295D02*
X11633332Y-28218152D01*
X11633332Y-28218152D02*
X11585713Y-28313390D01*
X11585713Y-28313390D02*
X11538094Y-28361009D01*
X11538094Y-28361009D02*
X11442856Y-28408628D01*
X11442856Y-28408628D02*
X11061904Y-28408628D01*
X12585713Y-28884819D02*
X12014285Y-28884819D01*
X12299999Y-28884819D02*
X12299999Y-27884819D01*
X12299999Y-27884819D02*
X12204761Y-28027676D01*
X12204761Y-28027676D02*
X12109523Y-28122914D01*
X12109523Y-28122914D02*
X12014285Y-28170533D01*
X32004761Y-17350057D02*
X31909523Y-17302438D01*
X31909523Y-17302438D02*
X31814285Y-17207200D01*
X31814285Y-17207200D02*
X31671428Y-17064342D01*
X31671428Y-17064342D02*
X31576190Y-17016723D01*
X31576190Y-17016723D02*
X31480952Y-17016723D01*
X31528571Y-17254819D02*
X31433333Y-17207200D01*
X31433333Y-17207200D02*
X31338095Y-17111961D01*
X31338095Y-17111961D02*
X31290476Y-16921485D01*
X31290476Y-16921485D02*
X31290476Y-16588152D01*
X31290476Y-16588152D02*
X31338095Y-16397676D01*
X31338095Y-16397676D02*
X31433333Y-16302438D01*
X31433333Y-16302438D02*
X31528571Y-16254819D01*
X31528571Y-16254819D02*
X31719047Y-16254819D01*
X31719047Y-16254819D02*
X31814285Y-16302438D01*
X31814285Y-16302438D02*
X31909523Y-16397676D01*
X31909523Y-16397676D02*
X31957142Y-16588152D01*
X31957142Y-16588152D02*
X31957142Y-16921485D01*
X31957142Y-16921485D02*
X31909523Y-17111961D01*
X31909523Y-17111961D02*
X31814285Y-17207200D01*
X31814285Y-17207200D02*
X31719047Y-17254819D01*
X31719047Y-17254819D02*
X31528571Y-17254819D01*
X32909523Y-17254819D02*
X32338095Y-17254819D01*
X32623809Y-17254819D02*
X32623809Y-16254819D01*
X32623809Y-16254819D02*
X32528571Y-16397676D01*
X32528571Y-16397676D02*
X32433333Y-16492914D01*
X32433333Y-16492914D02*
X32338095Y-16540533D01*
X18666666Y-954819D02*
X18666666Y-1669104D01*
X18666666Y-1669104D02*
X18619047Y-1811961D01*
X18619047Y-1811961D02*
X18523809Y-1907200D01*
X18523809Y-1907200D02*
X18380952Y-1954819D01*
X18380952Y-1954819D02*
X18285714Y-1954819D01*
X19571428Y-1288152D02*
X19571428Y-1954819D01*
X19333333Y-907200D02*
X19095238Y-1621485D01*
X19095238Y-1621485D02*
X19714285Y-1621485D01*
X25116366Y-39291656D02*
X24783033Y-38815465D01*
X24544938Y-39291656D02*
X24544938Y-38291656D01*
X24544938Y-38291656D02*
X24925890Y-38291656D01*
X24925890Y-38291656D02*
X25021128Y-38339275D01*
X25021128Y-38339275D02*
X25068747Y-38386894D01*
X25068747Y-38386894D02*
X25116366Y-38482132D01*
X25116366Y-38482132D02*
X25116366Y-38624989D01*
X25116366Y-38624989D02*
X25068747Y-38720227D01*
X25068747Y-38720227D02*
X25021128Y-38767846D01*
X25021128Y-38767846D02*
X24925890Y-38815465D01*
X24925890Y-38815465D02*
X24544938Y-38815465D01*
X26068747Y-39291656D02*
X25497319Y-39291656D01*
X25783033Y-39291656D02*
X25783033Y-38291656D01*
X25783033Y-38291656D02*
X25687795Y-38434513D01*
X25687795Y-38434513D02*
X25592557Y-38529751D01*
X25592557Y-38529751D02*
X25497319Y-38577370D01*
X26449700Y-38386894D02*
X26497319Y-38339275D01*
X26497319Y-38339275D02*
X26592557Y-38291656D01*
X26592557Y-38291656D02*
X26830652Y-38291656D01*
X26830652Y-38291656D02*
X26925890Y-38339275D01*
X26925890Y-38339275D02*
X26973509Y-38386894D01*
X26973509Y-38386894D02*
X27021128Y-38482132D01*
X27021128Y-38482132D02*
X27021128Y-38577370D01*
X27021128Y-38577370D02*
X26973509Y-38720227D01*
X26973509Y-38720227D02*
X26402081Y-39291656D01*
X26402081Y-39291656D02*
X27021128Y-39291656D01*
X33466666Y-9324819D02*
X33466666Y-10039104D01*
X33466666Y-10039104D02*
X33419047Y-10181961D01*
X33419047Y-10181961D02*
X33323809Y-10277200D01*
X33323809Y-10277200D02*
X33180952Y-10324819D01*
X33180952Y-10324819D02*
X33085714Y-10324819D01*
X34419047Y-9324819D02*
X33942857Y-9324819D01*
X33942857Y-9324819D02*
X33895238Y-9801009D01*
X33895238Y-9801009D02*
X33942857Y-9753390D01*
X33942857Y-9753390D02*
X34038095Y-9705771D01*
X34038095Y-9705771D02*
X34276190Y-9705771D01*
X34276190Y-9705771D02*
X34371428Y-9753390D01*
X34371428Y-9753390D02*
X34419047Y-9801009D01*
X34419047Y-9801009D02*
X34466666Y-9896247D01*
X34466666Y-9896247D02*
X34466666Y-10134342D01*
X34466666Y-10134342D02*
X34419047Y-10229580D01*
X34419047Y-10229580D02*
X34371428Y-10277200D01*
X34371428Y-10277200D02*
X34276190Y-10324819D01*
X34276190Y-10324819D02*
X34038095Y-10324819D01*
X34038095Y-10324819D02*
X33942857Y-10277200D01*
X33942857Y-10277200D02*
X33895238Y-10229580D01*
X30979711Y-56578757D02*
X30646378Y-56102566D01*
X30408283Y-56578757D02*
X30408283Y-55578757D01*
X30408283Y-55578757D02*
X30789235Y-55578757D01*
X30789235Y-55578757D02*
X30884473Y-55626376D01*
X30884473Y-55626376D02*
X30932092Y-55673995D01*
X30932092Y-55673995D02*
X30979711Y-55769233D01*
X30979711Y-55769233D02*
X30979711Y-55912090D01*
X30979711Y-55912090D02*
X30932092Y-56007328D01*
X30932092Y-56007328D02*
X30884473Y-56054947D01*
X30884473Y-56054947D02*
X30789235Y-56102566D01*
X30789235Y-56102566D02*
X30408283Y-56102566D01*
X31360664Y-55673995D02*
X31408283Y-55626376D01*
X31408283Y-55626376D02*
X31503521Y-55578757D01*
X31503521Y-55578757D02*
X31741616Y-55578757D01*
X31741616Y-55578757D02*
X31836854Y-55626376D01*
X31836854Y-55626376D02*
X31884473Y-55673995D01*
X31884473Y-55673995D02*
X31932092Y-55769233D01*
X31932092Y-55769233D02*
X31932092Y-55864471D01*
X31932092Y-55864471D02*
X31884473Y-56007328D01*
X31884473Y-56007328D02*
X31313045Y-56578757D01*
X31313045Y-56578757D02*
X31932092Y-56578757D01*
X32265426Y-55578757D02*
X32932092Y-55578757D01*
X32932092Y-55578757D02*
X32503521Y-56578757D01*
X33407200Y-43133332D02*
X33454819Y-42990475D01*
X33454819Y-42990475D02*
X33454819Y-42752380D01*
X33454819Y-42752380D02*
X33407200Y-42657142D01*
X33407200Y-42657142D02*
X33359580Y-42609523D01*
X33359580Y-42609523D02*
X33264342Y-42561904D01*
X33264342Y-42561904D02*
X33169104Y-42561904D01*
X33169104Y-42561904D02*
X33073866Y-42609523D01*
X33073866Y-42609523D02*
X33026247Y-42657142D01*
X33026247Y-42657142D02*
X32978628Y-42752380D01*
X32978628Y-42752380D02*
X32931009Y-42942856D01*
X32931009Y-42942856D02*
X32883390Y-43038094D01*
X32883390Y-43038094D02*
X32835771Y-43085713D01*
X32835771Y-43085713D02*
X32740533Y-43133332D01*
X32740533Y-43133332D02*
X32645295Y-43133332D01*
X32645295Y-43133332D02*
X32550057Y-43085713D01*
X32550057Y-43085713D02*
X32502438Y-43038094D01*
X32502438Y-43038094D02*
X32454819Y-42942856D01*
X32454819Y-42942856D02*
X32454819Y-42704761D01*
X32454819Y-42704761D02*
X32502438Y-42561904D01*
X32454819Y-42228570D02*
X33454819Y-41990475D01*
X33454819Y-41990475D02*
X32740533Y-41799999D01*
X32740533Y-41799999D02*
X33454819Y-41609523D01*
X33454819Y-41609523D02*
X32454819Y-41371428D01*
X33454819Y-40466666D02*
X33454819Y-41038094D01*
X33454819Y-40752380D02*
X32454819Y-40752380D01*
X32454819Y-40752380D02*
X32597676Y-40847618D01*
X32597676Y-40847618D02*
X32692914Y-40942856D01*
X32692914Y-40942856D02*
X32740533Y-41038094D01*
X21080189Y-45972821D02*
X20746856Y-45496630D01*
X20508761Y-45972821D02*
X20508761Y-44972821D01*
X20508761Y-44972821D02*
X20889713Y-44972821D01*
X20889713Y-44972821D02*
X20984951Y-45020440D01*
X20984951Y-45020440D02*
X21032570Y-45068059D01*
X21032570Y-45068059D02*
X21080189Y-45163297D01*
X21080189Y-45163297D02*
X21080189Y-45306154D01*
X21080189Y-45306154D02*
X21032570Y-45401392D01*
X21032570Y-45401392D02*
X20984951Y-45449011D01*
X20984951Y-45449011D02*
X20889713Y-45496630D01*
X20889713Y-45496630D02*
X20508761Y-45496630D01*
X21461142Y-45068059D02*
X21508761Y-45020440D01*
X21508761Y-45020440D02*
X21603999Y-44972821D01*
X21603999Y-44972821D02*
X21842094Y-44972821D01*
X21842094Y-44972821D02*
X21937332Y-45020440D01*
X21937332Y-45020440D02*
X21984951Y-45068059D01*
X21984951Y-45068059D02*
X22032570Y-45163297D01*
X22032570Y-45163297D02*
X22032570Y-45258535D01*
X22032570Y-45258535D02*
X21984951Y-45401392D01*
X21984951Y-45401392D02*
X21413523Y-45972821D01*
X21413523Y-45972821D02*
X22032570Y-45972821D01*
X22937332Y-44972821D02*
X22461142Y-44972821D01*
X22461142Y-44972821D02*
X22413523Y-45449011D01*
X22413523Y-45449011D02*
X22461142Y-45401392D01*
X22461142Y-45401392D02*
X22556380Y-45353773D01*
X22556380Y-45353773D02*
X22794475Y-45353773D01*
X22794475Y-45353773D02*
X22889713Y-45401392D01*
X22889713Y-45401392D02*
X22937332Y-45449011D01*
X22937332Y-45449011D02*
X22984951Y-45544249D01*
X22984951Y-45544249D02*
X22984951Y-45782344D01*
X22984951Y-45782344D02*
X22937332Y-45877582D01*
X22937332Y-45877582D02*
X22889713Y-45925202D01*
X22889713Y-45925202D02*
X22794475Y-45972821D01*
X22794475Y-45972821D02*
X22556380Y-45972821D01*
X22556380Y-45972821D02*
X22461142Y-45925202D01*
X22461142Y-45925202D02*
X22413523Y-45877582D01*
X25351974Y-40627880D02*
X25018641Y-40151689D01*
X24780546Y-40627880D02*
X24780546Y-39627880D01*
X24780546Y-39627880D02*
X25161498Y-39627880D01*
X25161498Y-39627880D02*
X25256736Y-39675499D01*
X25256736Y-39675499D02*
X25304355Y-39723118D01*
X25304355Y-39723118D02*
X25351974Y-39818356D01*
X25351974Y-39818356D02*
X25351974Y-39961213D01*
X25351974Y-39961213D02*
X25304355Y-40056451D01*
X25304355Y-40056451D02*
X25256736Y-40104070D01*
X25256736Y-40104070D02*
X25161498Y-40151689D01*
X25161498Y-40151689D02*
X24780546Y-40151689D01*
X26304355Y-40627880D02*
X25732927Y-40627880D01*
X26018641Y-40627880D02*
X26018641Y-39627880D01*
X26018641Y-39627880D02*
X25923403Y-39770737D01*
X25923403Y-39770737D02*
X25828165Y-39865975D01*
X25828165Y-39865975D02*
X25732927Y-39913594D01*
X27161498Y-39627880D02*
X26971022Y-39627880D01*
X26971022Y-39627880D02*
X26875784Y-39675499D01*
X26875784Y-39675499D02*
X26828165Y-39723118D01*
X26828165Y-39723118D02*
X26732927Y-39865975D01*
X26732927Y-39865975D02*
X26685308Y-40056451D01*
X26685308Y-40056451D02*
X26685308Y-40437403D01*
X26685308Y-40437403D02*
X26732927Y-40532641D01*
X26732927Y-40532641D02*
X26780546Y-40580261D01*
X26780546Y-40580261D02*
X26875784Y-40627880D01*
X26875784Y-40627880D02*
X27066260Y-40627880D01*
X27066260Y-40627880D02*
X27161498Y-40580261D01*
X27161498Y-40580261D02*
X27209117Y-40532641D01*
X27209117Y-40532641D02*
X27256736Y-40437403D01*
X27256736Y-40437403D02*
X27256736Y-40199308D01*
X27256736Y-40199308D02*
X27209117Y-40104070D01*
X27209117Y-40104070D02*
X27161498Y-40056451D01*
X27161498Y-40056451D02*
X27066260Y-40008832D01*
X27066260Y-40008832D02*
X26875784Y-40008832D01*
X26875784Y-40008832D02*
X26780546Y-40056451D01*
X26780546Y-40056451D02*
X26732927Y-40104070D01*
X26732927Y-40104070D02*
X26685308Y-40199308D01*
X30938095Y-45654819D02*
X30938095Y-46464342D01*
X30938095Y-46464342D02*
X30985714Y-46559580D01*
X30985714Y-46559580D02*
X31033333Y-46607200D01*
X31033333Y-46607200D02*
X31128571Y-46654819D01*
X31128571Y-46654819D02*
X31319047Y-46654819D01*
X31319047Y-46654819D02*
X31414285Y-46607200D01*
X31414285Y-46607200D02*
X31461904Y-46559580D01*
X31461904Y-46559580D02*
X31509523Y-46464342D01*
X31509523Y-46464342D02*
X31509523Y-45654819D01*
X31890476Y-45654819D02*
X32557142Y-45654819D01*
X32557142Y-45654819D02*
X32128571Y-46654819D01*
X12738095Y-56954819D02*
X12738095Y-57764342D01*
X12738095Y-57764342D02*
X12785714Y-57859580D01*
X12785714Y-57859580D02*
X12833333Y-57907200D01*
X12833333Y-57907200D02*
X12928571Y-57954819D01*
X12928571Y-57954819D02*
X13119047Y-57954819D01*
X13119047Y-57954819D02*
X13214285Y-57907200D01*
X13214285Y-57907200D02*
X13261904Y-57859580D01*
X13261904Y-57859580D02*
X13309523Y-57764342D01*
X13309523Y-57764342D02*
X13309523Y-56954819D01*
X14214285Y-57288152D02*
X14214285Y-57954819D01*
X13976190Y-56907200D02*
X13738095Y-57621485D01*
X13738095Y-57621485D02*
X14357142Y-57621485D01*
X3066666Y-39559819D02*
X3066666Y-40274104D01*
X3066666Y-40274104D02*
X3019047Y-40416961D01*
X3019047Y-40416961D02*
X2923809Y-40512200D01*
X2923809Y-40512200D02*
X2780952Y-40559819D01*
X2780952Y-40559819D02*
X2685714Y-40559819D01*
X3590476Y-40559819D02*
X3780952Y-40559819D01*
X3780952Y-40559819D02*
X3876190Y-40512200D01*
X3876190Y-40512200D02*
X3923809Y-40464580D01*
X3923809Y-40464580D02*
X4019047Y-40321723D01*
X4019047Y-40321723D02*
X4066666Y-40131247D01*
X4066666Y-40131247D02*
X4066666Y-39750295D01*
X4066666Y-39750295D02*
X4019047Y-39655057D01*
X4019047Y-39655057D02*
X3971428Y-39607438D01*
X3971428Y-39607438D02*
X3876190Y-39559819D01*
X3876190Y-39559819D02*
X3685714Y-39559819D01*
X3685714Y-39559819D02*
X3590476Y-39607438D01*
X3590476Y-39607438D02*
X3542857Y-39655057D01*
X3542857Y-39655057D02*
X3495238Y-39750295D01*
X3495238Y-39750295D02*
X3495238Y-39988390D01*
X3495238Y-39988390D02*
X3542857Y-40083628D01*
X3542857Y-40083628D02*
X3590476Y-40131247D01*
X3590476Y-40131247D02*
X3685714Y-40178866D01*
X3685714Y-40178866D02*
X3876190Y-40178866D01*
X3876190Y-40178866D02*
X3971428Y-40131247D01*
X3971428Y-40131247D02*
X4019047Y-40083628D01*
X4019047Y-40083628D02*
X4066666Y-39988390D01*
X16256639Y-44413838D02*
X15923306Y-43937647D01*
X15685211Y-44413838D02*
X15685211Y-43413838D01*
X15685211Y-43413838D02*
X16066163Y-43413838D01*
X16066163Y-43413838D02*
X16161401Y-43461457D01*
X16161401Y-43461457D02*
X16209020Y-43509076D01*
X16209020Y-43509076D02*
X16256639Y-43604314D01*
X16256639Y-43604314D02*
X16256639Y-43747171D01*
X16256639Y-43747171D02*
X16209020Y-43842409D01*
X16209020Y-43842409D02*
X16161401Y-43890028D01*
X16161401Y-43890028D02*
X16066163Y-43937647D01*
X16066163Y-43937647D02*
X15685211Y-43937647D01*
X16589973Y-43413838D02*
X17209020Y-43413838D01*
X17209020Y-43413838D02*
X16875687Y-43794790D01*
X16875687Y-43794790D02*
X17018544Y-43794790D01*
X17018544Y-43794790D02*
X17113782Y-43842409D01*
X17113782Y-43842409D02*
X17161401Y-43890028D01*
X17161401Y-43890028D02*
X17209020Y-43985266D01*
X17209020Y-43985266D02*
X17209020Y-44223361D01*
X17209020Y-44223361D02*
X17161401Y-44318599D01*
X17161401Y-44318599D02*
X17113782Y-44366219D01*
X17113782Y-44366219D02*
X17018544Y-44413838D01*
X17018544Y-44413838D02*
X16732830Y-44413838D01*
X16732830Y-44413838D02*
X16637592Y-44366219D01*
X16637592Y-44366219D02*
X16589973Y-44318599D01*
X18161401Y-44413838D02*
X17589973Y-44413838D01*
X17875687Y-44413838D02*
X17875687Y-43413838D01*
X17875687Y-43413838D02*
X17780449Y-43556695D01*
X17780449Y-43556695D02*
X17685211Y-43651933D01*
X17685211Y-43651933D02*
X17589973Y-43699552D01*
X22174760Y-5579726D02*
X22174760Y-4309726D01*
X22174760Y-4309726D02*
X22598094Y-5216869D01*
X22598094Y-5216869D02*
X23021427Y-4309726D01*
X23021427Y-4309726D02*
X23021427Y-5579726D01*
X23807618Y-5579726D02*
X23686666Y-5519250D01*
X23686666Y-5519250D02*
X23626189Y-5458773D01*
X23626189Y-5458773D02*
X23565713Y-5337821D01*
X23565713Y-5337821D02*
X23565713Y-4974964D01*
X23565713Y-4974964D02*
X23626189Y-4854011D01*
X23626189Y-4854011D02*
X23686666Y-4793535D01*
X23686666Y-4793535D02*
X23807618Y-4733059D01*
X23807618Y-4733059D02*
X23989047Y-4733059D01*
X23989047Y-4733059D02*
X24109999Y-4793535D01*
X24109999Y-4793535D02*
X24170475Y-4854011D01*
X24170475Y-4854011D02*
X24230951Y-4974964D01*
X24230951Y-4974964D02*
X24230951Y-5337821D01*
X24230951Y-5337821D02*
X24170475Y-5458773D01*
X24170475Y-5458773D02*
X24109999Y-5519250D01*
X24109999Y-5519250D02*
X23989047Y-5579726D01*
X23989047Y-5579726D02*
X23807618Y-5579726D01*
X25319523Y-4733059D02*
X25319523Y-5579726D01*
X24775237Y-4733059D02*
X24775237Y-5398297D01*
X24775237Y-5398297D02*
X24835714Y-5519250D01*
X24835714Y-5519250D02*
X24956666Y-5579726D01*
X24956666Y-5579726D02*
X25138095Y-5579726D01*
X25138095Y-5579726D02*
X25259047Y-5519250D01*
X25259047Y-5519250D02*
X25319523Y-5458773D01*
X25924285Y-4733059D02*
X25924285Y-5579726D01*
X25924285Y-4854011D02*
X25984762Y-4793535D01*
X25984762Y-4793535D02*
X26105714Y-4733059D01*
X26105714Y-4733059D02*
X26287143Y-4733059D01*
X26287143Y-4733059D02*
X26408095Y-4793535D01*
X26408095Y-4793535D02*
X26468571Y-4914488D01*
X26468571Y-4914488D02*
X26468571Y-5579726D01*
X26891905Y-4733059D02*
X27375714Y-4733059D01*
X27073333Y-4309726D02*
X27073333Y-5398297D01*
X27073333Y-5398297D02*
X27133810Y-5519250D01*
X27133810Y-5519250D02*
X27254762Y-5579726D01*
X27254762Y-5579726D02*
X27375714Y-5579726D01*
X27799047Y-5579726D02*
X27799047Y-4733059D01*
X27799047Y-4309726D02*
X27738571Y-4370202D01*
X27738571Y-4370202D02*
X27799047Y-4430678D01*
X27799047Y-4430678D02*
X27859524Y-4370202D01*
X27859524Y-4370202D02*
X27799047Y-4309726D01*
X27799047Y-4309726D02*
X27799047Y-4430678D01*
X28403809Y-4733059D02*
X28403809Y-5579726D01*
X28403809Y-4854011D02*
X28464286Y-4793535D01*
X28464286Y-4793535D02*
X28585238Y-4733059D01*
X28585238Y-4733059D02*
X28766667Y-4733059D01*
X28766667Y-4733059D02*
X28887619Y-4793535D01*
X28887619Y-4793535D02*
X28948095Y-4914488D01*
X28948095Y-4914488D02*
X28948095Y-5579726D01*
X30097143Y-4733059D02*
X30097143Y-5761154D01*
X30097143Y-5761154D02*
X30036667Y-5882107D01*
X30036667Y-5882107D02*
X29976191Y-5942583D01*
X29976191Y-5942583D02*
X29855238Y-6003059D01*
X29855238Y-6003059D02*
X29673810Y-6003059D01*
X29673810Y-6003059D02*
X29552857Y-5942583D01*
X30097143Y-5519250D02*
X29976191Y-5579726D01*
X29976191Y-5579726D02*
X29734286Y-5579726D01*
X29734286Y-5579726D02*
X29613334Y-5519250D01*
X29613334Y-5519250D02*
X29552857Y-5458773D01*
X29552857Y-5458773D02*
X29492381Y-5337821D01*
X29492381Y-5337821D02*
X29492381Y-4974964D01*
X29492381Y-4974964D02*
X29552857Y-4854011D01*
X29552857Y-4854011D02*
X29613334Y-4793535D01*
X29613334Y-4793535D02*
X29734286Y-4733059D01*
X29734286Y-4733059D02*
X29976191Y-4733059D01*
X29976191Y-4733059D02*
X30097143Y-4793535D01*
X30701905Y-5579726D02*
X30701905Y-4309726D01*
X30701905Y-4914488D02*
X31427620Y-4914488D01*
X31427620Y-5579726D02*
X31427620Y-4309726D01*
X32213810Y-5579726D02*
X32092858Y-5519250D01*
X32092858Y-5519250D02*
X32032381Y-5458773D01*
X32032381Y-5458773D02*
X31971905Y-5337821D01*
X31971905Y-5337821D02*
X31971905Y-4974964D01*
X31971905Y-4974964D02*
X32032381Y-4854011D01*
X32032381Y-4854011D02*
X32092858Y-4793535D01*
X32092858Y-4793535D02*
X32213810Y-4733059D01*
X32213810Y-4733059D02*
X32395239Y-4733059D01*
X32395239Y-4733059D02*
X32516191Y-4793535D01*
X32516191Y-4793535D02*
X32576667Y-4854011D01*
X32576667Y-4854011D02*
X32637143Y-4974964D01*
X32637143Y-4974964D02*
X32637143Y-5337821D01*
X32637143Y-5337821D02*
X32576667Y-5458773D01*
X32576667Y-5458773D02*
X32516191Y-5519250D01*
X32516191Y-5519250D02*
X32395239Y-5579726D01*
X32395239Y-5579726D02*
X32213810Y-5579726D01*
X33362858Y-5579726D02*
X33241906Y-5519250D01*
X33241906Y-5519250D02*
X33181429Y-5398297D01*
X33181429Y-5398297D02*
X33181429Y-4309726D01*
X34330477Y-5519250D02*
X34209525Y-5579726D01*
X34209525Y-5579726D02*
X33967620Y-5579726D01*
X33967620Y-5579726D02*
X33846667Y-5519250D01*
X33846667Y-5519250D02*
X33786191Y-5398297D01*
X33786191Y-5398297D02*
X33786191Y-4914488D01*
X33786191Y-4914488D02*
X33846667Y-4793535D01*
X33846667Y-4793535D02*
X33967620Y-4733059D01*
X33967620Y-4733059D02*
X34209525Y-4733059D01*
X34209525Y-4733059D02*
X34330477Y-4793535D01*
X34330477Y-4793535D02*
X34390953Y-4914488D01*
X34390953Y-4914488D02*
X34390953Y-5035440D01*
X34390953Y-5035440D02*
X33786191Y-5156392D01*
X34632858Y-5700678D02*
X35600477Y-5700678D01*
X35902857Y-5579726D02*
X35902857Y-4309726D01*
X35902857Y-4309726D02*
X36326191Y-5216869D01*
X36326191Y-5216869D02*
X36749524Y-4309726D01*
X36749524Y-4309726D02*
X36749524Y-5579726D01*
X37293810Y-4430678D02*
X37354286Y-4370202D01*
X37354286Y-4370202D02*
X37475239Y-4309726D01*
X37475239Y-4309726D02*
X37777620Y-4309726D01*
X37777620Y-4309726D02*
X37898572Y-4370202D01*
X37898572Y-4370202D02*
X37959048Y-4430678D01*
X37959048Y-4430678D02*
X38019525Y-4551630D01*
X38019525Y-4551630D02*
X38019525Y-4672583D01*
X38019525Y-4672583D02*
X37959048Y-4854011D01*
X37959048Y-4854011D02*
X37233334Y-5579726D01*
X37233334Y-5579726D02*
X38019525Y-5579726D01*
X38261430Y-5700678D02*
X39229049Y-5700678D01*
X39531429Y-5579726D02*
X39531429Y-4309726D01*
X39531429Y-4309726D02*
X40257144Y-5579726D01*
X40257144Y-5579726D02*
X40257144Y-4309726D01*
X40861905Y-5579726D02*
X40861905Y-4309726D01*
X40861905Y-4309726D02*
X41345715Y-4309726D01*
X41345715Y-4309726D02*
X41466667Y-4370202D01*
X41466667Y-4370202D02*
X41527144Y-4430678D01*
X41527144Y-4430678D02*
X41587620Y-4551630D01*
X41587620Y-4551630D02*
X41587620Y-4733059D01*
X41587620Y-4733059D02*
X41527144Y-4854011D01*
X41527144Y-4854011D02*
X41466667Y-4914488D01*
X41466667Y-4914488D02*
X41345715Y-4974964D01*
X41345715Y-4974964D02*
X40861905Y-4974964D01*
X41950477Y-4309726D02*
X42676191Y-4309726D01*
X42313334Y-5579726D02*
X42313334Y-4309726D01*
X43099524Y-5579726D02*
X43099524Y-4309726D01*
X43099524Y-4914488D02*
X43825239Y-4914488D01*
X43825239Y-5579726D02*
X43825239Y-4309726D01*
X8838095Y-35254819D02*
X8838095Y-36064342D01*
X8838095Y-36064342D02*
X8885714Y-36159580D01*
X8885714Y-36159580D02*
X8933333Y-36207200D01*
X8933333Y-36207200D02*
X9028571Y-36254819D01*
X9028571Y-36254819D02*
X9219047Y-36254819D01*
X9219047Y-36254819D02*
X9314285Y-36207200D01*
X9314285Y-36207200D02*
X9361904Y-36159580D01*
X9361904Y-36159580D02*
X9409523Y-36064342D01*
X9409523Y-36064342D02*
X9409523Y-35254819D01*
X9838095Y-35350057D02*
X9885714Y-35302438D01*
X9885714Y-35302438D02*
X9980952Y-35254819D01*
X9980952Y-35254819D02*
X10219047Y-35254819D01*
X10219047Y-35254819D02*
X10314285Y-35302438D01*
X10314285Y-35302438D02*
X10361904Y-35350057D01*
X10361904Y-35350057D02*
X10409523Y-35445295D01*
X10409523Y-35445295D02*
X10409523Y-35540533D01*
X10409523Y-35540533D02*
X10361904Y-35683390D01*
X10361904Y-35683390D02*
X9790476Y-36254819D01*
X9790476Y-36254819D02*
X10409523Y-36254819D01*
X33466666Y-58924819D02*
X33466666Y-59639104D01*
X33466666Y-59639104D02*
X33419047Y-59781961D01*
X33419047Y-59781961D02*
X33323809Y-59877200D01*
X33323809Y-59877200D02*
X33180952Y-59924819D01*
X33180952Y-59924819D02*
X33085714Y-59924819D01*
X34371428Y-58924819D02*
X34180952Y-58924819D01*
X34180952Y-58924819D02*
X34085714Y-58972438D01*
X34085714Y-58972438D02*
X34038095Y-59020057D01*
X34038095Y-59020057D02*
X33942857Y-59162914D01*
X33942857Y-59162914D02*
X33895238Y-59353390D01*
X33895238Y-59353390D02*
X33895238Y-59734342D01*
X33895238Y-59734342D02*
X33942857Y-59829580D01*
X33942857Y-59829580D02*
X33990476Y-59877200D01*
X33990476Y-59877200D02*
X34085714Y-59924819D01*
X34085714Y-59924819D02*
X34276190Y-59924819D01*
X34276190Y-59924819D02*
X34371428Y-59877200D01*
X34371428Y-59877200D02*
X34419047Y-59829580D01*
X34419047Y-59829580D02*
X34466666Y-59734342D01*
X34466666Y-59734342D02*
X34466666Y-59496247D01*
X34466666Y-59496247D02*
X34419047Y-59401009D01*
X34419047Y-59401009D02*
X34371428Y-59353390D01*
X34371428Y-59353390D02*
X34276190Y-59305771D01*
X34276190Y-59305771D02*
X34085714Y-59305771D01*
X34085714Y-59305771D02*
X33990476Y-59353390D01*
X33990476Y-59353390D02*
X33942857Y-59401009D01*
X33942857Y-59401009D02*
X33895238Y-59496247D01*
X3866666Y-9324819D02*
X3866666Y-10039104D01*
X3866666Y-10039104D02*
X3819047Y-10181961D01*
X3819047Y-10181961D02*
X3723809Y-10277200D01*
X3723809Y-10277200D02*
X3580952Y-10324819D01*
X3580952Y-10324819D02*
X3485714Y-10324819D01*
X4485714Y-9753390D02*
X4390476Y-9705771D01*
X4390476Y-9705771D02*
X4342857Y-9658152D01*
X4342857Y-9658152D02*
X4295238Y-9562914D01*
X4295238Y-9562914D02*
X4295238Y-9515295D01*
X4295238Y-9515295D02*
X4342857Y-9420057D01*
X4342857Y-9420057D02*
X4390476Y-9372438D01*
X4390476Y-9372438D02*
X4485714Y-9324819D01*
X4485714Y-9324819D02*
X4676190Y-9324819D01*
X4676190Y-9324819D02*
X4771428Y-9372438D01*
X4771428Y-9372438D02*
X4819047Y-9420057D01*
X4819047Y-9420057D02*
X4866666Y-9515295D01*
X4866666Y-9515295D02*
X4866666Y-9562914D01*
X4866666Y-9562914D02*
X4819047Y-9658152D01*
X4819047Y-9658152D02*
X4771428Y-9705771D01*
X4771428Y-9705771D02*
X4676190Y-9753390D01*
X4676190Y-9753390D02*
X4485714Y-9753390D01*
X4485714Y-9753390D02*
X4390476Y-9801009D01*
X4390476Y-9801009D02*
X4342857Y-9848628D01*
X4342857Y-9848628D02*
X4295238Y-9943866D01*
X4295238Y-9943866D02*
X4295238Y-10134342D01*
X4295238Y-10134342D02*
X4342857Y-10229580D01*
X4342857Y-10229580D02*
X4390476Y-10277200D01*
X4390476Y-10277200D02*
X4485714Y-10324819D01*
X4485714Y-10324819D02*
X4676190Y-10324819D01*
X4676190Y-10324819D02*
X4771428Y-10277200D01*
X4771428Y-10277200D02*
X4819047Y-10229580D01*
X4819047Y-10229580D02*
X4866666Y-10134342D01*
X4866666Y-10134342D02*
X4866666Y-9943866D01*
X4866666Y-9943866D02*
X4819047Y-9848628D01*
X4819047Y-9848628D02*
X4771428Y-9801009D01*
X4771428Y-9801009D02*
X4676190Y-9753390D01*
X5786127Y-21030437D02*
X5452794Y-20554246D01*
X5214699Y-21030437D02*
X5214699Y-20030437D01*
X5214699Y-20030437D02*
X5595651Y-20030437D01*
X5595651Y-20030437D02*
X5690889Y-20078056D01*
X5690889Y-20078056D02*
X5738508Y-20125675D01*
X5738508Y-20125675D02*
X5786127Y-20220913D01*
X5786127Y-20220913D02*
X5786127Y-20363770D01*
X5786127Y-20363770D02*
X5738508Y-20459008D01*
X5738508Y-20459008D02*
X5690889Y-20506627D01*
X5690889Y-20506627D02*
X5595651Y-20554246D01*
X5595651Y-20554246D02*
X5214699Y-20554246D01*
X6167080Y-20125675D02*
X6214699Y-20078056D01*
X6214699Y-20078056D02*
X6309937Y-20030437D01*
X6309937Y-20030437D02*
X6548032Y-20030437D01*
X6548032Y-20030437D02*
X6643270Y-20078056D01*
X6643270Y-20078056D02*
X6690889Y-20125675D01*
X6690889Y-20125675D02*
X6738508Y-20220913D01*
X6738508Y-20220913D02*
X6738508Y-20316151D01*
X6738508Y-20316151D02*
X6690889Y-20459008D01*
X6690889Y-20459008D02*
X6119461Y-21030437D01*
X6119461Y-21030437D02*
X6738508Y-21030437D01*
X7214699Y-21030437D02*
X7405175Y-21030437D01*
X7405175Y-21030437D02*
X7500413Y-20982818D01*
X7500413Y-20982818D02*
X7548032Y-20935198D01*
X7548032Y-20935198D02*
X7643270Y-20792341D01*
X7643270Y-20792341D02*
X7690889Y-20601865D01*
X7690889Y-20601865D02*
X7690889Y-20220913D01*
X7690889Y-20220913D02*
X7643270Y-20125675D01*
X7643270Y-20125675D02*
X7595651Y-20078056D01*
X7595651Y-20078056D02*
X7500413Y-20030437D01*
X7500413Y-20030437D02*
X7309937Y-20030437D01*
X7309937Y-20030437D02*
X7214699Y-20078056D01*
X7214699Y-20078056D02*
X7167080Y-20125675D01*
X7167080Y-20125675D02*
X7119461Y-20220913D01*
X7119461Y-20220913D02*
X7119461Y-20459008D01*
X7119461Y-20459008D02*
X7167080Y-20554246D01*
X7167080Y-20554246D02*
X7214699Y-20601865D01*
X7214699Y-20601865D02*
X7309937Y-20649484D01*
X7309937Y-20649484D02*
X7500413Y-20649484D01*
X7500413Y-20649484D02*
X7595651Y-20601865D01*
X7595651Y-20601865D02*
X7643270Y-20554246D01*
X7643270Y-20554246D02*
X7690889Y-20459008D01*
X-590180Y-29933333D02*
X124104Y-29933333D01*
X124104Y-29933333D02*
X266961Y-29980952D01*
X266961Y-29980952D02*
X362200Y-30076190D01*
X362200Y-30076190D02*
X409819Y-30219047D01*
X409819Y-30219047D02*
X409819Y-30314285D01*
X-494942Y-29504761D02*
X-542561Y-29457142D01*
X-542561Y-29457142D02*
X-590180Y-29361904D01*
X-590180Y-29361904D02*
X-590180Y-29123809D01*
X-590180Y-29123809D02*
X-542561Y-29028571D01*
X-542561Y-29028571D02*
X-494942Y-28980952D01*
X-494942Y-28980952D02*
X-399704Y-28933333D01*
X-399704Y-28933333D02*
X-304466Y-28933333D01*
X-304466Y-28933333D02*
X-161609Y-28980952D01*
X-161609Y-28980952D02*
X409819Y-29552380D01*
X409819Y-29552380D02*
X409819Y-28933333D01*
X33407200Y-55333332D02*
X33454819Y-55190475D01*
X33454819Y-55190475D02*
X33454819Y-54952380D01*
X33454819Y-54952380D02*
X33407200Y-54857142D01*
X33407200Y-54857142D02*
X33359580Y-54809523D01*
X33359580Y-54809523D02*
X33264342Y-54761904D01*
X33264342Y-54761904D02*
X33169104Y-54761904D01*
X33169104Y-54761904D02*
X33073866Y-54809523D01*
X33073866Y-54809523D02*
X33026247Y-54857142D01*
X33026247Y-54857142D02*
X32978628Y-54952380D01*
X32978628Y-54952380D02*
X32931009Y-55142856D01*
X32931009Y-55142856D02*
X32883390Y-55238094D01*
X32883390Y-55238094D02*
X32835771Y-55285713D01*
X32835771Y-55285713D02*
X32740533Y-55333332D01*
X32740533Y-55333332D02*
X32645295Y-55333332D01*
X32645295Y-55333332D02*
X32550057Y-55285713D01*
X32550057Y-55285713D02*
X32502438Y-55238094D01*
X32502438Y-55238094D02*
X32454819Y-55142856D01*
X32454819Y-55142856D02*
X32454819Y-54904761D01*
X32454819Y-54904761D02*
X32502438Y-54761904D01*
X32454819Y-54428570D02*
X33454819Y-54190475D01*
X33454819Y-54190475D02*
X32740533Y-53999999D01*
X32740533Y-53999999D02*
X33454819Y-53809523D01*
X33454819Y-53809523D02*
X32454819Y-53571428D01*
X32550057Y-53238094D02*
X32502438Y-53190475D01*
X32502438Y-53190475D02*
X32454819Y-53095237D01*
X32454819Y-53095237D02*
X32454819Y-52857142D01*
X32454819Y-52857142D02*
X32502438Y-52761904D01*
X32502438Y-52761904D02*
X32550057Y-52714285D01*
X32550057Y-52714285D02*
X32645295Y-52666666D01*
X32645295Y-52666666D02*
X32740533Y-52666666D01*
X32740533Y-52666666D02*
X32883390Y-52714285D01*
X32883390Y-52714285D02*
X33454819Y-53285713D01*
X33454819Y-53285713D02*
X33454819Y-52666666D01*
X32093845Y-42132589D02*
X31760512Y-41656398D01*
X31522417Y-42132589D02*
X31522417Y-41132589D01*
X31522417Y-41132589D02*
X31903369Y-41132589D01*
X31903369Y-41132589D02*
X31998607Y-41180208D01*
X31998607Y-41180208D02*
X32046226Y-41227827D01*
X32046226Y-41227827D02*
X32093845Y-41323065D01*
X32093845Y-41323065D02*
X32093845Y-41465922D01*
X32093845Y-41465922D02*
X32046226Y-41561160D01*
X32046226Y-41561160D02*
X31998607Y-41608779D01*
X31998607Y-41608779D02*
X31903369Y-41656398D01*
X31903369Y-41656398D02*
X31522417Y-41656398D01*
X32570036Y-42132589D02*
X32760512Y-42132589D01*
X32760512Y-42132589D02*
X32855750Y-42084970D01*
X32855750Y-42084970D02*
X32903369Y-42037350D01*
X32903369Y-42037350D02*
X32998607Y-41894493D01*
X32998607Y-41894493D02*
X33046226Y-41704017D01*
X33046226Y-41704017D02*
X33046226Y-41323065D01*
X33046226Y-41323065D02*
X32998607Y-41227827D01*
X32998607Y-41227827D02*
X32950988Y-41180208D01*
X32950988Y-41180208D02*
X32855750Y-41132589D01*
X32855750Y-41132589D02*
X32665274Y-41132589D01*
X32665274Y-41132589D02*
X32570036Y-41180208D01*
X32570036Y-41180208D02*
X32522417Y-41227827D01*
X32522417Y-41227827D02*
X32474798Y-41323065D01*
X32474798Y-41323065D02*
X32474798Y-41561160D01*
X32474798Y-41561160D02*
X32522417Y-41656398D01*
X32522417Y-41656398D02*
X32570036Y-41704017D01*
X32570036Y-41704017D02*
X32665274Y-41751636D01*
X32665274Y-41751636D02*
X32855750Y-41751636D01*
X32855750Y-41751636D02*
X32950988Y-41704017D01*
X32950988Y-41704017D02*
X32998607Y-41656398D01*
X32998607Y-41656398D02*
X33046226Y-41561160D01*
X25257142Y-37884819D02*
X24923809Y-37408628D01*
X24685714Y-37884819D02*
X24685714Y-36884819D01*
X24685714Y-36884819D02*
X25066666Y-36884819D01*
X25066666Y-36884819D02*
X25161904Y-36932438D01*
X25161904Y-36932438D02*
X25209523Y-36980057D01*
X25209523Y-36980057D02*
X25257142Y-37075295D01*
X25257142Y-37075295D02*
X25257142Y-37218152D01*
X25257142Y-37218152D02*
X25209523Y-37313390D01*
X25209523Y-37313390D02*
X25161904Y-37361009D01*
X25161904Y-37361009D02*
X25066666Y-37408628D01*
X25066666Y-37408628D02*
X24685714Y-37408628D01*
X26209523Y-37884819D02*
X25638095Y-37884819D01*
X25923809Y-37884819D02*
X25923809Y-36884819D01*
X25923809Y-36884819D02*
X25828571Y-37027676D01*
X25828571Y-37027676D02*
X25733333Y-37122914D01*
X25733333Y-37122914D02*
X25638095Y-37170533D01*
X27161904Y-37884819D02*
X26590476Y-37884819D01*
X26876190Y-37884819D02*
X26876190Y-36884819D01*
X26876190Y-36884819D02*
X26780952Y-37027676D01*
X26780952Y-37027676D02*
X26685714Y-37122914D01*
X26685714Y-37122914D02*
X26590476Y-37170533D01*
X25116366Y-36477981D02*
X24783033Y-36001790D01*
X24544938Y-36477981D02*
X24544938Y-35477981D01*
X24544938Y-35477981D02*
X24925890Y-35477981D01*
X24925890Y-35477981D02*
X25021128Y-35525600D01*
X25021128Y-35525600D02*
X25068747Y-35573219D01*
X25068747Y-35573219D02*
X25116366Y-35668457D01*
X25116366Y-35668457D02*
X25116366Y-35811314D01*
X25116366Y-35811314D02*
X25068747Y-35906552D01*
X25068747Y-35906552D02*
X25021128Y-35954171D01*
X25021128Y-35954171D02*
X24925890Y-36001790D01*
X24925890Y-36001790D02*
X24544938Y-36001790D01*
X26068747Y-36477981D02*
X25497319Y-36477981D01*
X25783033Y-36477981D02*
X25783033Y-35477981D01*
X25783033Y-35477981D02*
X25687795Y-35620838D01*
X25687795Y-35620838D02*
X25592557Y-35716076D01*
X25592557Y-35716076D02*
X25497319Y-35763695D01*
X26925890Y-35811314D02*
X26925890Y-36477981D01*
X26687795Y-35430362D02*
X26449700Y-36144647D01*
X26449700Y-36144647D02*
X27068747Y-36144647D01*
X18687725Y-45867204D02*
X18354392Y-45391013D01*
X18116297Y-45867204D02*
X18116297Y-44867204D01*
X18116297Y-44867204D02*
X18497249Y-44867204D01*
X18497249Y-44867204D02*
X18592487Y-44914823D01*
X18592487Y-44914823D02*
X18640106Y-44962442D01*
X18640106Y-44962442D02*
X18687725Y-45057680D01*
X18687725Y-45057680D02*
X18687725Y-45200537D01*
X18687725Y-45200537D02*
X18640106Y-45295775D01*
X18640106Y-45295775D02*
X18592487Y-45343394D01*
X18592487Y-45343394D02*
X18497249Y-45391013D01*
X18497249Y-45391013D02*
X18116297Y-45391013D01*
X19068678Y-44962442D02*
X19116297Y-44914823D01*
X19116297Y-44914823D02*
X19211535Y-44867204D01*
X19211535Y-44867204D02*
X19449630Y-44867204D01*
X19449630Y-44867204D02*
X19544868Y-44914823D01*
X19544868Y-44914823D02*
X19592487Y-44962442D01*
X19592487Y-44962442D02*
X19640106Y-45057680D01*
X19640106Y-45057680D02*
X19640106Y-45152918D01*
X19640106Y-45152918D02*
X19592487Y-45295775D01*
X19592487Y-45295775D02*
X19021059Y-45867204D01*
X19021059Y-45867204D02*
X19640106Y-45867204D01*
X20259154Y-44867204D02*
X20354392Y-44867204D01*
X20354392Y-44867204D02*
X20449630Y-44914823D01*
X20449630Y-44914823D02*
X20497249Y-44962442D01*
X20497249Y-44962442D02*
X20544868Y-45057680D01*
X20544868Y-45057680D02*
X20592487Y-45248156D01*
X20592487Y-45248156D02*
X20592487Y-45486251D01*
X20592487Y-45486251D02*
X20544868Y-45676727D01*
X20544868Y-45676727D02*
X20497249Y-45771965D01*
X20497249Y-45771965D02*
X20449630Y-45819585D01*
X20449630Y-45819585D02*
X20354392Y-45867204D01*
X20354392Y-45867204D02*
X20259154Y-45867204D01*
X20259154Y-45867204D02*
X20163916Y-45819585D01*
X20163916Y-45819585D02*
X20116297Y-45771965D01*
X20116297Y-45771965D02*
X20068678Y-45676727D01*
X20068678Y-45676727D02*
X20021059Y-45486251D01*
X20021059Y-45486251D02*
X20021059Y-45248156D01*
X20021059Y-45248156D02*
X20068678Y-45057680D01*
X20068678Y-45057680D02*
X20116297Y-44962442D01*
X20116297Y-44962442D02*
X20163916Y-44914823D01*
X20163916Y-44914823D02*
X20259154Y-44867204D01*
X-5825239Y-69579726D02*
X-5825239Y-68309726D01*
X-5825239Y-68309726D02*
X-5401905Y-69216869D01*
X-5401905Y-69216869D02*
X-4978572Y-68309726D01*
X-4978572Y-68309726D02*
X-4978572Y-69579726D01*
X-4192381Y-69579726D02*
X-4313333Y-69519250D01*
X-4313333Y-69519250D02*
X-4373810Y-69458773D01*
X-4373810Y-69458773D02*
X-4434286Y-69337821D01*
X-4434286Y-69337821D02*
X-4434286Y-68974964D01*
X-4434286Y-68974964D02*
X-4373810Y-68854011D01*
X-4373810Y-68854011D02*
X-4313333Y-68793535D01*
X-4313333Y-68793535D02*
X-4192381Y-68733059D01*
X-4192381Y-68733059D02*
X-4010952Y-68733059D01*
X-4010952Y-68733059D02*
X-3890000Y-68793535D01*
X-3890000Y-68793535D02*
X-3829524Y-68854011D01*
X-3829524Y-68854011D02*
X-3769048Y-68974964D01*
X-3769048Y-68974964D02*
X-3769048Y-69337821D01*
X-3769048Y-69337821D02*
X-3829524Y-69458773D01*
X-3829524Y-69458773D02*
X-3890000Y-69519250D01*
X-3890000Y-69519250D02*
X-4010952Y-69579726D01*
X-4010952Y-69579726D02*
X-4192381Y-69579726D01*
X-2680476Y-68733059D02*
X-2680476Y-69579726D01*
X-3224762Y-68733059D02*
X-3224762Y-69398297D01*
X-3224762Y-69398297D02*
X-3164285Y-69519250D01*
X-3164285Y-69519250D02*
X-3043333Y-69579726D01*
X-3043333Y-69579726D02*
X-2861904Y-69579726D01*
X-2861904Y-69579726D02*
X-2740952Y-69519250D01*
X-2740952Y-69519250D02*
X-2680476Y-69458773D01*
X-2075714Y-68733059D02*
X-2075714Y-69579726D01*
X-2075714Y-68854011D02*
X-2015237Y-68793535D01*
X-2015237Y-68793535D02*
X-1894285Y-68733059D01*
X-1894285Y-68733059D02*
X-1712856Y-68733059D01*
X-1712856Y-68733059D02*
X-1591904Y-68793535D01*
X-1591904Y-68793535D02*
X-1531428Y-68914488D01*
X-1531428Y-68914488D02*
X-1531428Y-69579726D01*
X-1108094Y-68733059D02*
X-624285Y-68733059D01*
X-926666Y-68309726D02*
X-926666Y-69398297D01*
X-926666Y-69398297D02*
X-866189Y-69519250D01*
X-866189Y-69519250D02*
X-745237Y-69579726D01*
X-745237Y-69579726D02*
X-624285Y-69579726D01*
X-200952Y-69579726D02*
X-200952Y-68733059D01*
X-200952Y-68309726D02*
X-261428Y-68370202D01*
X-261428Y-68370202D02*
X-200952Y-68430678D01*
X-200952Y-68430678D02*
X-140475Y-68370202D01*
X-140475Y-68370202D02*
X-200952Y-68309726D01*
X-200952Y-68309726D02*
X-200952Y-68430678D01*
X403809Y-68733059D02*
X403809Y-69579726D01*
X403809Y-68854011D02*
X464286Y-68793535D01*
X464286Y-68793535D02*
X585238Y-68733059D01*
X585238Y-68733059D02*
X766667Y-68733059D01*
X766667Y-68733059D02*
X887619Y-68793535D01*
X887619Y-68793535D02*
X948095Y-68914488D01*
X948095Y-68914488D02*
X948095Y-69579726D01*
X2097143Y-68733059D02*
X2097143Y-69761154D01*
X2097143Y-69761154D02*
X2036667Y-69882107D01*
X2036667Y-69882107D02*
X1976191Y-69942583D01*
X1976191Y-69942583D02*
X1855238Y-70003059D01*
X1855238Y-70003059D02*
X1673810Y-70003059D01*
X1673810Y-70003059D02*
X1552857Y-69942583D01*
X2097143Y-69519250D02*
X1976191Y-69579726D01*
X1976191Y-69579726D02*
X1734286Y-69579726D01*
X1734286Y-69579726D02*
X1613334Y-69519250D01*
X1613334Y-69519250D02*
X1552857Y-69458773D01*
X1552857Y-69458773D02*
X1492381Y-69337821D01*
X1492381Y-69337821D02*
X1492381Y-68974964D01*
X1492381Y-68974964D02*
X1552857Y-68854011D01*
X1552857Y-68854011D02*
X1613334Y-68793535D01*
X1613334Y-68793535D02*
X1734286Y-68733059D01*
X1734286Y-68733059D02*
X1976191Y-68733059D01*
X1976191Y-68733059D02*
X2097143Y-68793535D01*
X2701905Y-69579726D02*
X2701905Y-68309726D01*
X2701905Y-68914488D02*
X3427620Y-68914488D01*
X3427620Y-69579726D02*
X3427620Y-68309726D01*
X4213810Y-69579726D02*
X4092858Y-69519250D01*
X4092858Y-69519250D02*
X4032381Y-69458773D01*
X4032381Y-69458773D02*
X3971905Y-69337821D01*
X3971905Y-69337821D02*
X3971905Y-68974964D01*
X3971905Y-68974964D02*
X4032381Y-68854011D01*
X4032381Y-68854011D02*
X4092858Y-68793535D01*
X4092858Y-68793535D02*
X4213810Y-68733059D01*
X4213810Y-68733059D02*
X4395239Y-68733059D01*
X4395239Y-68733059D02*
X4516191Y-68793535D01*
X4516191Y-68793535D02*
X4576667Y-68854011D01*
X4576667Y-68854011D02*
X4637143Y-68974964D01*
X4637143Y-68974964D02*
X4637143Y-69337821D01*
X4637143Y-69337821D02*
X4576667Y-69458773D01*
X4576667Y-69458773D02*
X4516191Y-69519250D01*
X4516191Y-69519250D02*
X4395239Y-69579726D01*
X4395239Y-69579726D02*
X4213810Y-69579726D01*
X5362858Y-69579726D02*
X5241906Y-69519250D01*
X5241906Y-69519250D02*
X5181429Y-69398297D01*
X5181429Y-69398297D02*
X5181429Y-68309726D01*
X6330477Y-69519250D02*
X6209525Y-69579726D01*
X6209525Y-69579726D02*
X5967620Y-69579726D01*
X5967620Y-69579726D02*
X5846667Y-69519250D01*
X5846667Y-69519250D02*
X5786191Y-69398297D01*
X5786191Y-69398297D02*
X5786191Y-68914488D01*
X5786191Y-68914488D02*
X5846667Y-68793535D01*
X5846667Y-68793535D02*
X5967620Y-68733059D01*
X5967620Y-68733059D02*
X6209525Y-68733059D01*
X6209525Y-68733059D02*
X6330477Y-68793535D01*
X6330477Y-68793535D02*
X6390953Y-68914488D01*
X6390953Y-68914488D02*
X6390953Y-69035440D01*
X6390953Y-69035440D02*
X5786191Y-69156392D01*
X6632858Y-69700678D02*
X7600477Y-69700678D01*
X7902857Y-69579726D02*
X7902857Y-68309726D01*
X7902857Y-68309726D02*
X8326191Y-69216869D01*
X8326191Y-69216869D02*
X8749524Y-68309726D01*
X8749524Y-68309726D02*
X8749524Y-69579726D01*
X9293810Y-68430678D02*
X9354286Y-68370202D01*
X9354286Y-68370202D02*
X9475239Y-68309726D01*
X9475239Y-68309726D02*
X9777620Y-68309726D01*
X9777620Y-68309726D02*
X9898572Y-68370202D01*
X9898572Y-68370202D02*
X9959048Y-68430678D01*
X9959048Y-68430678D02*
X10019525Y-68551630D01*
X10019525Y-68551630D02*
X10019525Y-68672583D01*
X10019525Y-68672583D02*
X9959048Y-68854011D01*
X9959048Y-68854011D02*
X9233334Y-69579726D01*
X9233334Y-69579726D02*
X10019525Y-69579726D01*
X10261430Y-69700678D02*
X11229049Y-69700678D01*
X11531429Y-69579726D02*
X11531429Y-68309726D01*
X11531429Y-68309726D02*
X12257144Y-69579726D01*
X12257144Y-69579726D02*
X12257144Y-68309726D01*
X12861905Y-69579726D02*
X12861905Y-68309726D01*
X12861905Y-68309726D02*
X13345715Y-68309726D01*
X13345715Y-68309726D02*
X13466667Y-68370202D01*
X13466667Y-68370202D02*
X13527144Y-68430678D01*
X13527144Y-68430678D02*
X13587620Y-68551630D01*
X13587620Y-68551630D02*
X13587620Y-68733059D01*
X13587620Y-68733059D02*
X13527144Y-68854011D01*
X13527144Y-68854011D02*
X13466667Y-68914488D01*
X13466667Y-68914488D02*
X13345715Y-68974964D01*
X13345715Y-68974964D02*
X12861905Y-68974964D01*
X13950477Y-68309726D02*
X14676191Y-68309726D01*
X14313334Y-69579726D02*
X14313334Y-68309726D01*
X15099524Y-69579726D02*
X15099524Y-68309726D01*
X15099524Y-68914488D02*
X15825239Y-68914488D01*
X15825239Y-69579726D02*
X15825239Y-68309726D01*
X5804761Y-52950057D02*
X5709523Y-52902438D01*
X5709523Y-52902438D02*
X5614285Y-52807200D01*
X5614285Y-52807200D02*
X5471428Y-52664342D01*
X5471428Y-52664342D02*
X5376190Y-52616723D01*
X5376190Y-52616723D02*
X5280952Y-52616723D01*
X5328571Y-52854819D02*
X5233333Y-52807200D01*
X5233333Y-52807200D02*
X5138095Y-52711961D01*
X5138095Y-52711961D02*
X5090476Y-52521485D01*
X5090476Y-52521485D02*
X5090476Y-52188152D01*
X5090476Y-52188152D02*
X5138095Y-51997676D01*
X5138095Y-51997676D02*
X5233333Y-51902438D01*
X5233333Y-51902438D02*
X5328571Y-51854819D01*
X5328571Y-51854819D02*
X5519047Y-51854819D01*
X5519047Y-51854819D02*
X5614285Y-51902438D01*
X5614285Y-51902438D02*
X5709523Y-51997676D01*
X5709523Y-51997676D02*
X5757142Y-52188152D01*
X5757142Y-52188152D02*
X5757142Y-52521485D01*
X5757142Y-52521485D02*
X5709523Y-52711961D01*
X5709523Y-52711961D02*
X5614285Y-52807200D01*
X5614285Y-52807200D02*
X5519047Y-52854819D01*
X5519047Y-52854819D02*
X5328571Y-52854819D01*
X6090476Y-51854819D02*
X6709523Y-51854819D01*
X6709523Y-51854819D02*
X6376190Y-52235771D01*
X6376190Y-52235771D02*
X6519047Y-52235771D01*
X6519047Y-52235771D02*
X6614285Y-52283390D01*
X6614285Y-52283390D02*
X6661904Y-52331009D01*
X6661904Y-52331009D02*
X6709523Y-52426247D01*
X6709523Y-52426247D02*
X6709523Y-52664342D01*
X6709523Y-52664342D02*
X6661904Y-52759580D01*
X6661904Y-52759580D02*
X6614285Y-52807200D01*
X6614285Y-52807200D02*
X6519047Y-52854819D01*
X6519047Y-52854819D02*
X6233333Y-52854819D01*
X6233333Y-52854819D02*
X6138095Y-52807200D01*
X6138095Y-52807200D02*
X6090476Y-52759580D01*
X26833333Y-59804819D02*
X26357143Y-59804819D01*
X26357143Y-59804819D02*
X26357143Y-58804819D01*
X27690476Y-59804819D02*
X27119048Y-59804819D01*
X27404762Y-59804819D02*
X27404762Y-58804819D01*
X27404762Y-58804819D02*
X27309524Y-58947676D01*
X27309524Y-58947676D02*
X27214286Y-59042914D01*
X27214286Y-59042914D02*
X27119048Y-59090533D01*
X22174760Y-69579726D02*
X22174760Y-68309726D01*
X22174760Y-68309726D02*
X22598094Y-69216869D01*
X22598094Y-69216869D02*
X23021427Y-68309726D01*
X23021427Y-68309726D02*
X23021427Y-69579726D01*
X23807618Y-69579726D02*
X23686666Y-69519250D01*
X23686666Y-69519250D02*
X23626189Y-69458773D01*
X23626189Y-69458773D02*
X23565713Y-69337821D01*
X23565713Y-69337821D02*
X23565713Y-68974964D01*
X23565713Y-68974964D02*
X23626189Y-68854011D01*
X23626189Y-68854011D02*
X23686666Y-68793535D01*
X23686666Y-68793535D02*
X23807618Y-68733059D01*
X23807618Y-68733059D02*
X23989047Y-68733059D01*
X23989047Y-68733059D02*
X24109999Y-68793535D01*
X24109999Y-68793535D02*
X24170475Y-68854011D01*
X24170475Y-68854011D02*
X24230951Y-68974964D01*
X24230951Y-68974964D02*
X24230951Y-69337821D01*
X24230951Y-69337821D02*
X24170475Y-69458773D01*
X24170475Y-69458773D02*
X24109999Y-69519250D01*
X24109999Y-69519250D02*
X23989047Y-69579726D01*
X23989047Y-69579726D02*
X23807618Y-69579726D01*
X25319523Y-68733059D02*
X25319523Y-69579726D01*
X24775237Y-68733059D02*
X24775237Y-69398297D01*
X24775237Y-69398297D02*
X24835714Y-69519250D01*
X24835714Y-69519250D02*
X24956666Y-69579726D01*
X24956666Y-69579726D02*
X25138095Y-69579726D01*
X25138095Y-69579726D02*
X25259047Y-69519250D01*
X25259047Y-69519250D02*
X25319523Y-69458773D01*
X25924285Y-68733059D02*
X25924285Y-69579726D01*
X25924285Y-68854011D02*
X25984762Y-68793535D01*
X25984762Y-68793535D02*
X26105714Y-68733059D01*
X26105714Y-68733059D02*
X26287143Y-68733059D01*
X26287143Y-68733059D02*
X26408095Y-68793535D01*
X26408095Y-68793535D02*
X26468571Y-68914488D01*
X26468571Y-68914488D02*
X26468571Y-69579726D01*
X26891905Y-68733059D02*
X27375714Y-68733059D01*
X27073333Y-68309726D02*
X27073333Y-69398297D01*
X27073333Y-69398297D02*
X27133810Y-69519250D01*
X27133810Y-69519250D02*
X27254762Y-69579726D01*
X27254762Y-69579726D02*
X27375714Y-69579726D01*
X27799047Y-69579726D02*
X27799047Y-68733059D01*
X27799047Y-68309726D02*
X27738571Y-68370202D01*
X27738571Y-68370202D02*
X27799047Y-68430678D01*
X27799047Y-68430678D02*
X27859524Y-68370202D01*
X27859524Y-68370202D02*
X27799047Y-68309726D01*
X27799047Y-68309726D02*
X27799047Y-68430678D01*
X28403809Y-68733059D02*
X28403809Y-69579726D01*
X28403809Y-68854011D02*
X28464286Y-68793535D01*
X28464286Y-68793535D02*
X28585238Y-68733059D01*
X28585238Y-68733059D02*
X28766667Y-68733059D01*
X28766667Y-68733059D02*
X28887619Y-68793535D01*
X28887619Y-68793535D02*
X28948095Y-68914488D01*
X28948095Y-68914488D02*
X28948095Y-69579726D01*
X30097143Y-68733059D02*
X30097143Y-69761154D01*
X30097143Y-69761154D02*
X30036667Y-69882107D01*
X30036667Y-69882107D02*
X29976191Y-69942583D01*
X29976191Y-69942583D02*
X29855238Y-70003059D01*
X29855238Y-70003059D02*
X29673810Y-70003059D01*
X29673810Y-70003059D02*
X29552857Y-69942583D01*
X30097143Y-69519250D02*
X29976191Y-69579726D01*
X29976191Y-69579726D02*
X29734286Y-69579726D01*
X29734286Y-69579726D02*
X29613334Y-69519250D01*
X29613334Y-69519250D02*
X29552857Y-69458773D01*
X29552857Y-69458773D02*
X29492381Y-69337821D01*
X29492381Y-69337821D02*
X29492381Y-68974964D01*
X29492381Y-68974964D02*
X29552857Y-68854011D01*
X29552857Y-68854011D02*
X29613334Y-68793535D01*
X29613334Y-68793535D02*
X29734286Y-68733059D01*
X29734286Y-68733059D02*
X29976191Y-68733059D01*
X29976191Y-68733059D02*
X30097143Y-68793535D01*
X30701905Y-69579726D02*
X30701905Y-68309726D01*
X30701905Y-68914488D02*
X31427620Y-68914488D01*
X31427620Y-69579726D02*
X31427620Y-68309726D01*
X32213810Y-69579726D02*
X32092858Y-69519250D01*
X32092858Y-69519250D02*
X32032381Y-69458773D01*
X32032381Y-69458773D02*
X31971905Y-69337821D01*
X31971905Y-69337821D02*
X31971905Y-68974964D01*
X31971905Y-68974964D02*
X32032381Y-68854011D01*
X32032381Y-68854011D02*
X32092858Y-68793535D01*
X32092858Y-68793535D02*
X32213810Y-68733059D01*
X32213810Y-68733059D02*
X32395239Y-68733059D01*
X32395239Y-68733059D02*
X32516191Y-68793535D01*
X32516191Y-68793535D02*
X32576667Y-68854011D01*
X32576667Y-68854011D02*
X32637143Y-68974964D01*
X32637143Y-68974964D02*
X32637143Y-69337821D01*
X32637143Y-69337821D02*
X32576667Y-69458773D01*
X32576667Y-69458773D02*
X32516191Y-69519250D01*
X32516191Y-69519250D02*
X32395239Y-69579726D01*
X32395239Y-69579726D02*
X32213810Y-69579726D01*
X33362858Y-69579726D02*
X33241906Y-69519250D01*
X33241906Y-69519250D02*
X33181429Y-69398297D01*
X33181429Y-69398297D02*
X33181429Y-68309726D01*
X34330477Y-69519250D02*
X34209525Y-69579726D01*
X34209525Y-69579726D02*
X33967620Y-69579726D01*
X33967620Y-69579726D02*
X33846667Y-69519250D01*
X33846667Y-69519250D02*
X33786191Y-69398297D01*
X33786191Y-69398297D02*
X33786191Y-68914488D01*
X33786191Y-68914488D02*
X33846667Y-68793535D01*
X33846667Y-68793535D02*
X33967620Y-68733059D01*
X33967620Y-68733059D02*
X34209525Y-68733059D01*
X34209525Y-68733059D02*
X34330477Y-68793535D01*
X34330477Y-68793535D02*
X34390953Y-68914488D01*
X34390953Y-68914488D02*
X34390953Y-69035440D01*
X34390953Y-69035440D02*
X33786191Y-69156392D01*
X34632858Y-69700678D02*
X35600477Y-69700678D01*
X35902857Y-69579726D02*
X35902857Y-68309726D01*
X35902857Y-68309726D02*
X36326191Y-69216869D01*
X36326191Y-69216869D02*
X36749524Y-68309726D01*
X36749524Y-68309726D02*
X36749524Y-69579726D01*
X37293810Y-68430678D02*
X37354286Y-68370202D01*
X37354286Y-68370202D02*
X37475239Y-68309726D01*
X37475239Y-68309726D02*
X37777620Y-68309726D01*
X37777620Y-68309726D02*
X37898572Y-68370202D01*
X37898572Y-68370202D02*
X37959048Y-68430678D01*
X37959048Y-68430678D02*
X38019525Y-68551630D01*
X38019525Y-68551630D02*
X38019525Y-68672583D01*
X38019525Y-68672583D02*
X37959048Y-68854011D01*
X37959048Y-68854011D02*
X37233334Y-69579726D01*
X37233334Y-69579726D02*
X38019525Y-69579726D01*
X38261430Y-69700678D02*
X39229049Y-69700678D01*
X39531429Y-69579726D02*
X39531429Y-68309726D01*
X39531429Y-68309726D02*
X40257144Y-69579726D01*
X40257144Y-69579726D02*
X40257144Y-68309726D01*
X40861905Y-69579726D02*
X40861905Y-68309726D01*
X40861905Y-68309726D02*
X41345715Y-68309726D01*
X41345715Y-68309726D02*
X41466667Y-68370202D01*
X41466667Y-68370202D02*
X41527144Y-68430678D01*
X41527144Y-68430678D02*
X41587620Y-68551630D01*
X41587620Y-68551630D02*
X41587620Y-68733059D01*
X41587620Y-68733059D02*
X41527144Y-68854011D01*
X41527144Y-68854011D02*
X41466667Y-68914488D01*
X41466667Y-68914488D02*
X41345715Y-68974964D01*
X41345715Y-68974964D02*
X40861905Y-68974964D01*
X41950477Y-68309726D02*
X42676191Y-68309726D01*
X42313334Y-69579726D02*
X42313334Y-68309726D01*
X43099524Y-69579726D02*
X43099524Y-68309726D01*
X43099524Y-68914488D02*
X43825239Y-68914488D01*
X43825239Y-69579726D02*
X43825239Y-68309726D01*
X21231213Y-31153542D02*
X20897880Y-30677351D01*
X20659785Y-31153542D02*
X20659785Y-30153542D01*
X20659785Y-30153542D02*
X21040737Y-30153542D01*
X21040737Y-30153542D02*
X21135975Y-30201161D01*
X21135975Y-30201161D02*
X21183594Y-30248780D01*
X21183594Y-30248780D02*
X21231213Y-30344018D01*
X21231213Y-30344018D02*
X21231213Y-30486875D01*
X21231213Y-30486875D02*
X21183594Y-30582113D01*
X21183594Y-30582113D02*
X21135975Y-30629732D01*
X21135975Y-30629732D02*
X21040737Y-30677351D01*
X21040737Y-30677351D02*
X20659785Y-30677351D01*
X22183594Y-31153542D02*
X21612166Y-31153542D01*
X21897880Y-31153542D02*
X21897880Y-30153542D01*
X21897880Y-30153542D02*
X21802642Y-30296399D01*
X21802642Y-30296399D02*
X21707404Y-30391637D01*
X21707404Y-30391637D02*
X21612166Y-30439256D01*
X23088356Y-30153542D02*
X22612166Y-30153542D01*
X22612166Y-30153542D02*
X22564547Y-30629732D01*
X22564547Y-30629732D02*
X22612166Y-30582113D01*
X22612166Y-30582113D02*
X22707404Y-30534494D01*
X22707404Y-30534494D02*
X22945499Y-30534494D01*
X22945499Y-30534494D02*
X23040737Y-30582113D01*
X23040737Y-30582113D02*
X23088356Y-30629732D01*
X23088356Y-30629732D02*
X23135975Y-30724970D01*
X23135975Y-30724970D02*
X23135975Y-30963065D01*
X23135975Y-30963065D02*
X23088356Y-31058303D01*
X23088356Y-31058303D02*
X23040737Y-31105923D01*
X23040737Y-31105923D02*
X22945499Y-31153542D01*
X22945499Y-31153542D02*
X22707404Y-31153542D01*
X22707404Y-31153542D02*
X22612166Y-31105923D01*
X22612166Y-31105923D02*
X22564547Y-31058303D01*
X31406437Y-51234819D02*
X31073104Y-50758628D01*
X30835009Y-51234819D02*
X30835009Y-50234819D01*
X30835009Y-50234819D02*
X31215961Y-50234819D01*
X31215961Y-50234819D02*
X31311199Y-50282438D01*
X31311199Y-50282438D02*
X31358818Y-50330057D01*
X31358818Y-50330057D02*
X31406437Y-50425295D01*
X31406437Y-50425295D02*
X31406437Y-50568152D01*
X31406437Y-50568152D02*
X31358818Y-50663390D01*
X31358818Y-50663390D02*
X31311199Y-50711009D01*
X31311199Y-50711009D02*
X31215961Y-50758628D01*
X31215961Y-50758628D02*
X30835009Y-50758628D01*
X32358818Y-51234819D02*
X31787390Y-51234819D01*
X32073104Y-51234819D02*
X32073104Y-50234819D01*
X32073104Y-50234819D02*
X31977866Y-50377676D01*
X31977866Y-50377676D02*
X31882628Y-50472914D01*
X31882628Y-50472914D02*
X31787390Y-50520533D01*
X32977866Y-50234819D02*
X33073104Y-50234819D01*
X33073104Y-50234819D02*
X33168342Y-50282438D01*
X33168342Y-50282438D02*
X33215961Y-50330057D01*
X33215961Y-50330057D02*
X33263580Y-50425295D01*
X33263580Y-50425295D02*
X33311199Y-50615771D01*
X33311199Y-50615771D02*
X33311199Y-50853866D01*
X33311199Y-50853866D02*
X33263580Y-51044342D01*
X33263580Y-51044342D02*
X33215961Y-51139580D01*
X33215961Y-51139580D02*
X33168342Y-51187200D01*
X33168342Y-51187200D02*
X33073104Y-51234819D01*
X33073104Y-51234819D02*
X32977866Y-51234819D01*
X32977866Y-51234819D02*
X32882628Y-51187200D01*
X32882628Y-51187200D02*
X32835009Y-51139580D01*
X32835009Y-51139580D02*
X32787390Y-51044342D01*
X32787390Y-51044342D02*
X32739771Y-50853866D01*
X32739771Y-50853866D02*
X32739771Y-50615771D01*
X32739771Y-50615771D02*
X32787390Y-50425295D01*
X32787390Y-50425295D02*
X32835009Y-50330057D01*
X32835009Y-50330057D02*
X32882628Y-50282438D01*
X32882628Y-50282438D02*
X32977866Y-50234819D01*
X29033333Y-36554819D02*
X28557143Y-36554819D01*
X28557143Y-36554819D02*
X28557143Y-35554819D01*
X29319048Y-35650057D02*
X29366667Y-35602438D01*
X29366667Y-35602438D02*
X29461905Y-35554819D01*
X29461905Y-35554819D02*
X29700000Y-35554819D01*
X29700000Y-35554819D02*
X29795238Y-35602438D01*
X29795238Y-35602438D02*
X29842857Y-35650057D01*
X29842857Y-35650057D02*
X29890476Y-35745295D01*
X29890476Y-35745295D02*
X29890476Y-35840533D01*
X29890476Y-35840533D02*
X29842857Y-35983390D01*
X29842857Y-35983390D02*
X29271429Y-36554819D01*
X29271429Y-36554819D02*
X29890476Y-36554819D01*
X9512142Y-20066321D02*
X9512142Y-19066321D01*
X9512142Y-19066321D02*
X9750237Y-19066321D01*
X9750237Y-19066321D02*
X9893094Y-19113940D01*
X9893094Y-19113940D02*
X9988332Y-19209178D01*
X9988332Y-19209178D02*
X10035951Y-19304416D01*
X10035951Y-19304416D02*
X10083570Y-19494892D01*
X10083570Y-19494892D02*
X10083570Y-19637749D01*
X10083570Y-19637749D02*
X10035951Y-19828225D01*
X10035951Y-19828225D02*
X9988332Y-19923463D01*
X9988332Y-19923463D02*
X9893094Y-20018702D01*
X9893094Y-20018702D02*
X9750237Y-20066321D01*
X9750237Y-20066321D02*
X9512142Y-20066321D01*
X11035951Y-20066321D02*
X10464523Y-20066321D01*
X10750237Y-20066321D02*
X10750237Y-19066321D01*
X10750237Y-19066321D02*
X10654999Y-19209178D01*
X10654999Y-19209178D02*
X10559761Y-19304416D01*
X10559761Y-19304416D02*
X10464523Y-19352035D01*
X32933333Y-33999580D02*
X32885714Y-34047200D01*
X32885714Y-34047200D02*
X32742857Y-34094819D01*
X32742857Y-34094819D02*
X32647619Y-34094819D01*
X32647619Y-34094819D02*
X32504762Y-34047200D01*
X32504762Y-34047200D02*
X32409524Y-33951961D01*
X32409524Y-33951961D02*
X32361905Y-33856723D01*
X32361905Y-33856723D02*
X32314286Y-33666247D01*
X32314286Y-33666247D02*
X32314286Y-33523390D01*
X32314286Y-33523390D02*
X32361905Y-33332914D01*
X32361905Y-33332914D02*
X32409524Y-33237676D01*
X32409524Y-33237676D02*
X32504762Y-33142438D01*
X32504762Y-33142438D02*
X32647619Y-33094819D01*
X32647619Y-33094819D02*
X32742857Y-33094819D01*
X32742857Y-33094819D02*
X32885714Y-33142438D01*
X32885714Y-33142438D02*
X32933333Y-33190057D01*
X33409524Y-34094819D02*
X33600000Y-34094819D01*
X33600000Y-34094819D02*
X33695238Y-34047200D01*
X33695238Y-34047200D02*
X33742857Y-33999580D01*
X33742857Y-33999580D02*
X33838095Y-33856723D01*
X33838095Y-33856723D02*
X33885714Y-33666247D01*
X33885714Y-33666247D02*
X33885714Y-33285295D01*
X33885714Y-33285295D02*
X33838095Y-33190057D01*
X33838095Y-33190057D02*
X33790476Y-33142438D01*
X33790476Y-33142438D02*
X33695238Y-33094819D01*
X33695238Y-33094819D02*
X33504762Y-33094819D01*
X33504762Y-33094819D02*
X33409524Y-33142438D01*
X33409524Y-33142438D02*
X33361905Y-33190057D01*
X33361905Y-33190057D02*
X33314286Y-33285295D01*
X33314286Y-33285295D02*
X33314286Y-33523390D01*
X33314286Y-33523390D02*
X33361905Y-33618628D01*
X33361905Y-33618628D02*
X33409524Y-33666247D01*
X33409524Y-33666247D02*
X33504762Y-33713866D01*
X33504762Y-33713866D02*
X33695238Y-33713866D01*
X33695238Y-33713866D02*
X33790476Y-33666247D01*
X33790476Y-33666247D02*
X33838095Y-33618628D01*
X33838095Y-33618628D02*
X33885714Y-33523390D01*
X5804761Y-17350057D02*
X5709523Y-17302438D01*
X5709523Y-17302438D02*
X5614285Y-17207200D01*
X5614285Y-17207200D02*
X5471428Y-17064342D01*
X5471428Y-17064342D02*
X5376190Y-17016723D01*
X5376190Y-17016723D02*
X5280952Y-17016723D01*
X5328571Y-17254819D02*
X5233333Y-17207200D01*
X5233333Y-17207200D02*
X5138095Y-17111961D01*
X5138095Y-17111961D02*
X5090476Y-16921485D01*
X5090476Y-16921485D02*
X5090476Y-16588152D01*
X5090476Y-16588152D02*
X5138095Y-16397676D01*
X5138095Y-16397676D02*
X5233333Y-16302438D01*
X5233333Y-16302438D02*
X5328571Y-16254819D01*
X5328571Y-16254819D02*
X5519047Y-16254819D01*
X5519047Y-16254819D02*
X5614285Y-16302438D01*
X5614285Y-16302438D02*
X5709523Y-16397676D01*
X5709523Y-16397676D02*
X5757142Y-16588152D01*
X5757142Y-16588152D02*
X5757142Y-16921485D01*
X5757142Y-16921485D02*
X5709523Y-17111961D01*
X5709523Y-17111961D02*
X5614285Y-17207200D01*
X5614285Y-17207200D02*
X5519047Y-17254819D01*
X5519047Y-17254819D02*
X5328571Y-17254819D01*
X6614285Y-16588152D02*
X6614285Y-17254819D01*
X6376190Y-16207200D02*
X6138095Y-16921485D01*
X6138095Y-16921485D02*
X6757142Y-16921485D01*
X18509044Y-44375286D02*
X18175711Y-43899095D01*
X17937616Y-44375286D02*
X17937616Y-43375286D01*
X17937616Y-43375286D02*
X18318568Y-43375286D01*
X18318568Y-43375286D02*
X18413806Y-43422905D01*
X18413806Y-43422905D02*
X18461425Y-43470524D01*
X18461425Y-43470524D02*
X18509044Y-43565762D01*
X18509044Y-43565762D02*
X18509044Y-43708619D01*
X18509044Y-43708619D02*
X18461425Y-43803857D01*
X18461425Y-43803857D02*
X18413806Y-43851476D01*
X18413806Y-43851476D02*
X18318568Y-43899095D01*
X18318568Y-43899095D02*
X17937616Y-43899095D01*
X18842378Y-43375286D02*
X19461425Y-43375286D01*
X19461425Y-43375286D02*
X19128092Y-43756238D01*
X19128092Y-43756238D02*
X19270949Y-43756238D01*
X19270949Y-43756238D02*
X19366187Y-43803857D01*
X19366187Y-43803857D02*
X19413806Y-43851476D01*
X19413806Y-43851476D02*
X19461425Y-43946714D01*
X19461425Y-43946714D02*
X19461425Y-44184809D01*
X19461425Y-44184809D02*
X19413806Y-44280047D01*
X19413806Y-44280047D02*
X19366187Y-44327667D01*
X19366187Y-44327667D02*
X19270949Y-44375286D01*
X19270949Y-44375286D02*
X18985235Y-44375286D01*
X18985235Y-44375286D02*
X18889997Y-44327667D01*
X18889997Y-44327667D02*
X18842378Y-44280047D01*
X20080473Y-43375286D02*
X20175711Y-43375286D01*
X20175711Y-43375286D02*
X20270949Y-43422905D01*
X20270949Y-43422905D02*
X20318568Y-43470524D01*
X20318568Y-43470524D02*
X20366187Y-43565762D01*
X20366187Y-43565762D02*
X20413806Y-43756238D01*
X20413806Y-43756238D02*
X20413806Y-43994333D01*
X20413806Y-43994333D02*
X20366187Y-44184809D01*
X20366187Y-44184809D02*
X20318568Y-44280047D01*
X20318568Y-44280047D02*
X20270949Y-44327667D01*
X20270949Y-44327667D02*
X20175711Y-44375286D01*
X20175711Y-44375286D02*
X20080473Y-44375286D01*
X20080473Y-44375286D02*
X19985235Y-44327667D01*
X19985235Y-44327667D02*
X19937616Y-44280047D01*
X19937616Y-44280047D02*
X19889997Y-44184809D01*
X19889997Y-44184809D02*
X19842378Y-43994333D01*
X19842378Y-43994333D02*
X19842378Y-43756238D01*
X19842378Y-43756238D02*
X19889997Y-43565762D01*
X19889997Y-43565762D02*
X19937616Y-43470524D01*
X19937616Y-43470524D02*
X19985235Y-43422905D01*
X19985235Y-43422905D02*
X20080473Y-43375286D01*
X25384037Y-62234818D02*
X25050704Y-61758627D01*
X24812609Y-62234818D02*
X24812609Y-61234818D01*
X24812609Y-61234818D02*
X25193561Y-61234818D01*
X25193561Y-61234818D02*
X25288799Y-61282437D01*
X25288799Y-61282437D02*
X25336418Y-61330056D01*
X25336418Y-61330056D02*
X25384037Y-61425294D01*
X25384037Y-61425294D02*
X25384037Y-61568151D01*
X25384037Y-61568151D02*
X25336418Y-61663389D01*
X25336418Y-61663389D02*
X25288799Y-61711008D01*
X25288799Y-61711008D02*
X25193561Y-61758627D01*
X25193561Y-61758627D02*
X24812609Y-61758627D01*
X26288799Y-61234818D02*
X25812609Y-61234818D01*
X25812609Y-61234818D02*
X25764990Y-61711008D01*
X25764990Y-61711008D02*
X25812609Y-61663389D01*
X25812609Y-61663389D02*
X25907847Y-61615770D01*
X25907847Y-61615770D02*
X26145942Y-61615770D01*
X26145942Y-61615770D02*
X26241180Y-61663389D01*
X26241180Y-61663389D02*
X26288799Y-61711008D01*
X26288799Y-61711008D02*
X26336418Y-61806246D01*
X26336418Y-61806246D02*
X26336418Y-62044341D01*
X26336418Y-62044341D02*
X26288799Y-62139579D01*
X26288799Y-62139579D02*
X26241180Y-62187199D01*
X26241180Y-62187199D02*
X26145942Y-62234818D01*
X26145942Y-62234818D02*
X25907847Y-62234818D01*
X25907847Y-62234818D02*
X25812609Y-62187199D01*
X25812609Y-62187199D02*
X25764990Y-62139579D01*
X27890476Y-65659819D02*
X27890476Y-66374104D01*
X27890476Y-66374104D02*
X27842857Y-66516961D01*
X27842857Y-66516961D02*
X27747619Y-66612200D01*
X27747619Y-66612200D02*
X27604762Y-66659819D01*
X27604762Y-66659819D02*
X27509524Y-66659819D01*
X28890476Y-66659819D02*
X28319048Y-66659819D01*
X28604762Y-66659819D02*
X28604762Y-65659819D01*
X28604762Y-65659819D02*
X28509524Y-65802676D01*
X28509524Y-65802676D02*
X28414286Y-65897914D01*
X28414286Y-65897914D02*
X28319048Y-65945533D01*
X29842857Y-66659819D02*
X29271429Y-66659819D01*
X29557143Y-66659819D02*
X29557143Y-65659819D01*
X29557143Y-65659819D02*
X29461905Y-65802676D01*
X29461905Y-65802676D02*
X29366667Y-65897914D01*
X29366667Y-65897914D02*
X29271429Y-65945533D01*
X21238095Y-57954819D02*
X21238095Y-58764342D01*
X21238095Y-58764342D02*
X21285714Y-58859580D01*
X21285714Y-58859580D02*
X21333333Y-58907200D01*
X21333333Y-58907200D02*
X21428571Y-58954819D01*
X21428571Y-58954819D02*
X21619047Y-58954819D01*
X21619047Y-58954819D02*
X21714285Y-58907200D01*
X21714285Y-58907200D02*
X21761904Y-58859580D01*
X21761904Y-58859580D02*
X21809523Y-58764342D01*
X21809523Y-58764342D02*
X21809523Y-57954819D01*
X22761904Y-57954819D02*
X22285714Y-57954819D01*
X22285714Y-57954819D02*
X22238095Y-58431009D01*
X22238095Y-58431009D02*
X22285714Y-58383390D01*
X22285714Y-58383390D02*
X22380952Y-58335771D01*
X22380952Y-58335771D02*
X22619047Y-58335771D01*
X22619047Y-58335771D02*
X22714285Y-58383390D01*
X22714285Y-58383390D02*
X22761904Y-58431009D01*
X22761904Y-58431009D02*
X22809523Y-58526247D01*
X22809523Y-58526247D02*
X22809523Y-58764342D01*
X22809523Y-58764342D02*
X22761904Y-58859580D01*
X22761904Y-58859580D02*
X22714285Y-58907200D01*
X22714285Y-58907200D02*
X22619047Y-58954819D01*
X22619047Y-58954819D02*
X22380952Y-58954819D01*
X22380952Y-58954819D02*
X22285714Y-58907200D01*
X22285714Y-58907200D02*
X22238095Y-58859580D01*
X20751063Y-44494022D02*
X20417730Y-44017831D01*
X20179635Y-44494022D02*
X20179635Y-43494022D01*
X20179635Y-43494022D02*
X20560587Y-43494022D01*
X20560587Y-43494022D02*
X20655825Y-43541641D01*
X20655825Y-43541641D02*
X20703444Y-43589260D01*
X20703444Y-43589260D02*
X20751063Y-43684498D01*
X20751063Y-43684498D02*
X20751063Y-43827355D01*
X20751063Y-43827355D02*
X20703444Y-43922593D01*
X20703444Y-43922593D02*
X20655825Y-43970212D01*
X20655825Y-43970212D02*
X20560587Y-44017831D01*
X20560587Y-44017831D02*
X20179635Y-44017831D01*
X21703444Y-44494022D02*
X21132016Y-44494022D01*
X21417730Y-44494022D02*
X21417730Y-43494022D01*
X21417730Y-43494022D02*
X21322492Y-43636879D01*
X21322492Y-43636879D02*
X21227254Y-43732117D01*
X21227254Y-43732117D02*
X21132016Y-43779736D01*
X22036778Y-43494022D02*
X22655825Y-43494022D01*
X22655825Y-43494022D02*
X22322492Y-43874974D01*
X22322492Y-43874974D02*
X22465349Y-43874974D01*
X22465349Y-43874974D02*
X22560587Y-43922593D01*
X22560587Y-43922593D02*
X22608206Y-43970212D01*
X22608206Y-43970212D02*
X22655825Y-44065450D01*
X22655825Y-44065450D02*
X22655825Y-44303545D01*
X22655825Y-44303545D02*
X22608206Y-44398783D01*
X22608206Y-44398783D02*
X22560587Y-44446403D01*
X22560587Y-44446403D02*
X22465349Y-44494022D01*
X22465349Y-44494022D02*
X22179635Y-44494022D01*
X22179635Y-44494022D02*
X22084397Y-44446403D01*
X22084397Y-44446403D02*
X22036778Y-44398783D01*
X-5825239Y-5579726D02*
X-5825239Y-4309726D01*
X-5825239Y-4309726D02*
X-5401905Y-5216869D01*
X-5401905Y-5216869D02*
X-4978572Y-4309726D01*
X-4978572Y-4309726D02*
X-4978572Y-5579726D01*
X-4192381Y-5579726D02*
X-4313333Y-5519250D01*
X-4313333Y-5519250D02*
X-4373810Y-5458773D01*
X-4373810Y-5458773D02*
X-4434286Y-5337821D01*
X-4434286Y-5337821D02*
X-4434286Y-4974964D01*
X-4434286Y-4974964D02*
X-4373810Y-4854011D01*
X-4373810Y-4854011D02*
X-4313333Y-4793535D01*
X-4313333Y-4793535D02*
X-4192381Y-4733059D01*
X-4192381Y-4733059D02*
X-4010952Y-4733059D01*
X-4010952Y-4733059D02*
X-3890000Y-4793535D01*
X-3890000Y-4793535D02*
X-3829524Y-4854011D01*
X-3829524Y-4854011D02*
X-3769048Y-4974964D01*
X-3769048Y-4974964D02*
X-3769048Y-5337821D01*
X-3769048Y-5337821D02*
X-3829524Y-5458773D01*
X-3829524Y-5458773D02*
X-3890000Y-5519250D01*
X-3890000Y-5519250D02*
X-4010952Y-5579726D01*
X-4010952Y-5579726D02*
X-4192381Y-5579726D01*
X-2680476Y-4733059D02*
X-2680476Y-5579726D01*
X-3224762Y-4733059D02*
X-3224762Y-5398297D01*
X-3224762Y-5398297D02*
X-3164285Y-5519250D01*
X-3164285Y-5519250D02*
X-3043333Y-5579726D01*
X-3043333Y-5579726D02*
X-2861904Y-5579726D01*
X-2861904Y-5579726D02*
X-2740952Y-5519250D01*
X-2740952Y-5519250D02*
X-2680476Y-5458773D01*
X-2075714Y-4733059D02*
X-2075714Y-5579726D01*
X-2075714Y-4854011D02*
X-2015237Y-4793535D01*
X-2015237Y-4793535D02*
X-1894285Y-4733059D01*
X-1894285Y-4733059D02*
X-1712856Y-4733059D01*
X-1712856Y-4733059D02*
X-1591904Y-4793535D01*
X-1591904Y-4793535D02*
X-1531428Y-4914488D01*
X-1531428Y-4914488D02*
X-1531428Y-5579726D01*
X-1108094Y-4733059D02*
X-624285Y-4733059D01*
X-926666Y-4309726D02*
X-926666Y-5398297D01*
X-926666Y-5398297D02*
X-866189Y-5519250D01*
X-866189Y-5519250D02*
X-745237Y-5579726D01*
X-745237Y-5579726D02*
X-624285Y-5579726D01*
X-200952Y-5579726D02*
X-200952Y-4733059D01*
X-200952Y-4309726D02*
X-261428Y-4370202D01*
X-261428Y-4370202D02*
X-200952Y-4430678D01*
X-200952Y-4430678D02*
X-140475Y-4370202D01*
X-140475Y-4370202D02*
X-200952Y-4309726D01*
X-200952Y-4309726D02*
X-200952Y-4430678D01*
X403809Y-4733059D02*
X403809Y-5579726D01*
X403809Y-4854011D02*
X464286Y-4793535D01*
X464286Y-4793535D02*
X585238Y-4733059D01*
X585238Y-4733059D02*
X766667Y-4733059D01*
X766667Y-4733059D02*
X887619Y-4793535D01*
X887619Y-4793535D02*
X948095Y-4914488D01*
X948095Y-4914488D02*
X948095Y-5579726D01*
X2097143Y-4733059D02*
X2097143Y-5761154D01*
X2097143Y-5761154D02*
X2036667Y-5882107D01*
X2036667Y-5882107D02*
X1976191Y-5942583D01*
X1976191Y-5942583D02*
X1855238Y-6003059D01*
X1855238Y-6003059D02*
X1673810Y-6003059D01*
X1673810Y-6003059D02*
X1552857Y-5942583D01*
X2097143Y-5519250D02*
X1976191Y-5579726D01*
X1976191Y-5579726D02*
X1734286Y-5579726D01*
X1734286Y-5579726D02*
X1613334Y-5519250D01*
X1613334Y-5519250D02*
X1552857Y-5458773D01*
X1552857Y-5458773D02*
X1492381Y-5337821D01*
X1492381Y-5337821D02*
X1492381Y-4974964D01*
X1492381Y-4974964D02*
X1552857Y-4854011D01*
X1552857Y-4854011D02*
X1613334Y-4793535D01*
X1613334Y-4793535D02*
X1734286Y-4733059D01*
X1734286Y-4733059D02*
X1976191Y-4733059D01*
X1976191Y-4733059D02*
X2097143Y-4793535D01*
X2701905Y-5579726D02*
X2701905Y-4309726D01*
X2701905Y-4914488D02*
X3427620Y-4914488D01*
X3427620Y-5579726D02*
X3427620Y-4309726D01*
X4213810Y-5579726D02*
X4092858Y-5519250D01*
X4092858Y-5519250D02*
X4032381Y-5458773D01*
X4032381Y-5458773D02*
X3971905Y-5337821D01*
X3971905Y-5337821D02*
X3971905Y-4974964D01*
X3971905Y-4974964D02*
X4032381Y-4854011D01*
X4032381Y-4854011D02*
X4092858Y-4793535D01*
X4092858Y-4793535D02*
X4213810Y-4733059D01*
X4213810Y-4733059D02*
X4395239Y-4733059D01*
X4395239Y-4733059D02*
X4516191Y-4793535D01*
X4516191Y-4793535D02*
X4576667Y-4854011D01*
X4576667Y-4854011D02*
X4637143Y-4974964D01*
X4637143Y-4974964D02*
X4637143Y-5337821D01*
X4637143Y-5337821D02*
X4576667Y-5458773D01*
X4576667Y-5458773D02*
X4516191Y-5519250D01*
X4516191Y-5519250D02*
X4395239Y-5579726D01*
X4395239Y-5579726D02*
X4213810Y-5579726D01*
X5362858Y-5579726D02*
X5241906Y-5519250D01*
X5241906Y-5519250D02*
X5181429Y-5398297D01*
X5181429Y-5398297D02*
X5181429Y-4309726D01*
X6330477Y-5519250D02*
X6209525Y-5579726D01*
X6209525Y-5579726D02*
X5967620Y-5579726D01*
X5967620Y-5579726D02*
X5846667Y-5519250D01*
X5846667Y-5519250D02*
X5786191Y-5398297D01*
X5786191Y-5398297D02*
X5786191Y-4914488D01*
X5786191Y-4914488D02*
X5846667Y-4793535D01*
X5846667Y-4793535D02*
X5967620Y-4733059D01*
X5967620Y-4733059D02*
X6209525Y-4733059D01*
X6209525Y-4733059D02*
X6330477Y-4793535D01*
X6330477Y-4793535D02*
X6390953Y-4914488D01*
X6390953Y-4914488D02*
X6390953Y-5035440D01*
X6390953Y-5035440D02*
X5786191Y-5156392D01*
X6632858Y-5700678D02*
X7600477Y-5700678D01*
X7902857Y-5579726D02*
X7902857Y-4309726D01*
X7902857Y-4309726D02*
X8326191Y-5216869D01*
X8326191Y-5216869D02*
X8749524Y-4309726D01*
X8749524Y-4309726D02*
X8749524Y-5579726D01*
X9293810Y-4430678D02*
X9354286Y-4370202D01*
X9354286Y-4370202D02*
X9475239Y-4309726D01*
X9475239Y-4309726D02*
X9777620Y-4309726D01*
X9777620Y-4309726D02*
X9898572Y-4370202D01*
X9898572Y-4370202D02*
X9959048Y-4430678D01*
X9959048Y-4430678D02*
X10019525Y-4551630D01*
X10019525Y-4551630D02*
X10019525Y-4672583D01*
X10019525Y-4672583D02*
X9959048Y-4854011D01*
X9959048Y-4854011D02*
X9233334Y-5579726D01*
X9233334Y-5579726D02*
X10019525Y-5579726D01*
X10261430Y-5700678D02*
X11229049Y-5700678D01*
X11531429Y-5579726D02*
X11531429Y-4309726D01*
X11531429Y-4309726D02*
X12257144Y-5579726D01*
X12257144Y-5579726D02*
X12257144Y-4309726D01*
X12861905Y-5579726D02*
X12861905Y-4309726D01*
X12861905Y-4309726D02*
X13345715Y-4309726D01*
X13345715Y-4309726D02*
X13466667Y-4370202D01*
X13466667Y-4370202D02*
X13527144Y-4430678D01*
X13527144Y-4430678D02*
X13587620Y-4551630D01*
X13587620Y-4551630D02*
X13587620Y-4733059D01*
X13587620Y-4733059D02*
X13527144Y-4854011D01*
X13527144Y-4854011D02*
X13466667Y-4914488D01*
X13466667Y-4914488D02*
X13345715Y-4974964D01*
X13345715Y-4974964D02*
X12861905Y-4974964D01*
X13950477Y-4309726D02*
X14676191Y-4309726D01*
X14313334Y-5579726D02*
X14313334Y-4309726D01*
X15099524Y-5579726D02*
X15099524Y-4309726D01*
X15099524Y-4914488D02*
X15825239Y-4914488D01*
X15825239Y-5579726D02*
X15825239Y-4309726D01*
X18738095Y-8554819D02*
X18738095Y-9364342D01*
X18738095Y-9364342D02*
X18785714Y-9459580D01*
X18785714Y-9459580D02*
X18833333Y-9507200D01*
X18833333Y-9507200D02*
X18928571Y-9554819D01*
X18928571Y-9554819D02*
X19119047Y-9554819D01*
X19119047Y-9554819D02*
X19214285Y-9507200D01*
X19214285Y-9507200D02*
X19261904Y-9459580D01*
X19261904Y-9459580D02*
X19309523Y-9364342D01*
X19309523Y-9364342D02*
X19309523Y-8554819D01*
X19690476Y-8554819D02*
X20309523Y-8554819D01*
X20309523Y-8554819D02*
X19976190Y-8935771D01*
X19976190Y-8935771D02*
X20119047Y-8935771D01*
X20119047Y-8935771D02*
X20214285Y-8983390D01*
X20214285Y-8983390D02*
X20261904Y-9031009D01*
X20261904Y-9031009D02*
X20309523Y-9126247D01*
X20309523Y-9126247D02*
X20309523Y-9364342D01*
X20309523Y-9364342D02*
X20261904Y-9459580D01*
X20261904Y-9459580D02*
X20214285Y-9507200D01*
X20214285Y-9507200D02*
X20119047Y-9554819D01*
X20119047Y-9554819D02*
X19833333Y-9554819D01*
X19833333Y-9554819D02*
X19738095Y-9507200D01*
X19738095Y-9507200D02*
X19690476Y-9459580D01*
X14738094Y-12919104D02*
X15214284Y-12919104D01*
X14642856Y-13204819D02*
X14976189Y-12204819D01*
X14976189Y-12204819D02*
X15309522Y-13204819D01*
X15642856Y-12538152D02*
X15642856Y-13204819D01*
X15642856Y-12633390D02*
X15690475Y-12585771D01*
X15690475Y-12585771D02*
X15785713Y-12538152D01*
X15785713Y-12538152D02*
X15928570Y-12538152D01*
X15928570Y-12538152D02*
X16023808Y-12585771D01*
X16023808Y-12585771D02*
X16071427Y-12681009D01*
X16071427Y-12681009D02*
X16071427Y-13204819D01*
X16404761Y-12538152D02*
X16785713Y-12538152D01*
X16547618Y-12204819D02*
X16547618Y-13061961D01*
X16547618Y-13061961D02*
X16595237Y-13157200D01*
X16595237Y-13157200D02*
X16690475Y-13204819D01*
X16690475Y-13204819D02*
X16785713Y-13204819D01*
X17499999Y-13157200D02*
X17404761Y-13204819D01*
X17404761Y-13204819D02*
X17214285Y-13204819D01*
X17214285Y-13204819D02*
X17119047Y-13157200D01*
X17119047Y-13157200D02*
X17071428Y-13061961D01*
X17071428Y-13061961D02*
X17071428Y-12681009D01*
X17071428Y-12681009D02*
X17119047Y-12585771D01*
X17119047Y-12585771D02*
X17214285Y-12538152D01*
X17214285Y-12538152D02*
X17404761Y-12538152D01*
X17404761Y-12538152D02*
X17499999Y-12585771D01*
X17499999Y-12585771D02*
X17547618Y-12681009D01*
X17547618Y-12681009D02*
X17547618Y-12776247D01*
X17547618Y-12776247D02*
X17071428Y-12871485D01*
X17976190Y-12538152D02*
X17976190Y-13204819D01*
X17976190Y-12633390D02*
X18023809Y-12585771D01*
X18023809Y-12585771D02*
X18119047Y-12538152D01*
X18119047Y-12538152D02*
X18261904Y-12538152D01*
X18261904Y-12538152D02*
X18357142Y-12585771D01*
X18357142Y-12585771D02*
X18404761Y-12681009D01*
X18404761Y-12681009D02*
X18404761Y-13204819D01*
X18880952Y-12538152D02*
X18880952Y-13204819D01*
X18880952Y-12633390D02*
X18928571Y-12585771D01*
X18928571Y-12585771D02*
X19023809Y-12538152D01*
X19023809Y-12538152D02*
X19166666Y-12538152D01*
X19166666Y-12538152D02*
X19261904Y-12585771D01*
X19261904Y-12585771D02*
X19309523Y-12681009D01*
X19309523Y-12681009D02*
X19309523Y-13204819D01*
X20214285Y-13204819D02*
X20214285Y-12681009D01*
X20214285Y-12681009D02*
X20166666Y-12585771D01*
X20166666Y-12585771D02*
X20071428Y-12538152D01*
X20071428Y-12538152D02*
X19880952Y-12538152D01*
X19880952Y-12538152D02*
X19785714Y-12585771D01*
X20214285Y-13157200D02*
X20119047Y-13204819D01*
X20119047Y-13204819D02*
X19880952Y-13204819D01*
X19880952Y-13204819D02*
X19785714Y-13157200D01*
X19785714Y-13157200D02*
X19738095Y-13061961D01*
X19738095Y-13061961D02*
X19738095Y-12966723D01*
X19738095Y-12966723D02*
X19785714Y-12871485D01*
X19785714Y-12871485D02*
X19880952Y-12823866D01*
X19880952Y-12823866D02*
X20119047Y-12823866D01*
X20119047Y-12823866D02*
X20214285Y-12776247D01*
X21404762Y-12919104D02*
X21880952Y-12919104D01*
X21309524Y-13204819D02*
X21642857Y-12204819D01*
X21642857Y-12204819D02*
X21976190Y-13204819D01*
X22309524Y-13204819D02*
X22309524Y-12538152D01*
X22309524Y-12728628D02*
X22357143Y-12633390D01*
X22357143Y-12633390D02*
X22404762Y-12585771D01*
X22404762Y-12585771D02*
X22500000Y-12538152D01*
X22500000Y-12538152D02*
X22595238Y-12538152D01*
X23309524Y-13157200D02*
X23214286Y-13204819D01*
X23214286Y-13204819D02*
X23023810Y-13204819D01*
X23023810Y-13204819D02*
X22928572Y-13157200D01*
X22928572Y-13157200D02*
X22880953Y-13061961D01*
X22880953Y-13061961D02*
X22880953Y-12681009D01*
X22880953Y-12681009D02*
X22928572Y-12585771D01*
X22928572Y-12585771D02*
X23023810Y-12538152D01*
X23023810Y-12538152D02*
X23214286Y-12538152D01*
X23214286Y-12538152D02*
X23309524Y-12585771D01*
X23309524Y-12585771D02*
X23357143Y-12681009D01*
X23357143Y-12681009D02*
X23357143Y-12776247D01*
X23357143Y-12776247D02*
X22880953Y-12871485D01*
X24214286Y-13204819D02*
X24214286Y-12681009D01*
X24214286Y-12681009D02*
X24166667Y-12585771D01*
X24166667Y-12585771D02*
X24071429Y-12538152D01*
X24071429Y-12538152D02*
X23880953Y-12538152D01*
X23880953Y-12538152D02*
X23785715Y-12585771D01*
X24214286Y-13157200D02*
X24119048Y-13204819D01*
X24119048Y-13204819D02*
X23880953Y-13204819D01*
X23880953Y-13204819D02*
X23785715Y-13157200D01*
X23785715Y-13157200D02*
X23738096Y-13061961D01*
X23738096Y-13061961D02*
X23738096Y-12966723D01*
X23738096Y-12966723D02*
X23785715Y-12871485D01*
X23785715Y-12871485D02*
X23880953Y-12823866D01*
X23880953Y-12823866D02*
X24119048Y-12823866D01*
X24119048Y-12823866D02*
X24214286Y-12776247D01*
X20804978Y-57473271D02*
X20471645Y-56997080D01*
X20233550Y-57473271D02*
X20233550Y-56473271D01*
X20233550Y-56473271D02*
X20614502Y-56473271D01*
X20614502Y-56473271D02*
X20709740Y-56520890D01*
X20709740Y-56520890D02*
X20757359Y-56568509D01*
X20757359Y-56568509D02*
X20804978Y-56663747D01*
X20804978Y-56663747D02*
X20804978Y-56806604D01*
X20804978Y-56806604D02*
X20757359Y-56901842D01*
X20757359Y-56901842D02*
X20709740Y-56949461D01*
X20709740Y-56949461D02*
X20614502Y-56997080D01*
X20614502Y-56997080D02*
X20233550Y-56997080D01*
X21662121Y-56806604D02*
X21662121Y-57473271D01*
X21424026Y-56425652D02*
X21185931Y-57139937D01*
X21185931Y-57139937D02*
X21804978Y-57139937D01*
X10935981Y-53890675D02*
X10935981Y-52890675D01*
X10935981Y-52890675D02*
X11174076Y-52890675D01*
X11174076Y-52890675D02*
X11316933Y-52938294D01*
X11316933Y-52938294D02*
X11412171Y-53033532D01*
X11412171Y-53033532D02*
X11459790Y-53128770D01*
X11459790Y-53128770D02*
X11507409Y-53319246D01*
X11507409Y-53319246D02*
X11507409Y-53462103D01*
X11507409Y-53462103D02*
X11459790Y-53652579D01*
X11459790Y-53652579D02*
X11412171Y-53747817D01*
X11412171Y-53747817D02*
X11316933Y-53843056D01*
X11316933Y-53843056D02*
X11174076Y-53890675D01*
X11174076Y-53890675D02*
X10935981Y-53890675D01*
X12412171Y-52890675D02*
X11935981Y-52890675D01*
X11935981Y-52890675D02*
X11888362Y-53366865D01*
X11888362Y-53366865D02*
X11935981Y-53319246D01*
X11935981Y-53319246D02*
X12031219Y-53271627D01*
X12031219Y-53271627D02*
X12269314Y-53271627D01*
X12269314Y-53271627D02*
X12364552Y-53319246D01*
X12364552Y-53319246D02*
X12412171Y-53366865D01*
X12412171Y-53366865D02*
X12459790Y-53462103D01*
X12459790Y-53462103D02*
X12459790Y-53700198D01*
X12459790Y-53700198D02*
X12412171Y-53795436D01*
X12412171Y-53795436D02*
X12364552Y-53843056D01*
X12364552Y-53843056D02*
X12269314Y-53890675D01*
X12269314Y-53890675D02*
X12031219Y-53890675D01*
X12031219Y-53890675D02*
X11935981Y-53843056D01*
X11935981Y-53843056D02*
X11888362Y-53795436D01*
X18666666Y-62254819D02*
X18666666Y-62969104D01*
X18666666Y-62969104D02*
X18619047Y-63111961D01*
X18619047Y-63111961D02*
X18523809Y-63207200D01*
X18523809Y-63207200D02*
X18380952Y-63254819D01*
X18380952Y-63254819D02*
X18285714Y-63254819D01*
X19666666Y-63254819D02*
X19095238Y-63254819D01*
X19380952Y-63254819D02*
X19380952Y-62254819D01*
X19380952Y-62254819D02*
X19285714Y-62397676D01*
X19285714Y-62397676D02*
X19190476Y-62492914D01*
X19190476Y-62492914D02*
X19095238Y-62540533D01*
X27580952Y-21954819D02*
X27104762Y-21954819D01*
X27104762Y-21954819D02*
X27104762Y-20954819D01*
X27914286Y-21431009D02*
X28247619Y-21431009D01*
X28390476Y-21954819D02*
X27914286Y-21954819D01*
X27914286Y-21954819D02*
X27914286Y-20954819D01*
X27914286Y-20954819D02*
X28390476Y-20954819D01*
X28819048Y-21954819D02*
X28819048Y-20954819D01*
X28819048Y-20954819D02*
X29057143Y-20954819D01*
X29057143Y-20954819D02*
X29200000Y-21002438D01*
X29200000Y-21002438D02*
X29295238Y-21097676D01*
X29295238Y-21097676D02*
X29342857Y-21192914D01*
X29342857Y-21192914D02*
X29390476Y-21383390D01*
X29390476Y-21383390D02*
X29390476Y-21526247D01*
X29390476Y-21526247D02*
X29342857Y-21716723D01*
X29342857Y-21716723D02*
X29295238Y-21811961D01*
X29295238Y-21811961D02*
X29200000Y-21907200D01*
X29200000Y-21907200D02*
X29057143Y-21954819D01*
X29057143Y-21954819D02*
X28819048Y-21954819D01*
X29771429Y-21050057D02*
X29819048Y-21002438D01*
X29819048Y-21002438D02*
X29914286Y-20954819D01*
X29914286Y-20954819D02*
X30152381Y-20954819D01*
X30152381Y-20954819D02*
X30247619Y-21002438D01*
X30247619Y-21002438D02*
X30295238Y-21050057D01*
X30295238Y-21050057D02*
X30342857Y-21145295D01*
X30342857Y-21145295D02*
X30342857Y-21240533D01*
X30342857Y-21240533D02*
X30295238Y-21383390D01*
X30295238Y-21383390D02*
X29723810Y-21954819D01*
X29723810Y-21954819D02*
X30342857Y-21954819D01*
X11094614Y-34817130D02*
X10761281Y-34340939D01*
X10523186Y-34817130D02*
X10523186Y-33817130D01*
X10523186Y-33817130D02*
X10904138Y-33817130D01*
X10904138Y-33817130D02*
X10999376Y-33864749D01*
X10999376Y-33864749D02*
X11046995Y-33912368D01*
X11046995Y-33912368D02*
X11094614Y-34007606D01*
X11094614Y-34007606D02*
X11094614Y-34150463D01*
X11094614Y-34150463D02*
X11046995Y-34245701D01*
X11046995Y-34245701D02*
X10999376Y-34293320D01*
X10999376Y-34293320D02*
X10904138Y-34340939D01*
X10904138Y-34340939D02*
X10523186Y-34340939D01*
X12046995Y-34817130D02*
X11475567Y-34817130D01*
X11761281Y-34817130D02*
X11761281Y-33817130D01*
X11761281Y-33817130D02*
X11666043Y-33959987D01*
X11666043Y-33959987D02*
X11570805Y-34055225D01*
X11570805Y-34055225D02*
X11475567Y-34102844D01*
X12380329Y-33817130D02*
X13046995Y-33817130D01*
X13046995Y-33817130D02*
X12618424Y-34817130D01*
X32712610Y-25050724D02*
X32712610Y-24050724D01*
X32712610Y-24050724D02*
X32950705Y-24050724D01*
X32950705Y-24050724D02*
X33093562Y-24098343D01*
X33093562Y-24098343D02*
X33188800Y-24193581D01*
X33188800Y-24193581D02*
X33236419Y-24288819D01*
X33236419Y-24288819D02*
X33284038Y-24479295D01*
X33284038Y-24479295D02*
X33284038Y-24622152D01*
X33284038Y-24622152D02*
X33236419Y-24812628D01*
X33236419Y-24812628D02*
X33188800Y-24907866D01*
X33188800Y-24907866D02*
X33093562Y-25003105D01*
X33093562Y-25003105D02*
X32950705Y-25050724D01*
X32950705Y-25050724D02*
X32712610Y-25050724D01*
X33617372Y-24050724D02*
X34236419Y-24050724D01*
X34236419Y-24050724D02*
X33903086Y-24431676D01*
X33903086Y-24431676D02*
X34045943Y-24431676D01*
X34045943Y-24431676D02*
X34141181Y-24479295D01*
X34141181Y-24479295D02*
X34188800Y-24526914D01*
X34188800Y-24526914D02*
X34236419Y-24622152D01*
X34236419Y-24622152D02*
X34236419Y-24860247D01*
X34236419Y-24860247D02*
X34188800Y-24955485D01*
X34188800Y-24955485D02*
X34141181Y-25003105D01*
X34141181Y-25003105D02*
X34045943Y-25050724D01*
X34045943Y-25050724D02*
X33760229Y-25050724D01*
X33760229Y-25050724D02*
X33664991Y-25003105D01*
X33664991Y-25003105D02*
X33617372Y-24955485D01*
X9390833Y-41591450D02*
X9390833Y-42400973D01*
X9390833Y-42400973D02*
X9438452Y-42496211D01*
X9438452Y-42496211D02*
X9486071Y-42543831D01*
X9486071Y-42543831D02*
X9581309Y-42591450D01*
X9581309Y-42591450D02*
X9771785Y-42591450D01*
X9771785Y-42591450D02*
X9867023Y-42543831D01*
X9867023Y-42543831D02*
X9914642Y-42496211D01*
X9914642Y-42496211D02*
X9962261Y-42400973D01*
X9962261Y-42400973D02*
X9962261Y-41591450D01*
X10962261Y-42591450D02*
X10390833Y-42591450D01*
X10676547Y-42591450D02*
X10676547Y-41591450D01*
X10676547Y-41591450D02*
X10581309Y-41734307D01*
X10581309Y-41734307D02*
X10486071Y-41829545D01*
X10486071Y-41829545D02*
X10390833Y-41877164D01*
X11581309Y-41591450D02*
X11676547Y-41591450D01*
X11676547Y-41591450D02*
X11771785Y-41639069D01*
X11771785Y-41639069D02*
X11819404Y-41686688D01*
X11819404Y-41686688D02*
X11867023Y-41781926D01*
X11867023Y-41781926D02*
X11914642Y-41972402D01*
X11914642Y-41972402D02*
X11914642Y-42210497D01*
X11914642Y-42210497D02*
X11867023Y-42400973D01*
X11867023Y-42400973D02*
X11819404Y-42496211D01*
X11819404Y-42496211D02*
X11771785Y-42543831D01*
X11771785Y-42543831D02*
X11676547Y-42591450D01*
X11676547Y-42591450D02*
X11581309Y-42591450D01*
X11581309Y-42591450D02*
X11486071Y-42543831D01*
X11486071Y-42543831D02*
X11438452Y-42496211D01*
X11438452Y-42496211D02*
X11390833Y-42400973D01*
X11390833Y-42400973D02*
X11343214Y-42210497D01*
X11343214Y-42210497D02*
X11343214Y-41972402D01*
X11343214Y-41972402D02*
X11390833Y-41781926D01*
X11390833Y-41781926D02*
X11438452Y-41686688D01*
X11438452Y-41686688D02*
X11486071Y-41639069D01*
X11486071Y-41639069D02*
X11581309Y-41591450D01*
X25072725Y-34498861D02*
X24739392Y-34022670D01*
X24501297Y-34498861D02*
X24501297Y-33498861D01*
X24501297Y-33498861D02*
X24882249Y-33498861D01*
X24882249Y-33498861D02*
X24977487Y-33546480D01*
X24977487Y-33546480D02*
X25025106Y-33594099D01*
X25025106Y-33594099D02*
X25072725Y-33689337D01*
X25072725Y-33689337D02*
X25072725Y-33832194D01*
X25072725Y-33832194D02*
X25025106Y-33927432D01*
X25025106Y-33927432D02*
X24977487Y-33975051D01*
X24977487Y-33975051D02*
X24882249Y-34022670D01*
X24882249Y-34022670D02*
X24501297Y-34022670D01*
X26025106Y-34498861D02*
X25453678Y-34498861D01*
X25739392Y-34498861D02*
X25739392Y-33498861D01*
X25739392Y-33498861D02*
X25644154Y-33641718D01*
X25644154Y-33641718D02*
X25548916Y-33736956D01*
X25548916Y-33736956D02*
X25453678Y-33784575D01*
X26596535Y-33927432D02*
X26501297Y-33879813D01*
X26501297Y-33879813D02*
X26453678Y-33832194D01*
X26453678Y-33832194D02*
X26406059Y-33736956D01*
X26406059Y-33736956D02*
X26406059Y-33689337D01*
X26406059Y-33689337D02*
X26453678Y-33594099D01*
X26453678Y-33594099D02*
X26501297Y-33546480D01*
X26501297Y-33546480D02*
X26596535Y-33498861D01*
X26596535Y-33498861D02*
X26787011Y-33498861D01*
X26787011Y-33498861D02*
X26882249Y-33546480D01*
X26882249Y-33546480D02*
X26929868Y-33594099D01*
X26929868Y-33594099D02*
X26977487Y-33689337D01*
X26977487Y-33689337D02*
X26977487Y-33736956D01*
X26977487Y-33736956D02*
X26929868Y-33832194D01*
X26929868Y-33832194D02*
X26882249Y-33879813D01*
X26882249Y-33879813D02*
X26787011Y-33927432D01*
X26787011Y-33927432D02*
X26596535Y-33927432D01*
X26596535Y-33927432D02*
X26501297Y-33975051D01*
X26501297Y-33975051D02*
X26453678Y-34022670D01*
X26453678Y-34022670D02*
X26406059Y-34117908D01*
X26406059Y-34117908D02*
X26406059Y-34308384D01*
X26406059Y-34308384D02*
X26453678Y-34403622D01*
X26453678Y-34403622D02*
X26501297Y-34451242D01*
X26501297Y-34451242D02*
X26596535Y-34498861D01*
X26596535Y-34498861D02*
X26787011Y-34498861D01*
X26787011Y-34498861D02*
X26882249Y-34451242D01*
X26882249Y-34451242D02*
X26929868Y-34403622D01*
X26929868Y-34403622D02*
X26977487Y-34308384D01*
X26977487Y-34308384D02*
X26977487Y-34117908D01*
X26977487Y-34117908D02*
X26929868Y-34022670D01*
X26929868Y-34022670D02*
X26882249Y-33975051D01*
X26882249Y-33975051D02*
X26787011Y-33927432D01*
X18539885Y-57267079D02*
X18206552Y-56790888D01*
X17968457Y-57267079D02*
X17968457Y-56267079D01*
X17968457Y-56267079D02*
X18349409Y-56267079D01*
X18349409Y-56267079D02*
X18444647Y-56314698D01*
X18444647Y-56314698D02*
X18492266Y-56362317D01*
X18492266Y-56362317D02*
X18539885Y-56457555D01*
X18539885Y-56457555D02*
X18539885Y-56600412D01*
X18539885Y-56600412D02*
X18492266Y-56695650D01*
X18492266Y-56695650D02*
X18444647Y-56743269D01*
X18444647Y-56743269D02*
X18349409Y-56790888D01*
X18349409Y-56790888D02*
X17968457Y-56790888D01*
X19397028Y-56267079D02*
X19206552Y-56267079D01*
X19206552Y-56267079D02*
X19111314Y-56314698D01*
X19111314Y-56314698D02*
X19063695Y-56362317D01*
X19063695Y-56362317D02*
X18968457Y-56505174D01*
X18968457Y-56505174D02*
X18920838Y-56695650D01*
X18920838Y-56695650D02*
X18920838Y-57076602D01*
X18920838Y-57076602D02*
X18968457Y-57171840D01*
X18968457Y-57171840D02*
X19016076Y-57219460D01*
X19016076Y-57219460D02*
X19111314Y-57267079D01*
X19111314Y-57267079D02*
X19301790Y-57267079D01*
X19301790Y-57267079D02*
X19397028Y-57219460D01*
X19397028Y-57219460D02*
X19444647Y-57171840D01*
X19444647Y-57171840D02*
X19492266Y-57076602D01*
X19492266Y-57076602D02*
X19492266Y-56838507D01*
X19492266Y-56838507D02*
X19444647Y-56743269D01*
X19444647Y-56743269D02*
X19397028Y-56695650D01*
X19397028Y-56695650D02*
X19301790Y-56648031D01*
X19301790Y-56648031D02*
X19111314Y-56648031D01*
X19111314Y-56648031D02*
X19016076Y-56695650D01*
X19016076Y-56695650D02*
X18968457Y-56743269D01*
X18968457Y-56743269D02*
X18920838Y-56838507D01*
X7638095Y-46254819D02*
X7638095Y-47064342D01*
X7638095Y-47064342D02*
X7685714Y-47159580D01*
X7685714Y-47159580D02*
X7733333Y-47207200D01*
X7733333Y-47207200D02*
X7828571Y-47254819D01*
X7828571Y-47254819D02*
X8019047Y-47254819D01*
X8019047Y-47254819D02*
X8114285Y-47207200D01*
X8114285Y-47207200D02*
X8161904Y-47159580D01*
X8161904Y-47159580D02*
X8209523Y-47064342D01*
X8209523Y-47064342D02*
X8209523Y-46254819D01*
X9114285Y-46254819D02*
X8923809Y-46254819D01*
X8923809Y-46254819D02*
X8828571Y-46302438D01*
X8828571Y-46302438D02*
X8780952Y-46350057D01*
X8780952Y-46350057D02*
X8685714Y-46492914D01*
X8685714Y-46492914D02*
X8638095Y-46683390D01*
X8638095Y-46683390D02*
X8638095Y-47064342D01*
X8638095Y-47064342D02*
X8685714Y-47159580D01*
X8685714Y-47159580D02*
X8733333Y-47207200D01*
X8733333Y-47207200D02*
X8828571Y-47254819D01*
X8828571Y-47254819D02*
X9019047Y-47254819D01*
X9019047Y-47254819D02*
X9114285Y-47207200D01*
X9114285Y-47207200D02*
X9161904Y-47159580D01*
X9161904Y-47159580D02*
X9209523Y-47064342D01*
X9209523Y-47064342D02*
X9209523Y-46826247D01*
X9209523Y-46826247D02*
X9161904Y-46731009D01*
X9161904Y-46731009D02*
X9114285Y-46683390D01*
X9114285Y-46683390D02*
X9019047Y-46635771D01*
X9019047Y-46635771D02*
X8828571Y-46635771D01*
X8828571Y-46635771D02*
X8733333Y-46683390D01*
X8733333Y-46683390D02*
X8685714Y-46731009D01*
X8685714Y-46731009D02*
X8638095Y-46826247D01*
X23092597Y-44557995D02*
X22759264Y-44081804D01*
X22521169Y-44557995D02*
X22521169Y-43557995D01*
X22521169Y-43557995D02*
X22902121Y-43557995D01*
X22902121Y-43557995D02*
X22997359Y-43605614D01*
X22997359Y-43605614D02*
X23044978Y-43653233D01*
X23044978Y-43653233D02*
X23092597Y-43748471D01*
X23092597Y-43748471D02*
X23092597Y-43891328D01*
X23092597Y-43891328D02*
X23044978Y-43986566D01*
X23044978Y-43986566D02*
X22997359Y-44034185D01*
X22997359Y-44034185D02*
X22902121Y-44081804D01*
X22902121Y-44081804D02*
X22521169Y-44081804D01*
X23473550Y-43653233D02*
X23521169Y-43605614D01*
X23521169Y-43605614D02*
X23616407Y-43557995D01*
X23616407Y-43557995D02*
X23854502Y-43557995D01*
X23854502Y-43557995D02*
X23949740Y-43605614D01*
X23949740Y-43605614D02*
X23997359Y-43653233D01*
X23997359Y-43653233D02*
X24044978Y-43748471D01*
X24044978Y-43748471D02*
X24044978Y-43843709D01*
X24044978Y-43843709D02*
X23997359Y-43986566D01*
X23997359Y-43986566D02*
X23425931Y-44557995D01*
X23425931Y-44557995D02*
X24044978Y-44557995D01*
X24378312Y-43557995D02*
X24997359Y-43557995D01*
X24997359Y-43557995D02*
X24664026Y-43938947D01*
X24664026Y-43938947D02*
X24806883Y-43938947D01*
X24806883Y-43938947D02*
X24902121Y-43986566D01*
X24902121Y-43986566D02*
X24949740Y-44034185D01*
X24949740Y-44034185D02*
X24997359Y-44129423D01*
X24997359Y-44129423D02*
X24997359Y-44367518D01*
X24997359Y-44367518D02*
X24949740Y-44462756D01*
X24949740Y-44462756D02*
X24902121Y-44510376D01*
X24902121Y-44510376D02*
X24806883Y-44557995D01*
X24806883Y-44557995D02*
X24521169Y-44557995D01*
X24521169Y-44557995D02*
X24425931Y-44510376D01*
X24425931Y-44510376D02*
X24378312Y-44462756D01*
X20116230Y-55809712D02*
X19782897Y-55333521D01*
X19544802Y-55809712D02*
X19544802Y-54809712D01*
X19544802Y-54809712D02*
X19925754Y-54809712D01*
X19925754Y-54809712D02*
X20020992Y-54857331D01*
X20020992Y-54857331D02*
X20068611Y-54904950D01*
X20068611Y-54904950D02*
X20116230Y-55000188D01*
X20116230Y-55000188D02*
X20116230Y-55143045D01*
X20116230Y-55143045D02*
X20068611Y-55238283D01*
X20068611Y-55238283D02*
X20020992Y-55285902D01*
X20020992Y-55285902D02*
X19925754Y-55333521D01*
X19925754Y-55333521D02*
X19544802Y-55333521D01*
X20687659Y-55238283D02*
X20592421Y-55190664D01*
X20592421Y-55190664D02*
X20544802Y-55143045D01*
X20544802Y-55143045D02*
X20497183Y-55047807D01*
X20497183Y-55047807D02*
X20497183Y-55000188D01*
X20497183Y-55000188D02*
X20544802Y-54904950D01*
X20544802Y-54904950D02*
X20592421Y-54857331D01*
X20592421Y-54857331D02*
X20687659Y-54809712D01*
X20687659Y-54809712D02*
X20878135Y-54809712D01*
X20878135Y-54809712D02*
X20973373Y-54857331D01*
X20973373Y-54857331D02*
X21020992Y-54904950D01*
X21020992Y-54904950D02*
X21068611Y-55000188D01*
X21068611Y-55000188D02*
X21068611Y-55047807D01*
X21068611Y-55047807D02*
X21020992Y-55143045D01*
X21020992Y-55143045D02*
X20973373Y-55190664D01*
X20973373Y-55190664D02*
X20878135Y-55238283D01*
X20878135Y-55238283D02*
X20687659Y-55238283D01*
X20687659Y-55238283D02*
X20592421Y-55285902D01*
X20592421Y-55285902D02*
X20544802Y-55333521D01*
X20544802Y-55333521D02*
X20497183Y-55428759D01*
X20497183Y-55428759D02*
X20497183Y-55619235D01*
X20497183Y-55619235D02*
X20544802Y-55714473D01*
X20544802Y-55714473D02*
X20592421Y-55762093D01*
X20592421Y-55762093D02*
X20687659Y-55809712D01*
X20687659Y-55809712D02*
X20878135Y-55809712D01*
X20878135Y-55809712D02*
X20973373Y-55762093D01*
X20973373Y-55762093D02*
X21020992Y-55714473D01*
X21020992Y-55714473D02*
X21068611Y-55619235D01*
X21068611Y-55619235D02*
X21068611Y-55428759D01*
X21068611Y-55428759D02*
X21020992Y-55333521D01*
X21020992Y-55333521D02*
X20973373Y-55285902D01*
X20973373Y-55285902D02*
X20878135Y-55238283D01*
X29255902Y-31405641D02*
X29208283Y-31453261D01*
X29208283Y-31453261D02*
X29065426Y-31500880D01*
X29065426Y-31500880D02*
X28970188Y-31500880D01*
X28970188Y-31500880D02*
X28827331Y-31453261D01*
X28827331Y-31453261D02*
X28732093Y-31358022D01*
X28732093Y-31358022D02*
X28684474Y-31262784D01*
X28684474Y-31262784D02*
X28636855Y-31072308D01*
X28636855Y-31072308D02*
X28636855Y-30929451D01*
X28636855Y-30929451D02*
X28684474Y-30738975D01*
X28684474Y-30738975D02*
X28732093Y-30643737D01*
X28732093Y-30643737D02*
X28827331Y-30548499D01*
X28827331Y-30548499D02*
X28970188Y-30500880D01*
X28970188Y-30500880D02*
X29065426Y-30500880D01*
X29065426Y-30500880D02*
X29208283Y-30548499D01*
X29208283Y-30548499D02*
X29255902Y-30596118D01*
X29827331Y-30929451D02*
X29732093Y-30881832D01*
X29732093Y-30881832D02*
X29684474Y-30834213D01*
X29684474Y-30834213D02*
X29636855Y-30738975D01*
X29636855Y-30738975D02*
X29636855Y-30691356D01*
X29636855Y-30691356D02*
X29684474Y-30596118D01*
X29684474Y-30596118D02*
X29732093Y-30548499D01*
X29732093Y-30548499D02*
X29827331Y-30500880D01*
X29827331Y-30500880D02*
X30017807Y-30500880D01*
X30017807Y-30500880D02*
X30113045Y-30548499D01*
X30113045Y-30548499D02*
X30160664Y-30596118D01*
X30160664Y-30596118D02*
X30208283Y-30691356D01*
X30208283Y-30691356D02*
X30208283Y-30738975D01*
X30208283Y-30738975D02*
X30160664Y-30834213D01*
X30160664Y-30834213D02*
X30113045Y-30881832D01*
X30113045Y-30881832D02*
X30017807Y-30929451D01*
X30017807Y-30929451D02*
X29827331Y-30929451D01*
X29827331Y-30929451D02*
X29732093Y-30977070D01*
X29732093Y-30977070D02*
X29684474Y-31024689D01*
X29684474Y-31024689D02*
X29636855Y-31119927D01*
X29636855Y-31119927D02*
X29636855Y-31310403D01*
X29636855Y-31310403D02*
X29684474Y-31405641D01*
X29684474Y-31405641D02*
X29732093Y-31453261D01*
X29732093Y-31453261D02*
X29827331Y-31500880D01*
X29827331Y-31500880D02*
X30017807Y-31500880D01*
X30017807Y-31500880D02*
X30113045Y-31453261D01*
X30113045Y-31453261D02*
X30160664Y-31405641D01*
X30160664Y-31405641D02*
X30208283Y-31310403D01*
X30208283Y-31310403D02*
X30208283Y-31119927D01*
X30208283Y-31119927D02*
X30160664Y-31024689D01*
X30160664Y-31024689D02*
X30113045Y-30977070D01*
X30113045Y-30977070D02*
X30017807Y-30929451D01*
X25157141Y-67184819D02*
X24823808Y-66708628D01*
X24585713Y-67184819D02*
X24585713Y-66184819D01*
X24585713Y-66184819D02*
X24966665Y-66184819D01*
X24966665Y-66184819D02*
X25061903Y-66232438D01*
X25061903Y-66232438D02*
X25109522Y-66280057D01*
X25109522Y-66280057D02*
X25157141Y-66375295D01*
X25157141Y-66375295D02*
X25157141Y-66518152D01*
X25157141Y-66518152D02*
X25109522Y-66613390D01*
X25109522Y-66613390D02*
X25061903Y-66661009D01*
X25061903Y-66661009D02*
X24966665Y-66708628D01*
X24966665Y-66708628D02*
X24585713Y-66708628D01*
X25538094Y-66280057D02*
X25585713Y-66232438D01*
X25585713Y-66232438D02*
X25680951Y-66184819D01*
X25680951Y-66184819D02*
X25919046Y-66184819D01*
X25919046Y-66184819D02*
X26014284Y-66232438D01*
X26014284Y-66232438D02*
X26061903Y-66280057D01*
X26061903Y-66280057D02*
X26109522Y-66375295D01*
X26109522Y-66375295D02*
X26109522Y-66470533D01*
X26109522Y-66470533D02*
X26061903Y-66613390D01*
X26061903Y-66613390D02*
X25490475Y-67184819D01*
X25490475Y-67184819D02*
X26109522Y-67184819D01*
X27061903Y-67184819D02*
X26490475Y-67184819D01*
X26776189Y-67184819D02*
X26776189Y-66184819D01*
X26776189Y-66184819D02*
X26680951Y-66327676D01*
X26680951Y-66327676D02*
X26585713Y-66422914D01*
X26585713Y-66422914D02*
X26490475Y-66470533D01*
X3866666Y-58924819D02*
X3866666Y-59639104D01*
X3866666Y-59639104D02*
X3819047Y-59781961D01*
X3819047Y-59781961D02*
X3723809Y-59877200D01*
X3723809Y-59877200D02*
X3580952Y-59924819D01*
X3580952Y-59924819D02*
X3485714Y-59924819D01*
X4247619Y-58924819D02*
X4914285Y-58924819D01*
X4914285Y-58924819D02*
X4485714Y-59924819D01*
X16408504Y-45998527D02*
X16075171Y-45522336D01*
X15837076Y-45998527D02*
X15837076Y-44998527D01*
X15837076Y-44998527D02*
X16218028Y-44998527D01*
X16218028Y-44998527D02*
X16313266Y-45046146D01*
X16313266Y-45046146D02*
X16360885Y-45093765D01*
X16360885Y-45093765D02*
X16408504Y-45189003D01*
X16408504Y-45189003D02*
X16408504Y-45331860D01*
X16408504Y-45331860D02*
X16360885Y-45427098D01*
X16360885Y-45427098D02*
X16313266Y-45474717D01*
X16313266Y-45474717D02*
X16218028Y-45522336D01*
X16218028Y-45522336D02*
X15837076Y-45522336D01*
X16789457Y-45093765D02*
X16837076Y-45046146D01*
X16837076Y-45046146D02*
X16932314Y-44998527D01*
X16932314Y-44998527D02*
X17170409Y-44998527D01*
X17170409Y-44998527D02*
X17265647Y-45046146D01*
X17265647Y-45046146D02*
X17313266Y-45093765D01*
X17313266Y-45093765D02*
X17360885Y-45189003D01*
X17360885Y-45189003D02*
X17360885Y-45284241D01*
X17360885Y-45284241D02*
X17313266Y-45427098D01*
X17313266Y-45427098D02*
X16741838Y-45998527D01*
X16741838Y-45998527D02*
X17360885Y-45998527D01*
X18218028Y-45331860D02*
X18218028Y-45998527D01*
X17979933Y-44950908D02*
X17741838Y-45665193D01*
X17741838Y-45665193D02*
X18360885Y-45665193D01*
X16070958Y-27569232D02*
X16070958Y-26569232D01*
X16070958Y-26569232D02*
X16309053Y-26569232D01*
X16309053Y-26569232D02*
X16451910Y-26616851D01*
X16451910Y-26616851D02*
X16547148Y-26712089D01*
X16547148Y-26712089D02*
X16594767Y-26807327D01*
X16594767Y-26807327D02*
X16642386Y-26997803D01*
X16642386Y-26997803D02*
X16642386Y-27140660D01*
X16642386Y-27140660D02*
X16594767Y-27331136D01*
X16594767Y-27331136D02*
X16547148Y-27426374D01*
X16547148Y-27426374D02*
X16451910Y-27521613D01*
X16451910Y-27521613D02*
X16309053Y-27569232D01*
X16309053Y-27569232D02*
X16070958Y-27569232D01*
X17499529Y-26569232D02*
X17309053Y-26569232D01*
X17309053Y-26569232D02*
X17213815Y-26616851D01*
X17213815Y-26616851D02*
X17166196Y-26664470D01*
X17166196Y-26664470D02*
X17070958Y-26807327D01*
X17070958Y-26807327D02*
X17023339Y-26997803D01*
X17023339Y-26997803D02*
X17023339Y-27378755D01*
X17023339Y-27378755D02*
X17070958Y-27473993D01*
X17070958Y-27473993D02*
X17118577Y-27521613D01*
X17118577Y-27521613D02*
X17213815Y-27569232D01*
X17213815Y-27569232D02*
X17404291Y-27569232D01*
X17404291Y-27569232D02*
X17499529Y-27521613D01*
X17499529Y-27521613D02*
X17547148Y-27473993D01*
X17547148Y-27473993D02*
X17594767Y-27378755D01*
X17594767Y-27378755D02*
X17594767Y-27140660D01*
X17594767Y-27140660D02*
X17547148Y-27045422D01*
X17547148Y-27045422D02*
X17499529Y-26997803D01*
X17499529Y-26997803D02*
X17404291Y-26950184D01*
X17404291Y-26950184D02*
X17213815Y-26950184D01*
X17213815Y-26950184D02*
X17118577Y-26997803D01*
X17118577Y-26997803D02*
X17070958Y-27045422D01*
X17070958Y-27045422D02*
X17023339Y-27140660D01*
X31986127Y-21030437D02*
X31652794Y-20554246D01*
X31414699Y-21030437D02*
X31414699Y-20030437D01*
X31414699Y-20030437D02*
X31795651Y-20030437D01*
X31795651Y-20030437D02*
X31890889Y-20078056D01*
X31890889Y-20078056D02*
X31938508Y-20125675D01*
X31938508Y-20125675D02*
X31986127Y-20220913D01*
X31986127Y-20220913D02*
X31986127Y-20363770D01*
X31986127Y-20363770D02*
X31938508Y-20459008D01*
X31938508Y-20459008D02*
X31890889Y-20506627D01*
X31890889Y-20506627D02*
X31795651Y-20554246D01*
X31795651Y-20554246D02*
X31414699Y-20554246D01*
X32367080Y-20125675D02*
X32414699Y-20078056D01*
X32414699Y-20078056D02*
X32509937Y-20030437D01*
X32509937Y-20030437D02*
X32748032Y-20030437D01*
X32748032Y-20030437D02*
X32843270Y-20078056D01*
X32843270Y-20078056D02*
X32890889Y-20125675D01*
X32890889Y-20125675D02*
X32938508Y-20220913D01*
X32938508Y-20220913D02*
X32938508Y-20316151D01*
X32938508Y-20316151D02*
X32890889Y-20459008D01*
X32890889Y-20459008D02*
X32319461Y-21030437D01*
X32319461Y-21030437D02*
X32938508Y-21030437D01*
X33795651Y-20030437D02*
X33605175Y-20030437D01*
X33605175Y-20030437D02*
X33509937Y-20078056D01*
X33509937Y-20078056D02*
X33462318Y-20125675D01*
X33462318Y-20125675D02*
X33367080Y-20268532D01*
X33367080Y-20268532D02*
X33319461Y-20459008D01*
X33319461Y-20459008D02*
X33319461Y-20839960D01*
X33319461Y-20839960D02*
X33367080Y-20935198D01*
X33367080Y-20935198D02*
X33414699Y-20982818D01*
X33414699Y-20982818D02*
X33509937Y-21030437D01*
X33509937Y-21030437D02*
X33700413Y-21030437D01*
X33700413Y-21030437D02*
X33795651Y-20982818D01*
X33795651Y-20982818D02*
X33843270Y-20935198D01*
X33843270Y-20935198D02*
X33890889Y-20839960D01*
X33890889Y-20839960D02*
X33890889Y-20601865D01*
X33890889Y-20601865D02*
X33843270Y-20506627D01*
X33843270Y-20506627D02*
X33795651Y-20459008D01*
X33795651Y-20459008D02*
X33700413Y-20411389D01*
X33700413Y-20411389D02*
X33509937Y-20411389D01*
X33509937Y-20411389D02*
X33414699Y-20459008D01*
X33414699Y-20459008D02*
X33367080Y-20506627D01*
X33367080Y-20506627D02*
X33319461Y-20601865D01*
D13*
%TO.C,R22*%
X14443757Y-45027212D02*
X14751039Y-45027212D01*
X14443757Y-45787212D02*
X14751039Y-45787212D01*
%TO.C,R19*%
X25346359Y-42620000D02*
X25653641Y-42620000D01*
X25346359Y-43380000D02*
X25653641Y-43380000D01*
%TO.C,LED1*%
X7880000Y-6650000D02*
X7880000Y-7300000D01*
X7880000Y-6650000D02*
X10720000Y-6650000D01*
X7880000Y-8950000D02*
X10720000Y-8950000D01*
%TO.C,D4*%
X22381959Y-55448628D02*
X22381959Y-58748628D01*
X22381959Y-55448628D02*
X27891959Y-55448628D01*
X22381959Y-58748628D02*
X27891959Y-58748628D01*
%TO.C,R7*%
X24776761Y-64194607D02*
X25084043Y-64194607D01*
X24776761Y-64954607D02*
X25084043Y-64954607D01*
%TO.C,R2*%
X11485232Y-30624279D02*
X11792514Y-30624279D01*
X11485232Y-31384279D02*
X11792514Y-31384279D01*
%TO.C,Y1*%
X27600000Y-33150000D02*
X27600000Y-36450000D01*
X27600000Y-36450000D02*
X31600000Y-36450000D01*
%TO.C,Q2*%
X31800000Y-53140000D02*
X31150000Y-53140000D01*
X31800000Y-53140000D02*
X32450000Y-53140000D01*
X31800000Y-56260000D02*
X31150000Y-56260000D01*
X31800000Y-56260000D02*
X32450000Y-56260000D01*
X30637500Y-53190000D02*
X30397500Y-52860000D01*
X30877500Y-52860000D01*
X30637500Y-53190000D01*
G36*
X30637500Y-53190000D02*
G01*
X30397500Y-52860000D01*
X30877500Y-52860000D01*
X30637500Y-53190000D01*
G37*
%TO.C,R28*%
X6275344Y-56965618D02*
X6582626Y-56965618D01*
X6275344Y-57725618D02*
X6582626Y-57725618D01*
%TO.C,U1*%
X13650000Y-43750000D02*
X13650000Y-43325000D01*
X14075000Y-33450000D02*
X13475000Y-33450000D01*
X14075000Y-43750000D02*
X13650000Y-43750000D01*
X23525000Y-33450000D02*
X23950000Y-33450000D01*
X23525000Y-43750000D02*
X23950000Y-43750000D01*
X23950000Y-33450000D02*
X23950000Y-33875000D01*
X23950000Y-43750000D02*
X23950000Y-43325000D01*
D14*
X12850000Y-33900000D02*
G75*
G03*
X12550000Y-33900000I-150000J0D01*
G01*
X12550000Y-33900000D02*
G75*
G03*
X12850000Y-33900000I150000J0D01*
G01*
D13*
%TO.C,J10*%
X9890000Y-67140000D02*
X11000000Y-67140000D01*
X9890000Y-67900000D02*
X9890000Y-67140000D01*
X9890000Y-68660000D02*
X9890000Y-72405000D01*
X9890000Y-68660000D02*
X10436529Y-68660000D01*
X9890000Y-72405000D02*
X10692470Y-72405000D01*
X11307530Y-72405000D02*
X12110000Y-72405000D01*
X11563471Y-68660000D02*
X12110000Y-68660000D01*
X12110000Y-68660000D02*
X12110000Y-72405000D01*
%TO.C,R3*%
X18346359Y-60520000D02*
X18653641Y-60520000D01*
X18346359Y-61280000D02*
X18653641Y-61280000D01*
%TO.C,R1*%
X11646358Y-29220000D02*
X11953640Y-29220000D01*
X11646358Y-29980000D02*
X11953640Y-29980000D01*
%TO.C,Q1*%
X32100000Y-17640000D02*
X31450000Y-17640000D01*
X32100000Y-17640000D02*
X32750000Y-17640000D01*
X32100000Y-20760000D02*
X31450000Y-20760000D01*
X32100000Y-20760000D02*
X32750000Y-20760000D01*
X30937500Y-17690000D02*
X30697500Y-17360000D01*
X31177500Y-17360000D01*
X30937500Y-17690000D01*
G36*
X30937500Y-17690000D02*
G01*
X30697500Y-17360000D01*
X31177500Y-17360000D01*
X30937500Y-17690000D01*
G37*
%TO.C,J4*%
X13600000Y-3900000D02*
X13600000Y-5240000D01*
X13600000Y-7960000D02*
X13600000Y-9700000D01*
X13600000Y-9700000D02*
X24400000Y-9700000D01*
X15090000Y-3900000D02*
X13600000Y-3900000D01*
X15090000Y-3900000D02*
X15090000Y-2700000D01*
X22910000Y-3900000D02*
X24400000Y-3900000D01*
X24400000Y-3900000D02*
X24400000Y-5240000D01*
X24400000Y-9700000D02*
X24400000Y-7960000D01*
%TO.C,R12*%
X25605583Y-39626837D02*
X25912865Y-39626837D01*
X25605583Y-40386837D02*
X25912865Y-40386837D01*
%TO.C,J5*%
X32470000Y-10870000D02*
X33800000Y-10870000D01*
X32470000Y-12200000D02*
X32470000Y-10870000D01*
X32470000Y-13470000D02*
X32470000Y-16070000D01*
X32470000Y-13470000D02*
X35130000Y-13470000D01*
X32470000Y-16070000D02*
X35130000Y-16070000D01*
X35130000Y-13470000D02*
X35130000Y-16070000D01*
%TO.C,R27*%
X31468928Y-56913938D02*
X31776210Y-56913938D01*
X31468928Y-57673938D02*
X31776210Y-57673938D01*
%TO.C,SW1*%
X33750000Y-44860000D02*
X33750000Y-38740000D01*
X37450000Y-44860000D02*
X33750000Y-44860000D01*
X33750000Y-38740000D02*
X37450000Y-38740000D01*
X37450000Y-38740000D02*
X37450000Y-44860000D01*
%TO.C,R25*%
X21569406Y-46308002D02*
X21876688Y-46308002D01*
X21569406Y-47068002D02*
X21876688Y-47068002D01*
%TO.C,R16*%
X25841191Y-40963061D02*
X26148473Y-40963061D01*
X25841191Y-41723061D02*
X26148473Y-41723061D01*
D15*
%TO.C,U7*%
X30350000Y-48840000D02*
X30350000Y-48400000D01*
X30350000Y-50400000D02*
X30350000Y-49760000D01*
X30350000Y-50400000D02*
X30500000Y-50400000D01*
X32775000Y-50375000D02*
X32925000Y-50375000D01*
X32900000Y-48200000D02*
X33050000Y-48200000D01*
X33050000Y-48840000D02*
X33050000Y-48200000D01*
X33050000Y-50400000D02*
X33050000Y-49760000D01*
X30350000Y-48200000D02*
X29990000Y-48200000D01*
X30350000Y-47840000D01*
X30350000Y-48200000D01*
G36*
X30350000Y-48200000D02*
G01*
X29990000Y-48200000D01*
X30350000Y-47840000D01*
X30350000Y-48200000D01*
G37*
D13*
%TO.C,U4*%
X13500000Y-58340000D02*
X11550000Y-58340000D01*
X13500000Y-58340000D02*
X15450000Y-58340000D01*
X13500000Y-63460000D02*
X11550000Y-63460000D01*
X13500000Y-63460000D02*
X15450000Y-63460000D01*
X10800000Y-58435000D02*
X10560000Y-58105000D01*
X11040000Y-58105000D01*
X10800000Y-58435000D01*
G36*
X10800000Y-58435000D02*
G01*
X10560000Y-58105000D01*
X11040000Y-58105000D01*
X10800000Y-58435000D01*
G37*
%TO.C,J9*%
X2290000Y-41040000D02*
X3400000Y-41040000D01*
X2290000Y-41800000D02*
X2290000Y-41040000D01*
X2290000Y-42560000D02*
X2290000Y-48845000D01*
X2290000Y-42560000D02*
X2836529Y-42560000D01*
X2290000Y-48845000D02*
X3092470Y-48845000D01*
X3707530Y-48845000D02*
X4510000Y-48845000D01*
X3963471Y-42560000D02*
X4510000Y-42560000D01*
X4510000Y-42560000D02*
X4510000Y-48845000D01*
%TO.C,R31*%
X16745856Y-44749019D02*
X17053138Y-44749019D01*
X16745856Y-45509019D02*
X17053138Y-45509019D01*
%TO.C,U2*%
X9600000Y-36640000D02*
X7650000Y-36640000D01*
X9600000Y-36640000D02*
X11550000Y-36640000D01*
X9600000Y-41760000D02*
X7650000Y-41760000D01*
X9600000Y-41760000D02*
X11550000Y-41760000D01*
X6900000Y-36735000D02*
X6660000Y-36405000D01*
X7140000Y-36405000D01*
X6900000Y-36735000D01*
G36*
X6900000Y-36735000D02*
G01*
X6660000Y-36405000D01*
X7140000Y-36405000D01*
X6900000Y-36735000D01*
G37*
%TO.C,J6*%
X32470000Y-60470000D02*
X33800000Y-60470000D01*
X32470000Y-61800000D02*
X32470000Y-60470000D01*
X32470000Y-63070000D02*
X32470000Y-65670000D01*
X32470000Y-63070000D02*
X35130000Y-63070000D01*
X32470000Y-65670000D02*
X35130000Y-65670000D01*
X35130000Y-63070000D02*
X35130000Y-65670000D01*
%TO.C,J8*%
X2870000Y-10870000D02*
X4200000Y-10870000D01*
X2870000Y-12200000D02*
X2870000Y-10870000D01*
X2870000Y-13470000D02*
X2870000Y-16070000D01*
X2870000Y-13470000D02*
X5530000Y-13470000D01*
X2870000Y-16070000D02*
X5530000Y-16070000D01*
X5530000Y-13470000D02*
X5530000Y-16070000D01*
%TO.C,R29*%
X6275344Y-21365618D02*
X6582626Y-21365618D01*
X6275344Y-22125618D02*
X6582626Y-22125618D01*
%TO.C,J2*%
X3700000Y-34300000D02*
X5700000Y-34300000D01*
X7600000Y-34300000D02*
X9500000Y-34300000D01*
X9500000Y-34300000D02*
X9500000Y-24900000D01*
X3700000Y-24900000D02*
X5700000Y-24900000D01*
X7600000Y-24900000D02*
X9500000Y-24900000D01*
%TO.C,SW2*%
X33750000Y-57060000D02*
X33750000Y-50940000D01*
X37450000Y-57060000D02*
X33750000Y-57060000D01*
X33750000Y-50940000D02*
X37450000Y-50940000D01*
X37450000Y-50940000D02*
X37450000Y-57060000D01*
%TO.C,R9*%
X32106871Y-42467770D02*
X32414153Y-42467770D01*
X32106871Y-43227770D02*
X32414153Y-43227770D01*
%TO.C,R11*%
X25746359Y-38220000D02*
X26053641Y-38220000D01*
X25746359Y-38980000D02*
X26053641Y-38980000D01*
%TO.C,R14*%
X25605583Y-36813162D02*
X25912865Y-36813162D01*
X25605583Y-37573162D02*
X25912865Y-37573162D01*
%TO.C,R20*%
X19176942Y-46202385D02*
X19484224Y-46202385D01*
X19176942Y-46962385D02*
X19484224Y-46962385D01*
%TO.C,Q3*%
X5900000Y-53240000D02*
X5250000Y-53240000D01*
X5900000Y-53240000D02*
X6550000Y-53240000D01*
X5900000Y-56360000D02*
X5250000Y-56360000D01*
X5900000Y-56360000D02*
X6550000Y-56360000D01*
X4737500Y-53290000D02*
X4497500Y-52960000D01*
X4977500Y-52960000D01*
X4737500Y-53290000D01*
G36*
X4737500Y-53290000D02*
G01*
X4497500Y-52960000D01*
X4977500Y-52960000D01*
X4737500Y-53290000D01*
G37*
%TO.C,L1*%
X26600378Y-60340000D02*
X27399622Y-60340000D01*
X26600378Y-61460000D02*
X27399622Y-61460000D01*
%TO.C,R15*%
X21720430Y-31488723D02*
X22027712Y-31488723D01*
X21720430Y-32248723D02*
X22027712Y-32248723D01*
%TO.C,R10*%
X31895654Y-51570000D02*
X32202936Y-51570000D01*
X31895654Y-52330000D02*
X32202936Y-52330000D01*
%TO.C,L2*%
X27440000Y-36840000D02*
X27440000Y-36990000D01*
X27440000Y-36840000D02*
X30960000Y-36840000D01*
X27440000Y-40360000D02*
X27440000Y-40210000D01*
X27440000Y-40360000D02*
X30960000Y-40360000D01*
X30960000Y-36840000D02*
X30960000Y-36990000D01*
X30960000Y-40360000D02*
X30960000Y-40210000D01*
%TO.C,D1*%
X10250237Y-20451502D02*
X9450237Y-20451502D01*
X10250237Y-20451502D02*
X11050237Y-20451502D01*
X10250237Y-23571502D02*
X9450237Y-23571502D01*
X10250237Y-23571502D02*
X11050237Y-23571502D01*
X8950237Y-20501502D02*
X8710237Y-20171502D01*
X9190237Y-20171502D01*
X8950237Y-20501502D01*
G36*
X8950237Y-20501502D02*
G01*
X8710237Y-20171502D01*
X9190237Y-20171502D01*
X8950237Y-20501502D01*
G37*
%TO.C,C9*%
X32992164Y-34440000D02*
X33207836Y-34440000D01*
X32992164Y-35160000D02*
X33207836Y-35160000D01*
%TO.C,Q4*%
X5900000Y-17640000D02*
X5250000Y-17640000D01*
X5900000Y-17640000D02*
X6550000Y-17640000D01*
X5900000Y-20760000D02*
X5250000Y-20760000D01*
X5900000Y-20760000D02*
X6550000Y-20760000D01*
X4737500Y-17690000D02*
X4497500Y-17360000D01*
X4977500Y-17360000D01*
X4737500Y-17690000D01*
G36*
X4737500Y-17690000D02*
G01*
X4497500Y-17360000D01*
X4977500Y-17360000D01*
X4737500Y-17690000D01*
G37*
%TO.C,R30*%
X18998261Y-44710467D02*
X19305543Y-44710467D01*
X18998261Y-45470467D02*
X19305543Y-45470467D01*
%TO.C,R5*%
X25397063Y-62569999D02*
X25704345Y-62569999D01*
X25397063Y-63329999D02*
X25704345Y-63329999D01*
%TO.C,J11*%
X27590000Y-67140000D02*
X28700000Y-67140000D01*
X27590000Y-67900000D02*
X27590000Y-67140000D01*
X27590000Y-68660000D02*
X27590000Y-72405000D01*
X27590000Y-68660000D02*
X28136529Y-68660000D01*
X27590000Y-72405000D02*
X28392470Y-72405000D01*
X29007530Y-72405000D02*
X29810000Y-72405000D01*
X29263471Y-68660000D02*
X29810000Y-68660000D01*
X29810000Y-68660000D02*
X29810000Y-72405000D01*
%TO.C,U5*%
X22000000Y-59340000D02*
X21200000Y-59340000D01*
X22000000Y-59340000D02*
X22800000Y-59340000D01*
X22000000Y-62460000D02*
X21200000Y-62460000D01*
X22000000Y-62460000D02*
X22800000Y-62460000D01*
X20700000Y-59390000D02*
X20460000Y-59060000D01*
X20940000Y-59060000D01*
X20700000Y-59390000D01*
G36*
X20700000Y-59390000D02*
G01*
X20460000Y-59060000D01*
X20940000Y-59060000D01*
X20700000Y-59390000D01*
G37*
%TO.C,R13*%
X21240280Y-44829203D02*
X21547562Y-44829203D01*
X21240280Y-45589203D02*
X21547562Y-45589203D01*
%TO.C,U3*%
X12700000Y-26300000D02*
X12700000Y-27100000D01*
X12700000Y-27100000D02*
X13500000Y-27100000D01*
X12900000Y-10300000D02*
X26100000Y-10300000D01*
X12900000Y-15700000D02*
X26100000Y-15700000D01*
X12900000Y-26900000D02*
X12900000Y-10300000D01*
X13575000Y-10100000D02*
X12725000Y-10100000D01*
X25550000Y-10100000D02*
X26300000Y-10100000D01*
X26100000Y-10300000D02*
X26100000Y-26900000D01*
X26100000Y-26900000D02*
X12900000Y-26900000D01*
X26300000Y-10100000D02*
X26300000Y-10700000D01*
X26300000Y-26300000D02*
X26300000Y-27100000D01*
X26300000Y-27100000D02*
X25500000Y-27100000D01*
%TO.C,R4*%
X20818004Y-57808452D02*
X21125286Y-57808452D01*
X20818004Y-58568452D02*
X21125286Y-58568452D01*
%TO.C,D5*%
X8164076Y-54285856D02*
X8164076Y-57585856D01*
X8164076Y-54285856D02*
X13674076Y-54285856D01*
X8164076Y-57585856D02*
X13674076Y-57585856D01*
%TO.C,J1*%
X14940000Y-65290000D02*
X15960000Y-65290000D01*
X14940000Y-69540000D02*
X14940000Y-65290000D01*
X15960000Y-65290000D02*
X15960000Y-66890000D01*
X15960000Y-66890000D02*
X17240000Y-66890000D01*
X16660000Y-73110000D02*
X21340000Y-73110000D01*
X17240000Y-66890000D02*
X17240000Y-64000000D01*
X22040000Y-65290000D02*
X22040000Y-66890000D01*
X22040000Y-66890000D02*
X20760000Y-66890000D01*
X23060000Y-65290000D02*
X22040000Y-65290000D01*
X23060000Y-69540000D02*
X23060000Y-65290000D01*
%TO.C,LED2*%
X27280000Y-22350000D02*
X27280000Y-23000000D01*
X27280000Y-22350000D02*
X30120000Y-22350000D01*
X27280000Y-24650000D02*
X30120000Y-24650000D01*
%TO.C,R17*%
X11583831Y-35152311D02*
X11891113Y-35152311D01*
X11583831Y-35912311D02*
X11891113Y-35912311D01*
%TO.C,D3*%
X29940705Y-25445905D02*
X29940705Y-28745905D01*
X29940705Y-25445905D02*
X35450705Y-25445905D01*
X29940705Y-28745905D02*
X35450705Y-28745905D01*
%TO.C,U10*%
X10628928Y-42976631D02*
X9828928Y-42976631D01*
X10628928Y-42976631D02*
X11428928Y-42976631D01*
X10628928Y-46096631D02*
X9828928Y-46096631D01*
X10628928Y-46096631D02*
X11428928Y-46096631D01*
X9328928Y-43026631D02*
X9088928Y-42696631D01*
X9568928Y-42696631D01*
X9328928Y-43026631D01*
G36*
X9328928Y-43026631D02*
G01*
X9088928Y-42696631D01*
X9568928Y-42696631D01*
X9328928Y-43026631D01*
G37*
%TO.C,R18*%
X25561942Y-34834042D02*
X25869224Y-34834042D01*
X25561942Y-35594042D02*
X25869224Y-35594042D01*
%TO.C,R6*%
X18552911Y-57602260D02*
X18860193Y-57602260D01*
X18552911Y-58362260D02*
X18860193Y-58362260D01*
%TO.C,U6*%
X7040000Y-51210000D02*
X7040000Y-50985000D01*
X7765000Y-47990000D02*
X7340000Y-47990000D01*
X7765000Y-51210000D02*
X7040000Y-51210000D01*
X9035000Y-47990000D02*
X9760000Y-47990000D01*
X9035000Y-51210000D02*
X9760000Y-51210000D01*
X9760000Y-47990000D02*
X9760000Y-48215000D01*
X9760000Y-51210000D02*
X9760000Y-50985000D01*
X7040000Y-47990000D02*
X6800000Y-47660000D01*
X7280000Y-47660000D01*
X7040000Y-47990000D01*
G36*
X7040000Y-47990000D02*
G01*
X6800000Y-47660000D01*
X7280000Y-47660000D01*
X7040000Y-47990000D01*
G37*
%TO.C,R23*%
X23581814Y-44893176D02*
X23889096Y-44893176D01*
X23581814Y-45653176D02*
X23889096Y-45653176D01*
%TO.C,R8*%
X20129256Y-56144893D02*
X20436538Y-56144893D01*
X20129256Y-56904893D02*
X20436538Y-56904893D01*
%TO.C,C8*%
X29314733Y-31846061D02*
X29530405Y-31846061D01*
X29314733Y-32566061D02*
X29530405Y-32566061D01*
%TO.C,R21*%
X25646358Y-67520000D02*
X25953640Y-67520000D01*
X25646358Y-68280000D02*
X25953640Y-68280000D01*
%TO.C,J7*%
X2870000Y-60470000D02*
X4200000Y-60470000D01*
X2870000Y-61800000D02*
X2870000Y-60470000D01*
X2870000Y-63070000D02*
X2870000Y-65670000D01*
X2870000Y-63070000D02*
X5530000Y-63070000D01*
X2870000Y-65670000D02*
X5530000Y-65670000D01*
X5530000Y-63070000D02*
X5530000Y-65670000D01*
%TO.C,R24*%
X16897721Y-46333708D02*
X17205003Y-46333708D01*
X16897721Y-47093708D02*
X17205003Y-47093708D01*
%TO.C,D6*%
X13299053Y-27964413D02*
X13299053Y-31264413D01*
X13299053Y-27964413D02*
X18809053Y-27964413D01*
X13299053Y-31264413D02*
X18809053Y-31264413D01*
%TO.C,R26*%
X32475344Y-21365618D02*
X32782626Y-21365618D01*
X32475344Y-22125618D02*
X32782626Y-22125618D01*
%TD*%
M02*
